<svg id="logo" xmlns="http://www.w3.org/2000/svg" width="135.133" height="63.706" viewBox="0 0 135.133 63.706">
  <g id="gyrix" transform="translate(-68.973 -31)">
    <path id="Path_92" data-name="Path 92" d="M1914.782-459.677a1.339,1.339,0,0,1-1.735-.467,3.946,3.946,0,0,0-.285-.385,3.613,3.613,0,0,0-2.926-1.145,3.935,3.935,0,0,0-3.442,1.534,8.8,8.8,0,0,0-1.137,4.9v4.445a8.61,8.61,0,0,0,1.257,5.051,4.163,4.163,0,0,0,3.607,1.759,4.772,4.772,0,0,0,3.367-1.073l.4-.372v-6.083h-3.318a1.387,1.387,0,0,1-1.387-1.387h0a1.387,1.387,0,0,1,1.387-1.387h4.523a1.534,1.534,0,0,1,1.534,1.534v8.109l-.479.6a7.525,7.525,0,0,1-6.046,2.409,6.923,6.923,0,0,1-5.545-2.342,10.025,10.025,0,0,1-2.058-6.622v-4.28q0-4.58,1.833-6.862a6.615,6.615,0,0,1,5.485-2.282,6.651,6.651,0,0,1,4.871,1.729,5.649,5.649,0,0,1,.545.621,1.338,1.338,0,0,1-.456,2Z" transform="translate(-1779.043 504.003)" fill="#bf353e"/>
    <path id="Path_93" data-name="Path 93" d="M2046.4-453.754l4.12-9.2a1.369,1.369,0,0,1,1.268-.852h.053a1.37,1.37,0,0,1,1.247,1.935l-5.319,11.729v6.757a1.369,1.369,0,0,1-1.369,1.369h0a1.369,1.369,0,0,1-1.369-1.369v-6.757l-5.318-11.729a1.369,1.369,0,0,1,1.247-1.935h.068a1.369,1.369,0,0,1,1.268.852Z" transform="translate(-1897.143 503.817)" fill="#bf353e"/>
    <path id="Path_94" data-name="Path 94" d="M2185.146-440.873l-3.523-8.012h-5.309v7.472a1.343,1.343,0,0,1-1.343,1.343h-.067a1.343,1.343,0,0,1-1.343-1.343v-18.758a1.689,1.689,0,0,1,1.689-1.689h5.9a6.521,6.521,0,0,1,4.849,1.669,6.678,6.678,0,0,1,1.646,4.886,6.793,6.793,0,0,1-.891,3.525,5.63,5.63,0,0,1-2.521,2.267l3.375,7.552a1.343,1.343,0,0,1-1.227,1.891h0A1.343,1.343,0,0,1,2185.146-440.873Zm-8.833-10.362h4.8a3.558,3.558,0,0,0,2.746-1.109,4.2,4.2,0,0,0,1.025-2.969q0-4.2-3.8-4.2h-4.771Z" transform="translate(-2012.559 502.14)" fill="#bf353e"/>
    <path id="Path_95" data-name="Path 95" d="M2312.4-440.071h0a1.369,1.369,0,0,1-1.369-1.37v-19.051a1.369,1.369,0,0,1,1.369-1.369h0a1.369,1.369,0,0,1,1.369,1.369v19.051A1.369,1.369,0,0,1,2312.4-440.071Z" transform="translate(-2130.988 502.14)" fill="#bf353e"/>
    <path id="Path_96" data-name="Path 96" d="M2384.211-453.51l3.715-7.565a1.4,1.4,0,0,1,1.261-.786h.018a1.4,1.4,0,0,1,1.244,2.058l-4.592,8.747,4.706,8.924a1.405,1.405,0,0,1-1.243,2.06h-.044a1.405,1.405,0,0,1-1.26-.784l-3.8-7.717-3.819,7.719a1.405,1.405,0,0,1-1.259.782h-.04a1.405,1.405,0,0,1-1.242-2.063l4.729-8.922-4.615-8.744a1.405,1.405,0,0,1,1.243-2.061h0a1.4,1.4,0,0,1,1.259.782Z" transform="translate(-2188.414 502.14)" fill="#bf353e"/>
  </g>
  <g id="tech" transform="translate(54.857 35.461)">
    <path id="Path_116" data-name="Path 116" d="M1911.028-270.962h-2.364v8.017h-1.129v-8.017h-2.358v-.969h5.851Z" transform="translate(-1905.177 272.054)" fill="#313641"/>
    <path id="Path_117" data-name="Path 117" d="M1970.162-267.1h-3.179v3.185h3.7v.969h-4.832v-8.986h4.771v.969h-3.641v2.895h3.179Z" transform="translate(-1957.451 272.054)" fill="#313641"/>
    <path id="Path_118" data-name="Path 118" d="M2024.394-266.57a3.333,3.333,0,0,1-.812,2.213,2.752,2.752,0,0,1-2.083.768,2.575,2.575,0,0,1-2.148-1.028,4.438,4.438,0,0,1-.8-2.787v-1.629a4.3,4.3,0,0,1,.818-2.771,2.708,2.708,0,0,1,2.231-1.018,2.6,2.6,0,0,1,2.015.778,3.41,3.41,0,0,1,.775,2.228h-1.142a2.778,2.778,0,0,0-.463-1.568,1.451,1.451,0,0,0-1.185-.469,1.612,1.612,0,0,0-1.413.719,3.722,3.722,0,0,0-.494,2.108v1.648a3.935,3.935,0,0,0,.46,2.092,1.49,1.49,0,0,0,1.342.728,1.622,1.622,0,0,0,1.271-.438,2.757,2.757,0,0,0,.482-1.574Z" transform="translate(-2002.852 272.822)" fill="#313641"/>
    <path id="Path_119" data-name="Path 119" d="M2086.5-262.945h-1.136V-267.1h-3.616v4.154h-1.13v-8.986h1.13v3.864h3.616v-3.864h1.136Z" transform="translate(-2056.316 272.054)" fill="#313641"/>
    <path id="Path_120" data-name="Path 120" d="M2151.93-262.945h-1.135l-3.6-6.925v6.925h-1.136v-8.986h1.136l3.61,6.956v-6.956h1.123Z" transform="translate(-2112.699 272.054)" fill="#313641"/>
    <path id="Path_121" data-name="Path 121" d="M2216.034-267.416a4.483,4.483,0,0,1-.784,2.833,2.673,2.673,0,0,1-2.228.994,2.705,2.705,0,0,1-2.194-.966,4.272,4.272,0,0,1-.836-2.731v-1.691a4.487,4.487,0,0,1,.8-2.823,2.658,2.658,0,0,1,2.222-1.021,2.69,2.69,0,0,1,2.213.978,4.41,4.41,0,0,1,.812,2.793Zm-1.129-1.574a3.849,3.849,0,0,0-.466-2.12,1.6,1.6,0,0,0-1.429-.694,1.6,1.6,0,0,0-1.41.7,3.722,3.722,0,0,0-.484,2.074v1.611a3.805,3.805,0,0,0,.478,2.1,1.6,1.6,0,0,0,1.429.722,1.588,1.588,0,0,0,1.407-.667,3.746,3.746,0,0,0,.475-2.043Z" transform="translate(-2167.775 272.822)" fill="#313641"/>
    <path id="Path_122" data-name="Path 122" d="M2276.217-263.914h3.524v.969h-4.66v-8.986h1.136Z" transform="translate(-2223.85 272.054)" fill="#313641"/>
    <path id="Path_123" data-name="Path 123" d="M2327.953-265.3h-3.036l-.7,2.352h-1.16l2.895-8.986h.969l2.9,8.986h-1.16Zm-2.74-.969h2.45l-1.228-4.086Z" transform="translate(-2265.183 272.054)" fill="#313641"/>
    <path id="Path_124" data-name="Path 124" d="M2389.574-262.945v-8.986h2.561a2.566,2.566,0,0,1,1.848.6,2.388,2.388,0,0,1,.621,1.8,1.981,1.981,0,0,1-.315,1.111,2.115,2.115,0,0,1-.851.747,1.709,1.709,0,0,1,.978.759,2.544,2.544,0,0,1,.361,1.383,2.631,2.631,0,0,1-.663,1.9,2.5,2.5,0,0,1-1.892.691Zm1.129-5.153h1.45a1.221,1.221,0,0,0,.947-.4,1.5,1.5,0,0,0,.361-1.051,1.508,1.508,0,0,0-.327-1.079,1.335,1.335,0,0,0-1-.337H2390.7Zm0,.95v3.234h1.543a1.3,1.3,0,0,0,1.019-.423,1.727,1.727,0,0,0,.376-1.188q0-1.623-1.37-1.623Z" transform="translate(-2322.486 272.054)" fill="#313641"/>
    <path id="Path_125" data-name="Path 125" d="M2449.364-265.984a1.381,1.381,0,0,0-.364-1.031,3.731,3.731,0,0,0-1.314-.7,5.718,5.718,0,0,1-1.454-.713,2.524,2.524,0,0,1-.753-.852,2.331,2.331,0,0,1-.25-1.1,2.344,2.344,0,0,1,.713-1.759,2.569,2.569,0,0,1,1.867-.691,2.784,2.784,0,0,1,1.407.353,2.407,2.407,0,0,1,.95.981,2.9,2.9,0,0,1,.333,1.382h-1.136a1.893,1.893,0,0,0-.4-1.29,1.454,1.454,0,0,0-1.154-.457,1.421,1.421,0,0,0-1.062.383,1.471,1.471,0,0,0-.376,1.076,1.254,1.254,0,0,0,.407.952,3.61,3.61,0,0,0,1.259.686,4.336,4.336,0,0,1,1.9,1.081,2.431,2.431,0,0,1,.571,1.679,2.271,2.271,0,0,1-.709,1.75,2.732,2.732,0,0,1-1.932.657,3.108,3.108,0,0,1-1.447-.343,2.591,2.591,0,0,1-1.043-.963,2.671,2.671,0,0,1-.379-1.423h1.136a1.746,1.746,0,0,0,.466,1.3,1.72,1.72,0,0,0,1.268.463,1.509,1.509,0,0,0,1.123-.383A1.422,1.422,0,0,0,2449.364-265.984Z" transform="translate(-2370.23 272.822)" fill="#313641"/>
  </g>
  <g id="text" transform="translate(-68.973 -31)">
    <g id="Group_144" data-name="Group 144" transform="translate(68.973 88.647)">
      <path id="Path_97" data-name="Path 97" d="M1509.1-112.631h.867v4.771h-.867Z" transform="translate(-1509.097 112.631)" fill="#bf353e"/>
      <path id="Path_98" data-name="Path 98" d="M1523.811-104.534a5.583,5.583,0,0,1,.627-.131,5.4,5.4,0,0,1,.854-.062,1.962,1.962,0,0,1,.737.12,1.149,1.149,0,0,1,.472.337,1.293,1.293,0,0,1,.248.523,2.935,2.935,0,0,1,.072.671v2.024h-.833v-1.893a2.743,2.743,0,0,0-.038-.492.871.871,0,0,0-.124-.33.5.5,0,0,0-.234-.186.988.988,0,0,0-.361-.059,2.763,2.763,0,0,0-.331.021q-.172.02-.255.034v2.905h-.833Z" transform="translate(-1521.773 105.822)" fill="#bf353e"/>
      <path id="Path_99" data-name="Path 99" d="M1553.388-104.534a5.586,5.586,0,0,1,.626-.131,5.407,5.407,0,0,1,.854-.062,1.964,1.964,0,0,1,.737.12,1.15,1.15,0,0,1,.472.337,1.289,1.289,0,0,1,.248.523,2.922,2.922,0,0,1,.072.671v2.024h-.833v-1.893a2.743,2.743,0,0,0-.038-.492.875.875,0,0,0-.124-.33.5.5,0,0,0-.234-.186.988.988,0,0,0-.361-.059,2.761,2.761,0,0,0-.331.021q-.172.02-.255.034v2.905h-.833Z" transform="translate(-1547.254 105.822)" fill="#bf353e"/>
      <path id="Path_100" data-name="Path 100" d="M1584.978-102.94a2.327,2.327,0,0,1-.124.778,1.723,1.723,0,0,1-.351.6,1.577,1.577,0,0,1-.547.386,1.769,1.769,0,0,1-.706.138,1.743,1.743,0,0,1-.7-.138,1.584,1.584,0,0,1-.544-.386,1.761,1.761,0,0,1-.354-.6,2.26,2.26,0,0,1-.128-.778,2.232,2.232,0,0,1,.128-.774,1.739,1.739,0,0,1,.358-.6,1.58,1.58,0,0,1,.547-.382,1.764,1.764,0,0,1,.7-.134,1.789,1.789,0,0,1,.7.134,1.542,1.542,0,0,1,.547.382,1.78,1.78,0,0,1,.355.6A2.243,2.243,0,0,1,1584.978-102.94Zm-.854,0a1.4,1.4,0,0,0-.231-.85.753.753,0,0,0-.644-.313.754.754,0,0,0-.644.313,1.405,1.405,0,0,0-.23.85,1.433,1.433,0,0,0,.23.861.751.751,0,0,0,.644.317.75.75,0,0,0,.644-.317A1.432,1.432,0,0,0,1584.125-102.94Z" transform="translate(-1571.491 105.907)" fill="#bf353e"/>
      <path id="Path_101" data-name="Path 101" d="M1610.776-100.579q-.346-.709-.708-1.628a20.616,20.616,0,0,1-.66-1.973h.889q.076.3.176.651t.214.7q.114.348.235.675t.225.589q.1-.262.221-.589t.231-.675q.114-.348.218-.7t.18-.651h.861a20.616,20.616,0,0,1-.66,1.973q-.363.919-.709,1.628Z" transform="translate(-1595.514 105.35)" fill="#bf353e"/>
      <path id="Path_102" data-name="Path 102" d="M1638.849-104.826a2.038,2.038,0,0,1,.7.1,1.107,1.107,0,0,1,.451.289,1.082,1.082,0,0,1,.241.451,2.2,2.2,0,0,1,.073.582v2.182q-.193.042-.582.1a5.957,5.957,0,0,1-.878.059,2.636,2.636,0,0,1-.592-.062,1.245,1.245,0,0,1-.458-.2.943.943,0,0,1-.3-.358,1.24,1.24,0,0,1-.107-.544,1.05,1.05,0,0,1,.12-.523.987.987,0,0,1,.327-.348,1.413,1.413,0,0,1,.479-.193,2.7,2.7,0,0,1,.568-.059,2.6,2.6,0,0,1,.289.017,2.764,2.764,0,0,1,.323.059v-.138a1.077,1.077,0,0,0-.034-.275.573.573,0,0,0-.12-.231.568.568,0,0,0-.227-.155.988.988,0,0,0-.355-.055,3.143,3.143,0,0,0-.53.041,2.323,2.323,0,0,0-.392.1l-.1-.675a3.3,3.3,0,0,1,.461-.11A3.617,3.617,0,0,1,1638.849-104.826Zm.069,3.105a3.11,3.11,0,0,0,.585-.041v-.923a1.6,1.6,0,0,0-.2-.041,1.869,1.869,0,0,0-.289-.021,1.933,1.933,0,0,0-.279.021.866.866,0,0,0-.255.076.461.461,0,0,0-.183.155.433.433,0,0,0-.069.251.441.441,0,0,0,.186.41A.958.958,0,0,0,1638.917-101.721Z" transform="translate(-1619.627 105.907)" fill="#bf353e"/>
      <path id="Path_103" data-name="Path 103" d="M1665.979-111.9l.833-.138v1.088h1.281v.7h-1.281v1.466a1.066,1.066,0,0,0,.138.62.545.545,0,0,0,.468.186,1.523,1.523,0,0,0,.4-.048,2.684,2.684,0,0,0,.279-.089l.138.661a3.1,3.1,0,0,1-.379.127,2.058,2.058,0,0,1-.551.066,1.742,1.742,0,0,1-.644-.1.949.949,0,0,1-.41-.3,1.184,1.184,0,0,1-.213-.475,2.956,2.956,0,0,1-.062-.637Z" transform="translate(-1644.251 112.117)" fill="#bf353e"/>
      <path id="Path_104" data-name="Path 104" d="M1688.971-102.94a2.32,2.32,0,0,1-.124.778,1.719,1.719,0,0,1-.351.6,1.575,1.575,0,0,1-.547.386,1.769,1.769,0,0,1-.706.138,1.743,1.743,0,0,1-.7-.138,1.585,1.585,0,0,1-.544-.386,1.763,1.763,0,0,1-.354-.6,2.26,2.26,0,0,1-.127-.778,2.232,2.232,0,0,1,.127-.774,1.736,1.736,0,0,1,.358-.6,1.58,1.58,0,0,1,.547-.382,1.764,1.764,0,0,1,.7-.134,1.789,1.789,0,0,1,.7.134,1.54,1.54,0,0,1,.547.382,1.776,1.776,0,0,1,.355.6A2.243,2.243,0,0,1,1688.971-102.94Zm-.854,0a1.406,1.406,0,0,0-.231-.85.754.754,0,0,0-.644-.313.754.754,0,0,0-.644.313,1.405,1.405,0,0,0-.231.85,1.433,1.433,0,0,0,.231.861.751.751,0,0,0,.644.317.751.751,0,0,0,.644-.317A1.434,1.434,0,0,0,1688.118-102.94Z" transform="translate(-1661.081 105.907)" fill="#bf353e"/>
      <path id="Path_105" data-name="Path 105" d="M1719.231-103.9a2.668,2.668,0,0,0-.286-.072,2.107,2.107,0,0,0-.424-.038,1.7,1.7,0,0,0-.292.027,1.763,1.763,0,0,0-.217.048v2.885h-.833v-3.429a4.624,4.624,0,0,1,.6-.169,3.767,3.767,0,0,1,.8-.079q.083,0,.193.01c.073.007.147.016.22.028s.145.025.213.041.124.031.165.045Z" transform="translate(-1688.36 105.822)" fill="#bf353e"/>
      <path id="Path_106" data-name="Path 106" d="M1736.9-101.735a1.093,1.093,0,0,0,.482-.079.281.281,0,0,0,.152-.272.353.353,0,0,0-.162-.3,2.376,2.376,0,0,0-.534-.255,4.224,4.224,0,0,1-.416-.175,1.413,1.413,0,0,1-.327-.217.887.887,0,0,1-.217-.3,1.045,1.045,0,0,1-.079-.43.939.939,0,0,1,.365-.781,1.567,1.567,0,0,1,.991-.286,3.056,3.056,0,0,1,.606.058,2.964,2.964,0,0,1,.434.114l-.151.675a2.052,2.052,0,0,0-.351-.114,2.128,2.128,0,0,0-.5-.052.863.863,0,0,0-.413.086.282.282,0,0,0-.158.265.384.384,0,0,0,.031.158.34.34,0,0,0,.107.127,1.091,1.091,0,0,0,.2.117,3.067,3.067,0,0,0,.3.12,4.637,4.637,0,0,1,.5.217,1.352,1.352,0,0,1,.341.241.824.824,0,0,1,.2.306,1.225,1.225,0,0,1,.062.413.89.89,0,0,1-.382.781,1.9,1.9,0,0,1-1.091.265,2.989,2.989,0,0,1-.764-.079,3.9,3.9,0,0,1-.406-.127l.145-.7a3.7,3.7,0,0,0,.444.145A2.288,2.288,0,0,0,1736.9-101.735Z" transform="translate(-1704.334 105.907)" fill="#bf353e"/>
    </g>
    <g id="Group_145" data-name="Group 145" transform="translate(133.73 88.647)">
      <path id="Path_107" data-name="Path 107" d="M1976.659-107.86v-4.771h3.064v.737h-2.2v1.177h1.955v.723h-1.955v1.4h2.361v.737Z" transform="translate(-1976.659 112.631)" fill="#bf353e"/>
      <path id="Path_108" data-name="Path 108" d="M2004.938-103.078l.765-1.1h.875l-1.209,1.725q.379.476.726.962a7.883,7.883,0,0,1,.572.914h-.907a2.784,2.784,0,0,0-.162-.278q-.1-.151-.212-.316t-.236-.325q-.123-.161-.24-.3a6.94,6.94,0,0,0-.474.621q-.231.34-.384.6h-.849a4.27,4.27,0,0,1,.251-.437q.149-.23.319-.469t.35-.479q.181-.239.358-.456l-1.222-1.76h.916Z" transform="translate(-1999.527 105.35)" fill="#bf353e"/>
      <path id="Path_109" data-name="Path 109" d="M2036.422-102.847a2.551,2.551,0,0,1-.107.757,1.764,1.764,0,0,1-.306.592,1.364,1.364,0,0,1-.5.386,1.608,1.608,0,0,1-.678.138,1.673,1.673,0,0,1-.468-.062,1.747,1.747,0,0,1-.351-.138v1.4h-.833v-4.757q.255-.069.626-.131a4.777,4.777,0,0,1,.785-.062,2.1,2.1,0,0,1,.764.131,1.591,1.591,0,0,1,.575.375,1.652,1.652,0,0,1,.365.592A2.264,2.264,0,0,1,2036.422-102.847Zm-.854.014a1.343,1.343,0,0,0-.251-.867.982.982,0,0,0-.809-.31c-.078,0-.159,0-.244.01a1.357,1.357,0,0,0-.251.045v2.059a1.286,1.286,0,0,0,.293.141,1.14,1.14,0,0,0,.389.066.745.745,0,0,0,.664-.31A1.462,1.462,0,0,0,2035.568-102.834Z" transform="translate(-2025.351 105.822)" fill="#bf353e"/>
      <path id="Path_110" data-name="Path 110" d="M2061.859-102.919a2.259,2.259,0,0,1,.141-.833,1.745,1.745,0,0,1,.375-.6,1.551,1.551,0,0,1,.537-.358,1.667,1.667,0,0,1,.62-.12,1.484,1.484,0,0,1,1.16.461,2,2,0,0,1,.416,1.377c0,.046,0,.1,0,.155s-.006.109-.01.155h-2.375a.951.951,0,0,0,.306.671,1.165,1.165,0,0,0,.789.238,2.586,2.586,0,0,0,.554-.055,2.257,2.257,0,0,0,.4-.117l.11.682a1.324,1.324,0,0,1-.189.072,2.628,2.628,0,0,1-.275.069c-.1.021-.215.038-.334.052a3.165,3.165,0,0,1-.365.021,2.209,2.209,0,0,1-.826-.141,1.537,1.537,0,0,1-.578-.392,1.6,1.6,0,0,1-.337-.592A2.416,2.416,0,0,1,2061.859-102.919Zm2.417-.372a1.107,1.107,0,0,0-.048-.327.79.79,0,0,0-.142-.269.665.665,0,0,0-.227-.179.724.724,0,0,0-.32-.066.743.743,0,0,0-.337.072.764.764,0,0,0-.245.189.867.867,0,0,0-.155.268,1.442,1.442,0,0,0-.076.31Z" transform="translate(-2050.059 105.907)" fill="#bf353e"/>
      <path id="Path_111" data-name="Path 111" d="M2094.236-103.9a2.679,2.679,0,0,0-.286-.072,2.1,2.1,0,0,0-.423-.038,1.7,1.7,0,0,0-.293.027,1.763,1.763,0,0,0-.217.048v2.885h-.833v-3.429a4.621,4.621,0,0,1,.6-.169,3.767,3.767,0,0,1,.8-.079q.083,0,.193.01c.073.007.147.016.22.028s.145.025.213.041.124.031.165.045Z" transform="translate(-2076.184 105.822)" fill="#bf353e"/>
      <path id="Path_112" data-name="Path 112" d="M2112.415-111.9l.833-.138v1.088h1.281v.7h-1.281v1.466a1.066,1.066,0,0,0,.138.62.545.545,0,0,0,.468.186,1.526,1.526,0,0,0,.4-.048,2.671,2.671,0,0,0,.279-.089l.138.661a3.118,3.118,0,0,1-.379.127,2.059,2.059,0,0,1-.551.066,1.743,1.743,0,0,1-.644-.1.95.95,0,0,1-.41-.3,1.189,1.189,0,0,1-.213-.475,2.94,2.94,0,0,1-.062-.637Z" transform="translate(-2093.613 112.117)" fill="#bf353e"/>
      <path id="Path_113" data-name="Path 113" d="M2133.177-101.735a1.093,1.093,0,0,0,.482-.079.281.281,0,0,0,.152-.272.352.352,0,0,0-.162-.3,2.378,2.378,0,0,0-.533-.255,4.217,4.217,0,0,1-.417-.175,1.422,1.422,0,0,1-.327-.217.885.885,0,0,1-.217-.3,1.044,1.044,0,0,1-.079-.43.938.938,0,0,1,.365-.781,1.568,1.568,0,0,1,.991-.286,3.057,3.057,0,0,1,.606.058,2.966,2.966,0,0,1,.434.114l-.151.675a2.055,2.055,0,0,0-.351-.114,2.129,2.129,0,0,0-.5-.052.864.864,0,0,0-.413.086.283.283,0,0,0-.158.265.376.376,0,0,0,.031.158.338.338,0,0,0,.107.127,1.074,1.074,0,0,0,.2.117,3.022,3.022,0,0,0,.3.12,4.634,4.634,0,0,1,.5.217,1.361,1.361,0,0,1,.341.241.829.829,0,0,1,.2.306,1.231,1.231,0,0,1,.062.413.89.89,0,0,1-.382.781,1.9,1.9,0,0,1-1.091.265,2.983,2.983,0,0,1-.764-.079,3.885,3.885,0,0,1-.406-.127l.145-.7a3.719,3.719,0,0,0,.444.145A2.284,2.284,0,0,0,2133.177-101.735Z" transform="translate(-2110.485 105.907)" fill="#bf353e"/>
    </g>
    <g id="Group_148" data-name="Group 148" transform="translate(105.524 88.076)">
      <path id="Path_126" data-name="Path 126" d="M1776.245-113.21a2.253,2.253,0,0,1-.128.781,1.682,1.682,0,0,1-.365.6,1.57,1.57,0,0,1-.575.379,2.1,2.1,0,0,1-.764.131,4.841,4.841,0,0,1-.788-.062,4.9,4.9,0,0,1-.623-.138v-5.095l.833-.138v1.866a1.968,1.968,0,0,1,.354-.138,1.641,1.641,0,0,1,.465-.062,1.64,1.64,0,0,1,.678.134,1.325,1.325,0,0,1,.5.382,1.767,1.767,0,0,1,.307.6A2.615,2.615,0,0,1,1776.245-113.21Zm-.854-.014a1.477,1.477,0,0,0-.21-.84.745.745,0,0,0-.664-.31,1.206,1.206,0,0,0-.389.062,1.2,1.2,0,0,0-.293.138v2.072a2.266,2.266,0,0,0,.231.038,2.868,2.868,0,0,0,.341.017.891.891,0,0,0,.723-.313A1.308,1.308,0,0,0,1775.391-113.224Z" transform="translate(-1773.002 116.756)" fill="#313641"/>
      <path id="Path_127" data-name="Path 127" d="M1802.179-104.18a26.234,26.234,0,0,1-1.292,3.718,3.764,3.764,0,0,1-.282.53,1.579,1.579,0,0,1-.324.365,1.158,1.158,0,0,1-.4.21,1.8,1.8,0,0,1-.51.066,1.79,1.79,0,0,1-.382-.041,1.286,1.286,0,0,1-.286-.089l.151-.668a1.354,1.354,0,0,0,.491.1.764.764,0,0,0,.508-.155,1.271,1.271,0,0,0,.322-.478q-.394-.757-.757-1.652a18.135,18.135,0,0,1-.646-1.9h.888q.069.289.169.627t.218.685q.118.348.249.692t.263.64q.219-.613.411-1.3t.35-1.339Z" transform="translate(-1795.143 105.922)" fill="#313641"/>
      <path id="Path_128" data-name="Path 128" d="M1845.3-110.549a2.762,2.762,0,0,1-.193,1.077,2.035,2.035,0,0,1-.547.764,2.274,2.274,0,0,1-.854.454,3.88,3.88,0,0,1-1.1.148q-.289,0-.654-.024a4.4,4.4,0,0,1-.7-.1v-4.633a4.177,4.177,0,0,1,.7-.1q.372-.021.661-.021a3.986,3.986,0,0,1,1.095.141,2.257,2.257,0,0,1,.85.44,1.979,1.979,0,0,1,.547.757A2.8,2.8,0,0,1,1845.3-110.549Zm-3.181,1.673c.05,0,.117.008.2.01s.195,0,.337,0a1.74,1.74,0,0,0,1.3-.444,1.712,1.712,0,0,0,.43-1.243,1.721,1.721,0,0,0-.42-1.246,1.739,1.739,0,0,0-1.3-.434,5.032,5.032,0,0,0-.551.021Z" transform="translate(-1831.8 113.502)" fill="#313641"/>
      <path id="Path_129" data-name="Path 129" d="M1881.054-107.86q-.234-.392-.523-.843t-.6-.909q-.31-.458-.63-.888t-.609-.775v3.415h-.854v-4.771h.709q.275.289.592.685t.637.823q.32.427.62.857t.533.8v-3.167h.861v4.771Z" transform="translate(-1863.319 113.202)" fill="#313641"/>
      <path id="Path_130" data-name="Path 130" d="M1914.952-107.86q-.1-.282-.2-.558t-.2-.565h-2.015q-.1.289-.2.568t-.2.554h-.9q.268-.764.509-1.411t.471-1.226q.231-.578.457-1.1t.468-1.033h.828q.241.51.468,1.033t.458,1.1q.231.578.475,1.226t.513,1.411Zm-1.408-3.849q-.158.365-.361.888t-.423,1.136h1.57q-.22-.613-.427-1.143T1913.544-111.708Z" transform="translate(-1892.095 113.202)" fill="#313641"/>
      <path id="Path_131" data-name="Path 131" d="M1949.525-84.793a1.606,1.606,0,0,1,.014.172v.11a3.1,3.1,0,0,1-.134.881,3.78,3.78,0,0,1-.375.861l-.654-.179a3.381,3.381,0,0,0,.224-.781,4.511,4.511,0,0,0,.058-.671q0-.083,0-.207c0-.083-.006-.145-.01-.186Z" transform="translate(-1924.086 89.22)" fill="#313641"/>
    </g>
    <g id="Group_149" data-name="Group 149" transform="translate(160.408 88.076)">
      <path id="Path_132" data-name="Path 132" d="M2172.524-113.21a2.259,2.259,0,0,1-.127.781,1.686,1.686,0,0,1-.365.6,1.573,1.573,0,0,1-.575.379,2.1,2.1,0,0,1-.764.131,4.845,4.845,0,0,1-.789-.062,4.919,4.919,0,0,1-.623-.138v-5.095l.833-.138v1.866a1.957,1.957,0,0,1,.354-.138,1.639,1.639,0,0,1,.465-.062,1.639,1.639,0,0,1,.678.134,1.328,1.328,0,0,1,.5.382,1.769,1.769,0,0,1,.306.6A2.6,2.6,0,0,1,2172.524-113.21Zm-.854-.014a1.477,1.477,0,0,0-.21-.84.745.745,0,0,0-.664-.31,1.2,1.2,0,0,0-.389.062,1.2,1.2,0,0,0-.292.138v2.072a2.257,2.257,0,0,0,.23.038,2.867,2.867,0,0,0,.341.017.89.89,0,0,0,.723-.313A1.307,1.307,0,0,0,2171.67-113.224Z" transform="translate(-2169.281 116.756)" fill="#313641"/>
      <path id="Path_133" data-name="Path 133" d="M2198.458-104.18a26.28,26.28,0,0,1-1.292,3.718,3.739,3.739,0,0,1-.282.53,1.583,1.583,0,0,1-.324.365,1.157,1.157,0,0,1-.4.21,1.8,1.8,0,0,1-.51.066,1.791,1.791,0,0,1-.383-.041,1.289,1.289,0,0,1-.286-.089l.151-.668a1.356,1.356,0,0,0,.491.1.763.763,0,0,0,.508-.155,1.275,1.275,0,0,0,.322-.478q-.394-.757-.757-1.652a18.135,18.135,0,0,1-.646-1.9h.888q.069.289.169.627t.218.685q.117.348.249.692t.263.64q.219-.613.411-1.3t.349-1.339Z" transform="translate(-2191.422 105.922)" fill="#313641"/>
      <path id="Path_134" data-name="Path 134" d="M2238.881-112.979a2.815,2.815,0,0,1,1.594.379,1.333,1.333,0,0,1,.554,1.184,1.613,1.613,0,0,1-.148.72,1.242,1.242,0,0,1-.43.489,1.992,1.992,0,0,1-.688.279,4.351,4.351,0,0,1-.929.089h-.434v1.68h-.868v-4.7a4.351,4.351,0,0,1,.671-.093Q2238.572-112.979,2238.881-112.979Zm.062.751q-.33,0-.544.021v1.625h.42a2.131,2.131,0,0,0,.964-.175.679.679,0,0,0,.337-.664.789.789,0,0,0-.089-.392.643.643,0,0,0-.248-.248,1.169,1.169,0,0,0-.375-.127A2.706,2.706,0,0,0,2238.943-112.228Z" transform="translate(-2228.079 113.502)" fill="#313641"/>
      <path id="Path_135" data-name="Path 135" d="M2270.751-103.9a2.717,2.717,0,0,0-.286-.072,2.106,2.106,0,0,0-.423-.038,1.693,1.693,0,0,0-.293.027,1.724,1.724,0,0,0-.217.048v2.885h-.833v-3.429a4.626,4.626,0,0,1,.6-.169,3.77,3.77,0,0,1,.8-.079q.082,0,.193.01c.073.007.147.016.22.028s.145.025.213.041.124.031.165.045Z" transform="translate(-2254.93 106.393)" fill="#313641"/>
      <path id="Path_136" data-name="Path 136" d="M2291.243-102.94a2.327,2.327,0,0,1-.124.778,1.729,1.729,0,0,1-.351.6,1.584,1.584,0,0,1-.548.386,1.769,1.769,0,0,1-.706.138,1.744,1.744,0,0,1-.7-.138,1.583,1.583,0,0,1-.544-.386,1.764,1.764,0,0,1-.355-.6,2.266,2.266,0,0,1-.127-.778,2.237,2.237,0,0,1,.127-.774,1.747,1.747,0,0,1,.358-.6,1.582,1.582,0,0,1,.547-.382,1.763,1.763,0,0,1,.7-.134,1.79,1.79,0,0,1,.7.134,1.537,1.537,0,0,1,.547.382,1.772,1.772,0,0,1,.354.6A2.237,2.237,0,0,1,2291.243-102.94Zm-.854,0a1.4,1.4,0,0,0-.231-.85.753.753,0,0,0-.644-.313.754.754,0,0,0-.644.313,1.405,1.405,0,0,0-.231.85,1.433,1.433,0,0,0,.231.861.751.751,0,0,0,.644.317.75.75,0,0,0,.644-.317A1.432,1.432,0,0,0,2290.39-102.94Z" transform="translate(-2271.374 106.478)" fill="#313641"/>
      <path id="Path_137" data-name="Path 137" d="M2320.919-116.756a2.254,2.254,0,0,1,.51.052,2.938,2.938,0,0,1,.33.093l-.158.689a1.31,1.31,0,0,0-.272-.09,1.547,1.547,0,0,0-.334-.034.866.866,0,0,0-.338.059.55.55,0,0,0-.22.162.62.62,0,0,0-.117.251,1.414,1.414,0,0,0-.034.32v.241h1.308v.7h-1.308v2.905h-.833v-3.856a1.549,1.549,0,0,1,.365-1.091A1.427,1.427,0,0,1,2320.919-116.756Z" transform="translate(-2298.654 116.756)" fill="#313641"/>
      <path id="Path_138" data-name="Path 138" d="M2337.9-102.919a2.259,2.259,0,0,1,.141-.833,1.745,1.745,0,0,1,.375-.6,1.552,1.552,0,0,1,.537-.358,1.666,1.666,0,0,1,.62-.12,1.483,1.483,0,0,1,1.16.461,2,2,0,0,1,.417,1.377c0,.046,0,.1,0,.155s-.006.109-.01.155h-2.375a.95.95,0,0,0,.307.671,1.163,1.163,0,0,0,.788.238,2.582,2.582,0,0,0,.554-.055,2.245,2.245,0,0,0,.4-.117l.11.682a1.324,1.324,0,0,1-.189.072,2.628,2.628,0,0,1-.275.069q-.155.031-.334.052a3.17,3.17,0,0,1-.365.021,2.207,2.207,0,0,1-.826-.141,1.539,1.539,0,0,1-.579-.392,1.611,1.611,0,0,1-.337-.592A2.416,2.416,0,0,1,2337.9-102.919Zm2.417-.372a1.1,1.1,0,0,0-.048-.327.8.8,0,0,0-.141-.269.672.672,0,0,0-.227-.179.724.724,0,0,0-.32-.066.745.745,0,0,0-.337.072.765.765,0,0,0-.244.189.867.867,0,0,0-.155.268,1.457,1.457,0,0,0-.076.31Z" transform="translate(-2314.542 106.478)" fill="#313641"/>
      <path id="Path_139" data-name="Path 139" d="M2367.406-101.735a1.1,1.1,0,0,0,.482-.079.281.281,0,0,0,.151-.272.352.352,0,0,0-.162-.3,2.376,2.376,0,0,0-.534-.255,4.242,4.242,0,0,1-.417-.175,1.418,1.418,0,0,1-.327-.217.883.883,0,0,1-.216-.3,1.036,1.036,0,0,1-.08-.43.939.939,0,0,1,.365-.781,1.569,1.569,0,0,1,.992-.286,3.059,3.059,0,0,1,.606.058,2.966,2.966,0,0,1,.434.114l-.151.675a2.07,2.07,0,0,0-.351-.114,2.129,2.129,0,0,0-.5-.052.865.865,0,0,0-.414.086.283.283,0,0,0-.158.265.38.38,0,0,0,.031.158.343.343,0,0,0,.107.127,1.1,1.1,0,0,0,.2.117,3.063,3.063,0,0,0,.3.12,4.6,4.6,0,0,1,.5.217,1.363,1.363,0,0,1,.341.241.829.829,0,0,1,.2.306,1.232,1.232,0,0,1,.062.413.89.89,0,0,1-.382.781,1.9,1.9,0,0,1-1.091.265,2.987,2.987,0,0,1-.764-.079,3.9,3.9,0,0,1-.406-.127l.145-.7a3.7,3.7,0,0,0,.444.145A2.284,2.284,0,0,0,2367.406-101.735Z" transform="translate(-2338.952 106.478)" fill="#313641"/>
      <path id="Path_140" data-name="Path 140" d="M2390.619-101.735a1.1,1.1,0,0,0,.482-.079.281.281,0,0,0,.151-.272.352.352,0,0,0-.162-.3,2.378,2.378,0,0,0-.533-.255,4.2,4.2,0,0,1-.417-.175,1.42,1.42,0,0,1-.327-.217.874.874,0,0,1-.217-.3,1.036,1.036,0,0,1-.08-.43.938.938,0,0,1,.365-.781,1.568,1.568,0,0,1,.991-.286,3.055,3.055,0,0,1,.606.058,2.957,2.957,0,0,1,.434.114l-.151.675a2.063,2.063,0,0,0-.351-.114,2.129,2.129,0,0,0-.5-.052.863.863,0,0,0-.413.086.282.282,0,0,0-.158.265.376.376,0,0,0,.031.158.339.339,0,0,0,.106.127,1.091,1.091,0,0,0,.2.117,3.029,3.029,0,0,0,.3.12,4.634,4.634,0,0,1,.5.217,1.361,1.361,0,0,1,.341.241.829.829,0,0,1,.2.306,1.225,1.225,0,0,1,.062.413.89.89,0,0,1-.382.781,1.9,1.9,0,0,1-1.091.265,2.985,2.985,0,0,1-.764-.079,3.9,3.9,0,0,1-.406-.127l.145-.7a3.7,3.7,0,0,0,.444.145A2.286,2.286,0,0,0,2390.619-101.735Z" transform="translate(-2358.95 106.478)" fill="#313641"/>
      <path id="Path_141" data-name="Path 141" d="M2414.975-115a.478.478,0,0,1-.151.372.514.514,0,0,1-.358.138.522.522,0,0,1-.365-.138.477.477,0,0,1-.152-.372.486.486,0,0,1,.152-.379.523.523,0,0,1,.365-.138.515.515,0,0,1,.358.138A.487.487,0,0,1,2414.975-115Zm-.089,4.654h-.833v-3.6h.833Z" transform="translate(-2380.063 115.686)" fill="#313641"/>
      <path id="Path_142" data-name="Path 142" d="M2430.875-102.94a2.327,2.327,0,0,1-.124.778,1.719,1.719,0,0,1-.351.6,1.579,1.579,0,0,1-.547.386,1.769,1.769,0,0,1-.706.138,1.746,1.746,0,0,1-.7-.138,1.589,1.589,0,0,1-.544-.386,1.763,1.763,0,0,1-.354-.6,2.266,2.266,0,0,1-.128-.778,2.237,2.237,0,0,1,.128-.774,1.739,1.739,0,0,1,.358-.6,1.584,1.584,0,0,1,.547-.382,1.765,1.765,0,0,1,.7-.134,1.79,1.79,0,0,1,.7.134,1.542,1.542,0,0,1,.547.382,1.776,1.776,0,0,1,.354.6A2.237,2.237,0,0,1,2430.875-102.94Zm-.854,0a1.405,1.405,0,0,0-.23-.85.754.754,0,0,0-.644-.313.753.753,0,0,0-.643.313,1.4,1.4,0,0,0-.231.85,1.432,1.432,0,0,0,.231.861.75.75,0,0,0,.643.317.752.752,0,0,0,.644-.317A1.433,1.433,0,0,0,2430.021-102.94Z" transform="translate(-2391.667 106.478)" fill="#313641"/>
      <path id="Path_143" data-name="Path 143" d="M2459.084-104.534a5.574,5.574,0,0,1,.626-.131,5.407,5.407,0,0,1,.854-.062,1.962,1.962,0,0,1,.737.12,1.15,1.15,0,0,1,.472.337,1.289,1.289,0,0,1,.248.523,2.915,2.915,0,0,1,.072.671v2.024h-.833v-1.893a2.768,2.768,0,0,0-.038-.492.879.879,0,0,0-.124-.33.493.493,0,0,0-.234-.186.987.987,0,0,0-.362-.059,2.755,2.755,0,0,0-.33.021c-.115.014-.2.025-.255.034v2.905h-.833Z" transform="translate(-2418.947 106.393)" fill="#313641"/>
    </g>
  </g>
  <path id="smile" d="M1632.623-181.681c-4.3,0-7.294-1.541-9.41-4.85a1.316,1.316,0,0,1,.4-1.817,1.316,1.316,0,0,1,1.817.4c1.608,2.515,3.826,3.636,7.193,3.636,3.4,0,5.267-.935,6.874-3.45a1.316,1.316,0,0,1,1.817-.4,1.316,1.316,0,0,1,.4,1.817C1639.626-183.076,1636.907-181.681,1632.623-181.681Z" transform="translate(-1607.229 235.688)" fill="#313641"/>
  <path id="glass" d="M1603.99-321.836l-2.142-2.329a7.728,7.728,0,0,0,1.842-5.018,7.762,7.762,0,0,0-7.762-7.762,7.743,7.743,0,0,0-5.917,2.74,4.354,4.354,0,0,0-3.507-1.939,4.183,4.183,0,0,0-2.993,1.325,6.29,6.29,0,0,0-5.054-2.834c-3.789,0-6.86,3.916-6.86,8.746s3.071,8.746,6.86,8.746c2.753,0,5.126-2.068,6.218-5.051a10.4,10.4,0,0,0,.481-1.81,11.107,11.107,0,0,0,.161-1.884,10.885,10.885,0,0,0-.434-3.063,2.238,2.238,0,0,1,1.78-.992,2.321,2.321,0,0,1,1.936,1.223,7.745,7.745,0,0,0-.432,2.555,7.778,7.778,0,0,0,.235,1.9,7.7,7.7,0,0,0,.615,1.632,7.76,7.76,0,0,0,6.912,4.232,7.73,7.73,0,0,0,3.26-.718l2.352,2.556a1.665,1.665,0,0,0,2.352.1h0A1.665,1.665,0,0,0,1603.99-321.836Zm-25.533-1.649c-2.19,0-3.965-2.427-3.965-5.421s1.775-5.42,3.965-5.42a3.977,3.977,0,0,1,3.466,2.787,7,7,0,0,1,.5,2.633,7.415,7.415,0,0,1-.074,1.046C1581.991-325.366,1580.385-323.484,1578.457-323.484Zm12.486-5.2c-.016-.163-.024-.328-.024-.495a5,5,0,0,1,.248-1.555,5.01,5.01,0,0,1,4.762-3.454,5.01,5.01,0,0,1,5.01,5.01,5.01,5.01,0,0,1-5.01,5.01A5.01,5.01,0,0,1,1590.943-328.687Z" transform="translate(-1562.941 364.133)" fill="#313641"/>
  <path id="brain" d="M1555.125-518.255a7.127,7.127,0,0,0-6.98-5.631q-.207,0-.414.012a7.114,7.114,0,0,0-6.812-4.986,9.318,9.318,0,0,0-5.831,2.14,8.559,8.559,0,0,0-5.679-2.14,7.115,7.115,0,0,0-6.812,4.986q-.207-.012-.414-.012a7.127,7.127,0,0,0-6.98,5.631,7.117,7.117,0,0,0-5.676,6.99,7.148,7.148,0,0,0,7.14,7.14c.2,0,.412-.009.62-.027l17.879.027,17.874-.027c.207.018.415.027.621.027a7.148,7.148,0,0,0,7.14-7.14A7.117,7.117,0,0,0,1555.125-518.255ZM1536-520.275a.919.919,0,0,1,.485.136.942.942,0,0,1,.463.812.949.949,0,0,1-.947.949.949.949,0,0,1-.949-.949.944.944,0,0,1,.464-.813A.931.931,0,0,1,1536-520.275Zm-6.584,9.032a1.107,1.107,0,0,1-.622-.994,1.106,1.106,0,0,1,1.105-1.105,1.107,1.107,0,0,1,1.107,1.105,1.108,1.108,0,0,1-.62.994,1.1,1.1,0,0,1-.486.112A1.089,1.089,0,0,1,1529.418-511.243Zm24.243,4.348c-.14,0-.284-.007-.427-.021a1.161,1.161,0,0,0-.134-.006l-15.022.022v-2.573h3.571v-2.385A1.243,1.243,0,0,0,1542.4-513a1.24,1.24,0,0,0-1.24-1.238,1.24,1.24,0,0,0-1.238,1.238,1.244,1.244,0,0,0,.753,1.141v1.415h-3.571v3.544l-1.942,0-4.779-.007v-3.973a1.449,1.449,0,0,0,.96-1.363,1.447,1.447,0,0,0-1.446-1.445,1.446,1.446,0,0,0-1.444,1.445,1.449,1.449,0,0,0,.961,1.363v3.971l-12.189-.018h0c-.044,0-.089,0-.133.006-.142.014-.286.021-.426.021a4.372,4.372,0,0,1-3.8-2.224h4.706a1.242,1.242,0,0,0,1.141.755,1.24,1.24,0,0,0,1.238-1.24,1.239,1.239,0,0,0-1.238-1.238,1.243,1.243,0,0,0-1.141.753h-5.109a4.354,4.354,0,0,1-.162-1.177,4.356,4.356,0,0,1,4.193-4.365,1.385,1.385,0,0,0,1.329-1.32,4.42,4.42,0,0,1,.079-.654h3.508v1.627a1.242,1.242,0,0,0-.753,1.141,1.24,1.24,0,0,0,1.24,1.238,1.24,1.24,0,0,0,1.238-1.238,1.244,1.244,0,0,0-.755-1.143v-2.6h-4.165a4.363,4.363,0,0,1,3.972-2.542,4.382,4.382,0,0,1,1.139.151,1.386,1.386,0,0,0,1.146-.2,1.385,1.385,0,0,0,.592-1,4.425,4.425,0,0,1,.1-.6h.946v3.925h1.82a1.241,1.241,0,0,0,1.14.755,1.241,1.241,0,0,0,1.24-1.24,1.24,1.24,0,0,0-1.24-1.238,1.242,1.242,0,0,0-1.14.753h-.85v-3.925h-1.553a4.356,4.356,0,0,1,3.882-2.352,5.293,5.293,0,0,1,4.265,1.975,1.385,1.385,0,0,0,1.382,1.292,1.383,1.383,0,0,0,.462-.08v2.435a1.242,1.242,0,0,0-.755,1.14,1.242,1.242,0,0,0,1.24,1.24,1.241,1.241,0,0,0,1.238-1.24,1.242,1.242,0,0,0-.753-1.14v-3.708a5.957,5.957,0,0,1,4.433-1.915,4.353,4.353,0,0,1,4.348,3.926,1.385,1.385,0,0,0,.592,1,1.385,1.385,0,0,0,1.146.2,4.38,4.38,0,0,1,1.139-.151,4.359,4.359,0,0,1,3.117,1.3h-5.1a1.243,1.243,0,0,0-1.141-.753,1.239,1.239,0,0,0-1.238,1.238,1.241,1.241,0,0,0,1.238,1.24,1.242,1.242,0,0,0,1.141-.755h5.821a4.357,4.357,0,0,1,.528,1.892,1.385,1.385,0,0,0,1.329,1.32,4.356,4.356,0,0,1,4.193,4.365,4.374,4.374,0,0,1-.085.86h-7.42v-2.018a1.242,1.242,0,0,0,.753-1.14,1.241,1.241,0,0,0-1.238-1.24,1.242,1.242,0,0,0-1.24,1.24,1.241,1.241,0,0,0,.755,1.14v2.987h8.073A4.375,4.375,0,0,1,1553.661-506.9Zm-12.982-5.29a.942.942,0,0,1-.463-.813.949.949,0,0,1,.947-.947.949.949,0,0,1,.949.947.945.945,0,0,1-.464.814.93.93,0,0,1-.485.134A.919.919,0,0,1,1540.68-512.185Zm-22.917,2.581a.919.919,0,0,1,.136-.485.942.942,0,0,1,.813-.462.949.949,0,0,1,.947.947.949.949,0,0,1-.947.949.945.945,0,0,1-.814-.464A.93.93,0,0,1,1517.762-509.6Zm4.131-6.181a.925.925,0,0,1,.483.134.945.945,0,0,1,.464.814.949.949,0,0,1-.947.947.949.949,0,0,1-.949-.947.944.944,0,0,1,.463-.813A.936.936,0,0,1,1521.894-515.785Zm6.23-3.543a.919.919,0,0,1,.136-.485.942.942,0,0,1,.812-.463.949.949,0,0,1,.949.948.949.949,0,0,1-.949.949.944.944,0,0,1-.813-.464A.931.931,0,0,1,1528.123-519.328Zm17.844,0a.93.93,0,0,1-.134.485.944.944,0,0,1-.814.464.949.949,0,0,1-.947-.949.949.949,0,0,1,.947-.948.943.943,0,0,1,.813.463A.918.918,0,0,1,1545.968-519.328Zm4.073,6.712a.93.93,0,0,1-.485-.134.944.944,0,0,1-.464-.813.949.949,0,0,1,.949-.949.949.949,0,0,1,.948.949.942.942,0,0,1-.463.811A.918.918,0,0,1,1550.041-512.616Z" transform="translate(-1509.469 528.86)" fill="#bf353e"/>
</svg>
