<svg xmlns="http://www.w3.org/2000/svg" width="33.275" height="35.048" viewBox="0 0 33.275 35.048">
  <g id="Group_1072" data-name="Group 1072" transform="translate(-32.842 -29)">
    <path id="smile" d="M1629.247-184.094a6.622,6.622,0,0,1-6.107-3.148.854.854,0,0,1,.26-1.179.854.854,0,0,1,1.179.26,4.988,4.988,0,0,0,4.668,2.36c2.209,0,3.418-.607,4.461-2.239a.854.854,0,0,1,1.179-.26.854.854,0,0,1,.26,1.179A6.245,6.245,0,0,1,1629.247-184.094Z" transform="translate(-1579.964 248.143)" fill="#313641"/>
    <path id="glass" d="M1592.619-327.387l-1.39-1.511a5.016,5.016,0,0,0,1.2-3.256,5.037,5.037,0,0,0-5.037-5.037,5.025,5.025,0,0,0-3.84,1.778,2.825,2.825,0,0,0-2.276-1.258,2.715,2.715,0,0,0-1.942.86,4.082,4.082,0,0,0-3.28-1.839c-2.459,0-4.452,2.541-4.452,5.676s1.993,5.676,4.452,5.676a4.528,4.528,0,0,0,4.035-3.278,6.748,6.748,0,0,0,.312-1.175,7.214,7.214,0,0,0,.1-1.223,7.066,7.066,0,0,0-.281-1.988,1.452,1.452,0,0,1,1.155-.644,1.506,1.506,0,0,1,1.256.794,5.028,5.028,0,0,0-.281,1.658,5.047,5.047,0,0,0,.152,1.232,4.993,4.993,0,0,0,.4,1.059,5.036,5.036,0,0,0,4.486,2.746,5.016,5.016,0,0,0,2.116-.466l1.526,1.659a1.08,1.08,0,0,0,1.526.064h0A1.08,1.08,0,0,0,1592.619-327.387Zm-16.57-1.07c-1.421,0-2.573-1.575-2.573-3.518s1.152-3.518,2.573-3.518a2.581,2.581,0,0,1,2.249,1.809,4.545,4.545,0,0,1,.324,1.709,4.8,4.8,0,0,1-.048.679C1578.343-329.678,1577.3-328.457,1576.049-328.457Zm8.1-3.377c-.01-.106-.016-.213-.016-.321a3.246,3.246,0,0,1,.161-1.009,3.252,3.252,0,0,1,3.09-2.242,3.251,3.251,0,0,1,3.251,3.251,3.251,3.251,0,0,1-3.251,3.251A3.251,3.251,0,0,1,1584.152-331.834Z" transform="translate(-1533.176 383.837)" fill="#313641"/>
    <path id="brain" d="M1539.119-521.978a4.625,4.625,0,0,0-4.53-3.655q-.134,0-.268.008a4.617,4.617,0,0,0-4.42-3.236,6.047,6.047,0,0,0-3.784,1.389,5.554,5.554,0,0,0-3.686-1.389,4.617,4.617,0,0,0-4.421,3.236q-.134-.008-.268-.008a4.625,4.625,0,0,0-4.53,3.655,4.618,4.618,0,0,0-3.684,4.536,4.639,4.639,0,0,0,4.634,4.634c.133,0,.268-.006.4-.017l11.6.017,11.6-.018c.134.012.27.018.4.018a4.639,4.639,0,0,0,4.634-4.634A4.618,4.618,0,0,0,1539.119-521.978Zm-12.41-1.311a.6.6,0,0,1,.314.088.611.611,0,0,1,.3.527.616.616,0,0,1-.615.616.616.616,0,0,1-.616-.616.613.613,0,0,1,.3-.528A.6.6,0,0,1,1526.709-523.289Zm-4.273,5.861a.718.718,0,0,1-.4-.645.718.718,0,0,1,.717-.717.718.718,0,0,1,.718.717.719.719,0,0,1-.4.645.715.715,0,0,1-.316.073A.707.707,0,0,1,1522.436-517.427Zm15.733,2.822c-.091,0-.184,0-.277-.013a.768.768,0,0,0-.087,0l-9.749.015v-1.67h2.317v-1.548a.807.807,0,0,0,.49-.741.8.8,0,0,0-.8-.8.8.8,0,0,0-.8.8.808.808,0,0,0,.489.741v.918h-2.317v2.3l-1.26,0-3.1,0v-2.578a.94.94,0,0,0,.623-.884.939.939,0,0,0-.938-.937.939.939,0,0,0-.937.937.94.94,0,0,0,.624.884v2.577l-7.91-.012h0c-.029,0-.058,0-.086,0-.092.009-.185.014-.276.014a2.837,2.837,0,0,1-2.469-1.443h3.054a.806.806,0,0,0,.741.49.8.8,0,0,0,.8-.8.8.8,0,0,0-.8-.8.807.807,0,0,0-.741.489h-3.316a2.826,2.826,0,0,1-.105-.764,2.827,2.827,0,0,1,2.721-2.833.9.9,0,0,0,.862-.857,2.863,2.863,0,0,1,.052-.424h2.277v1.056a.806.806,0,0,0-.489.741.8.8,0,0,0,.8.8.8.8,0,0,0,.8-.8.807.807,0,0,0-.49-.742v-1.684h-2.7a2.831,2.831,0,0,1,2.578-1.65,2.843,2.843,0,0,1,.74.1.9.9,0,0,0,.744-.128.9.9,0,0,0,.384-.65,2.877,2.877,0,0,1,.067-.392h.614v2.547h1.181a.805.805,0,0,0,.74.49.805.805,0,0,0,.8-.8.8.8,0,0,0-.8-.8.806.806,0,0,0-.74.489h-.552v-2.547h-1.008a2.827,2.827,0,0,1,2.519-1.527,3.435,3.435,0,0,1,2.768,1.282.9.9,0,0,0,.9.839.9.9,0,0,0,.3-.052v1.581a.806.806,0,0,0-.49.74.806.806,0,0,0,.8.8.805.805,0,0,0,.8-.8.806.806,0,0,0-.489-.74v-2.406a3.866,3.866,0,0,1,2.877-1.243,2.825,2.825,0,0,1,2.822,2.548.9.9,0,0,0,.384.65.9.9,0,0,0,.744.128,2.841,2.841,0,0,1,.739-.1,2.829,2.829,0,0,1,2.023.846H1533.3a.806.806,0,0,0-.74-.489.8.8,0,0,0-.8.8.805.805,0,0,0,.8.8.806.806,0,0,0,.74-.49h3.778a2.828,2.828,0,0,1,.343,1.228.9.9,0,0,0,.862.857,2.827,2.827,0,0,1,2.721,2.833,2.839,2.839,0,0,1-.055.558h-4.816v-1.31a.806.806,0,0,0,.489-.74.805.805,0,0,0-.8-.8.806.806,0,0,0-.8.8.805.805,0,0,0,.49.74v1.939h5.239A2.839,2.839,0,0,1,1538.169-514.605Zm-8.425-3.433a.612.612,0,0,1-.3-.528.616.616,0,0,1,.615-.615.616.616,0,0,1,.616.615.613.613,0,0,1-.3.529.6.6,0,0,1-.314.087A.6.6,0,0,1,1529.744-518.039Zm-14.873,1.675a.6.6,0,0,1,.088-.315.612.612,0,0,1,.528-.3.616.616,0,0,1,.615.615.616.616,0,0,1-.615.616.613.613,0,0,1-.528-.3A.6.6,0,0,1,1514.872-516.363Zm2.681-4.011a.6.6,0,0,1,.314.087.613.613,0,0,1,.3.529.616.616,0,0,1-.615.615.616.616,0,0,1-.616-.615.613.613,0,0,1,.3-.528A.608.608,0,0,1,1517.553-520.375Zm4.043-2.3a.6.6,0,0,1,.088-.315.612.612,0,0,1,.527-.3.616.616,0,0,1,.616.615.616.616,0,0,1-.616.616.613.613,0,0,1-.528-.3A.6.6,0,0,1,1521.6-522.674Zm11.58,0a.6.6,0,0,1-.087.315.613.613,0,0,1-.528.3.616.616,0,0,1-.615-.616.616.616,0,0,1,.615-.615.612.612,0,0,1,.528.3A.6.6,0,0,1,1533.176-522.674Zm2.644,4.356a.6.6,0,0,1-.315-.087.613.613,0,0,1-.3-.528.616.616,0,0,1,.616-.616.616.616,0,0,1,.615.616.611.611,0,0,1-.3.527A.6.6,0,0,1,1535.82-518.318Z" transform="translate(-1476.686 557.86)" fill="#bf353e"/>
  </g>
</svg>
