<svg xmlns="http://www.w3.org/2000/svg" width="93.304" height="59.994" viewBox="0 0 93.304 59.994">
  <g id="green-paw" transform="translate(97.568 42.71) rotate(150)" style="isolation: isolate">
    <path id="Path_4118" data-name="Path 4118" d="M27.192,10.424a6.7,6.7,0,0,0-2.843,3.559c-1.2,4.654-5.091,8.051-9.453,8.051S6.5,18.636,5.3,13.98a6.72,6.72,0,0,0-2.844-3.558A5.407,5.407,0,0,1,.142,4.759C.755,2.242,3.55,0,7.372,0a8.512,8.512,0,0,1,4.436,1.2,6.139,6.139,0,0,0,3.083.8,5.673,5.673,0,0,0,2.946-.8A8.452,8.452,0,0,1,22.254,0c3.82,0,6.632,2.227,7.249,4.758a5.413,5.413,0,0,1-2.312,5.666Zm0,0" transform="translate(4.924 0)" fill="#44853a"/>
    <path id="Path_4119" data-name="Path 4119" d="M8.744,4.372c0,2.53-2,6.558-4.372,6.558S0,6.9,0,4.372a4.372,4.372,0,0,1,8.744,0Zm0,0" transform="translate(0 17.662)" fill="#44853a"/>
    <path id="Path_4120" data-name="Path 4120" d="M4.372,10.93C2,10.93,0,6.9,0,4.372a4.372,4.372,0,0,1,8.744,0c0,2.53-2,6.558-4.372,6.558Zm0,0" transform="translate(30.749 17.662)" fill="#44853a"/>
    <path id="Path_4121" data-name="Path 4121" d="M0,4.372a4.372,4.372,0,1,1,8.744,0c0,2.53-2,6.558-4.372,6.558S0,6.9,0,4.372Zm0,0" transform="translate(22.006 26.405)" fill="#44853a"/>
    <path id="Path_4122" data-name="Path 4122" d="M4.372,0A4.378,4.378,0,0,1,8.744,4.372c0,2.53-2,6.558-4.372,6.558S0,6.9,0,4.372A4.378,4.378,0,0,1,4.372,0Zm0,0" transform="translate(8.744 26.405)" fill="#44853a"/>
    <path id="Path_4123" data-name="Path 4123" d="M27.192,10.425a6.956,6.956,0,0,0-2.843,3.7,10.247,10.247,0,0,1-9.6,7.9c-4.361,0-8.248-3.251-9.452-7.907a6.975,6.975,0,0,0-2.844-3.7A5.407,5.407,0,0,1,.142,4.759C.755,2.243,3.55,0,7.372,0a8.507,8.507,0,0,1,4.436,1.2,5.609,5.609,0,0,0,2.937.8,6.208,6.208,0,0,0,3.092-.8A8.455,8.455,0,0,1,22.254,0c3.82,0,6.632,2.227,7.249,4.759a5.413,5.413,0,0,1-2.312,5.666Zm0,0" transform="translate(40.045 37.307)" fill="#44853a"/>
    <path id="Path_4124" data-name="Path 4124" d="M8.744,4.372c0,2.53-2,6.558-4.373,6.558S0,6.9,0,4.372a4.372,4.372,0,0,1,8.744,0Zm0,0" transform="translate(35.121 54.969)" fill="#44853a"/>
    <path id="Path_4125" data-name="Path 4125" d="M4.372,10.93C2,10.93,0,6.9,0,4.372a4.372,4.372,0,0,1,8.744,0c0,2.53-2,6.558-4.372,6.558Zm0,0" transform="translate(65.871 54.969)" fill="#44853a"/>
    <path id="Path_4126" data-name="Path 4126" d="M0,4.372a4.372,4.372,0,1,1,8.744,0c0,2.53-2,6.558-4.372,6.558S0,6.9,0,4.372Zm0,0" transform="translate(57.127 63.713)" fill="#44853a"/>
    <path id="Path_4127" data-name="Path 4127" d="M0,4.372a4.372,4.372,0,1,1,8.744,0c0,2.53-2,6.558-4.372,6.558S0,6.9,0,4.372Zm0,0" transform="translate(43.866 63.713)" fill="#44853a"/>
  </g>
</svg>
