<svg xmlns="http://www.w3.org/2000/svg" width="92.667" height="51.242" viewBox="0 0 92.667 51.242">
  <g id="medicine-right" transform="translate(-1444.333 -2111.758)">
    <path id="Path_4161" data-name="Path 4161" d="M35.439,21.333a14.008,14.008,0,0,1,9.973,4.131l19.531,19.53A14.1,14.1,0,1,1,45,64.943L25.465,45.413a14.105,14.105,0,0,1,9.973-24.08ZM53.829,43.089,60.34,49.6a7.548,7.548,0,0,1,2.225,5.371,1.085,1.085,0,1,0,2.17,0,9.7,9.7,0,0,0-2.861-6.905l-6.51-6.509a1.085,1.085,0,1,0-1.534,1.534Zm-25.3-.744,9,9L51.342,37.531l-9-9A9.765,9.765,0,1,0,28.534,42.345Z" transform="translate(1467.925 2093.926)" fill="#008dff" opacity="0.4"/>
    <path id="Path_4162" data-name="Path 4162" d="M33.636,0a14.007,14.007,0,0,0-9.973,4.131L4.132,23.662A14.1,14.1,0,1,0,24.078,43.611l19.531-19.53A14.106,14.106,0,0,0,33.636,0ZM15.245,21.756l-6.51,6.509A7.548,7.548,0,0,0,6.51,33.637a1.085,1.085,0,1,1-2.17,0A9.7,9.7,0,0,1,7.2,26.731l6.51-6.509a1.085,1.085,0,1,1,1.534,1.534Zm25.295-.744-9,9L17.733,16.2l9-9A9.765,9.765,0,0,1,40.54,21.012Z" transform="translate(1492.075 2111.758) rotate(90)" fill="#008dff" opacity="0.4"/>
  </g>
</svg>
