<svg xmlns="http://www.w3.org/2000/svg" width="92.667" height="51.243" viewBox="0 0 92.667 51.243">
  <g id="medicine-left" transform="translate(-453.833 -1546)">
    <path id="Path_4159" data-name="Path 4159" d="M54.97,21.333A14.007,14.007,0,0,0,45,25.464L25.466,45A14.1,14.1,0,1,0,45.412,64.944l19.531-19.53A14.106,14.106,0,0,0,54.97,21.333ZM36.579,43.089,30.068,49.6a7.548,7.548,0,0,0-2.225,5.371,1.085,1.085,0,1,1-2.17,0,9.7,9.7,0,0,1,2.861-6.905l6.51-6.509a1.085,1.085,0,0,1,1.534,1.534Zm25.3-.744-9,9L39.067,37.532l9-9A9.766,9.766,0,0,1,61.874,42.345Z" transform="translate(432.5 1528.168)" fill="#008dff" opacity="0.4"/>
    <path id="Path_4160" data-name="Path 4160" d="M33.637,47.742a14.007,14.007,0,0,1-9.973-4.131L4.133,24.08A14.1,14.1,0,1,1,24.079,4.131L43.61,23.661a14.106,14.106,0,0,1-9.973,24.081ZM15.246,25.986l-6.51-6.509A7.548,7.548,0,0,1,6.51,14.106a1.085,1.085,0,1,0-2.17,0A9.7,9.7,0,0,0,7.2,21.011l6.51,6.509a1.085,1.085,0,0,0,1.534-1.534Zm25.3.744-9-9L17.734,31.544l9,9A9.766,9.766,0,0,0,40.541,26.73Z" transform="translate(546.5 1546) rotate(90)" fill="#008dff" opacity="0.4"/>
  </g>
</svg>
