<svg xmlns="http://www.w3.org/2000/svg" width="87.93" height="87.91" viewBox="0 0 87.93 87.91">
  <g id="pulgin" transform="translate(22319.002 2811.942)">
    <path id="Path_4128" data-name="Path 4128" d="M407.238,18.97h0a1.461,1.461,0,0,1-1.036-.429l-4-4a1.464,1.464,0,0,1,0-2.072l12-12a1.508,1.508,0,0,1,2.072,0l4,4a1.464,1.464,0,0,1,0,2.072l-12,12A1.464,1.464,0,0,1,407.238,18.97Zm-1.927-5.465,1.927,1.927,9.927-9.927-1.927-1.927Z" transform="translate(-22651.775 -2812)" fill="#fff"/>
    <path id="Path_4129" data-name="Path 4129" d="M372.469,75.154h0a1.462,1.462,0,0,1-1.036-.429l-10-10a1.465,1.465,0,0,1,0-2.072l1.929-1.927a4.4,4.4,0,0,1,6.216,0l5.856,5.856a4.4,4.4,0,0,1,0,6.217l-1.927,1.927A1.471,1.471,0,0,1,372.469,75.154Zm-7.927-11.467,7.927,7.928.891-.891a1.466,1.466,0,0,0,0-2.072L367.505,62.8a1.469,1.469,0,0,0-2.072,0Z" transform="translate(-22618.008 -2861.183)" fill="#fff"/>
    <path id="Path_4130" data-name="Path 4130" d="M248.725,94.477a1.461,1.461,0,0,1-1.036-.429l-26-26a1.465,1.465,0,0,1,0-2.072l8.748-8.747a11.719,11.719,0,0,1,16.576,0l11.5,11.5a11.738,11.738,0,0,1,0,16.577l-8.748,8.748A1.461,1.461,0,0,1,248.725,94.477ZM224.8,67.011,248.725,90.94l7.711-7.711a8.8,8.8,0,0,0,0-12.432l-11.5-11.5a8.79,8.79,0,0,0-12.432,0Z" transform="translate(-22502.264 -2856.508)" fill="#fff"/>
    <path id="Path_4131" data-name="Path 4131" d="M289.143,94.064a1.461,1.461,0,0,1-1.036-.429l-4-4a2.779,2.779,0,0,0-3.925,0l-4,4a1.465,1.465,0,0,1-2.072-2.072l4-4a5.712,5.712,0,0,1,8.069,0l4,4a1.465,1.465,0,0,1-1.036,2.5Z" transform="translate(-22545.68 -2883.093)" fill="#fff"/>
    <path id="Path_4132" data-name="Path 4132" d="M5.463,420.654a1.461,1.461,0,0,1-1.036-.429l-4-4a1.464,1.464,0,0,1,0-2.072l12-12a1.464,1.464,0,0,1,1.036-.429h0a1.461,1.461,0,0,1,1.036.429l4,4a1.464,1.464,0,0,1,0,2.072l-12,12A1.459,1.459,0,0,1,5.463,420.654Zm-1.927-5.465,1.927,1.927,9.927-9.927-1.927-1.927Z" transform="translate(-22319 -3144.686)" fill="#fff"/>
    <path id="Path_4133" data-name="Path 4133" d="M69.723,376.683a4.381,4.381,0,0,1-3.108-1.285l-5.856-5.856a4.4,4.4,0,0,1,0-6.217l1.927-1.927a1.465,1.465,0,0,1,1.036-.429h0a1.462,1.462,0,0,1,1.036.429l10,10a1.465,1.465,0,0,1,0,2.072L72.83,375.4A4.375,4.375,0,0,1,69.723,376.683Zm-6-12.178-.891.891a1.466,1.466,0,0,0,0,2.072l5.856,5.856a1.469,1.469,0,0,0,2.072,0l.891-.891Z" transform="translate(-22368.262 -3110.93)" fill="#fff"/>
    <path id="Path_4134" data-name="Path 4134" d="M77.095,252.328a11.644,11.644,0,0,1-8.289-3.434l-11.5-11.5a11.737,11.737,0,0,1,0-16.577l10.748-10.748a1.509,1.509,0,0,1,2.072,0l26,26a1.464,1.464,0,0,1,0,2.072L85.383,248.893A11.638,11.638,0,0,1,77.095,252.328Zm-8-39.144L59.383,222.9a8.8,8.8,0,0,0,0,12.432l11.5,11.5a8.79,8.79,0,0,0,12.432,0l9.71-9.712Z" transform="translate(-22363.631 -2985.607)" fill="#fff"/>
    <path id="Path_4135" data-name="Path 4135" d="M162.683,192.593a1.461,1.461,0,0,1-1.036-.429l-4-4a1.465,1.465,0,0,1,0-2.072l9-9a4.4,4.4,0,0,1,6.073,0,4.293,4.293,0,0,1,0,6.072l-9,9A1.473,1.473,0,0,1,162.683,192.593Zm-1.929-5.466,1.927,1.927,7.964-7.963a1.362,1.362,0,0,0,0-1.926,1.392,1.392,0,0,0-1.927,0Z" transform="translate(-22449.219 -2957.623)" fill="#fff"/>
    <path id="Path_4136" data-name="Path 4136" d="M244.2,273.912a1.461,1.461,0,0,1-1.036-.43l-4-4a1.465,1.465,0,0,1,0-2.072l9-9a4.294,4.294,0,1,1,6.073,6.073l-9,9A1.46,1.46,0,0,1,244.2,273.912Zm-1.927-5.465,1.927,1.927,7.963-7.963a1.366,1.366,0,0,0,0-1.927,1.393,1.393,0,0,0-1.927,0Z" transform="translate(-22516.738 -3024.944)" fill="#fff"/>
    <path id="Path_4137" data-name="Path 4137" d="M106.8,285.082a1.461,1.461,0,0,1-1.036-.429l-18-18a1.464,1.464,0,0,1,0-2.072l8-8a1.464,1.464,0,0,1,2.072,0l18,18a1.464,1.464,0,0,1,0,2.072l-8,8A1.46,1.46,0,0,1,106.8,285.082ZM90.874,265.617,106.8,281.544l5.928-5.928L96.8,259.689Z" transform="translate(-22391.34 -3024.113)" fill="#fff"/>
    <path id="Path_4138" data-name="Path 4138" d="M153.034,323.307a1.461,1.461,0,0,1-1.036-.429l-6-6a1.465,1.465,0,0,1,2.072-2.072l6,6a1.465,1.465,0,0,1-1.036,2.5Z" transform="translate(-22439.57 -3072.337)" fill="#fff"/>
  </g>
</svg>
