<svg xmlns="http://www.w3.org/2000/svg" width="76.005" height="62.187" viewBox="0 0 76.005 62.187">
  <g id="responsive" transform="translate(-1359.497 -369.406)">
    <ellipse id="Ellipse_603" data-name="Ellipse 603" cx="1.727" cy="1.727" rx="1.727" ry="1.727" transform="translate(1399.227 412.59)" fill="#fff"/>
    <ellipse id="Ellipse_604" data-name="Ellipse 604" cx="1.727" cy="1.727" rx="1.727" ry="1.727" transform="translate(1369.862 422.955)" fill="#fff"/>
    <path id="Path_4139" data-name="Path 4139" d="M110.459,46.545H51.727a5.09,5.09,0,0,0-5.182,5.182V69A1.727,1.727,0,1,0,50,69V51.727A1.632,1.632,0,0,1,51.727,50h58.731a1.632,1.632,0,0,1,1.727,1.727V93.184a1.632,1.632,0,0,1-1.727,1.727H69a1.727,1.727,0,1,0,0,3.455h3.455v5.182a1.632,1.632,0,0,1-1.727,1.727H69a1.727,1.727,0,0,0,0,3.455H93.185a1.727,1.727,0,1,0,0-3.455H91.457a1.632,1.632,0,0,1-1.727-1.727V98.367h20.729a5.09,5.09,0,0,0,5.182-5.182V51.727A5.09,5.09,0,0,0,110.459,46.545Zm-24.183,57a5.109,5.109,0,0,0,.345,1.727H75.565a5.109,5.109,0,0,0,.346-1.727V98.367H86.275v5.182Z" transform="translate(1319.862 322.861)" fill="#fff"/>
    <path id="Path_4140" data-name="Path 4140" d="M227.639,304.273a1.632,1.632,0,0,0-1.727-1.728h-38a1.727,1.727,0,0,0,0,3.455h38A1.632,1.632,0,0,0,227.639,304.273Z" transform="translate(1200.954 104.863)" fill="#fff"/>
    <path id="Path_4141" data-name="Path 4141" d="M19,232.727H5.182A5.09,5.09,0,0,0,0,237.909v24.183a5.09,5.09,0,0,0,5.182,5.182H19a5.09,5.09,0,0,0,5.182-5.182V237.909A5.09,5.09,0,0,0,19,232.727Zm1.727,29.365A1.632,1.632,0,0,1,19,263.82H5.182a1.632,1.632,0,0,1-1.727-1.727V237.909a1.632,1.632,0,0,1,1.727-1.727H19a1.632,1.632,0,0,1,1.727,1.727Z" transform="translate(1359.497 164.318)" fill="#fff"/>
  </g>
</svg>
