<svg xmlns="http://www.w3.org/2000/svg" width="66.314" height="69.045" viewBox="0 0 66.314 69.045">
  <g id="UI_UX" data-name="UI &amp; UX" transform="translate(-121 -204)">
    <path id="Path_4142" data-name="Path 4142" d="M211.2,220.115a3.782,3.782,0,0,0-3.778-3.778H189.426V206.9a2.9,2.9,0,0,0-2.9-2.9H160.905a2.9,2.9,0,0,0-2.9,2.9v27h-6.883a1.01,1.01,0,0,0,0,2.02h6.883v2.15h-6.883a1.01,1.01,0,1,0,0,2.02h6.883v.395a1.01,1.01,0,0,0,2.02,0v-.395h5.448a1.01,1.01,0,1,0,0-2.02H160.03v-2.15h5.448a1.01,1.01,0,0,0,0-2.02H160.03v-27a.876.876,0,0,1,.875-.875h25.626a.876.876,0,0,1,.875.875v9.442h-2.527v-6.421a1.555,1.555,0,0,0-1.549-1.549H164.106a1.555,1.555,0,0,0-1.549,1.549v13.707a1.556,1.556,0,0,0,1.549,1.549h11.251a1.01,1.01,0,1,0,0-2.02H166.67l7.048-5.132,6.061,4.414v26.345H160.905a.876.876,0,0,1-.875-.876V245.46a1.01,1.01,0,0,0-2.02,0V247.9a2.9,2.9,0,0,0,2.9,2.9H179.78v18.469a3.782,3.782,0,0,0,3.778,3.778h23.86a3.782,3.782,0,0,0,3.778-3.778V246.328a1.01,1.01,0,1,0-2.02,0v14.438H181.8v-34.3h27.376v14.669a1.01,1.01,0,0,0,2.02,0Zm-30.43-9.728-7.048,5.133-7.048-5.133Zm-16.189,11.789V211.363L172,216.77Zm18.282-10.814v5.04a3.785,3.785,0,0,0-3.075,3.535l-4.35-3.168Zm26.317,51.423v6.481a1.76,1.76,0,0,1-1.758,1.758h-23.86a1.76,1.76,0,0,1-1.758-1.758v-6.481ZM181.8,224.442v-4.327a1.76,1.76,0,0,1,1.758-1.758h23.86a1.76,1.76,0,0,1,1.758,1.758v4.327Zm0,0" transform="translate(-23.882)" fill="#fff"/>
    <path id="Path_4143" data-name="Path 4143" d="M395.993,546.731a1.813,1.813,0,1,1-1.813-1.813,1.813,1.813,0,0,1,1.813,1.813Zm0,0" transform="translate(-222.574 -279.619)" fill="#fff"/>
    <path id="Path_4144" data-name="Path 4144" d="M386.5,224.318h10.818a1.01,1.01,0,0,0,0-2.021H386.5a1.01,1.01,0,0,0,0,2.021Zm0,0" transform="translate(-216.932 -15.007)" fill="#fff"/>
    <path id="Path_4145" data-name="Path 4145" d="M386.5,247.977h3.852a1.01,1.01,0,0,0,0-2.02H386.5a1.01,1.01,0,1,0,0,2.02Zm0,0" transform="translate(-216.932 -34.413)" fill="#fff"/>
    <path id="Path_4146" data-name="Path 4146" d="M123.347,319.469l1.759-2.031a1.01,1.01,0,1,0-1.527-1.322l-2.332,2.692a1.01,1.01,0,0,0,0,1.322l2.332,2.693a1.01,1.01,0,0,0,1.527-1.323Zm0,0" transform="translate(0 -91.67)" fill="#fff"/>
    <path id="Path_4147" data-name="Path 4147" d="M158.188,322.924a1.009,1.009,0,0,0,1.424-.1l2.332-2.692a1.01,1.01,0,0,0,0-1.322l-2.332-2.692a1.01,1.01,0,1,0-1.527,1.322l1.759,2.031-1.759,2.031a1.01,1.01,0,0,0,.1,1.425Zm0,0" transform="translate(-30.215 -91.669)" fill="#fff"/>
    <path id="Path_4148" data-name="Path 4148" d="M366.943,458.418a1.2,1.2,0,0,1,.915.43,3.137,3.137,0,0,0,2.229.916,1.01,1.01,0,1,0,0-2.02,1.2,1.2,0,0,1-.915-.431,3.171,3.171,0,0,0-4.459,0,1.188,1.188,0,0,1-1.831,0,3.171,3.171,0,0,0-4.459,0,1.188,1.188,0,0,1-1.83,0,3.135,3.135,0,0,0-2.229-.916,1.01,1.01,0,0,0,0,2.02,1.205,1.205,0,0,1,.915.43,3.17,3.17,0,0,0,4.458,0,1.188,1.188,0,0,1,1.83,0,3.171,3.171,0,0,0,4.459,0,1.206,1.206,0,0,1,.916-.43Zm0,0" transform="translate(-190.577 -207.016)" fill="#fff"/>
    <path id="Path_4149" data-name="Path 4149" d="M362.883,481.858a3.169,3.169,0,0,0-4.459,0,1.188,1.188,0,0,1-1.83,0,3.133,3.133,0,0,0-2.229-.917,1.01,1.01,0,0,0,0,2.021,1.207,1.207,0,0,1,.915.43,3.168,3.168,0,0,0,4.458,0,1.189,1.189,0,0,1,1.83,0,3.134,3.134,0,0,0,2.229.917,1.01,1.01,0,1,0,0-2.02,1.206,1.206,0,0,1-.915-.431Zm0,0" transform="translate(-190.577 -227.146)" fill="#fff"/>
    <path id="Path_4150" data-name="Path 4150" d="M257.569,372.262a1.01,1.01,0,0,0,0-2.02h-5.048a1.01,1.01,0,1,0,0,2.02Zm0,0" transform="translate(-107.045 -136.351)" fill="#fff"/>
    <path id="Path_4151" data-name="Path 4151" d="M354.148,345.656a8.5,8.5,0,0,0-7.512,4.541l-3.545.375a.539.539,0,0,0-.292.947l2.517,2.135L342.8,355.79a.538.538,0,0,0,.292.946l3.084.327a8.49,8.49,0,1,0,7.973-11.406Zm0,14.956a6.467,6.467,0,1,1,6.467-6.467,6.474,6.474,0,0,1-6.467,6.467Zm0,0" transform="translate(-181.762 -116.186)" fill="#fff"/>
    <path id="Path_4152" data-name="Path 4152" d="M389.624,380.519a1.534,1.534,0,1,1-1.845-1.139,1.534,1.534,0,0,1,1.845,1.139Zm0,0" transform="translate(-217.842 -143.812)" fill="#fff"/>
  </g>
</svg>
