<?xml version="1.0" encoding="utf-8"?>
<!-- Generator: Adobe Illustrator 24.0.1, SVG Export Plug-In . SVG Version: 6.00 Build 0)  -->
<svg version="1.1" id="Layer_1" xmlns="http://www.w3.org/2000/svg" xmlns:xlink="http://www.w3.org/1999/xlink" x="0px" y="0px"
	 viewBox="0 0 500 500" style="enable-background:new 0 0 500 500;" xml:space="preserve">
<style type="text/css">
	.st0{fill-rule:evenodd;clip-rule:evenodd;fill:#023E57;}
	.st1{fill-rule:evenodd;clip-rule:evenodd;fill:#BF353E;}
	.st2{fill-rule:evenodd;clip-rule:evenodd;fill:#5F5FFD;}
</style>
<g>
	<path class="st0" d="M234,343.3c7.5-5.7,12.7-8.9,20.5-15.4c3.6-3,11.2-9.2,14.6-12.4c1.2-1.1,3.6-3.6,4.9-4.3l5,8.6
		c13.3,25.2,14.4,35.4,22.4,61.2c0.5,1.9,3.1,9.2,3.2,10.5l-40.8,9l-6.1-15.8c-5.8-14-12.9-26-21.4-38.3
		C235.5,345.4,234.4,344.2,234,343.3z M43.8,329.2l15.2-6.7c5.1-2.4,9.6-4.9,14.3-7.7c6.7-4,16.6-10.5,22.8-15.8
		c0.9-0.7,2.3-2,3.2-2.4l4,5c7.4,9,13.2,15.5,21.2,24l6.6,6.6c0.9,0.8,1.9,1.5,2.4,2.3c-1.8,2.2-13.9,9.2-17.4,11
		c-6.2,3.2-12.5,6.3-19.4,8.9c-6.9,2.7-13.7,5.1-20.8,7.5l-21.2,7.7L43.8,329.2z M230.8,336.5c-0.7-2,0.7-2.2,1.8-3.2l8.8-7.4
		c2-1.8,3.8-3.4,5.8-5.1c1.9-1.5,4-3.2,5.7-4.9l5.8-5.1c1.9-1.5,3.5-3.2,5.5-5c1.1-0.8,1.9-1.8,2.8-2.6c1.1-0.9,2-1.6,2.8-2.6
		c1.8-1.8,4.6-5.5,5.8-4.2c1.2,1.3-3.6,5.3-4.3,5.9l-8.6,7.8c-3.4,3.4-8.2,7-11.3,10c-2.6,2.6-5.9,5-8.5,7.4L234,335
		C232.9,336,232.4,337.1,230.8,336.5z M141.4,329.7c-5.9-5.1-22.1-20.2-26.9-25.7c-1.6-1.9-3.4-3.6-5-5.7c-1.8-2.2-5-5.3-3.2-6.2
		c1.2-0.7,2.3,1.2,2.8,2.2c2.6,3.2,9.8,11.2,12.7,13.7c1.8,1.8,3.4,3.6,5.3,5.4c3.9,3.6,12.9,12.4,16.4,15.1c0.9,0.8,2,1.8,2.8,2.6
		c0.7,0.7,2.8,2.2,1.2,3.1c-1.1,0.5-2.7-1.3-3.2-1.9C143.5,331.4,142.4,330.6,141.4,329.7z M189.7,279.3c2.8-0.4,5-0.5,7.5-1.3
		c1.6-0.4,5.7-2.6,6.3-1.5c2,2.8-10.6,4.4-12.1,5c-0.7,0.4-1.2,1.9-1.8,2.8c-0.5,0.9-0.9,1.9-1.5,2.7c-0.7,1.3-1.8,5.3-3.6,3.8
		c-0.5-1.2,0.1-1.9,0.8-3.2L189.7,279.3z M88.5,220.8c-2.8,0-4.3,0.9-5.7-1.2c-1.3-2.2,0.1-3.2,1.8-4c7.7-3.1,22.6-0.3,36.8-3.8
		c19.7-4.9,30.5-17.1,34.6-19.3c0.9,1.1,2.4,4,3.2,5.5c0.9,1.8,2,3.5,3,5.3c1.8,3.2,2.3,2.3,0.3,5.4c-5.8,9.6-10.8,16.2-17.5,24.4
		c-1.9,2.3-2.4,3.4-4.7,4c-8.2,2.4-12.1,3-20.8,4.3c-1.3,0.1-3.9,1.9-5.5,2.7c-4,2-15.6,7-19.3,4.4c-0.7-4.4,5-4.3,7.3-6.3
		c-1.2-0.4-10.1-0.7-16.8-2.7c-2.7-0.8-5.5-1.9-4.2-5.4c1.2-3.5,2.3-3.2,6.5-3.2c2.2,0,7.4,0.7,8.4,0.3c0-1.8-1.5-1.5-3.2-1.6
		c-4-0.3-6.7-0.1-10.8,0c-0.5-0.8-1.5-1.6-0.9-3.2c0.3-0.9,1.5-2,1.9-2.6c3.5-3.2,12.5-0.3,15.1-1.3c0-1.6-0.9-1.3-2.4-1.5
		L88.5,220.8z M221.2,236.8c0.3-1.3,13.9-30.9,15.2-33.4c0.9,0.5,1.3,1.1,2.7,1.5l-14.4,33.6L221.2,236.8z M219.2,235.2
		c-3.2-1.6-8.6-7.1-10.6-9.8c-3-3.8-5.3-7.5-7.3-12.8c-3.9-10.1-4.7-24-0.8-34.6c1.8-4.7,4.7-9.4,9.3-10.9c2.6-0.8,6.5-0.4,8.9,0.4
		c11.9,4.3,7.1,25.2,16,34.2c-0.4,1.1-1.3,3-1.9,4.2c-0.7,1.5-1.3,2.8-2,4.2l-7.7,16.8c-0.7,1.5-1.2,2.7-1.9,4.2l-1.9,3.9
		C219.2,234.9,219.2,235.1,219.2,235.2z M160,189.1c0.7,1.9,2.6,5.3,3.8,7.3c2.3,4.4,3.4,5.5,1.3,7.4c-0.9-1.1-7-12-7.3-13.3
		L160,189.1z M161.8,187.1c1.1-0.5,9.3-8.1,10.4-9l10.4-8.9c-4.3,7.4-4,6.5-7.5,14.8c-0.5,1.2-6.1,14-7.3,15
		C166.9,197.9,161.9,188.3,161.8,187.1z M141.4,240.6c0.4-0.8,0.9-1.5,1.6-2c0.9-0.9,1.1-1.2,1.8-2l10.1-12.4
		c4-5.7,8.1-11.6,11.9-18.2c3.6-6.5,6.7-12.9,9.8-20.1c6.2-14.4,12.9-25.5,27.2-32.9c8.2-4,17-3.4,22.9,2.2
		c11.3,10.5,13.2,32.6,12.5,47.2c-2-0.5-4.6-4-5.7-6.5c-4.2-9.7-3.2-20.8-9.6-27.6c-4.2-4.3-13.6-5.5-18.9-1.3
		c-4.2,3.4-7.1,8.9-8.6,16.2c-3,14.6,1.1,30.5,7.7,40.4c3.5,5.3,7.3,9.2,12.1,12.7c3.9,3,10.9,6.7,16.7,7.9
		c-0.7,5.3-3.5,13.7-5.1,18.6c-1.9,0.3-19.8-3.4-23-4C192.2,256.1,147.1,246.9,141.4,240.6z M247.8,207c18.6,0,38.3-19.1,45.8-35.4
		c0.9-2,1.5-3.6,2.4-5.7c3.8-8.5,10.4-17.9,17.2-22.8l-0.9,8.6c5.4,0.5,24.7-7,26.4-3c0.8,1.6-1.1,4.7-1.8,5.8
		c-1.6,2.4-1.6,2.6-4.3,3.8c-1.9,0.9-3.6,1.6-5.8,2.3c-4.3,1.2-5.7,0.4-5.4,2.3c2.7,1.2,12.7-3.8,14.1-4.2c0.7,2.3,0.9,3.9,0,6.2
		c-1.3,3.1-1.2,1.5-3.5,3.1c-7,4.7-10.1,1.8-10.1,4.4c1.9,1.3,7.8-1.2,9.8-2.4c0.9-0.5,1.8-1.3,2.4-1.3c4.4,6.1-10.9,13.9-13.1,15.5
		c-6.2,4.7-12.8,22.2-17.9,30.7c-10.9,18.3-25.2,29.6-48,29.6c-9.2,0-21-1.3-28.4-5.1c0.1-2.4,12.9-29.2,14.1-33.6
		C243.4,206.4,244.9,207,247.8,207z M316.2,149.2c0.1-3.4,2-21.4,3-22.9c1.9-0.3,3.4,1.3,5.5,2.8c3.5,2.4,6.5,3.6,6.5,5.8l-1.2,11
		L316.2,149.2z M41.3,383.8c0.3-1.3,0.4-0.8-2.4-2.4c-1.2-0.5-3-1.2-2.4-2.3c0.1-0.1-0.1-0.8,1.6,0c0.4,0.3,0.8,0.5,1.3,0.9
		c0.9,0.5,2.2,1.3,3.2,1.6c0.5-1.1,1.8-2.4,2.7-3.1c0.4-0.8,0.3-0.4,0.7-1.2c-0.9-0.5-2-1.5-3-2.2s-2.8-1.3-2.2-2.4
		c0.3-0.3-0.4-0.5,0.9-0.3c1.1,0.3,4.6,3.5,5.8,4c0.4-0.3,0.5-0.5,1.1-0.8l9-4.6c1.9-0.8,3.6-1.5,5.7-2.2l34.9-12.5
		c2-0.8,3.8-1.6,5.5-2.4c3.6-1.5,6.2-3,9.3-4.3c0.5-0.3,0.9-0.4,1.5-0.7l10.1-5.8c1.8-0.9,3.1-1.9,4.7-3c1.8-1.1,3.4-2.3,5-3.2
		l0.7-0.8c1.3,0.5,2.7,2.3,4,3.2c0.7,0.5,1.2,1.1,1.9,1.6c0.8,0.7,1.5,1.1,2,1.8l0.7,0.7c0.7-0.9,4.9-3.9,6.1-5.1l2.2-2
		c2.8-2.3,4.3-4.4,6.2-6.3c5.1-5,13.3-16.3,17.1-21.8c0.8-1.2,1.5-2.2,2.2-3.4c1.2-1.8,6.1-9.3,6.5-10.6c0.9,0.3,7.5,6.7,8.9,7.9
		l24.7,24.9c3,2.3,14.6,17.4,16.7,20.5c10.9,15.1,19,31,25.5,49c0.4,1.1,0.9,2.3,1.2,3.2c0.3,1.1,0.3,2,0.8,3.5
		c1.8,5.4,3.6,12.8,4.9,18.5c0.4,2,0.3,1.9,1.3,3.5l64.1-4.4c1.2-5.5-6.7-10.9-10.5-12.9c-1.2-0.7-4.2-2.4-5.1-2.7
		c-1.5,0.8-7.4,5-6.5,2.3c0.1-0.8,0.3-0.5,2.2-1.5c0.9-0.5,1.9-1.2,2.8-1.8c-0.3-1.1-0.9-1.3-1.6-2c-0.8-0.8-0.9-1.3-1.9-2
		c-0.5,1.1,0,0.1-2.4,1.3c-4.9,2.4-5.5,5-7.1,4.6c-0.4-1.6,2.4-3.5,3.6-4.3c1.1-0.7,3.9-2.4,5.4-2.6c-0.4-1.1-1.5-2.7-2-4
		c-0.7-1.3-1.2-2.7-1.9-4.2c-0.9-2.7-2.4-6.7-3.1-9.6c-3.8-13.9-11.6-40.7-17.1-51.7c-2.2-4.2-3.8-8.1-6.5-12.5
		c-0.4-0.7-0.7-1.2-1.1-1.9l-3.6-6.1l5.8-5.7c0.7-0.9,1.2-1.3,1.8-2.2c-1.2-2.2-3.4-4.6-5-6.5c-2.3-2.8-5.7-6.7-8.5-8.9l-2.2-2
		c-12.1-10.1-22.4-16.2-36.4-23.4c0.7-2.6,4.2-13.1,4.2-15.6l10.9,1.6c6.6,0.7,11.6,0.5,18.2-0.3c17.1-2.3,29-11.9,38.3-25.7
		c0.8-1.3,1.6-2.6,2.4-3.9c0.8-1.5,1.5-2.6,2.3-4.2c0.8-1.5,1.5-2.7,2.2-4.2c3.5-7.1,9-20.2,15-23.4c1.9-0.9,6.3-3.8,7.7-5.1
		c8.6-8.6,3.5-9.7,5.1-12.9c3.6-6.9-0.5-7.8,1.1-10.1c0.8-1.1,2-2.6,2.3-4c1.1-5.5,0.1-7.7-6.1-7.5c0.1-3.1,2.3-12.4,0.8-14.4
		c-0.7-0.9-3.5-2.7-4.6-3.5c-0.9-0.5-4-2.6-4.7-3.5c-1.1-0.5-1.8-1.1-2.7-1.9l-2.8-1.9c-2.4-1.6-4.9,0.1-5.3,3l-1.1,8.4
		c-0.3,3.1-0.8,5.8-0.8,8.9c-1.8,0.9-3,2-4.3,3.2c-8.2,6.9-13.5,16.7-17.4,26.5c-1.5,3.5-4.2,7.9-6.3,10.9l-3.8,4.6
		c-3.5,4.4-8.8,9.2-13.7,12.1c-4.7,2.7-9.4,5.4-15,6.5c-4.4,0.9-7,0.5-11.2-0.4c0-12-0.3-22-3.5-33c-1.2-4.4-3.2-9.4-5.7-12.7
		c-2.7-3.8-5.4-6.5-10-8.4c-10.1-4.3-21.3,1.2-27.2,5.9l-5.1,4.2c-1.8,1.5-3.4,2.7-5,4l-29.4,25.5c-5.3,5.1-15.1,12-21.6,15.2
		c-21.6,10.8-31,4.7-47.2,7.8c-3.4,0.7-7.9,2.2-7.3,6.3c0.3,1.5,0.9,2,1.6,3.1c-1.2,0.8-2.4,2.4-3,3.9c-1.1,2.7,0.3,3.8,1.3,5.3
		c-0.7,1.3-2,3.5-1.6,5.8c0.4,2,1.6,3.2,3.4,4c2.4,1.2,9,3,12.4,3c-1.1,2-2.6,3.4-1.5,5.9c0.9,2,3.9,2.2,6.3,1.9
		c2.8-0.4,4.4-0.8,6.9-1.5c2.3-0.7,4-1.3,6.2-2.4c10.1-4.4,3.2-3,12.4-4.4c2.4-0.4,4.6-0.8,7.1-1.3c2-0.4,4.9-0.8,6.7-1.8
		c-0.3,1.2,0.5,1.9,2.3,3c1.1,0.7,3,1.8,4.2,2c-1.5,2.8-12.1,14.7-15.1,18.3l-18.2,19c0,0.1-0.1,0.1-0.1,0.1c0,0.1-0.1,0.1-0.1,0.1
		l-12,10.9c-5,4.2-9.8,8.1-15.2,11.7l-8.1,5.3c-2.8,1.8-5.4,3.4-8.4,5c-3.1,1.6-5.9,3.1-9,4.6c-11.9,5.9-24,10-36.7,13.7
		c-1.1,0.3-1.8,0.3-2.8,0.7c-0.7,3,1.3,12.1,1.6,15.9c0.1,1.6,0.3,2.4,0.5,4c1.3,9.3,2.2,19,3.5,28.4c0.4,2.8,1.2,11.7,1.9,14
		l0.1,0.4v0.1l0.3,0.7c0.1,0.4,0.1,0.1,0.1,0.7C34.6,398.8,38.8,389.7,41.3,383.8z"/>
	<path class="st1" d="M209.1,392.2c0-2.8,2.2-2.6,2.2,0V403c0,2.7-2.2,2.4-2.2,0V392.2z M228.1,436.6c-0.9-2-5.8-7.1-7.4-8.8
		c-5.7-5.4-11.5-9.7-18.3-13.7c-1.8-0.9-3.4-1.9-5.3-2.8c-1.5-0.7-4.9-1.6-3.9-3.4c0.9-0.9,1.9-0.1,3.1,0.4l8.1,4.3
		c3.6,2.3,6.7,4.4,10,6.7c3.4,2.6,15.5,13.5,16.3,17.2h21.2c-0.5-4-6.2-19.1-7.8-23.4c-3.2-7.8-6.3-14.4-10.1-21.7
		c-4.6-9-15.1-24.8-23.4-31.5c-1.8-1.5-4.2-3.1-3.2-4.3c1.1-1.2,3.8,1.6,4.7,2.6c4.9,5,6.6,6.2,11.6,12.7c9,11.9,17,27.1,22.5,41.5
		c2.2,5.4,7.3,19.1,8.2,24.3h11c-0.1-3.4,1.5-4.9,4.7-4.9c3.4,0,4.9,1.8,4.9,5.1c1.2-0.8,8.8-0.3,11-0.3c0-3.2,1.3-4.9,4.7-4.9
		c3.2,0,4.9,1.6,4.9,4.9h11c-0.1-3.2,1.3-4.9,4.6-4.9c3.4,0,5.1,1.5,5,4.9h11c-0.1-3.2,1.5-4.7,4.6-4.9c3.4,0,5,1.5,5,4.9h17.8
		c0-1.6-0.1-1.8-0.5-2.8c-0.3-1.1-0.3-1.8-0.5-2.7c-0.5-1.8-0.9-3.6-1.6-5.4l-0.8-2.6c-4.4-14-12.8-31.5-25.2-39.6
		c-5.9-3.9-14.1-5.1-22-2c0.7,2.8,2.2,6.9,3.1,9.6c0.7,1.5,1.2,2.8,1.9,4.2c0.5,1.3,1.6,3,2,4c0.8,0.5,0.4-0.1,0.5,0.9
		c0.9,0.7,1.1,1.2,1.9,2c0.7,0.7,1.3,0.9,1.6,2c1.1-0.7,1.2-0.9,2-0.3c0,0.9-0.4,1.1-0.4,1.1s0,0.1-0.1,0.1c0.9,0.3,3.9,2,5.1,2.7
		c3.8,2,11.7,7.4,10.5,12.9l-64.1,4.4c-1.1-1.6-0.9-1.5-1.3-3.5c-1.2-5.7-3.1-13.1-4.9-18.5c-0.5-1.5-0.5-2.4-0.8-3.5
		c-0.3-0.9-0.8-2.2-1.2-3.2c-6.5-18.1-14.6-34-25.5-49c-2.2-3.1-13.7-18.2-16.7-20.5l-0.4,0.1c-1.1,0.4,0.8-0.1-0.4,0.1l-6.3,1.3
		c-2.3,0.5-5.1,1.3-7.3,2c-4.6,1.5-8.9,3-13.1,5c-4.3,2-7.4,4-11.2,6.9c-3.1,2.4-6.5,6.1-8.5,9.6c-5.3,8.6-6.1,19.5-2.6,29.1
		c0.9,2.4,1.5,3.9,2.7,6.2c1.5,3,3.1,5.9,5,8.6l1.9,2.7c0.7,0.8,1.2,1.5,1.9,2.4c0.7,0.8,1.6,1.9,2.2,2.6c-4.9-1.1-11.6,0-14.3,3.5
		c-5.9,8.1,4.2,22.9,7.5,29.4H228.1z"/>
	<path class="st1" d="M374.8,132.1c-1.6,0.7-19.4,2.2-23.6,2.6c-0.8,0.1-8.2,1.3-5.7-1.3c0.7-0.7,19.9-2.3,23.6-2.7
		C371.6,130.4,375.6,129.2,374.8,132.1z M434.2,125c2.2,0,4.4-0.7,3.9,1.9c-1.6,0.8-18.3,0.4-21.7,0.4c-3.4,0-19.7,0.5-21.3-0.4
		c-0.7-2.6,2-1.9,4-1.9H434.2z M436.5,116.1c1.5,0,1.9,0.3,1.6,1.9c-0.5,0.3-0.8,0.4-1.6,0.4h-39.5c-2.8,0-3-2.3-0.3-2.3H436.5z
		 M449.5,101.1c3.4-0.7,9.2,2,10.8,3.6c6.1,5.8,5.5,16.2,0.1,21c-1.9,1.8-7.3,3.9-11,3.2L449.5,101.1z M436.5,107.3
		c1.1,0,0.9,0,1.6,0.3c0.1,1.6,0,1.9-1.6,1.9h-39.7c-2.4,0-2.7-2.2,0-2.2H436.5z M339.2,127.1c-0.8-2,1.3-2.4,3.1-3.5l22.6-13.5
		c1.5-0.8,3.1-1.8,4.6-2.7c1.2-0.7,3.4-2.3,4.9-2.2c1.5,1.9-0.9,2.6-2.7,3.5l-23,13.7C346.8,123.6,341,127.8,339.2,127.1z
		 M398.1,90.3c2.8-1.1,6.9-0.3,8.2,1.6c1.8,2.7,0.1,5.8-2,6.6c-3,1.2-7,0.3-8.2-1.6C394.8,95.1,395,91.7,398.1,90.3z M413.8,90.2
		c1.1-0.3,13.5-0.3,15,0c4,0.8,4.4,7.1,0.4,8.5c-1.1,0.4-13.3,0.4-14.8,0.1C409.7,98,409.5,91.6,413.8,90.2z M326,123.8
		c0.7,0.9,3.8,3,4.7,3.5c1.1,0.8,3.9,2.6,4.6,3.5c1.5,2-0.7,11.3-0.8,14.4c6.2-0.1,7.1,2,6.1,7.5c11.3,0,22.4,0.5,33.7,0.5h103.3
		c0.7-2.8,0.3-24.1,0.3-28.8c0-9.7,0-19.5,0-29.2c-0.4-0.8-0.3-3,0-3.9c-0.5-0.9-0.1-16-0.3-17.5c-3.1,0-24.4,0.3-25.5-0.3
		c-0.8,0.3-2.3,0.4-3.1,0c-24.9,0-50.8,0.3-75.7,0c-2.8,0-3,1.3-6.2,4.7l-24.3,27.1c-0.4,0.5-0.9,0.8-1.3,1.3l-7.7,8.5
		c-0.7,0.7-0.7,0.8-1.3,1.5l-5.1,5.7C326.9,123,326.6,123.2,326,123.8z"/>
	<path class="st0" d="M237,104.8c1.6,1.6,3,2.6,4.4,4.9c1.2,2,2.2,4.2,2.8,6.9c2.6,10.9,0.3,22.8-12.9,24.3
		c-7,0.8-10.8-1.3-15.1-4.3c-1.1,0.4-1.8,1.1-3.2,1.6c-1.5,0.4-3.2,0.5-4.9,0.1c-2.8-0.5-5.5-2.3-6.3-4.2c-1.8-3.5,0.5-6.1,2.3-7.4
		c1.5-0.9,7.5-3.2,9.4-1.3c0.5,0.5,1.6,1.9,3.4,0.8c4.4-2.7-10.1-9.6,11.2-17.4c1.6-0.7,3.2-1.2,4.7-1.8
		C234.4,106.2,235.6,105.2,237,104.8z M218,91c-9.2-4.4-12.3,10.4-12.3,16.2c-3.5,0.9-4,5.7-4,8.9c0,3.4,0.9,5.8,2.2,8.1
		c-1.3,0.7-2.6,1.3-3.5,2.8c-5.3,7.8,4,15.8,13.3,13.3c3.9-1.1,0.8-1.6,4.9,0.4c7.5,3.9,18.2,3.4,23.8-2.3c1.6-1.5,2.8-3.2,3.6-5.5
		c0.5-1.5,0.7-1.9,0.9-3.5c1.5-7.7,0-16.4-4.6-22.5c-1.1-1.5-2.7-2.7-3.5-3.9c0.9-0.3,10.4-7.9,1.2-17.1c-5.1-5-12-6.2-17.2-0.9
		C219.5,88.2,220.5,87.4,218,91z"/>
	<path class="st0" d="M408.9,228.9c-3.9,0-5.7-0.3-9.2-0.7c-3-0.4-5.1-1.2-7.7-1.8l4.9-7.9c0.8-1.3,1.6-2.4,2.4-3.9l32.2-51.3
		c0.8,0.7,1.9,1.8,2.7,2.7c5.5,6.6,11.7,15.9,11.7,25.2c0,7.4-0.4,11.2-4,18.2c-1.1,2.2-3.5,6.2-5.3,7.8
		C429.8,224.1,422.3,228.9,408.9,228.9z M388.4,227.8c2.6,0.7,4.4,1.9,9.4,2.6c10.8,1.3,16.4,1.9,27.1-1.9
		c13.3-4.7,23.4-20.3,23.4-35.2c0-13.9-7.3-23.6-15.8-32.3c-0.7-0.7-0.8-1.2-2-1.2c-0.4,1.5-22.8,36.4-26.3,42.3l-5.4,8.5
		C398,212.2,388.7,226.8,388.4,227.8z"/>
	<path class="st0" d="M301.9,278.4c-14.4,0-17.1-5.4-21.4-5.4c-0.4,2-0.7,1.8,3.5,3.9c1.5,0.7,3.2,1.5,4.7,1.9
		c22.1,7,31.9-6.3,50.8-6.3c5.5,0,11.3,1.6,15,3.4c3.6,1.8,4.2,2,6.9,4.6c3.2,3,2.3,3.5,4.9,3c0-2.6-2.4-4.4-4.2-5.9
		c-4-3.2-8.6-5.1-13.6-6.3c-6.2-1.5-14.1-1.6-20.2,0.4C321.1,273.9,308.4,278.4,301.9,278.4z"/>
	<path class="st0" d="M300.6,266.2c-10.8,0-17.2-5-18.9-5.4c-1.5-0.4,0.4,0.1-1.2,0.1c-0.4,2-0.5,1.8,3.6,3.9
		c1.3,0.7,3.2,1.5,4.7,1.9c22.4,6.6,33.3-6.3,48.1-6.3c7.4,0,11.3,0.4,17.9,3.5c1.6,0.7,4.3,2.3,5.5,3.4c0.8,0.7,1.6,1.2,2.3,2.2
		c2.2,2.7,2,2.2,3.5,1.8c0-2.6-2.4-4.4-4.2-5.9c-6.6-5.3-15.4-7.4-24-7.4C325.5,257.8,314.6,266.2,300.6,266.2z"/>
	<path class="st0" d="M449.1,73.5c0.8,0.4,2.3,0.3,3.1,0c0.3-0.9,3.5-4.7,4-5.5l8.6-10.9c0.7-0.8,1.3-1.6,2.2-2.6
		c0.5-0.9,1.1-1.8,2-2.7c1.2,0.4,10.6,8.1,12.4,9.6c4.3,3.1,8.2,6.6,12.4,9.6c-0.7,1.3-10.2,13.3-11.9,15.4c-1.3,1.8-2.6,3.5-4,5
		c-0.3,0.9-0.4,3.1,0,3.9c1.6-2,3.2-3.9,4.9-6.1c1.6-2.2,3.2-4,4.9-6.2c1.6-2.2,3.2-4,4.9-6.1c0.8-0.9,4.4-5.7,4.6-6.5
		c-3-2-16.8-13.2-21.2-16.6c-1.3-1.1-6.2-5.1-7.4-5.4L449.1,73.5z"/>
	<path class="st0" d="M251.8,436.6c0.7,1.6,1.8,1.5,2.4,0c-0.9-5.1-6.1-18.9-8.2-24.3c-5.5-14.4-13.5-29.6-22.5-41.5
		c-5-6.5-6.7-7.7-11.6-12.7c-0.9-0.9-3.6-3.8-4.7-2.6c-0.9,1.2,1.5,2.8,3.2,4.3c8.4,6.7,18.9,22.5,23.4,31.5
		c3.8,7.3,6.9,13.9,10.1,21.7C245.6,417.5,251.3,432.6,251.8,436.6z"/>
	<path class="st0" d="M306.1,88.5c-2-0.4-14.1-8.4-16-8.9V79c1.2-0.3,7.1-3.9,8.4-4.6l8.2-4.9c0,1.6,0,3.2,0,4.7
		c0,1.9-0.3,2.7-0.3,4.7C306.4,82.5,306.1,85.2,306.1,88.5z M284.9,79.6c2.7,0.8,21.6,12.9,23.7,13.1c0-4.9,0.3-8.9,0.3-13.6
		c0-4.4,0.5-9.2,0.5-13.6c-1.5,0.1-19.3,10.9-21.6,12.1C287,78.2,285.6,78.8,284.9,79.6z"/>
	<path class="st0" d="M127.7,149.4l-5.8,5.7c-0.5,0.7-1.9,1.8-1.9,2.6c-0.1,0.8,0.3,1.2,1.2,1.2c0.9,0,7.7-7.1,8.1-7.7
		c2,1.3,6.9,7.7,8.6,7.7c0.9,0,1.1-0.5,1.1-1.3c0-1.1-6.7-6.7-7.7-8.4c0.5-0.4,7.7-7.1,7.7-8.1c0-3.6-3.9,0.9-4.9,1.9l-3.8,3.9
		c-0.1,0-0.1,0.1-0.1,0.1c-0.4,0.3-0.3,0.3-0.7,0.5c-1.9-1.3-6.9-7.8-8.6-7.8c-1.5,0-1.1,1.8-0.3,2.6
		C122.3,144.1,126.6,147.7,127.7,149.4z"/>
	<path class="st0" d="M228.1,436.6c0.7,1.1,1.1,1.1,2.4,0.8c0.3-0.4,0.1-0.3,0.1-0.8c-0.8-3.8-12.9-14.7-16.3-17.2
		c-3.2-2.3-6.3-4.4-10-6.7l-8.1-4.3c-1.2-0.5-2.2-1.3-3.1-0.4c-0.9,1.8,2.4,2.7,3.9,3.4c1.9,0.9,3.5,1.9,5.3,2.8
		c6.9,4,12.7,8.4,18.3,13.7C222.3,429.5,227.1,434.6,228.1,436.6z"/>
	<path class="st0" d="M119.9,130.8c0,3.1,4.9-1.1,5.9-1.6c12-5.5,19.7,8.2,31,3c4.3-2,3.8-2.3,3.4-4.2c-2.7,0-0.5,0-3.9,1.6
		c-9,4.2-15.2-4-22.8-4c-3.8,0-5.8-0.1-9.3,1.8C123.1,127.8,119.9,129.7,119.9,130.8z"/>
	<path class="st0" d="M395.2,126.9c1.6,0.9,17.9,0.4,21.3,0.4c3.4,0,20.1,0.4,21.7-0.4c0.5-2.6-1.8-1.9-3.9-1.9h-35
		C397.2,125,394.5,124.3,395.2,126.9z"/>
	<path class="st0" d="M397.1,118.4h39.5c0.8,0,1.1-0.1,1.6-0.4c0.3-1.6-0.1-1.9-1.6-1.9h-39.7C394.1,116.1,394.2,118.4,397.1,118.4z
		"/>
	<path class="st0" d="M396.8,109.5h39.7c1.6,0,1.8-0.3,1.6-1.9c-0.7-0.3-0.5-0.3-1.6-0.3h-39.7C394.1,107.3,394.4,109.5,396.8,109.5
		z"/>
	<path class="st0" d="M339.2,127.1c1.8,0.7,7.5-3.5,9.4-4.6l23-13.7c1.8-0.9,4.2-1.6,2.7-3.5c-1.5-0.1-3.6,1.5-4.9,2.2
		c-1.5,0.9-3.1,1.9-4.6,2.7l-22.6,13.5C340.6,124.7,338.4,125.1,339.2,127.1z"/>
	<path class="st0" d="M374.8,132.1c0.8-3-3.2-1.8-5.7-1.5c-3.6,0.4-22.9,2-23.6,2.7c-2.6,2.7,4.9,1.5,5.7,1.3
		C355.4,134.3,373.2,132.8,374.8,132.1z"/>
	<path class="st0" d="M17.3,405.5c1.5,0,2.6-0.3,3.5-0.9c3.5-2.7,1.1-7.4-1.9-7.4h-2.4c-3.2,0-5.3,4.7-2.4,7.1
		C14.6,404.8,16.3,405.5,17.3,405.5z"/>
	<path class="st0" d="M6.7,359.8c0,4.2,2.2,4.7,5.9,4.7c0.8,0,2.2-0.7,2.7-1.2c1.3-1.3,3-7.1-4.4-7.1C8.7,356.2,6.7,357.8,6.7,359.8
		z"/>
	<path class="st0" d="M9.8,380.2c0,4.7,2.8,4.7,6.1,4.7c2.7,0,5.5-4.3,2.2-7.3C15.6,375.5,9.8,376.7,9.8,380.2z"/>
	<path class="st0" d="M3.7,340.2c0,5.1,9.7,6.2,9.7-0.5c0-1.8-1.9-3.6-3.6-3.6C7.8,336,3.7,335.6,3.7,340.2z"/>
	<path class="st0" d="M285.9,436.6c0.3,1.3,0.4,1.6,1.3,2.4c0.8,0.7,1.2,0.8,2.3,0.9h1.8c2.7-0.3,3.6-1.2,4.2-3.4
		c0-3.2-1.6-4.9-4.9-4.9C287.2,431.8,285.9,433.4,285.9,436.6z"/>
	<path class="st0" d="M265.3,436.6c0.1,1.2,0.7,1.9,1.3,2.4c0.7,0.5,1.3,0.8,2.6,0.9h1.9c1.6-0.1,2.8-0.7,3.8-3.1
		c0-3.4-1.5-5.1-4.9-5.1C266.8,431.8,265.1,433.3,265.3,436.6z"/>
	<path class="st0" d="M327.1,436.6c0.4,2,1.3,3.1,3.9,3.4h1.9c0.9-0.1,1.5-0.3,2.2-0.8c0.8-0.7,1.3-1.5,1.6-2.6c0-3.4-1.6-4.9-5-4.9
		C328.6,431.9,327,433.4,327.1,436.6z"/>
	<path class="st0" d="M306.5,436.6c0,0.9,0.7,1.8,1.3,2.4c0.8,0.7,1.3,0.8,2.4,0.9h1.6c2.7-0.3,3.6-1.2,4.2-3.4
		c0.1-3.4-1.6-4.9-5-4.9C307.9,431.8,306.4,433.4,306.5,436.6z"/>
	<path class="st0" d="M147.9,423.8c0,1.5,5.9,8.9,7,10.5c0.5,0.7,0.8,0.9,1.2,1.6c0.7,0.9,0.7,1.5,1.9,1.5c3,0-0.7-4-1.2-4.7
		c-0.7-1.2-1.5-2.3-2.4-3.4c-0.8-1.3-1.5-2.3-2.4-3.5c-0.7-0.9-1.8-2.6-2.6-3.1C148.6,422.9,147.9,422.9,147.9,423.8z"/>
	<path class="st0" d="M209.1,392.2V403c0,2.4,2.2,2.7,2.2,0v-10.8C211.2,389.6,209.1,389.3,209.1,392.2z"/>
	<path class="st0" d="M104.9,239c-1.3,0.5-2.3,0.8-2.2,2.3c1.3,0.3,3.2-1.1,3.9-1.9c-0.1-3.2-0.4-4.4,1.8-6.3c2.4-2,4.6-0.5,5.5-1.2
		c1.8-1.1-3.1-3-6.9,0.4C104.9,234.3,105.1,235.7,104.9,239z"/>
	<path class="st0" d="M140.5,431.7c0.3,1.3,3.1,3.6,4.4,4.7c1.5,1.2,1.9,2.3,3.2,0.3c-0.3-1.6-3.4-3.6-4.6-4.9
		c-0.8-0.8-0.8-1.1-2-1.3C141.2,430.8,140.8,431.3,140.5,431.7z"/>
	<path class="st0" d="M237.2,116.1c-0.9,0.8,0.5,1.9,2,5.1c1.2,2.7,1.5,5.8,2.7,4.6c0.9-0.9-1.1-4.7-1.6-5.7
		C239.9,119,238.3,115.1,237.2,116.1z"/>
	<path class="st0" d="M204.6,131.2h1.2c0.8-0.4,1.9-1.3,4.3-0.9c1.3,0.3,1.8,0.8,2.6,1.2c1.3,0.5,1.9-0.1,1.2-1.1
		C211.9,128.1,203.7,128.1,204.6,131.2z"/>
	<path class="st0" d="M112.6,344.9c2.4,0,0.3-1.2,2.3-4.2c0.7-0.9,3.5-2.4,2.3-3.2C115.4,336.4,111.1,342.5,112.6,344.9z"/>
	<path class="st0" d="M270.7,332.2c-0.4,0.8-0.1,1.3,0.5,2.3c0.5,0.8,0.8,1.1,1.5,1.5c1.3,0.9,3.1,1.6,4.9,1.2c0-3-2.8,0-5.3-3.8
		C271.6,332.2,271.9,331.9,270.7,332.2z"/>
	<path class="st2" d="M134.4,337.1c0.8,0.3,0.4,0.1,0.9,0.7c0.4,0.3,0.5,0.4,0.9,0.7l5.8,5.1l0.9-0.7c-0.5-0.7-1.2-1.1-2-1.8
		c-0.7-0.5-1.2-1.1-1.9-1.6c-1.3-0.9-2.7-2.7-4-3.2L134.4,337.1z"/>
	<path class="st0" d="M231.6,121.7c1.3-1.6,0.3-3.4-1.5-2.6C228.9,119.7,228.8,122.4,231.6,121.7z"/>
</g>
</svg>
