<?xml version="1.0" encoding="utf-8"?>
<!-- Generator: Adobe Illustrator 24.0.1, SVG Export Plug-In . SVG Version: 6.00 Build 0)  -->
<svg version="1.1" id="Layer_1" xmlns="http://www.w3.org/2000/svg" xmlns:xlink="http://www.w3.org/1999/xlink" x="0px" y="0px"
	 viewBox="0 0 500 500" style="enable-background:new 0 0 500 500;" xml:space="preserve">
<style type="text/css">
	.st0{fill-rule:evenodd;clip-rule:evenodd;fill:#023E57;}
	.st1{fill:none;}
	.st2{fill:#023E57;}
	.st3{fill:#BF353E;}
</style>
<path class="st0" d="M396.1,297.8c0.9-0.9,2.9-2.2,4.1-2.9l12-8.1c2.5-1.8,47.3-32.2,48.5-32.6c0.5,1.1,1.6,2.9,2.4,4.3
	c9.9,18.1,8.6,38.4-8.1,51.6c-4.8,3.8-10.6,7.5-19.1,7.5c-8.4,0-9.9-1.8-15.7-3.3c-0.6-2.5-2.7-4.8-4.6-6c-3-1.6-4.9-1.5-8.6-1.5
	C406.5,306.6,396.8,299.3,396.1,297.8z M392.8,297.5c1.1,1.6,2.8,2.7,4.1,3.9l6.7,5.4c0.6,0.5,0.4,0.1,0.6,0.8
	c-3.4,0.9-7.2,6-7.2,9.8c0,4.3,0.5,6.6,3.8,9.9c4.3,4.4,12,4.4,17-0.6c0.9-0.9,2-2.9,2.4-4.1c0.8-2,0.6-3.2,0.6-5.8
	c1,0.1,2,0.6,3,0.9c1,0.4,2.2,0.6,3.3,0.9c7.9,2,16.9,0.9,23.6-3c0.4-0.1,0.3-0.1,0.5-0.3c0.4-0.3,0.5-0.3,0.8-0.5l6.6-5.1
	c3.4-3.4,7-7.1,9-11.5c3.8-8.2,4.9-16.6,2.9-25.6c-0.3-1.3-0.6-2.9-1-4.1c-1.3-4.1-3-8.9-5.3-12.4c-0.4-0.6-0.5-1.1-0.9-1.6
	c-2.5-3.9-1.3-3.7-6.3-0.3L395,296C394.4,296.4,393.4,297,392.8,297.5z"/>
<path class="st0" d="M408.1,164.8c4.6-1.4,8.2,1.9,9.1,5.3c1.3,4.6-1.9,8.4-5.3,9.2C402.6,181.7,398,167.9,408.1,164.8z
	 M400.3,172.1c0,3.3,2,6.7,4.8,8.2c6.1,3.5,14.3-0.9,14.3-8c0-3.2-1.1-5.2-2.7-6.8c-0.9-0.8-1.6-1.6-2.8-2
	C405.6,160.3,400.3,166.7,400.3,172.1z"/>
<path class="st0" d="M417.6,134l-3.9-1.3c-0.6-0.1-0.6-0.3-1.4-0.5c-1-0.4-4.7-1.5-5.7-1.5l-0.6,0.8l-0.1,0.1c0.9,1.6,1.3,1.1,3.7,2
	l7.5,2.4l-1.8,5.4c-0.4,1.1-1.5,4.7-1.5,5.7c0.8,0.5,0.3,0.4,1.6,0.4c0.9-1.4,1.4-3.5,1.9-5.3c0.3-1,1.5-4.6,1.5-5.6
	c1.9,0.3,8.9,3.3,11.4,3.3c1.1-2,0-1.9-4.7-3.4c-1-0.4-2-0.6-3-0.9c-3.5-1.3-3.4,0.5-0.1-10c0.5-1.4,1.1-2.5-1.1-2.5
	c-0.8,1-2.2,6.2-2.8,8L417.6,134z"/>
<path class="st0" d="M373.2,341.7c0,0.4,0.8,2.7,2.9-0.5l9.5-13.9c0.5-0.5,1.4-2.3-0.6-2.3h-0.4c-0.9,1.6-3.2,4.6-4.3,6.2
	L373.2,341.7z"/>
<path class="st0" d="M383,456.8c1.3,1.1,1.4,0.5,2.8-0.6l3.9-3.3c1.3-1.3,9.4-7.7,9.6-8.4c0-1.8-1.1-1.4-2-0.6l-10.5,8.9
	c-0.8,0.6-1.4,1.3-2.2,1.8C383.7,455.1,383,455.5,383,456.8z"/>
<path class="st0" d="M411.2,341v1c1.1,0.6,0.8,0.3,2.3,0.5c2.5,0.4,9,1.9,9-0.1c0-0.5-0.4-0.6-0.6-1.1
	C417.4,341.2,411.2,339.2,411.2,341z"/>
<path class="st1" d="M221.3,95.5h8.9c-1.5-1.3-2.9-2.5-4.5-3.6C224.2,93,222.7,94.3,221.3,95.5z"/>
<path class="st2" d="M139,289.1c-1.6-16.7-15.8-29.4-32.6-29.4h-4.2v28.9c9.7,0,19.2,3.4,26.7,9.8
	C131.5,294.6,135.1,291.5,139,289.1z"/>
<path class="st2" d="M312.5,289.1c4,2.4,7.4,5.5,10.2,9.3c7.4-6.4,16.9-9.8,26.7-9.8v-28.9h-4.2
	C328.4,259.7,314.3,272.4,312.5,289.1z M341.1,280.3h-8.2v-8.2h8.2V280.3z"/>
<g>
	<path class="st3" d="M225.7,189.7c13.7,0,24.8-11.1,24.8-24.8c0-13.6-11.1-24.7-24.8-24.7c-13.6,0-24.7,11.1-24.7,24.7
		C201.1,178.7,212.1,189.7,225.7,189.7z M225.7,148.5c9.2,0,16.5,7.4,16.5,16.5c0,9.2-7.3,16.5-16.5,16.5c-9.1,0-16.5-7.3-16.5-16.5
		C209.3,155.9,216.7,148.5,225.7,148.5z"/>
	<path class="st3" d="M177.8,270.7c1.3,1.5,2.5,2.9,3.9,4.3c0.8,0.8,1.8,1.1,2.9,1.1c0.4,0,0.9,0,1.3-0.1c1.5-0.5,2.5-1.8,2.8-3.4
		l3.1-21.8c0.3-2,2-3.5,4-3.5h12.6l-3.1,15.7c-0.5,2.1,1,4.4,3.3,4.8c0.3,0.1,0.5,0.1,0.8,0.1h33c2.3,0,4.2-1.9,4.2-4.2
		c0-0.3,0-0.5-0.1-0.8l-3.1-15.7h12.6c2,0,3.8,1.5,4.2,3.5l3,21.8c0.3,1.6,1.4,2.9,2.8,3.4c0.5,0.1,0.9,0.1,1.4,0.1
		c1,0,2.1-0.4,2.9-1.1c20.5-20.5,20.5-53.8,0-74.3c-1.4-1.4-2.8-2.6-4.3-3.9v-0.1c11.6-35.9,2.2-74.7-23.3-101.1
		c-4.3-4.4-9-8.5-14.2-12.2c-1.4-1-3.3-1-4.8,0c-5.1,3.7-9.9,7.8-14.1,12.2c-25.5,26.4-35,65.2-23.4,101.1v0.1
		C163.2,214.9,159.6,248.1,177.8,270.7z M214.3,259.7l2.5-12.3h18l2.4,12.3H214.3z M276.9,234.1c0.8,9.8-1.8,19.7-7.2,28l-1.9-12.5
		c-0.9-6-6-10.6-12.2-10.6H252l10.9-34C271,212.7,276,223.1,276.9,234.1z M221.3,95.5c1.5-1.3,2.9-2.5,4.5-3.6
		c1.5,1.2,3,2.4,4.5,3.6c8,6.9,14.7,15,19.9,24.1h-48.7C206.7,110.5,213.3,102.4,221.3,95.5z M197.3,128h57
		c9.3,20.9,10.6,44.4,3.5,66.2l-0.9,2.8l-13.6,42.3h-35.2l-13.5-42.3l-1-2.8C186.7,172.4,188,148.9,197.3,128z M188.6,205.2l10.9,34
		h-3.8c-6.2,0-11.3,4.5-12.2,10.6l-1.8,12.5c-5.5-8.3-8-18.2-7.2-28C175.6,223.1,180.5,212.7,188.6,205.2z"/>
	<path class="st3" d="M209.3,289.3c-9.9-3.1-20.9-0.5-28.3,6.9c-6.3-7.5-15.5-11.8-25.2-11.8c-3,0-6,0.4-8.9,1.3
		c-3.3-19.9-20.5-34.3-40.5-34.2h-4.2v8.2h4.2c16.7,0,30.9,12.7,32.6,29.4c-3.9,2.4-7.4,5.5-10.1,9.3c-7.4-6.4-17-9.8-26.7-9.8v8.2
		c18.1,0,33,14.8,33,33h8.2c0-9.1-3-18-8.6-25.2c2.4-4,5.9-7.3,10.2-9.4h0.1c3.3-1.6,6.9-2.5,10.7-2.5c7.9,0.1,15.3,4,20,10.4
		c-2.3,4.4-3.5,9.3-3.6,14.3h8.3c0-4.3,1.1-8.3,3.4-11.9c0.1,0,0.1-0.1,0.3-0.1c5.5-8.2,16.1-11.3,25.2-7.3v10.8h8.3v-33h-8.3V289.3
		z"/>
	<path class="st3" d="M349.4,259.7v-8.2h-4.2c-20.1-0.1-37.2,14.3-40.6,34.2c-2.9-0.9-5.8-1.3-8.8-1.3c-9.7,0-19,4.3-25.3,11.8
		c-7.4-7.4-18.2-10.1-28.3-7v-13.3H234v33h8.2V298c9.1-4,19.7-0.9,25.3,7.3l0.1,0.1c2.3,3.6,3.4,7.7,3.4,11.9h8.3
		c0-5-1.3-9.9-3.6-14.3c4.7-6.4,12.1-10.3,20.1-10.4c3.6,0,7.3,0.9,10.6,2.5c0.1,0,0.1,0,0.1,0c4.3,2.1,7.9,5.4,10.3,9.4
		c-5.7,7.2-8.7,16.1-8.7,25.2h8.3c0-18.1,14.7-33,33-33v-8.2c-9.8,0-19.2,3.4-26.7,9.8c-2.8-3.8-6.2-6.9-10.2-9.3
		c1.8-16.7,15.8-29.4,32.7-29.4H349.4z"/>
	<rect x="205.1" y="202.1" class="st3" width="8.2" height="8.2"/>
	<rect x="221.6" y="202.1" class="st3" width="8.2" height="8.2"/>
	<rect x="238.1" y="202.1" class="st3" width="8.2" height="8.2"/>
	<rect x="147.5" y="300.9" class="st3" width="8.2" height="8.2"/>
	<rect x="102.2" y="235" class="st3" width="8.2" height="8.2"/>
	<rect x="332.9" y="272.1" class="st3" width="8.2" height="8.2"/>
	<rect x="299.9" y="255.6" class="st3" width="8.2" height="8.2"/>
	<rect x="254.5" y="321.5" class="st3" width="8.2" height="8.2"/>
	<rect x="341.1" y="226.8" class="st3" width="8.2" height="8.2"/>
</g>
<path class="st1" d="M367,183.9l-0.5,0.2v0.1C366.6,184,366.8,184,367,183.9z"/>
<rect x="299.9" y="255.6" class="st1" width="8.2" height="8.2"/>
<rect x="341.1" y="226.8" class="st1" width="8.2" height="8.2"/>
<rect x="147.5" y="300.9" class="st1" width="8.2" height="8.2"/>
<rect x="254.5" y="321.5" class="st1" width="8.2" height="8.2"/>
<path class="st1" d="M133.9,465.3c3,0.5,10.1,0.1,13.7,0.1c2.2,0,4.4,0,6.6,0c-0.7-1.5-4.5-8.1-8.6-15.1h-14.1L133.9,465.3z"/>
<path class="st2" d="M123.7,414.6l4.8,17.5l2.9,18.2h14.1c-5-8.4-10.2-17.4-10.4-18.3l56.3-32.3l7.5,13.1
	c-0.9,1.6-14.8,19-15.1,20.1l28.1,2.2c0.4,1,5.1,9,6,10.5l2.7,4.7h103.5c14,0,25.3-11.3,25.3-25.3V296.8c-18.2,0-33,14.8-33,33h-8.3
	c0-9.1,3-18,8.7-25.2c-2.4-4-6-7.3-10.3-9.4c0,0,0,0-0.1,0c-3.3-1.6-6.9-2.5-10.6-2.5c-8,0.1-15.5,4-20.1,10.4
	c2.4,4.4,3.6,9.3,3.6,14.3H271c0-4.3-1.1-8.3-3.4-11.9l-0.1-0.1c-5.5-8.2-16.2-11.3-25.3-7.3v10.8H234v-33h8.2v13.3
	c10.1-3,20.9-0.4,28.3,7c6.3-7.5,15.6-11.8,25.3-11.8c3,0,5.9,0.4,8.8,1.3c3.4-19.9,20.5-34.3,40.6-34.2h4.2V120.8
	c0-14-11.3-25.3-25.3-25.3h-81.8c25.5,26.4,34.9,65.2,23.3,101.1v0.1c1.5,1.3,2.9,2.5,4.3,3.9c20.5,20.5,20.5,53.8,0,74.3
	c-0.8,0.8-1.9,1.1-2.9,1.1c-0.5,0-0.9,0-1.4-0.1c-1.4-0.5-2.5-1.8-2.8-3.4l-3-21.8c-0.4-2-2.1-3.5-4.2-3.5h-12.6l3.1,15.7
	c0.1,0.3,0.1,0.5,0.1,0.8c0,2.3-1.9,4.2-4.2,4.2h-33c-0.3,0-0.5,0-0.8-0.1c-2.3-0.4-3.8-2.6-3.3-4.8l3.1-15.7h-12.6
	c-2,0-3.8,1.5-4,3.5l-3.1,21.8c-0.3,1.6-1.3,2.9-2.8,3.4c-0.4,0.1-0.9,0.1-1.3,0.1c-1.1,0-2.1-0.4-2.9-1.1c-1.4-1.4-2.6-2.8-3.9-4.3
	c-18.2-22.6-14.6-55.8,8-74v-0.1c-11.6-35.9-2.1-74.7,23.4-101.1h-81.7c-14,0-25.3,11.3-25.3,25.3V235h8.2v8.2h-8.2v8.2h4.2
	c20-0.1,37.2,14.3,40.5,34.2c2.9-0.9,5.9-1.3,8.9-1.3c9.7,0,18.9,4.3,25.2,11.8c7.4-7.4,18.4-10.1,28.3-6.9v-13.5h8.3v33h-8.3V298
	c-9.1-4-19.6-0.9-25.2,7.3c-0.1,0-0.1,0.1-0.3,0.1c-2.3,3.6-3.4,7.7-3.4,11.9h-8.3c0.1-5,1.4-9.9,3.6-14.3
	c-4.7-6.4-12.1-10.3-20-10.4c-3.8,0-7.4,0.9-10.7,2.5H145c-4.3,2.1-7.8,5.4-10.2,9.4c5.5,7.2,8.6,16.1,8.6,25.2h-8.2
	c0-18.1-14.8-33-33-33v80.1C112.9,385.6,119.7,402.2,123.7,414.6z M254.5,321.5h8.2v8.2h-8.2V321.5z M341.1,226.8h8.2v8.2h-8.2
	V226.8z M299.9,255.6h8.2v8.2h-8.2V255.6z M147.5,300.9h8.2v8.2h-8.2V300.9z"/>
<path class="st1" d="M102.2,425v-45.5c-5-4.5-10.7-7.3-17.3-7.3c-8.6,0-16.6,4.2-20.3,8.6c-2.3,2.8-3.7,4.9-5.2,9.2
	c-4.3,12.7-0.6,30.2,3.3,42.3l2.8,7.9c-1-0.5-2-1.4-3-2c-11.8-7-28.9-12.7-41.4-4.2c-4.6,3.2-6.2,6.6-6.2,12.5
	c0,6.1,4.4,18.6,7.5,22.3H48c-0.1-0.6-6.7-10.8-7.5-11.9c-0.8-1.3-2.2-2.7-1.4-4.1h1c0.5,0.3,8.4,13.4,10.5,16h51.2
	c0.1-1.9-3.9-15.7-4.7-18.2c-4.2-13.3-9.6-28.9-17-40.7c-1.3-2-4.3-5.8-4.2-7.2c1.1-1.4,2.7,1.4,3.2,2c0.8,1.1,1.6,2.4,2.3,3.7
	c9.2,15.3,15.7,33.6,20.3,51.1c0.5,2.4,1.5,7.3,2.4,9.4h28c0.1-1.9-0.5-6-0.8-8c-0.4-3.1-0.9-6.7-1.5-10.7h-2.3
	C113.6,450.3,102.2,439,102.2,425z"/>
<path class="st2" d="M102.2,379.5V425c0,14,11.3,25.3,25.3,25.3h2.3C126.2,427.6,118.2,394.1,102.2,379.5z M105.5,419
	c0-1,0-0.9,0.4-1.5c0.9,0,1.5-0.3,1.5,1.3v14.8c0,1.1,0,1.4-1.1,1.6l-0.8-0.6V419z"/>
<path class="st1" d="M389.9,409.4c-20.4,0-31.3,22.9-36.1,39.2c-1,3.3-4.8,17.4-4.4,20.4h21.3c0.5-1,5.6-22.7,15.5-39
	c1.5-2.5,2.2-4.2,3.7-3.4c0.4,1.4-0.4,1.9-1,2.8c-0.5,0.8-0.9,1.4-1.4,2.3c-2.7,4.4-5.4,10.3-7.3,15c-1.4,4.1-7.1,18.9-7.2,22.4
	h24.8c4.7-9.1,11.8-27.6,11.8-39.5v-2C409.4,414.8,402.1,409.4,389.9,409.4z"/>
<polygon class="st2" points="364.6,184.7 366.5,184.1 366.5,184 364.6,184.7 "/>
<path class="st1" d="M389.9,409.4c-20.4,0-31.3,22.9-36.1,39.2c-1,3.3-4.8,17.4-4.4,20.4h21.3c0.5-1,5.6-22.7,15.5-39
	c1.5-2.5,2.2-4.2,3.7-3.4c0.4,1.4-0.4,1.9-1,2.8c-0.5,0.8-0.9,1.4-1.4,2.3c-2.7,4.4-5.4,10.3-7.3,15c-1.4,4.1-7.1,18.9-7.2,22.4
	h24.8c4.7-9.1,11.8-27.6,11.8-39.5v-2C409.4,414.8,402.1,409.4,389.9,409.4z"/>
<path class="st2" d="M409.3,417.2c-0.3-0.6-0.4-0.8-0.8-1.4c-1.5-2.7-3.7-4.7-6.5-6.1c-4.1-2-6-1.8-10.1-2.3
	c-0.6-0.1-0.8-0.3-1.9-0.3c-1,0-0.8,0.3-1.8,0.3c-7.2,0.3-12.7,3-17.6,7.2c-1.3,1.1-2.8,3.2-4.2,4.1V270.1c1.8-0.1,5.7-1.6,7.5-2.4
	l5.7-1.9c1.5-0.5,1.4-1.4,0.4-2.3c0,0-0.1,0-0.1-0.1c-1.3,0.6-12.4,4.4-13.4,4.4l0.1-42.3c-0.5-0.8-1.3-1.4-2-1.8
	c-0.3,2.3,0,36,0,42.4c0,1.6,0.3,2.3-0.4,2.5c-0.4,0.5-1.6,0.8-2.3,1c-1.1,0.4-1.6,1-0.6,1.9c1.1,0.3,2-0.5,3.3-0.6
	c0.1,8.6,0,17.4,0,26c0,9.1,0.1,123.7-0.1,124.4c0,0.3-2.3,3.4-2.7,4.1c-6.1,9-10.3,22.2-12.7,33.2c-0.3,1.3-0.8,4.4-1.1,5.4
	c-3.5,1.9-20.4,1.3-25.7,1.3c-38.1,0-76.2,0-114.4,0h-53.7c-2.2,0-4.4,0-6.6,0c-3.5,0-10.6,0.4-13.7-0.1l-2.4-15h-1.6
	c0.6,3.9,1.1,7.5,1.5,10.7c0.3,2,0.9,6.1,0.8,8h-28c-0.9-2-1.9-7-2.4-9.4c-4.6-17.5-11-35.7-20.3-51.1c-0.6-1.3-1.5-2.5-2.3-3.7
	c-0.5-0.6-2-3.4-3.2-2c-0.1,1.4,2.9,5.2,4.2,7.2c7.3,11.8,12.8,27.4,17,40.7c0.8,2.5,4.8,16.3,4.7,18.2H50.6
	c-2.2-2.5-10-15.7-10.5-16h-1c-0.8,1.4,0.6,2.8,1.4,4.1c0.8,1.1,7.3,11.3,7.5,11.9H22.4c-3-3.7-7.5-16.2-7.5-22.3
	c0-6,1.6-9.4,6.2-12.5c12.5-8.5,29.6-2.8,41.4,4.2c1,0.6,2,1.5,3,2l-2.8-7.9c-3.9-12.2-7.6-29.6-3.3-42.3c1.5-4.3,2.9-6.5,5.2-9.2
	c3.7-4.4,11.7-8.6,20.3-8.6c6.6,0,12.3,2.7,17.3,7.3v-2.6c-0.9-0.7-1.8-1.4-2.7-2c-0.4-0.3-0.5-0.4-0.9-0.5
	c-0.6-0.5-0.3-0.3-0.6-0.6c-1.1-0.1-2.7-1.3-3.9-1.8c-6.1-2.4-9.6-1.4-15.1-1.1V108.1c0-6.7-0.3-10.6,2.3-16.3
	c1.9-4.3,5.3-7.9,8.9-10c4.7-3,8.7-3.8,15.2-3.8h225c5.8,0,12.3-0.5,17.6,1.3c4.8,1.5,8.9,4.7,11.2,7.6c2.4,2.9,5.8,9.4,5.2,13.6
	l-0.1,84.5l0.4-0.1l1.9-0.7v-75.7c0-8.7,0.4-14.7-4.9-21.9c-1.6-2.2-3.9-4.4-6.2-6c-0.4-0.3-0.6-0.3-0.9-0.5
	c-2.9-1.8-6.6-3.4-10-3.8c-1.3,0-2.7-0.1-4.2-0.1h-17.1H106.7c-8.1,0-14.6,0.6-20.8,6.2c-0.5,0.5-0.8,0.6-1.4,1.1
	c-2.8,2.9-4.7,6.3-6.2,10c-1.9,4.9-1.3,12.7-1.3,18v260c-2.5,0.5-6.1,2-8,3.3c-7.2,4.7-10.8,10.3-12.7,18.8
	c-0.5,2.5-0.8,5.2-0.8,7.9c-0.1,1-0.3,1.1-0.3,2.5c0,1.3,0.1,1.6,0.3,2.7c0,0.9-0.1,2,0,2.8c0,0.6,0.3,2,0.4,2.7
	c0.1,0.8,0.3,1.8,0.3,2.5c0.3,5.8,5.1,20,5.1,20.8c-1-0.3-4.9-2.5-6.6-3.2c-2.5-1-4.8-1.9-7.5-2.7c-10.1-2.5-19.9-1.9-27.4,3
	c-1.5,1-2.4,1.8-3.7,3c-2.3,2.4-3.3,5.7-3.5,9v3.2c0.3,2.3,0.6,4.6,1.1,6.7c0.9,3.3,2.2,6.6,3.5,9.8c0.9,2,3,4.9,3.4,6.7h113.5
	c0-1.5-0.3-2-0.3-3.4h201c4.8,0,7.7,0.1,12.4-0.9c0,1.5-0.4,2.7-0.4,4.3h52.1l4.9-11.4c0.9-2,1.5-3.9,2.3-6.1c0.4-1.1,0.8-2,1-3
	l2.7-9.8C411.7,432.2,412.5,425.3,409.3,417.2z M409.4,429.4c0,11.9-7.1,30.4-11.8,39.5h-24.8c0.1-3.5,5.8-18.4,7.2-22.4
	c1.9-4.7,4.7-10.5,7.3-15c0.5-0.9,0.9-1.5,1.4-2.3c0.6-0.9,1.4-1.4,1-2.8c-1.5-0.8-2.2,0.9-3.7,3.4c-9.9,16.3-15,38-15.5,39h-21.3
	c-0.4-3,3.4-17.1,4.4-20.4c4.8-16.2,15.7-39.2,36.1-39.2c12.2,0,19.5,5.4,19.5,18V429.4z"/>
<path class="st2" d="M220.6,450.3l3.3,5.7l-4.6-8l-63.6-2.5l-10.7,3.7l9.3,16.2c-0.7-1.5-4.5-8.1-8.6-15.1H220.6z"/>
<path class="st2" d="M207.9,465.4l15.9-9.4l-14.1,8.2C208.9,464.7,208.4,464.8,207.9,465.4z"/>
<path class="st3" d="M220.6,450.3l-2.7-4.7c-0.9-1.5-5.6-9.5-6-10.5l-28.1-2.2c0.3-1.1,14.2-18.5,15.1-20.1l-7.5-13.1L135.1,432
	c0.2,0.9,5.5,9.8,10.4,18.3c4.1,7,8,13.6,8.6,15.1h53.7c0.5-0.5,0.9-0.7,1.8-1.2l14.1-8.2L220.6,450.3z"/>
<path class="st3" d="M364.6,184.7L364.6,184.7l-0.4,0.1v0l-18.8,5.8l-0.3,0.1c-1.8,0.4-13.1,3.9-13.8,4.4c1.1,0.9,2.3,2,3.4,3
	c1.3,0.9,2.4,1.9,3.5,2.9c1.9,1.6,5.4,4.7,6.9,5.9l0.3,0.3l18.8,16l4.1,3.7l9,7.7c0.5,0.4,0.5,0.3,1,0.8c0.9,0.8,1.6,1.6,2.9,2.4
	l7.6-45.9c0.3-1.3,0.5-2.7,0.6-3.8l1.9-11.8c-0.8,0.1-2.3,0.6-3,0.9l-7.9,2.4c-0.8,0.3-0.6,0.3-1.5,0.5c-0.4,0.1-1,0.3-1.4,0.4
	c-1.5,0.7-6.5,2-9.3,2.8l-1.4,0.5c-0.2,0.1-0.4,0.2-0.5,0.2L364.6,184.7z"/>
</svg>
