<svg xmlns="http://www.w3.org/2000/svg" width="238.692" height="148.462" viewBox="0 0 238.692 148.462">
  <g id="About-us-brain-illustration" transform="translate(-359.77 -885)">
    <g id="Group_1194" data-name="Group 1194">
      <path id="Path_2890" data-name="Path 2890" d="M234.352,82.842H5.375a4.953,4.953,0,0,1-4.361-3.63V64.548c.122-.669,1.643-7.646,8.62-7.646a9.771,9.771,0,0,1,3.772.71h0a9,9,0,0,1,5.03,6.531V70.8a.507.507,0,0,0,1.014,0V64.021c0-.061-.852-5.07-5.334-7.2v-8.7c.122-.649,1.521-7.443,8.9-7.443,7.4,0,8.538,7.038,8.62,7.646V63.981c.02.081,1.582,8.336,9.634,8.336,7.849,0,9.634-7.281,9.634-8.62V49.4c-.02-.081-1.6-8.113-10.039-8.113a.507.507,0,0,0,0,1.014c7.362,0,8.883,6.591,9.025,7.24V63.7c0,.081-.913,7.606-8.62,7.606-6.977,0-8.5-6.794-8.62-7.443V37.331a16.8,16.8,0,0,1,7.281-11.763,14.665,14.665,0,0,1,8.741-2.576v9.066a.507.507,0,1,0,1.014,0V22.586c.284-.832,2.921-8.092,10.648-8.092,5.6,0,8.417,4.726,8.964,5.78a10.342,10.342,0,0,0-2.312,2.454A11.737,11.737,0,0,0,65.1,27.514V61.243c0,.1.041,2.454,3.144,6.591a9.656,9.656,0,0,0,7.768,3.691c.466,0,.771-.041.811-.041a.519.519,0,0,0,.446-.568.5.5,0,0,0-.568-.446c-.041,0-4.827.507-7.646-3.245-2.88-3.813-2.941-5.963-2.941-5.983V27.616c.081-.629,1.278-8.64,10.851-8.64a8.787,8.787,0,0,1,7.606,4.259A12.516,12.516,0,0,1,86.6,28.2V43.111c-9.228.345-9.329,9.938-9.329,10.039a.5.5,0,0,0,.507.507h0a.5.5,0,0,0,.507-.507c0-.365.122-9.025,8.822-9.025,6.977,0,8.5,6.977,8.62,7.646V71a.507.507,0,1,0,1.014,0V51.649c-.02-.081-1.521-8.173-9.127-8.518V28.184a11.371,11.371,0,0,0-.892-3.1A18.02,18.02,0,0,1,96.033,26.6c5.415,2.6,12.737,7.524,13.913,20.261V70.978a.507.507,0,0,0,1.014,0V47.046c.223-.73,2.251-6.794,8.62-6.794,6.389,0,8.234,6.733,8.417,7.464v7.342a7.926,7.926,0,0,0-4.543,2.819,8.463,8.463,0,0,0-1.947,4.989.507.507,0,0,0,1.014,0,7.386,7.386,0,0,1,7.4-7c5.01,0,6.267,5.253,6.389,5.841v8.863a.5.5,0,0,0,.507.507h87.616a.507.507,0,0,0,0-1.014H137.306V61.547c-.02-.061-1.359-6.693-7.4-6.693-.324,0-.629.02-.913.041v-7.24a.257.257,0,0,0-.02-.122c-.02-.081-2.008-8.3-9.411-8.3a9.854,9.854,0,0,0-8.843,5.74c-1.7-11.925-8.9-16.692-14.278-19.267a18.84,18.84,0,0,0-10.2-1.582c-1.46-2.88-4.3-6.166-9.289-6.166a12.64,12.64,0,0,0-6.835,1.764c-.75-1.379-3.833-6.226-9.8-6.226-7.727,0-10.83,6.774-11.5,8.5a15.4,15.4,0,0,0-9.471,2.758A17.5,17.5,0,0,0,31.619,37.31v7.727A9.036,9.036,0,0,0,23,39.643c-8.437,0-9.9,8.255-9.9,8.336V56.4a11.131,11.131,0,0,0-3.468-.527C1.6,55.868.02,64.305,0,64.406V79.293a.4.4,0,0,0,.02.162c1.521,4.34,5.192,4.4,5.354,4.4H234.352a.507.507,0,1,0,0-1.014Z" transform="translate(362 871.5)" fill="#bf353e"/>
      <circle id="Ellipse_218" data-name="Ellipse 218" cx="2.231" cy="2.231" r="2.231" transform="translate(583 940)" fill="#bf353e"/>
      <circle id="Ellipse_257" data-name="Ellipse 257" cx="1.25" cy="1.25" r="1.25" transform="translate(584 941)" fill="#fff"/>
      <circle id="Ellipse_223" data-name="Ellipse 223" cx="2.231" cy="2.231" r="2.231" transform="translate(488 925)" fill="#bf353e"/>
      <circle id="Ellipse_256" data-name="Ellipse 256" cx="1.25" cy="1.25" r="1.25" transform="translate(489 926)" fill="#fff"/>
      <circle id="Ellipse_239" data-name="Ellipse 239" cx="2.231" cy="2.231" r="2.231" transform="translate(482 933)" fill="#bf353e"/>
      <circle id="Ellipse_255" data-name="Ellipse 255" cx="1.25" cy="1.25" r="1.25" transform="translate(483 934)" fill="#fff"/>
      <circle id="Ellipse_224" data-name="Ellipse 224" cx="2.231" cy="2.231" r="2.231" transform="translate(470 939)" fill="#bf353e"/>
      <circle id="Ellipse_254" data-name="Ellipse 254" cx="1.25" cy="1.25" r="1.25" transform="translate(471 940)" fill="#fff"/>
      <circle id="Ellipse_225" data-name="Ellipse 225" cx="2.231" cy="2.231" r="2.231" transform="translate(470 916)" fill="#bf353e"/>
      <circle id="Ellipse_253" data-name="Ellipse 253" cx="1.25" cy="1.25" r="1.25" transform="translate(471 917)" fill="#fff"/>
      <circle id="Ellipse_226" data-name="Ellipse 226" cx="2.231" cy="2.231" r="2.231" transform="translate(445 894)" fill="#bf353e"/>
      <circle id="Ellipse_248" data-name="Ellipse 248" cx="1.25" cy="1.25" r="1.25" transform="translate(446 895)" fill="#fff"/>
      <circle id="Ellipse_229" data-name="Ellipse 229" cx="2.231" cy="2.231" r="2.231" transform="translate(430 890)" fill="#bf353e"/>
      <circle id="Ellipse_247" data-name="Ellipse 247" cx="1.25" cy="1.25" r="1.25" transform="translate(431 891)" fill="#fff"/>
      <circle id="Ellipse_230" data-name="Ellipse 230" cx="2.231" cy="2.231" r="2.231" transform="translate(409 892)" fill="#bf353e"/>
      <circle id="Ellipse_246" data-name="Ellipse 246" cx="1.25" cy="1.25" r="1.25" transform="translate(410 893)" fill="#fff"/>
      <circle id="Ellipse_231" data-name="Ellipse 231" cx="2.231" cy="2.231" r="2.231" transform="translate(392 916)" fill="#bf353e"/>
      <circle id="Ellipse_244" data-name="Ellipse 244" cx="1.25" cy="1.25" r="1.25" transform="translate(393 917)" fill="#fff"/>
      <circle id="Ellipse_232" data-name="Ellipse 232" cx="2.231" cy="2.231" r="2.231" transform="translate(373.474 927.173)" fill="#bf353e"/>
      <circle id="Ellipse_240" data-name="Ellipse 240" cx="1.231" cy="1.231" r="1.231" transform="translate(374.474 928.173)" fill="#fff"/>
      <circle id="Ellipse_233" data-name="Ellipse 233" cx="2.231" cy="2.231" r="2.231" transform="translate(380.474 910.031)" fill="#bf353e"/>
      <circle id="Ellipse_243" data-name="Ellipse 243" cx="1" cy="1" r="1" transform="translate(381.705 911.254)" fill="#fff"/>
      <circle id="Ellipse_234" data-name="Ellipse 234" cx="2.231" cy="2.231" r="2.231" transform="translate(359.77 934.481)" fill="#bf353e"/>
      <circle id="Ellipse_235" data-name="Ellipse 235" cx="2.231" cy="2.231" r="2.231" transform="translate(378.242 939.942)" fill="#bf353e"/>
      <circle id="Ellipse_236" data-name="Ellipse 236" cx="2.231" cy="2.231" r="2.231" transform="translate(401 911)" fill="#bf353e"/>
      <circle id="Ellipse_245" data-name="Ellipse 245" cx="1.25" cy="1.25" r="1.25" transform="translate(402 912)" fill="#fff"/>
      <circle id="Ellipse_237" data-name="Ellipse 237" cx="2.231" cy="2.231" r="2.231" transform="translate(437 940)" fill="#bf353e"/>
      <circle id="Ellipse_251" data-name="Ellipse 251" cx="1.25" cy="1.25" r="1.25" transform="translate(438 941)" fill="#fff"/>
      <circle id="Ellipse_238" data-name="Ellipse 238" cx="2.231" cy="2.231" r="2.231" transform="translate(437 924)" fill="#bf353e"/>
      <circle id="Ellipse_250" data-name="Ellipse 250" cx="1.25" cy="1.25" r="1.25" transform="translate(438 925)" fill="#fff"/>
      <circle id="Ellipse_227" data-name="Ellipse 227" cx="2.231" cy="2.231" r="2.231" transform="translate(447 912)" fill="#bf353e"/>
      <circle id="Ellipse_249" data-name="Ellipse 249" cx="1.25" cy="1.25" r="1.25" transform="translate(448 913)" fill="#fff"/>
      <circle id="Ellipse_228" data-name="Ellipse 228" cx="2.231" cy="2.231" r="2.231" transform="translate(455 939)" fill="#bf353e"/>
      <circle id="Ellipse_252" data-name="Ellipse 252" cx="1.25" cy="1.25" r="1.25" transform="translate(456 940)" fill="#fff"/>
      <circle id="Ellipse_219" data-name="Ellipse 219" cx="2.231" cy="2.231" r="2.231" transform="translate(594 953)" fill="#bf353e"/>
      <circle id="Ellipse_258" data-name="Ellipse 258" cx="1.25" cy="1.25" r="1.25" transform="translate(594.98 953.981)" fill="#fff"/>
      <circle id="Ellipse_241" data-name="Ellipse 241" cx="1.231" cy="1.231" r="1.231" transform="translate(360.77 935.481)" fill="#fff"/>
      <circle id="Ellipse_242" data-name="Ellipse 242" cx="1.231" cy="1.231" r="1.231" transform="translate(379.242 940.942)" fill="#fff"/>
    </g>
    <g id="Group_1195" data-name="Group 1195" transform="translate(359.77 961)">
      <path id="Path_2890-2" data-name="Path 2890" d="M234.352,14.514H5.375a4.953,4.953,0,0,0-4.361,3.63V32.808c.122.669,1.643,7.646,8.62,7.646a9.771,9.771,0,0,0,3.772-.71h0a9,9,0,0,0,5.03-6.531V26.561a.507.507,0,0,1,1.014,0v6.774c0,.061-.852,5.07-5.334,7.2v8.7c.122.649,1.521,7.443,8.9,7.443,7.4,0,8.538-7.038,8.62-7.646V33.376c.02-.081,1.582-8.336,9.634-8.336,7.849,0,9.634,7.281,9.634,8.62v14.3c-.02.081-1.6,8.113-10.039,8.113a.507.507,0,0,1,0-1.014c7.362,0,8.883-6.591,9.025-7.24V33.66c0-.081-.913-7.606-8.62-7.606-6.977,0-8.5,6.794-8.62,7.443V60.026a16.8,16.8,0,0,0,7.281,11.763,14.665,14.665,0,0,0,8.741,2.576V65.3a.507.507,0,1,1,1.014,0V74.77c.284.832,2.921,8.092,10.648,8.092,5.6,0,8.417-4.726,8.964-5.78a10.342,10.342,0,0,1-2.312-2.454A11.737,11.737,0,0,1,65.1,69.842V36.114c0-.1.041-2.454,3.144-6.591a9.656,9.656,0,0,1,7.768-3.691c.466,0,.771.041.811.041a.519.519,0,0,1,.446.568.5.5,0,0,1-.568.446c-.041,0-4.827-.507-7.646,3.245-2.88,3.813-2.941,5.963-2.941,5.983V69.74c.081.629,1.278,8.64,10.851,8.64a8.787,8.787,0,0,0,7.606-4.259A12.516,12.516,0,0,0,86.6,69.152V54.245c-9.228-.345-9.329-9.938-9.329-10.039a.5.5,0,0,1,.507-.507h0a.5.5,0,0,1,.507.507c0,.365.122,9.025,8.822,9.025,6.977,0,8.5-6.977,8.62-7.646V26.358a.507.507,0,1,1,1.014,0V45.707c-.02.081-1.521,8.173-9.127,8.518V69.173a11.371,11.371,0,0,1-.892,3.1,18.02,18.02,0,0,0,9.309-1.521c5.415-2.6,12.737-7.524,13.913-20.261V26.379a.507.507,0,0,1,1.014,0V50.311c.223.73,2.251,6.794,8.62,6.794,6.389,0,8.234-6.733,8.417-7.464V42.3a7.926,7.926,0,0,1-4.543-2.819,8.463,8.463,0,0,1-1.947-4.989.507.507,0,0,1,1.014,0,7.386,7.386,0,0,0,7.4,7c5.01,0,6.267-5.253,6.389-5.841V26.784a.5.5,0,0,1,.507-.507h87.616a.507.507,0,0,1,0,1.014H137.306V35.81c-.02.061-1.359,6.693-7.4,6.693-.324,0-.629-.02-.913-.041V49.7a.257.257,0,0,1-.02.122c-.02.081-2.008,8.3-9.411,8.3a9.854,9.854,0,0,1-8.843-5.74c-1.7,11.926-8.9,16.692-14.278,19.267a18.84,18.84,0,0,1-10.2,1.582c-1.46,2.88-4.3,6.166-9.289,6.166a12.64,12.64,0,0,1-6.835-1.764c-.75,1.379-3.833,6.226-9.8,6.226-7.727,0-10.83-6.774-11.5-8.5A15.4,15.4,0,0,1,39.346,72.6a17.5,17.5,0,0,1-7.727-12.554V52.319A9.036,9.036,0,0,1,23,57.714c-8.437,0-9.9-8.255-9.9-8.336V40.961a11.131,11.131,0,0,1-3.468.527C1.6,41.488.02,33.051,0,32.95V18.063A.4.4,0,0,1,.02,17.9c1.521-4.34,5.192-4.4,5.354-4.4H234.352a.507.507,0,1,1,0,1.014Z" transform="translate(2.23 -11.394)" fill="#bf353e"/>
      <circle id="Ellipse_218-2" data-name="Ellipse 218" cx="2.231" cy="2.231" r="2.231" transform="translate(223.23 13)" fill="#bf353e"/>
      <circle id="Ellipse_257-2" data-name="Ellipse 257" cx="1.25" cy="1.25" r="1.25" transform="translate(224.23 13.962)" fill="#fff"/>
      <circle id="Ellipse_223-2" data-name="Ellipse 223" cx="2.231" cy="2.231" r="2.231" transform="translate(128.23 28)" fill="#bf353e"/>
      <circle id="Ellipse_256-2" data-name="Ellipse 256" cx="1.25" cy="1.25" r="1.25" transform="translate(129.23 28.962)" fill="#fff"/>
      <circle id="Ellipse_239-2" data-name="Ellipse 239" cx="2.231" cy="2.231" r="2.231" transform="translate(122.23 20)" fill="#bf353e"/>
      <circle id="Ellipse_255-2" data-name="Ellipse 255" cx="1.25" cy="1.25" r="1.25" transform="translate(123.23 20.962)" fill="#fff"/>
      <circle id="Ellipse_224-2" data-name="Ellipse 224" cx="2.231" cy="2.231" r="2.231" transform="translate(110.23 14)" fill="#bf353e"/>
      <circle id="Ellipse_254-2" data-name="Ellipse 254" cx="1.25" cy="1.25" r="1.25" transform="translate(111.23 14.962)" fill="#fff"/>
      <circle id="Ellipse_225-2" data-name="Ellipse 225" cx="2.231" cy="2.231" r="2.231" transform="translate(110.23 37)" fill="#bf353e"/>
      <circle id="Ellipse_253-2" data-name="Ellipse 253" cx="1.25" cy="1.25" r="1.25" transform="translate(111.23 37.962)" fill="#fff"/>
      <circle id="Ellipse_226-2" data-name="Ellipse 226" cx="2.231" cy="2.231" r="2.231" transform="translate(85.23 59)" fill="#bf353e"/>
      <circle id="Ellipse_248-2" data-name="Ellipse 248" cx="1.25" cy="1.25" r="1.25" transform="translate(86.23 59.962)" fill="#fff"/>
      <circle id="Ellipse_229-2" data-name="Ellipse 229" cx="2.231" cy="2.231" r="2.231" transform="translate(70.23 63)" fill="#bf353e"/>
      <circle id="Ellipse_247-2" data-name="Ellipse 247" cx="1.25" cy="1.25" r="1.25" transform="translate(71.23 63.962)" fill="#fff"/>
      <circle id="Ellipse_230-2" data-name="Ellipse 230" cx="2.231" cy="2.231" r="2.231" transform="translate(49.23 61)" fill="#bf353e"/>
      <circle id="Ellipse_246-2" data-name="Ellipse 246" cx="1.25" cy="1.25" r="1.25" transform="translate(50.23 61.962)" fill="#fff"/>
      <circle id="Ellipse_231-2" data-name="Ellipse 231" cx="2.231" cy="2.231" r="2.231" transform="translate(32.23 37)" fill="#bf353e"/>
      <circle id="Ellipse_244-2" data-name="Ellipse 244" cx="1.25" cy="1.25" r="1.25" transform="translate(33.23 37.962)" fill="#fff"/>
      <circle id="Ellipse_232-2" data-name="Ellipse 232" cx="2.231" cy="2.231" r="2.231" transform="translate(13.704 25.827)" fill="#bf353e"/>
      <circle id="Ellipse_240-2" data-name="Ellipse 240" cx="1.231" cy="1.231" r="1.231" transform="translate(14.704 26.827)" fill="#fff"/>
      <circle id="Ellipse_233-2" data-name="Ellipse 233" cx="2.231" cy="2.231" r="2.231" transform="translate(20.704 42.969)" fill="#bf353e"/>
      <circle id="Ellipse_243-2" data-name="Ellipse 243" cx="1" cy="1" r="1" transform="translate(21.936 44.208)" fill="#fff"/>
      <circle id="Ellipse_234-2" data-name="Ellipse 234" cx="2.231" cy="2.231" r="2.231" transform="translate(0 18.519)" fill="#bf353e"/>
      <circle id="Ellipse_235-2" data-name="Ellipse 235" cx="2.231" cy="2.231" r="2.231" transform="translate(18.473 13.058)" fill="#bf353e"/>
      <circle id="Ellipse_236-2" data-name="Ellipse 236" cx="2.231" cy="2.231" r="2.231" transform="translate(41.23 42)" fill="#bf353e"/>
      <circle id="Ellipse_245-2" data-name="Ellipse 245" cx="1.25" cy="1.25" r="1.25" transform="translate(42.23 42.962)" fill="#fff"/>
      <circle id="Ellipse_237-2" data-name="Ellipse 237" cx="2.231" cy="2.231" r="2.231" transform="translate(77.23 13)" fill="#bf353e"/>
      <circle id="Ellipse_251-2" data-name="Ellipse 251" cx="1.25" cy="1.25" r="1.25" transform="translate(78.23 13.962)" fill="#fff"/>
      <circle id="Ellipse_238-2" data-name="Ellipse 238" cx="2.231" cy="2.231" r="2.231" transform="translate(77.23 29)" fill="#bf353e"/>
      <circle id="Ellipse_250-2" data-name="Ellipse 250" cx="1.25" cy="1.25" r="1.25" transform="translate(78.23 29.962)" fill="#fff"/>
      <circle id="Ellipse_227-2" data-name="Ellipse 227" cx="2.231" cy="2.231" r="2.231" transform="translate(87.23 41)" fill="#bf353e"/>
      <circle id="Ellipse_249-2" data-name="Ellipse 249" cx="1.25" cy="1.25" r="1.25" transform="translate(88.23 41.962)" fill="#fff"/>
      <circle id="Ellipse_228-2" data-name="Ellipse 228" cx="2.231" cy="2.231" r="2.231" transform="translate(95.23 14)" fill="#bf353e"/>
      <circle id="Ellipse_252-2" data-name="Ellipse 252" cx="1.25" cy="1.25" r="1.25" transform="translate(96.23 14.962)" fill="#fff"/>
      <circle id="Ellipse_219-2" data-name="Ellipse 219" cx="2.231" cy="2.231" r="2.231" transform="translate(234.23 0)" fill="#bf353e"/>
      <circle id="Ellipse_258-2" data-name="Ellipse 258" cx="1.25" cy="1.25" r="1.25" transform="translate(235.211 0.981)" fill="#fff"/>
      <circle id="Ellipse_241-2" data-name="Ellipse 241" cx="1.231" cy="1.231" r="1.231" transform="translate(1 19.519)" fill="#fff"/>
      <circle id="Ellipse_242-2" data-name="Ellipse 242" cx="1.231" cy="1.231" r="1.231" transform="translate(19.473 14.058)" fill="#fff"/>
    </g>
  </g>
</svg>
