<?xml version="1.0" encoding="utf-8"?>
<!-- Generator: Adobe Illustrator 24.0.1, SVG Export Plug-In . SVG Version: 6.00 Build 0)  -->
<svg version="1.1" id="Layer_1" xmlns="http://www.w3.org/2000/svg" xmlns:xlink="http://www.w3.org/1999/xlink" x="0px" y="0px"
	 viewBox="0 0 500 500" style="enable-background:new 0 0 500 500;" xml:space="preserve">
<style type="text/css">
	.st0{fill-rule:evenodd;clip-rule:evenodd;fill:#BF353E;}
	.st1{fill-rule:evenodd;clip-rule:evenodd;fill:#023E57;}
	.st2{fill-rule:evenodd;clip-rule:evenodd;fill:#342845;}
</style>
<g>
	<path class="st0" d="M358,306c0.7,2.8,0.6,184.8,0,186.9c-4.2,2.2-3-4.5-3-7.7V314C355.1,310.7,353.9,304,358,306z M354,503.6
		H248.8h-0.6v-81.4l-151.7,0.1v-46.4c10.4,0.3,25.3-3.3,33.9-6.8c19.5-8.2,32.7-22,40.1-41.8c5.3-14.1,4.5-21.5,5.6-35.1h100.4
		c1,0.3,73.4,0.4,80.1,0.1l4.2-17.1l3.7-15.8c0-0.9,0-0.7,0.4-1.5l9.5-40.6c5.2-1.2,6.1-4.5,7.9-5.9c7.4,4.5,9.4,0.6,12.3,0.1
		c1.2-0.1,1,0.1,2.1,0.7c6.8,3.7,16.3-3.4,23.9-5.2c0,1.5-1.2,5.6-1.6,7.4c-0.4,2.2-1,4.6-1.6,7l-9.1,38.2c0,1.3,0,3,0,4.3v206.5
		l-51.7,32.8C356.7,503.6,355.7,503.6,354,503.6z M136.2,379.5l18.1-14.6l4.5,24.4L136.2,379.5z M309,372.1
		c-0.3-2.1,0.7-3.7,1.8-4.5c1.5-1.2,3.7-0.9,5.8-0.9c4.3,0,8.6-0.4,9.2,3.9c0.7,5.8-5.3,5.3-7.7,5.3
		C313.9,375.9,309.8,376.2,309,372.1z M287.2,372.1c-0.3-2.1,0.7-3.7,1.9-4.5c1.8-1.3,10.5-1,11.9-0.6c3,1.2,4.3,5.5,1,8
		c-1.9,1.5-10.8,1-12,0.6C288.7,375.2,287.5,373.7,287.2,372.1z M248.2,372.1c-1-7.1,8.6-5.3,14.9-5.3c3.4,0,6.8,0,10.1,0
		c3.4,0,5.9,0.7,6.4,4c0.9,7.1-9.5,5.2-15,5.2c-3.3,0-6.7,0-10.1,0C251.2,375.9,248.7,375.2,248.2,372.1z M198.3,339.1l127.5-0.1
		v1.2v11.7H198.3V339.1z M403.5,262.4c0.7,2.5,0,2.1-3.7,4.6c-1.8,1.2-3.6,2.2-5.3,3.4l-27.3,17.2c-1.3,0.9-4.6,3.7-5.9,1.9
		c-1.3-1.9,2.5-3.6,3.7-4.3l35.7-22.6C401.9,261.8,402.2,261.7,403.5,262.4z"/>
	<path class="st1" d="M254.2,290.1c-0.9-1.8-1.3-6.5-1.8-9.1c-0.4-3.1-2.2-7.7,2.2-6.1c0.7,2.4,1,6.1,1.6,8.9
		C256.7,286.9,258.3,291.1,254.2,290.1z M295.9,18.4h4.6c3,0.1,5.6,1,7.6,1.9c8.5,4.6,10.7,12,11.6,21.4c8.2,0,15.2,10,10.5,20.7
		c-0.6,1.3-1.3,1.9-1.9,3c3.6,0,15.9,0.6,19.5,1c7.6,1.2,17.4,1.9,25.3,3c22.6,3.1,41.5,8.6,60.8,20.1c10.1,5.9,24.1,17.2,28.7,28.4
		c0.7,1.8,1.6,3.9,2.1,5.6c0.7,2.4,1.2,4.2,1.8,6.7c0.4,2.2,1.3,9.4,1.5,13.1v1.5c-0.4,7.6-1.2,14.1-3.3,21.1l-4.2,11.7
		c-1.5-0.3-3-1.5-4.6-1.8c-2.2,4.6-2.2,5.8-5.8,11.1c-4.3,6.5-9.8,12.5-16.9,16.2c-6.2,3-7.7,2.7-12.3,4.2
		c-7.6,1.8-17.1,8.9-23.9,5.2c-1-0.6-0.9-0.9-2.1-0.7c-3,0.4-4.9,4.3-12.3-0.1c-1.8,1.5-2.7,4.8-7.9,5.9c-8.3,0.9-7.3-6.7-7.7-7.3
		c-1-0.9-2.2-1.8-3.4-2.7C349,196.9,338,188,322.1,178c-5.3-3.4-10.5-6.5-16-9.8c-18.7-10.8-52-26.9-79-22.7
		c-10,1.5-19.6,6.1-26.3,12.3c-2.2,2.2-4.3,4-6.4,6.5c-8.6,11.1-12.6,20.8-16.5,35.1c-6.5,23.8-11.4,64.6-13.7,89.7h52.5
		c2.1-9.1,7.1-25.4,10-35.4l7.1-27c1-4.3,1-5.8,1.3-10.4c1.6,0,45.8,15,53.3,17.7c3,1,6.1,2.1,9.1,3c2.8,1,5.9,2.2,8.9,3.1l3.1,18
		l0.4,1.5h54.7l-3.7,15.8c-30.6-2.7-63.4,1.9-84.2,16.9H176.2c-1.2,13.5-0.3,21-5.6,35.1c-7.4,19.8-20.7,33.6-40.1,41.8
		c-8.6,3.6-23.5,7.1-33.9,6.8v-83.4l0.4-0.3c1.8-0.9-1.3,0.9,0.4-0.1c14.9-8.9,30.3-19.2,45.3-28.1c1.3-0.7,5.9-3.3,6.2-4.5h14.9
		c0-1.6,0.4-4,0.7-5.8c0.1-1.6,0.4-3.4,0.7-5.3c0.4-3.7,0.9-7,1.5-10.8c2.4-15.2,7.6-45.5,14.9-59.4l-14.3-0.4
		c-1.2-0.1-3.1-0.4-4.2-0.4c0-2.8-0.9-5.9-0.9-8.6c-4.9,0-5.1-0.7-10.5-0.3c-0.6,3-1.9,5.1-3.3,7.4c-0.6,1.2-1.5,2.4-2.2,3.3
		c-3.6,4-4.3,4.3-9.2,6.8c-2.4,1.2-4.9,2.2-7.4,3.3c-12.2,4.9-12.3-3.6-11-6.1c1.8-3.4,7.3-5.5,8.6-7.7c0.6-0.9,1.2-2.4,1.2-3.9
		c-1.2-0.1-1.8-0.6-3.3-0.3c-2.4,0.6-4.9,2.8-6.4,4.8l-4.9,5.9c-0.7,0.7-1.2,1-1.6,1.9c-2.5,1.6-5.2,4.9-10.4,3.4
		c-3.7-1-4.9-4.2-5.3-8.8c-4.6-1.9-6.5-3.3-7.4-7.9c-0.4-1.9,0-0.7-1.2-1.8c-1-0.9-2.1-2.5-2.2-4.5c-0.6-7,6.8-12.8,9.2-16l4.3-3.7
		c11-9.5,25.3-12.6,39.7-14.7c4.5-0.6,9.7-0.9,14.3-1.5l14.4-0.9c4.8-0.1,10.1-0.7,14.6-1.2c7.9-0.9,19.2-1.9,26.2-4.8
		c6.5-2.5,13.8-7.9,18.7-12.8c0.7-0.9,1.2-1,2.1-1.8l13.7-13.4c1.3-1.3,2.5-2.4,4-3.7l2.2-1.8c0.7-0.6,1.2-1,2.1-1.6
		c4-3.1,14.4-10,19.8-11.3c-3.4-6.4-5.9-12.2-7.1-19.5c-0.7-4.3-0.3-5.3-0.3-8.2c-5.2,0-9.1-1-10.1-6.5c-0.9-5.8,2.4-8.9,5.6-10.8
		c4.2-2.7,9.1-2.7,13.5-2.1c3.3,0.4,2.5-1.9,3.9-4.2c1.9-2.8,5.3-4.2,8.6-3.1c3,1,1.3-0.4,8.9-2.1C294.6,18.6,295.3,18.4,295.9,18.4
		z M238.1,283.4c-2.1-3.3-5.9-7.1-4-8.6c1.6-1.3,3,1.3,3.7,2.4c1,1.5,1.9,2.8,3,4.3c2.2,3.1,5.3,6.2,4.3,8.6c-2.7,0.6-2.8-0.9-4-2.5
		C240.1,286,239.2,284.9,238.1,283.4z M287.9,259.6c-1.2,8.2-8.6,15.2-18,15.2c-14.9-0.1-17.7-14.4-18.1-15l-23.5-0.1
		c1.9-7.7,5.6-19.9,7.7-28.5c0.4-1.9,2.1-8.6,2.2-10.1c1.6,0.1,44.9,14.9,48.9,16.2l16.2,5.5l2.2,12.6c0.1,1.3,0.6,3,0.6,4.3H287.9z
		 M395.6,207.6c-1.2,0.3-2.7,1.5-4.3,2.1c-3.3,1-6.8,1.3-7.9-2.8c-0.7-3,7.6-11.3,10.3-13.5c0.7-0.6,3.4-1.9,2.2-3.1
		c-1.3-1.3-6.4,3.9-7.1,4.5c-1.9,1.9-3.9,4.2-5.5,6.7c-2.8,4.8-1.6,5.1-3.9,8.3c-1.2,2.1-3.7,5.5-7.4,4.5c-3.4-1-0.9-7.1,0-9.1
		c1.2-2.8,3.1-5.3,4.6-7.4c7.9-9.8,13.1-10.8,20.7-15.9c4.5-3.1,9.1-7.7,12-12.3l4.5-7.6c2.8,0.6,6.7,2.2,9.7,3.1
		c3.4,1,6.7,2.1,10,3.1c3.1,0.9,17.7,5.1,19.3,6.4c-3.1,9.5-12.3,21.7-21.7,25.9c-5.6,2.7-12.5,3.6-18,6.1c-2.5,1.2-5.6,2.7-8.6,3.4
		c-1.6,0.4-3.6,0.7-5.3,0.1C397.4,209.4,396.8,208.5,395.6,207.6z M92.4,167.5c-9.1-2.7,2.5-14.4,4.5-16
		c11.7-10.5,20.1-14.7,37.3-17.4c5.3-0.9,19.5-2.8,24.4-2.4l3.6,33.6c-14.9-1-11.7-0.9-14.4,5.1c-4,8.9-8.2,11.1-16.8,14.9
		c-2.1,0.9-7.7,3.9-9.2,1.2c-1.6-3.9,7.3-4.8,9.7-11.6c0.6-1.6,1-4.2,0.7-6.1c-3.9-1.5-8.9-0.9-11.6,1.2
		c-5.8,4.2-9.8,12.8-14.7,14.3c-5.3,1.5-6.1-3.7-5.8-8.2C94.5,174.6,92.2,173.7,92.4,167.5z M273.9,134.5l3.9,16
		c-1.8-0.1-10.1-4-12.8-4.3c0.9-1.5,4.8-5.6,7.7-10.1l0.6-0.9c0,0,0-0.1,0.1-0.1C273.9,134.5,273.6,134.8,273.9,134.5z M375.3,119.5
		c2.4,0,11.1,1.6,13.8,2.2c2.1,0.4,4,0.9,6.4,1.6c4.9,1.3,11.4,5.8,14.1,9.8c10.3,15.5-1.2,39.1-17.7,47.8c0-13.1-2.1-23.8-5.1-34
		c-1.5-4.9-3.3-10-5.2-14.3L375.3,119.5z M267.4,99.4c3-2.2,2.8,3.6,3,5.1c0.3,2.7,0.4,5.2,0.7,7.9c0.3,2.5,0.6,5.1,1,7.6
		c0.4,2.4,1.3,4.8,0.6,6.7c-3.3,0.9-3-1.6-3.6-4.6C268.6,118.4,265.8,100.8,267.4,99.4z M266.8,47.6c6.8-0.6,18-3.9,24.1-2.2
		c3.6,0.9,6.8,2.1,10.1,3.4c1.5,0.7,3,1.5,4.8,2.1c3.6,1.2,3.7-0.4,4.5-1.3c0.9-1.3,12.3-9.4,17.1,1.2c1.6,3.6,1.3,7.9-0.6,11
		c-1.9,3.4-3.7,4-8,5.5c-1.6,0.6-0.9,1.2-2.8,4.3c-2.7,4.3-5.3,7.1-10.1,10.1C281.5,96.7,265.6,66.9,266.8,47.6z"/>
	<path class="st0" d="M67.4,232.3l0.3,0.3l2.1,0.4c0.3-2.5,0.9-5.2,1.3-7.7c0.6-2.7,0.3-5.8,3.7-4.5c0.7,3-1.8,9.1-1.6,12.6
		c5.9,2.4,13.5,0.3,12,5.1c-2.5,1-9.5-1.5-12.9-1.6l-0.6,4.3l0.7,1.3c0.4,0.7,0.6,0.9,0.9,1.6c0.6,1.2,0.9,2.1,1.5,3.4
		c1.2,2.2,2.1,4.2,3.1,6.4c0.6,1,0.9,1.9,1.5,3.1l17.1,35.5l0.4-0.3c1.8-0.9-1.3,0.9,0.4-0.1c14.9-8.9,30.3-19.2,45.3-28.1
		c1.3-0.7,5.9-3.3,6.2-4.5l-3.9-8l-23.8,10.7l3.9-44.6c1.9,0.9,3.6,3.1,5.5,4.3l-4.6-9.5c-0.7-1.6-1.3-3.3-2.2-4.8l-7-14.3
		c-1.5-3.1-3-6.8-4.6-9.7c-2.5,1.6-5.2,4.9-10.4,3.4c-3.7-1-4.9-4.2-5.3-8.8c-4.6-1.9-6.5-3.3-7.4-7.9c-0.4-1.9,0-0.7-1.2-1.8
		c-1-0.9-2.1-2.5-2.2-4.5c-0.6-7,6.8-12.8,9.2-16l-11-23c-1.8,0.4-23.6,14.4-26.3,16c-2.2,1.5-4.3,2.7-6.4,4
		c-2.4,1.5-4.5,2.7-6.7,4.2l-13.1,8.2l6.7,13.8c0.7,1.8,1.3,3.3,2.2,4.9l6.7,13.8c0.9,1.6,1.5,3,2.2,4.8l9.2,18.6
		c0.7,1.5,1.3,3.1,2.1,4.6c0.9,1.6,1.5,3,2.4,4.8c0.9,1.6,1.3,3,2.2,4.6C65.8,228.7,67.1,231.1,67.4,232.3z"/>
	<path class="st1" d="M146,500.2c1.9-1.6,4.3-3.3,6.5-4.8c2.2-1.6,4.3-3.3,6.5-4.9l13.1-9.7c1.3,0.4,5.3,3.7,6.8,4.9l19,13.8
		L146,500.2z M100.1,428.2c11.6,8.2,23,16.8,34.8,25.1c5.8,4.3,11.4,8.6,17.4,12.8l12.9,9.5c1.2,0.9,3.3,2.1,4,3.1l-6.7,5.1
		c-2.4,1.8-4.6,3.4-6.8,5.1c-2.5,1.8-4.6,3.4-7,5.2c-4.3,3.1-6.2,3.7-5.2,6.2l-43.5-0.1L100.1,428.2z M175.3,478.8
		c1.2-1.3,15.9-12,17.7-13.2c16.3-11.9,32.7-24.5,48.9-36.1c5.9-4.2-1.3-3.9,3.1-3.9v74.7h-43.7c0.9-2.2-0.4-2.8-1.8-3.7
		c-1.2-0.9-2.2-1.6-3.6-2.7L175.3,478.8z M172.2,476.5c-1.3-0.7-3.3-2.2-4.5-3.1l-39.2-28.7c-4.5-3.1-23.2-16.6-26.2-19.2h139.1
		c-1.3,1.3-55.1,40.7-60.6,44.9C179.4,471.5,173.2,476.2,172.2,476.5z M97.1,503.3h12.9h137.9l0.1-80.7h-151V503.3z"/>
	<path class="st0" d="M251.8,259.7c0.4,0.6,3.3,14.9,18.1,15c9.4,0,16.8-7,18-15.2c1.8-5.5-1.5-12.6-4.2-15.2
		c-3.7-3.7-7.4-6.4-13.8-6.4c-8,0-15.5,5.6-17.4,12.8c-0.6,2.1-1,4-0.9,6.1C251.8,258,251.8,258.7,251.8,259.7z"/>
	<polygon class="st1" points="419.6,414.1 428.2,414.1 428.2,323.2 419.6,323.2 	"/>
	<path class="st1" d="M125.2,256.9l2.7-32.7c1.2,0.6,10.4,8.8,12,10.1l12.2,10.4L125.2,256.9z M145.1,251.6l9.7-4.3
		c1.5-0.7,1.9-1,3.6-1.5c-1.2-1.8-17.5-15-20.7-17.7c-2.4-2.2-4.6-3.9-7-6.1c-1.9-1.2-3.6-3.4-5.5-4.3l-3.9,44.6L145.1,251.6z"/>
	<path class="st1" d="M38.7,355.4c0,1.3,14.4,14.1,16.3,16.9c-1.5,2.2-16.3,15.9-16.3,16.6c0,1.2,0.7,2.1,1.9,2.1
		c1,0,3.6-3.1,4.3-3.9c2.5-2.5,11-11.3,12.6-12.3c2.2,1.5,15.9,16.2,16.5,16.2c1.5,0,1.6-0.6,2.2-1.5c0.1-1.2-10.5-11.3-12-12.8
		c-1.3-1.3-3.4-3.1-4.3-4.5l12.9-13.1c1.2-1,4.5-3.4,2.8-5.1c-1.6-1.6-3.9,1.5-4.9,2.5c-1.6,1.6-2.8,3-4.5,4.5l-8.8,8.8l-14-13.8
		c-0.6-0.6-1.8-1.9-2.4-2.2C40.1,353.4,38.7,354.1,38.7,355.4z"/>
	<path class="st1" d="M248.2,372.1c0.4,3.1,3,3.9,6.2,3.9c3.4,0,6.8,0,10.1,0c5.5,0,15.9,1.9,15-5.2c-0.4-3.3-3-4-6.4-4
		c-3.3,0-6.7,0-10.1,0C256.9,366.7,247.2,364.9,248.2,372.1z"/>
	<polygon class="st1" points="158.8,389.3 154.3,364.9 136.2,379.5 	"/>
	<path class="st1" d="M67.7,232.6l-0.3-0.3c-1.6,0-3.3-0.4-4.8-0.7c-1.6-0.3-3.7-0.7-5.1-0.7c-1.2,1.2-0.9,0.6-1,2.7
		c1.6,1,3.3,1,5.8,1.6c2.1,0.4,4.5,0.7,6.5,1.2c0,3.1-1.8,8.5-1.8,12.3c0.6,0.3,2.7,2.7,3.4-1.5l1.2-5.9l0.6-4.3
		c3.4,0.1,10.4,2.7,12.9,1.6c1.5-4.8-6.1-2.7-12-5.1c-0.1-3.6,2.4-9.7,1.6-12.6c-3.4-1.3-3.1,1.8-3.7,4.5c-0.4,2.5-1,5.2-1.3,7.7
		L67.7,232.6z"/>
	<path class="st2" d="M97.1,422.6h151l-0.1,80.7H110.1H97.1V422.6z M248.2,503.6v-81.4l-151.7,0.1v81.3h3.7H248.2z"/>
	<path class="st1" d="M287.2,372.1c0.3,1.6,1.5,3.1,2.8,3.6c1.2,0.4,10.1,0.9,12-0.6c3.3-2.5,1.9-6.8-1-8
		c-1.3-0.4-10.1-0.7-11.9,0.6C287.9,368.4,286.9,370,287.2,372.1z"/>
	<path class="st1" d="M309,372.1c0.7,4.2,4.9,3.9,9.1,3.9c2.4,0,8.5,0.4,7.7-5.3c-0.6-4.3-4.9-3.9-9.2-3.9c-2.1,0-4.3-0.3-5.8,0.9
		C309.8,368.4,308.7,370,309,372.1z"/>
	<path class="st1" d="M38.7,418.4c0,1.2,1.3,1.9,2.5,1.9h32.5c3,0,3.9-3.7-0.3-3.7H41C39.8,416.6,38.7,417.4,38.7,418.4z"/>
	<path class="st1" d="M304.1,238.2c0.7-2.1-2.8-14.1-3.6-16.9c-0.4-1.9-2.7-4.9-3.9-6.5c-1.3-2.1-2.7-4.3-4-6.2l-2.4,0.3
		c-0.6,1.9,0.3,2.5,1,3.9c1.6,2.2,5.6,7.7,6.1,9.5c1.2,4.2,3,13.4,4.5,16.3L304.1,238.2z"/>
	<path class="st1" d="M102.8,174.5c0.9-0.9,1.8-3.4,2.7-4.9c0.9-1.9,1.8-3.3,3-4.8c3.4-4.6,5.2-4.5,9.1-6.2l-0.1-1.5
		c-5.2-2.7-16.5,12.5-16,16.8C101.7,174.2,101.9,174.3,102.8,174.5z"/>
	<path class="st1" d="M106.2,152.2c0.9-0.6,1-2.4-0.3-2.4c-0.9-0.1-6.2,4-6.8,4.8c-1.5,1.5-2.2,2.1-3.6,4c-0.9,1.3-4.5,8-1.6,8.3
		c1.5,0,1.2-1.2,1.3-2.5c0.4-2.4,1.3-3.7,2.5-5.2c1-1.5,2.5-2.8,3.9-3.9C105.2,152.5,104.6,153.2,106.2,152.2z"/>
	<path class="st1" d="M396.5,207.3c1.9,0.4,1.6-0.4,3.3-3.1c4.5-7.1,10.4-8.9,7.9-10.4c-1.8-1-8,6.7-9.7,9.2
		C397.1,204.3,395.8,205.7,396.5,207.3z"/>
	<path class="st1" d="M282.7,74.5c0.3-1.3-2.8-7.1-3.9-12.2c-0.1-0.6-0.1-1.6-0.6-2.2c-0.6-0.7-1.3-0.7-1.8,0
		c-1,1.5,2.5,10.3,3.6,12.5C280.8,74,280.8,75.3,282.7,74.5z"/>
	<path class="st1" d="M312.3,59.9c3.4,0.6,0.7-1.5,4-5.5c2.5-3,3.9-1.8,6.4-3.4c0.9-4.3-6.4,0.3-6.8,0.7
		C314.4,52.9,311.7,56.6,312.3,59.9z"/>
	<path class="st1" d="M290.4,59c0.4-4.2-3.6-3.7-4.2-1.8c-0.3,1.3,0.3,2.4,1.3,2.8C289,60.5,289.7,59.7,290.4,59z"/>
</g>
</svg>
