<?xml version="1.0" encoding="utf-8"?>
<!-- Generator: Adobe Illustrator 24.0.1, SVG Export Plug-In . SVG Version: 6.00 Build 0)  -->
<svg version="1.1" id="Layer_1" xmlns="http://www.w3.org/2000/svg" xmlns:xlink="http://www.w3.org/1999/xlink" x="0px" y="0px"
	 viewBox="0 0 500 500" style="enable-background:new 0 0 500 500;" xml:space="preserve">
<style type="text/css">
	.st0{fill-rule:evenodd;clip-rule:evenodd;fill:#023E57;}
	.st1{fill-rule:evenodd;clip-rule:evenodd;fill:#BF353E;}
	.st2{fill:none;}
	.st3{fill:#023E57;}
	.st4{fill:#BF353E;}
</style>
<path class="st0" d="M388.5,119.4c-2.9,0-2.9-2.5,0-2.5c5.7,0,28.2-0.3,32.1,0.3c0.5,1.1,0.5,1-0.1,2.1
	C416.7,119.6,394.2,119.4,388.5,119.4z M420.7,107.8c-1,0.5-0.9,0.5-2,0.5c-6.2,0-27.5,0.5-32.1-0.4V106c3.8-0.5,26.6-0.3,32.3-0.3
	c0.8,0,1.3,0.1,1.9,0.4L420.7,107.8z"/>
<path class="st1" d="M272.9,98.9c1.1,2.3-1,10.9-1.9,13.3c-0.8,2-1.5,3.8-2.4,5.5c-1,1.9-2.4,3.5-3,5c2,0.6,29.5,20.6,31.9,21.5
	L329.9,97c2.4-3.5,3.1-6,5.4-5.3c0.6,1.6-0.6,2.5-1.5,3.9c-0.8,1.1-1.5,2.1-2.3,3.3c-1.6,2.3-3,4.4-4.5,6.7c-3.1,4.4-6,8.9-9.2,13.3
	c-3.1,4.5-6.3,8.9-9.3,13.6c-1.4,2-8.5,12.2-8.9,13.3l13.6,9.4c11.3,7.9,25.6,18,37.1,25.5c1,0.6,3,1.5,1.5,2.9
	c-1.3,0.8-2.8-0.8-3.8-1.5l-9.9-6.9c-2.3-1.5-4.4-2.9-6.7-4.5l-20-13.7c-2.4-1.6-4.4-3-6.7-4.5c-1.8-1.3-5.2-3.8-6.8-4.5l-32.4,47.3
	c-2.4,3.5-3.3,5.9-5.4,5.4c-0.6-1.8,0.5-2.8,1.5-4l34.2-50.2c-6.9-5.2-16.3-11.3-23.9-16.5c-1.3-0.9-7.2-4.3-7.7-5.7
	c-0.9,0.6-1.3,1.4-1.9,2.1c-3.9,4.4-10.7,8.5-16.6,10.3c-2,0.6-1.6,1-1.5,2.4l0.6,3.4c6.9-1.3,5.7-1.9,15.8-3
	c6.7-0.6,11.6-1.4,10.6,6.9c4.1,1.6,4.5,5.9,3,10.7c-1.6,5.4-0.5,1.8-0.6,6.4c-0.4,7.2-5.3,9.1-11.6,11.4c-3.5,1.3-8,3.1-9.9,5.4
	c0.1,1.6,1,4,0.6,5.4c0.3,0.6,0.9,3.9,1.1,4.8c0.3,1.8,0.5,3.3,0.9,4.9c0.3,1.8,0.6,3.4,0.9,5c0.3,1.4,0.9,3.9,0.9,5.4l81.8-15.2
	c2.5-0.5,17.7-3.1,19-3.8l-5.3-28.9c-4.5,0-4.4,0.9-10.2-0.5c-12.7-3.3-19.6-16.5-16.8-28.3c1.4-6,4.9-10.2,9.9-13.2
	c1.8-1.1,5.9-2.8,8.4-3l-1.1-6.5c-0.3-1.1-0.4-2-0.5-3.3c-0.3-1.4-0.5-2-0.8-3.4c-0.4-2.3-2-12.3-2.6-13.4l-16.3,3.1
	c-5.5,1.1-11.1,2-16.5,3c-5.5,1.1-10.9,2-16.5,3.1c-1.1,0.3-2.5,0.4-4,0.6c-1.6,0.4-2.4,0.6-4.1,0.9L272.9,98.9z"/>
<path class="st0" d="M234.2,273.2L251,294c1.4,1.6,2.6,3.4,4.1,5l10.6,12.9c0.6,0.8,1.6,2.1,2.1,2.6c1.6-0.9,8.4-6.8,10.4-8.3
	l5.2-4.3c1.9-1.3,3.4-2.8,5.3-4.1l19.4-15.8c0.8-0.5,0.8-0.4,1.3-1.1l-7.7-9.6c-0.9-1-2.1-2.3-2.8-3.1l-2.6,1.8
	c-5,2.9-12.3,3.4-16.7-1.4c-4-4.4-3.1-10.2-0.9-15.3c0.9-2.1,2.3-3.9,3.4-5.8c-1.1-1.8-5.4-6.5-6.2-7.9c-2.3,1.5-7.5,6-10.3,8.2
	l-5.3,4.3c-4.7,4.1-15.3,12.4-20.9,17l-3.9,3.1C234.9,272.6,234.8,272.8,234.2,273.2z"/>
<path class="st0" d="M468.3,128.3l0.1,55.8h-46.1c-14.5-23.3-2.5-59.7,33.6-58.3C461.4,126,463.8,127.2,468.3,128.3z M368.8,84.4
	h99.7v41.4c-3.6-0.9-5.9-1.9-10.2-2.3c-23.4-2.3-44.2,13.2-44.2,39.1c0,14.3,4.3,17.7,5.3,21.5h-50.5l-0.1-29.4
	c-24.3-0.3-28.3-27.2-16.6-38c4.3-3.9,8.9-5.4,16.7-5.5V84.4z M366.4,107.9c0,1.9-5.5-0.3-12.6,4.3c-6.2,4-10.6,11.3-10.6,18.5
	c0,5.4,0,8,2.5,12.9c1.3,2.8,2.8,4.7,4.8,6.7c3.1,3.1,9.2,6.4,13.7,6.7c1.1,0.1,2.1-0.3,2.1,1v28.7c6.3,0,51.2-0.4,55.1,0.1
	c2.6,0.4,39.2,0,47.1,0.1c1.3,0,2.4,0.3,2.4-0.9V81.9H366.4V107.9z"/>
<path class="st0" d="M363,334.7c0.5-2.5,3.5-8.5,4.8-11.3c3.4-8,32.4-74.2,33.1-76.5c1.5,0.3,4,1.5,5.4,2.1l24.8,10.7
	c12.7,5.8,8.9,2.3,10.9,8.3c4.5,14.1,21.4,20.2,33.6,13.1c2.4-1.5,1.9-1.1,6.5,0.9c2.1,0.9,4.7,2.1,6.8,2.9
	c-0.3,1.3-8.5,20.4-9.3,21.2c-3.1-0.5-4.9-1.6-8.8-1.6c-19,0-28.5,22-18.6,36.7c1.9,2.8,5.4,6.4,8.9,7.8l-10.2,23.8
	c-2.4-0.5-60.3-26.1-66-28.5C381,342.5,365.3,335.3,363,334.7z M474.5,278.7c-5.8,3.3-13.7,3.6-19.9,0.5c-4.5-2.4-9.8-7.5-10.8-14
	L474.5,278.7z M359.5,335.8c1.9,1,3.8,1.6,5.8,2.6l49,21.2c1.1,0.5,1.9,0.9,2.9,1.3l34.9,15.1l12.3-28.7c-8-1.9-13.8-11.3-13.8-19.5
	c0-5.5,3-11.7,5.8-14.6c11.2-11.6,22-4,24-4c1,0,1.5-1.9,1.9-2.6l8.5-19.7c0.5-1.3,1-2.4,1.4-3.4c-0.8-0.5-1.9-0.9-2.8-1.3
	l-60.6-26.4c-1.1-0.4-1.9-0.8-2.9-1.1c-1.3-0.5-1.9-0.9-2.9-1.4l-17.3-7.4c-2-1-4-1.6-6-2.6c-1.9,3.8-7.8,18.2-10.1,23.1l-22.5,51.9
	c-0.9,2-1.6,3.8-2.5,5.8L359.5,335.8z"/>
<path class="st0" d="M317.9,428.8c-2-3.9-1.5-16.5-0.8-21c2-12.4,7.4-22.1,15.8-30.5c3.3-3.3,9.6-8.5,13.6-9.9
	c1,1.8,8.7,33.1,9.9,37.8c0.8,2.9,3,10.3,3.1,12.8L317.9,428.8z M322.9,352.7c2.5,0,14.5-3.9,18.9-4.7l4.3,16.8
	c-4.1,1.4-11.9,7.7-14.3,10.1c-11.3,10.9-18.1,26.8-17.7,43.4c0.1,4.3,1,7.4,1.3,11.3l-25.4,6.4l-18.2-70l20.9-5.3
	c-0.1-2.8-1-4-0.5-7.3c0.9-6.2,5.2-11.4,11.8-13.1c6.9-1.8,13.3,0.6,16.7,6.5C321.6,348.8,321.9,350.6,322.9,352.7z M289.2,355.3
	l0.4,3.6l-10.6,2.5c-12.6,3.4-10.7,1.5-9.2,7.7l17.8,69.9c1.6,0,3.1-0.6,4.7-1l28.3-7.2c1.6-0.4,3.3-0.9,4.7-1.3l18.6-4.8
	c1.6-0.4,3.1-0.8,4.7-1.3l14.2-3.5l-7-28c-0.4-1.6-0.8-3.1-1.1-4.8L343.5,345c-1.5,0.1-3.4,0.8-4.8,1.1c-1.5,0.5-3.1,0.9-4.7,1.3
	c-3.3,0.6-6.3,1.6-9.4,2.4c-1.5-3-1.9-5.4-5.3-8.4c-8.5-7.5-23.3-4.4-28.5,6.5C290.3,349,289,353.7,289.2,355.3z"/>
<path class="st0" d="M392.5,303.4c-1.6-14.3,8.9-25.4,21.2-26.8c14.1-1.8,25.5,9.1,26.8,21.4c1.6,15.6-7.3,25.8-21.4,26.8
	C404.9,325.8,393.9,315.9,392.5,303.4z M443.1,303.6c1.4-15.6-9.7-27.8-23.4-29.4c-15.7-1.9-28,9.7-29.7,23.4
	c-1.8,15.6,9.9,27.9,23.5,29.5C428.7,328.9,441.6,320.3,443.1,303.6z"/>
<path class="st0" d="M181.5,195.9l-4.8-18.4c-0.4-1.5-0.9-5.7-2.8-5.3c-1.8,0.5,0,4.3,0.4,5.7c1.3,4.5,4.3,15,4.7,18.7
	c-12.7,1.4-21,0.5-30.4-5.8c-4-2.6-7-5.5-9.8-9.2c-2-2.8-3.8-5.8-4.9-9.3c-0.4-1.4-0.6-2.6-2.4-1.8c-0.9,2.4,2.3,7.7,3.1,9.3
	c1.6,2.8,3.9,5.5,5.7,7.4c3.6,3.6,9.2,7.7,15.7,10.1c19.2,6.7,35.1-0.3,47.3-12.2c3.4-3.3,9.6-10.7,11.8-14.3c1-1.9-0.6-3.4-2.1-1.4
	c-3.3,4.5-7.4,10.3-11.6,14.1c-3.8,3.5-6,5.7-10.9,8.5C188.9,193.1,183.5,196,181.5,195.9z"/>
<path class="st0" d="M288.1,394.9l15-3.9c0-2.5-3-12.1-3.8-15.3l-15.3,3.9L288.1,394.9z"/>
<path class="st0" d="M306.9,390c1.3,0,14.5-3.4,15.3-3.9l-3.9-15.2l-15.2,4L306.9,390z"/>
<path class="st0" d="M174.5,245.2c2.1,0,8.5,0.4,9.1-1.4c0.6-2.4-4.4-1-9.6-1c-20.4,0-37.6-12.3-49.1-25.8
	c-2.1-2.5-5.9-7.9-7.5-11.1c-1.9-3.6-3-1.6-2.9-0.6c0.3,2.6,8,12.4,9.9,14.8C135.2,233.5,154.8,245.2,174.5,245.2z"/>
<path class="st0" d="M330.6,74.5l15.2-9.7l1.5,17.3c-2.4-0.6-6.2-2.6-8.5-3.6C337.7,78,331.3,75.4,330.6,74.5z M325.3,74.5
	c0.3,1.4,0.8,1,2.6,1.9l18.9,8.5c1.1,0.5,2.3,0.9,3.3,1.4c0-6.8-1.4-14-1.5-19.5c0-2.5-0.4-4.3-0.5-6.4l-19.7,12.4
	C327.3,73.5,326.4,74.2,325.3,74.5z"/>
<path class="st0" d="M408.6,312.7c2-1,10.4-7.3,12.9-9.2l9.8-7c0.9-0.6,3-1.6,1.5-2.9c-1.3-1-9.2,5.4-11.3,7
	c-2.1,1.4-9.8,7.3-11.3,7.9l-2.6-12.6c-0.3-1.8-0.1-2.9-2.3-2.6c-0.9,1.4-0.3,2.5,0.1,4.5L408.6,312.7z"/>
<path class="st0" d="M386.6,106v1.9c4.5,0.9,25.9,0.4,32.1,0.4c1.1,0,1,0,2-0.5l0.1-1.6c-0.6-0.3-1.1-0.4-1.9-0.4
	C413.3,105.8,390.4,105.5,386.6,106z"/>
<path class="st0" d="M388.5,119.4c5.7,0,28.2,0.3,31.9-0.1c0.6-1.1,0.6-1,0.1-2.1c-3.9-0.5-26.4-0.3-32.1-0.3
	C385.6,116.8,385.6,119.4,388.5,119.4z"/>
<path class="st0" d="M362.2,73.4c0,3,3.1,0.5,3.4,0.3l14.6-8.8c1.3-0.8,1.4-0.9,2.1-2.1c-1.8-1.9-1-1.6-6.3,1.5l-9.6,5.8
	C365.5,70.6,362.2,72.3,362.2,73.4z"/>
<path class="st0" d="M399.7,212.2c0,1.9,4.9,12.6,6,15.3c2.3,5.5,2,5,4,4.5c0.5-2.1-0.4-2.1-1.6-5.8l-5.3-12.7
	c-0.3-0.4-0.5-1.1-0.6-1.5C401.3,210.7,399.7,211.7,399.7,212.2z"/>
<path class="st0" d="M255.8,368.1c1.3,0,1.1-0.3,1.1-1.5c0-1.1-2-1.8-3.8-2.4c-1.4-0.6-2.8-1.3-4.3-1.9c-1.6-0.8-7.5-3.8-8.8-3.8
	c-0.4,0-3,1.5,1.3,3.3l9.4,4.1C251.6,366.4,255,368.1,255.8,368.1z"/>
<path class="st0" d="M363.4,212.9c0,1,1.5,2.1,2.6,0c0.5-0.8,0.8-1.4,1.3-2.1c0.6-1.3,1.4-2.8,2-4c0.9-1.9,3.8-6.8,4.1-8.3l-0.3-0.4
	l-0.1-0.1l-0.8-0.8c-1.9,0.5-1.8,1.8-2.8,3.3l-4.1,8.2C364.8,209.6,363.4,211.7,363.4,212.9z"/>
<path class="st0" d="M362.2,348c0,1.4,3.1,3.9,4.5,5.2c5.2,5.2,4.1,5,6.4,4.5c0.4-1.8,0-1.6-1.5-3.1c-0.1-0.1-0.1-0.1-0.1-0.3
	l-2.4-2.4c-0.9-1.1-4.5-5.2-5.8-5.2C362.7,346.7,362.2,347.2,362.2,348z"/>
<path class="st0" d="M346.5,44.7c0,1,0.9,2.3,1.6,3.4l3.5,6.4c0.9,1.4,2.9,1.6,2.9-0.4l-4.7-8.2c-0.6-1.4-0.9-2.5-2.3-2.5
	C347,43.4,346.5,43.9,346.5,44.7z"/>
<path class="st1" d="M251,165c1.3,0.6,5.2-1.9,9.2-2.9c1.9-0.5,3.5-0.9,5.5-1.1c1.9-0.3,5.2,0.4,4.4-1.6c-2.1-0.9-8.4,0.6-10.7,1.3
	c-3.1,0.9-4.4,1.5-6.9,2.5C251.3,163.7,250.9,163.6,251,165z"/>
<path class="st0" d="M230,385.8c0,1.4,0,1.4,1.5,1.4c0.9,0,2.3-2.3,3.3-3.5c1.3-1.5,5.2-5.5,1.5-5.5c-0.9,0-2.3,2.3-3.3,3.5
	C232.5,382.3,230,385.1,230,385.8z"/>
<path class="st1" d="M266,148.6l-0.5-0.1c0,0-0.1-0.1-0.3-0.1c-2.6-0.4-9.8,1.6-12.3,2.5c-0.9,0.3-3.8,1-2.5,2.3
	c0.5,0.5,2.8-0.6,3.5-1c2.9-0.9,5.8-1.6,8.7-1.9C264.5,150,266.3,150.4,266,148.6z"/>
<path class="st0" d="M343,304.5c0,0.8,0.5,0.9,0.9,1.5c1.1-0.3,7.9-4,7.9-5.4c0-0.8-0.6-1.1-1.1-1.4
	C349.8,299.4,343,303.4,343,304.5z"/>
<path class="st0" d="M157.9,106.9c-0.3,1.5,0.6,1.8,1.5,2.5l4,4.8c0.9,1.3,0.9,2.1,2.4,1.9c0.5-1.6-2.3-4.7-3.1-5.5
	C161.9,109.8,159.2,106.3,157.9,106.9z"/>
<path class="st0" d="M138.8,130.2c-0.3-3.8-10.1-1.5-10.3,1.5c-0.3,2.6,2-0.5,4-1.3C135.5,129,137.3,130.9,138.8,130.2z"/>
<path class="st0" d="M152,112.3c-2,1-0.4,3.8,1.5,2.8C155.2,114.1,154,111.3,152,112.3z"/>
<path class="st0" d="M124.3,123.5c0.5,0.8,1,1.3,1.4,1.9c-2.3,3.4-4.3,6.4-2.1,10.7c1.5,3.1,5.1,5.3,9.5,5.3c0.5,0,5.5-0.2,9.7-3.6
	c3.6,0.9,17,0.5,21.4-2.8c0,0,0,0,0,0c0.6-0.5,1.7-1.2,2.1-1.5c0.6-0.5,1.8-1.8,2.4-2.4c2.9-3.6,4-8.4,3.1-14.8
	c-0.8-5.8-3.4-11.9-6.9-15.8c-0.8-1-1.3-1.8-2.3-2.5c-1.3-1-3.9-3.4-5.7-3.8c2.1-3.1,2.9-5.8,0-8.8c-2.6-2.9-5.5-3.5-9.2-2.3
	c-7.5,2.9-14.7,11.2-20,17.6l-5.4,6.9c-3.5,3.9-2,10.3,0.5,14.1C123.4,122.4,123.8,122.9,124.3,123.5z M133.7,123.9
	c3.4-1,1.6,0,3.9,0.5c1.6,0.4,3-1,2.9-2.5c-0.3-2.1-3.6-3.3-3.8-7.2c-0.3-5.9,8.8-11.8,12.8-14.8c2.5-1.8,4.7-4.5,6.7-3.5
	c11.7,6.3,17.1,25.1,10.4,33.1c-3,3.4-8.5,6.8-15.2,6.8c-5.4,0-5.4-0.9-9.3-1.8c-2.5,4.5-11.9,6.3-15.6,1.6
	C123.2,131.8,126.6,126,133.7,123.9z"/>
<path class="st2" d="M262.7,122.2c3.9-4.7,7.5-12.3,7.9-20.6l-29.5,5.5l4.9,26.9C251.9,132.8,259.1,126.8,262.7,122.2z"/>
<path class="st2" d="M174,242.8c-20.4,0-37.6-12.3-49.1-25.8c-2.1-2.5-5.9-7.9-7.5-11.1c-1.9-3.6-3-1.6-2.9-0.6
	c0.3,2.6,8,12.4,9.9,14.8c10.9,13.3,30.5,25,50.2,25c2.1,0,8.5,0.4,9.1-1.4C184.1,241.4,179.1,242.8,174,242.8z"/>
<path class="st2" d="M97.2,291c-1,5.3-2.3,12.6-2.7,14.5c-4.3,19.9-9.8,36.8-19.4,54.3c-6.4,12.1-15.6,22.4-24.4,30.3
	c-2.1,1.9-4.1,4.1-6.4,5.9c-3.3,2.6-14.6,13.2-16.6,14.2c0.6,2.6,28.3,35.6,31.2,39.1c0.9,1.1,3.4,4.8,4.4,5.5l17.1-13.6
	c3.8-3,9.8-8.9,13.2-12.4l7.5-8.2c13.8-16.5,22.8-31.8,30.8-52c0.6-1.5,2.4-5.9,2.8-7.2c0.3,2.3-0.3,21.6-0.4,25.5
	c-0.1,8.8-0.3,17.5-0.5,26.3c-0.3,8.5-0.5,17.2-0.8,25.8c-0.1,8.2-0.9,17.5-0.8,25.5c1.6,0.4,23.3-1.3,26.8-1.5
	c8.9-0.5,18.5-0.8,27.3-1.8c1-3.3,1.1-17,1.4-21.4c0.4-7.4,0.6-14.7,0.9-22.1c1-29.7,1-61-0.3-90.5c-0.4-9.7-1.1-19-1.8-28.4
	c-0.1-0.9-0.1-1.8-0.2-2.7c-0.1-0.9-0.1-1.8-0.2-2.7c0-0.5-0.1-1.1-0.1-1.6h0c0-0.4-0.1-0.7-0.1-1.1c-0.1-1.8-0.3-3.6-0.4-5.4
	c0-0.4-0.1-0.9-0.1-1.3c0,0,0,0,0,0l-85.9,1.1l-0.9,0C98.3,285.5,97.8,288,97.2,291z M138.1,352.7c0.9-2.6,1.8-5.2,2.5-7.8
	c3.4-10.6,6-22,8.2-32.9c0.4-2.5,2.4-16.5,2.9-17.5c2.1-0.5,6.3-0.5,8.8-0.9c3.4-0.5,7.4-1.9,8.2-0.6c1.8,3.1-13.4,3-14.7,4
	c-0.5,0.6-2.6,14.6-3.1,16.7c-1,5.5-2.1,10.9-3.5,16.3c-1.3,5.3-2.8,10.3-4.3,15.5c-1.3,4.3-3.4,11.1-5.2,14.7l-1.6-0.1
	C135.5,358.3,137.4,354.8,138.1,352.7z"/>
<path class="st2" d="M212.9,169.5c-3.3,4.5-7.4,10.3-11.6,14.1c-3.8,3.5-6,5.7-10.9,8.5c-1.5,1-6.9,3.9-8.9,3.8l-4.8-18.4
	c-0.4-1.5-0.9-5.7-2.8-5.3c-1.8,0.5,0,4.3,0.4,5.7c1.3,4.5,4.3,15,4.7,18.7c-12.7,1.4-21,0.5-30.4-5.8c-4-2.6-7-5.5-9.8-9.2
	c-2-2.8-3.8-5.8-4.9-9.3c-0.4-1.4-0.6-2.6-2.4-1.8c-0.9,2.4,2.3,7.7,3.1,9.3c1.6,2.8,3.9,5.5,5.7,7.4c3.6,3.6,9.2,7.7,15.7,10.1
	c19.2,6.7,35.1-0.3,47.3-12.2c3.4-3.3,9.6-10.7,11.8-14.3C216.1,169,214.4,167.5,212.9,169.5z"/>
<path class="st2" d="M268.4,148.3c0-2.1,2.8-6.3-1.8-6.8c-1.8-0.3-7.2,0.6-9.3,0.9c-5.8,0.8-11.3,2.3-16.1,4.5
	c-10.9,5.3-15.2,10.9-22.4,19.2c0.8,1.6,18.6,18.7,22.2,23.3c0.8,0.9,0.8,1.3,1.8,1.6c7.4-23.9,29.7-14.3,28.4-29.3
	c-0.4-5.4,0.8-2.8,1.4-7.9C273.1,149.5,271.9,148.9,268.4,148.3z"/>
<path class="st3" d="M137.9,360.2c1.8-3.6,3.9-10.4,5.2-14.7c1.5-5.2,3-10.2,4.3-15.5c1.4-5.4,2.5-10.8,3.5-16.3
	c0.5-2.1,2.6-16.1,3.1-16.7c1.3-1,16.5-0.9,14.7-4c-0.8-1.3-4.8,0.1-8.2,0.6c-2.5,0.4-6.7,0.4-8.8,0.9c-0.5,1-2.5,15-2.9,17.5
	c-2.1,10.9-4.8,22.4-8.2,32.9c-0.8,2.6-1.6,5.2-2.5,7.8c-0.8,2.1-2.6,5.7-1.9,7.4L137.9,360.2z"/>
<path class="st3" d="M186.1,293.5c0.1,0.9,0.1,1.8,0.2,2.7c0.1,0.9,0.1,1.8,0.2,2.7c0.7,9.4,1.4,18.8,1.8,28.4
	c1.3,29.5,1.3,60.8,0.3,90.5c-0.3,7.4-0.5,14.7-0.9,22.1c-0.3,4.4-0.4,18.1-1.4,21.4c-8.8,1-18.4,1.3-27.3,1.8
	c-3.5,0.3-25.1,1.9-26.8,1.5c-0.1-8,0.6-17.3,0.8-25.5c0.3-8.5,0.5-17.2,0.8-25.8c0.3-8.8,0.4-17.5,0.5-26.3
	c0.1-3.9,0.6-23.3,0.4-25.5c-0.4,1.3-2.1,5.7-2.8,7.2c-8,20.2-17,35.6-30.8,52l-7.5,8.2c-3.4,3.5-9.4,9.4-13.2,12.4l-17.1,13.6
	c-1-0.8-3.5-4.4-4.4-5.5c-2.9-3.5-30.5-36.5-31.2-39.1c2-1,13.3-11.6,16.6-14.2c2.3-1.8,4.3-4,6.4-5.9c8.8-7.9,18-18.2,24.4-30.3
	c9.6-17.5,15.1-34.4,19.4-54.3c0.4-1.8,1.7-9.1,2.7-14.5l-2.4-0.1l-2.9,15c-1.9,9.4-4.8,19.4-8.2,28.5c-3.8,10.7-9.4,23.8-16,32.9
	c-2.5,3.5-5.2,7.2-8.2,10.2c-3.1,3.4-7.4,8.3-10.7,10.9c-3.5,2.8-7.8,7.2-11.3,10.2l-3.3,2.8c-2,1.8-7.9,7.3-10.1,8.5
	c0.5,0.9,0.9,1,1,2.1c-1.3,0.4-7.5,5.3-8.7,6.2l-6.5,4.4c-0.9,0.8-1.3,1-2.3,1.5c0.1,0.4,0.3,0.6,0.4,1.1c0.3,0.4,0.4,0.6,0.6,1.1
	l7.9,15.1c1.5,3.1,2.9,5.5,4.4,8.7l7.9,15.1c0.3,0.5,0.3,0.5,0.5,1l11.9,22.9c0.8,1.4,1.5,3,2.4,4.5c4-1,8-8.2,8.7-12.2
	c1-5.8-1.4-10.8,1-19c-1.5-0.9-3.9-2.9-5.4-3.9l-3.9-2.9c-0.4-0.4-0.4-0.1-0.4-0.8c-0.1-0.7-0.1-0.9-0.1-0.9c0,0,0.1,0.3,0.5,0
	c1.1-0.5,7.9,6.3,9.9,6.4c0.1-1.4,0.6-1.8,0.9-3c-1-0.4-5.5-3.9-7.2-5.2c-0.9-0.6-2.3-1.3-1.3-2.3c0.9-0.8,6.5,4.5,9.1,5.9
	c0.8-1.3,1.3-2.5,2-3.6c1,0.6,3.4,3.9,4.3,5.2c1,1.5,0.8,1.4,1.6,1.6c0.6-2.5,12.6-11.1,15.2-13.2c5.4-4.1,15.5-13.6,19.5-18.4
	c0.8-1,1.6-1.5,2.4-2.4l10.7-13.3c1.4-1.9,2.5-3.5,3.9-5.5c1.9-2.6,5.5-8.8,7.2-11.7l8-15.6c0.5-1.3,0.8-2.6,1.8-3.3
	c0,1.8-0.4,3.1-0.3,5.3v5.9c0,2.4-0.4,3.6-0.4,5.7v11.8c0,2-0.3,3.3-0.3,5.5l-0.3,17.2c-0.1,1.9-0.4,3.3-0.4,5.7
	c0,10.9-0.9,23.5-0.9,34.6c2.8,0,4.3-0.4,7.2-0.4c0,9.2-0.5,17.2-0.8,26c0,1.5,0.4,0.9,5.2,0.9h6.8c1.8,0,2.6,0.4,6.2,0.4h33.4
	c8.9,0,17.1,0.3,26.1,0.3h0.5c0-6-3.4-11.6-8.5-14.6c-2.3-1.4-4.7-2.1-7.7-3.8c-2.8-1.6-4.7-2.8-6.9-4.8c-1.9,1-10.3,5.4-11.8,4.9
	c0-1.8,1.9-1.9,4.9-3.4l4.3-2c1-0.5,0.6-0.1,1.3-0.9c-0.9-0.6-1.4-1.6-2.3-2.4l-5.3,2.6c-1.5,0.8-3.9,2.6-5.4,1.8
	c-0.1-1.5,1.3-1.6,4.4-3c1.8-0.9,3.6-1.8,5.3-2.5c-0.6-0.9-1.3-1.8-1.8-2.8c6,0,3.3,0.9,4.5-7.2c0.5-3.4,0.3-7.9,0.6-11.2l1.6-46
	c0-4.3,0.3-7.4,0.3-11.6v-29.8c0-2.4-0.4-3.4-0.3-5.7c0-3.1,0.3-8.8-0.1-11.8L191,329c0-2.3-0.4-3.4-0.3-5.7l-1.9-28
	c0-1.1-0.1-2.2-0.2-3.2l-2.7-0.3C186.1,292.4,186.1,292.9,186.1,293.5z"/>
<path class="st4" d="M271.4,146.4c1-8.3-3.9-7.5-10.6-6.9c-10.2,1.1-8.9,1.8-15.8,3c-1.3,0.9-3.5,1.4-5,2.3c-1.6,0.8-3.4,2-4.9,2.5
	c1.4-2.4,6.3-7.2,9.3-8.2c-0.1-1.4-0.5-1.8,1.5-2.4c5.9-1.8,12.7-5.9,16.6-10.3c0.6-0.8,1-1.5,1.9-2.1l1.3-1.5c0.6-1.5,2-3.1,3-5
	c0.9-1.8,1.6-3.5,2.4-5.5c0.9-2.4,3-11.1,1.9-13.3c-1.6-0.1-23.3,3.9-26,4.5c-2.1,0.5-6.8,1.6-8.8,1.6c0.4,4,2.6,15.2,3.5,19.5
	c0.3,1.5,0.5,2.3,0.8,4l1.1,5.9c0,0.1,0.1,0.9,0.1,1l0.4,0.9c-2.8,2.1-4.3,1.9-8.4,6.4c-3.4,3.6-6.5,8.8-7.2,9.4l-11.3,11.9
	c-2.6,2.1-6.2,3.1-10.1,2.9c-9.4-0.4-24.9-12.7-33.2-17.6c-3-1.8-7.9-5.3-11.2-6c0-0.1,0-0.2,0-0.3l-0.3,0.1c0,0-22.2-2.7-30.7,0
	c-0.5,0.2-1.2,0.4-1.8,0.9c-1.4,0.8-2.5,1.4-4,2.3c-4.9,2.9-8.9,7.2-12.6,11.6c-3.6,4.3-7,10.3-8.5,15.7c-0.3,0.9-0.4,1.4-0.6,2.3
	c-2.1,7.5-3.3,15.3-4.4,23.3l-2.3,16c-0.6,3.6-0.9,7-1.4,10.7c-0.5,3.8-0.9,7.2-1.4,10.8c-0.4,3.6-0.8,7.4-1.3,11.1
	c-0.3,2-0.4,3.5-0.6,5.4l-1.1,10.9c-0.9,6.4-1.1,12.7-2.1,19.2c-0.5,3.6,0.5,2.1,6.4,2.1l0,0.1l0,0l2.7-0.2l0.9,0l85.9-1.1
	c0,0,0,0,0,0l0.2,0h2.5l0.2,0.1c3.4,0,3.6,1.6,2.4-8l-3.4-33.4c14.2-3.3,23.5-7.9,33.9-16.7l7.2-7.3c0.6-0.6,1.1-1.3,1.8-2
	c3.6-4.3,7.2-10.8,9.8-15.8l6-6.8c1.3-1.4,2.3-2.6,3.5-4.1c1.3-1.5,2.3-2.8,3.5-4.1c0.4-1.4-0.5-3.8-0.6-5.4
	c1.9-2.3,6.4-4.1,9.9-5.4c6.3-2.4,11.2-4.3,11.6-11.4c0.1-4.7-1-1,0.6-6.4C275.9,152.3,275.5,148,271.4,146.4z M241.1,107.2
	l29.5-5.5c-0.4,8.3-4,16-7.9,20.6c-3.6,4.5-10.8,10.6-16.7,11.8L241.1,107.2z M183.5,243.8c-0.5,1.8-6.9,1.4-9.1,1.4
	c-19.6,0-39.2-11.7-50.2-25c-1.9-2.4-9.7-12.2-9.9-14.8c-0.1-1,1-3,2.9,0.6c1.6,3.1,5.4,8.5,7.5,11.1c11.6,13.5,28.8,25.8,49.1,25.8
	C179.1,242.8,184.1,241.4,183.5,243.8z M215.1,170.9c-2.3,3.6-8.4,11.1-11.8,14.3c-12.2,11.9-28,18.9-47.3,12.2
	c-6.5-2.4-12.1-6.4-15.7-10.1c-1.8-1.9-4-4.7-5.7-7.4c-0.9-1.6-4-6.9-3.1-9.3c1.8-0.9,2,0.4,2.4,1.8c1.1,3.5,2.9,6.5,4.9,9.3
	c2.8,3.6,5.8,6.5,9.8,9.2c9.4,6.3,17.7,7.2,30.4,5.8c-0.4-3.8-3.4-14.2-4.7-18.7c-0.4-1.4-2.1-5.2-0.4-5.7c1.9-0.4,2.4,3.8,2.8,5.3
	l4.8,18.4c2,0.1,7.4-2.8,8.9-3.8c4.9-2.9,7.2-5,10.9-8.5c4.1-3.8,8.3-9.6,11.6-14.1C214.4,167.5,216.1,169,215.1,170.9z
	 M272.6,153.8c-0.6,5.2-1.8,2.5-1.4,7.9c1.3,15-21,5.4-28.4,29.3c-1-0.4-1-0.8-1.8-1.6c-3.6-4.5-21.5-21.6-22.2-23.3
	c7.2-8.3,11.4-14,22.4-19.2c4.8-2.3,10.3-3.8,16.1-4.5c2.1-0.3,7.5-1.1,9.3-0.9c4.5,0.5,1.8,4.7,1.8,6.8
	C271.9,148.9,273.1,149.5,272.6,153.8z"/>
<path class="st3" d="M98.5,285.2l0.9,0L98.5,285.2l-2.6,0.2l0,0l-1.1,5.6l2.4,0.1C97.8,288,98.3,285.5,98.5,285.2z"/>
<path class="st3" d="M186,291.8c0-0.4-0.1-0.7-0.1-1.1C186,291.1,186,291.5,186,291.8L186,291.8z"/>
<path class="st3" d="M185.6,284l-0.2,0c0,0.4,0.1,0.9,0.1,1.3c0.1,1.8,0.3,3.6,0.4,5.4c0,0.4,0.1,0.7,0.1,1.1l2.7,0.3
	c-0.3-2.6-0.6-5.3-0.6-8c0,0,0.1,0,0.1,0L188,284H185.6z"/>
</svg>
