<?xml version="1.0" encoding="utf-8"?>
<!-- Generator: Adobe Illustrator 24.0.1, SVG Export Plug-In . SVG Version: 6.00 Build 0)  -->
<svg version="1.1" id="Layer_1" xmlns="http://www.w3.org/2000/svg" xmlns:xlink="http://www.w3.org/1999/xlink" x="0px" y="0px"
	 viewBox="0 0 500 500" style="enable-background:new 0 0 500 500;" xml:space="preserve">
<style type="text/css">
	.st0{fill-rule:evenodd;clip-rule:evenodd;fill:#023E57;}
	.st1{fill-rule:evenodd;clip-rule:evenodd;fill:#BF353E;}
	.st2{fill-rule:evenodd;clip-rule:evenodd;fill:#FFFFFF;}
</style>
<path class="st0" d="M250.6,392.4h60c0.9,1.8,1.3,4.7,2.5,6.3l65.6,0.1c-0.2,1.2,0,1.2-0.9,1.4H250.1L250.6,392.4z M201,349.3
	c13.1-1.1,26.7,3.1,34,9.8c7.6,6.9,12.5,16,13.3,30.8c1.4,25.4-17.1,45.6-40.6,47.5c-25.2,1.8-45.8-17.8-47.4-40.6
	C158.6,371,177.5,351.3,201,349.3z M158.5,400.3c-6.8,0-13.7,0-20.6,0c-2.3,0-13.3,0.4-15.1-0.6c-0.9-0.6-1.8-1.7-1.8-3.2
	c-0.2-4.3,4.2-4,6.3-4h30.6L158.5,400.3z M435.8,349.3c13.7-1.2,26.2,3.1,34,9.8c16.7,14.2,18.2,46.9,2.1,63.5
	c-7.8,8.1-16.8,13.7-29.4,14.7c-25.4,1.9-45.6-17.6-47.5-40.6c-0.5-6.9,0.6-13.3,2.8-19.1c1.8-4.9,5.5-10.8,8.3-13.7
	c1.9-1.9,3.4-3.5,5.7-5.3C418.6,353.2,426.8,350.1,435.8,349.3z M374,385.4c1.3-0.5,3.7-3.6,5.1-4.7l1.9,1.3
	c0,1.4-1.1,10.6-1.5,11.4c-0.3-0.4-0.8-1.7-1.1-2.2C376.4,387.2,374.6,386.6,374,385.4z M380.9,379c0-0.4,1.1,0.1,0.2,0.1
	C381,379.1,380.8,379.5,380.9,379z M356.2,374.5c0.4,0.9,1.1,1.6,1.4,2.6c-1,0.6-2.1,1.4-3.2,2.2c-2.2,1.3-2.9,1.1-2.7,2.4
	c1.7,0.8,5.7-2.7,6.9-3.5c0.5,0.4,0.9,0.8,1.2,1.4c-0.5,0.8-1.8,1.8-2.5,2.6c-0.6,0.6-2.2,1.7-1.8,2.7c0.9,0.6,1,0.2,1.7-0.5
	c0.9-0.9,3.1-2.9,3.6-3.8c1,0.4,1.7,1.1,2.7,1.7c3.2,1.8,5,1.9,8.1,4.2c1.9,1.4,6.2,6.2,6.2,10.1h-63.5c-1.1-2.3-5.2-16-5.2-18.5
	L356.2,374.5z M360.3,376.7c1-1.8,2.5-1.3,6.5-1.6c2.5-0.2,5-0.5,7.4-0.5l1.3,2.3c-0.7,1-2,1.7-3.1,2.4c-2.5,1.6-3.1,1.2-2.7,2.6
	c2,0.6,5.6-3.1,6.9-3.7c0.6,0.5,0.9,0.9,1.2,1.5c-0.8,1.2-3.1,3.1-4.4,4.5l-0.5,0.6c-2.3-2-5.8-2.7-10.3-5.6c0.4-0.9,1-0.5,0.5-1.8
	c-1.3-0.4-0.8,0.2-1.9,0.6L360.3,376.7z M133.6,376.2c0-10.2,2-20.7,5.3-29.4c10.3-27.3,34.3-39.2,65.8-39.2
	c38.5,0,70.3,32.2,70.3,70.8c0,3.5-0.3,8.5-1.1,12h-23.4c-0.5-2.1-0.4-5.5-1.3-10c-4.7-21.7-21.4-33.4-44.8-33.4
	c-14.4,0-24.7,6-32.2,12.9c-5.5,5-10.5,13.1-12.6,21c-0.9,3.3-1.1,5.9-1.6,9.5h-23.3C133.7,387.5,133.6,379.8,133.6,376.2z
	 M267.2,306.3l9.2,0.4c1,0.1,0.8,0.2,1.8,0.2c0.6,0.1,1.3,0,1.9,0c0.9,0.1,0.9,0.2,1.9,0.2c2.2,0.1,5.4,0,7.4,0.3
	c4.6,0.7,3.4-1.3,4.2,3.8c0.8,4.4,1.7,8.7,2.4,13.4c0.8,4.4,1.6,9.1,2.5,13.5c0.9,4.5,1.5,8.7,2.5,13.3c0.5,2.2,0.9,4.1,1.3,6.4
	c0.3,2.1,0.9,4.6,1.4,6.6c0.9,4.4,1.7,8.5,2.7,13l2.3,9.6c0.3,0.9,0.8,2.5,0.8,3.3h-33.5c0-2.2,0.9-6.1,0.9-11
	c0-12.8-2.6-23.4-8-34.3c-0.9-1.7-1.1-1.4-1-4C268.2,334.1,268.7,309.3,267.2,306.3z M159.4,317c-0.2-6.1,0-10.6,2.8-15.1
	c6.5-10.7,16.2-9.2,26.4-9.3c2.7,0,2-0.3,3.4,1.2c2,2.3,4.8,4.3,7.8,5.5c5.4,2.1,24.9,3.6,31.8,4.1l33.1,2.5
	c1.5,3.2,1.1,11.9,1.1,16c0,3,0.1,15.2-0.1,17.1c-0.6-0.5-1.5-2-2-2.8c-0.7-1-1.3-1.7-2-2.7c-4.2-5.3-8.6-9.8-14.4-14
	c-7-5.1-15.7-9.7-25.9-12.2c-16.7-3.9-40.8-1.9-56.2,6.3C164,314.3,160,316.8,159.4,317z M353.1,327.5c-1.4-16.7-3.8-48.5-10.6-62.6
	c-3.5-7.1-7.9-9.9-14.8-12.6c-0.8-0.4-7.5-2.2-4.5-3.7c1.5-0.7,11.4,4.2,12.8,5.1c3.4,2.2,6.3,5.7,8.3,10
	c6.9,14.6,9.3,45.6,10.9,62.4l1.9,25.5c0.1,1.5,0.9,7.4-0.1,8.2c-1.6,1.2-1.6-1.6-1.7-2.6L353.1,327.5z M484.8,401.1
	c-0.1-1.3,0.4-3.9,0.5-5.6c0.3-5.4-0.4-12.1-1.7-17.1c-3.2-12.5-10.9-22.2-22.8-27.2c-12.9-5.5-28.9-5.5-41.7,0.5
	c-4.2,2-7.8,4.6-11.3,7.5c-0.9,0.8-2.3,2.3-3,3.1c-1,1.2-1.9,2.2-2.8,3.5c-1,1.3-1.7,2.4-2.5,3.7c-1.6,2.4-3,5.5-4,8.5
	c-2.8,7.9-2.7,13.4-2.1,22.1l-12.5-0.1c0-1.5,0.8-4.7,1-6.3c2.4-16.2,3.3-32.2,2.7-48.7c-1.3-33.3-9-65.6-24.3-94
	c-3-5.5-11.1-17.6-15.4-21.8c-1.3-1.3-2.2-2.5-3.5-3.7s-2.6-2.3-3.9-3.5c-1.3-1.2-2.8-2.1-4-3.2c2.5-4.9,1.1-6.6-0.7-11
	c6.9-1.3,24.5-1.9,31.4-1c4.6,0.6,8.6,2.5,12,4.5c2.2,1.4,7.9,5.6,8.9,7.4c-0.5,0.6-1.2,1.1-1.9,1.8c-4.1,4.7-3.9,13.9-0.5,18.5
	c4.3,5.7,12.6,6,21.5,6.1c2,2.6,8.6,17.2,10.5,21c3.2,7,6.3,15.1,9,22.5c5.5,15.8,10.7,31.3,14.9,48.2c2.1,0.3,4.8,0.1,7.1,0.2
	c6.2,0.4,12.5,1.6,18.1,3.9c14.5,5.7,22.7,17.9,25.9,32.8c1.6,7.9,2.3,18.9,1,27.3L484.8,401.1z M297.7,204.5
	c-0.7,0.1-0.9,0.1-1.6,0.3v1.7c0.4,0.3-0.6,0.3,0.7,0.2c6.8-0.9,19.6-6.8,26-4.8c4.5,1.5,15.3,12.5,5.8,17.7
	c-0.3-0.8-1.8-8.4-4.2-8.1c-0.6,1,1,2.8,1.6,4c0.6,1.4,1.1,3.1,0.9,4.7c-0.3,1.8,0.4,7.1-3.7,7.8c0-1,0.4-2.1,0.5-3.4
	c0.2-2.6-1.1-8.8-3.5-8.1c-0.5,1.7,3.4,3.8,1.7,10.4c-0.5,2.1-1.5,2.4-3.3,3.2c-2.1,0.8-3.6,0.8-4.5-0.9c1.2-1.2,2.9-0.8,4.1-3.2
	c1.1-2.1,0.6-4-0.9-5.1c-1.4-1-3-2.4-5.5-1.3c-2.5,1.2-2.2,3.5-2.5,4.8c-2.6,0.7-4.9-0.5-7.4-0.4c-2.8,0.1-4,1.3-5.9,1.9
	c-0.1,0.7-0.2,2.1,0.1,2.6c6.5-4.1,7.5-1.4,12.5-1.6c1-0.1,1.1-0.3,2-0.5l1.7,1.1c-0.7,1.3-0.7,1.7,0,3c2.8,5.5,9.8,0.3,10.3,0.1
	c0.9-0.3,2.6,0.1,4.4-2c1.2-1.3,2.3-3.9,2.3-6.5c0.9-0.2,1.6-0.7,2.3-1.2c0.3-0.3,0.1-0.1,0.3-0.3c3.7,2.5,7.2,6,10.4,9.1l3,3.4
	c1,1.2,1.9,2.3,2.9,3.5l2.8,3.7c0.5,0.6,0.8,1.3,1.3,2l5,8c0.5,0.7,0.7,1.4,1.1,2.1l4.5,8.5c0.4,0.7,0.6,1.4,1,2.2
	c3.6,8.5,5.2,12.3,8.1,21.4c5,15.6,9.5,38.9,9.9,55.1l0.5,6c0.1,2.1-0.2,4.5,0,6.6c0.4,4.7,0,3.1,0,6c0,1.9,0.1,4.7-0.1,6.4
	l-0.8,12.4c-1.2-0.5-1.1,0.1-1.9,0.7l-1.1-1.3c0.4-0.5,1.3-1.2,0.9-1.8c-0.6-1-1.7,0.1-2.2,0.3c-0.1-0.7-0.8-1.7-1.2-2.5
	c-5-10.2-7-30.4-7.6-41.3l-1.9-28.4c-0.4-5.7-1.3-15.1-2.5-20.1c-1.3-5.8-2.1-9.3-4.3-14.5c-0.4-0.9-0.7-1.7-1.3-2.6
	c-0.9-1.6-1.7-3.2-2.8-4.7c-4.6-6-9.7-10.3-17-13.3c-11.5-4.7-25.2-5.9-38-7.3l-23.9-2.4c-1.4,0-2.3-0.2-3.6-0.2
	c-14.4-0.3-28.5,1-42.7,1.1h-32.9c-3.1,0-7.8-0.3-10.8,0c-1.1,4.5-2.7,14.8-2.6,19.8c0,2.4-0.4,4.7-0.2,7.3
	c0.2,4.3,0.7,9.1,1.6,13.4c0.6,3.1,1.7,7,3.4,9.8c0.3,0.5,0.4,0.6,0.6,1.3c-5.8,0-13.4-0.7-18.5,1.4c-3.4,1.3-6.4,3.4-8.6,6.2
	c-2.4,2.9-4.1,6.3-4.8,10.2c-0.8,4.8,1,9.3-1.2,11.1l-5.3,4.5c-0.6,0.6-0.8,0.8-1.2,1.4c-0.8,0.9-1.6,1.5-2.4,2.6
	c-0.7,0.9-1.5,1.7-2.2,2.7c-0.4,0.5-0.6,0.9-1,1.4l-1.9,3c-1.7,2.6-2.9,5.4-4.2,8.2c-1.7,3.5-2.8,7.2-3.8,11.2
	c-0.7,2.6-1.1,5.2-1.6,8.2c-0.8,4.7-1.7,14.4-1.2,18.6c0.3,2.1,0.3,7.2,1.1,8.9c-4.6,0-10.6-1.2-13,3.4c-2.2,4.2,0.8,8.9,6.4,8.8
	c11.1,0,22,0,33.1,0c0.3,1.4,0.5,2.6,0.9,4c0.4,1.3,0.9,2.6,1.4,3.8c2.5,5.9,6.5,12.8,11.6,17c2.3,1.9,4.6,3.8,7.2,5.5
	c0.6,0.3,1,0.5,1.7,0.9c3.8,2.3,8.4,4,13.1,4.9c4.1,0.8,10,1.2,14.2,0.7c8.2-1.1,15.8-3.5,22.4-8.5c4.2-3.1,7-6.1,10.4-10.3
	c2.2-2.6,4.3-6.7,5.5-10c0.7-1.6,2.3-6.2,2.3-8.1h144.3c0,3.8,3.7,11.6,5.6,14.7c1.2,2.1,2.6,4,4.2,5.9c3.1,3.7,6.7,7.1,11,9.6
	c4.5,2.7,9.2,4.7,14.6,5.9c5.7,1.3,12.9,1.4,18.6,0.2c7.8-1.5,14.8-4.9,20.9-9.9c0.5-0.4,0.8-0.7,1.3-1.1c0.5-0.5,0.8-0.7,1.3-1.3
	c2.6-2.6,4.9-5.4,7-8.5c2.1-3.2,5.8-11.1,5.9-14.6c8.9,0,8.2,1.3,8.9-3.3l0.5-7.6c0-1.4,0-2.8,0-4.1c0.1-7.7-1.9-17.3-4.6-24.1
	c-0.4-1-0.8-1.9-1.2-2.9c-0.4-0.8-0.9-1.8-1.4-2.7l-1.6-2.7c-1.6-2.5-4.9-6.9-7.4-8.8c-0.8-0.7-1.5-1.3-2.2-1.9
	c-9.6-7.8-22.9-10.4-35.1-10.4l-6.7-23.8c-3.5-11.9-7.3-23-12-34.3l-2.2-5.3c-0.4-1-0.7-1.7-1.1-2.7l-10.7-22.2
	c-0.4-0.6-0.5-0.6-0.5-1.4c0.6,0,0.7-0.1,1.3-0.2v-29c-3.2-1.5-8-0.6-11.3-0.6c-3.2-0.1-7.8,1.2-10,2.3c-1.1-1.6-5.2-4.8-6.9-6
	c-11.8-8.2-17.5-7.1-32.8-7.1c-3,0-5.7,0.3-8.4,0.4c-2.6,0.2-5.1,0.9-7.7,1.1c-0.5-0.7-1.1-1.2-1.5-1.9c-1.1-0.5-1.8-1.6-2.9-2.3
	c-6.9-4.7-16.3-0.4-24.7,1.9C300.6,203.8,299,204.1,297.7,204.5z"/>
<path class="st1" d="M209.5,181.1c2.4-0.2,1.5,1.9,1.3,3.9c-1,11.6,1.1,24.5,7.3,33.8c5.9,8.9,15.2,13.9,25.6,15.9
	c0.6,0.1,2.1,0.2,2.6,0.4c0.8,0.3,1.1,1.5,0.2,1.8c-1.1,0.5-8.2-1.5-9.7-1.9c-15.3-5-24.1-16.2-27.2-32.1
	C208.9,198.8,207.7,183.8,209.5,181.1z M238.3,160.3c2.2-0.8,1.8,0.8,3,5.3c0.5,2.3,1.2,4.6,1.9,6.8s1.5,4.4,2.3,6.5
	c0.4,1.1,2.7,5.6,2,6.3c-1.6,1.9-3-3-3.6-4.5C242.4,177.1,237.2,162.7,238.3,160.3z M257.7,159c1.4-0.6,1.8,0,2.2,1.3
	c1.1,3.1,1.7,6.4,1.9,9.8c0.2,3.4-0.1,11.8-1.7,14c-2.5,0.4-1.3-1.7-0.8-5.1c0.7-5.4,0.6-11.6-1.1-16.9
	C257.8,160.9,257.3,160.2,257.7,159z M208.3,156.9l-1.6,1.9c-0.6,0.7-1.1,1.2-1.7,1.9c-5.9,7.5-9.1,14.8-12.5,23.7l-16.9,48.7
	c-0.4,1.1-1.7,4.4-1.7,5.6c2.3,0,3.8,0.2,6,0.2s4.3-0.1,6.5,0c2.9-0.3,7.6,0,10.8,0h32.9c14.3-0.1,28.4-1.4,42.7-1.1l12.7-2
	c3.6-0.9,7.6-2.6,10.5-4.4v-2.9c-0.3-0.5-0.2-1.9-0.1-2.6c-0.6-2.3,0.2-15,0.2-18.5c0.4-0.6-0.1-0.1,0.7-0.6
	c-1.3,0.1-0.3,0.1-0.7-0.2v-1.7l-5.6,0.9c-3.2,0.5-9.8,0.9-12.5,0.6c-1-0.1-2,0-3.1-0.1c-6-0.9-7.6-0.8-13.4-3.5
	c-0.7-0.4-1.3-0.8-1.9-1.3c-2-1.4-3.9-2.8-5.3-4.8c0.4-0.8,2.5-5.6,2.6-6.4c1,0,2.9,1.5,4.4,2.2c1.6,0.8,2.9,1.5,4.5,2.3
	c1.6,0.8,3.1,1.4,4.8,2.1c4,1.7,6,2.3,10.2,3.7l13.9,3.3c1.3,0.2,1.9,0.2,3,0.7c1.3-0.4,2.9-0.7,4.3-1c8.4-2.3,17.8-6.6,24.7-1.9
	c1.1,0.7,1.8,1.8,2.9,2.3c1.9-1.1,5.7-1.1,12.6-6.2c3.4-2.6,4.6-4.1,7-7.1l2-2.8c-0.3-1.2-1-1.4-1-2.3c-1-0.6-6-8.7-6.5-9.6
	c-1-1.5-6-8.8-6.1-10.3c-0.6-0.3-0.7-0.7-1-1.4c-0.9,0.2-1.6,0.8-2.7,1.6c-10.1,7.3-27.8,9.3-39.4,6.5c-7.6-1.8-12.4-3.4-19.4-6.9
	c-3.2-1.6-10.8-5.7-14.2-7.8c-2.2-1.4-10.2-6.4-12.2-7.1c-0.4-0.1-1-0.5-1.5-0.8c-4.1-2-8.7-4-13.7-4v-1.7l-0.2,0.7
	c0,0.2,0,0.4,0,0.6c0.2,9.6-9.1,17.1-17.9,16.1C210.6,160.8,209.2,157.6,208.3,156.9z"/>
<path class="st2" d="M332.7,207.9c1.8,4.3,3.2,6,0.7,11c1.2,1.1,2.7,2,4,3.2c1.3,1.2,2.6,2.3,3.9,3.5s2.2,2.4,3.5,3.7
	c4.3,4.2,12.4,16.3,15.4,21.8c15.3,28.4,23,60.7,24.3,94c0.6,16.5-0.3,32.5-2.7,48.7c-0.2,1.6-1,4.8-1,6.3l12.5,0.1
	c-0.6-8.7-0.7-14.2,2.1-22.1c1-3,2.4-6.1,4-8.5c0.8-1.3,1.5-2.4,2.5-3.7c0.9-1.3,1.8-2.3,2.8-3.5c0.7-0.8,2.1-2.3,3-3.1
	c3.4-2.9,7-5.5,11.3-7.5c12.9-6,28.9-6,41.7-0.5c12,5,19.6,14.8,22.8,27.2c1.3,5,2,11.7,1.7,17.1c-0.1,1.7-0.6,4.3-0.5,5.6l5.8,0.1
	c1.3-8.4,0.6-19.4-1-27.3c-3.2-14.9-11.5-27-25.9-32.8c-5.6-2.3-11.9-3.5-18.1-3.9c-2.3-0.1-5,0.1-7.1-0.2
	c-4.2-16.9-9.3-32.4-14.9-48.2c-2.7-7.4-5.8-15.5-9-22.5c-1.8-3.8-8.4-18.4-10.5-21c-8.9-0.1-17.2-0.4-21.5-6.1
	c-3.4-4.6-3.6-13.8,0.5-18.5c0.7-0.7,1.4-1.2,1.9-1.8c-1-1.8-6.7-6-8.9-7.4c-3.3-2-7.3-3.9-12-4.5
	C357.2,206,339.6,206.6,332.7,207.9z"/>
<path class="st2" d="M175.4,348.9c-0.1,0-4.3,2.3-4.8,2.7c-1.4,0.9-3.3,2.3-4.2,3.3c-1.4,1.4-2.5,2.4-3.7,3.9
	c-3.5,4.3-6,9.5-7.7,15.1c-0.6,1.9-1.1,3.9-1.6,5.9c-0.1,0.8-0.4,2.6-0.9,3c-1.1,0.8-1.9-0.2-1.6-1.6c2.1-12.4,7-22.2,16-29.6
	c1.2-1,5.4-3.9,7-4.4C175.3,346.7,175.9,348.1,175.4,348.9z M133.6,376.2c0,3.6,0.1,11.4,1.1,14.2h23.3c0.5-3.5,0.7-6.1,1.6-9.5
	c2.1-7.9,7-16,12.6-21c7.4-6.8,17.8-12.9,32.2-12.9c23.4,0,40.1,11.7,44.8,33.4c0.9,4.4,0.8,7.8,1.3,10H274c0.8-3.4,1.1-8.4,1.1-12
	c0-38.6-31.8-70.8-70.3-70.8c-31.6,0-55.6,11.9-65.8,39.2C135.6,355.4,133.6,366,133.6,376.2z"/>
<path class="st2" d="M435.8,366.8c8-1,16.4,1.4,21.2,5.3c4.6,3.8,7.8,9.6,8.5,18c1.2,15.4-8.9,27.8-23.4,29.7
	c-15.8,2-28-9.6-29.7-23.2C410.5,380.6,422.1,368.5,435.8,366.8z M435.8,349.3c-9,0.8-17.3,3.9-23.8,9.2c-2.3,1.8-3.8,3.4-5.7,5.3
	c-2.8,2.9-6.5,8.7-8.3,13.7c-2.2,5.8-3.3,12.2-2.8,19.1c1.8,23,22,42.5,47.5,40.6c12.6-1,21.5-6.5,29.4-14.7
	c16.1-16.6,14.6-49.4-2.1-63.5C462.1,352.4,449.5,348.1,435.8,349.3z"/>
<path class="st2" d="M212.2,427.4c-0.8-2.6,1.2-1.9,3.2-2.4c7.5-2.1,16.8-8.8,20.1-16.2c0.4-0.9,1.1-4.1,2.5-2.8s-2.7,7.4-3.3,8.2
	c-1.7,2.4-3.6,4.3-5.9,6.1C226.4,422.2,216.6,429,212.2,427.4z M201.1,366.8c8-1.1,16.4,1.5,21.2,5.3c14.5,11.5,11.5,44.2-14.9,47.7
	c-15.7,2.1-28-9.8-29.7-23.2C176,382.1,185.9,368.8,201.1,366.8z M201,349.3c-23.5,2-42.4,21.7-40.7,47.4
	c1.5,22.8,22.1,42.4,47.4,40.6c23.5-1.8,42-22,40.6-47.5c-0.8-14.8-5.6-23.8-13.3-30.8C227.7,352.4,214.1,348.2,201,349.3z"/>
<path class="st0" d="M435.8,366.8c-13.8,1.7-25.3,13.8-23.3,29.8c1.6,13.7,13.9,25.2,29.7,23.2c14.5-1.8,24.6-14.3,23.4-29.7
	c-0.7-8.4-3.9-14.2-8.5-18C452.2,368.2,443.9,365.8,435.8,366.8z"/>
<path class="st0" d="M201.1,366.8c-15.2,2-25.1,15.3-23.3,29.8c1.6,13.5,14,25.3,29.7,23.2c26.3-3.4,29.4-36.2,14.9-47.7
	C217.5,368.3,209.1,365.7,201.1,366.8z"/>
<path class="st2" d="M159.4,317c0.6-0.2,4.6-2.7,5.8-3.3c15.4-8.2,39.5-10.3,56.2-6.3c10.3,2.5,18.9,7,25.9,12.2
	c5.7,4.2,10.2,8.6,14.4,14c0.7,1,1.3,1.7,2,2.7c0.5,0.8,1.4,2.3,2,2.8c0.2-1.9,0.1-14.1,0.1-17.1c0-4.1,0.4-12.8-1.1-16l-33.1-2.5
	c-6.8-0.5-26.3-2-31.8-4.1c-3-1.2-5.8-3.2-7.8-5.5c-1.4-1.5-0.7-1.2-3.4-1.2c-10.3,0.1-19.9-1.3-26.4,9.3
	C159.4,306.5,159.2,310.9,159.4,317z"/>
<path class="st0" d="M234.2,134.1c1,1,3.8,2.2,4.6,3l-1.6-0.1c-1.9,5.2-8.8,6.2-10.7,4.8c0.9-1.4,1.9-2.1,2.9-3.3
	c1-1.1,1.4-2.1,2.4-3.5l2,0.1L234.2,134.1z M258.5,124c0,6.5-5.5,10.5-10.5,12.4c-4.3,1.7-3.4-0.5-4.9-1.4c-3.4-2-2.2,0.8-5.4-1.2
	c-6.2-3.9-4.2-3.5-4.7-6.7c-0.2-1.2-0.7-2-0.3-2.9c1.9-3.8,3.3-5,4.4-10.6c0.9-4,0.4-4.3,0.7-6.7c0.1-1.1,1.1-1.7,1.7-2.3
	c0.5-0.5,1.1-1.4,2.1-1.3c1.7,0.3,4.3,1.4,5.5,2.1c3.4,1.9,5.4,4.4,7.4,7.6C256.3,115.7,258.5,119.9,258.5,124z M222.8,142.6
	c-1.4-0.3-6.4-4.6-7.3-5.4c-1.8-1.9-3.9-4.4-5.3-7.4c-5.7-12.7,6.6-26.6,15.7-32.5c4.2-2.7,9.6-4.3,14.8-2.3c1,0.4,3.3,1.4,4,2.3
	c-0.6,0.8-1.6,1.4-2.5,2.1c-2.2,1.7-5,4.7-6.9,6.6c-2.7,2.8-6.2,6-6.6,11.5c-0.5,5.9,4,8,1.9,14.9c-0.7,2.5-2,4.2-3.5,5.6
	C225.5,139.4,224.4,141.1,222.8,142.6z M208.3,156.9c0.9,0.7,2.3,3.9,7.1,4.4c8.7,1,18.1-6.5,17.9-16.1c0-0.2,0-0.4,0-0.6l0.2-0.7
	l0.7-0.4c2.2-1,3.2-1.7,4.7-3.9c1.4,0,3.7,0.4,5.5,0.2c0.7-0.1,0.9-0.2,1.7-0.2c1.1,0.1,2.3,0.5,3.5,0.4c1.6,0,1.7-0.4,1.7-2.1
	c1.8-1,4.5-2.5,5.8-4.1c0.3-0.3,0.6-0.6,0.9-1c0.6-0.7,1.3-1.7,1.7-2.4c3.2-6.2,0.5-13-2.7-18.5c-1.3-2-1.4-1.9-2.6-3.4
	c-0.4-0.5-0.5-0.7-1-1.2c-0.6-0.6-1.4-1.2-2.1-1.7c-1.9-1.5-1.9-1.3-3.6-2.4c-2.7-1.7-2.9-1.2-4.3-1.9c1.3-2,5.2-2.6,3.5-4.8
	c-0.2-0.2-1.3-1.1-1.7-1.4c-1.8-1.4-5.8-3-8.9-3.1c-6.6-0.1-12.4,3.3-16.9,7.5c-1.3,1.2-2,1.6-3.4,3.3c-0.1,0-0.1,0-0.1,0.1
	c-4.7,5.6-9.7,11.5-9.7,20c0,4.4,1.1,6.7,2.6,9.7c-2.2,1.1-4.8,0.9-8.4,5.1c-0.4,0.5-0.8,1.1-1.1,1.7c-4.1,7.4,0.3,16.1,8.2,16.1
	L208.3,156.9z"/>
<path class="st2" d="M309.2,378.2c0,2.5,4.1,16.2,5.2,18.5h63.5c0-3.8-4.3-8.6-6.2-10.1c-3.1-2.3-4.9-2.4-8.1-4.2
	c-1-0.6-1.7-1.3-2.7-1.7c-0.5,0.9-2.7,2.9-3.6,3.8c-0.7,0.7-0.8,1.1-1.7,0.5c-0.4-1,1.2-2.1,1.8-2.7c0.7-0.8,2-1.8,2.5-2.6
	c-0.3-0.6-0.7-1-1.2-1.4c-1.2,0.8-5.2,4.3-6.9,3.5c-0.2-1.3,0.5-1.1,2.7-2.4c1.1-0.8,2.2-1.6,3.2-2.2c-0.3-1-1-1.7-1.4-2.6
	L309.2,378.2z"/>
<path class="st1" d="M13.1,392.4c0.2,0.8,7.6,10.5,8.3,11.5l6.4,8.4c0.5,0.7,1.8,2.5,2.3,2.9c0.7-0.2,12.9-9.3,14.3-10.6
	c1.4-1.1,7.6-5.4,8.3-6.5c-0.1-0.6-0.5-0.9-0.9-1.4L36,375.6c-0.9,0.2-19,14-21.4,15.8C14.1,391.7,13.8,392.2,13.1,392.4z"/>
<path class="st2" d="M376.1,156.4c1.6-0.5,2.3,0.6,0.1,1.3c-2.2,0.7-4.1,1.8-5.8,3.2c-1,0.7-1.5,1.4-2.2,2.1
	c-1.1,0.9-3.4,0.2,1.9-3.7C371.8,158.1,373.6,157.2,376.1,156.4z M337.6,165.6c0.1,1.4,5.1,8.7,6.1,10.3c0.5,0.8,5.5,8.9,6.5,9.6
	c0.8-1.5,2-3.3,3-4.7c4.8-7.6,15.1-9.9,23.5-15.2c1.5-0.9,3.4-2.1,4.1-3.5c1.3-2.6-1-3.8-2.3-4.6c0.4-2.6,0.4-3.2-1.9-3.9
	c-1.9-0.6-3.6-0.2-5.3,0.5c-5.5,2.4-5.6,6.4-6.9,5c-0.8-1.1,2.5-3.9,3.1-4.4c1.9-1.6,2.9-1.5,5.2-2.7c-1-1.3-1.9-1.7-3.8-0.8
	c-1.3,0.7-2.3,1.3-3.7,1.9c-3.5,1.6-5.2,1.4-9.2,1.8c-0.4,0.8-0.6,3.5-0.9,4.7c-0.6,3.1-3.3,10.9-6.1,9.3c-0.3-1.1,0.3-1.1,0.9-1.6
	c3.2-2.5,4.1-10.4,4.7-14.1c0.7-4.4,1-4.7,4.2-6.6c5.3-3.3,2.3-4.5-0.8-3.4c-6.6,2.3-12.6,11-15.4,17
	C341.1,163.2,340.9,162.8,337.6,165.6z"/>
<path class="st2" d="M224.3,126.4c0.6,1.5-0.9,2.5-2.6,4.3c-0.5,0.5-2.7,3.9-4,2.7c-1.2-1.1,1.1-2.7,2.4-4.3
	C221.9,127.1,222.8,125.7,224.3,126.4z M215.3,130.2c-0.8-1.7,1.5-3.1,2.5-4.2c1.7-2,2.6-3.4,4.1-2.9c0.7,1.9-1.6,3.2-2.6,4.4
	C217.9,129.2,216.8,130.9,215.3,130.2z M222.8,142.6c1.6-1.5,2.7-3.2,4.1-4.6c1.5-1.4,2.8-3.1,3.5-5.6c2.1-6.8-2.4-8.9-1.9-14.9
	c0.4-5.4,3.9-8.6,6.6-11.5c1.9-1.9,4.7-4.9,6.9-6.6c0.9-0.7,1.9-1.3,2.5-2.1c-0.7-0.9-3-1.9-4-2.3c-5.2-2-10.6-0.4-14.8,2.3
	c-9,5.8-21.4,19.8-15.7,32.5c1.4,3,3.5,5.5,5.3,7.4C216.4,138,221.4,142.3,222.8,142.6z"/>
<path class="st2" d="M74.2,298.2c10.8,7,22.8,14.1,33.7,21.1c1.5,1,4.1,2.9,5.6,3.5c1.1-1.6,1.4-7.7,1.3-10.2
	c-0.9-18.4-22.3-30.9-39.4-22.5c-1.9,0.9-6,3.1-6.8,4.4L74.2,298.2z"/>
<path class="st0" d="M106.4,115.2h71.9v72.2h-71.9V115.2z M104.2,189.5h76.7v-76c0-0.5-0.2-0.6-0.7-0.6h-76V189.5z"/>
<path class="st2" d="M296.8,206.8c-0.8,0.5-0.3,0-0.7,0.6c0,3.5-0.8,16.2-0.2,18.5c1.9-0.6,3.1-1.8,5.9-1.9c2.5-0.1,4.8,1.1,7.4,0.4
	c0.3-1.3,0-3.6,2.5-4.8c2.5-1.1,4.1,0.3,5.5,1.3c1.5,1.1,2,3,0.9,5.1c-1.2,2.4-2.9,2-4.1,3.2c0.9,1.7,2.4,1.7,4.5,0.9
	c1.8-0.8,2.8-1.1,3.3-3.2c1.7-6.5-2.2-8.6-1.7-10.4c2.4-0.7,3.7,5.5,3.5,8.1c-0.1,1.3-0.5,2.4-0.5,3.4c4.1-0.7,3.4-6,3.7-7.8
	c0.2-1.6-0.3-3.3-0.9-4.7c-0.6-1.2-2.2-3-1.6-4c2.4-0.3,3.9,7.3,4.2,8.1c9.5-5.2-1.3-16.2-5.8-17.7
	C316.4,199.9,303.6,205.8,296.8,206.8z"/>
<path class="st2" d="M242.8,117.1c1.8-1,2.9,1.5,1.5,2.4C242.7,120.4,241.2,118,242.8,117.1z M247.8,112.9c-0.8-0.5-0.8-0.3-0.7-1.3
	c1.2-0.7,4.1,1.8,4.8,2.5c0.6,0.5,4.1,2.9,3.4,4c-0.6,1.1-1.7-0.5-2.1-1c-0.6-0.5-1.4-1.3-2-1.8L247.8,112.9z M258.5,124
	c0-4.1-2.2-8.3-3.9-11.1c-2-3.2-4-5.7-7.4-7.6c-1.2-0.7-3.8-1.8-5.5-2.1c-1-0.1-1.6,0.8-2.1,1.3c-0.6,0.6-1.6,1.2-1.7,2.3
	c-0.3,2.4,0.2,2.7-0.7,6.7c-1.1,5.5-2.5,6.7-4.4,10.6c-0.4,0.9,0.1,1.7,0.3,2.9c0.5,3.2-1.5,2.8,4.7,6.7c3.2,2,2-0.8,5.4,1.2
	c1.5,0.9,0.6,3.1,4.9,1.4C253,134.5,258.5,130.5,258.5,124z"/>
<path class="st2" d="M250.1,400.3h127.8c0.9-0.2,0.7-0.2,0.9-1.4l-65.6-0.1c-1.2-1.6-1.6-4.5-2.5-6.3h-60L250.1,400.3z"/>
<path class="st0" d="M109.4,118.9c0,1.5,1.9,2.9,3.5,4.4c2.8,2.9,27,26.9,27.7,27.9c-0.6,1-21.6,21.8-23.5,23.7
	c-0.6,0.6-7.7,7.3-7.7,8c0,0.8,0,1.3,1.1,1.3c1.1,0,1.7-1,2.3-1.6l5.9-5.9c1.9-1.9,23-22.8,23.7-23.8c1,0.7,2.9,2.8,3.9,3.8
	l25.7,25.8c0.9,0.9,1.3,1.7,2.7,1.7c0.9,0,0.8-0.8,0.8-1.3c0-0.7-1.3-1.7-1.7-2.1c-3.6-3.5-28.9-28.7-29.6-29.7
	c0.6-1,18.8-18.9,21.5-21.6l3-3c0.1-0.2,0.3-0.4,0.4-0.5l3.6-3.5c0-0.1,0.1-0.2,0.2-0.3l0.8-0.7c1.2-1.1,3.1-3.6,0.4-3.6
	c-0.7,0-7.4,7.1-8,7.7c-1.9,1.9-22.8,23.1-23.8,23.8c-0.7-1.1-24.8-24.8-27.6-27.7c-0.6-0.6-3.5-3.8-4.1-3.8
	C110.2,118,109.4,118,109.4,118.9z"/>
<path class="st0" d="M336.6,164.2c0.3,0.7,0.4,1.1,1,1.4c3.3-2.8,3.5-2.4,5-5.5c2.8-6,8.7-14.7,15.4-17c3.1-1.1,6.1,0.1,0.8,3.4
	c-3.2,1.9-3.5,2.2-4.2,6.6c-0.6,3.7-1.5,11.6-4.7,14.1c-0.6,0.5-1.2,0.5-0.9,1.6c2.8,1.5,5.5-6.2,6.1-9.3c0.3-1.2,0.5-3.9,0.9-4.7
	c4-0.4,5.7-0.2,9.2-1.8c1.4-0.6,2.4-1.2,3.7-1.9c1.9-0.9,2.8-0.5,3.8,0.8c-2.3,1.2-3.3,1.1-5.2,2.7c-0.6,0.5-3.9,3.3-3.1,4.4
	c1.3,1.4,1.4-2.6,6.9-5c1.7-0.7,3.4-1.1,5.3-0.5c2.3,0.7,2.3,1.3,1.9,3.9c1.3,0.8,3.6,2,2.3,4.6c-0.7,1.4-2.6,2.6-4.1,3.5
	c-8.4,5.3-18.7,7.5-23.5,15.2c-1,1.4-2.2,3.2-3,4.7c0,0.9,0.7,1.1,1,2.3c0.6-0.8,1.1-1.6,1.6-2.4c0.6-0.9,1-1.7,1.6-2.6
	c2.9-4.4,4.6-5,8.8-7.4c1-0.5,1.7-0.9,2.7-1.4c3.1-1.6,11.1-5.7,13.6-7.4c6.7-4.6,2.9-9.6,1.4-10c0-2.7-0.7-4.3-4-5.1
	c-2.1-0.5-1.7,0.1-3.2-1.3c-4.6-4.9-6.7,2.7-17,2.7c0-4.8,9-4.6,6.8-10.1c-2.3-5.7-11.7,0.5-15.1,4.6c-1.6,1.8-3.4,3.8-4.8,6.3
	c-1.1,2-2.2,3.6-3,5.8c-0.9,2.3-0.7,1.4-2.9,3.6C336.7,164.1,337,163.4,336.6,164.2z"/>
<path class="st0" d="M68.6,294.6c0.8-1.3,4.9-3.5,6.8-4.4c17.1-8.3,38.5,4.1,39.4,22.5c0.1,2.4-0.2,8.5-1.3,10.2
	c-1.5-0.6-4.1-2.5-5.6-3.5c-10.9-7-22.9-14.1-33.7-21.1L68.6,294.6z M64.9,294.8c0.5,0.6,7.5,4.8,9.2,5.9
	c6.8,4.5,14.8,9.1,21.8,13.8c1,0.7,2,1.3,3,1.9l12.5,7.8c0.8,0.5,2.6,1.8,3.4,1.8c0-0.7,0.5-1.6,0.7-2.4c2.5-7.6,1.7-17.7-2.6-24.2
	c-3.3-5-7.8-9-13.5-11.6c-8.4-3.8-17.2-3.8-25.5,0.4l-3.7,2.1C68.5,291.5,66,293.2,64.9,294.8z"/>
<path class="st2" d="M158.5,400.3l-0.6-7.8h-30.6c-2.1,0-6.5-0.3-6.3,4c0,1.5,0.9,2.6,1.8,3.2c1.8,1,12.8,0.6,15.1,0.6
	C144.8,400.3,151.6,400.3,158.5,400.3z"/>
<path class="st2" d="M323.2,248.6c-3,1.5,3.7,3.3,4.5,3.7c6.8,2.7,11.3,5.4,14.8,12.6c6.7,14.2,9.1,45.9,10.6,62.6l2.2,29.8
	c0.1,1,0.1,3.8,1.7,2.6c1-0.8,0.2-6.7,0.1-8.2l-1.9-25.5c-1.5-16.8-3.9-47.9-10.9-62.4c-2-4.2-4.9-7.7-8.3-10
	C334.6,252.8,324.8,247.9,323.2,248.6z"/>
<path class="st1" d="M104.2,91.4c0,2.6,0.2,3.9,2.1,5.9c4.7,4.6,12.4,0.9,12.4-4.8c0-4.7-3.5-7.4-7.1-7.5h-0.4
	c-1.6,0-3.3,0.6-4.6,1.8C105.6,87.8,104.2,89.6,104.2,91.4z"/>
<path class="st0" d="M209.5,181.1c-1.8,2.7-0.6,17.7,0.2,21.8c3.1,15.9,12,27,27.2,32.1c1.4,0.4,8.5,2.4,9.7,1.9
	c0.9-0.3,0.6-1.5-0.2-1.8c-0.5-0.2-2-0.3-2.6-0.4c-10.5-2-19.7-6.9-25.6-15.9c-6.2-9.2-8.3-22.2-7.3-33.8
	C211,183,212,180.9,209.5,181.1z"/>
<path class="st0" d="M11.3,362.3c0.5-1.1,3.1-3,4.3-4.1l4.2-3.7c0.7-0.7,2-2.1,2.8-2.4l4.2,14.4C24.9,366.4,14.5,362.8,11.3,362.3z
	 M6.7,363.3l23.3,6.4l-4.8-16.4c-0.3-0.8-0.5-1.8-0.8-2.6c-0.3-0.8-0.6-2.1-0.9-2.8c-0.5,0.4-0.6,0.5-1,0.9L8.7,361.2
	C7.9,361.8,7.2,362.5,6.7,363.3z"/>
<path class="st1" d="M56.9,341.7c0.1,0.7,3.1,9.9,3.4,10.6l5.3-1.6c1.5-0.5,3.8-1.2,5-1.8c-0.1-1.3-2.8-9.6-3.4-10.6l-7.7,2.6
	C58.7,341.1,57.8,341.5,56.9,341.7z"/>
<path class="st1" d="M362.1,133.8c0.5,0.7,5.8,4.2,6.6,4.8c0.9,0.7,6.1,4.5,6.7,4.7l1.9-15.6c-1.2,0.3-2.4,0.9-3.7,1.4l-9.8,3.7
	C363.2,133.1,362.5,133.3,362.1,133.8z"/>
<path class="st2" d="M11.3,362.3c3.2,0.5,13.6,4.1,15.6,4.1L22.6,352c-0.8,0.3-2.1,1.7-2.8,2.4l-4.2,3.7
	C14.4,359.3,11.8,361.2,11.3,362.3z"/>
<path class="st0" d="M175.4,348.9c0.5-0.8-0.1-2.2-1.6-1.6c-1.6,0.5-5.8,3.4-7,4.4c-8.9,7.3-13.9,17.2-16,29.6
	c-0.3,1.4,0.5,2.4,1.6,1.6c0.5-0.4,0.8-2.2,0.9-3c0.5-2,1-4,1.6-5.9c1.7-5.6,4.2-10.8,7.7-15.1c1.2-1.5,2.3-2.5,3.7-3.9
	c0.9-1,2.8-2.4,4.2-3.3C171,351.2,175.3,348.9,175.4,348.9z"/>
<path class="st2" d="M360.3,376.7l1,1.3c1.1-0.4,0.6-1,1.9-0.6c0.5,1.3-0.1,0.9-0.5,1.8c4.4,2.9,7.9,3.6,10.3,5.6l0.5-0.6
	c1.3-1.4,3.6-3.3,4.4-4.5c-0.3-0.6-0.6-1-1.2-1.5c-1.3,0.6-4.9,4.3-6.9,3.7c-0.4-1.4,0.2-1,2.7-2.6c1.1-0.7,2.4-1.4,3.1-2.4
	l-1.3-2.3c-2.4,0-4.9,0.3-7.4,0.5C362.9,375.3,361.3,374.8,360.3,376.7z"/>
<path class="st0" d="M128.2,92.5c0-7.3,9.7-6.3,9.7-0.7c0,3.3-2.2,5.4-4.9,5.3C130.5,97.2,128.2,95.2,128.2,92.5z M125.8,92.1
	c0,6.8,8.1,9.7,12.4,5.2c4.4-4.6,1.5-12.4-5-12.4C129.1,85,125.8,88.1,125.8,92.1z"/>
<path class="st0" d="M77.8,345.1c0,2.2,0.6,4.8,0.8,7.1c0.1,1.4-0.5,0.7-6,1.4c-2,0.3-2.9,0.5-1.6,2.5l7.9-0.9
	c0,1.2,0.8,7.6,1.1,8.2c2.5,0.6,2.1-1.4,1.6-4.7c-0.1-0.9-0.3-2.6-0.3-3.7c1.4,0,2.9-0.3,4.5-0.4c2.3-0.2,3.6-0.1,3.6-1.7
	c0-1.4-2.6-0.8-3.8-0.7c-0.6,0.1-4.1,0.6-4.4,0.3c-0.9-0.5-0.3-8-1.9-8C78.2,344.5,78.6,344.6,77.8,345.1z"/>
<path class="st0" d="M212.2,427.4c4.4,1.6,14.3-5.2,16.6-7c2.3-1.8,4.2-3.7,5.9-6.1c0.6-0.8,4.7-6.9,3.3-8.2s-2.1,1.9-2.5,2.8
	c-3.3,7.3-12.6,14.1-20.1,16.2C213.4,425.5,211.4,424.8,212.2,427.4z"/>
<path class="st0" d="M390.8,410.7c-0.2,0.6-0.3,0.4-0.3,0.9c0,2.7,2.8,9.3,4.3,11.9l2.1,3.5c0.5,0.6,0.7,0.9,1.2,1.4
	c0.4,0.5,0.7,1.1,1.2,1.6c1.6,1.6,7.1,7,9.3,7c0.9,0,1.9-1.8,0-2.6c-2.1-0.8-4.8-3.2-6.4-4.8l-3.5-4.2c-2.4-3.3-4-7.1-5.1-11.1
	C392.8,411.9,393.2,409.8,390.8,410.7z"/>
<path class="st0" d="M411.3,216v29.6c0,1.4,2.3,1.7,2.3-0.4V216C413.6,214.6,411.3,214.6,411.3,216z"/>
<path class="st2" d="M247.5,185.3c0.7-0.7-1.6-5.2-2-6.3c-0.8-2.1-1.6-4.3-2.3-6.5s-1.4-4.5-1.9-6.8c-1.2-4.5-0.8-6.1-3-5.3
	c-1.1,2.4,4.1,16.8,5.6,20.5C244.5,182.3,245.9,187.3,247.5,185.3z"/>
<path class="st2" d="M260.1,184c1.6-2.2,1.9-10.6,1.7-14c-0.2-3.3-0.8-6.6-1.9-9.8c-0.4-1.3-0.8-1.9-2.2-1.3c-0.4,1.2,0.1,1.9,0.5,3
	c1.7,5.3,1.8,11.5,1.1,16.9C258.8,182.3,257.6,184.4,260.1,184z"/>
<path class="st2" d="M233.9,135.1l-2-0.1c-1,1.4-1.4,2.4-2.4,3.5c-1,1.2-2,1.9-2.9,3.3c1.8,1.4,8.7,0.4,10.7-4.8l1.6,0.1
	c-0.8-0.8-3.6-2-4.6-3L233.9,135.1z"/>
<path class="st0" d="M97.5,368c0,1.3,0.7,1.2,1.8,1.6c4.8,1.9,11,3.9,15.4,5.8c1.3,0.5,2.2,0.3,2.2-1.2c0-0.9-2.7-1.5-4.3-2.1
	c-1.9-0.7-13.3-5.2-14.3-5.2C98.2,366.9,97.5,367.5,97.5,368z"/>
<path class="st2" d="M374,385.4c0.6,1.2,2.4,1.8,4.4,5.7c0.3,0.5,0.8,1.8,1.1,2.2c0.4-0.8,1.5-10,1.5-11.4l-1.9-1.3
	C377.7,381.8,375.3,384.9,374,385.4z"/>
<path class="st0" d="M100.6,381c-0.3,1-0.8,2.3,1.7,2.3h13.2c1.7,0,1.9-1.1,1.3-2.3C115.1,380.6,101.8,380.5,100.6,381z"/>
<path class="st0" d="M224.3,126.4c-1.5-0.7-2.4,0.7-4.2,2.7c-1.3,1.6-3.6,3.2-2.4,4.3c1.3,1.2,3.5-2.2,4-2.7
	C223.4,128.9,224.9,127.9,224.3,126.4z"/>
<path class="st0" d="M215.3,130.2c1.5,0.6,2.6-1,4-2.7c1-1.2,3.3-2.5,2.6-4.4c-1.5-0.5-2.4,0.9-4.1,2.9
	C216.8,127.1,214.5,128.5,215.3,130.2z"/>
<path class="st0" d="M376.1,156.4c-2.5,0.8-4.3,1.7-6,2.9c-5.3,3.9-3,4.6-1.9,3.7c0.7-0.7,1.2-1.4,2.2-2.1c1.7-1.4,3.6-2.5,5.8-3.2
	C378.4,157,377.7,155.9,376.1,156.4z"/>
<path class="st0" d="M247.1,111.5c-0.1,1-0.1,0.8,0.7,1.3l3.4,2.4c0.6,0.5,1.4,1.3,2,1.8c0.4,0.5,1.5,2.1,2.1,1
	c0.7-1.1-2.8-3.5-3.4-4C251.3,113.4,248.3,110.8,247.1,111.5z"/>
<path class="st0" d="M242.8,117.1c-1.6,0.9-0.1,3.3,1.5,2.4C245.7,118.6,244.6,116.1,242.8,117.1z"/>
</svg>
