<?xml version="1.0" encoding="utf-8"?>
<!-- Generator: Adobe Illustrator 24.0.1, SVG Export Plug-In . SVG Version: 6.00 Build 0)  -->
<svg version="1.1" id="Layer_1" xmlns="http://www.w3.org/2000/svg" xmlns:xlink="http://www.w3.org/1999/xlink" x="0px" y="0px"
	 viewBox="0 0 500 500" style="enable-background:new 0 0 500 500;" xml:space="preserve">
<style type="text/css">
	.st0{fill-rule:evenodd;clip-rule:evenodd;fill:#023E57;}
	.st1{fill-rule:evenodd;clip-rule:evenodd;fill:#BF353E;}
</style>
<g>
	<path class="st0" d="M305.6,374l-0.1,100.3h-21.4l1.3-19.3l11.6,1.5L305.6,374z M196.8,445.9c-0.8,1.9-5.3,7.2-6.6,8.9
		c-5.3,6.7-18.4,19.7-26.9,19.5c-13.1-0.4-12.1-37.4-9.8-49c1.5,0.4,3.7,1.8,5.3,2.5c1.9,0.9,3.5,1.7,5.4,2.6L196.8,445.9z
		 M236.3,362.6c-0.4,5.9-4.5,35.4-5.4,42.1c-0.9,6.9-1.8,13.8-2.8,21c-0.9,6.8-2.1,14-2.8,20.9l6.8,1c-0.5,2.6-3.4,6.3-4.6,8.3
		l7.8,5.6c1.3,0.9,2.5,1.7,3.9,2.7c1,0.7,3.5,1.6,2.3,3.2c-0.9,0.6-6.1-3.6-7.8-4.7c-2.2-1.5-5.4-4.1-7.5-5.1l-4.2,4.7
		c0.8,1.1,2.2,2,3.2,2.9l6.2,5.3c1.5,1.2,3.1,2.1,2.2,3.1c-0.5,0.5-0.9,0.7-2.1-0.4l-4.7-4.1c-1.1-0.9-2.2-1.8-3.2-2.6
		c-1.2-1.1-2.1-1.7-3.1-2.8l-8.3,6.4c-3.8,2.6-6.3,4.4-10.2,4.4c-6.9,0-23.8,0.3-29.2,0c0.8-0.8,2.2-1.6,3.2-2.2
		c9.9-6.8,22.1-21.5,27.8-32.1c5.2-9.5,24.3-63.8,30.2-78.7c0.5-1.6,1.1-2.9,1.7-4.6c0.4-1.1,1.4-3.3,1.6-4.2L236.3,362.6z
		 M203.2,288c1,0.2,2.1,1.2,2.6,1.8c-0.6-0.1-1.3-0.3-1.9-0.5C202.8,288.8,203,289.1,203.2,288z M224.6,245.1
		c-1.3-3.7-3-6.4-1.9-9.1c1.8-4.7,8.6-23.7,9.9-26.4l10,8.4c3.5,2.6,6.8,5.2,10.3,7.9c6.1,4.6,16.3,10.7,24.1,12.6L251,307.7
		l-20.3-8.3c5.4-1.7,7.2-2.6,9.9-6.2c1.1-1.5,0.7-1,2.7-1.5c2.9-0.8,5.3-2.5,6.3-5.6c2.7-9-9.8-18.8-10.1-21.1
		c1.3-0.5,2,0.5,3.1,1.2c12.4,7.9,18.9,1,10.1-9.9C247.1,249.5,233.5,246.5,224.6,245.1z M317.5,162.6c1.5-1,2.8-2,4.4-3.1
		c4.2-3,9-5.9,13.5-8.5c3.1-1.9,16.6-9.7,19.2-10.4c0.5,1.5,1.2,2.6,2,4.1c1.9,3.8,3.8,9.1,5,13.2c6.9,23.2,2.6,48-13.7,64.9
		c-8.6,9-24.2,17.1-42.3,17.1h-4.2c-17.3,0-34.6-7.3-45.2-15.1c-6.6-4.9-19.7-14.7-24.6-20.7c-3.2-3.9-3.9-5.8-0.6-10.3
		c0.4,0.6,2.7,6.9,6.9,5.9l0.1-1.2c-1.7-1.6-3.1-0.6-4.5-3.7c-1.3-2.7-1.1-1.2-1.5-2.6c-1.3-5.5,0-9.8,6.5-10.2
		c0.6,1.7,1.2,3.1,2.1,4.2c0.7,0.9,2.5,3.2,3.5,1.8c0.8-1.2-0.7-1.1-2.5-3.7c-0.5-0.7-0.7-1.3-1.1-2.2c-0.4-1.1-0.8-1.2-1.5-1.8
		c3.4-12.5,18.9,4.5,24.5,5.9c0-1.7,0.3-6.6-0.5-7.5c-1.4-1.6-6.1-4-8.6-9.3c-0.1-0.3-0.5-1.1-0.5-1.6c-0.4-4.3,8.8,0.9,10.3,1.6
		c4.1,2.1,4.8,2.9,7.9,5.7c1.9,1.7,4,5.2,5.3,8.3c1.8,4.5,2.3,10,3.4,10.6l0.4,0.2c0.1,0.1,0.6,0.2,0.8,0.3l5.3,1.4
		c14.9,3.2,31.7-0.9,31.7-19C319.1,168.5,317.8,167.7,317.5,162.6z M246.3,173c0.1-1.3,8.5-23.5,9.7-26.5
		c10-25.5,19.4-52.7,29.4-78.6c3.2,0.8,8.6,3.5,11.9,4.8l23.8,10c3.7,1.6,8.2,3.2,11.8,5.1c0.1,1.5-25.3,68.9-29.5,79.9
		c-3.3,8.8-6.6,17.4-9.8,26.3c-1.8,0-3.9-0.4-5.7-0.8c-0.7-0.2-4.6-1-5.1-1.6c-0.7-0.9-1.1-8.3-6.2-15.5c-2.8-3.9-6.8-7.3-12.1-9.7
		c-2-0.9-5.7-2.7-8.1-3c-3.7-0.5-5.8,1.7-5,5.3c0.8,3.6,4.5,7.4,6.9,9.6c1.6,1.5,2.3,1.3,2.5,2.9c-2.1-0.9-5-3.3-6.9-4.5
		C249.3,173.6,249.5,174.6,246.3,173z M227.3,71c3.1-1.8,6-3.6,9.7-4.9c10.9-3.8,11.9,4,13.7,6.2c1.5,1.8,3.7,0.9,4.7-0.5
		c0.8-1.1,0.6-1.7,0.8-3.1c0.3-2.1,3-4.9,4.7-6c8.2-5.3,16.3,1.5,11.3,11.4c-1.8,3.6-4,5-8,6.6c-0.8,8.9-2.4,12.8-7.1,17.8
		c-10.3,10.7-24.5,7.8-32.4-3.9c-2.6-3.7-6.9-12.1-6.7-17.9L227.3,71z M291.9,51c0.3-2.1,3.4-9.8,4.4-11.7
		c6.3-11.9,19.5-15.5,32.3-10.4c6.9,2.8,13.1,8.6,15.4,16.1c2.8,9.2-1.5,17.8-4.3,25.3L291.9,51z M71.9,477c4.9,0,9.7,0,14.6,0
		c3.1,0,11.8,0.4,14.2-0.1c-1.1-0.4-0.7-1.6-0.4-2.6l-25.7,0l0.1-408.4h128.9c0.3,2.1-0.2,3.5,0.4,5.9c1.5,6,4.8,8.1,11.1,6.3
		c2.5,14.8,12,29.5,27.7,29.8c3.9-0.2,7-1,10-2.6c2.1-1.2,5.7-3.8,6.8-5.6c1.3-0.6,4-5.2,4.9-7.1c1.3-3,2.1-6.2,2.4-9.9
		c6-2.7,9.8-7.9,9.5-16.9h6.5l-11.1,29.8c-0.9,3.4-12.8,34.5-14.4,38.8c-1.7,4.5-13.5,37.1-14.5,38.2c-1,0.7-2.6,0.9-3.7,1.9
		c-1.3,1.1-1.3,1.6-2.3,3c-0.6,2-0.3,1.6-2.2,2.1c-1.1,0.3-1.9,0.7-2.7,1.4c-1.6,1.3-2.5,2.6-3,5.1c-0.3,1.7-0.2,2.5-0.1,4.2
		c0.2,3.4-6.5,5.9-0.5,14.3c1.8,2.6,2.2,1.5,1,4.9c-2.1,5.6-6.6,18.4-8.6,22.9c-2-6.8-2.2-17.8-1.5-25c0.4-4.5,3.2-19,5.3-21.8
		l1.6-4.2c-0.5-0.7-1.3-1.5-2.2-1.8c-4.3,10.3-7.6,20.5-7.9,33.3c-0.1,6.6,0.4,12.8,1.6,18.9c0.6,3.4,3.2,13.4,4.9,15.6
		c1.5,0.4,3.8,0.6,5.4,1c7.2,1.3,17.2,4.2,22.1,9.4c0.7,0.7,5,6.5,3.3,8.3c-2.7,3.2-12-4.4-12.9-4.9l-5.5,3.4
		c1.4,2.2,6.2,6.7,9.8,12.3c3.7,5.8,3.4,12.2-5.2,12.4c-1-2.8-4.5-8-6.2-10.6c-1.2-1.8-2.2-3.2-3.4-4.9c-1.1-1.6-3-5-4.2-3.7
		c-0.5,1.1,0.5,1.9,1.2,2.8c3.6,4.9,9.1,13.1,11.5,18.2c-1.3,2.3-5.2,5.2-9,5.4c-0.5-0.8-1-2.2-1.5-3.2c-3-6.2-7-11-12.1-15.2
		c-0.9-0.7-1.6-1.7-2.9-1.3c-0.5,1.6,0.7,2,1.6,2.7c5.4,4.5,9.9,10,12.7,16.8l-0.7,0.4c-3.3,1.1-7.2-1-9.9-2.7c-3-1.9-5.4-3.8-8-5.8
		c-4.2-3.2-13.1-9.1-15.9-12c-5.5-5.7-7.9-8.6-11.8-16.1c-18.3-34.6-5.8-81.7,13.1-107.9c-0.4-0.9-1.2-1.5-1.9-2.2
		c-6.8,9-13.8,23.1-17.5,36.1c-5.4,20.1-8.3,38.5-2.4,59.8c3.7,13.7,11.9,28.3,23.5,36.4c1.3,0.9,3.8,2.8,5.2,3.5l-28.6,76.5
		l-14.4,38.9c-1.6,4.2-3.4,8.5-4.8,12.9c-4.2,13.2-5.3,33.5-2.1,47.5c0.5,2.4,1.2,4.6,2.1,6.8c2.9,6.7,6.4,5.8-3.9,5.8
		c-5.3,0-16.7,0.3-20.7,0c0.3,1.1,1.1,1.8,1.6,2.8l24.1,0c0.6,0.3,0.5,0,0.3,0.4c-1.4,5.8-5.4,9.6-2.9,13.4c0.7,1.1,2.4,2.1,4,2.1
		c4.5,0,6.1-7.8,8.2-13.1c0.3-0.8,0.7-1.6,0.9-2.4h33.2c-3.4,3-5.3,6.9-5.8,12.7h91.2l0.5-6.1c0.2-2.3,0.3-4.3,0.3-6.6
		c7.1,0,14.2,0,21.2,0c4,0,3.3,1.4,3.3-7.2V353.1c0-7.7-0.3-8,0.5-15.5c0.2-1.9,0.3-3.3,0.3-5.2h0.5c0.1,1.2,0.9,3.2,1.3,4.3
		l4.3,12.5c0.9,2.7,2.1,5.4,3.2,8.2l6.5,15.8c2.7,6.6,11.2,23.8,14.9,30.1c3.3,5.8,6.8,12.1,10.5,17.6c3.8,5.7,8.8,12.9,13.2,17.8
		l4.2,4.4c1.4,1.4,4.4,4.4,6.4,4.9c1.1-0.8,3.8-3.6,5-3.9c0,1.3,0.1,1.3,0.3,2.3c2.1,0,11.3-1.5,14.5-2c1.1-0.2,3.9-1.1,3.7,0.7
		c-0.1,1.1-2.1,1-4.4,1.3c-3.4,0.5-11.4,1.9-13.8,1.8c0.7,1.4,0.3,4.7,0.3,6.6c2.7-0.1,5.5-0.2,8.3-0.3c1.2,0,7.2-0.7,7.9,0.2
		c1.6,2.1-5.5,1.6-7.1,1.7c-3.2,0.1-6.3,0.2-9.4,0.4c0,5.8-2.3,14.9-5,20.2c-1.4,2.8-3.1,5.8-2,10.3c0.4,1.6,1.1,3.5,1.7,4.6
		c0.6,1.1,1.8,3,2.8,3.6l37.4-34.6c0.8-0.8,1.3-1,2.1-1.8l27.3-25.2l-15.5-19.3c-0.9-1.1-1.7-2-2.6-3.2c-1-1.2-1.7-2.1-2.6-3.2
		c0.9-1.4,2.1-1.6,3-3c-1.8-2.7-4.4-5.4-6.7-8.8c-1.1-1.6-2.2-2.9-3.3-4.5c-1.1-1.5-2.1-3-3.2-4.5l-12-18.9
		c-1.1-1.7-1.9-3.2-2.9-4.9c-0.5-0.9-0.9-1.6-1.3-2.6c-0.5-1.1-0.8-1.5-1.4-2.5c-2.1-3.8-5.6-11.6-7.4-15.9c-0.8-2-1.3-3.5-2.1-5.7
		l-3.4-12.1c-3-12-5.8-25.9-8.2-38.2c-3.5-17.1-6.4-34.9-9.7-52.2l-2.4-13.4l-2.8,0.4c1.3,8.7,3,17.6,4.6,26.4
		c4.7,25.4,9.3,51.7,15.3,76.6c6,24.7,16.3,42.7,29.7,62.5c2.1,3.1,4.2,6.2,6.4,9.1l6.4,8.8c-1.9,1.7-4,3.5-6,5
		c-5,3.8-40.6,33.8-42.4,34.5c-0.5-0.7-3.7-3.1-6.2-5.9c-20.3-23.5-36.5-56.4-47.4-85.7c-3.4-9.1-6.4-17.9-9.3-27.2
		c-0.6-2.1-1.9-7.6-2.7-9c-0.8,5.5-1.1,11.5-1.6,17.1l-5,51.4c-1.1,11.5-2.2,22.8-3.4,34.2c-1.2,11.1-1.9,23.1-3.6,34l-65.9-9.2
		c0.2-3.2,3.1-23.2,3.8-28.2l7.3-56.7c0.5-4.4,1.7-17.2,3.1-20.9l28.3-75.8c1.4-3.8,2.9-7.8,4.3-11.6c1.4-3.7,3.1-7.7,4.2-11.5
		c1.5,0.2,3.3,0.8,4.8,1.1c17.9,4.2,38.7,2.6,54.4-7c3.7-2.3,7.3-4.9,10.1-7.9c0.9-0.9,2-2,2.9-2.8l2.6-3.3c3.1-4,6.3-10.4,6.6-10.7
		c1.7-2.6,4.6-12.5,5.3-15.8c3-14.9,1.1-27.3-3.6-41.5l-5-11c-0.9-1.1-1.1-2.5-2.2-3.6c-1.6,0.5-4,2-5.5,2.8
		c-10.1,5.5-27.1,14.8-35.6,21.8c0,1.3,0.9,4.2,1.1,5.8c1.1,5.7,1.4,12.5-0.9,17.7c-2.5,5.7-9.7,9.3-18.1,9.1l32.7-87.5l14-37.1
		c2.5-6.4,5.6-13.7,4.6-20.6c-0.5-3.3-1.4-6.9-3.1-9.7c-1.2-2-3.9-5.8-5.8-7.1c0.7-2.8,4.4-11.4,5.2-13.9c0.7-2.6,0.9-5.8-0.3-8.1
		c-2.4-4.9-7.7-6.7-12.5-4.7c-5.1,2.1-6.1,7.7-7.7,11.6l-2.6,7c-1.3,0-2.6-0.3-4.4-0.3c-1.3,0-2.9,0.2-4.2,0.4
		c-7.3,1.3-13.3,5.5-17.2,11.5c-2.5,3.9-7.6,17.8-9.5,23.6c-0.5,1.4-1,2.3-1.3,3.7h-8.9c-1.7-3.2-4.8-4.9-8.5-5
		c-2.2,0-2.6,0.4-4.2,0.5c1.3-2.6,0-6.8-1.6-9.4c-1.8-2.7-3.6-4-6.6-5.5c-3.1-1.5-6.9-1.6-10,0c-2.2,1.2-0.9,1.4-4.6,0.8
		c-8.2-1.4-18.9,0-22.7,6.7c-1.3,2.3-2.8,1.9-7.1,5.1c-1.9,1.5-4.7,4.3-5.3,6.9H71.9V477z"/>
	<path class="st1" d="M156.6,327.1c-0.4-1.5,1.4-4,3.3,0.3c0.5,1.1,4.6,7.7,0.9,7.2c-1.1-0.1-1.3-1.2-1.7-2.2
		C158.6,331.2,157,328.2,156.6,327.1z M145.5,249.6c-1.6-1.6-4.2-4-2.3-5.1c1.3-0.8,2.1,0.7,2.6,1.3c2.6,3,5.8,5.1,4.6,7.4
		C148.1,253.7,146.7,250.9,145.5,249.6z M172.4,362.5l28.6-76.5c-1.4-0.7-3.9-2.6-5.2-3.5c-11.6-8.2-19.8-22.8-23.5-36.4
		c-5.8-21.4-3-39.7,2.4-59.8l-49.4,0.2c-0.5,3.7-0.1,10.5-0.1,14.5c0,8.9,0.4,70.5-0.2,71.6c-0.5,1-5.7,6-6.9,7.4
		c-1.2,1.3-2.2,2.4-3.5,3.7c-1.5,1.6-3.1,2.1-2.4,4.4c2.1,0.8,3-0.9,4-2c1.3-1.4,8.1-8.7,9.1-9.3l0.1,84.3h47.5L172.4,362.5z"/>
	<path class="st1" d="M236.1,157.1c-0.5-0.9-2.1-9.3-2.2-11.1c-0.1-1.7,1-2.7,2.3-1.6c0.7,0.6,1.3,5.8,1.6,7.3
		C238.2,154.1,239.7,157.9,236.1,157.1z M259.6,99.7c-1.1,1.7-4.6,4.3-6.8,5.6c-2.9,1.6-6,2.4-10,2.6c-1.9,1.4-5.1,2.9-7.4,4.2
		c-15.2,8.8-27.2,18.1-38.3,31.3c-1.7,2-3.7,4.4-5.1,6.7c0.7,0.7,1.6,1.3,1.9,2.2c1.1,0.4,9.5,8.6,11.1,10.2
		c3.1,3,8.5,7.4,11.4,10.2c1.1,1.1,7,6,7.4,7c0.9,0.3,1.7,1.1,2.2,1.8c0.5-0.5,2.8-5.5,4.5-8.1c0.9-1.4,4.3-6.5,5.7-7l0.7,11.2
		c1-1.4,1-1.9,2.3-3c1.1-1,2.7-1.1,3.7-1.9c1-1.1,12.8-33.8,14.5-38.2c1.6-4.3,13.5-35.4,14.4-38.8c-2.4,0.5-4.2,1.1-6.5,1.9
		C263.9,98.1,260.8,99.7,259.6,99.7z"/>
	<path class="st1" d="M357.7,140.5c-0.1-1.3-0.6-1.7-1.2-2.7c-0.5-1-0.8-1.5-1.4-2.5c-4.8-8-5.8-8.8-11.5-15.9c-1.6-1.9-8-8-9.8-9.5
		c-1.2-1-3.4-2.8-4.7-3.4L296.5,194c8.4,0.2,15.6-3.4,18.1-9.1c2.3-5.2,2-12,0.9-17.7c-0.3-1.6-1.2-4.5-1.1-5.8
		c8.5-7,25.5-16.3,35.6-21.8c1.6-0.8,4-2.3,5.5-2.8C356.5,137.9,356.8,139.4,357.7,140.5z"/>
	<path class="st1" d="M55.9,223.8L55.9,223.8c0,0.6,0.2,0.8,0.8,0.8h10.5v-100H55.9V223.8z"/>
	<path class="st0" d="M112.8,98.4h78.6l0,16.2l-78.6-0.1L112.8,98.4z M110,117.3l83.1,0l1.2,0V95.6h-84.3L110,117.3z"/>
	<path class="st1" d="M229.1,186.2l-3.9,0.2c-0.8-0.3-0.4,0.2-0.5-0.6c-2.1,2.8-4.9,17.3-5.3,21.8c-0.7,7.3-0.5,18.2,1.5,25
		c2-4.6,6.5-17.3,8.6-22.9c1.3-3.4,0.9-2.3-1-4.9c-6-8.4,0.7-10.9,0.5-14.3C228.9,188.7,228.8,187.9,229.1,186.2z"/>
	<path class="st1" d="M124.6,474.3c0.8,0.6,1.5,1.6,2.1,2.6h-20.5c-0.9-0.1-3.5-2.1-3.9-2.7h-1.9c-0.3,1.1-0.7,2.2,0.4,2.6
		c-2.5,0.5-11.1,0.1-14.2,0.1c-4.9,0-9.7,0-14.6,0c0.5,0.4-0.1,0.1,0.6,0.3c3,0.7,27.4-0.7,29.4,0.5l13.1,9c1.8,1.2,3.5,2.3,5.3,3.6
		c2.1,1.4,3.7,3.1,5.8,3.1c1.7-2.6,0.3-2.6-2.7-4.7l-16.6-11.3h20.1l11,15.6c1.2,1.1,1.8,0.1,2.6-0.4c0-2.3-3.2-5.7-4.6-7.8
		c-0.5-0.7-0.8-1.2-1.2-1.8c-0.5-0.7-0.8-1.1-1.3-1.8l-2.5-3.8h23.7c0.2-0.4,0.3-0.1-0.3-0.4l-24.1,0c-0.5-1-1.3-1.6-1.6-2.8
		c-0.9-0.6-4.9-6.6-5.8-7.9l-14.1-20.1c-1.2-1.6-1.5-2.9-3.7-2.1c-0.5,1.9,0.7,2.9,1.7,4.3l7.8,11
		C115.9,461.6,124.3,473.1,124.6,474.3z"/>
	<path class="st0" d="M104.7,382.7c8.2,0.4,17.4,0,25.8,0c3.1,0,24.4,0.5,25.3-0.5c0.6-0.6,0.5-1.8-0.4-2.2
		c-1-0.5-46.4-0.1-47.9-0.1l0-40.7c0-4.1-2.2-2.7-2.4-2.4C104,337.8,104.6,377.9,104.7,382.7z"/>
	<path class="st0" d="M144.8,167.9c6.1,0,9.5,0.9,8.6-2.4c-2.2-1-18.9-0.4-22.9-0.4c-7.3,0-16-0.5-23.1,0c-0.5,3.3-0.3,49.2,0.1,51
		c0.8,0.4,1.4,0.8,2.3-0.2c1.1-1.8-0.5-42.1,0.3-48L144.8,167.9z"/>
	<path class="st0" d="M198.8,108.1c2,11.1,19.6,8.3,17.2-3.5c-0.9-4.2-5.1-7.8-10.4-6.8C201.5,98.6,197.8,102.7,198.8,108.1z"/>
	<path class="st0" d="M281.5,251.5c2.4,1.2,11.8,2.3,15.4,3.1c1.6,12.7,4.6,39.6,7.9,52c0.6,2.6,0.8,5.3,3.5,4.6
		c0.8-1.7-0.5-4.2-1.1-6.4c-2.4-9.6-4.7-27.2-5.9-37.4c-0.3-2.6-1.4-14-2-15.4c-3-0.4-16-2.9-17.5-2.6
		C281.3,250.1,281.2,250.4,281.5,251.5z"/>
	<path class="st1" d="M351.8,222.7l7.7-1.1l2.8-0.4c0.8-0.1,0.5-0.1,1.4-0.2c0-3.1-2.7-9.6-2.7-12.3c-0.2,0.3-3.5,6.7-6.6,10.7
		L351.8,222.7z"/>
	<path class="st0" d="M124.6,474.3l-22.3-0.1c0.4,0.6,3,2.6,3.9,2.7h20.5C126,476,125.4,474.9,124.6,474.3z"/>
	<path class="st0" d="M366.9,312c0.6-1.7-1.4-11.9-2.1-13.7c-3.6-0.8-2.2,2.6-1.4,7c0.3,1.4,0.5,2.8,0.8,4.4
		C364.5,311.7,364.7,312.8,366.9,312z"/>
	<path class="st0" d="M374.3,343.7c-4.1-0.6-1.5,4.2-0.9,6.3c0.5,1.5,1.8,6.8,2.9,7.2c3.6,1.4,0.8-5,0.5-6.1
		C376.1,349.1,375.1,345.2,374.3,343.7z"/>
	<path class="st0" d="M358.3,266.4c0.8-1.8-0.5-5.4-1-7.7c-0.4-1.6-0.8-7.5-3.3-6c-1.3,0.8,1.1,8.9,1.7,11.8
		C356.1,266.4,356.4,267,358.3,266.4z"/>
	<path class="st0" d="M369.6,334.8c3.8,0.8,1.7-3.8,1.2-6.2c-0.5-2.1-1-6.4-2-7.6h-1.7c-1,1.7,0.1,4.9,0.6,6.9
		C368.2,330.1,368.7,333.2,369.6,334.8z"/>
	<path class="st0" d="M390.1,386.8c-1.3,1.1,0.9,4.3,2.4,6.9c1.6,2.8,2.8,6.5,4.7,5.4c1.7-1.1-1.7-5.8-2.4-6.9
		C393.1,388.9,391.9,385.2,390.1,386.8z"/>
	<path class="st0" d="M358.9,275.5c-1.2,0.9-0.6,2-0.3,3.7c0.7,3.9,1.1,11.8,3.8,9.9c1.2-0.8-0.4-6.4-0.6-7.9
		C361.5,279.5,361.2,273.9,358.9,275.5z"/>
	<path class="st0" d="M380.7,365.5c-1.5,0.7-1.1,1.4-0.1,3.6c0.5,1.2,1.1,2.5,1.6,3.7c1.2,2.8,2.3,6.8,4.2,5.8
		c1.9-0.9-2.1-7.9-3.4-10.9C382.7,366.5,382.3,364.8,380.7,365.5z"/>
	<path class="st0" d="M347.8,230.5c-1.4,0.9-0.5,2.2,0,3.8l2.3,7.6c0.3,1.1,0.9,3.1,2.6,1.9c1.2-0.9-0.9-6.2-1.3-7.6
		c-0.4-1.2-0.9-2.6-1.2-3.7C349.8,231.2,349.4,229.5,347.8,230.5z"/>
	<path class="st0" d="M236.1,157.1c3.7,0.8,2.1-3,1.7-5.4c-0.3-1.5-0.9-6.7-1.6-7.3c-1.3-1.1-2.4-0.1-2.3,1.6
		C234,147.8,235.6,156.2,236.1,157.1z"/>
	<path class="st0" d="M227.7,85.5c-0.9,1,1.7,5.8,2.3,6.8c0.5,0.9,3,6.3,4.3,5.1c1-0.9-1.3-3.3-2.8-6.3
		C229.6,87.4,229.1,84,227.7,85.5z"/>
	<path class="st0" d="M260.4,74.6l1.1,0.1c0.9-1.4,0.1-6,4.9-8c0.8-0.4,2.8-1.2,1.1-2c-1.7-0.8-5,2.3-5.6,3.1
		C261,69,259.4,72.2,260.4,74.6z"/>
	<path class="st0" d="M402,406.7c-1.7,1.1-0.3,2.5,1,4.2c0.7,0.9,2.1,3.5,3.7,2.6c1.8-1.1-0.6-3.3-1.3-4.1
		C404.6,408.2,403.5,405.7,402,406.7z"/>
	<path class="st0" d="M236.2,81.1c-0.5,0.4-0.6,0.1-0.7,1.1c-0.1,0.7,0.1,1.2,0.5,1.6c0.6,0.6,1.8,0.7,2.5,0.2
		C240.3,82.7,238.4,79.4,236.2,81.1z"/>
	<path class="st1" d="M234.2,361.2l2.1-0.2l0,1.6l1.2-10.3c-0.3,1-1.2,3.1-1.6,4.2C235.2,358.3,234.7,359.6,234.2,361.2z"/>
</g>
</svg>
