<?xml version="1.0" encoding="utf-8"?>
<!-- Generator: Adobe Illustrator 24.0.1, SVG Export Plug-In . SVG Version: 6.00 Build 0)  -->
<svg version="1.1" id="Layer_1" xmlns="http://www.w3.org/2000/svg" xmlns:xlink="http://www.w3.org/1999/xlink" x="0px" y="0px"
	 viewBox="0 0 500 500" style="enable-background:new 0 0 500 500;" xml:space="preserve">
<style type="text/css">
	.st0{fill-rule:evenodd;clip-rule:evenodd;fill:#023E57;}
	.st1{fill-rule:evenodd;clip-rule:evenodd;fill:#BF353E;}
	.st2{fill:none;}
	.st3{fill:#BF353E;}
	.st4{fill:#023E57;}
</style>
<path class="st0" d="M140.1,179.2c-0.9,0.8,0.5,1.8,1.9,4.8c1.1,2.5,1.4,5.4,2.5,4.3c0.9-0.9-1-4.4-1.5-5.3
	C142.6,181.9,141.1,178.3,140.1,179.2z"/>
<path class="st0" d="M109.9,193.2h1.1c0.8-0.4,1.8-1.3,4-0.9c1.3,0.3,1.6,0.8,2.4,1.1c1.3,0.5,1.8-0.1,1.1-1
	C116.6,190.3,109,190.3,109.9,193.2z"/>
<path class="st0" d="M134.9,184.4c1.3-1.5,0.3-3.1-1.4-2.4C132.4,182.5,132.3,185,134.9,184.4z"/>
<path class="st0" d="M329,157.2c0.6,1.6,0.1,10.4,0,12.8c-0.1,2.6,0.4,13.1-2.3,10.5c-0.7-0.7,0.1-11,0.1-12.9
	c0.1-2.1,0.1-4.2,0.2-6.2C327,158.8,326.3,156.6,329,157.2z M384.8,153.7c2.4-1.3,2.2,2.1,2.2,3.7l-0.2,4.6c-2,0.4-2,0-2-2V153.7z
	 M295.1,119.7c0.5-1.1-0.6-4.3-0.9-5.9c-0.7-4.2-0.7-8.4,0-12.7c0.2-1.8,1.8-3.3,3.7-3.3c4.6-0.1-0.9,5.5,2.7,17.1
	c0.9,3.1,1.1,4.4,2.7,4.2c0.2-1.2-1.1-4-1.5-5.4c-1-3.8-1.3-8.7-0.5-12.6c0.4-1.3,2.2-3.2,4-2.4c1.3,0.6,2.9,8.4,3.3,10.6
	c1,4.3,1.1,7.8,1.3,12.3l3.1-0.6c0.6-3.5,1.5-10.5,4.2-11.6c4.2,2.2,0.7,18.9-2.6,25.2c-2.6,5-6,17.6-7.7,23.3l-4.4,16.1
	c-2.3-0.6-7.1-3.9-8.8-5.3c-5.6-4.2-9.6-8.8-13.4-14.9c-1.2-1.8-0.2-3.2,0.5-5.4c6.6-20.4,2-13.8,3.9-31.3
	c0.2-2.3,2.3-15.5,3.5-17.5c1.1-1.6,2.9-1.7,4.6-0.9c0.2,2.7-2.2,8.2,0.7,19.4C294,119.6,293.9,119.8,295.1,119.7z M322,87.7
	c11.5-1.3,11-1.2,20.9-5.4c3.7-1.5,6.8-2.9,10.5-0.6c1.3,0.9,5.9,5.5,7.8,5.1c0.5-0.1,1.7-1.1,2.3-1.3c2.3-1,0.1,0.6,2.4-0.2
	c1.7-0.6,2.6-1.3,4.9-1.6c8.4-1.1,11.5,7.2,4.8,13.9c-2.6,2.6-5.1,3.2-9.5,3.7l1.7,21.3c0.9,0.1,1.6,0.1,2.2,0.5
	c-3.1,1.3-6.5,2.2-10.1,2.6c-2.2,0.2-9.8,0.5-11.6-0.6l2.1-1l-2.6-4.2c-5.6,0.2-7.8,0.4-12.1-2.4C327.6,112.2,320,99.2,322,87.7z
	 M278.3,149.5c-0.7-0.6-0.9-1-1.1-1.8c-4.6-11-6.5-22-6.2-34.2c0.5-33.6,25.9-63.6,61.8-66.3c27.8-2.2,49,10.1,59.8,25
	c10,13.8,14.5,32.7,12.2,50.8c-0.4,2.4-2.7,14.4-4.6,16.7c-0.4-0.4-0.4-0.4-0.9-1c-5.9-7.2-10.7-11.8-19.9-15.6
	c-4.8-2-7.5-2.1-9-2.7l-1.8-17c1.2-0.6,3.3-0.7,5-1.6c8.2-4.2,11.4-16,3.1-19.7c-4.6-2-6.7-0.2-10.6,0.5c-1.1-7.1-1.3-9.2-5.1-13.8
	c-2.4-2.9-6.6-6.1-12.2-6.8c-8.5-1.1-11.4,5-13.1,5.6c-2.2,0.7-5.4,0.5-8.1,1.5c-3.3,1.2-2.9,2-4.5,4.8c-2.7-0.4-4.4-0.7-6.8,0.4
	c-1.5,0.7-3.2,2.4-3.4,4.5c-0.5,4.2,4,7.6,6.8,8.8c0.1,6.1-0.4,8.3,1.7,14c1.2,3.5,3.5,7.5,5.5,10c9.4,13.3,18.4,9.9,20,10.9
	c-0.1,1,0.6,0.2-1.6,1.2c-6.2,2.6-14.4,9.3-18.6,14.4c-8.7,10.5-14.3,20.9-19.7,33.6c-0.7,1.8-1,3.4-2,3.7c-0.6-1.1,1.8-8.3,2.2-9.9
	c2.1-7.6,6.2-23.3,9.2-29.3c1.6-3.2,2.4-5.1,3.4-9.3c0.9-3.7,3.9-20.2-2.8-19.8c-2.9,0.2-4.2,4.9-5,7.6c-1-3.8-1-6.4-2.6-12.1
	c-1.3-4.6-2.1-7.8-7.7-5.4c-1.2-0.6-1.5-1.6-3.5-1.7c-2.2,0-2.8,1.1-3.8,1.3c-1,0.1-2.2-1-4.3-0.7c-1.3,0.2-2.4,1.1-3.2,1.8
	c-2,2-3.4,12.3-4,16.1c-1.6,11.4-0.4,10.9-0.6,19.3C282.1,138.7,279.6,144.9,278.3,149.5z M275.1,84.7c-0.2,1.5-3.9,8.7-5.5,18.4
	c-1.2,7.9-0.9,14.9-0.4,23c0,2.3,1.7,10.7,2.4,13.2c4,12.5,5.4,15.4,13.8,25.5l4.3,3.9c8.9,7.2,21.3,12.8,33.5,14.2
	c2.3,0.2,4.8,0.7,7.1,0.9c1.3,0,2.8-0.1,4,0c4.6,0.5,13.8-0.4,18.1-1.3c4.8-1.1,8.2-2.1,12.2-3.8c4-1.6,7-3.3,10.5-5.4
	c2.9-1.8,8.9-6.5,11.1-8.7c0.7-0.7,1.3-1.2,2.1-2c3.2-3.3,7.9-9.9,10.3-13.7c3.7-6.6,7.1-15.8,8.2-23.6c2.1-14.7,0.4-27.6-4.8-41.2
	c-1.7-4.6-7.3-13.8-10.6-17.1l-1.8-2.2c-7.3-7.8-20.4-15-30.3-17.6c-14.7-3.5-32.9-4-47.4,2.4c-10.4,4.6-15.5,7.9-23.8,16.1
	c-4,4-8.9,11-11.6,16.1C276,82.8,275.7,83.8,275.1,84.7z"/>
<path class="st1" d="M250.9,106.5c-1.3,0.4-2.8,1.8-4.2,1.1c-1.3-2.1,1.7-2.2,3.2-3.3c-0.5-1.5-3.2-5.1-1.3-5.7
	c1.5-0.5,1.8,2.1,3.4,4.6c1.6-0.2,3.9-2.7,5.5-1.7c1.7,1.5-2.6,2.9-4.4,3.8c0.4,1.3,1.8,2.9,1.2,4.3
	C252.4,111.1,251.8,107.5,250.9,106.5z M269.2,126.1c-0.5-8.1-0.9-15,0.4-23c1.6-9.8,5.3-17,5.5-18.4c-0.5-0.9-0.7-3.5-1-4.6
	c-0.4-1.5-0.9-3.5-0.9-5.1c-1.3,0.1-5.5,2.7-6.6,3.3c-2.1,1.2-4.2,2.3-6.4,3.7l-9.6,5.4c-6.5,3.9-15.8,8.8-22.6,12.7l-6.5,4
	l41.5,19.4c1,0.4,1.8,0.9,2.9,1.3C267.2,125.2,268.3,125.8,269.2,126.1z"/>
<path class="st0" d="M373.8,188.5c1.7,0.1,11.8,3.5,14.3,4.3c4.8,1.5,9.4,2.9,14.2,4.4c4,1.3,25.9,8.3,28.3,8.8l-3.5,11l-56.5-17.6
	L373.8,188.5z M367.6,200.8l45.7,14.3c5,1.5,11,3.7,15.5,4.8c0.6-3.1,4.4-13.7,4.6-15.5c-2.6-0.6-5.1-1.5-7.6-2.3l-30.5-9.4
	c-2.7-0.9-21.3-7.1-23.1-7.1c-0.1,1.2-1.8,6.1-2.2,7.6L367.6,200.8z"/>
<path class="st0" d="M263.4,171.1c0,1.5,5,8.5,6.4,10.3c1.6,2,4.6,5.7,6.6,7.3l3.1,2.7c0.6,0.5,0.9,0.6,1.5,1.2
	c8.8,6.5,15.8,9.8,26.7,12.3c6.6,1.6,15.1,1.7,21.9,0.7c2.2-0.2,4.4-0.1,4.4-2c0-1.6-2.7-0.7-4.8-0.5c-3.9,0.6-3.3,0.2-6.1,0.5
	c-3.9,0.4-8.2,0-12.1-0.6c-7.3-1.1-14.3-3.9-19.8-6.7c-1.3-0.7-2.8-1.6-4-2.4c-5.4-3.5-9.9-7.2-14-12.3c-1.7-2-4.2-5.3-5.4-7.6
	l-1.8-3.2C265,169.3,263.4,170.2,263.4,171.1z"/>
<path class="st1" d="M260.4,55.9c0,2,0.7,3.3,1.7,4.3c3.3,3.5,8.9,2,10.4-1.6c1.7-4,0.1-9.2-5.9-9.2
	C263.2,49.4,260.4,52.4,260.4,55.9z"/>
<path class="st0" d="M265.4,28.1c7.2-2.3,8.7,7.8,3.1,9.6C261.5,40,259,30.1,265.4,28.1z M259.3,32.8c0,7.6,8.4,9.8,12.6,5.5
	c4.8-4.8,2.1-12.8-5-12.8C262.9,25.4,259.3,28.7,259.3,32.8z"/>
<path class="st0" d="M242.2,471c0,1.3,3.2,8.4,4,10.3l2,4.8c0.4,0.7,0.7,1.7,1,2.4c1.2,3.2,2.8,1.8,2.8,0.5c0-0.9-1.6-4.3-2.1-5.3
	l-5.5-13.2C243.6,469.6,242.2,470,242.2,471z"/>
<path class="st0" d="M249.9,104.3c-1.5,1.1-4.5,1.2-3.2,3.3c1.3,0.7,2.8-0.7,4.2-1.1c0.9,1,1.5,4.5,3.4,3.1c0.6-1.3-0.9-2.9-1.2-4.3
	c1.8-0.9,6.1-2.3,4.4-3.8c-1.6-1-3.9,1.5-5.5,1.7c-1.6-2.6-2-5.1-3.4-4.6C246.8,99.2,249.4,102.9,249.9,104.3z"/>
<path class="st0" d="M235.4,482.2c0,1.7,4.5,7.3,5.7,9.4c1.2,1.8,1.2,2.8,2.9,2.8c2.4,0-0.7-4.2-1.1-4.8c-0.9-1.2-1.5-2.3-2.3-3.4
	c-0.6-1.1-2.4-4.5-3.5-5C236.5,481,235.4,481.1,235.4,482.2z"/>
<path class="st0" d="M420.3,118.1c-0.5,1.8,1.1,2.6,3.7,5.3l2.9,3.1c0.1,0,0.1,0.1,0.2,0.1c0.7,0.7,1,1.3,1.8,1.3
	c1.1,0,0.1,0.1,0.7-0.4c0,0,0.2-0.1,0.2-0.2l0.1-0.1l0.2-0.4c-0.6-1.1-3.1-3.5-4.3-4.6c0-0.1,0-0.1-0.1-0.2l-1.6-1.6l-0.1-0.1
	c-0.1,0-0.1-0.1-0.1-0.1c-0.1,0-0.1-0.1-0.2-0.1C422.5,118.6,422.3,117.4,420.3,118.1z"/>
<path class="st0" d="M309.2,121.9c-4.8-1.2-10.7,8.3-8.4,12.3c0.4,0.7,1.1,0.5,1.2-0.4c0.2-0.9-1.2-6.1,4-9.5
	C308.9,122.5,309.3,124.1,309.2,121.9z"/>
<path class="st0" d="M336.2,112.5c0.2-0.9-2.2-4.3-3.3-7.3c-0.5-1.2-1-2.7-1.2-4.2c-0.2-0.7-0.4-1.5-0.5-2.2
	c-0.2-1.5-0.1-1.6-1.5-1.6c-0.5,1.7,1.2,7,1.8,8.8c1,2.4,1.6,3.4,2.8,5.6C334.8,112.4,335.1,113,336.2,112.5z"/>
<path class="st0" d="M429.5,93.5c1.5,0.2,1.1,0.6,2.9-0.7c0.6-0.5,1.1-0.7,1.8-1.2c1.7-1.1,3.2-1.6,3.2-3.1c0-2.7-4,0.6-5,1.3
	C430,91.6,429.5,90.8,429.5,93.5z"/>
<path class="st0" d="M364.9,95.7c2.3-0.1,0-2.1,2.9-4.5c2.3-2,4.3-0.5,5.6-1.3c0.1-2.4-4.5-1.3-6.1-0.2c-1.5,1.1-2.9,3.3-2.8,4.9
	C364.5,94.8,364.4,95.1,364.9,95.7z"/>
<path class="st0" d="M339.3,94.7c-2.4,1.1-1,4.4,1.3,3.4C342.8,97.4,341.5,93.7,339.3,94.7z"/>
<path class="st0" d="M140.9,170.4c1.5,1.5,2.8,2.4,4.1,4.5c1.1,1.9,2,3.9,2.6,6.4c2.4,10.1,0.3,21.1-12,22.5c-6.5,0.8-10-1.3-14-4
	c-1,0.4-1.6,1-3,1.5c-1.4,0.4-3,0.5-4.5,0.1c-2.6-0.5-5.1-2.1-5.9-3.9c-1.6-3.3,0.5-5.6,2.1-6.9c1.4-0.9,7-3,8.8-1.3
	c0.5,0.5,1.5,1.8,3.1,0.8c4.1-2.5-9.4-8.9,10.4-16.1c1.5-0.6,3-1.1,4.4-1.6C138.5,171.8,139.7,170.8,140.9,170.4z M123.3,157.7
	c-8.5-4.1-11.4,9.6-11.4,15c-3.3,0.9-3.8,5.3-3.8,8.3c0,3.1,0.9,5.4,2,7.5c-1.3,0.6-2.4,1.3-3.3,2.6c-4.9,7.3,3.8,14.6,12.4,12.4
	c3.6-1,0.8-1.5,4.5,0.4c7,3.6,16.9,3.1,22.1-2.1c1.5-1.4,2.6-3,3.4-5.1c0.5-1.4,0.6-1.8,0.9-3.3c1.4-7.1,0-15.3-4.3-20.9
	c-1-1.4-2.5-2.5-3.3-3.6c0.9-0.3,9.6-7.4,1.1-15.9c-4.8-4.6-11.1-5.8-16-0.9C124.7,155,125.7,154.3,123.3,157.7z"/>
<path class="st2" d="M239.6,142c1.1,0,2.7,0.6,3.5,0.2c0.9-0.5,3.9-3.3,2.4-5.4c-2.3-3.3-9,3.9-9.9,5.3
	C237,142,238.2,141.8,239.6,142z"/>
<path class="st2" d="M198.9,296.4c-1.8,0.7-4-0.6-4.5-0.9c0.3,1.4,0.8,3.1,1.2,4.7c4.9,20.9-1.5,44.1,6.1,62.8
	c2.7,6.6,6.1,10.7,9.9,15.1c6.7,7.8,19.5,15.6,29.1,20.9c5.7,3.1,29.1,14.9,34.4,15.5l3.7-10c-16.4-5.9-53.3-22.2-62-32.4
	c-12.2-13.9-7-60.6-14.6-79.8C201.9,292.7,200.8,295.7,198.9,296.4z"/>
<path class="st2" d="M194.2,244.8v-3.1l-1.3-0.2C193.3,242.8,193.9,243.7,194.2,244.8z"/>
<path class="st2" d="M235,213.2c2-3.7,3.8-7.7,5.1-12.1c2.7-9,4.2-19.2,4.5-29.3c0.4-10.5,2.1-10.1,7.5-18.2c1.5-2.3,1.3-4.5-1.7-5
	c-1.1,0.9-2.6,2.6-3.5,3.9c-1.6,2.1-2.1,4-3.2,4.2c-1.2-0.9,0.1-2.4,1.5-4.5c3.5-5,7.1-5.7,4.8-8.5c-1.5-1.8-3.5-1.2-5.6-0.4
	c0.4,3.3,0.1,3.8-2.1,5.6c-2.3,2-4.6,2.3-5.7,3.1c0.9,3.2,1.7,8.4,0.1,11.1c-4,0.5,0.2-3.5-2.2-10.4c-0.4-1.1-1.2-2-1.3-2.8
	c2.8-0.2,8.8-1.5,9.3-4.9c-2.7-1.8-13.4-1.1-18.3,6.2c-9.8,14.5-0.6,43.4-17.3,54.1c-1.2,0.7-3.2,1.6-4.3,2.3l1.1,25.4
	C218.7,231.2,228.6,225.1,235,213.2z"/>
<path class="st2" d="M164.1,304.5c-2.4,0.2-5.2,0.3-8.3,0.3c-14.5,0-33.8-2.2-34.9-2.4c-5,23-17,50.5-26,72.4
	c-4.8,11.7-9.3,23.4-13.6,35.7c-2.1,6-4.2,12.6-5.7,18.9c-1.2,4.6-4,16.2-3.8,20.9l48.2,16.1c2-11.8,5.4-25.4,8.7-36.3
	c7-23.5,14.7-45.1,21.6-68.2c5.1-17.1,4.8-13.4,4.2-28.5c-0.1-3.2,0-7.9-0.5-11c-2.4-1.3-10.1-1.8-8.4-4.2c0.9-0.7,1.1-0.4,2.3,0
	l8.3,2.3c1,6.8,0.1,19.1,1.5,27.6c2,11.8,6.4,36.4,12.2,46c6,9.9,12.9,15.6,21.6,22c16.2,11.8,40.5,21.6,59.8,27.8
	c2.6,0.7,9,2.9,11.5,3.2l11.4-30.8c-2.8-0.7-6.5-2.4-9.2-3.5c-17.1-6.6-44.3-21.4-55.1-33.5c-10-11.4-13.4-20.3-14.4-36.4
	c-0.6-12.5,0.6-23.9-1-36.6c-0.5-3.8-1.8-7.2-2.3-10.4l0,0C192.2,296.2,178.3,303.1,164.1,304.5z"/>
<path class="st2" d="M164.1,304.4c13.2-1.3,26.2-7.4,27.9-8.3c-2.4,0.4-5.1,1.3-7.6,1.8c-21.3,4.6-41.3,4.4-62.9,4.5
	C125.9,302.9,151.2,305.7,164.1,304.4z"/>
<path class="st2" d="M198.8,296.3c1.8-0.7,2.9-3.5,3.1-4.1c-1,0.4-6.8,2.8-7.5,3.1C194.9,295.6,197.1,296.9,198.8,296.3z"/>
<path class="st2" d="M128.2,249.9c0.7-6,3.4-7.2-0.1-13.2c-4.5-7.5,1.8-7.8,0.7-12.6c-2.2-1.6-3.5-0.5-4.8,1.7
	c-2,3.5-0.2,5.5-1.1,6.8c-2.4,0.5-1.7-7.1,1.6-9.9c1.2-0.9,1.6-1.2,1.6-3.3c-0.1-5.7-6.5-4-8.4,1.6c-0.5,1.3-0.1,1.2-1.3,1.1
	c-1.1-1.6,1.6-5.9,5-7.2c0.5-0.2,3.8-0.6,3.1-2.9c-0.4-1.3-3.2-1.6-4.8-1.2c-6.1,1.8-9.6,18.9-11.8,26.5c-1,3.7-1.6,6.8-2.2,10.5
	c-0.6,3.7-1.3,7.2-2,10.9c-0.1,0.6-0.4,2.3-0.5,2.8c-0.5,1.1-1.3,0.9-1.5-0.4c-0.1-1,0.9-4.4,1-5.9l-5.9-1.1
	c-1.3,9.3-2.7,17.6,4.9,25.8c2.9,3.1,5.7,4.8,11.7,4.6C132.8,284.5,126.8,262.3,128.2,249.9z"/>
<path class="st2" d="M132.1,242.4c-0.1,2.8-1.2,4.6-1.6,7.2c-0.2,2.2-0.5,6-0.1,8.2c0.2-1.7,2.4-4.5,2.2-14.3
	c-0.1-2.4-0.5-4.9-1-7.3c-0.2-1.1-1.1-5-1.7-6.1l-0.2-0.4C126.3,233.6,132.2,236.5,132.1,242.4z"/>
<path class="st3" d="M120.9,302.4c0,0,0.3,0,0.7,0.1c21.6-0.1,41.6,0.1,62.9-4.5c2.5-0.5,5.2-1.4,7.6-1.8c0.1-0.1,0.2-0.1,0.2-0.1
	l2.1-0.8l0,0c0,0,0,0,0.1,0.1c0.7-0.3,6.6-2.7,7.5-3.1c0-0.1,0-0.1,0-0.1l0,0l2.2-1c0,0,0,0,0,0c1-0.6,1.8-1.3,2.8-2
	c-2-8.3-4.3-20.6-7.2-28.7l-2.7-8.2c-1-2.7-0.5-7.7-0.5-10.6c2.6,0,5-0.9,7.6-0.9l-0.2-5.4c2.2-0.2,5-1.1,7.2-1.6
	c6.4-1.6,10.3-3.1,15.4-6.8c1.1-0.7,1.6-1.3,2.6-2.1c1.2-0.9,1.2-1.3,2.1-2.3c6.8-7.3,10.7-17.3,12.8-27.1c1.5-6.5,1.6-9.4,2.6-15.4
	c0.4-2.8,0.1-5.9,0.5-8.4c0.6-4.2-0.6-4.3,1.2-7.8c1.7-3.3,6.4-9.4,7-11c1-2.8-0.5-4.9-2.3-5.9c0.1-2.2,0.4-2.9-0.9-4.6
	c-0.9-1.2-2.1-2.2-4-2.2c1.5-6.5-4.3-10.5-13.7-0.2l-0.1,0.1c0,0.1-0.2,0.2-0.2,0.2c-0.4,0.5-0.1,0.2-0.5,0.6
	c-0.7,0.9-1.2,1.6-2.3,2.1s-1.7,0.6-2.9,1.2c-1.1,0.6-1.5,0.7-2.4,1.6c-3.3,2.6-5.3,6.2-6.6,10.3c-0.4,1-0.6,2-1,3.1
	c-1,3.4-1.3,7.1-1.8,10.7c-0.5,4.9-0.6,10.4-1.3,15.3c-1.1,8.5-5.1,16.9-13.2,20.2c-1.8,0.7-4.3,1.6-6.8,1.6c-0.1-1.2-1.5-4-2.1-5.1
	c-1.5-2.7-3.2-5-5.3-7.2l-0.9-1c-7.8-7.5-11-9.7-22.2-9.7c-3.9-0.3-14.1,1-14.1,1c0,0-0.3,0.6-0.3,0.6c-1.8,2.4,0.1,2.4,0.1,2.4
	s8.2-1.1,8.2-1.1c0,0,0,0,0,0c9.9-0.1,15.6,0.1,23.8,6.2c3.7,2.7,9.8,10.1,10,14c-8.9-0.1-18.9-4.2-27.4-5.5
	c0.1,4.6,2.6,11.4,4.3,15c3.5,8.2,10.4,16.6,17.5,21.7c2.4,1.8,4.5,2.7,5.3,4.5c0.9,2.1,2.1,4.9,2.7,7c-2.7-0.6-11.2-6.8-12.9-8.4
	c-4.3-3.5-7.1-6.4-10.6-10.7c-7.9-9.9-10.4-18.4-12.3-30.7c-2.7-1-4.8-1.6-6.7-1.9c-0.2,0.8-0.4,1.7-0.7,2.2c0,0,0,0,0,0
	c-0.2,2.6-6.7,8.5-10.4,10.4c-5.7,2.8-12.1,1.7-14.2-3.4c-0.7-0.6-1.2-1.1-1.5-1.6c-2.8,2-4.7,3.9-5.3,4.9c-4.6,1.4-5.3,3.9-6.1,6.2
	c-1.6,1.8-4.6,5.7-4.6,5.7s0,0-0.1,0c0,0,0,0,0,0c-0.7,2.7-1.8,4.3-3.4,6.4c-5.7,8.2-11.4,20.6-12.6,30c-1.3,10.5,1.8,22,11.8,26.9
	c4.3,2.1,7.5,1.2,11.7,1.1c0,2.7-2.7,13.7-3.5,15.5l4.9,0.2v-0.1H120.9z M245.5,136.8c1.5,2.1-1.6,4.9-2.4,5.4
	c-0.9,0.4-2.4-0.2-3.5-0.2c-1.3-0.1-2.6,0-3.9,0.1C236.5,140.7,243.2,133.5,245.5,136.8z M206.7,205.2c16.7-10.7,7.6-39.6,17.3-54.1
	c4.9-7.3,15.6-8.1,18.3-6.2c-0.5,3.4-6.5,4.6-9.3,4.9c0.1,0.9,1,1.7,1.3,2.8c2.4,6.8-1.8,10.9,2.2,10.4c1.6-2.7,0.7-7.9-0.1-11.1
	c1.1-0.7,3.4-1.1,5.7-3.1c2.2-1.8,2.4-2.3,2.1-5.6c2.1-0.9,4.2-1.5,5.6,0.4c2.3,2.8-1.2,3.5-4.8,8.5c-1.3,2.1-2.7,3.7-1.5,4.5
	c1.1-0.1,1.6-2.1,3.2-4.2c1-1.3,2.4-3.1,3.5-3.9c3.1,0.5,3.2,2.7,1.7,5c-5.4,8.1-7.1,7.7-7.5,18.2c-0.4,10.1-1.8,20.3-4.5,29.3
	c-1.3,4.4-3.2,8.4-5.1,12.1c-6.5,12-16.4,18.1-31.5,19.8l-1.1-25.4C203.5,206.8,205.5,206,206.7,205.2z M194.2,244.8
	c-0.4-1.1-1-2-1.3-3.3l1.3,0.2V244.8z M129.9,230c0.6,1.1,1.5,5,1.7,6.1c0.5,2.4,0.9,4.9,1,7.3c0.2,9.8-2,12.6-2.2,14.3
	c-0.4-2.2-0.1-6,0.1-8.2c0.4-2.6,1.5-4.4,1.6-7.2c0.1-5.9-5.7-8.8-2.4-12.7L129.9,230z M113.4,284.6c-6,0.1-8.8-1.6-11.7-4.6
	c-7.6-8.2-6.2-16.5-4.9-25.8l5.9,1.1c-0.1,1.5-1.1,4.9-1,5.9c0.1,1.2,1,1.5,1.5,0.4c0.1-0.5,0.4-2.2,0.5-2.8c0.6-3.7,1.3-7.2,2-10.9
	c0.6-3.7,1.2-6.8,2.2-10.5c2.2-7.6,5.7-24.7,11.8-26.5c1.6-0.4,4.4-0.1,4.8,1.2c0.7,2.3-2.6,2.7-3.1,2.9c-3.4,1.3-6.1,5.6-5,7.2
	c1.2,0.1,0.9,0.2,1.3-1.1c2-5.6,8.3-7.3,8.4-1.6c0,2.1-0.4,2.4-1.6,3.3c-3.3,2.8-4,10.4-1.6,9.9c0.9-1.3-0.9-3.3,1.1-6.8
	c1.2-2.2,2.6-3.3,4.8-1.7c1.1,4.8-5.3,5.1-0.7,12.6c3.5,6,0.9,7.2,0.1,13.2C126.8,262.3,132.8,284.5,113.4,284.6z"/>
<path class="st4" d="M281.3,404.4c0.2-2.3,0.1-1.5-2.6-2.6c-6-2.3-15.6-6-21.1-8.8l-8.2-3.7c-3.7-1.6-12-5.7-15.9-8.2l-7.5-4.5
	c-9-5.5-12-11.7-13.8-22.1c-0.5-3.5-1-6.7-1.3-10.5c-1.6-12.3-1.8-33-4.4-43.5c-0.6-2.9-1.1-6.7-2.4-9.4l-2.1,1c0,0,0,0,0,0
	c7.7,19.2,2.4,65.9,14.6,79.8c8.8,10.1,45.7,26.5,62,32.4l-3.7,10c-5.4-0.6-28.7-12.5-34.4-15.5c-9.5-5.3-22.4-13.1-29.1-20.9
	c-3.8-4.4-7.2-8.5-9.9-15.1c-7.6-18.7-1.2-41.9-6.1-62.8c-0.4-1.6-0.9-3.2-1.2-4.7c0,0-0.1,0-0.1-0.1l-2,0.7
	c0.5,3.3,1.8,6.7,2.3,10.4c1.6,12.7,0.4,24.2,1,36.6c1,16.1,4.4,25,14.4,36.4c10.7,12.1,38,26.9,55.1,33.5c2.7,1.1,6.4,2.8,9.2,3.5
	l-11.4,30.8c-2.4-0.2-8.9-2.4-11.5-3.2c-19.3-6.2-43.6-16-59.8-27.8c-8.7-6.4-15.6-12.1-21.6-22c-5.9-9.6-10.3-34.2-12.2-46
	c-1.3-8.5-0.5-20.8-1.5-27.6l-8.3-2.3c-1.2-0.4-1.5-0.7-2.3,0c-1.7,2.3,6,2.8,8.4,4.2c0.5,3.1,0.4,7.8,0.5,11
	c0.6,15,1,11.4-4.2,28.5c-7,23.1-14.7,44.7-21.6,68.2c-3.3,10.9-6.7,24.4-8.7,36.3l-48.2-16.1c-0.2-4.6,2.6-16.2,3.8-20.9
	c1.6-6.4,3.7-12.9,5.7-18.9c4.3-12.2,8.8-23.9,13.6-35.7c9-21.8,21-49.4,26-72.4c0,0,0,0-0.1,0l-2.4,0c-1.5,6.7-3.2,12.9-5.2,19.4
	c-6.1,18.2-14,35.7-21,53.6c-4.6,11.8-9.5,23.8-13.7,36c-1,3.2-1.8,6.1-2.9,9.3c-2.2,6.5-3.8,13.3-5,20c-0.2,1.8-0.6,3.5-0.7,5.5
	c-0.2,2-0.6,3.4-0.6,5.7c0.7,0.2,1.7,0.6,2.4,0.7c-0.2,0.4,0.1,0.1-0.6,0.2c0.6,3.4,4.5,8.1,3.1,9.5c-1.8-0.2-2.9-7.1-4.9-9.2H67
	c0.5,1.7,3.8,8.9,2.7,10.5c-1.6,0-1.2-1.3-2.4-5.3c-0.6-1.8-1.2-3.5-1.8-5.3c-3.4,0-9.3-1.3-13.7,0c-3.5,1.1-6.6,3.8-8.2,6.7
	c1.1,0.7,2.2,1.3,3.4,2.1l32.7,18.6c1.2,0.7,2.3,1.3,3.7,2.1l14.5,8.3c0.9,0.5,2.7,1.8,3.8,2c2.7-5.6,7.2-14.5,9.3-19.5
	c0.4-0.7,0.5-0.9,0.9-1.7c0.2-0.5,0.5-1.1,0.7-1.6c0.6-1.1,1.1-2.2,1.7-3.3c1.2,0.2,2.6,0.9,3.9,1.2c1.1,0.4,2.8,1.1,3.9,1.2
	c0-1.5,0.4-2.6,0.7-3.9c2.3-12.9,6.2-29.4,10.4-41.9l12.6-39.2c0.4-1.2,0.7-2.4,1.2-3.7c1.7-5,2.9-9.5,4.5-14.5l2.2-7.3
	c0.4-1.5,0.7-2.2,1.1-3.5c0.5-1.8,0.5-3.1,1.2-3.7c0,3.5,5.3,26.5,6.8,31.8c3.3,10.4,6.7,16.5,14.7,24.3c4.2,4.3,7.6,7.2,12.3,10.5
	c5.6,3.8,7.7,5.3,13.9,8.7c5.1,2.9,7.6,3.9,12.7,6.6c7.5,3.7,19.9,8.3,27.8,11l10,3.1c1.7,0.6,3.3,1,5,1.5c1.6,0.5,3.5,1,5.1,1.3
	c0.6-2.6,2.1-5.4,2.4-7.3h0.6c0.2,1,0.5,0.7,0.9,1.8c1.5-0.4,3.9-3.8,5.5-3.3v1c0,0.1-0.6,0.6-0.7,0.7c-0.5,0.4-1,0.6-1.3,1
	c-1.6,1.2-2.2,1.3-2.6,2.6c0.6,1.1,1.2,3.4,1.2,4.8c1.6,0.2,3.5-4.3,5.3-3.8c0.2,0.2,0.2,0.7,0,1.2l-4.9,4.9
	c1.5,3.2-1.1,11.1,5.7,16.9c1,0.7,3.5,2.4,4.8,2.7c1.2-2.3,2-5.1,2.8-7.7c1-2.8,1.8-5.1,2.8-7.9l2.8-7.8c0.2-0.7,0.4-1,0.6-1.8
	l2.1-6c1.2-3.2,10.9-30,11-31.8C299.9,409.6,283.3,404.5,281.3,404.4z"/>
<path class="st3" d="M118.5,302.4L118.5,302.4L118.5,302.4C118.5,302.5,118.5,302.5,118.5,302.4L118.5,302.4z"/>
<path class="st3" d="M194.4,295.3C194.4,295.3,194.3,295.3,194.4,295.3l-0.1-0.1l-2.1,0.8c0,0-0.1,0-0.2,0.1c0.1,0,0.2,0,0.2,0
	c0,0,0,0,0,0.1l2-0.7c0,0,0.1,0,0.1,0.1C194.4,295.4,194.4,295.4,194.4,295.3C194.4,295.4,194.4,295.3,194.4,295.3z"/>
<path class="st3" d="M120.9,302.5C121,302.5,121,302.5,120.9,302.5c0.2-0.1,0.4-0.1,0.6-0.1c-0.4,0-0.6-0.1-0.7-0.1h-2.4v0.1l0,0
	c0,0,0,0,0,0L120.9,302.5C120.9,302.5,120.9,302.5,120.9,302.5z"/>
<path class="st3" d="M202,292.1C202,292.1,202,292.2,202,292.1C202,292.2,202,292.2,202,292.1c0.1,0.1,0.1,0.1,0.1,0.1c0,0,0,0,0,0
	l2.1-1c0,0,0-0.1-0.1-0.1L202,292.1L202,292.1z"/>
</svg>
