<?xml version="1.0" encoding="utf-8"?>
<!-- Generator: Adobe Illustrator 24.0.1, SVG Export Plug-In . SVG Version: 6.00 Build 0)  -->
<svg version="1.1" id="Layer_1" xmlns="http://www.w3.org/2000/svg" xmlns:xlink="http://www.w3.org/1999/xlink" x="0px" y="0px"
	 viewBox="0 0 500 500" style="enable-background:new 0 0 500 500;" xml:space="preserve">
<style type="text/css">
	.st0{fill-rule:evenodd;clip-rule:evenodd;fill:#023E57;}
	.st1{fill-rule:evenodd;clip-rule:evenodd;fill:#BF353E;}
</style>
<g>
	<path class="st0" d="M163.3,306.6h-30.4c0.4-0.7,6.5-6.6,8.3-8.5c0.7-0.7,2-2.5,3.2-2.5h30.8c-0.5,1.2-4.4,4.8-5.5,5.7
		c-1.1,1.1-1.8,1.9-2.9,2.9C165.7,305,164.9,306.6,163.3,306.6z M109.3,305.1c-7.5,0-17.5,0.2-24.7,0c0.6-1.1,1.9-2,2.9-2.9
		c1.1-1.1,1.8-1.9,2.9-2.9c1-1.1,1.9-1.8,2.9-2.9c0.8-0.7,1.9-2.4,3.4-2.4c7.1,0,17.7-0.2,24.4,0.1c-0.5,1-6.8,6.9-8.4,8.5
		C111.8,303.3,110.5,305.1,109.3,305.1z M195.5,285.4c1.5-0.2,2,0.6,2.9,1.6l6.9,7c1.2-0.5,5.7-5.4,7.2-7c0.7-0.6,1.8-2.4,3-1.3
		c1.1,1.1-0.6,2.1-1.3,2.8c-1.6,1.6-6.5,6.1-7,7.4l7,6.9c0.7,0.7,2.3,1.6,1.3,2.8c-1.2,1.3-3.3-1.6-5.2-3.5
		c-1.1-1.1-3.8-4.1-4.9-4.7l-6.9,6.8c-1,1-1.4,2-3,1.7c-0.7-1.5-0.1-1.8,0.8-2.8l7.4-7.3c-0.6-1.1-3.7-3.9-4.9-5.1
		C196.3,288.2,194.5,287.2,195.5,285.4z M124.3,283.5c-9.3,0-25.8,0.3-34.4,0l7.4-7.5c1.4-1.3,2.5-2.3,3.8-3.7
		c1.6-1.7,2.1-1.2,6.4-1.2c10.1,0,20.1,0,30.2,0l-9.5,9.7C127.1,281.8,126.1,283.5,124.3,283.5z M225,266c1-0.4,12.9-1.6,16.7-2.2
		c0.6-0.1,2.2-0.5,2.8-0.4c1,0.1,1.6,1,0.8,1.8c-0.8,1-13.9,2.3-16.5,2.5C226.6,267.9,224.4,268.6,225,266z M289.2,264.8
		c-0.1-0.2,0.1-0.6-1.4,0c-14.8,6.8-31.3,10.4-47.7,12.2c-1.2,0.1-2.9-0.2-1.9-1.7c0.5-0.7,2.9-0.7,3.9-0.8
		c14-1.7,29.8-5.2,42.6-10.6c2.1-1,3.9-1.8,5.9-2.9c3.2-1.7,3.2-1.8,5.8-3.4c1.9-2.2,6.5-6.2,8.9-8.9c1-1,2-2.3,3-2.9
		c0.8-1,1.6-2.2,1.8-3.8h-22.8c-3,3.5-1.4,6.7-14.5,14.2c-2.8,1.6-17.8,8-21,7.2c-0.7-2.4,1.8-2.2,3.8-2.9
		c4.9-1.4,10.3-3.4,14.6-5.6c3.1-1.6,6.2-3.4,8.5-5.4c1.7-1.6,5-4.6,5.9-7.5h-23.5c-0.5,0.5-1.4,1.8-1.9,2.4
		c-3.7,4.7-12.2,8.2-17.9,9.8c-8.7,2.5-18.4,3.6-28.1,3.7c-13.4,0-34-2.5-44.6-11.3c-2.4-1.9-3.3-2.9-2.4-4.3
		c1.8-0.2,1.8,0.5,2.5,1.4c3.5,4,12.2,7.3,17.3,8.7c18.4,5.1,46.7,4.7,63.9-3.8c2.6-1.4,7.4-4.4,8.3-6.7l-23.9,0.1
		c-1.5,0.5-2.9,1.6-4.7,2.3c-5.1,2-11.2,2.8-16.8,2.8s-11.9-0.8-16.9-2.9c-1.6-0.6-3.3-1.9-4.3-2.2l-50.4-0.1
		c1.4,4.8,8.5,10,13,12.3c15.2,7.8,33.9,11,51.1,11.8c2.1,0.1,4.1,0.1,6.2,0.1c3.8,0,2.6,2,1.3,2.2c-2,0.4-10-0.2-12.4-0.3
		c-16.2-1.2-36.1-4.8-49.8-13.1c-5.4-3.3-9.2-6.6-12.1-12.8h-23c3.3,12,20.5,20.1,31.8,24.3l10.7,3.3c1.5,0.5,1.3,2.1-0.2,2.2
		c-1.8,0-12.3-3.8-14.3-4.6c-7.9-3.1-17.6-8.2-23.3-13.9c-5.9-5.8-6.2-9.8-7.2-11.2c-1.6-0.3-7.7-0.5-8.8,0.4l-14.5,14.3
		c-9.5,9.6-19.4,19-28.7,28.5l-28.8,28.6c2.8,0.2,73.8,0,76.5,0h129.1c2.1,0,2.1-0.6,3.2-1.7l19.3-18.8c6.2-6.2,12.9-13.1,19.3-19.1
		C282.1,272,287.1,266.3,289.2,264.8z"/>
	<path class="st1" d="M310.9,173.9h-1.6c-0.5-2.1-0.7-16.9-1-21.2c-0.1-3.1-0.7-6.1,1.1-6c1.3,0,1.1,1.4,1.1,2.6
		c0.1,1.2,0.1,2.2,0.2,3.4C310.8,156.8,311.8,172.4,310.9,173.9z M362.8,144c-2-2.6-0.1-4.1,1.8-1.5l8.2,11.2c1.8,2.4,3,3.2,2.3,4.8
		c-1.4,0.4-1.7,0-2.3-1L362.8,144z M326,111.8c-0.2,0.3,0,0.3-0.2,0c-1.6,1.5-6.5,5.8-9.6,6.1c-0.5,0.8-3.9,3.5-4.8,4.4l-8.7,10
		c-7.1,9.4-9.7,15.4-14.8,24.6c-0.3,0.5-0.5,1.1-0.8,1.6c-0.5,1-1.3,1.9-1.5,3.2c0.5,0.3,1.3,0.6,1.7,1.3
		c3.1,0.8,17.9,12.6,22.1,14.7c0.2,1.8,0.8,7.1,0.3,8.4c0.5,0.7,0.4,2.5,0.4,3.6c0,1.6,0.1,2.8,0.2,4c0.2,1.4,0,2.9,0.1,4.3
		c0.3,5.5,0.7,10.9,0.7,16.5c0,3,0,5.9,0,8.9c1.2,0,5.1-0.5,5.7-0.7l2.4-0.4l82.3-11.5c-4-12-9.2-26.1-15.9-36.4l-7.4-10.1
		c0.6-0.6,0.8-1,2-1.2c0.2-0.8,2.1-1.8,2.9-2.3l9.5-7c2-1.5,4.1-3.3,5.9-4.9c1.2-1,5.1-4.4,6-4.9c0.3-0.5,1-1.2,1.5-1.6
		c-0.2-0.8-0.8-1.5-1.4-2.1c-0.6-0.7-1.1-1.4-1.7-2.1l-12.9-13.2c-3.4-2.6-7.2-5.8-11-7.9c-1.6-1-3-1.8-4.8-2.8
		c-6.7-3.3-15.9-6.9-23.2-6.9c-1.6,0-2.2-0.1-3.4-0.2c-2.4-0.2-10.7,1-13.4,1.6C331.3,109.3,326.7,111.6,326,111.8z"/>
	<path class="st0" d="M404.7,144l4.4,6.5c1.5,2.3,2.6,4.3,4,6.8c10,17,24.8,62.1,27.7,81.3c1.2,7.3,3.7,22.8-6.2,24.7
		c-3.4,0.6-2.9,2.5-8.6,1.3c0.2-3.4,0.5-5.9,0.1-9.4c-0.1-0.8-1-8.3-2.6-6.6c-0.1,0.1-0.2,0.1-0.1,1c0,0.1,0.2,0.7,0.2,0.8
		c2,7.1,0.6,10.6,1.2,14.6c-1.1,0.6-2.5,2.5-4.9,1.4c-3.4-1.7-3.6-13.3-4.7-14.9c-5.4,2-3.8,3.3-4.4,6.5c-0.5,2.6-1.5,6.5-4.3,6.2
		c-2.2-2-2.2-11.8-1.8-15.1c0.5-5.1,2.1-9.5,4.6-12.9c0.6-0.8,1.7-1.6,1.6-2.8c-0.1-1.4-6.6-21.9-7.1-23.5c-3-8.9-6.1-17-9.8-25.2
		c-1.8-3.9-3.9-8-6.1-11.4c-1.4-2-2.3-3.4-3.7-5.2c-1.2-1.5-2.8-3.3-3.7-4.9c-1.2,0.2-1.4,0.5-2,1.2l7.4,10.1
		c6.7,10.4,11.9,24.5,15.9,36.4c1.5,5.1,3.3,10.2,4.8,15.4c2.8,9.2,2.4,5.8-0.5,11c-0.6,1.2-1.1,2.2-1.6,3.4
		c-0.5-1.8-0.7-4.4-1.7-5.6c-4-0.4,0.6,6.7,0.2,11.1c-0.3,4.9-1.3,14.7,1.6,19.3c1,1.6,3.6,1.6,5.2,0.4c2.5-1.9,3.4-6.6,4-10.8
		l6.4,29.5c2.3,10.5,4.4,19,8.4,28c5.8,13.6,15.2,28,23.9,39.7c0.8,1.2,3.4,4.3,3.8,5.3L417.4,389c-4.8-2.3-14.3-16.3-17.6-21.2
		c-8.4-12.9-13.8-24.1-20-38.1c-2-4.6-3.8-9.2-5.6-13.9c-3.4-8.7-5.8-16.6-8.5-25.4l-1.1-3.2c-0.1-0.4-0.1-0.4-0.3-0.6l-5.3,55
		c-1,9.1-1.8,18.2-2.8,27.3c-0.5,4.7-1,9-1.4,13.7c-0.4,4-0.7,9.7-1.5,13.6l-53.1-7.3c0.6-7.6,2.2-16.2,3.2-23.7l9-71.6
		c0.2-1.8,1.1-10.7,1.5-11.8c0.2-0.5,5.8-5.9,6.8-6.8c4.6-4.2,8.7-9,13.3-13.3c1.9-1.7,4.7-4.1,5.8-7.4c2.2-6.9-1.2-14.8-8.7-17.3
		c-3.5-1.1-8.8-0.3-12.8-0.6l0.8-14.1l-2.4,0.4c0,2.9-0.4,5.4-0.5,7.9c-0.1,1.7-0.2,2.9-0.2,4.2c-0.1,2.4-0.5,1.2-2.9,1.7l-0.1,2
		c5.4,0.8,14.4-1,18.8,1.2c3.9,1.9,7.6,6.8,6,12.8c-1.1,4.2-5.6,7.7-8.9,10.9c-3.3,3.4-6.6,6.6-10,9.7c-3.4,3.3-6.5,6.7-9.8,9.8
		c-3.4,3.2-6.7,6.5-10,9.8l-24.9,24.5c-1.8,1.8-3.1,3.4-4.9,5c-3.1,2.9-5.6,7.1-12.5,7.1H59.9c-5.7,0-35.6,0.5-38.8-0.5
		c-4.3-1.4-8.4-6-7.6-12c0.7-5.2,5.8-8.9,8.4-11.4c3.1-3.1,6.5-6.1,9.8-9.7c1.9-1.9,3.3-3.4,5-5c5-4.6,10.1-9.8,14.8-14.7
		c3.4-3.4,6.7-6.5,10-9.7c3.4-3.4,6.7-6.5,10-9.7c4-4,11-11.3,14.9-14.8c1.8-1.5,3.6-2.8,6.8-3.1c5.9-0.4,13.3,0,19.4,0
		c0.1-1.5-0.1-1.4,0.8-2.3c-5.6,0-11.2,0-16.8,0c-3.9,0-4.7-0.1-7.6,1c-3.7,1.3-9.7,8.6-13.4,12l-1,1c-0.1,0-0.1,0-0.1,0.1l-23.3,23
		l-0.1,0.1l-0.1,0.1L29.2,295c0,0-0.1,0-0.1,0.1l-0.8,0.7c-0.3,0.3-0.2,0.2-0.5,0.5l-12.4,12.3c-1.9,1.8-2.1,2.3-3.3,4.9
		c-0.6,1.2-0.8,2.6-1,4v1.1c0.1,0.8,0.1,1.6,0.3,2.4c0.7,4.2,3.6,7.6,7.5,9.5c3.7,1.9,10.2,1.4,15.6,1.4h187.6
		c11.3,0,22.8-0.1,34.1,0c8.6,0,10.6-3.6,16.6-9.5l2-2c0,0,0.1,0,0.1-0.1l0.1-0.1l18.8-18.6c3.7-3.1,15.9-16,17.3-16.9
		c0,2.3-0.5,4.4-0.7,6.6c-0.5,5.9-2.1,15.5-2.3,20.2l-2.4,19.9c-0.3,2.2-0.7,4.3-1,6.6c-0.2,2.2-0.5,4.2-0.8,6.5
		c-0.3,2.1-0.5,4.3-0.7,6.7l-5.4,39.8c1.7,0.1,3.8,0.6,5.4,0.7c-0.3,1.7-2.6,5.2-3.6,6.6c1.2,1.2,7,4.9,9.1,6.4
		c1.1,0.7,3,1.5,2.3,2.8c0,0-0.1,0-0.1,0.1l-10.8-6.9c-0.7-0.4-1.1-0.5-1.5-1.4c-0.6,1.4-2.8,3-3.5,4.3l7.5,6.4
		c0.7,0.6,2.4,1.3,2,2.8c-1.5,0.3-3.3-2.1-5.4-3.7l-5.1-4.4c-1.3,0.6-2,1.5-3.1,2.3c-11.1,9-16.3,6-19.1,14.3
		c-0.6,1.9-0.7,2.3-0.7,4.9h64.4c2.1,0,4.3,0,6.5,0c1.9,0,2.5,1,2.5-3.9c0.1-3.5,0.8-11,1.1-15l0.5-9.3c2.3,0.2,7.8,1.3,9.3,1.3
		l6.4-62.5c0.3-4,1-8.4,1.3-12.5l1.8-18.7c0.1-2,0.5-4.3,0.5-6.5c0.5,0.6,4.4,12.6,4.8,13.3c0.7,2.3,1.6,4.4,2.4,6.7l11.1,25.2
		c1,2,1.9,4.1,3.1,6c3.1,5.3,6,11.4,9.8,17.4c3,4.6,7.7,11.9,11.3,15.9l5.8,6.1c0,0.1,0.1,0.1,0.1,0.2l3.4,2.5
		c1.1-0.6,3-2.8,4.1-3.1c0.2,0.8,0.3,0.7,0.3,1.9c2-0.5,13.2-2.2,14.5-1.9l0.1,0.7c-1,1.4-12.4,1.7-14.3,2.6l-0.1,5.2
		c1.9-0.2,12-0.8,13-0.3c0.6,1.5-0.8,1.3-2.1,1.4c-1.3,0-2.5,0-3.8,0.1c-1.7,0.1-6.2-0.2-7.3,0.5c0,3.6-1.4,9.1-2.4,12.5
		c-1.9,5.5-6.2,8.4-0.8,17c0.5,0.7,0.7,0.7,1.2,1.5c0.6-0.5,1.1-1,1.6-1.5l21.8-20c1.3-1.2,2-2,3.4-3.2l8.2-7.6
		c0.7-0.7,1.1-1,1.8-1.6c1.3-1.1,2-2,3.4-3.1c1.3-1.1,2.1-2.1,3.4-3.2c1.7-1.5,9.3-9,10.2-9.2c-0.1-1.2-0.7-1.6-1.8-2.9l-8.5-10.5
		c-0.7-1-1.4-1.6-2.1-2.5c-1.4-1.8-3-3.6-4.2-5.4c0.7-0.4,2.2-1.5,2.6-2.1l-18.2-25.9c-2.2-3.3-5.9-10.3-7.9-14.3l-1.4-2.9
		c-3.3-7.1-4-8.8-6.1-16.2l-3.2-12.9c-0.2-1.2-0.5-2.1-0.7-3.3l-2.9-13.6c3.5,0.8,3.2,1,6.6-1.2c1.2-0.6,1.1-0.2,2.4-0.1
		c3.9,0.3,5.4-1.3,7.2-1.7c4.2-1.1,6.2-2.5,7.8-7.2c0.8-2.1,1.6-7.4,1.4-10.6c-1.2-13-4.3-26.8-8.6-39.2c-0.5-1.6-0.8-3-1.4-4.6
		c-0.5-1.6-1-3-1.5-4.4c-0.2-0.7-0.5-1.5-0.7-2.1c-2.1-5.6-4.2-12.2-6.4-17.6l-4.3-10.8c-0.3-0.8-0.5-1.2-0.8-2
		c-0.2-0.6-0.5-1.4-0.8-2.2c-1.4-2.8-2.6-5.3-4-7.9l-3.3-5.5c-1-1.7-5.4-8.3-6.4-9C405.7,142.8,405,143.4,404.7,144z"/>
	<path class="st0" d="M329.2,96.4c-0.7,7.3-1.7,10-5.6,14.2c-8.2,8.8-19.6,6.6-26.1-2.8c-2.5-3.6-5.3-9.1-5.6-14.7
		c5.2-2.1,18.4-13.8,24.1-7c1,1.2,2.9,7.3,5.9,3.4c1.2-1.5-0.1-4.4,4.3-7.3c6.7-4.4,13.1,0.6,9.3,8.8
		C334.4,93.7,332.4,95.6,329.2,96.4z M315.9,65.8h2.4c3.9,0.5,8,3.5,9.5,7.5c1.1,3,0.3,3.7,0.3,5.4c0.8-0.4,2.9-0.6,4.3-0.4
		c7.6,1.2,8,9.8,4.4,15.5c-1,1.3-3.6,4-5.5,4.2c0,1.2-0.3,3.1-0.6,4.2c-0.4,1.7-0.6,2.1-1.2,3.5c-1.6,3.9-2.5,4-3.6,6h-0.2
		c-1.6,1.5-6.5,5.8-9.6,6.1c-1.7,0.6-3.7,0.6-6,0.5c-4.8-0.2-9.1-3.3-12.4-6.6c-3.4-3.3-7.9-12.2-8-17.3c-3.6,0.8-6.5,1.1-8.4-3.6
		c-1.5-3.6-1.3-7,0.5-10.2c1.6-2.6,3.8-4.7,6.7-6c0.5-0.3,0.7-0.4,1.3-0.6c2.2-1.2,2.3-5.6,10.4-6.9c2.6-0.4,6.2-0.5,8.9-0.1
		c4.1,0.5,1.6,0.6,4.6-0.7C314.4,66.1,315.1,65.9,315.9,65.8z"/>
	<path class="st0" d="M210.7,206.4l-1,2.8c0,1.7,0,2.8,0.5,4c0.3,0.8,0.4,0.7,0.8,1.5c0.6,1,0.3,0.7,0.5,2.1l0.4,2.6
		c0.1,1.4,0.8,2.1,1.5,2.9c-0.5,0.8-1.4,1.7-2,2.6c-0.5,0.8-1.3,2-1.6,3.1c-0.5,1.9-1.5,4.1-0.2,6.1c1.2,1.9,3.1,2.1,5.4,1.1
		c1.6-0.7,3.4-2.1,4.4-3.1c0.8-0.6,3.3-3.1,4.1-3.3c0.4-0.7,4.2-3.8,5.3-4.7c0.8-0.5,1.1-1.1,2.2-1.2c0.8,3.5,0.3,1.7-2.8,7.1
		c-0.6,2.4-1.4,4.9,1.2,5.9c2.3,1.1,4.7-1.1,6.2-1.6c1-0.6,2.2-1.6,3.1-2.3c1.1-1.1,1.8-1.6,2.9-2.6c1.3-1.3,4.4-4.7,5.5-5.4
		c2.1-1.3,6.8-1.8,10.7-5.6c0.8-0.7,2.4-1.8,3.7-1.9l1-0.5c0.2-0.1,0.7-0.2,1-0.2c0.7-0.2,1.6-0.4,2.4-0.6c1.1-0.1,2.2-0.4,3.4-0.7
		c9-2.2,17-3.9,25.3-9.4c4.2-2.9,8.4-6.6,11.5-10.5c1.4-1.7,2.5-3.4,3.8-5c0-1.1,0.1-2.9-0.4-3.6c-5.3,7.1-8.2,11.5-15.5,16.5
		c-13.1,9-28.4,9.2-35.5,12.6c-1.8,0.8-2.9,2.2-4.6,3.4c-1.6,1-3.5,1.7-5.4,2.4c-5,1.9-5.7,4.2-8.8,7.1c-1.5,1.3-5.9,5.3-8,5.9
		c-4.9,1.3,1.3-6.8,1.3-6.8c2.1-3.1,0.3-3.7-0.6-7c-6.2,0.3-16.6,15.1-20.9,13c-1.6-4.6,3.9-9.1,4.9-10.7c0.7-1.2-0.2-0.7,1.4-2.3
		c3.5-3.5,6.4-3.8,6.9-5.2c-0.7-1.2-1.5-0.5-2.6,0.1c-4.6,2.5-5.6,4.8-6.8,5.5c-2-1.3-3.2-7.1,3-10.4c1-0.4,3.6-1,2.6-2.1
		c-0.5-0.4-0.2-0.4-1.3-0.1c-4,1-5.5,4.4-7,5.1c-1.5-5,0.1-6.5,3.9-10.5c4.3-4.6,26.5-10.7,33.9-13.4c7.8-3,14.9-6.1,21.3-10.3
		c5.1-3.3,13.3-10.7,15.4-16c-0.4-0.6-1.2-1-1.7-1.3c-0.2,0.1-0.1,0.1-0.4,0.3c-0.2,0.3-0.2,0.4-0.4,0.6c-1.8,3-3.1,4.8-5.6,7.3
		c-5.6,5.6-10.7,8.7-17.7,12.2c-6.1,3.1-18.3,7.4-24.4,9.2c-2.3,0.6-11.9,3.8-14,4.9c-2.6,1.3-5.1,2.1-7.2,4c-0.4,0.3-0.6,0.5-1,0.8
		l-0.4,0.3C213.4,202.5,211.4,205,210.7,206.4z"/>
	<path class="st1" d="M189.2,236.3v2.3c0.3,0.7,0.5,1.3,1.1,1.9c0.4,0.4,1,0.7,1.3,1.5c1.1,0.3,2.8,1.6,4.3,2.2
		c5.1,2,11.3,2.9,16.9,2.9s11.8-0.7,16.8-2.8c1.8-0.7,3.2-1.8,4.7-2.3c0.4-0.6,0.7-0.8,1.3-1.6c0.4-0.5,0.7-1.2,1.2-1.7l-0.1-2.4
		c-0.2-0.6-0.5-1-0.7-1.8c-1.6,0.5-3.9,2.6-6.2,1.6c-2.5-1.1-1.8-3.5-1.2-5.9c-1-0.2-1.2-0.5-2.2-0.7c-1.1-0.2-1.8-0.3-2.5-0.5
		c-0.8,0.2-3.3,2.6-4.1,3.3c-1.1,1-2.9,2.3-4.4,3.1c-2.3,1.1-4.2,0.8-5.4-1.1c-1.3-2-0.3-4.2,0.2-6.1c-2.5,0-4.6,0.1-6.7,0.5
		c-1.9,0.4-4,0.8-5.8,1.5C194.7,231.1,190,233.1,189.2,236.3z"/>
	<path class="st1" d="M260.6,236.3c-1,1.2-0.3,1.1-1,2.2c0,1.5-0.5,2.6-1.4,3.4c-0.8,2.2-5.6,5.3-8.3,6.7
		c-17.2,8.5-45.4,8.9-63.9,3.8c-5.1-1.4-13.8-4.7-17.3-8.7c-0.7-0.8-0.7-1.6-2.5-1.4c-0.8,1.5,0,2.4,2.4,4.3
		c10.6,8.8,31.1,11.3,44.6,11.3c9.6-0.1,19.4-1.2,28.1-3.7c5.7-1.7,14.2-5.2,17.9-9.8c0.5-0.6,1.4-1.9,1.9-2.4l1-3.3
		c-0.1-1.5,0.2-1.4-0.7-2.4C260.8,236.1,261.2,236.1,260.6,236.3z"/>
	<path class="st1" d="M310.7,236.4c0.3,0.5,0.3,1.5,0.1,2.1c0,1.3-0.2,2.6-0.6,3.5c-0.2,1.6-1,2.9-1.8,3.8
		c0.7,1.6-8.3,10.1-11.9,11.8c-2.6,1.6-2.6,1.7-5.8,3.4c-2,1.1-3.8,1.9-5.9,2.9c-12.8,5.4-28.6,8.9-42.6,10.6
		c-1.1,0.1-3.4,0.1-3.9,0.8c-1,1.5,0.7,1.8,1.9,1.7c16.3-1.8,32.8-5.4,47.7-12.2c1.5-0.6,1.3-0.2,1.4,0c0.8-0.5,0.7-0.8,1.8-1.5
		c10.4-5.6,20.1-11.3,22.2-24.8l0.1-2c0-6.9-5.6-14.5-7.6-14.6c-1.2-0.1-1.3,0.7-1.3,2c2.9,1.9,4.8,5.1,5.7,8.3
		C310.6,233.4,310.7,234.8,310.7,236.4z"/>
	<path class="st1" d="M138.6,236.3c-0.7,1-0.6,1-0.7,2.3l0.7,3.4c2.9,6.2,6.7,9.5,12.1,12.8c13.7,8.4,33.6,12,49.8,13.1
		c2.4,0.1,10.4,0.7,12.4,0.3c1.4-0.2,2.5-2.2-1.3-2.2c-2.1,0-4.1,0-6.2-0.1c-17.3-0.7-35.9-3.9-51.1-11.8c-4.6-2.3-11.6-7.5-13-12.3
		c-0.6-0.8-0.8-2.2-0.8-3.3c-0.3-1.4,0-1.3-0.8-2.3C138.8,236.1,139.2,236.1,138.6,236.3z"/>
	<path class="st1" d="M261.8,216.6c5.1,1,16.8,7.4,20.3,12.3c1.6,2.1,3.2,4.1,3.5,7.6c0.2,0.5,0.2,1.4,0,2c0,1.4-0.4,2.5-0.8,3.5
		c-1,3-4.2,5.9-5.9,7.5c-2.2,2-5.4,3.8-8.5,5.4c-4.3,2.2-9.7,4.2-14.6,5.6c-2,0.6-4.6,0.4-3.8,2.9c3.2,0.8,18.2-5.6,21-7.2
		c13.1-7.5,11.5-10.7,14.5-14.2l0.6-3.4c0-0.7-0.1-1.7,0.1-2.2c-0.3-1.7-0.5-2.6-1.1-4.2c-1.3-3.4-4.4-6.8-7.3-9
		c-3.1-2.4-6.5-4.4-10-6.1c-0.7-0.3-1.2-0.4-1.8-0.7c-0.4-0.2-0.6-0.3-1-0.4l-1-0.6c-0.8,0.2-1.7,0.4-2.4,0.6c-0.2,0-0.7,0.1-1,0.2
		L261.8,216.6z"/>
	<path class="st0" d="M343,233.8c2.1,1.5,9.5,1.5,12.5,2.6c0.6,7.3,4.8,42,7.8,45.5l1.4-0.1c0.5-1.5-0.6-3.7-1-5.3
		c-0.5-2-0.8-3.8-1.3-5.8c-0.6-3.9-1.3-8-1.9-12.1c-0.4-3-2.8-23.5-3.3-24.5c-2.6-0.1-5.4-0.7-7.8-1.2
		C345.2,232.3,342.7,231,343,233.8z"/>
	<path class="st1" d="M113.4,236.3c-1,1-0.7,0.8-0.8,2.3l0.5,3.5c1,1.4,1.3,5.4,7.2,11.2c5.7,5.7,15.4,10.8,23.3,13.9
		c2,0.7,12.5,4.6,14.3,4.6c1.5-0.1,1.7-1.7,0.2-2.2l-10.7-3.3c-11.2-4.1-28.5-12.3-31.8-24.3l-0.6-3.4c-0.1-1.3,0-1.4-0.7-2.3
		C113.6,236.1,114,236.1,113.4,236.3z"/>
	<path class="st1" d="M209.8,209.2l1-2.8l-15.4,1.1c-6,0.7-11.3,1.1-17.6,2.5c-1.3,0.3-2.2,0.6-3.4,0.8c-1.4,0.3-2,0.5-3.3,0.8
		c-2.8,0.7-10.9,3.2-12.4,4.2c-0.7,0.6-1,1.3-0.2,2l0.6,0.4l7.9-3c2.3-0.8,12.6-3.3,15.1-3.7c4.3-0.7,8.7-1.4,13.2-1.8
		C198.5,209.6,207.1,208.9,209.8,209.2z"/>
	<path class="st1" d="M212.4,287c-1.5,1.6-6,6.5-7.2,7l-6.9-7c-0.8-1-1.4-1.8-2.9-1.6c-1,1.8,0.8,2.8,3.4,5.3c1.2,1.2,4.2,4,4.9,5.1
		l-7.4,7.3c-1,1-1.6,1.3-0.8,2.8c1.6,0.3,2-0.7,3-1.7l6.9-6.8c1.1,0.5,3.8,3.6,4.9,4.7c1.9,1.9,4,4.8,5.2,3.5c1.1-1.2-0.5-2-1.3-2.8
		l-7-6.9c0.5-1.3,5.4-5.8,7-7.4c0.6-0.6,2.3-1.7,1.3-2.8C214.2,284.6,213.2,286.4,212.4,287z"/>
	<path class="st0" d="M140.3,238.6h48.9v-2.3h-49.8C140.3,237.4,140,237.3,140.3,238.6z"/>
	<path class="st1" d="M212.1,219.5l-0.4-2.6c-1.5,0-2,0.2-3,0.3c-1.2,0.1-2.2-0.1-3.4,0c-9,0.7-18.4,2.2-26.9,5.5
		c-3.7,1.6-5.2,2.4-8.4,4.7c0,3.6,1.8,1.4,6.7-1.2C185.5,221.6,201.3,219.5,212.1,219.5z"/>
	<path class="st1" d="M118.1,224.1c0,1,0.1,1.6,1.4,1.6c0.8,0,1.5-1.6,3.6-3.4c1.8-1.4,1.9-1.7,3.9-3.1c4.8-3.4,8.2-5.2,13.4-7.5
		l12.7-4.8c3.4-0.8,1.9-1.9,1.4-2.9c-1.1,0.1-1.9,0.5-2.6,0.7l-16.5,6.5c-0.4,0.2-0.7,0.4-1.2,0.6c-3.7,1.9-5.2,2.6-8.7,5.3
		C124.2,218.1,118.1,223,118.1,224.1z"/>
	<path class="st0" d="M192.3,351.6l-0.4,10.2c-0.1,4.6-1.7,13-0.8,16.8c0.8,0.2,2.3,1.1,2.3-2.3c0-1.7,0.3-2.1,0.3-3.6l1.1-19
		c0.1-1.8,0.3-1.9-0.8-2.9C193.1,351,192.9,351.2,192.3,351.6z"/>
	<path class="st0" d="M310.7,152.8c-0.1-1.2-0.1-2.2-0.2-3.4c0-1.3,0.2-2.6-1.1-2.6c-1.8-0.1-1.2,3-1.1,6c0.2,4.2,0.4,19.1,1,21.2
		h1.6C311.8,172.4,310.8,156.8,310.7,152.8z"/>
	<path class="st0" d="M262.2,238.7l23.4-0.2c0.2-0.6,0.2-1.5,0-2c-2.2-0.5-9.3-0.2-12-0.2c-4.1,0-8.2,0-12.2,0
		C262.4,237.4,262.1,237.3,262.2,238.7z"/>
	<path class="st0" d="M115,238.6h22.9c0.1-1.4,0-1.4,0.7-2.3h-24.4C115,237.3,114.9,237.4,115,238.6z"/>
	<path class="st0" d="M236.8,238.7l22.9-0.2c0.6-1.2,0-1.1,1-2.2h-23.9L236.8,238.7z"/>
	<path class="st0" d="M152.9,164.7c0,3,4.3,11.4,5.6,15c0.6,1.6,1.3,3.6,2.4,4.7c3-0.6,1.1-2.2-0.3-5.9c-0.5-1.6-1.3-3.2-1.9-4.8
		l-3.1-7.2C155.2,165.2,155.1,163.8,152.9,164.7z"/>
	<path class="st0" d="M288,238.6l22.8-0.1c0.2-0.6,0.2-1.6-0.1-2.1h-22.6C287.9,236.9,288,237.9,288,238.6z"/>
	<path class="st1" d="M225,266c-0.6,2.6,1.6,1.9,3.8,1.7c2.6-0.2,15.7-1.6,16.5-2.5c0.7-0.8,0.1-1.7-0.8-1.8
		c-0.5-0.1-2.1,0.3-2.8,0.4C237.9,264.4,226,265.5,225,266z"/>
	<path class="st0" d="M213.4,349.8c0.3,1.4,6.2,11.4,7.4,13.6c0.2,0.4,1.3,2.1,1.4,2.3c0.6,0.6,3.5,1,1.3-2.9
		c-0.5-0.7-0.8-1.4-1.3-2.1c-0.7-1.4-1.5-2.8-2.3-4.1l-3.5-6.1c-0.4-0.6-0.8-1.7-1.7-1.7c-1,0-0.1-0.1-0.6,0.3
		c-0.1,0.1-0.2,0.2-0.3,0.3l-0.1,0.1L213.4,349.8z"/>
	<path class="st0" d="M375.1,158.5c0.6-1.6-0.5-2.3-2.3-4.8l-8.2-11.2c-1.9-2.6-3.8-1.2-1.8,1.5l10,13.6
		C373.4,158.5,373.7,158.9,375.1,158.5z"/>
	<path class="st0" d="M175.2,181.3c2.6,0,0.6-3.7,0.2-9.1c-0.1-1.3-0.5-7.8-1.8-7.8c-1.8,0-1.6,1-1.3,3.8c0.2,1.4,0.5,3.2,0.7,4.6
		C173.5,175.7,173.5,181.3,175.2,181.3z"/>
	<path class="st0" d="M435.1,259.5c0.1-2.8-0.3-12.2-1.7-13.2c-1.9-1.6-0.2,4.6,0,7.2c0.3,2.6-0.2,7.5,0.1,9.3
		C435.4,263.1,435.1,261.2,435.1,259.5z"/>
	<path class="st0" d="M413.9,301c3,0.1,1.4-3.2,0.8-5.2c-0.4-1.9-0.6-4.7-1.5-6c-2.6-0.3-1.8,1.4-1,5.2
		C412.7,296.7,413.1,299.9,413.9,301z"/>
	<path class="st0" d="M410.3,282.8l1.4-0.2c0.5-1.5-0.3-4.3-0.6-6.1c-0.3-1.5-0.4-5.4-2.1-5c-1.7,0.3-0.4,4.1-0.1,5.6
		C409.2,278.9,409.3,281.6,410.3,282.8z"/>
	<path class="st0" d="M436.2,352.5c1-1.2-1.3-3.9-2-5.4c-1.5-2.6-2.2-5.6-3.8-4.4c-1.2,0.8,1.4,4.7,1.9,5.6
		C433,349.7,434.3,353.4,436.2,352.5z"/>
	<path class="st0" d="M419.1,318.9c2,0.1,2-0.7,1.5-2.3c-0.4-1.1-0.8-2.2-1.2-3.3c-1.3-4-1.1-5.8-3.3-5.2
		C415.3,309.7,418.6,318.2,419.1,318.9z"/>
	<path class="st0" d="M427.9,335.7c0.2-1.3-2.4-6.9-3.3-9c-0.5-1.2-1.8-2.1-2.3-0.6c-0.4,0.8,2.5,7.1,3.3,8.8
		C426.2,336.4,426.7,336.5,427.9,335.7z"/>
	<path class="st0" d="M398.9,227.8c3.2,0.5,1.4-3,0.8-4.8c-0.3-1-1.5-5.5-2.1-5.9c-1.2-1-1.9,0.2-1.7,1.5L398.9,227.8z"/>
	<path class="st0" d="M300.1,100.2c-1.5,0.3,1,4.7,1.4,5.4c0.7,1.5,1.9,4.4,3.6,4.6c0.7-1.1,0.1-1.4-0.6-2.5l-2.8-5.3
		C301.4,101.6,301.2,99.9,300.1,100.2z"/>
	<path class="st0" d="M327,91.6c0.8-1.4-0.1-3.9,3.3-6c1.2-0.7,1.6-0.3,2-1.4c-1.2-2.1-4.3,1.2-4.9,1.8
		C326.7,87.1,324.2,91.9,327,91.6z"/>
	<path class="st0" d="M440.1,358.6c-1.8,0.7,0.1,2.6,0.6,3.4c0.5,0.6,1.8,2.9,3,1.9c1.4-0.8-0.5-2.4-1.1-3.3
		C442,359.9,441.3,358.1,440.1,358.6z"/>
	<path class="st0" d="M307.1,96.6c-2,0.8-0.8,3.3,1,2.8C309.8,98.9,309,95.9,307.1,96.6z"/>
</g>
</svg>
