<?xml version="1.0" encoding="utf-8"?>
<!-- Generator: Adobe Illustrator 24.0.1, SVG Export Plug-In . SVG Version: 6.00 Build 0)  -->
<svg version="1.1" id="Layer_1" xmlns="http://www.w3.org/2000/svg" xmlns:xlink="http://www.w3.org/1999/xlink" x="0px" y="0px"
	 viewBox="0 0 500 500" style="enable-background:new 0 0 500 500;" xml:space="preserve">
<style type="text/css">
	.st0{fill-rule:evenodd;clip-rule:evenodd;fill:#023E57;}
	.st1{fill-rule:evenodd;clip-rule:evenodd;fill:#BF353E;}
</style>
<path class="st0" d="M232.7,295.1c-1.3-2.7-1-3.3-3.9-4.2c-2.1-0.7-4.2-1.5-6.1-2.2c-1-0.4-6.4-1.8-3.7-3.3c1-0.6,10.4,3.1,12,3.7
	c1.8,0.6,1.3,0.3,2.2,1.8c1.2,2.4,4.5,7,3.1,8C234.8,300,233.3,296.2,232.7,295.1z M172,241.3c0.4,0.9,5.9,4.6,7.3,5.5l8.3,4.3
	c0.9,0.3,1.9,0.9,2.8,1l-4.6,17.1c-0.3,1-0.4,1.9-0.6,3c-1.5,7.6-3.7,15.8-5.4,23.8c-1.3,6.4-3.6,14.4-4.9,20.5
	c-0.3,1.2-0.3,1.8-0.7,2.8l-2.4,8.8c-1.3,4.6-2.8,9.1-4.6,13.4c-0.4,1.2-0.6,1.6-1.2,2.7l-15,35.8c-0.3,1-0.7,1.6-1,2.5
	c-3.9,9.2-9.2,24.7-12.8,34.7l-3.7,10.9c0.9,0.1,1.8,0.6,2.5,0.9l47.9,20.1c0.6,0.6,7.7,3.7,8.9,3.7l20.8-51.5
	c2.1-6,6.2-17,7.9-22.3l3-9.1c2.1-6.2,3.7-12.8,5.7-18.7c0.4-1.6,0.9-3.4,1.3-4.9c1.3-4.6,3.4-14.6,4.3-19.6
	c0.7-4.8,1.6-11.3,1.9-16.4c0-1.6,0.6-3.9,0.6-5.7c0.6,0.9,1.2,2.7,1.9,4c0.7,1.5,1.2,2.7,1.9,4.2c3.4,7,6.2,14.1,9.2,21.1l5.1,13.4
	c1.5,4.9,2.8,9.1,3.9,14.3l2.5,15.8c2.4,13.8,5.2,27.5,7.9,40.9l7.4,35.3c0.3,1.3,0.9,3.7,0.9,5.2c1.3,0,1.6,0.1,2.5-0.3l51-9.7
	c3-0.3,7.9-1.6,9.8-1.6c0-0.9-0.3-2.5-0.3-3.6c-0.1-0.7-0.4-2.5-0.4-3.3c-0.9-8.6-2.1-19-3.6-27.4l-3.3-20.4
	c-2.2-13.5-7.4-37.3-11.3-50.9c-5.5-19.5-7.4-24.8-14.9-43.3c-0.4-1-0.9-1.6-1.3-2.8c-2.7-6.5-7.1-14.1-10.6-20.4
	c-1.9-3.3-4-6.4-6-9.7c-0.4-0.7-5.5-8.8-6.2-9.4c0.6,5.1,1.5,8.5,0.6,13.7c-0.7,3.9-1.2,2.4,0.4,5.9l11.3,25.9
	c16.2,38.1,30.9,89.1,33.9,131.3c0.1,2.4,0.3,4.8,0.3,7.1c0.1,2.2,0.9,5.5-1.9,4.5c-0.6-1.5-0.9-11.8-1-14.3
	c-3-36.7-14-76.8-26.8-110.7c-2.7-7.3-5.5-15-8.6-21.9c-6.7-15-11.6-26.9-19.5-41.5c-0.6-0.7-0.9-0.6-2.2-0.6
	c-17.3-0.7-41.5-5.7-58-9.4l-18.9-4.6c-0.1,1-0.3,1-0.7,1.9c-0.4,1.2-1.9,4.9-1.9,6.1c-2.8-1.3-5.1-1.8-8.8-4c-1.6-1-6.2-4-7.7-5.4
	C173.8,240.5,172.8,240.8,172,241.3z"/>
<path class="st1" d="M284.9,203.2c-0.9,0.7-5.7-1.2-7.3-1.5c-1.5-0.3-2.7-0.4-4.2-0.4c-1.9-0.1-2.4-1.6-1-2.2
	C273.9,198.1,288.2,200.7,284.9,203.2z M176.6,161.1l39.4,0.1c-0.4,2.4-2.2,6.5-3.1,9.5c-5.7,18.7-6.2,27.1-15.6,46.6
	c-1.3,2.8-2.8,5.7-4.2,8.3c-1.2,2.2-3.1,5.9-4.6,7.9h-11.9V161.1z M153.3,219c0.9-0.3,1.9-1,3-1.5c1.2-0.7,2.1-0.9,3.4-1.5
	c0.3-1.5,0.6-2.5,1.5-3.4c1.5-1.6,2.8-1.2,3-2.1v-39c0-11.3,3.3-12.9,13.5-12.9c5.2,0,36.6-0.3,39.1,0.3c0.1,0.7-0.3,1.5-0.4,2.1
	h-39.6c-0.4,1.3-0.3,71.4,0,72.6h11.5l-1.3,2.4c-3.3,0.3-14.9,0.3-17.4-0.7c-2.1-0.9-3.7-2.5-4.6-4.6c-1-2.5-0.6-5.7-0.7-8.5
	c-3.1-0.6-3.1-2.2-4.3-3.6c-2.1,0.6-4.9,1.9-5.8,3.3c2.2,3.4,0.7,5.1,9.1,15.8c0.9,1,3.9,4,5.1,4.6c0.9,0.3,3.1-0.6,3.9-0.9
	c0.7-0.4,1.8-0.7,3-0.9c2.2-0.9,8.3-2.5,10.9-3.1c-0.4,0.9-0.9,1-1.2,1.9l9.5,2.5l18.9,4.6c16.5,3.7,40.8,8.6,58,9.4
	c1.3,0,1.6-0.1,2.2,0.6c0.4-0.7-0.1-0.1,0.7-0.4c0.1,0,0.6-0.1,0.7-0.1c1.2,0,0.9,0.1,1.3,0.4l1-0.3c0.4,0,1.3,0,1.6,0
	c1,0,2.1-0.1,3.1,0l0.4,1.6l-0.3-1.8l2.5-0.1c0.4,0.1,2.5-0.1,3.1-0.1c1.3-0.3,1-0.9,1.3-2.4c0.1-2.1,0.6-4.2,0.7-6.1
	c0.6-4.5,0.7-8.6,1.3-13.1c0.4-3.1,0.7-20.5,0.7-23.9c0-1.5-0.3-1.9-0.3-3.6c1.5,0,5.2,0.9,7.9,1.2c1,0,2.7,0.1,3.9,0.3
	c1.5,0.3,3,0,4.5,0.3c9.7,1,21.6-1.3,30-5.5c4.8-2.4,12.3-7.1,16.1-11c0.7-0.9,1.5-1.3,2.2-2.1l1.6-1.8c0.1-0.1,0.1-0.1,0.1-0.1
	c7.6-7.7,16.4-21,19.2-31.5c0.4-1.9-0.1-1.9-0.6-3.6c-0.7-0.6-1.3-1.9-1.5-3c-1-0.7-1.8-2.2-2.5-3.3c-0.9-1-1.6-1.9-2.5-2.8
	l-17.7-14.6l-2.2-1.2l-5.2,9.4c-1.5,2.8-3.9,6.5-5.9,8.9c-5.4,6.4-12.6,8.9-21.3,7.9c-3.7-0.4-8.3-1.5-12-2.5l-23.4-6.5
	c-2.1-0.4-3.7-0.9-5.9-1.3c-1.9-0.4-4.3-1-6.4-1.2l1.9-7c-0.3-0.9-1.3-0.6-2.5-0.7l-21.9-2.5c-2.1-0.1-3.9-0.3-5.7-0.4
	c-1.9-0.3-3.7-0.6-5.7-0.6c-0.4,1-1,4.8-1.3,6.1c-1.3,0-3.4-0.4-4.8-0.7l-9.7-1c-1.8-0.1-3.4-0.1-5.1-0.3l-10.3,0.6
	c-3.6,0.3-6.2,0.7-9.7,1.5c-3,0.6-5.7,1.3-8.3,2.4c-7.4,2.8-11,4.6-17.7,9.7l-3,2.7c-4,4-6.5,7.4-9.4,12.2
	c-3.9,6.5-7.1,18.1-7.1,25.6c-0.1,3.7-0.1,7.6,0,11.2C149.9,204.5,152.1,216.9,153.3,219z"/>
<path class="st1" d="M186,463.5c-1.2,0.7-2.1,1.5-3.1,2.2c-1.2,0.9-2.7,2.5-3.3,1.9c-1.9-1.5,4.6-3.9,5.7-6c-0.3-1.2-0.6-1.6-0.6-3
	c-2.5,0.7-7,4.8-7.9,3.3c-0.4-1.3,2.4-2.2,3.4-2.8c1.3-0.7,3-1.6,4.2-2.4c-0.4-1.2-0.4-5.7-0.4-7.7L136,429l-7.1,18
	c-0.6,1.6-1.2,2.8-1.8,4.5c-0.9,2.5-5.1,12-5.5,13.8l76.6,29.2c3-5.5,0-12.8-3-17.3C192.3,472.9,186.2,467.8,186,463.5z"/>
<path class="st1" d="M281.7,458.4c0,10.1-0.6,19.5-0.6,29.8c3.7,0,6.4,0.3,10,0.3c23.9,0,47.9,0.6,72,0.6c0-8.8-6.5-14.4-13.7-18
	c-1.3-0.6-2.4-1.2-3.6-1.9c-0.6-0.3-1-0.6-1.6-1c-0.7-0.7-0.9-0.6-1.3-1.3c-0.1,0.1-0.1,0.1-0.4,0.4c-0.6,1,0.6-0.9-0.1,0.4
	l-1.2,2.2c-0.7,1.5-0.7,2.5-2.2,2.2c-0.6-1.8,2.2-5.1,2.5-6.8c-0.9-0.7-2.5-2.8-2.8-4c-1.3,1.3-2.7,6.8-4.2,5.5
	c-0.9-0.7,2.5-6.4,3-7.3c-0.1-0.3,0.1,0.1-0.3-0.4c-0.1-0.1-0.3-0.4-0.3-0.7l-2.8-6.5c-0.3-0.9-0.7-2.2-1.2-3L281.7,458.4z"/>
<path class="st0" d="M153.3,219c-3.6,3.3-5.8,4.6-7.9,10.9c-1.6,4.6-1,11.8-1,17.7v75.3c0,7.9,0.3,10.7-2.8,15.9
	c-7.3,12-21.6,7.4-28.4,9.1c-6.2,1.5-10.6,5.1-13.5,10.1c-1.9,3.1-2.8,7.4-2.8,11.2c-0.1,6.4,0,12.6,0,19c0,25,0,50.1,0,75.3
	c-3.3,0-6,2.8-7.3,5.7c-0.3,0.9-0.4,2.2-0.6,3.9v8.6h18.4c0-5.2,0.9-11.2-1.6-14.6l-1.6-1.6c-1-0.9-2.7-1.9-4.6-1.9V371
	c0-7.6,1.2-11.9,6.5-16.7c8.9-7.7,17.4-2.4,26.9-5.7c2.1-0.6,4.5-2.1,5.9-3.3c6.1-4.9,8.2-10.3,8.2-19.3c0-6.7-0.1-90.3,0.1-92.5
	c0.7-4,2.1-6.5,4.3-9.5c0.9-1.2,1.5-1.3,2.5-2.2c0.9-1.3,3.7-2.7,5.8-3.3c1.2,1.3,1.2,3,4.3,3.6c0.1,2.8-0.3,5.9,0.7,8.5
	c0.9,2.1,2.5,3.7,4.6,4.6c2.5,1,14.1,1,17.4,0.7l1.3-2.4h-11.5c-0.3-1.2-0.4-71.3,0-72.6h39.6c0.1-0.6,0.6-1.3,0.4-2.1
	c-2.5-0.6-33.9-0.3-39.1-0.3c-10.3,0-13.5,1.6-13.5,12.9v39c-0.1,0.9-1.5,0.4-3,2.1c-0.9,0.9-1.2,1.9-1.5,3.4
	c-1.3,0.6-2.2,0.7-3.4,1.5C155.2,217.9,154.2,218.7,153.3,219z"/>
<path class="st0" d="M354.7,104.9c0.6-2.5,3.6-6.2,6.4-6.5C360.6,99.2,355.6,104.4,354.7,104.9z M350.1,127.6l2.2,1.2
	c0.6-2.2-0.3-7.7-0.3-10.7c0-3.4,2.4-3.4,5.2-7c0.4,0.7,0.3,1.2,1.3,1.2c0.6-0.7,1.5-5.5,1.9-6.8c0.7-2.2,1.5-4.2,2.4-6.1
	c1.6-3.3,4.5-9.5,7.4-10.1c2.5,1.8,0.6,5.2-0.3,7.7c-0.7,2.4-1.8,5.7-2.1,8.5c2.5,0.4,4.8,1.3,6.2,2.8c0.4,0.6,1,1.5,1,2.2
	c0.1,1.6,0.1,0.3-0.3,1c-0.4,0.9-1.5,2.1-0.7,3.3c1.2,0.1,1,0.1,1.5-0.9c0.3-0.7,0.4-1.3,0.6-2.1c3.1,0.9,4.8,3.7,5.2,7.6
	c-1,0.7-0.7,0-1.3,0.6c-0.4,0.6,0,1.3-0.4,3.4v1.3c0,0.1,0,0.1,0,0.3c0,0,0,0.1,0.1,0.1c1.8,0.6,1.2-1.2,1.9-2.5
	c0,0.6,0.1,1.5,0.1,2.2c-0.1,0.3-0.1,0.6-0.3,0.9c-0.6,1.5-1.3,0.6-2.4,0.9c-0.7,0.1,0-0.3-0.4,0.1c-1,1.2-2.4,18-3.7,22.6
	c0.1,1,0.7,2.4,1.5,3c1.8-3.4,2.8-15.2,3.6-20.2c0.1-0.7,0.4-2.1,0.4-3c3.4-0.1,4.2-3.3,3.7-6.7c-1-7.1,0.1-8.5-6.2-12.8
	c-1.6-1-0.3-2.2-3.6-4.5c-1.3-0.9-2.2-1.2-3.6-1.8c0-1.5,2.1-7.9,2.5-8.6c0.4-0.6,1.9-1.8,2.7-4.5c1.8,0,47.5,0.3,48,0
	c0.9-0.7,0.3-5.4,0.3-6.7c0-18.6,0-37,0-55.5h3.6v-9.8h-9.8V22h-65.2v34.7c1.8,1.2,0.9,1.2,2.7,0v-32h62.5v3.6h3.6v59.5h-44.3
	c-2.1,0-1.9-0.4-3.9,0c-1.3,0.3-0.1,0.4-1.3-0.3C367.2,84,362,95,362,95.9c-4.5,0-7.1,2.8-9.1,6.5c-2.7,5.1-0.9,5.2-3.9,8.2l-5.9,6
	c-1,1-3.4,2.5-3,4.8c0.4,2.7,4,2.5,5.2,1.6l3.1-3l0.1-0.1l0.9-0.7C349.5,122.4,350.1,124.8,350.1,127.6z"/>
<path class="st0" d="M253.8,126.4c0.7-1,2.4-2.1,3.4-3.7c0.9-1,2.4-3.4,2.4-5.1c-2.7,1.6-4.5,3.1-9.2,2.7
	c-8.9-0.7-10.9-9.7-7.4-13.5c4.8-5.2,13.8-2.2,15.3-2.5c1.3-4.2-1.6-4.3,1.6-9.1c1.2-1.8,3.9-5.4,5.2-6.5c2.4,1,7.1,6,8,9.1
	c-0.6-0.7-1.5-1.5-2.1-2.2c-0.3-0.3-1.9-2.2-2.4-0.9c-0.4,1,1.3,2.1,1.8,2.7l4,5.2c0.7,1.2,1.2,1.2,1.5,3c0.6,2.8,1,5.7,0.6,8.5
	C274.8,125.5,259.6,128.8,253.8,126.4z M232.4,105.6c0,1.5,0.4,4.3,0.7,5.5c2.2,6.8,9.4,16.5,17.1,17.3c4.3,0.4,8.3,3,16.2-0.1
	c1.8-0.7,3.4-1.3,5.1-2.4c0.4-0.3,0.7-0.6,1.3-1c4.5-3,5.8-7.4,6.4-12.8c0.4-4.8-2.1-11.8-3.6-15.3c-0.3-0.4-0.6-0.9-0.9-1.3
	c-0.3-0.6-0.4-0.9-0.9-1.5c-1.6-2.4-3.4-4.6-5.8-6.4c-0.7-0.4-0.9-0.4-1.3-1c0-0.3,2.8-5.7-1-7.4c-3.4-1.5-10.1,1.9-12.5,3.4
	c-3.4,1.9-5.8-0.3-14.3,7.7C235.2,93.7,232.4,100.4,232.4,105.6z"/>
<path class="st0" d="M411.1,313.1h-70.5c-0.1-0.3-0.1,0.3-0.3-0.6v-35c0-7.3-0.3-30,0.1-35.4c5.2-0.4,12.3-0.1,17.7-0.1
	c6.2,0,51.3-0.3,53.3,0.1c0.4,5.7,0.1,12.2,0.1,17.9v52.2C411.2,313.3,411.8,312.7,411.1,313.1z M375.5,237.7
	c0-0.9,12.9-29.9,13.5-30.8l30.6,13.5l-8.5,19.3c-6.2,0.4-20.5,0-28.4,0C378.6,239.8,378.6,238.9,375.5,237.7z M371.9,238.9l1.5,0.7
	h-35.6v75.9h76v-75.3c0-0.9,3.9-9.1,4.5-10.4c0.9-1.9,1.6-3.4,2.4-5.4c0.4-1.3,2.1-4,2.1-5.4l-8.8-3.9c-1.5-0.7-2.8-1.3-4.3-1.9
	l-4.6-1.9c-0.9-0.4-16.2-7.6-17.7-7.7c-0.1,1.2-1.3,3.3-1.8,4.5c-0.6,1.5-1.2,2.8-1.9,4.3L373,236.7
	C372.5,237.4,372.4,238.1,371.9,238.9z"/>
<path class="st0" d="M410.9,193.7c-2.4,10.7-18.6,7-16.1-3.7c0.9-3.9,5.1-7.3,10-6.1C408.7,184.7,412.1,188.8,410.9,193.7z
	 M395.3,125.4h45.8c0.7,0.6,0.4,1.3,0.4,2.7c0,7.9,0.4,42.2-0.1,43.9l-46.3-0.1c-0.6-1.5-0.3-20.1-0.3-23.4v-22c0-0.4,0-0.3,0.1-0.7
	C395.4,124.3,394.3,126,395.3,125.4z M384.9,168.2c0.7-1.5,5.7-5.1,7.7-5.8l0.1,11.6c2.7,0.7,22.8-0.3,28.4,0.1
	c1.5,8.2-2.1,14.7-4.6,21.1c-0.6-0.3-1.6-1.2-2.1-1.6c-1.2-1-0.9-1.3-1-2.8c-0.1-2.2-0.9-4-1.9-5.4c-2.5-3.1-4.9-4.3-10.4-4.2
	c-1.2,0-3.1-1.9-4.3-3c-1.5-1.2-2.7-2.2-4-3.4L384.9,168.2z M392.6,159.6c-1.9,0.4-10.6,6.2-11.2,8.6c0.9,1.3,15.2,12.9,15.9,14
	l-2.2,2.1c-2.5,2.7-3.6,6.2-2.7,10.3c1.5,7.3,11,10.4,16.8,6c1.3-0.9,3.1-3,3.6-4.8c0.9,0.3,1,0.6,2.2,1.6c0.9,0.7,1,1.6,2.4,1.6
	l2.7-5.1c1.6-3.3,3-8.6,3.6-12.2c0.3-1.5,0.7-5.8,0-7.3h15.6c2.4,0,4.6,0.4,4.6-0.9v-50.1c0-0.6-0.1-0.7-0.7-0.7h-49.8
	c-1.3,0-0.7,2.5-0.7,3.7V159.6z"/>
<path class="st1" d="M387.4,63.4c-0.9-0.1-1.6-1-2.4-1.9l-5.8-6.4c-0.7-0.7-1.9-2.2-3.4-2.2c-1.9,0-5.2,3-1.9,6.2l7.9,8.3
	c4.3,4.3,6.1,9.2,9.7,2.2c0.7-1.5,1.6-3.1,2.5-4.6l11-20.1c0.4-1,0.7-1.3,1.2-2.2c0.9-1.6,2.1-3.3,2.1-5.1c0-1.9-3.6-5.9-6.8,0
	L387.4,63.4z"/>
<path class="st0" d="M428.2,140.4c1.2-1.2,1.9-1.5,0.9-3c-1.8-0.3-2.4,0.9-3.3,1.8l-7.6,7.6c-1.3-1-3.7-3.7-5.1-5.1
	c-1-1-1.8-1.6-2.7-2.7c-0.4-0.4-1.9-2.5-3-1.5c-1.5,1.3,1.9,3.9,3.9,5.8c1,1,4.6,4.3,5.1,5.4l-7.7,7.7c-1,0.9-2.4,1.9-1.2,3
	c1.3,1,2.4-0.7,3.1-1.3l7.6-7.7c1.6,1.2,3.7,3.6,5.2,5.1c2.2,2.2,3.7,4.6,5.7,4.3c1-1.6,0-2.1-1-3.1l-7.9-7.9
	C420.9,147.4,426.5,142.2,428.2,140.4z"/>
<path class="st0" d="M359.4,275.8c2.1,0.7,27.4,0.3,31.7,0.3c1.2,0,1.2,0,1.9-0.4v-1.5c-0.6-0.3-1-0.4-1.9-0.4h-29.9
	C359.3,273.7,359.2,274.1,359.4,275.8z"/>
<path class="st0" d="M361.2,266.1h30.2c2.7,0,2.5-2.2,0-2.2h-30.2C358.6,263.9,358.6,266.1,361.2,266.1z"/>
<path class="st0" d="M359.6,285.7c1.3,0.4,19.6,0.4,21.1,0c0.9-2.7-1.8-2.2-3.9-2.2h-13.2C361.5,283.5,358.6,282.9,359.6,285.7z"/>
<path class="st0" d="M316.8,234.6c0,0.7,0.1,0.7,0.3,1.3c2.2,0.4,2.2-0.9,3.9-2.1l3.6-3.1c0.7-0.6,1-1,1.8-1.6
	c1.2-1,5.1-4.2,5.1-5.4c0-1.2-0.9-1-1.6-1c-0.4,0-6,4.9-6.7,5.7C321.8,229.7,316.8,233.7,316.8,234.6z"/>
<path class="st1" d="M282.4,257.5l-0.4-1.6c-1-0.1-2.1,0-3.1,0c-0.3,0-1.2,0-1.6,0l-1,0.3l6.5,13.2
	C283.9,266.6,282.8,260.6,282.4,257.5z"/>
<path class="st0" d="M329,53.7c0,1.8,1.2,1.5,5.2,2.4c0.9,0.3,1.9,0.4,3,0.7c1.9,0.4,4.3,1.5,4.3-0.7c0-1.6-3.1-1.6-5.4-2.2
	C333.6,53.2,329,51.5,329,53.7z"/>
<path class="st1" d="M272.4,199c-1.3,0.6-0.9,2.1,1,2.2c1.5,0,2.7,0.1,4.2,0.4c1.6,0.3,6.4,2.2,7.3,1.5
	C288.2,200.7,273.9,198.1,272.4,199z"/>
<path class="st0" d="M421.8,252.9c0,1,0.6,1.8,1.2,2.4c0.7,1,4,6.4,5.1,6.4c4,0-0.6-4.8-3-7.9c-0.4-0.6-1-1.9-1.9-1.9
	C422.5,251.8,421.8,252.7,421.8,252.9z"/>
<path class="st0" d="M421.8,109.9c0,0.7,0.7,1.5,1.3,1.5c1,0,6.5-7.3,6.5-7.6c0-1.6-1.6-1.9-2.7-0.7
	C425.9,104.1,421.8,109.3,421.8,109.9z"/>
<path class="st0" d="M359.3,206.6c0,1.2,0.3,1.3,1.3,2.7c0.7,0.7,1.2,1.3,1.8,2.1c0.4,0.6,0.9,1.5,1.6,1.9c0.7,0.4,1.9,0.4,1.9-1.2
	c0-0.7-1.9-2.8-2.5-3.6c-0.9-1.2-2.1-3-3.1-3C359.7,205.6,359.3,206,359.3,206.6z"/>
<path class="st0" d="M384.6,284c-0.1,2.7,0.6,2.1,6.8,2.1c1.6,0,1.9-0.3,1.6-2.1C391.7,283.2,385.3,283.4,384.6,284z"/>
<path class="st0" d="M246.7,112.9c2.1,0.3,1.6-1.8,4.9-2.4c1.5-0.3,2.1,0,3.4,0.4c1.6,0.4,2.4-0.3,1.2-1.3
	C253.7,107.5,245.7,109.9,246.7,112.9z"/>
<path class="st0" d="M266,96.1c-0.7,0.3-1.5,0.7-1,2.1c0.3,0.6,1,1.3,2.1,0.9C268.7,98.3,268,95.5,266,96.1z"/>
<path class="st0" d="M366.7,111.1c1.3,0.3,1.3-0.3,1.8-1.3c0.3-0.9,1.2-2.2,0.4-2.8C367.8,105.8,366.4,110.2,366.7,111.1z"/>
</svg>
