<svg xmlns="http://www.w3.org/2000/svg" xmlns:xlink="http://www.w3.org/1999/xlink" width="543" height="437" viewBox="0 0 543 437"><defs><filter id="a" x="0" y="0" width="543" height="437" filterUnits="userSpaceOnUse"><feOffset dy="6" input="SourceAlpha"/><feGaussianBlur stdDeviation="12" result="b"/><feFlood flood-opacity="0.4"/><feComposite operator="in" in2="b"/><feComposite in="SourceGraphic"/></filter></defs><g transform="translate(788 -387)"><g transform="matrix(1, 0, 0, 1, -788, 387)" filter="url(#a)"><rect width="471" height="365" rx="7.455" transform="translate(36 30)" fill="#4f444d"/></g><path d="M-512,456V417H-645V782h356.588A7.413,7.413,0,0,0-281,774.588V456Z" fill="#453f46"/><circle cx="4.5" cy="4.5" r="4.5" transform="translate(-741 429)" fill="#fc4f47"/><circle cx="4.5" cy="4.5" r="4.5" transform="translate(-728 429)" fill="#fec200"/><circle cx="4.5" cy="4.5" r="4.5" transform="translate(-715 429)" fill="#00d82c"/><rect width="52" height="11" rx="5.5" transform="translate(-729 475)" fill="#5d5b5c"/><rect width="63" height="11" rx="5.5" transform="translate(-729 499)" fill="#5d5b5c"/><rect width="38" height="11" rx="5.5" transform="translate(-729 523)" fill="#5d5b5c"/><rect width="22" height="11" rx="5.5" transform="translate(-729 547)" fill="#5d5b5c"/><rect width="38" height="11" rx="5.5" transform="translate(-729 571)" fill="#5d5b5c"/><rect width="54" height="12" rx="6" transform="translate(-609 473)" fill="#6f8fa4"/><rect width="12" height="12" rx="6" transform="translate(-633 473)" fill="#5a555a"/><rect width="12" height="12" rx="6" transform="translate(-633 497)" fill="#5a555a"/><rect width="12" height="12" rx="6" transform="translate(-633 521)" fill="#5a555a"/><rect width="12" height="12" rx="6" transform="translate(-633 545)" fill="#5a555a"/><rect width="12" height="12" rx="6" transform="translate(-633 569)" fill="#5a555a"/><rect width="12" height="12" rx="6" transform="translate(-633 593)" fill="#5a555a"/><rect width="12" height="12" rx="6" transform="translate(-633 617)" fill="#5a555a"/><rect width="12" height="12" rx="6" transform="translate(-633 641)" fill="#5a555a"/><rect width="12" height="12" rx="6" transform="translate(-633 665)" fill="#5a555a"/><rect width="12" height="12" rx="6" transform="translate(-633 689)" fill="#5a555a"/><rect width="12" height="12" rx="6" transform="translate(-633 713)" fill="#5a555a"/><rect width="12" height="12" rx="6" transform="translate(-633 737)" fill="#5a555a"/><rect width="12" height="12" rx="6" transform="translate(-633 761)" fill="#5a555a"/><rect width="54" height="12" rx="6" transform="translate(-609 497)" fill="#6f8fa4"/><rect width="54" height="12" rx="6" transform="translate(-609 521)" fill="#6f8fa4"/><rect width="49" height="12" rx="6" transform="translate(-609 569)" fill="#6e8da3"/><rect width="49" height="12" rx="6" transform="translate(-609 592)" fill="#6e8da3"/><rect width="54" height="12" rx="6" transform="translate(-541 473)" fill="#6f8fa4"/><rect width="108" height="12" rx="6" transform="translate(-541 497)" fill="#6f8fa4"/><rect width="208" height="12" rx="6" transform="translate(-541 521)" fill="#6f8fa4"/><rect width="103" height="12" rx="6" transform="translate(-547 569)" fill="#706d6f"/><rect width="103" height="12" rx="6" transform="translate(-431 569)" fill="#6e8da2"/><rect width="49" height="12" rx="6" transform="translate(-547 592)" fill="#6e8da3"/><rect width="49" height="12" rx="6" transform="translate(-609 737)" fill="#6e8da3"/><rect width="49" height="12" rx="6" transform="translate(-547 737)" fill="#6e8da3"/><rect width="54" height="12" rx="6" transform="translate(-584 617)" fill="#6e8da3"/><rect width="20" height="12" rx="6" transform="translate(-518 617)" fill="#75998e"/><rect width="72" height="12" rx="6" transform="translate(-485 617)" fill="#706d6f"/><rect width="54" height="12" rx="6" transform="translate(-584 713)" fill="#6e8da3"/><rect width="20" height="12" rx="6" transform="translate(-518 713)" fill="#75998e"/><rect width="72" height="12" rx="6" transform="translate(-485 713)" fill="#706d6f"/><rect width="41" height="12" rx="6" transform="translate(-558 641)" fill="#75998e"/><rect width="41" height="12" rx="6" transform="translate(-505 641)" fill="#706d6f"/><rect width="24" height="12" rx="6" transform="translate(-453 641)" fill="#6e8da3"/><rect width="53" height="12" rx="6" transform="translate(-421 641)" fill="#af9045"/><rect width="41" height="12" rx="6" transform="translate(-558 665)" fill="#75998e"/><rect width="41" height="12" rx="6" transform="translate(-419 665)" fill="#706d6f"/><rect width="17" height="12" rx="6" transform="translate(-508 665)" fill="#6e8da3"/><rect width="53" height="12" rx="6" transform="translate(-483 665)" fill="#af9045"/><rect width="41" height="12" rx="6" transform="translate(-558 689)" fill="#75998e"/><rect width="49" height="12" rx="6" transform="translate(-505 689)" fill="#6e8da3"/><rect width="74.128" height="12" rx="6" transform="translate(-444.128 689)" fill="#af9045"/></g></svg>