<?xml version="1.0" encoding="utf-8"?>
<!-- Generator: Adobe Illustrator 24.0.1, SVG Export Plug-In . SVG Version: 6.00 Build 0)  -->
<svg version="1.1" id="Layer_1" xmlns="http://www.w3.org/2000/svg" xmlns:xlink="http://www.w3.org/1999/xlink" x="0px" y="0px"
	 viewBox="0 0 1342.8 1342.8" style="enable-background:new 0 0 1342.8 1342.8;" xml:space="preserve">
<g>
	<path d="M490.4,459.5c0-2.9,0.7-6-0.1-8.7c-4-13.3-3.8-26.9-3.9-40.6c-0.4-52.1-1.1-104.3-1.6-156.4c-0.1-12.5-0.3-25-0.1-37.5
		c0.1-3.2,0.9-6.8,2.5-9.5c1.1-1.9,4.2-3.5,6.5-3.6c13-0.3,26-0.2,39,0c5.9,0.1,9.6,4.7,9.9,12.2c0.1,4-0.1,8-0.1,12
		c0,97.6,0,195.3,0,292.9c0,4.3,0.4,8.7,0.1,13c-0.4,7.8-4,11-11.8,11c-14,0-28-0.1-42,0c-3.5,0-6.2-0.9-8.2-3.7
		c-4.7-6.6-9.5-13.1-14-19.7c-3.9-5.6-7.6-11.4-11.2-17.2c-2.5-3.9-4.7-7.9-7.1-11.8c-1.2-2-2.6-3.8-3.9-5.7
		c-0.7-0.9-1.6-1.7-2.2-2.7c-2.3-4.1-4.4-8.4-6.9-12.4c-3.4-5.4-7.3-10.6-10.7-16c-3.2-5-5.9-10.2-9-15.2c-3-4.8-6.3-9.3-9.3-14.1
		c-3.7-5.8-7.1-11.8-10.9-17.5c-2.9-4.4-6.2-8.5-9.1-12.9c-2.3-3.4-4.4-7-6.5-10.5c-3.4-5.6-6.8-11.3-10.3-16.9
		c-2.9-4.8-6.2-9.4-9-14.2c-3.2-5.5-6-11.2-9-16.8c-0.2-0.4-0.3-1-0.5-1.4c-3.4-5.5-7.2-11-10.3-16.7c-3.3-6-6.2-12.3-9.2-18.5
		c-2.4-4.9-4.5-9.9-6.9-14.8c-0.3-0.6-1.5-1.4-1.9-1.2c-1,0.4-2.3,1.2-2.4,2c-0.3,2.3-0.2,4.6,0,6.9c0.4,3.6,1.4,7.2,1.4,10.8
		c0.1,72.3,0.1,144.6,0.2,217c0,4.8,0.1,9.7,0,14.5c-0.2,6-2.7,8.6-8.6,8.6c-12.7,0.1-25.3,0.1-38,0c-8.3-0.1-12.5-4.5-12.5-12.8
		c0.1-40.7,0.2-81.3,0.2-122c0-61.3-0.1-122.6-0.1-184c0-3.2-0.2-6.3-0.2-9.5c-0.1-8.2,4.7-13.2,12.8-13.1c15,0,30,0,45,0.1
		c6.7,0,11.8,2.2,14.7,8.9c1.5,3.6,4.5,6.5,6.7,9.8c5.5,8.2,10.9,16.5,16.3,24.8c6.7,10.2,13.4,20.4,20,30.6
		c4.1,6.4,8.2,12.7,12.2,19.2c2.8,4.5,5.4,9.1,8.2,13.5c5.5,8.5,11.3,16.9,16.8,25.5c3.2,4.9,6.1,10,9.3,15
		c3.3,5.2,6.9,10.3,10.2,15.6c2.7,4.3,5.3,8.6,7.9,13c1,1.7,2.1,3.3,3,5.1c3.6,6.4,7.1,12.9,10.8,19.2c1.1,2,2.9,3.7,4,5.7
		c3.1,5.8,6.1,11.6,9.1,17.4c2.6,4.9,5.3,9.8,7.9,14.8c1.7,3.4,3.1,6.9,4.9,10.2c1.7,3.1,3.8,6,5.7,9
		C489.2,459.9,489.8,459.7,490.4,459.5z"/>
	<path d="M674.5,544.7c-16.5,0-33,0.1-49.5,0c-8.9-0.1-12-3.6-11.8-12.6c0.4-16.6,0.9-33.3,0.9-49.9c0.2-91.3,0.2-182.6,0.2-274
		c0-12,0-11.5,10.7-12.2c7.5-0.5,14.9-3.3,22.4-4.7c4.2-0.8,8.6-1.4,12.9-1.4c21.5-0.1,43,0.2,64.5-0.2c8.2-0.1,15,4.4,22.6,5.4
		c9.4,1.2,18.1,4,26.9,7.4c3.4,1.3,6.4,3,9.6,4.5c5.3,2.3,10.3,5,15.1,8.2c11.2,7.5,21.7,15.7,29.8,26.6c3.8,5,8.8,9.7,10.6,15.4
		c2.1,6.7,8.6,11,8.6,18.6c0,2.2,1.6,4.8,3,6.7c2.5,3.2,3.1,6.7,3.5,10.6c0.5,4.2,2.2,8.3,3.4,12.4c1,3.5,2.6,7,2.8,10.5
		c0.9,17.1,1.8,34.3,1.8,51.4c0.1,13.1-0.7,26.3-1.9,39.4c-0.6,5.8-4.7,11.4-4.7,17.1c-0.1,10.8-7.7,19.2-8.4,29.6
		c-0.1,1.5-1.5,2.9-2.3,4.3c-1.4,2.9-2.7,6-4.2,8.8c-2.3,4.2-4.6,8.4-7.3,12.4c-3.5,5.2-7.2,10.3-11.2,15.2
		c-6.4,7.9-13.7,14.8-22.3,20.4c-4.5,3-8.8,6.4-13.2,9.6c-0.1,0.1-0.3,0.2-0.4,0.3c-7.7,2.3-13.9,8.3-22.2,9.1c-1,0.1-2.3,0-2.9,0.6
		c-3.8,4.2-8.9,3.8-13.8,4.7c-5.2,1-10.5,1.5-15.1,4.7c-1.8,1.3-4.8,1.1-7.3,1.1C708.5,544.7,691.5,544.7,674.5,544.7
		C674.5,544.7,674.5,544.7,674.5,544.7z M807,362.8c-0.2-16.4,0.6-32.7-4.3-48.9c-2.9-9.6-5.9-19.3-9.8-28.3
		c-3.2-7.4-9-13.9-14.4-20.1c-7.6-8.9-18.1-14.2-27.6-20.7c-0.5-0.4-1.2-0.4-1.9-0.6c-3.6-1.1-7.2-2.3-10.9-3.3
		c-4.6-1.2-9.3-3.2-13.9-3.3c-16.8-0.4-33.6-0.2-50.4-0.1c-5.3,0-7.3,1.8-7.5,7.1c-0.2,4.6,0.2,9.3,0.2,14
		c0.1,74.8,0.1,149.6,0.1,224.4c0,2.5,0,5-0.3,7.5c-0.7,5.7,1.2,8.5,7.1,8.6c22.9,0.3,45.9,2.2,68-6.5c10.8-4.3,20.6-9.7,28.7-18
		c5.4-5.5,10.6-11.3,15.3-17.4c3.2-4.2,6.1-8.8,7.8-13.7c3.2-9.5,7.3-18.6,9.1-28.7c2.4-13.1,5.8-25.9,4.8-39.4
		C806.7,371.1,807,366.9,807,362.8z"/>
	<path d="M1132.2,190.6c6.7,0,13.3-0.1,20,0c7.6,0.1,10.3,2.5,11.8,10.1c0.4,1.9,1.4,3.7,1.9,5.6c1.6,5.7,3.1,11.4,4.6,17.1
		c0.2,0.8,0,1.8,0.4,2.4c4.7,7.2,3.1,16.5,6.9,23.6c4.2,7.8,3.6,16.4,6.6,24.3c3.3,8.7,6.6,17.6,9.1,26.6
		c3.2,11.3,5.4,22.8,8.4,34.1c1.3,5.1,4,9.9,4.9,15.1c2,10.9,8.2,20.7,8.2,32.1c0,0.3,0.1,0.7,0.2,1c4.1,4.5,3.9,10.4,5.2,15.8
		c1,4.4,3.4,8.5,4.6,12.9c1.3,4.9,2,10.1,2.9,15.1c0.1,0.7,0,1.5,0.3,2c5.3,6.5,2.8,15.4,6.5,22.1c4.1,7.4,3.9,15.6,6.5,23.2
		c0.4,1.2,0.8,2.6,1.5,3.6c2.5,3.4,3.5,7.1,3.1,11.3c-0.4,4.7,1.6,8.6,3.6,12.7c1.5,3,2.8,6.5,2.8,9.8c0.1,5.2,1.2,9.8,4.2,14.1
		c1.1,1.6,2.1,3.5,2.3,5.4c0.8,8.5,0.5,14.5-12.3,14c-10.5-0.4-21,0-31.5,0c-5.9,0-8.3-2-10.4-7.3c-1.5-3.7-4.6-7.1-5-10.8
		c-0.9-9.2-4.4-17.5-6.9-26.2c-3.1-11.1-4.3-22.8-8.4-33.5c-2.6-6.8-4.6-13.3-5.5-20.4c-0.2-1.6-2.9-3.9-4.6-4.2
		c-5.4-0.7-10.9-0.8-16.4-0.8c-22.2,0-44.3,0-66.5,0.1c-2,0-4,0.1-6,0.4c-3.6,0.5-5.6,2.2-5.5,6.3c0.1,2.8-0.7,5.6-1.5,8.3
		c-3.6,11.8-8.3,23.5-10.6,35.5c-1.6,8.4-3.5,16.4-7.4,24c-0.3,0.6-0.3,1.3-0.2,2c1.1,8.2-2.4,14.9-6.6,21.4c-2,3.1-4.4,5.2-8.5,5.2
		c-10.7-0.1-21.3,0-32,0c-1.7,0-3.3-0.1-5-0.4c-6.5-1.3-9.4-7.2-5.9-12.8c2.4-3.8,3.4-7.7,4.1-12c0.7-4.5,3.2-8.7,4.6-13.1
		c0.8-2.5,1.1-5.1,1.6-7.7c0.6-2.6,1.2-5.1,1.9-7.7c1.5-5.7,3.1-11.4,4.7-17.1c0.8-2.9,1.9-5.6,2.7-8.5c1.4-4.9,2.6-9.9,3.8-14.8
		c0.5-2.1,1.1-4.1,1.7-6.2c1.7-5.9,3.3-11.7,5-17.6c0.4-1.4,0.7-2.9,1.2-4.3c1.3-3.7,3-7.3,4-11c1.4-5.5,1.6-11.2,5-16.5
		c2.2-3.3,1.6-8.4,2.3-12.6c0.3-1.6,0.2-3.7,1.1-4.8c4.2-4.6,4.1-10.3,4.5-15.9c0-0.2,0-0.3,0.1-0.5c3.3-9.1,5.4-18.6,8-27.9
		c1.9-6.9,3.7-13.8,5.7-20.6c2.5-8.3,4.6-16.7,6.9-25c2.1-7.5,6.2-14.4,5.8-22.6c-0.1-0.9,0.6-1.9,1.2-2.7c3.6-5.4,5-11.3,5.5-17.8
		c0.3-4.2,3.1-8.3,4.7-12.4c0.4-1.1,1.2-2.2,1.1-3.3c-0.7-8.1,3.4-14.8,6.1-21.9c0.4-1.1,0.6-2.2,0.7-3.4c0.8-8.4,5.8-13,14.3-13.1
		c7.2-0.1,14.3,0,21.5,0C1132.2,190.4,1132.2,190.5,1132.2,190.6z M1129,395.3c10.8,0,21.7,0.1,32.5,0c4.8,0,7.4-3.1,5.2-7.1
		c-4.2-7.5-5.9-15.4-7.3-23.9c-1.2-7.2-7-13.5-6-21.6c0-0.3-0.2-0.6-0.3-0.9c-2.3-7.7-7.4-14.6-6.2-23.2c0.1-0.6-0.4-1.3-0.6-1.9
		c-3.4-7.4-7-14.7-5.8-23.3c0.2-1.2-0.6-2.6-1.2-3.7c-3.9-7.9-6.2-16-5.5-24.9c0.2-2.5-0.9-5.2-2.1-7.5c-1.5-3-3.8-3-5-0.1
		c-1.4,3.3-2.2,6.9-2.5,10.4c-0.5,6.3,0.5,12.7-2.9,18.5c-2.7,4.7-4.3,9.7-3.8,15.2c0.4,4.4-0.8,8.4-3.2,12.3
		c-1.8,2.9-2.5,6.4-3.4,9.8c-0.9,3.3-1.2,6.9-2.2,10.2c-2.9,10-6,19.9-9,29.8c-2.4,7.9-4.5,15.8-7,23.7c-2.3,6.9-1.5,8.2,5.7,8.2
		C1108.7,395.3,1118.8,395.3,1129,395.3z"/>
	<path d="M75.4,430.5c0-19-0.2-38,0.1-57c0.1-5.2,1.9-10.3,2.9-15.5c0.6-3.1,1.2-6.2,2-9.2c2.7-9.1,5-18.4,8.4-27.3
		c2.5-6.5,6.3-12.5,9.6-18.7c2.3-4.3,5.2-8.4,7.3-12.7c1.4-2.7,0.5-5.3-1.7-7.7c-3.6-3.8-7.2-7.7-10-12.1c-4.2-6.4-7.7-13.3-11.5-20
		c-0.5-0.8-0.5-1.9-0.7-2.9c-0.7-2.6-0.8-5.4-2.1-7.6c-3.3-5.4-5-11-4.8-17.4c0.1-2.3-1.3-4.8-2.5-7c-3.3-5.6-3.9-11.6-3.8-17.8
		c0.1-9.2,0.4-18.3-0.1-27.5c-0.6-11.2,2.2-21.8,5.5-32.3c0.1-0.2,0.2-0.3,0.2-0.5c-0.8-9.3,5.5-16.4,8-24.6c1.3-4.5,5-8.5,8.2-12.2
		c2.2-2.5,6.9-0.3,8.1,3.5c1.5,4.9,3.6,9.9,3.7,14.9c0.1,10.4,2.4,20.4,5.1,30.3c1.9,7,2.4,14.3,6.2,20.8c1.6,2.8,1.9,6.3,2.8,9.4
		c0.2,0.6,0,1.4,0.3,2c3.5,6.5,7.2,12.9,10.5,19.5c6.1,12.6,16.9,21.1,26.4,30.8c2.3,2.3,4.1,2.5,6.2,0.2
		c7.7-8.4,15.7-16.6,22.9-25.4c5-6.2,9.3-13.2,13.2-20.2c4.9-8.9,9.4-18.1,13.5-27.4c2.8-6.3,5.4-12.9,6.8-19.6
		c1.3-6.3,0.7-12.9,1.2-19.4c0.2-3.1,0.7-6.3,1.4-9.3c0.5-2.4,2.2-3.1,4.6-2.4c4.3,1.3,7.9,5.5,7.9,9.9c0,7,1.7,13.4,4.7,19.7
		c1.1,2.3,1.9,5.1,1.8,7.7c-0.3,7.8,2.2,15,4,22.4c3.1,12.6,3,25.4,1,38.2c-0.5,2.9-2.2,5.5-3.4,8.3c-0.4,0.9-1.1,1.9-1,2.8
		c0.7,9.6-5.9,17-7.8,26c-1.3,6.5-6,12.3-9.2,18.3c-0.2,0.4-0.6,0.8-0.8,1.2c-3.1,6.4-5.9,12.8-9.2,19.1c-2,3.8-4.3,7.4-6.8,10.9
		c-6.1,8.6-12,17.5-18.9,25.4c-7,8-15.1,15.1-22.7,22.6c-0.6,0.6-1.5,1-1.7,1.7c-2.8,9-11.1,13.9-16,21.3
		c-5.3,7.9-11.4,15.4-16.7,23.4c-4,6-7.8,12.3-10.8,18.9c-3.3,7.1-5.6,14.7-8.4,22.1c-1.1,2.8-2.7,5.4-3.6,8.2
		c-3.1,9.8-6.5,19.5-8.6,29.4c-2.3,11-4,22.3-4.7,33.5c-0.7,10.3,0.4,20.6,0.6,30.9c0,1.7-0.2,4.1-1.2,4.9c-1,0.7-3.4-0.1-4.9-0.7
		c-3.5-1.5-4.9-4.5-4.8-8.1c0.4-9.6-1.4-18.8-5.1-27.7c-1-2.5-1.4-5.5-1.4-8.3C75.4,470.5,75.5,450.5,75.4,430.5
		C75.4,430.5,75.4,430.5,75.4,430.5z"/>
	<path d="M962.9,368c0,54.5,0,108.9,0,163.4c0,9-4.1,13.1-13.1,13.1c-10.3,0-20.7-0.1-31-0.1c-6,0-9.3-2.8-10-8.8
		c-0.2-2-0.1-4-0.1-6c0-108.6,0-217.2,0.1-325.9c0-2.4,0.5-4.9,1.2-7.3c1.1-4.1,4-5.8,8.2-5.8c10.8,0,21.7-0.2,32.5-0.1
		c8.2,0.1,12.2,4.3,12.2,12.4C962.8,258,962.8,313,962.9,368C962.8,368,962.9,368,962.9,368z"/>
	<path d="M872.8,1025.6c0-21.3,0-42.7,0-64c0-2.8,0.3-5.7,0.4-8.5c0.2-7.9,5-13.1,10.9-17.5c1.2-0.9,3.2-1,4.8-1
		c29.8,0,59.7-0.2,89.5,0.1c4.5,0,9,1.8,13.4,3c3.6,1,7.2,2.1,10.7,3.6c3,1.3,5.8,3.2,8.4,5.1c6.3,4.5,12.9,8.6,18.5,13.8
		c5,4.7,9.6,10.1,11.4,17.2c0.1,0.5,0.5,0.9,0.8,1.3c6.4,8.8,9.1,19.2,10.8,29.5c2.8,16.5,1.9,32.9-3.9,49.2
		c-2.4,6.9-5.6,13.4-9,19.5c-4.6,8.4-10.3,16.6-19.3,21.5c-5.4,3-10.4,6.8-15.6,10.2c-0.7,0.5-1.4,1.1-2.1,1.3
		c-4.9,1.3-10.2,1.7-14.7,3.8c-12.5,5.9-25.6,2.6-38.3,3c-18.8,0.6-37.7,0.2-56.5,0.1c-9.5,0-17.5-6.5-19.2-15.9
		c-0.6-3.3-0.7-6.6-0.7-10C872.8,1069.3,872.8,1047.5,872.8,1025.6C872.8,1025.6,872.8,1025.6,872.8,1025.6z M912,1025.2
		c0,0,0.1,0,0.1,0c0,6,0,12,0,18c0,11.2-0.1,22.3-0.1,33.5c0,6.7,2.4,8.8,9,8.6c5.2-0.1,10.3,0.1,15.5-0.2c13.8-1,27.7,1.7,41.6-2
		c8.2-2.1,14.1-6.8,19.4-12.2c7-7.2,9.1-17.3,12.7-26.5c3.3-8.5,3.1-17.5,1.9-26.1c-1.3-9.1-3.5-18.4-7.4-26.6
		c-4.1-8.6-10.8-15.9-19.2-21.1c-1.2-0.8-2.7-1.1-4.1-1.6c-2.8-0.9-5.7-1.6-8.5-2.4c-1.6-0.4-3.2-1.1-4.8-1.1
		c-15.6,0-31.3,0.2-46.9,0.2c-7.1,0-9.3,2-9.3,9C912,991.5,912,1008.3,912,1025.2z"/>
	<path d="M667.4,1025.6c0-20.7,0-41.3,0-62c0-2.8,0.1-5.7,0.2-8.5c0.1-8.3,4.1-14.5,10.7-19.2c1.2-0.9,3.1-1.2,4.7-1.2
		c33.8-0.1,67.6-0.1,101.5,0.1c2.6,0,5.3,1.6,7.8,2.6c3,1.2,6.2,2.3,8.9,3.9c4.4,2.6,9,5.1,12.6,8.6c4.9,4.9,10.3,10,13,16.1
		c4.7,10.5,8.6,21.7,4.1,33.6c-0.2,0.6-0.4,1.3-0.5,1.9c-1.5,11.4-8.5,19.5-16.4,27c-0.8,0.8-1.8,1.5-2.6,2.3c-5,4.5-5,7.1,0.4,11.4
		c7.6,6.1,10.7,14.1,12,23.5c0.9,6.7,2.2,13.5,4.9,19.7c1.7,3.9,6.2,6.6,9.4,9.9c4.9,5.1,4.8,10-0.2,15.2
		c-8.1,8.3-20.4,9.3-29.8,2.3c-2.8-2.1-5.4-4.3-8.3-6.2c-5.5-3.6-6.8-10-10.2-15c-1.6-2.3-1.8-5.6-2.2-8.6c-0.4-2.8-0.5-5.7-0.1-8.5
		c1.5-8.9-3-14.6-9.9-19c-2.4-1.5-5.5-2.6-8.3-2.6c-18.5-0.2-37-0.1-55.5-0.1c-6.3,0-7,0.9-6.9,7.4c0.1,14.5,0.1,29,0,43.5
		c0,6.5-7.1,12.4-13.5,13.3c-8.5,1.2-15-2.3-20.4-7.8c-3.9-3.9-5.2-9.6-5.2-15.2C667.4,1071.3,667.5,1048.5,667.4,1025.6
		C667.4,1025.6,667.4,1025.6,667.4,1025.6z M741.3,1021C741.3,1021,741.3,1021,741.3,1021c8.7,0.1,17.3,0,26,0.1
		c6.2,0,11.3-2.1,15.8-6.7c3.1-3.1,3.7-6.7,5.1-10.4c3.3-8.8,3.6-17.2-0.6-26c-3.2-6.5-11.6-12.5-18.7-12.5c-18,0.1-36,0.1-53.9,0
		c-5.2,0-8.2,2.2-8.3,7.5c-0.2,13.5-0.2,27,0.1,40.5c0.1,5.5,2.7,7.5,8.2,7.5C723.7,1021,732.5,1021,741.3,1021z"/>
	<path d="M96.1,731.9c0-24-0.2-48,0.2-72c0.1-4.6,1.7-9.5,3.7-13.7c2.5-5.3,7-7.9,13.3-7.8c20.2,0.2,40.3-0.3,60.5,0.3
		c5,0.1,9.9,3.3,14.8,5c7.8,2.7,11.5,9.6,16.1,15.6c0.8,1,1.4,2.4,1.5,3.7c1.1,10.2,3.2,20.5,2.6,30.6c-0.6,8.6-2.8,17.8-10.2,24.1
		c-2.4,2.1-2.4,3.7-0.1,6.1c4.2,4.2,8,8.7,11.8,13.2c1.2,1.5,2.2,3.4,2.7,5.3c4.2,15.8,5.2,31.5,1.4,47.7
		c-2.8,12.1-9.5,20.1-19.4,26.8c-8.2,5.6-17.2,7.3-26.6,7.5c-17.5,0.3-35,0.3-52.5,0.1c-3.7,0-7.6-0.9-11.2-2.1
		c-1.8-0.6-3.7-2.6-4.5-4.4c-2.6-6.1-4.4-12.3-4.3-19.2C96.3,776.5,96.1,754.2,96.1,731.9C96.1,731.9,96.1,731.9,96.1,731.9z
		 M131.6,765.8c0.1,0,0.2,0,0.3,0c0,2.7,0,5.3,0,8c0,2.7-0.1,5.3-0.1,8c0.1,5.5,3.7,8.9,9.2,8.9c8,0,16,0.6,23.9-0.3
		c4.2-0.5,9.5-2.8,11.6-6.1c4.3-6.7,5.9-14.7,4.9-23c-1.1-9.9-8.6-16.8-18.6-16.9c-7-0.1-14-0.1-21,0c-2.3,0-4.6,0.6-6.9,1
		c-2.9,0.4-3.7,2.2-3.6,5C131.7,755.4,131.6,760.6,131.6,765.8z M131.6,691.9C131.6,691.9,131.6,691.9,131.6,691.9
		c0,3.8,0.1,7.7,0,11.5c-0.2,4.7,0.6,5.7,5.2,5.8c8.2,0.1,16.3,0.2,24.5-0.1c2.2-0.1,4.7-1.4,6.5-2.8c7.3-6.1,6.7-16.8,3.7-24.3
		c-1.2-3-2.1-6.8-6.3-6.9c-9.9-0.2-19.9-0.2-29.8-0.2c-3.2,0-4,2.1-3.8,5.2C131.8,683.9,131.6,687.9,131.6,691.9z"/>
	<path d="M760.1,748c0.2-2,0.5-4.1,0.5-6.1c0-29.3,0-58.7,0-88c0-5.1,1.8-9,5.6-12.2c5.9-5,14.1-4.3,19.8,1
		c3.5,3.3,4.6,6.8,4.6,11.4c-0.1,51.8-0.1,103.6-0.1,155.5c0,9.1-7.4,15.4-16.5,15.1c-9.2-0.3-14.4-5.1-18.1-12.9
		c-1.8-3.9-4.6-7.2-7-10.8c-3.7-5.6-7.5-11.2-11.1-16.9c-3-4.7-5.6-9.7-8.4-14.5c-2.3-3.8-4.6-7.5-7.1-11.2
		c-5.3-7.9-10.9-15.7-16.1-23.6c-2.8-4.3-4.9-9-7.5-13.4c-0.9-1.5-2.5-2.6-3.8-3.9c-0.5,1.6-1.6,3.2-1.6,4.8c0,28-0.1,56,0.2,84
		c0.1,6.3-2.6,11-6.4,15.1c-1.8,1.9-5.2,3.3-7.9,3.3c-11.2,0.2-17-5.8-18-17.8c-0.2-2.5-0.1-5-0.1-7.5c0-46,0.1-92,0-138
		c0-6.6,1.8-12.4,5.7-17.7c4.3-5.9,16.5-7.7,21.5-2.4c4.5,4.8,8.1,10.4,11.9,15.8c2.6,3.8,4.7,7.9,7.2,11.7
		c3.4,5.1,7.2,9.9,10.4,15.1c5.4,8.7,10.4,17.6,15.5,26.4c2.2,3.7,4.5,7.3,6.7,10.9c4.7,7.5,9.4,15.1,14.3,22.5
		c1.1,1.7,2.9,3.1,4.3,4.7C759,748.2,759.6,748.1,760.1,748z"/>
	<path d="M330.9,1053.7c0.5-2.1,0.9-4.3,1.5-6.4c2.1-7.1,4.1-14.2,6.3-21.3c0.4-1.4,1.6-2.5,2.1-3.9c1.4-4,2.7-8.1,4.1-12.1
		c1.7-4.6,3.4-9.2,5.2-13.8c0.4-0.9,1.1-1.9,1-2.8c-0.7-6.4,3.8-10.8,5.9-16.1c2-5.1,6.9-6.8,11.6-7.3c4.5-0.5,9.6,4.8,10.9,9.7
		c0.4,1.6,1.3,3,1.9,4.6c3.3,8.9,7,17.8,9.9,26.8c3.6,11.1,6.5,22.5,9.7,33.8c0.2,0.6,0,1.5,0.4,1.9c1.3,1.6,2.8,3,4.2,4.5
		c1.1-1.7,3.2-3.5,3-5c-0.8-9,4.2-16.7,5.5-25.1c1.3-8.6,5.4-16.3,7.4-24.6c2.7-11.1,4.9-22.2,7.3-33.4c0-0.2,0-0.4,0.1-0.5
		c4.4-5.8,3.9-13.2,6.5-19.6c2.8-6.9,10.6-10.5,17.5-8.5c3.5,1,9.9,9.9,10.3,13.8c0.7,8.2-1.1,15.9-4.8,23.1
		c-0.6,1.2-1.6,2.4-1.5,3.6c0.4,8.7-4.2,16-6.3,23.9c-2.7,10.2-4.9,20.5-7.3,30.8c-0.2,1-0.4,2-0.9,2.8c-4.2,6.3-4.7,13.6-5.8,20.8
		c-0.6,4-3.1,7.6-4.2,11.5c-1.7,6.2-2.8,12.6-4.3,18.9c-1.5,5.9-2.7,12-4.9,17.6c-1.8,4.6-4.3,9.1-7.4,12.8
		c-3.2,4-10.8,3.3-14.1-0.7c-6.7-7.9-11.2-16.8-12.7-27.2c-0.3-1.9-1.3-3.7-2-5.6c-1.5-4.1-2.9-8.3-4.6-12.4
		c-1.4-3.5-3.3-6.9-4.5-10.4c-2.6-7.7-4.8-15.4-7.2-23.1c-0.5-1.5-1.5-2.9-2.4-4.8c-4.2,2.6-5.8,6.2-6.7,10.4c-0.9,4-1.7,8.1-3,12
		c-1.1,3.2-3.1,6.1-4.2,9.3c-3,8.6-4.8,17.7-8.8,25.7c-3.6,7.2-5.1,15.1-9.4,22.2c-5.5,9.2-16.5,10-22.4-1.5
		c-1.9-3.6-2.8-7.8-3.9-11.7c-1.5-5.4-2.7-10.9-4.3-16.4c-1.8-6.3-3.9-12.6-5.6-19c-2.9-10.9-5.3-22-8.3-32.9
		c-2.5-8.9-5.8-17.5-8.3-26.4c-1.8-6.3-3-12.9-4.6-19.3c-0.4-1.7-1.2-3.4-1.9-5.1c-0.8-2.2-1.8-4.3-2.3-6.6c-1-4.8-1.6-9.8-2.7-14.6
		c-1.9-8.4,1-15,7.2-20.4c4.2-3.6,13-1.2,16.7,2.6c6.9,6.9,5.4,16.1,8,24.1c3.7,11.2,6.9,22.5,10.3,33.7c0.3,1,0.9,1.9,0.8,2.9
		c-0.4,9,4,16.6,6.3,24.9c2.1,7.4,3.3,15.1,5.2,22.7c0.6,2.4,1.9,4.6,2.8,6.9C329.8,1053.9,330.4,1053.8,330.9,1053.7z"/>
	<path d="M1145,1040.8c-4.3-1.3-8.6-2.9-12.9-4c-5.8-1.5-11.7-2.6-17.6-3.9c-1-0.2-2.1,0-2.9-0.4c-10.6-5.6-21.3-11.7-27.2-22.4
		c-6.8-12.3-9.4-25.7-2.9-39.6c5.1-10.8,12.8-18.5,22.7-24.8c8.9-5.6,19.4-6,28.5-10.6c1.7-0.8,3.9-0.6,5.9-0.6
		c8.8-0.1,17.7,0,26.5,0c4.4,0,8.5,0.3,12.9,2.5c5.1,2.5,11.3,3.1,17.1,3.9c3.2,0.4,5.9,1.1,8.6,3.2c3.8,3,8.4,5.1,12.3,8.1
		c2.7,2,5.1,4.6,7.3,7.2c4.2,4.8,3.6,10.8-1.2,15c-1.2,1.1-2.6,2.1-3.8,3.3c-6.6,6.2-15,6.3-21.6,0.1c-0.9-0.9-2.1-1.6-3.3-2.1
		c-4.1-1.7-8.2-3.4-12.3-5c-1.8-0.7-3.7-1.3-5.6-1.8c-3.6-1-7.2-2-10.9-2.9c-1.6-0.4-3.2-0.8-4.8-0.8c-4,0-8,0.5-12,0.2
		c-4.7-0.3-9.3-1-13.1,2.7c-0.3,0.3-1,0.5-1.4,0.5c-6.8-1.3-9.7,5-14.5,7.6c-0.9,0.5-1.4,2.2-1.6,3.4c-0.3,2-0.4,4-0.4,6
		c-0.2,6.2,1.6,10.4,7.9,13.8c9.7,5.4,19.8,7.7,30.6,8.4c0.7,0,1.4,0,1.9,0.4c5.9,3.9,12.6,3.6,19.3,3.6c1,0,2.2,0,2.9,0.5
		c5.9,4.3,13.8,3,19.6,6.4c8.1,4.7,16.9,8.4,22.7,16.9c6.2,9.1,9.1,18.8,8.2,29.5c-0.9,10.7-4.4,20.6-13.1,27.9
		c-3.4,2.8-6.4,6.1-9.7,9.1c-0.8,0.7-2,1.1-3,1.5c-1.8,0.8-4.3,1-5.4,2.4c-3.8,4.7-9.8,5.7-14.6,6.5c-7.5,1.3-14.3,5.5-22.5,4.6
		c-8.9-1-18-0.1-27-0.3c-2.5-0.1-5-1.4-7.4-2.2c-0.9-0.3-1.7-1.3-2.6-1.5c-5.5-1-11-1.9-16.5-2.8c-1.3-0.2-2.8-0.1-3.9-0.7
		c-5.5-3.3-10.9-6.7-16.1-10.3c-2.8-1.9-5.5-4.2-8-6.6c-7.1-6.9-4.6-18.9,4.3-23.5c9-4.7,16.4-1.6,23.8,3.4c2,1.4,4.4,2.2,6.5,3.4
		c2.5,1.4,4.8,3.7,7.5,4.5c7.7,2.2,15.4,5.2,23.7,4.6c4.1-0.3,8.4,0.5,12.5-0.2c7.1-1.1,14.4-2.3,21.1-4.7c4-1.4,7.4-5,10.4-8.3
		c3.4-3.7,1.5-14.8-2.4-17.9c-2.5-1.9-5-3.9-7.5-5.7c-0.9-0.7-2-1.7-3-1.7c-5.3-0.2-9.8-2.5-14.6-4.3c-5.4-2-11.5-2.4-17.4-3.4
		C1145.3,1039.6,1145.2,1040.2,1145,1040.8z"/>
	<path d="M555.7,934.9c8.6-2.2,13.4,3.2,17,9.6c4.6,8.1,8.5,16.7,12.8,25.1c0.9,1.8,2.3,3.3,3.1,5.1c1.1,2.5,2,5.2,2.9,7.8
		c0.3,0.8,0.1,1.7,0.5,2.4c3.3,6,6.6,12.1,9.9,18.1c0.4,0.7,1,1.4,1.3,2.1c2.2,4.4,4.3,8.8,6.4,13.2c2.5,5.2,5,10.4,7.5,15.5
		c3.6,7.5,7.4,14.9,10.9,22.4c2.8,5.9,5.3,12,8.2,17.9c3.2,6.5,6.4,13,9.9,19.3c3.7,6.7,3.2,11.1-2.2,16.6c-3.9,3.9-7.6,7.1-14,7.3
		c-7.7,0.1-11.7-4.6-15.1-9.5c-3.2-4.5-7.5-8.9-7.4-15.4c0-1.5-2-3-3-4.5c-0.9-1.4-2-2.7-2.6-4.2c-2.3-6.3-5.3-8.7-12-8.7
		c-20.2,0-40.3,0.1-60.5,0.1c-3.3,0-6.7-0.1-10-0.2c-6.6-0.2-10,2.9-12,9.2c-1.2,3.9-3.5,7.5-5.6,11c-3.6,6-7.6,11.9-11.4,17.8
		c-2.3,3.5-5.7,3.7-9.5,4.1c-8,1-13.1-2.3-16.2-9.4c-0.8-1.8-1.8-4.1-1.3-5.7c1.7-5.6,4.1-11.1,6.3-16.5c1.2-2.9,2.5-5.7,3.8-8.5
		c0.6-1.3,1.5-2.6,2.1-3.9c1.5-3.1,3-6.2,4.4-9.3c0.4-0.9,0.8-1.8,1.2-2.7c1.9-4,3.7-8,5.6-11.9c2.6-5.3,5.2-10.7,7.9-16
		c3.3-6.7,6.6-13.3,9.9-19.9c0.4-0.9,0.6-2,1.2-2.7c3.5-4.7,4.8-10.4,7.1-15.7c2.8-6.4,6.7-12.3,10-18.6c1.1-2.2,1.3-4.8,2.4-6.9
		c3.5-6.9,7.2-13.6,10.9-20.4c1.7-3.1,3.7-6.1,5.6-9C544.9,934.9,549.9,933.8,555.7,934.9z M554.3,1043c7.7,0,15.3,0.1,23-0.1
		c1.3,0,3.5-0.8,3.7-1.6c0.3-1.3-0.5-3-1.2-4.4c-1.5-3.1-3.3-6-4.9-9c-0.7-1.3-1.3-2.6-2.1-3.9c-3.1-5.2-6.4-10.3-9.2-15.6
		c-2.5-4.8-4.5-10-6.7-15c-1.2-2.6-3-2.8-4.5-0.7c-1.9,2.5-3.5,5.3-4.8,8.1c-3.2,6.8-6.1,13.8-9.3,20.7c-0.5,1.2-1.7,2.1-2.3,3.2
		c-0.8,1.3-1.3,2.6-2,3.9c-1.4,2.6-2.8,5.1-4.1,7.7c-0.8,1.5-1.5,3.1-2.2,4.6c1.7,0.6,3.4,1.8,5.2,1.8
		C540,1043.1,547.2,1043,554.3,1043z"/>
	<path d="M169.4,1074.9c-11.5,0-23,0.1-34.5,0c-7.2-0.1-10.2,2.2-12.5,9.1c-0.8,2.3-2.5,4.3-3.6,6.5c-2.1,4.2-3.8,8.8-6.3,12.7
		c-2.8,4.4-6.5,8.2-9.8,12.2c-0.4,0.5-1,0.9-1.6,1.2c-9,3.9-21.7-3-23-12.6c-0.2-1.8,0.3-4,1.1-5.8c2.3-5.5,5-11,7.5-16.5
		c3-6.7,5.4-13.8,9.3-20c4.8-7.8,7.5-16.4,11.3-24.5c3.1-6.6,7.4-12.6,9.9-19.3c2.8-7.3,8.9-13.1,9.3-21.4c0-0.6,0.4-1.3,0.7-1.9
		c3.4-6,7-11.9,10-18.1c3.3-6.7,5.8-13.9,9.3-20.5c3.9-7.3,7.3-15.2,14.4-20.2c1-0.7,2.5-0.9,3.7-1c2.5-0.2,5,0.2,7.5-0.1
		c7.6-1,11.6,3.7,14.9,9.2c4.1,6.7,8.1,13.6,11.5,20.7c3.2,6.8,5.5,14,8.6,20.9c2.4,5.4,5.4,10.5,8.1,15.7c1.2,2.3,2.3,4.7,3.5,7
		c3.8,7.1,7.7,14.1,11.3,21.2c1,2,1.2,4.4,2.3,6.5c3.6,7.2,7.6,14.1,11,21.4c3,6.2,5.4,12.6,8,18.9c0.3,0.6,0.6,1.2,0.9,1.8
		c3.2,5.7,6.5,11.4,9.5,17.2c2.5,4.9,1.3,10.5-2.7,14.6c-3.7,3.9-7,7.3-13.3,7.6c-9.3,0.4-13.8-5.2-17.8-11.9
		c-3.7-6.3-6.9-12.9-10.4-19.4c-0.3-0.6-0.6-1.2-0.7-1.8c-1.7-6.3-5.4-9.2-12.1-9.2C193,1074.9,181.2,1074.9,169.4,1074.9
		C169.4,1074.9,169.4,1074.9,169.4,1074.9z M169.5,1043c7,0,14,0.1,20.9-0.1c2.1-0.1,4.1-1.2,6.2-1.8c-1-1.8-1.9-3.6-3-5.3
		c-0.9-1.4-2-2.6-2.8-4c-1.6-3-3.2-6-4.5-9.1c-2.1-5.4-4.9-10.3-8.5-14.8c-0.3-0.4-0.3-0.9-0.5-1.4c-1.9-4.4-3.7-8.8-5.8-13
		c-1.2-2.4-3-3.2-4.6,0.1c-2.4,5.2-4.9,10.4-7.5,15.5c-3.7,7.3-7.6,14.4-11.5,21.6c-1,1.8-2.1,3.6-3,5.5c-0.8,1.7-1.2,3.5-1.8,5.3
		c1.6,0.5,3.3,1.4,4.9,1.5C155.2,1043.1,162.4,1043,169.5,1043z"/>
	<path d="M834.4,731.9c0-23.8-0.2-47.7,0.2-71.5c0.1-4.8,1.7-9.8,3.7-14.2c2.4-5.3,7-7.8,13.4-7.8c22.8,0.2,45.7,0.2,68.5,0
		c5.5,0,9.9,0.3,13.4,6.1c2.6,4.2,5.3,7.7,5,12.9c-0.4,8.4-7.4,16.1-15.7,16.3c-13.8,0.3-27.7,0.1-41.5,0.3c-3,0-6,0.4-8.9,0.8
		c-2.6,0.3-3.5,1.9-3.3,4.6c0.4,8,0.6,15.9,0.6,23.9c0,8,1.9,10.1,10,10c10.5-0.1,21-0.7,31.5-0.1c4.5,0.3,10.1,1.7,13,4.8
		c2.8,2.9,3.6,8.5,3.8,13c0.2,3.8-1.5,7.7-3,11.4c-0.6,1.4-2.5,2.9-4,3.2c-4.3,1-8.8,1.8-13.2,1.9c-9.8,0.2-19.7-0.1-29.5,0
		c-6.6,0-8.6,2.2-8.6,8.8c0,8.3,0,16.7,0,25c0,6.6,2.8,9.4,9.5,9.3c15-0.3,30-0.7,44.9-0.8c6.4,0,9.5,5.2,12.2,9.9
		c5.4,9.8,1.2,20.5-9.2,24.5c-1.2,0.5-2.6,0.6-3.9,0.6c-23,0-46,0.1-69-0.1c-5.2,0-11.3-0.2-14.4-5c-2.7-4.2-4.8-9.4-5-14.3
		c-0.6-16.5-0.3-33-0.3-49.5C834.5,747.9,834.5,739.9,834.4,731.9C834.5,731.9,834.5,731.9,834.4,731.9z"/>
	<path d="M476.5,638.5c2.8,0,5.7,0,8.5,0c1.2,0,2.5-0.3,3.5,0.1c7.8,3.7,16.3,5.6,23.7,10.1c3.7,2.3,6.4,6.2,10.2,8.4
		c6.7,4,5.5,10.5,5.8,16.4c0.5,8.1-3.3,13.8-11.6,15.5c-2.4,0.5-5.4,0.8-7.5-0.1c-3.8-1.8-7-4.8-10.7-6.9
		c-10.2-5.9-20.9-10.3-33-7.1c-7,1.9-13.4,10.9-13.1,18.2c0.3,7.1,7.3,14.6,14.7,16.2c3.2,0.7,6.3,2.2,9.5,3.1
		c4.6,1.3,9.2,2.3,13.9,3.4c1.4,0.3,3,0.4,4.3,0.9c3,1.2,5.9,2.9,9,4c8.8,3,15.4,8.9,21,16c1.9,2.4,2.4,5.7,3.7,8.5
		c5.4,11.7,5.6,24.3,3.1,36.2c-3.1,15.1-11.4,27-25.6,35.3c-10.8,6.3-21.8,7.9-33.6,7.8c-7.1-0.1-13.8-1-20.8-2.8
		c-9.9-2.5-17.7-7.4-24.6-13.8c-4.4-4-7.4-9.7-10.3-15c-1.1-2-0.8-5.4,0.1-7.7c2.5-6.9,6.2-12.7,14.4-14.1c5.2-0.9,9.6,0.5,13.1,4.3
		c7.9,8.7,18.1,13,29.3,15.1c2.2,0.4,4.9-0.7,7.2-1.6c5-1.9,10.2-2.9,14.1-7.6c4.9-6,5.9-15.9,0.3-21.2c-5.3-5-10.7-9.8-18.8-10.3
		c-4.5-0.3-8.9-2.4-13.3-3.7c-2.1-0.6-4.1-1.5-6.2-1.9c-13.5-2.5-22.8-10.2-30.3-21.6c-7-10.6-6.4-22.1-6.5-33.5
		c0-6,1.2-12.3,2.9-18.1c1.2-4.2,3.6-8.3,6.5-11.6c4.2-4.8,8.7-10.2,14.2-13c8.4-4.2,16.9-9.4,27.2-8
		C472.5,638.7,474.5,638.5,476.5,638.5z"/>
	<path d="M1035.1,638.5c3.2,0,6.3,0,9.5,0c1.2,0,2.5-0.2,3.5,0.2c7.6,3.2,15.5,6.1,22.7,10.1c4.6,2.6,8.4,6.8,12.5,10.3
		c0.8,0.7,1.5,1.8,1.9,2.9c2.5,7.5,3,15-1.1,22.1c-2.7,4.7-12.9,7-17.7,4.3c-3.3-1.8-6.2-4.2-9.4-6.2c-10.1-6.2-20.8-10.8-32.9-7.2
		c-10.2,3-18.6,18.3-8.5,27.9c3.1,3,6,5.6,10.7,6.6c8.7,1.9,16.5,6.7,25.9,6.8c3.6,0,7,3.5,10.8,4.6c9,2.8,14.9,9.5,20.7,16.2
		c2.1,2.4,2.3,6.5,3.9,9.5c5.2,10.6,4.7,22,3.2,32.8c-1,7.4-2.9,15.7-9.1,21.6c-2.8,2.7-4.9,6.3-7.8,8.9
		c-10.8,9.9-23.6,14.7-38.3,14.5c-4.8-0.1-9.7,0.2-14.5,0.2c-1.3,0-2.6-0.2-3.9-0.5c-4.3-1.1-8.7-1.9-12.7-3.6
		c-4.7-2-9.3-4.5-13.3-7.6c-5.3-4.1-10.3-8.7-13.6-15c-4-7.7-3-17.5,3.6-23.3c6.6-5.8,16.2-4.4,22.3,1.6c4.6,4.4,9.3,9.5,16.4,10.4
		c1,0.1,1.9,0.6,2.8,1c5.8,2.8,11.5,3.6,17.8,0.9c4.9-2.2,10.5-3,13.6-8.1c1.1-1.7,2.3-3.5,2.7-5.4c0.5-2.6,0.4-5.4,0.1-8
		c-0.3-2-0.9-4.5-2.3-5.8c-5.6-5-10.6-10.9-19.2-11.4c-4.7-0.3-9.3-2.4-14-3.7c-2.4-0.7-4.8-2.1-7.2-2.1c-7,0-12.3-4.4-17.3-7.9
		c-6.9-4.9-12.9-11.9-15.4-20.1c-3-9.9-4.9-20.3-2.6-30.9c0.3-1.6,0.5-3.3,0.6-5c0.1-5.5,2.3-10.1,4.9-14.9
		c3.5-6.2,7.9-11.3,13.4-15.6c8.8-6.7,18.5-11.4,29.9-11.5C1030.1,638.5,1032.6,638.5,1035.1,638.5
		C1035.1,638.5,1035.1,638.5,1035.1,638.5z"/>
	<path d="M1177.9,825.2c-6.9-0.3-13.3-1.8-19.9-3.3c-10.4-2.5-18.5-7.7-25.8-14.6c-5.7-5.4-10.5-11.7-9.4-20.4
		c1.7-12.9,15.6-19.9,25.4-13.2c3.9,2.7,7,6.5,11,9c9.1,5.6,18.3,10.2,29.7,5.9c5.5-2.1,9.8-5,13.7-9.1c2.5-2.6,3.6-12.4,1.1-15.5
		c-5.3-6.7-11-13-20.5-13.6c-1.4-0.1-2.8-0.9-4.2-1.4c-1.1-0.4-2.2-1.7-3.1-1.5c-4.5,1.1-7.9-2.2-11.9-2.5
		c-6.2-0.4-11.4-3.3-16.4-6.4c-5.8-3.6-10.1-8.5-14.2-14.1c-4.8-6.7-5.8-13.7-7-21.2c-1-6.8-2-13.5,0.3-20.2
		c0.4-1.1,0.6-2.3,0.6-3.4c-0.5-5.3,2.1-9.4,4.5-13.9c3.9-7.6,9.7-13.6,16.4-18c7.2-4.6,15.2-8.9,24.3-9c5-0.1,10,0.1,15,0
		c5.9-0.2,11.6-0.1,16.3,4.4c1.1,1.1,3,1.8,4.5,1.9c10.7,0.8,16.9,8.8,23.1,15.7c4.4,5,4.1,12.3,2.3,19.1c-1.9,7.2-8,10-13.8,10.3
		c-4.5,0.2-9.7-3-13.7-5.9c-10.4-7.5-21.3-12.5-34.1-8.8c-3.9,1.1-8,4.5-10.2,8c-6.1,9.5-3.2,19.9,7,25c5.2,2.7,11.2,3.9,16.9,5.5
		c3.5,1,7.1,1.4,10.6,2.1c1.5,0.3,3,0.3,4.3,0.9c3,1.2,5.9,3,9,4c9.3,2.9,15.3,10.1,21.6,16.8c1,1,1.3,2.6,1.9,4
		c5.3,12,7.5,24.8,5.2,37.5c-1.4,7.9-4.4,15.7-9.4,22.7c-5.7,7.9-13.6,12.8-21.2,18.2c-2.9,2.1-7.1,2.6-10.8,3.1
		C1190.7,824,1184.3,824.5,1177.9,825.2z"/>
	<path d="M379.4,710.2c0,15.5-0.4,31,0.1,46.5c0.3,10.2-1.9,19.6-5.4,29c-5,13.1-13.1,23.4-24.7,31.1c-8.1,5.4-17.1,7-26.5,7.7
		c-9.6,0.7-19-0.1-27.8-3.8c-4.5-1.9-8.8-4.6-12.4-7.8c-7.4-6.7-13.3-14.4-17.5-23.8c-6.2-13.6-8.3-27.8-8.4-42.4
		c-0.1-28.8-0.1-57.6-0.1-86.5c0-4.7,1.1-9,3.3-13.3c4.2-8,10.8-9.1,18.6-8.2c5.6,0.7,11.6,8,12.2,14.8c0.2,2.3,0.1,4.7,0.1,7
		c0,30.2,0.1,60.3-0.1,90.5c-0.1,9.4,3.2,17.7,7.4,25.5c4.3,7.9,12.5,11.5,20.7,14.4c0.9,0.3,2.3,0.5,2.9,0c5-4.3,11.9-5.2,16.6-11
		c5.6-6.8,7.4-14.6,10.1-22.2c0.9-2.4,0.7-5.3,0.7-7.9c0-29.8-0.1-59.6,0.1-89.5c0-5.2,0.7-10.7,2.6-15.5c3-7.3,15.7-8.4,21.6-3.1
		c4.8,4.3,6.3,8.9,6.2,15.2C379.2,674.5,379.4,692.3,379.4,710.2C379.4,710.2,379.4,710.2,379.4,710.2z"/>
	<path d="M673.8,574.3c187.6,0,375.3,0,562.9,0c1.7,0,3.3-0.1,5,0.1c2.8,0.3,4,1.9,4.1,4.7c0,3-1.2,4.8-4.3,5c-2,0.1-4,0.1-6,0.1
		c-374.9,0-749.8,0-1124.8,0c-1.8,0-3.7,0-5.5-0.1c-3.1-0.1-4.8-2.2-4.8-4.7c0-2.8,1.7-5,5-5.1c1.5,0,3,0,4.5,0
		C297.9,574.3,485.9,574.3,673.8,574.3z"/>
	<path d="M679.9,870.5c188.1,0,376.3,0,564.4,0c1.5,0,3.2-0.3,4.4,0.2c1.4,0.6,3.3,2.1,3.4,3.2c0.1,1.5-1.1,3.8-2.4,4.6
		c-1.7,1-4.1,1.2-6.2,1.2c-265.1,0-530.2,0-795.3-0.1c-107.8,0-215.6,0-323.4,0c-3.2,0-6.4,0.3-9.5,0.1c-2.2-0.2-4.6-0.9-6.5-1.9
		c-1-0.5-2-2.6-1.8-3.7c0.3-1.3,1.8-2.7,3.1-3.3c1.4-0.6,3.3-0.4,4.9-0.4C303.3,870.5,491.6,870.5,679.9,870.5
		C679.9,870.5,679.9,870.5,679.9,870.5z"/>
	<path d="M160.2,173.2c-4.2,0-8.4-0.5-12.5,0.1c-9.3,1.3-16.3-3.1-22.2-8.9c-4.2-4.1-7.2-9.4-10.6-14.2c-1.8-2.6-3.5-5.3-4.8-8.1
		c-0.8-1.7-1.4-3.7-1.5-5.6c-0.2-5.7-0.1-11.3-0.1-17c0-4.5-0.2-9,3.5-12.6c0.4-0.4,0.7-1.2,0.8-1.8c0.9-8.2,6.8-13,12.5-17.7
		c5-4.2,10.7-7.7,16.2-11.2c1.3-0.8,3.1-1.2,4.7-1.2c9.2-0.1,18.4-0.6,27.5,0.1c6.7,0.5,12.2,4.8,17.4,8.7
		c4.4,3.4,8.1,7.7,12.1,11.6c0.2,0.2,0.6,0.4,0.7,0.7c2.3,7,8,12.7,7.7,20.7c-0.1,2.8-0.3,5.7,0,8.5c1.9,15.3-6,26.9-15.3,37.5
		c-6.1,6.9-13.6,12.2-23.9,10.7C168.3,172.7,164.2,173.2,160.2,173.2z"/>
	<path d="M577.5,731.8c0-24,0-48,0-72c0-6.7,2.4-12.4,6.7-17.3c4.8-5.6,15.4-5.2,21.3-0.8c6.9,5.2,5.8,12.6,7.1,19.3
		c0.5,2.4,0.2,5,0.2,7.5c0,43.8,0.1,87.6,0,131.4c0,4.8-0.8,9.6-1.8,14.3c-1.2,5.7-11.1,11.5-16.9,10.2c-2.4-0.5-5-0.9-7.2-1.8
		c-1.8-0.7-3.9-2-4.6-3.5c-2.4-5.8-5.2-11.2-5.1-18C577.7,778.1,577.5,754.9,577.5,731.8C577.5,731.8,577.5,731.8,577.5,731.8z"/>
	<path d="M909.8,1213.4c3.7-8.7,7.3-16.9,10.7-25.2c0.7-1.6,1.2-3.5,1.3-5.3c0.2-3.2,1-6.3,4.2-7.2c1.7-0.5,4.3,0.4,5.8,1.5
		c2.6,2.1,2.6,5.1,1.1,8.2c-1.5,3.1-1.7,6.2,0,10.2c1.1-1.2,1.9-1.9,2.3-2.8c3.2-7,8.5-12.2,14.5-16.8c2.2-1.7,4.1-1.8,6.3-0.1
		c3.1,2.4,6.3,4.7,9.6,6.8c1.2,0.8,2.7,1.1,4.1,1.3c5.1,0.8,6.3,3.6,4,8c-1.9,3.6-2.9,7.6-4.3,11.5c-0.8,2.2-1.6,4.4-2,6.6
		c-1,5-2.6,9.9-0.9,15.2c1.1,3.4-1.5,6-5.2,6.4c-4.4,0.5-5.9-0.6-6.3-4.8c-0.2-1.5-0.1-3.2-0.7-4.4c-1.1-1.9-2.6-2.9-4.5-0.3
		c-2.3,3.1-4.8,6.5-7.9,8.5c-2,1.3-5.9,1.4-8,0.3c-2.3-1.2-4.8-4.3-4.9-6.7c-0.3-6.9-1.7-13.9,1.3-20.7c0.5-1.2-0.7-3.1-1.1-4.7
		c-1.2,0.9-2.7,1.6-3.6,2.8c-4.3,5.3-8.5,10.9-12.8,16.2c-2.8,3.5-5.7,6.9-8.8,10.1c-1.6,1.6-3.7,3-5.8,3.5c-4.4,1.1-7-1.2-7.2-5.7
		c-0.1-3.2,0.2-6.4-0.1-9.5c-0.1-1.4-1.4-2.7-2.1-4c-1.2,0.9-2.7,1.5-3.4,2.7c-2,3.4-3.5,7.2-5.7,10.4c-1.4,2.1-3.5,4-5.8,5.1
		c-4.4,2.2-8,0-8.6-4.8c-0.3-2.9-0.4-6.1,0.2-9c1.7-9.1,3.2-18.3,6-27.1c1.3-4.1,5.1-7.7,8.5-10.7c2.8-2.5,6.5-0.9,9.1,1.3
		c0.9,0.7,1.1,3.1,0.7,4.4c-1.6,5.3-3.7,10.5-5.4,15.9c-0.3,1.1,0.6,2.6,1,3.8c1.3-0.5,3.3-0.5,3.9-1.4c2.9-4.8,5.5-9.8,8.1-14.7
		c0.7-1.3,1-2.8,1.8-4c2.2-3.2,6.7-4.7,9.1-3.5c2.8,1.5,4.1,6.1,2.8,9.8c-1.7,4.6-3.4,9.2-5.1,13.9
		C904.7,1208.8,905.5,1210.9,909.8,1213.4z M940.3,1218.9c6.2-0.7,10.1-3,10.7-9.1c0.1-0.8,0.8-1.4,1.2-2.2
		c2.7-5.1,5.4-10.2,7.9-15.4c0.5-1,0-2.4,0-3.6c-1.3,0.2-3,0-3.9,0.7c-8.7,6.5-12.4,16.1-15.6,25.9
		C940.3,1216.2,940.4,1217.4,940.3,1218.9z"/>
	<path d="M1062.2,1180.4c-0.9,6.2-1.5,12.3-2.6,18.3c-0.3,1.7-1.7,3.2-2.5,4.8c-1.3,2.6-2.4,5.3-3.8,8c-0.6,1.3-1.5,2.5-2.3,3.6
		c-1.5,2.1-2.9,4.3-4.6,6.3c-1.1,1.4-2.5,2.6-3.9,3.7c-0.9,0.7-2.1,1-3,1.7c-9.5,7-19.1,3.7-23.2-7.6c-1.3-3.7-1.5-7-0.5-10.6
		c1-3.5,0.5-6.2-4.1-6.7c-2.2-0.2-4.2-1.8-6.4-2.6c-3.1-1.2-5.7-1.1-7.6,2.3c-1.5,2.7-4,4.9-5.5,7.5c-1.3,2.4-2,5.2-2.9,7.8
		c-0.3,0.9,0.2,2.1-0.1,3c-1.2,2.7-2.1,7.1-4.1,7.7c-2.6,0.7-6.8-0.8-8.9-2.8c-1.6-1.6-1.6-5.7-0.9-8.3c3.3-10.7,7.2-21.2,10.7-31.9
		c1.6-5,5.2-7.6,10.1-8.4c3.3-0.5,5.2,1.6,6.3,4.5c1.7,4.5,2.2,4.6,6,1.6c1.8-1.4,3.8-2.8,6-3.4c1.5-0.4,3.9,0.2,4.9,1.3
		c0.9,1,1.1,3.6,0.5,5c-1.1,2.7-3.2,5.6,0.4,7.2c3.5,1.6,4.4-2.2,5.8-4.5c4.2-6.7,10.2-11.2,17.7-13.5c2.9-0.9,3.2-2.1,2.7-4.7
		c-1.1-5.2-2.7-10-6-14.5c-1.9-2.6-2.4-6.5-2.6-9.9c-0.1-2.3,0.9-4.9,4.2-5.3c5.3-0.7,9.5,1.2,11.3,5.2c1.6,3.4,3.3,6.8,4.9,10.3
		c0.6,1.2,1.4,2.4,1.5,3.7C1060.6,1166.3,1061.4,1173.4,1062.2,1180.4z M1027.7,1219.8c0.6,0.9,1.3,2.6,2.5,3.8
		c0.4,0.4,2.5-0.1,3-0.7c3.4-4.4,7.3-8.7,9.8-13.6c2.7-5.2,4.3-11.1,6.1-16.7c0.3-1.1-0.2-3.2-1.1-3.8c-0.9-0.6-3.1-0.4-3.9,0.3
		c-2.4,2.2-4.7,4.7-6.6,7.4C1032.8,1203.3,1028.9,1210.5,1027.7,1219.8z"/>
	<path d="M580.4,1223.6c0.9-1.3,1.7-2.6,2.6-3.8c3.9-4.8,7.9-9.6,11.9-14.4c0.2-0.2,0.5-0.5,0.8-0.5c7.2-0.2,6.4-4.9,5.8-9.8
		c-0.4-2.8,0.1-5.7-0.2-8.5c-0.6-5.6,1.4-9.8,5.6-13.6c5-4.6,6.3-5.1,12.8-2.2c4.7,2.1,10.1,10.2,9.2,14.5c-0.4,1.8-1.6,3.9-3,4.7
		c-0.9,0.5-3.2-0.8-4.5-1.8c-2.6-2.1-6.4-0.8-7.2,3.2c-0.9,4.5-1.9,9.3,2.1,13.1c2.7,2.7,2.8,5.5,0,8.3c-2.7,2.7-4.8,5.6-5.3,9.8
		c-0.5,4.5-7.8,9.6-12.5,9.5c-4.7-0.2-9.3-0.8-13.9-1.2c-1.7-0.1-3.4-0.7-5-0.3c-4.8,1.3-7.7-0.7-10.7-4.3c-4-5-8.2-4.1-10.7,1.8
		c-1.9,4.6-8.9,5.6-13.1,1.9c-6.5-5.6-7.5-13.3-3.3-22.6c3-6.6,5.3-13.6,8.6-20c2.1-4,5.2-7.5,8.3-10.8c2.4-2.4,5.3-1.2,7.5,1
		c2.1,2.1,3.3,4.4,1.6,7.6c-3.7,7-7.3,14.1-10.6,21.3c-0.8,1.8-0.2,4.2-0.3,6.4c2.1-1,5.1-1.5,6.2-3.2c3.5-5.6,6.4-11.5,9.4-17.4
		c1.7-3.4,3-7,4.8-10.3c1.6-3.1,5.8-4.4,9.1-3.2c3.7,1.3,5.4,4.2,4.8,8.3c-0.2,1-0.5,2-0.9,2.8c-2.8,5.9-5.9,11.8-8.5,17.8
		c-1.5,3.5-2.5,7.2-3.4,10.9c-0.3,1.5,0.4,3.3,0.6,5C579.5,1223.5,579.9,1223.5,580.4,1223.6z M600.5,1214.1c-3,2.3-5.6,3.8-5.1,7.3
		c0.1,0.5,2.2,1.3,3.1,1C602.2,1221.1,601.7,1218.2,600.5,1214.1z"/>
	<path d="M752.7,1232.8c-5.6-0.4-10.3-1.4-14.2-5.8c-2.8-3.1-6.1-2.5-9,0.8c-4.5,5.2-9,5.8-14.2,1.5c-4.4-3.6-10.3-6.6-10.4-13.2
		c-0.1-4.8,0.9-9.9,2.4-14.5c2.6-7.9,7.3-14.9,13.6-20.3c3.5-3,8.2-4.9,12.7-6.1c4.8-1.3,11.8,4.9,12.1,10.2
		c0.3,4.4-0.6,8.6-4.1,11.8c-0.2,0.2-0.6,0.4-0.7,0.7c-1.7,7.1-8.8,8.5-13.3,12.6c-0.9,0.8-2.3,1.2-3.6,1.5
		c-4.6,1.1-6.8,7.3-3.7,10.8c1.9,2.1,4.2,1.4,5.6-0.4c2.7-3.3,6.2-4.9,10.3-5.4c1.1-0.1,2.5-0.6,3.1-1.4c4.3-5.7,10.1-9.3,16.4-12.3
		c2.3-1.1,3.1-3,1.8-5.8c-3.9-8.1-1.4-19.7,5.1-25.4c5.3-4.6,11-4.3,15.7,0.9c3.3,3.6,6.6,7.4,5.2,12.8c-0.5,2.1-2.2,3.9-3.3,5.8
		c-1.5-1.1-3-2.2-4.5-3.3c-1-0.7-2.3-1.9-3.1-1.6c-0.9,0.3-2.1,1.9-2.1,2.9c0,5.6-2.2,11.6,2.6,16.6c0.8,0.8,0.3,3.3-0.3,4.7
		c-1.3,3.1-3.1,6-4.8,8.9c-1.9,3.3-3.3,7.2-6.1,9.6C759.8,1231.6,755.9,1231.8,752.7,1232.8z M733.7,1192c-5.6-0.5-7.5,1.8-8.7,5
		c-0.3,0.8-0.1,2.4,0.3,2.6c0.9,0.4,2.6,0.6,3.1,0.1C730.1,1197.5,731.6,1195.1,733.7,1192z M758,1217.8c-1.2-1.1-1.9-1.7-2.5-2.3
		c-1.6,1.9-3.3,3.7-4.7,5.7c-0.2,0.2,1.4,1.7,2.1,2.6C754.5,1221.8,756.1,1219.9,758,1217.8z"/>
	<path d="M1225.3,1193.3c2.3-1.8,5.3-3.8,8-6.1c2.9-2.6,8.2-3.9,11.5-2.3c3.1,1.4,4,4,2.7,7c-1.4,3.3-3.3,6.5-4.8,9.8
		c-2.4,5.4-4.9,10.8-6.9,16.4c-0.5,1.4,1.2,3.4,1.8,5.2c0.6,2.1,1.9,4.5,1.4,6.2c-0.4,1.2-3.4,2.2-5.2,2.3
		c-8.2,0.4-13.6-8.8-10.5-17.4c0.7-1.8,1.3-3.8,1.3-5.7c0-1-1.1-2.6-2-2.9c-0.9-0.2-2.5,0.6-3.2,1.5c-1.3,1.7-2.1,3.7-3.3,5.6
		c-3.1,4.8-6.1,9.7-9.3,14.4c-2.2,3.3-4.5,3.4-7.4,0.6c-4-3.8-4.8-8.3-2.6-13.7c0.7-1.8,1.4-3.8,1.5-5.7c0.1-1-1-2.7-1.9-2.9
		c-0.9-0.2-2.5,0.7-3.1,1.6c-4.1,6.5-7.9,13.2-12.1,19.8c-2.2,3.5-4.9,3.4-7.5,0.2c-4.1-5-2.7-10.5-1.4-15.7
		c1.5-5.5,3.6-11,6.1-16.1c2.3-4.7,5.2-9.2,8.2-13.5c2.2-3.2,5.6-3.1,7.8,0c2.6,3.5,5,7.2,1.9,11.8c-0.5,0.7,0.1,2.2,0.2,3.3
		c1.1-0.5,2.5-0.7,3.3-1.6c2.2-2.5,4-5.3,6.1-7.8c2.9-3.5,10.7-5.1,14.1-2.3C1222.1,1187.1,1223.1,1190,1225.3,1193.3z"/>
	<path d="M540.6,1189.8c-1.2,10.4-4.7,20-11.2,28.1c-3.2,4-7.5,7.1-10.8,11c-3.2,3.7-7.1,3.5-10.9,2.6c-1.5-0.4-2.4-3.1-3.6-4.7
		c-0.9-1.2-1.6-3.2-2.7-3.4c-2.7-0.5-6.3,0.1-7.3-3.2c-0.9-3.1-1.3-6.6-0.6-9.7c1.8-9.1,3.4-18.3,6.7-26.9
		c3.7-9.6,6.8-19.7,13.3-28.1c3.4-4.5,6.6-9.1,10.1-13.4c1.9-2.4,8.2-2.9,10.6-1.1c3.3,2.5,2.8,5.9,1.2,9c-1.2,2.2-3.2,4-4.8,6.1
		c-3.6,4.9-7.2,9.7-10.6,14.7c-1.9,2.7-3.6,5.6-4.9,8.6c-0.6,1.3,0.2,3.3,0.4,4.9c1.4-0.7,2.9-1.4,4.2-2.3c3.3-2.2,6.3-5.7,9.9-6.6
		c4.4-1.1,10.7,5.6,11.1,10.3C540.7,1187.1,540.6,1188.5,540.6,1189.8z M526.6,1193.6c-0.5-1-1-2.6-1.6-2.7c-1.1,0-2.7,0.5-3.4,1.3
		c-2.4,2.8-5,5.7-6.8,9c-2.9,5.1-5.3,10.5-7.7,15.9c-0.3,0.8,0.5,2,0.8,3.1c1-0.4,2.2-0.5,2.9-1.1c6.3-5.3,10-12.4,13.5-19.6
		C525.3,1197.6,525.8,1195.7,526.6,1193.6z"/>
	<path d="M469.9,1223.6c-3.9,1.2-7.2,1.9-9.1,5.9c-1.6,3.5-9.5,3.7-11.7,0.4c-4.6-7.1-6.4-14.9-3.2-23.2c0.4-1.1,1.2-2.1,1.3-3.2
		c0.2-1.6-0.1-3.2-0.2-4.8c-1.5,0.8-3.8,1.3-4.3,2.5c-3.1,7.6-8,14.6-7.8,23.2c0,3.4-1.1,5.4-4.7,5.6c-4.1,0.2-7.2-1.4-7.5-4.8
		c-0.5-5.6-1.2-11.2,1.4-16.6c2-4.3,2.8-9.3,4.9-13.5c1.6-3.1,4.1-5.9,6.9-8.1c2.5-2,5.4-1.2,7.3,1.6c0.4,0.5,0.7,1.2,1.1,1.7
		c4.4,6.3,5.5,5.8,9.8-0.7c3.8-5.8,8.4-11.2,15.1-13.9c1.1-0.5,2.8-0.7,3.8-0.2c5.2,2.8,10.4,5.6,15.5,8.8c2.8,1.8,3.7,4.4,2.1,7.7
		c-5,10.5-8.3,21.4-7.3,33.4c0.5,5.6-1.7,7.4-7.2,6.3c-1.7-0.4-3.3-2.3-4.6-3.9C470.5,1226.9,470.4,1225.2,469.9,1223.6z
		 M456.3,1218.1c0.8,1.2,1.6,2.4,2.4,3.6c1.1-1,2.4-1.9,3.3-3c1-1.3,1.7-2.8,2.5-4.2c4.5-7.7,9-15.4,13.3-23.2
		c0.4-0.8,0-2.1-0.1-3.1c-1.1,0.1-2.5-0.1-3.2,0.5c-2.6,2.3-5.1,4.8-7.5,7.3C461.2,1202,459.2,1210,456.3,1218.1z"/>
	<path d="M254,1213.9c4.2-7.1,8.7-14,12.6-21.2c1.2-2.2,0.6-5.2,1.1-7.8c0.4-2.2,0.7-4.7,1.8-6.6c1.8-3.1,5.2-3.8,8.4-2.7
		c3.5,1.1,4.4,4.6,3.4,7.4c-2.5,6.7-5.4,13.4-8.9,19.7c-2.7,4.8-6.4,9.2-10.1,13.4c-4.6,5.1-9.5,10-14.7,14.5
		c-3.8,3.3-10.5,0-10.8-5c-0.2-3,0.4-6,0.4-9c0-1.3-0.8-2.7-1.2-4c-1.4,0.7-3.3,1.1-4,2.2c-2.6,4.2-5,8.6-7.2,13
		c-1.4,3-3.4,4.6-6.6,3.9c-3.4-0.7-6.1-2.7-5.6-6.5c0.8-7.2,2.1-14.4,3.2-21.6c0.3-2.1,0.9-4.2,1-6.3c0.1-7.7,4.6-12.9,10-17.6
		c1.2-1,3.2-1.8,4.6-1.5c2.1,0.4,4.8,1.3,5.8,2.9c0.8,1.2-0.3,3.9-1,5.8c-1.5,4.6-3.4,9.2-4.8,13.8c-0.3,1,1.1,2.4,1.7,3.6
		c1.2-0.8,2.5-1.6,3.7-2.4c0.1-0.1,0.1-0.4,0.2-0.5c4.6-4.3,6.3-10.3,9.4-15.5c0.8-1.4,2-2.7,3.4-3.6c3.5-2.4,7.3-1,7.8,3.3
		c0.3,2.9,0.1,6.1-0.9,8.7c-1.6,4.5-3.8,8.8-2.9,13.9c0.3,1.6-0.5,3.4-0.9,5.1C253.2,1213.5,253.6,1213.7,254,1213.9z"/>
	<path d="M81.4,1220.8c0.9-4.5,1.7-9.1,2.8-13.6c1.3-5.8,2.1-11.8,4.4-17.3c1.6-3.9,4.8-7.4,7.9-10.5c2.4-2.4,8-1.7,9.9,1.1
		c0.8,1.1,0.5,3.4,0,4.9c-1.6,5-3.7,9.8-5.2,14.8c-0.4,1.1,0.6,2.7,1,4c1.4-0.5,3.3-0.7,4.2-1.7c3.9-4.5,6.6-9.8,8.5-15.4
		c0.3-0.8,0.5-1.6,0.9-2.3c1.7-2.9,6.5-5.2,8.9-4.2c3.5,1.5,3.6,4.9,3.1,7.7c-0.7,4.2-2.8,8.1-3.8,12.3c-0.7,3.2-0.9,6.5-0.9,9.8
		c0,0.9,1.1,1.8,1.7,2.7c0.9-0.6,2.1-1.1,2.5-1.9c5.3-10.1,10.3-20.4,12.4-31.8c0.5-2.9,2.6-4.2,5.5-3.8c2.8,0.3,6.1,4.1,5.1,7
		c-1.9,5.5-1.8,11.7-6.1,16.5c-3.3,3.8-5.5,8.6-8.7,12.5c-5,6.1-10.4,11.9-15.8,17.7c-2.4,2.6-5.7,3.6-9.1,2.1
		c-2.8-1.2-4.7-6.7-3.7-10.7c0.7-2.9,2.9-6.3-1-7.8c-4.2-1.6-4.2,3.1-5.6,5.4c-1.4,2.2-2.7,4.6-3.7,7c-1.6,3.9-6,6.9-9.7,6.2
		c-3.5-0.6-4.9-2.9-4.9-8.5c0-0.7,0-1.3,0-2C81.8,1220.9,81.6,1220.8,81.4,1220.8z"/>
	<path d="M145.7,1221c0.6-3.3,1-6.6,1.8-9.8c1.7-7.2,3.6-14.4,5.3-21.6c1.2-5.1,5-8.2,9-10.9c3-2,6.3-0.4,8.7,1.7
		c2.2,2,0.3,4-0.6,6.2c-1.9,4.6-3.3,9.3-4.6,14.1c-0.3,1,0.8,2.3,1.2,3.4c1.4-0.6,3.3-0.8,4.2-1.9c3.7-4.6,6.6-9.8,8.4-15.5
		c0.3-0.9,0.6-2,1.3-2.7c2.3-2.5,5.1-4.9,8.7-3.4c3.4,1.5,3.8,5.1,3,8.2c-1,4.3-3.1,8.4-4.2,12.7c-0.7,3-0.6,6.2-0.6,9.3
		c0,0.7,1.1,2.2,1.6,2.1c0.9-0.1,2.2-0.8,2.6-1.6c4.8-10.4,10.6-20.3,12.3-31.9c0.2-1.4,2-3.4,3.4-3.7c1.6-0.4,4.3,0.3,5.2,1.5
		c1.3,1.6,2.1,4.4,1.7,6.4c-1.9,9.6-6,18.3-12.6,25.7c-5.6,6.2-11.1,12.6-16.8,18.9c-1.2,1.3-2.8,2.6-4.4,3.1
		c-5.7,2-10.9-3.8-9.3-10.6c0.7-3.1,2.9-6.7-1.3-8.1c-3.7-1.3-3.9,3.1-5.2,5.4c-1.4,2.6-2.7,5.3-4,7.9c-1.7,3.5-4.7,5.2-8.3,5.5
		c-3.2,0.2-5.4-1.7-5.9-4.9c-0.3-1.8-0.1-3.7-0.1-5.5C146.1,1221.1,145.9,1221,145.7,1221z"/>
	<path d="M421.9,1177.4c-0.9,15.5-4.4,28-11.9,39.1c-4.2,6.2-10.5,10.1-16.5,14.3c-0.8,0.6-2.2,0.7-3.3,0.6
		c-6.8-0.7-14.1-8.6-14.5-15.4c-0.7-11.5,4-21.1,10.9-29.6c3.2-3.9,7.4-7,11.5-10c1.3-0.9,3.8-1.1,5.3-0.5c3.1,1.2,3.6-0.3,3.6-2.6
		c0-1.6-0.1-3.5-0.8-4.9c-2.5-5-5-10-8-14.6c-2.4-3.7-3.2-8-0.9-11.1c1.6-2.3,7.3-3.5,10.6-2.2c0.7,0.3,1.5,0.8,1.9,1.5
		c4.1,7.1,8.9,13.8,9.5,22.5C419.7,1169.4,421.3,1174.4,421.9,1177.4z M387.2,1217c1.2,1.8,1.9,4.5,3.5,5.2c2.5,1.1,4.1-1,5.2-3.3
		c0.7-1.4,2.3-2.4,3.1-3.8c1.4-2.2,2.5-4.5,3.6-6.9c0.7-1.5,1.3-3.1,1.9-4.6c1.5-3.6,3.2-7.2,4.3-10.9c0.4-1.3-0.6-3-1-4.5
		c-1.5,0.4-3.4,0.4-4.3,1.3c-2.7,2.7-5.2,5.6-7.3,8.8c-2.1,3.3-3.8,6.9-5.5,10.4C389.4,1211.1,388.5,1213.7,387.2,1217z"/>
	<path d="M678.7,1219.9c0-1.9,0.3-3.5-0.1-4.9c-0.4-1.4-1.3-3.6-2.2-3.8c-1.2-0.2-3.1,0.9-4,2.1c-4.2,5.2-8.1,10.6-12.1,15.8
		c-2,2.7-6.7,4.3-9.7,2.9c-1.2-0.6-2.6-2.3-2.7-3.6c-0.4-2.8-0.5-5.8,0.2-8.4c2.1-7.5,4.5-14.9,7.2-22.2c1.4-3.9,3.6-7.4,5.5-11.1
		c0.8-1.6,1.8-3.2,3.1-4.5c5-5.4,8.2-4.7,11.7,1.9c1.7,3.4,2.6,6.3,0,9.6c-0.5,0.6-0.1,2.1-0.1,3.1c1.2-0.2,2.7,0,3.5-0.6
		c3.1-2.7,6.2-5.5,9-8.5c3.4-3.8,7.6-3.9,11.9-3c4.3,0.9,5.4,3.8,3.3,7.9c-2.9,5.8-6,11.4-8.4,17.3c-2.1,5-2.6,10.1,0.9,15.1
		c2.4,3.5,0.6,6.4-3.6,6.9C683.1,1233,677.7,1229.1,678.7,1219.9z"/>
	<path d="M351.6,1219.5c0-1.5,0.3-3.1-0.1-4.5c-0.4-1.4-1.3-3.5-2.4-3.8c-1.2-0.3-3.3,0.7-4.2,1.9c-4.1,5.2-8.1,10.5-11.8,15.9
		c-2.6,3.8-6.2,4-9.7,3c-1.5-0.4-3.3-3.6-3.2-5.3c0.6-5.5,1.6-11.2,3.4-16.4c2.5-7.5,5.6-14.8,8.9-21.9c1.4-3.1,3.7-5.9,6.2-8.2
		c3-2.8,5.7-2.2,7.8,1.3c2.3,3.9,5.4,7.9,1.3,12.6c-0.5,0.5,0.1,2,0.3,3c1.2-0.3,2.7-0.2,3.5-0.9c3.1-2.7,6.2-5.5,8.9-8.6
		c3.6-4,8-3.8,12.4-2.7c3.6,0.9,4.8,4.1,3,7.5c-2,3.8-4.2,7.5-6.3,11.3c-4,7.1-6,14.3-1,21.9c1.7,2.6,0.4,5.7-2.5,6.2
		c-7.8,1.4-15.4-0.6-14.6-10.7C351.5,1220.5,351.5,1220,351.6,1219.5C351.5,1219.5,351.5,1219.5,351.6,1219.5z"/>
	<path d="M861.2,1191.9c-0.8,2.1-2.1,6.1-3.8,9.8c-2,4.3-3.4,8.6-3,13.4c0.3,3.5,0,7,0.1,10.5c0,2.6,0,5.4-3,6.1
		c-2.9,0.7-6,1-8.3-1.8c-0.9-1.2-1.7-2.4-2.7-3.6c-3.2-4-5.9-3.8-8.3,0.6c-1.5,2.6-2.7,5.1-6.5,5.2c-3.9,0.1-5.7-1.7-7.7-4.8
		c-6-8.8-2.6-16.9,0.3-25.5c2.9-8.8,8.4-15.9,14.5-22.3c4.4-4.7,11.3-6.7,16-0.4c1,1.4,3.2,2.4,5,2.6
		C859.8,1182.6,861.3,1184,861.2,1191.9z M847.5,1190.7c-0.5-0.4-0.9-0.9-1.4-1.3c-1.5,0.8-3.5,1.2-4.4,2.4
		c-3.9,5.3-7.5,10.8-11.1,16.3c-1.1,1.8-2.2,3.9-2.3,6c0,1.6,1.6,3.2,2.4,4.9c1.3-0.8,3-1.4,3.7-2.5c3.2-5,6.3-10,9-15.3
		C845.2,1197.8,846.2,1194.1,847.5,1190.7z"/>
	<path d="M1127.5,1211.7c-0.7-11.4,5.4-18.7,11-26c2.6-3.4,6.5-6,10.3-8.4c5.4-3.4,10.9-2.2,15,2.6c0.7,0.9,1.4,1.8,2.2,2.7
		c6.1,6.2,6.2,10.6,3.9,19.3c-1.6,6.2-4.7,11.3-8.6,15.6c-3.1,3.3-5.7,8.2-11.6,8.4c-1.8,0.1-3.4,2.1-5.3,2.6
		c-2.1,0.5-5.2,1.3-6.4,0.2C1132.3,1224,1125.2,1219.8,1127.5,1211.7z M1160.6,1194.1c0,0,0.1-0.5,0-1c-0.6-1.7-1.3-3.4-1.9-5.1
		c-1.7,0.8-3.7,1.2-5,2.4c-6.5,5.5-10.1,12.7-12.6,20.8c-1,3.3-0.3,5.2,2.6,6.4c4,1.7,8.9-0.8,10.3-4.9c0.3-0.9,0.5-2,1.2-2.7
		C1159.5,1205.7,1160.2,1200.2,1160.6,1194.1z"/>
	<path d="M786.6,1231.7c-1.2,0-2.3,0-3.5,0c-5.8,0.1-9.6-3.1-9.1-9.1c0.4-4.6,1.2-9.5,6.5-11.9c1.7-0.8,2.9-2.7,4.5-3.9
		c1.4-1,3-2.4,4.5-2.5c3.7-0.2,4.6-2.2,4.2-5.2c-0.3-2.3-0.6-4.6-1.3-6.8c-2.9-9.2,2.5-21.3,11.7-23.3c3-0.7,7.3,2.8,10.5,5.1
		c2.2,1.6,3.6,4.3,5,6.7c0.6,1.1,0.7,2.9,0.2,4.1c-1.4,4.1-6.5,6.4-10.9,5.2c-3.5-1-4.9-0.1-5.1,3.7c-0.2,4.1-0.9,8.3,2.2,11.9
		c0.8,0.9,0.9,2.9,0.6,4.2c-0.9,3.8-1.8,7.7-3.5,11.1c-1.6,3.2-3.7,6.6-6.5,8.6c-2.6,1.9-6.5,2.1-9.8,3.1
		C786.7,1232.4,786.6,1232.1,786.6,1231.7z M794.4,1218c-1-1.7-1.3-3-1.9-3.2c-0.9-0.3-2.5-0.1-3.1,0.5c-1.6,1.6-3.1,3.4-4.3,5.4
		c-1.2,1.9,0,3.9,1.8,3.1C789.7,1222.5,791.9,1220,794.4,1218z"/>
	<path d="M1118.5,1216.1c-0.4,1.5-0.7,3.6-1.4,5.7c-0.9,2.7-14.2,8.8-16.8,7.5c-10.3-5-19.6-18.6-14-30.8
		c2.9-6.3,6.1-11.9,11.2-16.6c4.8-4.5,10.8-6.6,16.8-7.9c6.5-1.5,9.6,4.4,13,8.5c2.6,3.2,1.4,6.8-1.1,10c-1,1.2-1.5,2.9-2.1,4.4
		c-1.4,3.2-4,4.4-6.7,3.2c-3.3-1.5-3.7-3.5-2-7.3c0.6-1.4,0.3-3.2,0.4-4.9c-2,0.3-4.9-0.2-5.9,1c-6.1,7.1-11.3,14.8-9.9,25
		c0.3,2.4,1.5,3.8,3.9,3.6C1108.6,1217.2,1113.5,1216.6,1118.5,1216.1z"/>
	<path d="M298,1219.1c0.8-10,4.3-18.9,8.3-27.6c2.2-4.7,9-6.5,12.3-3.8c4,3.2,4.1,9,1,12.9c-2.2,2.7-3.2,6.3-4.5,9.7
		c-2.1,5.7-3.8,11.6-6.1,17.2c-0.7,1.7-2.9,3.5-4.6,3.7c-1.1,0.2-3.2-2.1-3.9-3.6C299.3,1224.9,298.8,1221.9,298,1219.1z"/>
	<path d="M625,1218.5c2.6-8.2,5.4-16.9,8.2-25.7c0.3-1.1,1.2-2,2-2.9c3-3.5,8.1-4.5,11.1-2.1c3.1,2.4,3.8,8.1,1.2,11.7
		c-5.2,7.5-7.2,16.2-9.8,24.7c-0.6,2-1.5,4.1-2.9,5.6c-2.2,2.4-5.2,2-6.5-0.9C627,1225.9,626.3,1222.7,625,1218.5z"/>
	<path d="M448.4,1159.4c3.8,0,6.6,1.4,7.7,4.8c1.1,3.5,1.6,7.1-2,9.9c-1.7,1.3-3,3-4.4,4.6c-3,3.4-6,3-8.1-1
		c-1.5-2.9-0.7-14.2,1.6-16.2C444.5,1160.4,446.6,1160.1,448.4,1159.4z"/>
	<path d="M651.3,1158.9c4.3,0.9,8.4,4.4,9.6,8.5c1.1,3.7-1.2,5.4-3.8,7.2c-1.3,0.9-2,2.6-3.3,3.7c-1.3,1-3,2.5-4.3,2.3
		c-1.5-0.3-3.6-2.1-3.7-3.4c-0.3-4.6-0.3-9.3,0.5-13.8C646.7,1161.7,649.6,1160.4,651.3,1158.9z"/>
	<path d="M317.9,1173.6c0.3-3.2,0.4-5.9,0.7-8.5c0.5-4,2.4-5.5,6.4-5.3c3.4,0.2,7.1,3.4,8.2,7c0.9,3.3,0.1,5.8-2.9,7.7
		c-1.4,0.9-2.2,2.5-3.5,3.5c-1.4,1.1-3.5,2.9-4.5,2.5c-1.7-0.7-2.9-2.8-4-4.5C317.7,1175.2,317.9,1174,317.9,1173.6z"/>
	<path d="M278.1,1231.9c-3.6,0.5-5.7-2-5.6-5.1c0.2-3.9,1.6-7.9,3-11.7c0.7-1.9,2.9-2.6,5-1.2c1.8,1.2,3.6,2.5,5.5,3.2
		c2.7,0.9,2.8,2.9,2.7,5.1C288.5,1226.3,282.3,1232,278.1,1231.9z"/>
	<path d="M1068.6,1231.9c-6,0-9-3.2-8.2-7.7c0.4-2.4,1.3-4.8,2.5-6.9c1.8-3.2,4.7-4,8-2.1c1.3,0.7,2.6,1.5,3.9,2.2
		c3.6,2.1,3.9,4.5,1.2,7.4c-1.3,1.4-2.4,3.1-3.8,4.5C1070.9,1230.6,1069.2,1231.5,1068.6,1231.9z"/>
	<path d="M1342.8,1342.8H0V0h1342.8V1342.8z M10,1332.8h1322.8V10H10V1332.8z"/>
</g>
</svg>
