<svg id="awawds-best-bussiness-hover" xmlns="http://www.w3.org/2000/svg" width="250" height="348" viewBox="0 0 250 348">
  <g id="award">
    <path id="Path_3190" data-name="Path 3190" d="M305,250.483a5.87,5.87,0,0,0-.019-1.616,26.411,26.411,0,0,1-.724-7.542c-.074-9.678-.2-19.375-.3-29.053-.019-2.322-.056-4.644-.019-6.966a3.842,3.842,0,0,1,.464-1.765,1.66,1.66,0,0,1,1.207-.669c2.415-.056,4.83-.037,7.245,0,1.1.019,1.783.873,1.839,2.266.019.743-.019,1.486-.019,2.229v54.409c0,.8.074,1.616.019,2.415-.074,1.449-.743,2.043-2.192,2.043-2.6,0-5.2-.019-7.8,0a1.691,1.691,0,0,1-1.523-.687c-.873-1.226-1.765-2.433-2.6-3.659-.724-1.04-1.412-2.118-2.081-3.2-.464-.724-.873-1.467-1.319-2.192-.223-.372-.483-.706-.724-1.059a5.343,5.343,0,0,1-.409-.5c-.427-.762-.817-1.56-1.282-2.3-.632-1-1.356-1.969-1.988-2.972-.594-.929-1.1-1.895-1.672-2.824-.557-.892-1.17-1.728-1.728-2.619-.687-1.077-1.319-2.192-2.025-3.251-.539-.817-1.152-1.579-1.69-2.4-.427-.632-.817-1.3-1.207-1.95-.632-1.04-1.263-2.1-1.913-3.139-.539-.892-1.152-1.746-1.672-2.638-.594-1.022-1.115-2.081-1.672-3.121-.037-.074-.056-.186-.093-.26-.632-1.022-1.337-2.043-1.913-3.1-.613-1.115-1.152-2.285-1.709-3.437-.446-.91-.836-1.839-1.282-2.749-.056-.111-.279-.26-.353-.223-.186.074-.427.223-.446.372a5.913,5.913,0,0,0,0,1.282,18.525,18.525,0,0,1,.26,2.006q.028,20.146.037,40.31c0,.892.019,1.8,0,2.694-.037,1.115-.5,1.6-1.6,1.6-2.359.019-4.7.019-7.059,0a2.105,2.105,0,0,1-2.322-2.378q.028-11.341.037-22.663,0-17.081-.019-34.18c0-.594-.037-1.17-.037-1.765a2.187,2.187,0,0,1,2.378-2.433c2.786,0,5.573,0,8.359.019a2.643,2.643,0,0,1,2.731,1.653,11.707,11.707,0,0,0,1.245,1.82c1.022,1.523,2.025,3.065,3.028,4.607,1.245,1.895,2.489,3.79,3.715,5.684.762,1.189,1.523,2.359,2.266,3.567.52.836,1,1.69,1.523,2.508,1.022,1.579,2.1,3.139,3.121,4.737.594.91,1.133,1.858,1.728,2.786.613.966,1.282,1.913,1.895,2.9.5.8.985,1.6,1.467,2.415.186.316.39.613.557.947.669,1.189,1.319,2.4,2.006,3.567.2.372.539.687.743,1.059.576,1.077,1.133,2.155,1.69,3.232.483.91.985,1.82,1.468,2.749.316.632.576,1.282.91,1.895.316.576.706,1.115,1.059,1.672C304.774,250.558,304.885,250.521,305,250.483Z" transform="translate(-213.761 -165.013)" fill="#fff"/>
    <path id="Path_3191" data-name="Path 3191" d="M624.58,255.644c-3.065,0-6.13.019-9.2,0-1.653-.019-2.229-.669-2.192-2.341.074-3.084.167-6.186.167-9.269q.056-25.44.037-50.9c0-2.229,0-2.136,1.988-2.266a36.857,36.857,0,0,0,4.161-.873,12.962,12.962,0,0,1,2.4-.26c3.994-.019,7.988.037,11.982-.037,1.523-.019,2.786.817,4.2,1a21.215,21.215,0,0,1,5,1.375c.632.241,1.189.557,1.783.836a17.8,17.8,0,0,1,2.8,1.523,21.634,21.634,0,0,1,5.536,4.941,10.652,10.652,0,0,1,1.969,2.861c.39,1.245,1.6,2.043,1.6,3.455a2.429,2.429,0,0,0,.557,1.245,3.563,3.563,0,0,1,.65,1.969,14.619,14.619,0,0,0,.632,2.3,9.488,9.488,0,0,1,.52,1.95c.167,3.177.334,6.372.334,9.548.019,2.433-.13,4.886-.353,7.319-.111,1.077-.873,2.118-.873,3.177-.019,2.006-1.43,3.567-1.56,5.5-.019.279-.279.539-.427.8-.26.539-.5,1.115-.78,1.635-.427.78-.854,1.56-1.356,2.3-.65.966-1.337,1.913-2.081,2.824a17.887,17.887,0,0,1-4.142,3.79c-.836.557-1.635,1.189-2.452,1.783-.019.019-.056.037-.074.056-1.43.427-2.582,1.542-4.124,1.69-.186.019-.427,0-.539.111-.706.78-1.653.706-2.564.873a6.875,6.875,0,0,0-2.8.873,2.47,2.47,0,0,1-1.356.2Zm24.613-33.79c-.037-3.046.112-6.074-.8-9.084a48.7,48.7,0,0,0-1.82-5.257,15.306,15.306,0,0,0-2.675-3.734c-1.412-1.653-3.362-2.638-5.127-3.845a.986.986,0,0,0-.353-.111c-.669-.2-1.337-.427-2.025-.613a11.842,11.842,0,0,0-2.582-.613c-3.121-.074-6.242-.037-9.362-.019-.984,0-1.356.334-1.393,1.319-.037.855.037,1.728.037,2.6q.028,20.842.019,41.685a11.649,11.649,0,0,1-.056,1.393c-.13,1.059.223,1.579,1.319,1.6,4.254.056,8.526.409,12.632-1.207a14.9,14.9,0,0,0,5.331-3.344,36.1,36.1,0,0,0,2.842-3.232,9.385,9.385,0,0,0,1.449-2.545,37.081,37.081,0,0,0,1.69-5.331,28.611,28.611,0,0,0,.892-7.319C649.137,223.4,649.193,222.615,649.193,221.854Z" transform="translate(-498.97 -154.46)" fill="#fff"/>
    <path id="Path_3192" data-name="Path 3192" d="M1024.966,190.4c1.245,0,2.471-.019,3.715,0,1.412.019,1.913.464,2.192,1.876.074.353.26.687.353,1.04.3,1.059.576,2.118.854,3.176.037.149,0,.334.074.446.873,1.337.576,3.065,1.282,4.384.78,1.449.669,3.046,1.226,4.514.613,1.616,1.226,3.269,1.69,4.941.594,2.1,1,4.235,1.56,6.334.242.947.743,1.839.91,2.8.371,2.025,1.523,3.845,1.523,5.963a.661.661,0,0,0,.037.186c.762.836.724,1.932.966,2.935.186.817.632,1.579.854,2.4.242.91.372,1.876.539,2.8a1.118,1.118,0,0,0,.056.372c.984,1.207.52,2.861,1.207,4.105.762,1.375.724,2.9,1.208,4.31a2.676,2.676,0,0,0,.279.669,2.93,2.93,0,0,1,.576,2.1,4.45,4.45,0,0,0,.669,2.359,4.271,4.271,0,0,1,.52,1.82,4.52,4.52,0,0,0,.78,2.619,2.288,2.288,0,0,1,.427,1c.149,1.579.093,2.694-2.285,2.6-1.951-.074-3.9,0-5.851,0a1.76,1.76,0,0,1-1.932-1.356,8.808,8.808,0,0,1-.929-2.006,27.209,27.209,0,0,0-1.282-4.867c-.576-2.062-.8-4.235-1.56-6.223a16.135,16.135,0,0,1-1.022-3.79,1.286,1.286,0,0,0-.854-.78,23.735,23.735,0,0,0-3.047-.149c-4.124,0-8.229,0-12.353.019a7.491,7.491,0,0,0-1.115.074,1.019,1.019,0,0,0-1.022,1.17,4.907,4.907,0,0,1-.279,1.542,65.289,65.289,0,0,0-1.969,6.595,16.131,16.131,0,0,1-1.375,4.458.627.627,0,0,0-.037.372,5.774,5.774,0,0,1-1.226,3.975,1.774,1.774,0,0,1-1.579.966c-1.988-.019-3.957,0-5.944,0a5.221,5.221,0,0,1-.929-.074,1.509,1.509,0,0,1-1.1-2.378,5.686,5.686,0,0,0,.762-2.229,17.229,17.229,0,0,1,.854-2.433,12.2,12.2,0,0,0,.3-1.43c.111-.483.223-.947.353-1.43.279-1.059.576-2.118.873-3.177.149-.539.353-1.04.5-1.579.26-.91.483-1.839.706-2.749.093-.39.2-.762.316-1.152.316-1.1.613-2.173.929-3.269.074-.26.13-.539.223-.8.242-.687.557-1.356.743-2.043a9.4,9.4,0,0,1,.929-3.065,6.254,6.254,0,0,0,.427-2.341c.056-.3.037-.687.2-.892a4.44,4.44,0,0,0,.836-2.954.168.168,0,0,1,.019-.093c.613-1.69,1-3.455,1.486-5.183.353-1.282.687-2.563,1.059-3.827.464-1.542.854-3.1,1.282-4.644.39-1.393,1.152-2.675,1.077-4.2a.817.817,0,0,1,.223-.5,6.653,6.653,0,0,0,1.022-3.307,8.745,8.745,0,0,1,.873-2.3,1.594,1.594,0,0,0,.2-.613c-.13-1.5.632-2.749,1.133-4.068a2.387,2.387,0,0,0,.13-.632,2.451,2.451,0,0,1,2.656-2.433c1.338-.019,2.656,0,3.994,0C1024.966,190.364,1024.966,190.382,1024.966,190.4Zm-.594,38.025c2.006,0,4.031.019,6.037,0,.892,0,1.375-.576.966-1.319a13.126,13.126,0,0,1-1.356-4.44c-.223-1.337-1.3-2.508-1.115-4.012a.587.587,0,0,0-.056-.167c-.427-1.43-1.375-2.712-1.152-4.31.019-.111-.074-.241-.111-.353a7.675,7.675,0,0,1-1.078-4.328,1.209,1.209,0,0,0-.223-.687,8.716,8.716,0,0,1-1.022-4.625,2.728,2.728,0,0,0-.39-1.393c-.279-.557-.706-.557-.929-.019a6.386,6.386,0,0,0-.464,1.932c-.093,1.17.093,2.359-.539,3.437a4.723,4.723,0,0,0-.706,2.824,3.625,3.625,0,0,1-.594,2.285,6.6,6.6,0,0,0-.632,1.82c-.167.613-.223,1.282-.409,1.895-.539,1.858-1.115,3.7-1.672,5.536-.446,1.467-.836,2.935-1.3,4.4-.427,1.282-.279,1.523,1.059,1.523Z" transform="translate(-814.087 -154.995)" fill="#fff"/>
    <path id="Path_3193" data-name="Path 3193" d="M69.715,160.934c0-3.529-.037-7.059.019-10.588a17.434,17.434,0,0,1,.539-2.879c.111-.576.223-1.152.372-1.709.5-1.69.929-3.418,1.56-5.071a32.265,32.265,0,0,1,1.783-3.474c.427-.8.966-1.56,1.356-2.359a1.2,1.2,0,0,0-.316-1.43,15.31,15.31,0,0,1-1.858-2.248c-.78-1.189-1.43-2.471-2.136-3.715a1.638,1.638,0,0,1-.13-.539,5.643,5.643,0,0,0-.39-1.412,5.669,5.669,0,0,1-.892-3.232,2.76,2.76,0,0,0-.464-1.3,6.065,6.065,0,0,1-.706-3.307c.019-1.709.074-3.4-.019-5.108a16.915,16.915,0,0,1,1.022-6c.019-.037.037-.056.037-.093-.149-1.728,1.022-3.046,1.486-4.57A6.681,6.681,0,0,1,72.5,99.633c.409-.464,1.282-.056,1.5.65a10.6,10.6,0,0,1,.687,2.768,22.178,22.178,0,0,0,.947,5.629,14.923,14.923,0,0,0,1.152,3.864,7.9,7.9,0,0,1,.52,1.746c.037.111,0,.26.056.372.65,1.207,1.337,2.4,1.95,3.622,1.133,2.341,3.139,3.92,4.9,5.721.427.427.762.464,1.152.037,1.43-1.56,2.916-3.084,4.254-4.718a26.587,26.587,0,0,0,2.452-3.752c.91-1.653,1.746-3.362,2.508-5.09a18.383,18.383,0,0,0,1.263-3.641,28.88,28.88,0,0,0,.223-3.6,10.77,10.77,0,0,1,.26-1.728c.093-.446.409-.576.855-.446a2.06,2.06,0,0,1,1.467,1.839,8.352,8.352,0,0,0,.873,3.659,3.174,3.174,0,0,1,.334,1.43,15.072,15.072,0,0,0,.743,4.161,17.9,17.9,0,0,1,.186,7.1,7.287,7.287,0,0,1-.632,1.542,1.177,1.177,0,0,0-.186.52c.13,1.783-1.1,3.158-1.449,4.83a13.579,13.579,0,0,1-1.709,3.4c-.037.074-.111.149-.149.223-.576,1.189-1.1,2.378-1.709,3.548a17.549,17.549,0,0,1-1.263,2.025,58.6,58.6,0,0,1-3.511,4.718c-1.3,1.486-2.8,2.8-4.217,4.2-.111.111-.279.186-.316.316-.52,1.672-2.062,2.582-2.972,3.957-.985,1.467-2.118,2.861-3.1,4.347a25.206,25.206,0,0,0-2.006,3.511c-.613,1.319-1.04,2.731-1.56,4.105-.2.52-.5,1-.669,1.523-.576,1.82-1.207,3.622-1.6,5.461a44,44,0,0,0-.873,6.223c-.13,1.913.074,3.827.111,5.74,0,.316-.037.762-.223.91-.186.13-.632-.019-.91-.13a1.462,1.462,0,0,1-.892-1.5,11.956,11.956,0,0,0-.947-5.146,4.27,4.27,0,0,1-.26-1.542c-.037-3.659-.019-7.375-.037-11.09Z" transform="translate(-55.709 -80.964)" fill="#fff"/>
    <path id="Path_3194" data-name="Path 3194" d="M918.748,223.45V253.8a2.113,2.113,0,0,1-2.433,2.433c-1.913,0-3.845-.019-5.759-.019a1.651,1.651,0,0,1-1.858-1.635c-.037-.372-.019-.743-.019-1.115q0-30.26.019-60.539a4.929,4.929,0,0,1,.223-1.356,1.4,1.4,0,0,1,1.523-1.077c2.006,0,4.031-.037,6.037-.019a2.035,2.035,0,0,1,2.266,2.3q-.028,15.353,0,30.669Z" transform="translate(-739.484 -155.09)" fill="#fff"/>
    <path id="Path_3195" data-name="Path 3195" d="M872.8,951.451V939.562c0-.52.056-1.059.074-1.579a4.168,4.168,0,0,1,2.025-3.251,1.578,1.578,0,0,1,.892-.186c5.536,0,11.09-.037,16.626.019a9.826,9.826,0,0,1,2.489.557,15.616,15.616,0,0,1,1.988.669,8.322,8.322,0,0,1,1.56.947,33.7,33.7,0,0,1,3.437,2.563,6.741,6.741,0,0,1,2.118,3.2.656.656,0,0,0,.149.242,12.568,12.568,0,0,1,2.006,5.48,17.859,17.859,0,0,1-.724,9.139,23.016,23.016,0,0,1-1.672,3.622,9.4,9.4,0,0,1-3.585,3.994c-1,.557-1.932,1.263-2.9,1.895a1.484,1.484,0,0,1-.39.241,16.35,16.35,0,0,0-2.731.706c-2.322,1.1-4.755.483-7.115.557-3.492.111-7,.037-10.5.019a3.576,3.576,0,0,1-3.567-2.954,10.3,10.3,0,0,1-.13-1.858c-.056-4.012-.056-8.062-.056-12.13Zm7.282-.074h.019v3.344c0,2.081-.019,4.142-.019,6.223,0,1.245.446,1.635,1.672,1.6.966-.019,1.913.019,2.879-.037,2.564-.186,5.146.316,7.728-.372a7.645,7.645,0,0,0,3.6-2.266c1.3-1.337,1.69-3.214,2.359-4.923a9.59,9.59,0,0,0,.353-4.848,17.287,17.287,0,0,0-1.375-4.941,9.4,9.4,0,0,0-3.567-3.92,3.417,3.417,0,0,0-.762-.3c-.52-.167-1.059-.3-1.579-.446a3.865,3.865,0,0,0-.892-.2c-2.9,0-5.814.037-8.712.037-1.319,0-1.728.372-1.728,1.672C880.082,945.117,880.082,948.237,880.082,951.377Z" transform="translate(-710.247 -760.483)" fill="#fff"/>
    <path id="Path_3196" data-name="Path 3196" d="M667.4,951.532V940.015c0-.52.019-1.059.037-1.579a4.285,4.285,0,0,1,1.988-3.567,1.534,1.534,0,0,1,.873-.223q9.418-.028,18.855.019a4.3,4.3,0,0,1,1.449.483,12.5,12.5,0,0,1,3.994,2.322,10.836,10.836,0,0,1,2.415,2.991c.873,1.95,1.6,4.031.762,6.242a2.47,2.47,0,0,0-.093.353,8.506,8.506,0,0,1-3.046,5.016c-.149.149-.334.279-.483.427-.929.836-.929,1.319.074,2.118a6.31,6.31,0,0,1,2.229,4.365,13.73,13.73,0,0,0,.91,3.659c.316.724,1.152,1.226,1.746,1.839a1.79,1.79,0,0,1-.037,2.824,4.137,4.137,0,0,1-5.536.427c-.52-.39-1-.8-1.542-1.152-1.022-.669-1.263-1.858-1.895-2.786a3.7,3.7,0,0,1-.409-1.6,5.623,5.623,0,0,1-.019-1.579,3.315,3.315,0,0,0-1.839-3.529,3.075,3.075,0,0,0-1.542-.483c-3.437-.037-6.873-.019-10.31-.019-1.17,0-1.3.167-1.282,1.375q.028,4.04,0,8.081a2.916,2.916,0,0,1-2.508,2.471,4.266,4.266,0,0,1-3.789-1.449,3.915,3.915,0,0,1-.966-2.824c-.037-4.217-.019-8.452-.037-12.706Zm13.728-.854h0c1.616.019,3.214,0,4.83.019a3.893,3.893,0,0,0,2.935-1.245,4.7,4.7,0,0,0,.947-1.932,5.847,5.847,0,0,0-.111-4.83,4.4,4.4,0,0,0-3.474-2.322c-3.344.019-6.687.019-10.013,0-.966,0-1.523.409-1.542,1.393-.037,2.508-.037,5.016.019,7.523.019,1.022.5,1.393,1.523,1.393Z" transform="translate(-543.103 -760.564)" fill="#fff"/>
    <path id="Path_3197" data-name="Path 3197" d="M95.934,655.763c0-4.458-.037-8.917.037-13.375a6.5,6.5,0,0,1,.687-2.545,2.465,2.465,0,0,1,2.471-1.449c3.752.037,7.486-.056,11.239.056a9.814,9.814,0,0,1,2.749.929c1.449.5,2.136,1.783,2.991,2.9a1.323,1.323,0,0,1,.279.687,34.707,34.707,0,0,1,.483,5.684,6.172,6.172,0,0,1-1.895,4.477c-.446.39-.446.687-.019,1.133.78.78,1.486,1.616,2.192,2.452a2.748,2.748,0,0,1,.5.984,17.886,17.886,0,0,1,.26,8.861,7.911,7.911,0,0,1-3.6,4.978,8.756,8.756,0,0,1-4.941,1.393c-3.251.056-6.5.056-9.752.019a6.754,6.754,0,0,1-2.081-.39,1.629,1.629,0,0,1-.836-.817,8.629,8.629,0,0,1-.8-3.567c.074-4.124.037-8.266.037-12.409Zm6.595,6.3h.056v1.486c0,.5-.019.985-.019,1.486a1.585,1.585,0,0,0,1.709,1.653,39.287,39.287,0,0,0,4.44-.056,3.2,3.2,0,0,0,2.155-1.133,6.4,6.4,0,0,0,.91-4.273,3.415,3.415,0,0,0-3.455-3.139q-1.95-.028-3.9,0a7.619,7.619,0,0,0-1.282.186c-.539.074-.687.409-.669.929C102.547,660.128,102.528,661.094,102.528,662.06Zm0-13.728h0c0,.706.019,1.43,0,2.136-.037.873.111,1.059.966,1.077,1.523.019,3.028.037,4.551-.019a2.34,2.34,0,0,0,1.207-.52c1.356-1.133,1.245-3.121.687-4.514-.223-.557-.39-1.263-1.17-1.282-1.839-.037-3.7-.037-5.536-.037-.594,0-.743.39-.706.966C102.566,646.846,102.528,647.589,102.528,648.332Z" transform="translate(-78.082 -519.495)" fill="#fff"/>
    <path id="Path_3198" data-name="Path 3198" d="M679.47,658.56c.037-.372.093-.762.093-1.133V641.08a2.776,2.776,0,0,1,1.04-2.266,2.722,2.722,0,0,1,3.678.186,2.637,2.637,0,0,1,.854,2.118q-.028,14.434-.019,28.886a2.824,2.824,0,0,1-3.065,2.8,3.613,3.613,0,0,1-3.362-2.4,15.4,15.4,0,0,0-1.3-2.006c-.687-1.04-1.393-2.081-2.062-3.139-.557-.873-1.04-1.8-1.56-2.693-.427-.706-.854-1.393-1.319-2.081-.985-1.467-2.025-2.916-2.991-4.384-.52-.8-.91-1.672-1.393-2.489a4.323,4.323,0,0,0-.706-.724,3.358,3.358,0,0,0-.3.892c0,5.2-.019,10.4.037,15.6a3.9,3.9,0,0,1-1.189,2.8,2.234,2.234,0,0,1-1.468.613c-2.081.037-3.158-1.077-3.344-3.307-.037-.464-.019-.929-.019-1.393,0-8.545.019-17.09,0-25.635a5.352,5.352,0,0,1,1.059-3.288c.8-1.1,3.065-1.43,3.994-.446a26.365,26.365,0,0,1,2.211,2.935c.483.706.873,1.468,1.337,2.173.632.947,1.337,1.839,1.932,2.8,1,1.616,1.932,3.269,2.879,4.9.409.687.836,1.356,1.245,2.025.873,1.393,1.746,2.8,2.656,4.18a8.7,8.7,0,0,0,.8.873A1.224,1.224,0,0,1,679.47,658.56Z" transform="translate(-537.968 -519.301)" fill="#fff"/>
    <path id="Path_3199" data-name="Path 3199" d="M282.391,956.177c.093-.39.167-.8.279-1.189.39-1.319.762-2.638,1.17-3.957.074-.26.3-.464.39-.724.26-.743.5-1.5.762-2.248.316-.854.632-1.709.966-2.563a1.176,1.176,0,0,0,.186-.52c-.13-1.189.706-2.006,1.1-2.991a2.367,2.367,0,0,1,2.155-1.356c.836-.093,1.783.892,2.025,1.8a8.311,8.311,0,0,0,.353.854c.613,1.653,1.3,3.307,1.839,4.978.669,2.062,1.207,4.18,1.8,6.279.037.111,0,.279.074.353.242.3.52.557.78.836.2-.316.594-.65.557-.929-.149-1.672.78-3.1,1.022-4.663.241-1.6,1-3.028,1.375-4.57.5-2.062.91-4.124,1.356-6.2a.139.139,0,0,1,.019-.093c.817-1.077.724-2.452,1.207-3.641a2.733,2.733,0,0,1,3.251-1.579,4.5,4.5,0,0,1,1.913,2.563,7.8,7.8,0,0,1-.892,4.291c-.111.223-.3.446-.279.669.074,1.616-.78,2.972-1.17,4.44-.5,1.895-.91,3.808-1.356,5.721a1.555,1.555,0,0,1-.167.52,9.057,9.057,0,0,0-1.077,3.864,18.434,18.434,0,0,1-.78,2.136c-.316,1.152-.52,2.341-.8,3.511a27.405,27.405,0,0,1-.91,3.269,8.644,8.644,0,0,1-1.375,2.378,1.823,1.823,0,0,1-2.619-.13,9.872,9.872,0,0,1-2.359-5.053,5.824,5.824,0,0,0-.372-1.04c-.279-.762-.539-1.542-.854-2.3-.26-.65-.613-1.282-.836-1.932-.483-1.43-.892-2.861-1.337-4.291a9.922,9.922,0,0,0-.446-.892,2.728,2.728,0,0,0-1.245,1.932c-.167.743-.316,1.5-.557,2.229-.2.594-.576,1.133-.78,1.728a40.1,40.1,0,0,1-1.635,4.774c-.669,1.338-.947,2.8-1.746,4.124-1.022,1.709-3.065,1.858-4.161-.279a11.062,11.062,0,0,1-.724-2.173c-.279-1-.5-2.025-.8-3.047-.334-1.17-.724-2.341-1.04-3.529-.539-2.025-.985-4.087-1.542-6.112-.464-1.653-1.077-3.251-1.542-4.9-.334-1.17-.557-2.4-.854-3.585a6.53,6.53,0,0,0-.353-.947,9.574,9.574,0,0,1-.427-1.226c-.186-.892-.3-1.82-.5-2.712a3.656,3.656,0,0,1,1.337-3.79c.78-.669,2.415-.223,3.1.483,1.282,1.282,1,2.991,1.486,4.477.687,2.081,1.282,4.18,1.913,6.26a1.466,1.466,0,0,1,.149.539c-.074,1.672.743,3.084,1.17,4.625.39,1.375.613,2.8.966,4.217a10.892,10.892,0,0,0,.52,1.282A.39.39,0,0,0,282.391,956.177Z" transform="translate(-220.79 -759.989)" fill="#fff"/>
    <path id="Path_3200" data-name="Path 3200" d="M1088.8,954.21c-.8-.242-1.6-.539-2.4-.743-1.077-.279-2.173-.483-3.269-.724a2.357,2.357,0,0,1-.539-.074c-1.969-1.04-3.957-2.173-5.053-4.161a7.76,7.76,0,0,1-.539-7.356,10.868,10.868,0,0,1,4.217-4.607c1.653-1.04,3.6-1.115,5.294-1.969a2.663,2.663,0,0,1,1.1-.111c1.635-.019,3.288,0,4.923,0a5.023,5.023,0,0,1,2.4.464,10.567,10.567,0,0,0,3.177.724,3.011,3.011,0,0,1,1.6.594c.706.557,1.56.947,2.285,1.5a8.391,8.391,0,0,1,1.356,1.337,1.869,1.869,0,0,1-.223,2.786c-.223.2-.483.39-.706.613a2.762,2.762,0,0,1-4.012.019,1.919,1.919,0,0,0-.613-.39c-.762-.316-1.523-.632-2.285-.929a9.7,9.7,0,0,0-1.04-.334c-.669-.186-1.337-.372-2.025-.539a3.726,3.726,0,0,0-.892-.149c-.743,0-1.486.093-2.229.037a2.845,2.845,0,0,0-2.433.5.444.444,0,0,1-.26.093c-1.263-.241-1.8.929-2.693,1.412-.167.093-.26.409-.3.632a7.483,7.483,0,0,0-.074,1.115,2.469,2.469,0,0,0,1.468,2.563,13.093,13.093,0,0,0,5.684,1.56.553.553,0,0,1,.353.074,6.134,6.134,0,0,0,3.585.669,1,1,0,0,1,.539.093c1.1.8,2.563.557,3.641,1.189,1.5.873,3.139,1.56,4.217,3.139a8.238,8.238,0,0,1,1.523,5.48,7.212,7.212,0,0,1-2.433,5.183c-.632.52-1.189,1.133-1.8,1.69a1.96,1.96,0,0,1-.557.279c-.334.149-.8.186-1,.446a4.119,4.119,0,0,1-2.712,1.208c-1.393.241-2.656,1.022-4.18.854-1.653-.186-3.344-.019-5.016-.056a5.3,5.3,0,0,1-1.375-.409c-.167-.056-.316-.242-.483-.279-1.022-.186-2.043-.353-3.065-.52a2.281,2.281,0,0,1-.724-.13c-1.022-.613-2.025-1.245-2.991-1.913a11.578,11.578,0,0,1-1.486-1.226,2.75,2.75,0,0,1,.8-4.365c1.672-.873,3.047-.3,4.421.632.371.26.817.409,1.207.632a7.7,7.7,0,0,0,1.393.836,12.705,12.705,0,0,0,4.4.854c.762-.056,1.56.093,2.322-.037a21.388,21.388,0,0,0,3.92-.873,5.27,5.27,0,0,0,1.932-1.542c.632-.687.279-2.749-.446-3.325-.464-.353-.929-.724-1.393-1.059-.167-.13-.371-.316-.557-.316a8.618,8.618,0,0,1-2.712-.8,18.091,18.091,0,0,0-3.232-.632A.464.464,0,0,1,1088.8,954.21Z" transform="translate(-875.547 -760.419)" fill="#fff"/>
    <path id="Path_3201" data-name="Path 3201" d="M480.355,934.493c1.6-.409,2.489.594,3.158,1.783.854,1.5,1.579,3.1,2.378,4.663.167.334.427.613.576.947.2.464.372.966.539,1.449.056.149.019.316.093.446.613,1.115,1.226,2.248,1.839,3.362a4.442,4.442,0,0,1,.241.39c.409.817.8,1.635,1.189,2.452.464.966.929,1.932,1.393,2.879.669,1.393,1.375,2.768,2.025,4.161.52,1.1.985,2.229,1.523,3.325.594,1.207,1.189,2.415,1.839,3.585a2.211,2.211,0,0,1-.409,3.084,3.632,3.632,0,0,1-2.6,1.356,3.244,3.244,0,0,1-2.8-1.765,4.839,4.839,0,0,1-1.375-2.861c0-.279-.372-.557-.557-.836a4.919,4.919,0,0,1-.483-.78,2.038,2.038,0,0,0-2.229-1.616c-3.752,0-7.486.019-11.239.019-.613,0-1.245-.019-1.858-.037a2.056,2.056,0,0,0-2.229,1.709,9.629,9.629,0,0,1-1.04,2.043c-.669,1.115-1.412,2.211-2.118,3.307-.427.65-1.059.687-1.765.762a2.624,2.624,0,0,1-3.009-1.746,1.767,1.767,0,0,1-.242-1.059c.316-1.04.762-2.062,1.17-3.065.223-.539.464-1.059.706-1.579.111-.242.279-.483.39-.724.279-.576.557-1.152.817-1.728l.223-.5c.353-.743.687-1.486,1.04-2.211.483-.984.966-1.988,1.468-2.972.613-1.245,1.226-2.471,1.839-3.7a2.055,2.055,0,0,1,.223-.5,13.762,13.762,0,0,0,1.319-2.916c.52-1.189,1.245-2.285,1.858-3.455.2-.409.241-.892.446-1.282.65-1.282,1.337-2.526,2.025-3.789.316-.576.687-1.133,1.04-1.672A2.3,2.3,0,0,1,480.355,934.493Zm-.26,20.081c1.43,0,2.842.019,4.272-.019.242,0,.65-.149.687-.3a1.4,1.4,0,0,0-.223-.817c-.279-.576-.613-1.115-.91-1.672-.13-.242-.242-.483-.39-.724-.576-.966-1.189-1.913-1.709-2.9-.464-.892-.836-1.858-1.245-2.786-.223-.483-.557-.52-.836-.13a8.226,8.226,0,0,0-.892,1.5c-.594,1.263-1.133,2.563-1.728,3.845-.093.223-.316.39-.427.594-.149.242-.241.483-.372.724-.26.483-.52.947-.762,1.43-.149.279-.279.576-.409.854a3.147,3.147,0,0,0,.966.334C477.439,954.592,478.776,954.574,480.1,954.574Z" transform="translate(-376.904 -760.374)" fill="#fff"/>
    <path id="Path_3202" data-name="Path 3202" d="M95.024,960.633c-2.136,0-4.272.019-6.409,0a2.03,2.03,0,0,0-2.322,1.69,11,11,0,0,1-.669,1.207,25.329,25.329,0,0,1-1.17,2.359,23.7,23.7,0,0,1-1.82,2.266.9.9,0,0,1-.3.223,3.282,3.282,0,0,1-4.272-2.341,2.23,2.23,0,0,1,.2-1.077c.427-1.022.929-2.043,1.393-3.065a29.373,29.373,0,0,1,1.728-3.715,43.639,43.639,0,0,0,2.1-4.551c.576-1.226,1.375-2.341,1.839-3.585.52-1.356,1.653-2.433,1.728-3.975a.91.91,0,0,1,.13-.353c.632-1.115,1.3-2.211,1.858-3.362.613-1.245,1.077-2.582,1.728-3.808a9.807,9.807,0,0,1,2.675-3.752,1.462,1.462,0,0,1,.687-.186c.464-.037.929.037,1.393-.019,1.412-.186,2.155.687,2.768,1.709a43.11,43.11,0,0,1,2.136,3.845c.594,1.263,1.022,2.6,1.6,3.882.446,1,1,1.95,1.5,2.916.223.427.427.873.65,1.3.706,1.319,1.43,2.619,2.1,3.938.186.371.223.817.427,1.207.669,1.338,1.412,2.619,2.043,3.975.557,1.152,1,2.341,1.486,3.511l.167.334c.594,1.059,1.207,2.118,1.765,3.2a2.315,2.315,0,0,1-.5,2.712,3.443,3.443,0,0,1-2.471,1.412c-1.728.074-2.563-.966-3.307-2.211-.687-1.17-1.282-2.4-1.932-3.6a1.245,1.245,0,0,1-.13-.334,2.059,2.059,0,0,0-2.248-1.709c-2.173-.037-4.365-.037-6.557-.037Zm.019-5.926c1.3,0,2.6.019,3.882-.019a5.389,5.389,0,0,0,1.152-.334c-.186-.334-.353-.669-.557-.985-.167-.26-.372-.483-.52-.743-.3-.557-.594-1.115-.836-1.69a10.374,10.374,0,0,0-1.579-2.749,1.074,1.074,0,0,1-.093-.26c-.353-.817-.687-1.635-1.077-2.415-.223-.446-.557-.594-.854.019-.446.966-.91,1.932-1.393,2.879-.687,1.356-1.412,2.675-2.136,4.012-.186.334-.39.669-.557,1.022a8.766,8.766,0,0,0-.334.984,4.265,4.265,0,0,0,.91.279C92.386,954.726,93.724,954.708,95.043,954.708Z" transform="translate(-63.556 -760.508)" fill="#fff"/>
    <path id="Path_3203" data-name="Path 3203" d="M834.359,655.769c0-4.421-.037-8.861.037-13.282a6.942,6.942,0,0,1,.687-2.638,2.485,2.485,0,0,1,2.489-1.449c4.235.037,8.489.037,12.725,0a2.409,2.409,0,0,1,2.489,1.133,3.973,3.973,0,0,1,.929,2.4,3.183,3.183,0,0,1-2.916,3.028c-2.563.056-5.146.019-7.709.056a12.147,12.147,0,0,0-1.653.149c-.483.056-.65.353-.613.854.074,1.486.111,2.954.111,4.44s.353,1.876,1.858,1.858c1.951-.019,3.9-.13,5.851-.019a3.846,3.846,0,0,1,2.415.892,3.953,3.953,0,0,1,.706,2.415,5.21,5.21,0,0,1-.557,2.118,1.193,1.193,0,0,1-.743.594,12.2,12.2,0,0,1-2.452.353c-1.82.037-3.659-.019-5.48,0-1.226,0-1.6.409-1.6,1.635v4.644c0,1.226.52,1.746,1.765,1.728,2.786-.056,5.573-.13,8.341-.149,1.189,0,1.765.966,2.266,1.839a3.106,3.106,0,0,1-1.709,4.551,1.91,1.91,0,0,1-.724.111c-4.272,0-8.545.019-12.817-.019-.966,0-2.1-.037-2.675-.929a5.575,5.575,0,0,1-.929-2.656c-.111-3.065-.056-6.13-.056-9.2-.019-1.486-.019-2.972-.037-4.458Z" transform="translate(-678.983 -519.501)" fill="#fff"/>
    <path id="Path_3204" data-name="Path 3204" d="M427.151,638.229h1.579a1.884,1.884,0,0,1,.65.019,46.075,46.075,0,0,1,4.4,1.876c.687.427,1.189,1.152,1.895,1.56,1.245.743,1.022,1.951,1.077,3.046a2.818,2.818,0,0,1-3.548,2.861c-.706-.334-1.3-.892-1.988-1.282-1.895-1.1-3.882-1.913-6.13-1.319a3.746,3.746,0,0,0-2.433,3.381,3.62,3.62,0,0,0,2.731,3.009c.594.13,1.17.409,1.765.576.855.242,1.709.427,2.582.632a5.539,5.539,0,0,1,.8.167c.557.223,1.1.539,1.672.743a8.48,8.48,0,0,1,3.9,2.972,7.519,7.519,0,0,1,.687,1.579,10.636,10.636,0,0,1,.576,6.724,9.522,9.522,0,0,1-4.755,6.557,11.627,11.627,0,0,1-6.242,1.449,16.12,16.12,0,0,1-3.864-.52,10.284,10.284,0,0,1-4.57-2.564,10.462,10.462,0,0,1-1.913-2.786,1.907,1.907,0,0,1,.019-1.43,3.452,3.452,0,0,1,2.675-2.619,2.53,2.53,0,0,1,2.433.8,9.375,9.375,0,0,0,5.443,2.8,2.74,2.74,0,0,0,1.337-.3,5.422,5.422,0,0,0,2.619-1.412,3.017,3.017,0,0,0,.056-3.938,5.561,5.561,0,0,0-3.492-1.913,11.953,11.953,0,0,1-2.471-.687c-.39-.111-.762-.279-1.152-.353a8.364,8.364,0,0,1-5.629-4.012c-1.3-1.969-1.189-4.105-1.207-6.223a12.225,12.225,0,0,1,.539-3.362,5.761,5.761,0,0,1,1.207-2.155,9.834,9.834,0,0,1,2.638-2.415c1.56-.78,3.139-1.746,5.053-1.486A6.6,6.6,0,0,0,427.151,638.229Z" transform="translate(-338.446 -519.312)" fill="#fff"/>
    <path id="Path_3205" data-name="Path 3205" d="M986.357,638.174h1.765a1.865,1.865,0,0,1,.65.037,42.818,42.818,0,0,1,4.217,1.876A16.08,16.08,0,0,1,995.311,642a1.362,1.362,0,0,1,.353.539,4.815,4.815,0,0,1-.2,4.105,2.94,2.94,0,0,1-3.288.8c-.613-.334-1.152-.78-1.746-1.152-1.876-1.152-3.864-2.006-6.112-1.337-1.895.557-3.455,3.4-1.579,5.183a3.937,3.937,0,0,0,1.988,1.226c1.616.353,3.065,1.245,4.811,1.263.669,0,1.3.65,2.006.854a8.658,8.658,0,0,1,3.845,3.009c.39.446.427,1.207.724,1.765a10.288,10.288,0,0,1,.594,6.093,6.514,6.514,0,0,1-1.69,4.012c-.52.5-.91,1.17-1.449,1.653a9.969,9.969,0,0,1-7.115,2.693c-.892-.019-1.8.037-2.693.037a3.231,3.231,0,0,1-.724-.093,16.394,16.394,0,0,1-2.359-.669,11.2,11.2,0,0,1-2.471-1.412,8.679,8.679,0,0,1-2.526-2.786,3.572,3.572,0,0,1,.669-4.328,3.033,3.033,0,0,1,4.142.3,5.586,5.586,0,0,0,3.046,1.932,1.74,1.74,0,0,1,.52.186,3.756,3.756,0,0,0,3.307.167c.91-.409,1.95-.557,2.526-1.5a3.178,3.178,0,0,0,.5-1,4.98,4.98,0,0,0,.019-1.486,1.925,1.925,0,0,0-.427-1.077c-1.04-.929-1.969-2.025-3.567-2.118a13.464,13.464,0,0,1-2.6-.687,5.2,5.2,0,0,0-1.337-.39,5.718,5.718,0,0,1-3.214-1.467,7.411,7.411,0,0,1-2.861-3.734,11.336,11.336,0,0,1-.483-5.74,7.476,7.476,0,0,0,.112-.929,5.964,5.964,0,0,1,.91-2.768,9.6,9.6,0,0,1,2.489-2.9,9.205,9.205,0,0,1,5.554-2.136,8.411,8.411,0,0,0,1.375.074Z" transform="translate(-793.63 -519.257)" fill="#fff"/>
    <path id="Path_3206" data-name="Path 3206" d="M1132.907,673.38a20.481,20.481,0,0,1-3.7-.613,10.345,10.345,0,0,1-4.793-2.712,4.4,4.4,0,0,1-1.746-3.79,3.134,3.134,0,0,1,4.718-2.452c.724.5,1.3,1.207,2.043,1.672,1.69,1.04,3.4,1.895,5.517,1.1a6.653,6.653,0,0,0,2.545-1.69,3.152,3.152,0,0,0,.2-2.879c-.984-1.245-2.043-2.415-3.808-2.526a3.211,3.211,0,0,1-.78-.26c-.2-.074-.409-.316-.576-.279-.836.2-1.467-.409-2.211-.464a6.605,6.605,0,0,1-3.046-1.189,9.566,9.566,0,0,1-2.638-2.619,8.537,8.537,0,0,1-1.3-3.938,7.77,7.77,0,0,1,.056-3.752,1.886,1.886,0,0,0,.111-.632,4.5,4.5,0,0,1,.836-2.582,8.836,8.836,0,0,1,3.047-3.344,8.69,8.69,0,0,1,4.514-1.672c.929-.019,1.858.019,2.786,0a3.808,3.808,0,0,1,3.028.817,1.41,1.41,0,0,0,.836.353c1.988.149,3.139,1.635,4.291,2.916a3.814,3.814,0,0,1,.427,3.548,2.606,2.606,0,0,1-2.563,1.913,4.625,4.625,0,0,1-2.545-1.1c-1.932-1.393-3.957-2.322-6.334-1.635a3.644,3.644,0,0,0-1.895,1.486,3.06,3.06,0,0,0,1.3,4.644,16.325,16.325,0,0,0,3.139,1.022c.65.186,1.319.26,1.969.39a3.585,3.585,0,0,1,.8.167c.557.223,1.1.557,1.672.743,1.728.539,2.842,1.876,4.012,3.121a2.3,2.3,0,0,1,.353.743,11.905,11.905,0,0,1,.966,6.966,10.307,10.307,0,0,1-1.746,4.217,15.531,15.531,0,0,1-3.938,3.381,4.505,4.505,0,0,1-2.006.576C1135.284,673.157,1134.1,673.25,1132.907,673.38Z" transform="translate(-913.538 -519.781)" fill="#fff"/>
    <path id="Path_3207" data-name="Path 3207" d="M279.493,651.733c0,2.879-.074,5.759.019,8.638a14.013,14.013,0,0,1-1,5.387,11.751,11.751,0,0,1-4.588,5.777,9.84,9.84,0,0,1-4.923,1.43,11.066,11.066,0,0,1-5.164-.706,8.467,8.467,0,0,1-2.3-1.449,13.079,13.079,0,0,1-3.251-4.421,18.94,18.94,0,0,1-1.56-7.876q-.028-8.025-.019-16.068a5.288,5.288,0,0,1,.613-2.471c.78-1.486,2.006-1.69,3.455-1.523a3.2,3.2,0,0,1,2.266,2.749c.037.427.019.873.019,1.3,0,5.61.019,11.2-.019,16.811a9.7,9.7,0,0,0,1.375,4.737,6.438,6.438,0,0,0,3.845,2.675c.167.056.427.093.539,0,.929-.8,2.211-.966,3.084-2.043a12.5,12.5,0,0,0,1.876-4.124,4.291,4.291,0,0,0,.13-1.467c0-5.536-.019-11.071.019-16.626a7.951,7.951,0,0,1,.483-2.879c.557-1.356,2.916-1.56,4.012-.576a3.337,3.337,0,0,1,1.152,2.824c-.093,3.269-.056,6.576-.056,9.9Z" transform="translate(-208.897 -519.496)" fill="#fff"/>
    <path id="Path_3208" data-name="Path 3208" d="M207.2,574.28h104.84a7.789,7.789,0,0,1,.931.019.784.784,0,0,1,.764.873c0,.557-.223.892-.8.929-.372.019-.745.019-1.117.019H102.318c-.335,0-.689,0-1.024-.019a.854.854,0,0,1-.894-.873.892.892,0,0,1,.931-.947H207.2Z" transform="translate(-81.749 -467.356)" fill="#fff"/>
    <path id="Path_3209" data-name="Path 3209" d="M213.682,870.392H318.8a2.366,2.366,0,0,1,.819.037c.261.111.615.39.633.594a1.119,1.119,0,0,1-.447.854,2.381,2.381,0,0,1-1.155.223q-74.062,0-148.125-.019H110.294c-.6,0-1.192.056-1.769.019a3.378,3.378,0,0,1-1.211-.353.827.827,0,0,1-.335-.687,1.093,1.093,0,0,1,.577-.613,2.469,2.469,0,0,1,.913-.074q52.606.028,105.213.019Z" transform="translate(-87.103 -708.322)" fill="#fff"/>
    <path id="Path_3210" data-name="Path 3210" d="M118.083,93.025a16.124,16.124,0,0,0-2.322.019,4.782,4.782,0,0,1-4.124-1.653,18.382,18.382,0,0,1-1.969-2.638,10.334,10.334,0,0,1-.892-1.5,2.884,2.884,0,0,1-.279-1.04c-.037-1.059-.019-2.1-.019-3.158a2.915,2.915,0,0,1,.65-2.341.688.688,0,0,0,.149-.334c.167-1.523,1.263-2.415,2.322-3.288a27.953,27.953,0,0,1,3.009-2.081,1.745,1.745,0,0,1,.873-.223c1.709-.019,3.418-.111,5.108.019a6.442,6.442,0,0,1,3.232,1.616,27.3,27.3,0,0,1,2.248,2.155c.037.037.111.074.13.13.427,1.3,1.486,2.359,1.43,3.845a11.2,11.2,0,0,0,0,1.579c.353,2.842-1.115,5-2.842,6.966a4.851,4.851,0,0,1-4.44,1.988A11.594,11.594,0,0,0,118.083,93.025Z" transform="translate(-88.325 -60.851)" fill="#fff"/>
    <path id="Path_3211" data-name="Path 3211" d="M577.254,655.708V642.333a4.736,4.736,0,0,1,1.245-3.214c.892-1.04,2.861-.966,3.957-.149,1.282.966,1.077,2.341,1.319,3.585a6.953,6.953,0,0,1,.037,1.393c0,8.136.019,16.273,0,24.409a12.836,12.836,0,0,1-.334,2.656,3.174,3.174,0,0,1-3.139,1.895,7.828,7.828,0,0,1-1.337-.334,1.63,1.63,0,0,1-.854-.65,8.185,8.185,0,0,1-.947-3.344c.093-4.272.056-8.582.056-12.873Z" transform="translate(-469.729 -519.459)" fill="#fff"/>
    <path id="Path_3212" data-name="Path 3212" d="M873.372,1181.868c.687-1.616,1.356-3.139,1.988-4.681a2.947,2.947,0,0,0,.241-.985c.037-.594.186-1.17.78-1.337a1.444,1.444,0,0,1,1.077.279,1.155,1.155,0,0,1,.2,1.523,2.117,2.117,0,0,0,0,1.895,2.289,2.289,0,0,0,.427-.52,8.4,8.4,0,0,1,2.694-3.121.841.841,0,0,1,1.17-.019c.576.446,1.17.873,1.783,1.263a1.834,1.834,0,0,0,.762.241c.947.149,1.17.669.743,1.486a16.3,16.3,0,0,0-.8,2.136,7.708,7.708,0,0,0-.371,1.226,5.385,5.385,0,0,0-.167,2.823c.2.632-.279,1.115-.966,1.189-.817.093-1.1-.111-1.17-.892a2.792,2.792,0,0,0-.13-.817c-.2-.353-.483-.539-.836-.056a6.293,6.293,0,0,1-1.468,1.579,1.736,1.736,0,0,1-1.486.056,1.8,1.8,0,0,1-.91-1.245,8.188,8.188,0,0,1,.241-3.845c.093-.223-.13-.576-.2-.873a3.075,3.075,0,0,0-.669.52c-.8.985-1.579,2.025-2.378,3.009-.52.65-1.059,1.282-1.635,1.876a2.409,2.409,0,0,1-1.077.65c-.817.2-1.3-.223-1.337-1.059-.019-.594.037-1.189-.019-1.765-.019-.26-.26-.5-.39-.743-.223.167-.5.279-.632.5-.372.632-.65,1.338-1.059,1.932a2.793,2.793,0,0,1-1.077.947,1.032,1.032,0,0,1-1.6-.892,5.609,5.609,0,0,1,.037-1.672,41.928,41.928,0,0,1,1.115-5.034,5.045,5.045,0,0,1,1.579-1.988c.52-.464,1.207-.167,1.69.242a.936.936,0,0,1,.13.817c-.3.985-.687,1.951-1,2.954-.056.2.111.483.186.706.242-.093.613-.093.724-.26.539-.892,1.022-1.821,1.5-2.731.13-.241.186-.52.334-.743a1.541,1.541,0,0,1,1.69-.65,1.567,1.567,0,0,1,.52,1.82c-.316.854-.632,1.709-.947,2.582C872.425,1181.013,872.573,1181.4,873.372,1181.868Zm5.666,1.022c1.152-.13,1.876-.557,1.988-1.69.019-.149.149-.26.223-.409.5-.947,1-1.895,1.468-2.861.093-.186,0-.446,0-.669-.241.037-.557,0-.724.13a9.048,9.048,0,0,0-2.9,4.811A3.531,3.531,0,0,0,879.038,1182.889Z" transform="translate(-703.974 -955.905)" fill="#fff"/>
    <path id="Path_3213" data-name="Path 3213" d="M991.079,1147.389c-.167,1.152-.279,2.285-.483,3.4a3.724,3.724,0,0,1-.464.892c-.242.483-.446.984-.706,1.486a4.1,4.1,0,0,1-.427.669c-.279.39-.539.8-.854,1.17a4.236,4.236,0,0,1-.724.687c-.167.13-.39.186-.557.316-1.765,1.3-3.548.687-4.31-1.412a3.12,3.12,0,0,1-.093-1.969c.186-.65.093-1.152-.762-1.245a5.332,5.332,0,0,1-1.189-.483.987.987,0,0,0-1.412.427c-.279.5-.743.91-1.022,1.393a9.659,9.659,0,0,0-.539,1.449c-.056.167.037.39-.019.557-.223.5-.39,1.319-.762,1.43a2.071,2.071,0,0,1-1.653-.52,1.879,1.879,0,0,1-.167-1.542c.613-1.988,1.337-3.938,1.988-5.926a2.187,2.187,0,0,1,1.876-1.56c.613-.093.966.3,1.17.836.316.836.409.854,1.115.3a3.326,3.326,0,0,1,1.115-.632.823.823,0,0,1,1,1.17c-.2.5-.594,1.04.074,1.337.65.3.817-.409,1.077-.836a5.77,5.77,0,0,1,3.288-2.508c.539-.167.594-.39.5-.873a6.708,6.708,0,0,0-1.115-2.694,3.573,3.573,0,0,1-.483-1.839.868.868,0,0,1,.78-.984,1.864,1.864,0,0,1,2.1.966c.3.632.613,1.263.91,1.913a1.988,1.988,0,0,1,.279.687C990.782,1144.769,990.93,1146.088,991.079,1147.389Zm-6.409,7.319a3.784,3.784,0,0,0,.464.706c.074.074.464-.019.557-.13a17.052,17.052,0,0,0,1.82-2.526,19.953,19.953,0,0,0,1.133-3.1.8.8,0,0,0-.2-.706.772.772,0,0,0-.724.056,8.65,8.65,0,0,0-1.226,1.375A9.569,9.569,0,0,0,984.67,1154.708Z" transform="translate(-793.329 -927.556)" fill="#fff"/>
    <path id="Path_3214" data-name="Path 3214" d="M546.914,1179.139c.167-.241.316-.483.483-.706.724-.892,1.468-1.783,2.211-2.675.037-.037.093-.093.149-.093,1.338-.037,1.189-.91,1.077-1.82-.074-.52.019-1.059-.037-1.579a2.793,2.793,0,0,1,1.04-2.526c.929-.854,1.17-.947,2.378-.409a3.29,3.29,0,0,1,1.709,2.694,1.44,1.44,0,0,1-.557.873c-.167.093-.594-.149-.836-.334a.827.827,0,0,0-1.337.594,2.375,2.375,0,0,0,.39,2.433.967.967,0,0,1,0,1.542,2.993,2.993,0,0,0-.984,1.82,2.675,2.675,0,0,1-2.322,1.765c-.873-.037-1.728-.149-2.582-.223a3.17,3.17,0,0,0-.929-.056,1.76,1.76,0,0,1-1.988-.8c-.743-.929-1.523-.762-1.988.334a1.564,1.564,0,0,1-2.433.353c-1.207-1.04-1.393-2.471-.613-4.2.557-1.226.985-2.526,1.6-3.715a9.462,9.462,0,0,1,1.542-2.006c.446-.446.985-.223,1.393.186a1.084,1.084,0,0,1,.3,1.412c-.687,1.3-1.356,2.619-1.969,3.957a3.558,3.558,0,0,0-.056,1.189c.39-.186.947-.279,1.152-.594.65-1.04,1.189-2.136,1.746-3.232.316-.632.557-1.3.892-1.913a1.408,1.408,0,0,1,1.69-.594,1.289,1.289,0,0,1,.892,1.542,2.136,2.136,0,0,1-.167.52c-.52,1.1-1.1,2.192-1.579,3.307a12.794,12.794,0,0,0-.632,2.025,3.336,3.336,0,0,0,.111.929A.615.615,0,0,1,546.914,1179.139Zm3.734-1.765c-.557.427-1.04.706-.947,1.356.019.093.409.242.576.186C550.964,1178.675,550.871,1178.136,550.648,1177.374Z" transform="translate(-438.858 -951.282)" fill="#fff"/>
    <path id="Path_3215" data-name="Path 3215" d="M713.774,1180.738a3.5,3.5,0,0,1-2.638-1.077c-.52-.576-1.133-.464-1.672.149a1.657,1.657,0,0,1-2.638.279c-.817-.669-1.913-1.226-1.932-2.452a8.6,8.6,0,0,1,2.972-6.464,6.052,6.052,0,0,1,2.359-1.133c.892-.241,2.192.91,2.248,1.895a2.565,2.565,0,0,1-.762,2.192c-.037.037-.111.074-.13.13-.316,1.319-1.635,1.579-2.471,2.341a1.55,1.55,0,0,1-.669.279,1.282,1.282,0,0,0-.687,2.006.634.634,0,0,0,1.04-.074,2.784,2.784,0,0,1,1.913-1,.878.878,0,0,0,.576-.26,7.862,7.862,0,0,1,3.046-2.285.715.715,0,0,0,.334-1.077,4.267,4.267,0,0,1,.947-4.718,1.9,1.9,0,0,1,2.916.167,2.524,2.524,0,0,1,.966,2.378,4.468,4.468,0,0,1-.613,1.077l-.836-.613c-.186-.13-.427-.353-.576-.3a.737.737,0,0,0-.39.539c0,1.04-.409,2.155.483,3.083.149.149.056.613-.056.873a14.186,14.186,0,0,1-.892,1.653,6.487,6.487,0,0,1-1.133,1.783C715.093,1180.516,714.368,1180.553,713.774,1180.738Zm-3.529-7.579a1.325,1.325,0,0,0-1.616.929c-.056.149-.019.446.056.483.167.074.483.111.576.019C709.576,1174.181,709.854,1173.735,710.244,1173.159Zm4.514,4.793c-.223-.2-.353-.316-.464-.427-.3.353-.613.687-.873,1.059-.037.037.26.316.39.483C714.108,1178.7,714.405,1178.342,714.758,1177.952Z" transform="translate(-573.639 -951.172)" fill="#fff"/>
    <path id="Path_3216" data-name="Path 3216" d="M1181.067,1182.094c.427-.334.984-.706,1.486-1.133a2.174,2.174,0,0,1,2.136-.427.908.908,0,0,1,.5,1.3c-.26.613-.613,1.207-.892,1.82-.446,1-.91,2.006-1.282,3.047-.093.26.223.632.334.966.111.39.353.836.26,1.152-.074.223-.632.409-.966.427-1.523.074-2.526-1.635-1.95-3.232a3.028,3.028,0,0,0,.241-1.059.715.715,0,0,0-.372-.539.751.751,0,0,0-.594.279c-.241.316-.39.687-.613,1.04-.576.892-1.133,1.8-1.728,2.675-.409.613-.836.632-1.375.111a2.106,2.106,0,0,1-.483-2.545,3.573,3.573,0,0,0,.279-1.059.628.628,0,0,0-.353-.539.713.713,0,0,0-.576.3c-.762,1.208-1.468,2.452-2.248,3.678-.409.65-.91.632-1.393.037a3.039,3.039,0,0,1-.26-2.917,17.088,17.088,0,0,1,1.133-2.991,19.2,19.2,0,0,1,1.523-2.508.817.817,0,0,1,1.449,0c.483.65.929,1.338.353,2.192-.093.13.019.409.037.613.2-.093.464-.13.613-.3.409-.464.743-.984,1.133-1.449a2.225,2.225,0,0,1,2.619-.427A7.6,7.6,0,0,1,1181.067,1182.094Z" transform="translate(-952.893 -959.865)" fill="#fff"/>
    <path id="Path_3217" data-name="Path 3217" d="M501.959,1149.184a10.012,10.012,0,0,1-2.081,5.22c-.594.743-1.393,1.319-2.006,2.043a1.844,1.844,0,0,1-2.025.483c-.279-.074-.446-.576-.669-.873-.167-.223-.3-.594-.5-.632-.5-.093-1.17.019-1.356-.594a3.718,3.718,0,0,1-.111-1.8,30.242,30.242,0,0,1,1.245-5,19.766,19.766,0,0,1,2.471-5.22c.632-.836,1.226-1.69,1.876-2.489a1.81,1.81,0,0,1,1.969-.2,1.206,1.206,0,0,1,.223,1.672,9.933,9.933,0,0,1-.892,1.133c-.669.91-1.337,1.8-1.969,2.731a9.08,9.08,0,0,0-.91,1.6c-.111.242.037.613.074.91a6.367,6.367,0,0,0,.78-.427,7.062,7.062,0,0,1,1.839-1.226c.817-.2,1.988,1.04,2.062,1.913C501.978,1148.683,501.959,1148.943,501.959,1149.184Zm-2.6.706c-.093-.186-.186-.483-.3-.5a.952.952,0,0,0-.632.242,10.129,10.129,0,0,0-1.263,1.672c-.539.947-.985,1.951-1.43,2.954-.056.149.093.372.149.576a2.037,2.037,0,0,0,.539-.2,10.484,10.484,0,0,0,2.508-3.641A9.6,9.6,0,0,0,499.358,1149.89Z" transform="translate(-401.323 -927.606)" fill="#fff"/>
    <path id="Path_3218" data-name="Path 3218" d="M431.079,1184.2c-.724.223-1.337.353-1.69,1.1a1.482,1.482,0,0,1-2.173.074,4.579,4.579,0,0,1-.594-4.31,2.666,2.666,0,0,0,.241-.594,4.778,4.778,0,0,0-.037-.892c-.279.149-.706.241-.8.464-.576,1.412-1.486,2.712-1.449,4.31,0,.632-.2,1-.873,1.04-.762.037-1.337-.26-1.393-.892a5.641,5.641,0,0,1,.26-3.084c.372-.8.52-1.728.91-2.508a4.736,4.736,0,0,1,1.282-1.5.885.885,0,0,1,1.356.3c.074.093.13.223.2.316.817,1.17,1.022,1.077,1.82-.13a6.292,6.292,0,0,1,2.8-2.582.936.936,0,0,1,.706-.037c.966.52,1.932,1.04,2.879,1.635a1.011,1.011,0,0,1,.39,1.43,11.922,11.922,0,0,0-1.356,6.2c.093,1.04-.316,1.375-1.337,1.17a1.953,1.953,0,0,1-.854-.724C431.19,1184.812,431.172,1184.5,431.079,1184.2Zm-2.526-1.022.446.669a5.917,5.917,0,0,0,.613-.557,6.644,6.644,0,0,0,.464-.78c.836-1.43,1.672-2.861,2.471-4.31.074-.149,0-.39-.019-.576-.2.019-.464-.019-.594.093-.483.427-.947.892-1.393,1.356A10.708,10.708,0,0,0,428.552,1183.177Z" transform="translate(-343.604 -956.342)" fill="#fff"/>
    <path id="Path_3219" data-name="Path 3219" d="M220.242,1182.317c.78-1.319,1.616-2.6,2.341-3.938a5.152,5.152,0,0,0,.2-1.449,3.868,3.868,0,0,1,.334-1.226,1.243,1.243,0,0,1,1.56-.5,1.022,1.022,0,0,1,.632,1.375,26.928,26.928,0,0,1-1.653,3.66,15.074,15.074,0,0,1-1.876,2.489,31.144,31.144,0,0,1-2.731,2.694,1.288,1.288,0,0,1-2.006-.929c-.037-.557.074-1.115.074-1.672a2.831,2.831,0,0,0-.223-.743c-.26.13-.613.2-.743.409-.483.78-.929,1.6-1.337,2.415a1.029,1.029,0,0,1-1.226.724c-.632-.13-1.133-.5-1.04-1.207.149-1.337.39-2.675.594-4.012.056-.39.167-.78.186-1.17a4.378,4.378,0,0,1,1.858-3.269,1.161,1.161,0,0,1,.854-.279,1.713,1.713,0,0,1,1.077.539c.149.223-.056.724-.186,1.077-.279.854-.632,1.709-.892,2.563-.056.186.2.446.316.669.223-.149.464-.3.687-.446.019-.019.019-.074.037-.093a11.692,11.692,0,0,0,1.746-2.879,1.976,1.976,0,0,1,.632-.669.861.861,0,0,1,1.449.613,3.623,3.623,0,0,1-.167,1.616,4.948,4.948,0,0,0-.539,2.582,2.492,2.492,0,0,1-.167.947A2.029,2.029,0,0,0,220.242,1182.317Z" transform="translate(-172.965 -956.262)" fill="#fff"/>
    <path id="Path_3220" data-name="Path 3220" d="M81.4,1183.939c.167-.836.316-1.69.52-2.526a18.95,18.95,0,0,1,.817-3.214,6.423,6.423,0,0,1,1.468-1.951,1.358,1.358,0,0,1,1.839.2,1.185,1.185,0,0,1,0,.91c-.3.929-.687,1.82-.966,2.749-.074.2.111.5.186.743.26-.093.613-.13.78-.316a8.473,8.473,0,0,0,1.579-2.861,2.914,2.914,0,0,1,.167-.427,1.693,1.693,0,0,1,1.653-.78,1.162,1.162,0,0,1,.576,1.43c-.13.78-.52,1.5-.706,2.285a8.516,8.516,0,0,0-.167,1.82c0,.167.2.334.316.5.167-.111.39-.2.464-.353a21.008,21.008,0,0,0,2.3-5.907.82.82,0,0,1,1.022-.706c.52.056,1.133.762.947,1.3-.353,1.022-.334,2.173-1.133,3.065-.613.706-1.022,1.6-1.616,2.322-.929,1.133-1.932,2.211-2.935,3.288a1.427,1.427,0,0,1-1.69.39,1.905,1.905,0,0,1-.687-1.988c.13-.539.539-1.17-.186-1.449-.78-.3-.78.576-1.04,1a8.7,8.7,0,0,0-.687,1.3,1.81,1.81,0,0,1-1.8,1.152c-.65-.111-.91-.539-.91-1.579v-.371A.264.264,0,0,0,81.4,1183.939Z" transform="translate(-66.279 -956.602)" fill="#fff"/>
    <path id="Path_3221" data-name="Path 3221" d="M145.7,1184.023c.111-.613.186-1.226.334-1.82.316-1.337.669-2.675.985-4.012a3.484,3.484,0,0,1,1.672-2.025,1.32,1.32,0,0,1,1.616.316c.409.372.056.743-.111,1.152a21.556,21.556,0,0,0-.854,2.619c-.056.186.149.427.223.632.26-.111.613-.149.78-.353a8.846,8.846,0,0,0,1.56-2.879,1.259,1.259,0,0,1,.241-.5c.427-.464.947-.91,1.616-.632a1.207,1.207,0,0,1,.557,1.523c-.186.8-.576,1.56-.78,2.359a7.652,7.652,0,0,0-.111,1.728c0,.13.2.409.3.39a.7.7,0,0,0,.483-.3,21.888,21.888,0,0,0,2.285-5.926,1.017,1.017,0,0,1,.632-.687,1.107,1.107,0,0,1,.966.279,1.616,1.616,0,0,1,.316,1.189,9.957,9.957,0,0,1-2.341,4.774c-1.04,1.152-2.062,2.341-3.121,3.511a2.059,2.059,0,0,1-.817.576c-1.059.372-2.025-.706-1.728-1.969.13-.576.539-1.245-.241-1.5-.687-.242-.724.576-.966,1-.26.483-.5.984-.743,1.468a1.781,1.781,0,0,1-1.542,1.022.99.99,0,0,1-1.1-.91,6.258,6.258,0,0,1-.019-1.022C145.774,1184.041,145.737,1184.023,145.7,1184.023Z" transform="translate(-118.635 -956.648)" fill="#fff"/>
    <path id="Path_3222" data-name="Path 3222" d="M384.226,1146.919a13.86,13.86,0,0,1-2.211,7.263,11.067,11.067,0,0,1-3.065,2.656.963.963,0,0,1-.613.111,3.441,3.441,0,0,1-2.694-2.861,7.827,7.827,0,0,1,2.025-5.5,11.373,11.373,0,0,1,2.136-1.858,1.213,1.213,0,0,1,.985-.093c.576.223.669-.056.669-.483a2.136,2.136,0,0,0-.149-.91,27.243,27.243,0,0,0-1.486-2.712,1.812,1.812,0,0,1-.167-2.062,2,2,0,0,1,1.969-.409.743.743,0,0,1,.353.279,9.736,9.736,0,0,1,1.765,4.18A18.579,18.579,0,0,0,384.226,1146.919Zm-6.446,7.356c.223.334.353.836.65.966.464.2.762-.186.966-.613.13-.26.427-.446.576-.706a10.482,10.482,0,0,0,.669-1.282c.13-.279.241-.576.353-.854a20.819,20.819,0,0,0,.8-2.025c.074-.242-.111-.557-.186-.836-.279.074-.632.074-.8.241a10.39,10.39,0,0,0-1.356,1.635,19.174,19.174,0,0,0-1.022,1.932A14.3,14.3,0,0,0,377.78,1154.275Z" transform="translate(-305.691 -927.644)" fill="#fff"/>
    <path id="Path_3223" data-name="Path 3223" d="M653.366,1186.27a3.622,3.622,0,0,0-.019-.91c-.074-.26-.241-.669-.409-.706a.961.961,0,0,0-.743.39c-.78.966-1.5,1.969-2.248,2.935a1.653,1.653,0,0,1-1.8.539,1.009,1.009,0,0,1-.5-.669,4,4,0,0,1,.037-1.56q.585-2.09,1.338-4.124a17.71,17.71,0,0,1,1.022-2.062,3.2,3.2,0,0,1,.576-.836c.929-1,1.523-.873,2.173.353a1.477,1.477,0,0,1,0,1.783c-.093.111-.019.39-.019.576.223-.037.5,0,.65-.111a22.354,22.354,0,0,0,1.672-1.579,2.118,2.118,0,0,1,2.211-.557c.8.167,1,.706.613,1.468-.539,1.077-1.115,2.118-1.56,3.214a2.729,2.729,0,0,0,.167,2.805c.446.65.111,1.189-.669,1.282C654.184,1188.7,653.181,1187.979,653.366,1186.27Z" transform="translate(-527.008 -959.1)" fill="#fff"/>
    <path id="Path_3224" data-name="Path 3224" d="M326.03,1186.062a3.133,3.133,0,0,0-.019-.836c-.074-.26-.242-.65-.446-.706a.932.932,0,0,0-.78.353c-.762.966-1.5,1.95-2.192,2.954a1.483,1.483,0,0,1-1.8.557,1.232,1.232,0,0,1-.594-.984,14.1,14.1,0,0,1,.632-3.047,38.834,38.834,0,0,1,1.653-4.068,4.859,4.859,0,0,1,1.152-1.523c.557-.52,1.059-.409,1.449.242.427.724,1,1.468.242,2.341-.093.093.019.371.056.557.223-.056.5-.037.65-.167a16.779,16.779,0,0,0,1.653-1.6,2.114,2.114,0,0,1,2.3-.5.887.887,0,0,1,.557,1.393c-.372.706-.78,1.393-1.17,2.1-.743,1.319-1.115,2.656-.186,4.068a.724.724,0,0,1-.464,1.152c-1.449.26-2.861-.111-2.712-1.988a1.506,1.506,0,0,1,.019-.3Z" transform="translate(-260.577 -958.967)" fill="#fff"/>
    <path id="Path_3225" data-name="Path 3225" d="M823.32,1178.243c-.149.39-.39,1.133-.706,1.82a4.849,4.849,0,0,0-.557,2.489c.056.65,0,1.3.019,1.951,0,.483,0,1-.557,1.133a1.382,1.382,0,0,1-1.542-.334c-.167-.223-.316-.446-.5-.669-.594-.743-1.1-.706-1.542.111-.279.483-.5.947-1.207.966a1.5,1.5,0,0,1-1.43-.892c-1.115-1.635-.483-3.139.056-4.737a11.115,11.115,0,0,1,2.693-4.142c.817-.873,2.1-1.245,2.972-.074a1.421,1.421,0,0,0,.929.483C823.06,1176.515,823.338,1176.775,823.32,1178.243Zm-2.545-.223c-.093-.074-.167-.167-.26-.241-.279.149-.65.223-.817.446-.724.985-1.393,2.006-2.062,3.028a2.493,2.493,0,0,0-.427,1.115c0,.3.3.594.446.91.242-.149.557-.26.687-.464.594-.929,1.17-1.858,1.672-2.842A16.915,16.915,0,0,0,820.775,1178.02Z" transform="translate(-662.99 -956.274)" fill="#fff"/>
    <path id="Path_3226" data-name="Path 3226" d="M1127.138,1182.112c-.13-2.118,1-3.474,2.043-4.83a7.183,7.183,0,0,1,1.913-1.56,2.018,2.018,0,0,1,2.786.483c.13.167.26.334.409.5,1.133,1.152,1.152,1.969.724,3.585a6.8,6.8,0,0,1-1.6,2.9c-.576.613-1.059,1.523-2.155,1.56-.334.019-.632.39-.984.483-.39.093-.966.241-1.189.037C1128.03,1184.4,1126.711,1183.616,1127.138,1182.112Zm6.149-3.269a.537.537,0,0,0,0-.186c-.111-.316-.241-.632-.353-.947a3.584,3.584,0,0,0-.929.446,7.846,7.846,0,0,0-2.341,3.864c-.186.613-.056.966.483,1.189a1.489,1.489,0,0,0,1.913-.91,1.224,1.224,0,0,1,.223-.5A4.235,4.235,0,0,0,1133.287,1178.842Z" transform="translate(-917.133 -956.465)" fill="#fff"/>
    <path id="Path_3227" data-name="Path 3227" d="M776.3,1180.573h-.65a1.475,1.475,0,0,1-1.69-1.69,2.312,2.312,0,0,1,1.207-2.211c.316-.149.539-.5.836-.724a1.989,1.989,0,0,1,.836-.464c.687-.037.854-.409.78-.966a7.226,7.226,0,0,0-.241-1.263c-.539-1.709.464-3.957,2.173-4.328.557-.13,1.356.52,1.95.947a3.9,3.9,0,0,1,.929,1.245.984.984,0,0,1,.037.762,1.7,1.7,0,0,1-2.025.966c-.65-.186-.91-.019-.947.687a2.835,2.835,0,0,0,.409,2.211,1.011,1.011,0,0,1,.111.78,9.527,9.527,0,0,1-.65,2.062,4.339,4.339,0,0,1-1.207,1.6,6.15,6.15,0,0,1-1.82.576A.548.548,0,0,1,776.3,1180.573Zm1.449-2.545c-.186-.316-.242-.557-.353-.594a.684.684,0,0,0-.576.093,5.27,5.27,0,0,0-.8,1c-.223.353,0,.724.334.576A7.571,7.571,0,0,0,777.754,1178.028Z" transform="translate(-629.851 -951.211)" fill="#fff"/>
    <path id="Path_3228" data-name="Path 3228" d="M1090.909,1181.626c-.074.279-.13.669-.26,1.059-.167.5-2.638,1.635-3.121,1.393-1.913-.929-3.641-3.455-2.6-5.721a9.228,9.228,0,0,1,2.081-3.084,6.382,6.382,0,0,1,3.121-1.468c1.207-.279,1.783.817,2.415,1.579a1.411,1.411,0,0,1-.2,1.858,3.019,3.019,0,0,0-.39.817.909.909,0,0,1-1.245.594c-.613-.279-.687-.65-.372-1.356a2.877,2.877,0,0,0,.074-.91c-.372.056-.91-.037-1.1.186-1.133,1.319-2.1,2.749-1.839,4.644.056.446.279.706.724.669C1089.07,1181.83,1089.98,1181.719,1090.909,1181.626Z" transform="translate(-882.575 -955.162)" fill="#fff"/>
    <path id="Path_3229" data-name="Path 3229" d="M298,1192.505a15.076,15.076,0,0,1,1.542-5.127,1.641,1.641,0,0,1,2.285-.706,1.7,1.7,0,0,1,.186,2.4,6.409,6.409,0,0,0-.836,1.8c-.39,1.059-.706,2.155-1.133,3.2a1.264,1.264,0,0,1-.855.687c-.2.037-.594-.39-.724-.669A11.806,11.806,0,0,1,298,1192.505Z" transform="translate(-242.517 -965.484)" fill="#fff"/>
    <path id="Path_3230" data-name="Path 3230" d="M625,1192.434c.483-1.523,1-3.139,1.523-4.774a1.481,1.481,0,0,1,.372-.539,1.56,1.56,0,0,1,2.062-.39,1.679,1.679,0,0,1,.223,2.173,15.792,15.792,0,0,0-1.82,4.588,2.651,2.651,0,0,1-.539,1.04.683.683,0,0,1-1.207-.167A20.188,20.188,0,0,1,625,1192.434Z" transform="translate(-508.634 -965.524)" fill="#fff"/>
    <path id="Path_3231" data-name="Path 3231" d="M442.241,1159.4a1.331,1.331,0,0,1,1.43.892,1.5,1.5,0,0,1-.372,1.839,5.927,5.927,0,0,0-.817.854c-.557.632-1.115.557-1.5-.186a4.372,4.372,0,0,1,.3-3.009A3.5,3.5,0,0,1,442.241,1159.4Z" transform="translate(-358.76 -943.469)" fill="#fff"/>
    <path id="Path_3232" data-name="Path 3232" d="M646.671,1158.9a2.442,2.442,0,0,1,1.783,1.579c.2.687-.223,1-.706,1.337-.242.167-.372.483-.613.687-.241.186-.557.464-.8.427-.279-.056-.669-.39-.687-.632a10.745,10.745,0,0,1,.093-2.564C645.817,1159.42,646.356,1159.179,646.671,1158.9Z" transform="translate(-525.413 -943.061)" fill="#fff"/>
    <path id="Path_3233" data-name="Path 3233" d="M317.874,1162.349c.056-.594.074-1.1.13-1.579a.972.972,0,0,1,1.189-.984,1.9,1.9,0,0,1,1.523,1.3,1.156,1.156,0,0,1-.539,1.43c-.26.167-.409.464-.65.65-.26.2-.65.539-.836.464-.316-.13-.539-.52-.743-.836A.7.7,0,0,1,317.874,1162.349Z" transform="translate(-258.686 -943.78)" fill="#fff"/>
    <path id="Path_3234" data-name="Path 3234" d="M273.537,1216.643a.869.869,0,0,1-1.04-.947,7.649,7.649,0,0,1,.557-2.173.584.584,0,0,1,.929-.223,5.211,5.211,0,0,0,1.022.594c.5.167.52.539.5.947A2.406,2.406,0,0,1,273.537,1216.643Z" transform="translate(-221.762 -987.244)" fill="#fff"/>
    <path id="Path_3235" data-name="Path 3235" d="M1061.82,1217.475c-1.115,0-1.672-.594-1.523-1.43a3.932,3.932,0,0,1,.464-1.282.982.982,0,0,1,1.486-.39c.241.13.483.279.724.409.669.39.724.836.223,1.375-.241.26-.446.576-.706.836A3.7,3.7,0,0,1,1061.82,1217.475Z" transform="translate(-862.867 -988.076)" fill="#fff"/>
    <path id="Path_3236" data-name="Path 3236" d="M250,250H0V0H250ZM1.862,248.138H248.138V1.862H1.862Z" fill="#fff"/>
  </g>
  <rect id="Rectangle_1116" data-name="Rectangle 1116" width="250" height="98" transform="translate(0 250)" fill="#fff"/>
  <text id="by" transform="translate(125 271.5)" font-size="16" font-family="Poppins-Regular, Poppins"><tspan x="-9.912" y="0">by</tspan></text>
  <g id="logo" transform="translate(20.483 277.539)">
    <path id="Path_3237" data-name="Path 3237" d="M568,220.772c-.343-1.007-.275-1.121.732-.938a1.368,1.368,0,0,0,1.51-.526c.16-.229.252-.618-.275-.595a3.052,3.052,0,0,0-.458,0,1.73,1.73,0,0,1-1.854-1.03,2.167,2.167,0,0,1,.206-2.357,2.025,2.025,0,0,1,2.174-.847c.069.023.137.092.206.092.435.046,1.121-.046,1.236.183a3.688,3.688,0,0,1,.16,1.533c.023.641,0,1.282,0,1.945a2.935,2.935,0,0,1-1.144,2.563C569.689,220.772,568.843,220.772,568,220.772Zm2.54-4.051c0-1.144-.069-1.236-.8-1.213a1.007,1.007,0,0,0-1.076,1.144c.023.732.412,1.076,1.167,1.076C570.582,217.682,570.582,217.156,570.536,216.721Z" transform="translate(-437.422 -165.375)" fill="#bf353e"/>
    <path id="Path_3238" data-name="Path 3238" d="M42.4,14.73A20.558,20.558,0,0,0,28.577,4.2,18.148,18.148,0,0,0,16.539,5.645,20.13,20.13,0,0,0,5.395,19.925,21.888,21.888,0,0,0,7.706,35.372c3,5.79,7.872,9.017,14.211,10.184a12.779,12.779,0,0,0,1.35.206,10.72,10.72,0,0,0,1.213,0c.023.069.023.16.046.229-.114.069-.206.183-.32.183a23.613,23.613,0,0,1-11.877-2.288,22.1,22.1,0,0,1-8.422-7.941A21.872,21.872,0,0,1,.474,27.409a24.866,24.866,0,0,1-.092-7.14,24.616,24.616,0,0,1,4.6-11.763A20.2,20.2,0,0,1,17.386.473,20.983,20.983,0,0,1,31.712,2.35,21.982,21.982,0,0,1,41.9,12.831a16.494,16.494,0,0,1,.5,1.9Z" transform="translate(0 0)" fill="#bf353e"/>
    <path id="Path_3239" data-name="Path 3239" d="M564.637,95.716c.458-1.579.915-3.158,1.35-4.737q.961-3.536,1.854-7.071c.16-.618.412-.893,1.076-.847.641.046,1.3,0,1.945.023.87.023.893.023.664.847q-1.648,6.076-3.341,12.152c-.549,1.991-1.19,3.959-1.648,5.973-.183.8-.549.961-1.259.915a11.045,11.045,0,0,0-1.945,0c-.778.092-1.053-.3-1.213-.961q-1.373-5.87-2.792-11.717a2.569,2.569,0,0,0-.3-.458c-.389,1.488-.732,2.815-1.053,4.165-.641,2.655-1.282,5.332-1.877,8.01-.16.732-.5,1.1-1.327.984a8.856,8.856,0,0,0-2.06,0c-.686.046-.961-.206-1.167-.893-.938-3.387-1.945-6.774-2.952-10.161-.824-2.769-1.648-5.538-2.449-8.307a3.074,3.074,0,0,1-.046-.549h4.142c.5,0,.549.389.641.778.893,3.25,1.808,6.5,2.723,9.749a13.014,13.014,0,0,0,.687,2.083c.229-.847.5-1.693.709-2.54.709-2.952,1.4-5.9,2.083-8.879.275-1.213.275-1.213,1.579-1.213a10.747,10.747,0,0,0,1.716-.023c.8-.114,1.076.32,1.213.938.709,2.883,1.4,5.767,2.082,8.65.252,1.03.5,2.037.755,3.044C564.522,95.694,564.568,95.694,564.637,95.716Z" transform="translate(-420.995 -64.051)" fill="#bf353e"/>
    <path id="Path_3240" data-name="Path 3240" d="M473.931,76.873a7.109,7.109,0,0,1-3.341,3.021c-3.067,1.076-6.316-.206-7.849-3.684a17.914,17.914,0,0,1-1.213-4.783,15.068,15.068,0,0,1,.755-6.774,8.64,8.64,0,0,1,2.655-4.119c2.174-1.762,6.408-1.854,8.193.847a7.206,7.206,0,0,0,.572.664V57.352c0-1.144.023-2.288,0-3.433-.023-.549.069-.847.732-.824.961.046,1.9.046,2.861,0,.641-.023.755.252.755.8-.023,1.076,0,2.128,0,3.2V78.612c0,1.442.114,1.236-1.3,1.259-.687,0-1.373-.023-2.06,0-.526.023-.755-.16-.732-.709C473.954,78.406,473.931,77.628,473.931,76.873Zm-.137-7.094a31.19,31.19,0,0,0-.366-3.616,3.478,3.478,0,0,0-5.1-2.517,4.154,4.154,0,0,0-1.762,2.4,15.61,15.61,0,0,0-.389,6.087,7.875,7.875,0,0,0,.847,2.632,3.122,3.122,0,0,0,3.318,1.625,4.119,4.119,0,0,0,3.089-3.135A24.876,24.876,0,0,0,473.794,69.779Z" transform="translate(-355.692 -40.974)" fill="#bf353e"/>
    <path id="Path_3241" data-name="Path 3241" d="M212.663,62.141c.16-.229.343-.481.5-.732,2.105-3.364,6.843-2.952,9.062-.366a11.242,11.242,0,0,1,2.449,5.973,16.38,16.38,0,0,1-.526,7.071,9.26,9.26,0,0,1-3.089,4.76c-1.991,1.556-6.705,1.808-8.742-1.053-.275-.389-.618-.732-.984-1.167-.3.824-.572,1.556-.847,2.288-.275.755-.687.915-1.716.755-.709-.114-.549-.618-.549-1.053,0-8.239-.023-16.454-.023-24.693,0-.961.046-.984.938-1.007.87-.023,1.762.046,2.632-.023.618-.023.755.229.755.8-.023,2.769,0,5.561,0,8.33A.138.138,0,0,0,212.663,62.141Zm-.275,7.3c.137,1.442.206,2.54.366,3.639a3.532,3.532,0,0,0,2.311,2.975c2.105.824,4.211-.435,4.783-2.815a14.46,14.46,0,0,0,.206-6.637,4.449,4.449,0,0,0-1.739-3.089,3.482,3.482,0,0,0-5.286,2.014A20.706,20.706,0,0,0,212.388,69.441Z" transform="translate(-160.423 -40.819)" fill="#bf353e"/>
    <path id="Path_3242" data-name="Path 3242" d="M807.993,69.987c-1.327,1.579-2.586,3.044-3.8,4.531a1.526,1.526,0,0,0-.16.87q-.034,1.888,0,3.776c.023.641-.229.893-.87.87a23.1,23.1,0,0,0-2.517,0c-.641.046-.778-.275-.755-.824.023-.458.023-.915.023-1.373V54.517c0-1.4-.046-1.236,1.236-1.236h1.716c1.144,0,1.167.023,1.167,1.144V69.484c1.007-1.144,1.877-2.083,2.723-3.044,1.3-1.488,2.586-3,3.867-4.485.023-.023.069-.046.069-.092.892-1.671,2.357-1.922,4.051-1.716a18.853,18.853,0,0,0,2.014.023c-.572.709-.984,1.282-1.442,1.808-1.19,1.373-2.38,2.769-3.616,4.1a1.222,1.222,0,0,0-.206,1.579c1.854,3.822,3.662,7.689,5.469,11.534a7.649,7.649,0,0,1,.343.87c-1.465,0-2.838.046-4.188-.023-.252-.023-.595-.412-.732-.709-1.35-2.815-2.678-5.653-4-8.49A4.2,4.2,0,0,0,807.993,69.987Z" transform="translate(-616.706 -41.114)" fill="#bf353e"/>
    <path id="Path_3243" data-name="Path 3243" d="M48.467,35.292c-.092-.732.481-1.144.87-1.579a16.3,16.3,0,0,1,9.932-5.721,16.583,16.583,0,0,1,8.17.847c5.767,2.128,9.268,6.293,10.893,12.152A18.288,18.288,0,0,1,79,47.284c-.343,4.646-1.693,8.925-4.966,12.358a15.409,15.409,0,0,1-8.9,4.646,17.547,17.547,0,0,1-12.518-2.4,1.4,1.4,0,0,1-.366-.275.7.7,0,0,1-.114-.16c1.327.435,2.655.961,4.028,1.282a15.04,15.04,0,0,0,13.09-2.746,14.124,14.124,0,0,0,5.538-8.17c1.236-5.378.687-10.435-2.609-15.012a13.507,13.507,0,0,0-9.291-5.881,30.641,30.641,0,0,0-5.79.114,15.983,15.983,0,0,0-2.334.366,12.819,12.819,0,0,0-4.92,2.7,13.847,13.847,0,0,0-1.373,1.19Z" transform="translate(-37.237 -21.477)" fill="#bf353e"/>
    <path id="Path_3244" data-name="Path 3244" d="M381.273,86.052c.6-.87,1.03-1.533,1.488-2.174,2.311-3.318,7.46-2.449,9.154.664a10.279,10.279,0,0,1,.984,4.714c.092,3.845.046,7.689.023,11.557,0,1.19,0,1.19-1.236,1.19H389.4c-.938-.023-.984-.046-.984-.961-.023-1.9,0-3.822,0-5.721,0-2.174.023-4.348-.046-6.522a2.974,2.974,0,0,0-1.442-2.632c-1.4-.915-3.387-.023-4.279,1.4a5.9,5.9,0,0,0-.938,3.089c0,3.364-.023,6.705-.023,10.069,0,1.282,0,1.282-1.259,1.282-.847,0-1.671-.023-2.517,0a.623.623,0,0,1-.709-.687v-.343c.023-5.858.046-11.74.069-17.6,0-1.259.046-1.259,1.236-1.259h1.716c1.007,0,1.007,0,1.03.984C381.273,83.992,381.273,84.885,381.273,86.052Z" transform="translate(-290.748 -63.083)" fill="#bf353e"/>
    <path id="Path_3245" data-name="Path 3245" d="M714.5,85.944c.893-1.03,1.671-2.06,2.563-2.952,1.579-1.579,5.241-1.19,6.911.343a5.9,5.9,0,0,1,1.945,4.44c.092,4.485.046,8.994.069,13.479,0,.709-.206.938-.915.893-.755-.046-1.533,0-2.289-.023-1.144,0-1.167-.023-1.167-1.144,0-3.89,0-7.781-.023-11.648a5.153,5.153,0,0,0-.252-1.556,2.725,2.725,0,0,0-4.348-1.282,4.8,4.8,0,0,0-2.06,3.753q-.137,2.678-.206,5.355c-.023,1.831,0,3.662-.023,5.492,0,1.007-.023,1.007-.984,1.03h-2.174c-.984,0-.984-.023-1.007-1.007q-.034-7.724-.023-15.424c0-.87,0-1.762-.023-2.632-.023-.572.16-.847.778-.8.755.046,1.533.023,2.289,0,.641-.023.893.229.87.87C714.476,84.067,714.5,85.028,714.5,85.944Z" transform="translate(-547.767 -63.249)" fill="#bf353e"/>
    <path id="Path_3246" data-name="Path 3246" d="M63.749,51.917c-1.1-.046-2.174-.16-3.273-.137-5.172.092-10.39,4.028-11.191,9.612a11.137,11.137,0,0,0,4.577,11.168,8.746,8.746,0,0,0,3.57,1.3,11.519,11.519,0,0,0,7.026-.435A12.8,12.8,0,0,0,69.2,70.408a.862.862,0,0,1,.343-.206A8.043,8.043,0,0,1,67.5,73.131,14.155,14.155,0,0,1,60.591,77a10.185,10.185,0,0,1-4.623-.183c-5.4-1.35-8.6-4.966-10-10.207a10.949,10.949,0,0,1-.092-3.868,14.235,14.235,0,0,1,1.6-5.607,13.5,13.5,0,0,1,8.628-6.682A9.808,9.808,0,0,1,63.749,51.917Z" transform="translate(-35.149 -38.743)" fill="#bf353e"/>
    <path id="Path_3247" data-name="Path 3247" d="M301.342,66.7v12.22c0,1.007,0,1.007-.984,1.03-.915,0-1.831-.023-2.746,0-.435,0-.641-.137-.618-.6.023-.229,0-.458,0-.687v-24.9c0-.343.092-.572.5-.572,1.1.023,2.22-.023,3.318.023.183,0,.435.275.481.458a3.03,3.03,0,0,1,.023.915C301.342,58.647,301.342,62.674,301.342,66.7Z" transform="translate(-228.895 -41.056)" fill="#bf353e"/>
    <path id="Path_3248" data-name="Path 3248" d="M341.407,93.233v8.788c0,1.007,0,1.007-1.076,1.03h-2.06c-1.19,0-1.19,0-1.19-1.144V84.674c0-1.716-.183-1.465,1.556-1.487a16.29,16.29,0,0,0,1.831-.023c.732-.069.984.183.961.938-.046,2.586-.023,5.172-.023,7.758Z" transform="translate(-259.806 -64.154)" fill="#bf353e"/>
    <path id="Path_3249" data-name="Path 3249" d="M674.385,93.173v8.811c0,1.167,0,1.167-1.213,1.167-.8,0-1.6-.023-2.4,0-.549.023-.778-.206-.709-.732a4.771,4.771,0,0,0,0-.572V84.476c0-1.327-.114-1.19,1.259-1.19h2.06c1.007,0,1.007.023,1.007.984C674.385,87.223,674.385,90.2,674.385,93.173Z" transform="translate(-516.578 -64.254)" fill="#bf353e"/>
    <path id="Path_3250" data-name="Path 3250" d="M885.7,55.334a3.941,3.941,0,0,1-3.845,4.188,4.059,4.059,0,0,1-3.959-4.257,3.913,3.913,0,1,1,7.8.069Zm-3.112.252a13.8,13.8,0,0,0,1.053,1.533c.275.32.6.481.915-.092a3.7,3.7,0,0,0-.572-4.279,2.8,2.8,0,0,0-3.936-.046,13.227,13.227,0,0,1,2.151.023,2.033,2.033,0,0,1,1.144.755C883.849,54.167,883.6,54.762,882.591,55.585Zm-3.044-2.723c-1.03,1.419-1.259,2.678-.549,4.028.114.206.366.32.572.481.137-.229.389-.435.412-.664a27.018,27.018,0,0,0,0-2.723A4.438,4.438,0,0,0,879.547,52.862Zm1.625,2.861a9.776,9.776,0,0,0,.206,1.465,1.372,1.372,0,0,0,.366.526,3.67,3.67,0,0,1-.709.229,7.026,7.026,0,0,1-.984,0,2.475,2.475,0,0,0,3.456.092C882.27,57.874,882.156,56.569,881.172,55.723Zm-.206-1.625c.275.389.412.6.572.824a3.372,3.372,0,0,0,.686-.87c.046-.137-.366-.435-.549-.664C881.469,53.617,881.241,53.823,880.966,54.1Z" transform="translate(-676.863 -39.436)" fill="#bf353e"/>
    <path id="Path_3251" data-name="Path 3251" d="M633.27,210.476c.549-.984,1.053-1.831,1.488-2.678a.88.88,0,0,1,.984-.526c.366.023.572.092.572.5v4.92c0,.412-.183.5-.549.5s-.572-.092-.572-.5a19.426,19.426,0,0,0-.16-3.227c-.32.526-.664,1.053-.984,1.579-.5.755-1.03.778-1.556.023-.183-.275-.343-.6-.5-.893a2.039,2.039,0,0,0-.687-.732v3.089c0,.366,0,.687-.526.664-.343-.023-.595-.092-.595-.5,0-1.648-.023-3.273.023-4.92,0-.16.3-.481.435-.481.366.046.893.114,1.076.366C632.263,208.485,632.7,209.423,633.27,210.476Z" transform="translate(-485.83 -159.862)" fill="#bf353e"/>
    <path id="Path_3252" data-name="Path 3252" d="M341.559,55.735c-.069.732.114,1.716-.275,2.151-.32.366-1.35.16-2.06.16-2.037,0-2.06,0-2.037-1.991,0-.893.092-1.785.16-2.678.87-.023,1.739-.092,2.586-.092,1.579-.023,1.579,0,1.579,1.556v.915C341.513,55.735,341.536,55.735,341.559,55.735Z" transform="translate(-259.889 -41.119)" fill="#bf353e"/>
    <path id="Path_3253" data-name="Path 3253" d="M674.463,55.521c-.046.755.183,1.762-.229,2.174-.389.389-1.419.206-2.151.206-1.991.023-1.991,0-1.991-1.945,0-.732.023-1.442,0-2.174-.023-.458.114-.687.641-.687q1.545.034,3.089,0c.526-.023.641.229.618.687-.023.572,0,1.144,0,1.716C674.44,55.521,674.44,55.521,674.463,55.521Z" transform="translate(-516.61 -40.974)" fill="#bf353e"/>
    <path id="Path_3254" data-name="Path 3254" d="M422.992,209.987a20.592,20.592,0,0,0-.023-2.06c-.069-.732.252-.938.915-.87.481.046.984,0,1.487.023,1.373.046,1.9.709,1.693,2.083a1.262,1.262,0,0,0,.046.778,1.746,1.746,0,0,1-.961,2.906,1.617,1.617,0,0,1-.549.137c-2.632.32-2.632.32-2.632-2.334A6.212,6.212,0,0,0,422.992,209.987Zm2.083.481c-.343.114-.938-.275-.984.526-.046.824.023.915.961.893.572,0,1.281-.046,1.3-.709C426.4,210.376,425.647,210.514,425.075,210.468Zm-.915-.984a6.65,6.65,0,0,0,1.259-.183c.229-.092.343-.435.5-.664-.206-.137-.389-.366-.595-.412C424.228,208,424.091,208.157,424.159,209.484Z" transform="translate(-326.036 -159.694)" fill="#bf353e"/>
    <path id="Path_3255" data-name="Path 3255" d="M826.323,216.424v-.572c.023-1.282.046-1.213,1.327-1.419a3.217,3.217,0,0,1,1.968.114c.275.114.709-.114,1.053-.206a1.454,1.454,0,0,1,1.991,1.121,13.412,13.412,0,0,1,.16,2.723c0,.137-.32.343-.526.389-.366.069-.709,0-.732-.481-.023-.641.023-1.3-.023-1.945-.069-.732-.595-.984-1.19-.526a.8.8,0,0,0-.229.549c-.023.618-.023,1.213-.023,1.831,0,.343-.069.572-.5.572-.412,0-.664-.092-.641-.572.023-.412,0-.847,0-1.259,0-.984-.229-1.442-.755-1.35-.87.137-.709.824-.709,1.419v.8c-.023.435.137.961-.618.961-.664-.023-.549-.5-.572-.893C826.323,217.271,826.323,216.836,826.323,216.424Z" transform="translate(-637.072 -165.261)" fill="#bf353e"/>
    <path id="Path_3256" data-name="Path 3256" d="M215.409,212.99a1.4,1.4,0,0,1-1.968-.687,5.351,5.351,0,0,0-.755-1.121,1.2,1.2,0,0,0-.778-.275c-.092,0-.206.412-.275.641-.046.137.023.32-.023.458-.114.389.343,1.144-.526,1.1-.8-.046-.412-.755-.435-1.167-.069-.824,0-1.671-.023-2.517-.023-2.22-.023-2.22,2.2-2.22.893,0,1.648.16,2.014,1.1a1.714,1.714,0,0,1-.687,2.174c-.389.275-.114.549,0,.755C214.562,211.8,215,212.372,215.409,212.99Zm-2.723-3.272c.481.092,1.076-.046,1.1-.687,0-.664-.618-.732-1.19-.709-.481.023-.984-.137-.984.687C211.61,209.809,212.067,209.74,212.685,209.717Z" transform="translate(-162.254 -159.813)" fill="#bf353e"/>
    <path id="Path_3257" data-name="Path 3257" d="M512.565,207.5a12.092,12.092,0,0,1,.023-1.6c.023-.229.206-.572.389-.618.458-.137.709.137.709.618v5.126c0,.435-.137.618-.595.6-.618-.023-1.213,0-1.831,0a1.715,1.715,0,0,1-1.739-1.442,2.25,2.25,0,0,1,.755-2.4A2.3,2.3,0,0,1,512.565,207.5Zm0,1.877c.046-.572.046-1.076-.778-.984-.709.069-1.259.481-1.259,1.053,0,.687.5,1.076,1.3,1.1C512.794,210.59,512.519,209.9,512.565,209.377Z" transform="translate(-392.724 -158.306)" fill="#bf353e"/>
    <path id="Path_3258" data-name="Path 3258" d="M688.054,207.425v-1.4c0-.435.137-.732.641-.732.572-.023.481.366.481.709v5.012c0,.481-.137.687-.664.641a6.369,6.369,0,0,0-1.144,0,1.873,1.873,0,0,1-2.288-1.991,2.177,2.177,0,0,1,2.243-2.311A4.586,4.586,0,0,1,688.054,207.425Zm.023,2.151c-.092-.458.3-1.213-.732-1.144-.778.069-1.167.366-1.144,1.1a1.226,1.226,0,0,0,1.259,1.19C688.26,210.675,688.008,210.057,688.077,209.576Z" transform="translate(-528.165 -158.345)" fill="#bf353e"/>
    <path id="Path_3259" data-name="Path 3259" d="M361.99,207.511a8.247,8.247,0,0,1,.984-.229,1.454,1.454,0,0,1,1.739,1.465c.046.755,0,1.533,0,2.288,0,.343-.046.572-.5.572-.412,0-.664-.069-.641-.549.023-.618-.023-1.213.023-1.831.046-.572-.343-.755-.755-.778-.435-.023-.915.114-.892.755.023.618-.023,1.213,0,1.831.023.458-.183.6-.618.572-.412,0-.526-.183-.526-.549,0-1.762.023-3.5,0-5.263,0-.458.16-.6.6-.6.5,0,.526.275.526.664A12.338,12.338,0,0,1,361.99,207.511Z" transform="translate(-278.101 -158.271)" fill="#bf353e"/>
    <path id="Path_3260" data-name="Path 3260" d="M781.076,210.015c0-.687.023-1.373,0-2.06-.046-.6.114-.915.8-.87.824.046,1.671.023,2.517.023.366,0,.572.069.572.5,0,.412-.092.641-.572.618-.526-.023-1.076.023-1.6,0-.435-.023-.595.16-.595.6,0,.458.206.6.618.572s.847,0,1.259,0c.389,0,.664.046.664.549,0,.458-.183.6-.595.6-.595,0-1.419-.16-1.739.16s-.16,1.121-.183,1.739c0,.389-.069.641-.572.641-.481,0-.572-.206-.572-.618Z" transform="translate(-602.192 -159.721)" fill="#bf353e"/>
    <path id="Path_3261" data-name="Path 3261" d="M280.2,217.328c.549.229,1.076.618,1.762.275.389-.183.572.046.687.458.16.5-.275.549-.458.549a8.65,8.65,0,0,1-2.037-.023,1.662,1.662,0,0,1-1.236-1.442c-.092-1.03.023-2.014,1.1-2.494,1.327-.618,2.746-.3,2.906,1.739.046.458-.092.709-.618.709-.709-.023-1.419,0-2.128,0A.637.637,0,0,1,280.2,217.328Zm-.069-1.144c.549-.023,1.053-.046,1.671-.069C280.952,215.222,280.815,215.222,280.128,216.183Z" transform="translate(-214.936 -165.341)" fill="#bf353e"/>
    <path id="Path_3262" data-name="Path 3262" d="M664.387,217.411a1.74,1.74,0,0,0,1.739.366c.5-.229.664.069.664.412a.746.746,0,0,1-.458.549,7.72,7.72,0,0,1-1.922,0,1.66,1.66,0,0,1-1.3-1.51,2.1,2.1,0,0,1,.892-2.288c1.3-.755,2.838-.687,3.158,1.533.069.435-.023.732-.572.709-.709-.023-1.442,0-2.151,0A.678.678,0,0,0,664.387,217.411Zm-.114-1.213h1.671C665.234,215.328,665.05,215.328,664.272,216.2Z" transform="translate(-511.203 -165.447)" fill="#bf353e"/>
    <path id="Path_3263" data-name="Path 3263" d="M467.1,216.492c-.366-.8-1.03-.595-1.556-.458-.435.114-.641.229-.824-.343-.206-.641.16-.641.549-.664a8.077,8.077,0,0,1,1.968.023,1.218,1.218,0,0,1,.961,1.465,3.055,3.055,0,0,0,0,.458l-.137,2.128c-.847,0-1.716.069-2.563.023a1.128,1.128,0,0,1-1.1-1.1,1.579,1.579,0,0,1,.8-1.076A6.8,6.8,0,0,1,467.1,216.492Zm-.046,1.35c0-.069-.023-.137-.023-.229a2.119,2.119,0,0,0-.526-.092,3.728,3.728,0,0,0-.709.252c-.023,0,.023.252.069.252a2.491,2.491,0,0,0,.709.069C466.755,218.094,466.915,217.934,467.052,217.843Z" transform="translate(-357.99 -165.81)" fill="#bf353e"/>
    <path id="Path_3264" data-name="Path 3264" d="M237.22,217.144c.526.229.984.618,1.648.32.412-.183.687-.16.8.389.114.6-.32.572-.641.6a9.36,9.36,0,0,1-1.6,0,1.726,1.726,0,0,1-1.442-1.259c-.114-.961-.183-1.945.778-2.54a2.04,2.04,0,0,1,2.128-.3,1.827,1.827,0,0,1,.961,2.174.85.85,0,0,1-.6.32c-.687.046-1.35.023-2.037.023Zm-.046-1.213h1.556C238.112,215.061,237.952,215.061,237.174,215.931Z" transform="translate(-181.799 -165.18)" fill="#bf353e"/>
    <path id="Path_3265" data-name="Path 3265" d="M303.634,215.822c-.412-.8-1.03-.618-1.533-.481-.412.114-.687.16-.778-.3-.114-.458.046-.732.572-.709.183,0,.343-.137.526-.16a1.688,1.688,0,0,1,2.266,1.808c0,.641.023,1.3-.023,1.945a.748.748,0,0,1-.389.5,19.252,19.252,0,0,1-1.991.023,1.22,1.22,0,0,1-1.213-1.1,1,1,0,0,1,.915-1.19C302.513,216.051,303.016,215.936,303.634,215.822Zm-1.3,1.121a.974.974,0,0,0-.046.252c.481.412.938.572,1.419-.343C303.13,216.9,302.718,216.92,302.329,216.943Z" transform="translate(-232.034 -165.14)" fill="#bf353e"/>
    <path id="Path_3266" data-name="Path 3266" d="M723.662,216.952c-.023.526.114,1.19-.16,1.533-.206.275-.938.16-1.419.16-.595,0-1.19.16-1.693-.366a1.039,1.039,0,0,1,.3-1.831,9.757,9.757,0,0,1,1.419-.3,1.1,1.1,0,0,0,.366-.183c-.091-.16-.183-.412-.275-.435-.435-.046-.893.023-1.327,0a2.441,2.441,0,0,1-.618-.275c.137-.229.206-.572.412-.664a2.029,2.029,0,0,1,1.1-.229c1.144.137,2.037.3,1.9,1.785-.023.252,0,.526,0,.8Zm-1.076.092c-.549.069-.961.114-1.579.183C721.991,217.913,721.991,217.913,722.586,217.043Z" transform="translate(-555.076 -165.331)" fill="#bf353e"/>
    <path id="Path_3267" data-name="Path 3267" d="M487.066,216.5c0-.275-.023-.526,0-.8a3,3,0,0,1,.16-1.213c.091-.137.664,0,1.03,0a3.161,3.161,0,0,0,.458-.069c1.556-.366,2.22.137,2.243,1.716,0,.641-.023,1.3,0,1.945,0,.412-.183.526-.549.526s-.572-.092-.572-.5c.023-.618-.023-1.213,0-1.831a.7.7,0,0,0-.8-.847c-.435.023-.892.183-.847.824.046.6,0,1.213,0,1.831,0,.389-.16.526-.549.526-.366,0-.6-.092-.572-.5v-1.6Z" transform="translate(-375.463 -165.29)" fill="#bf353e"/>
    <path id="Path_3268" data-name="Path 3268" d="M545.018,216.491v-1.03c0-.984,0-.961.984-.915a2.525,2.525,0,0,0,.87-.206,1.463,1.463,0,0,1,2.014,1.556c.023.732,0,1.442,0,2.174,0,.412-.183.5-.572.5-.366,0-.572-.114-.572-.526V216.1a.635.635,0,0,0-.8-.709c-.389.046-.847.137-.824.709.023.641-.023,1.3,0,1.945,0,.389-.16.526-.549.526-.343,0-.595-.069-.572-.5.046-.526.023-1.053.023-1.579Z" transform="translate(-420.142 -165.26)" fill="#bf353e"/>
    <path id="Path_3269" data-name="Path 3269" d="M863.781,214.628c-.114.3-.229.618-.32.87h-1.877c-.023.069-.023.137-.046.206a10.672,10.672,0,0,1,1.671.687,1.5,1.5,0,0,1,.732,1.03,1.087,1.087,0,0,1-.938,1.1,10.711,10.711,0,0,1-2.266,0c-.252-.023-.709-.137-.549-.664.137-.435.412-.481.824-.389.526.092,1.076.572,1.6-.183-.481-.183-.938-.366-1.419-.5a1.124,1.124,0,0,1-.915-1.121c0-.6.412-.915.938-1.121A2.891,2.891,0,0,1,863.781,214.628Z" transform="translate(-663.179 -165.273)" fill="#bf353e"/>
    <path id="Path_3270" data-name="Path 3270" d="M261.748,214.635c-.069.618-.252,1.007-.984.755a3.976,3.976,0,0,0-1.167-.023c-.023.114-.023.229-.046.343.435.137.87.275,1.282.435.824.32,1.19.8,1.121,1.373-.092.664-.618,1.053-1.533,1.03a15.619,15.619,0,0,1-1.785-.137c-.343-.046-.549-.275-.366-.641.137-.275.252-.526.664-.343a3.044,3.044,0,0,0,1.1.229c.183,0,.389-.183.572-.275-.16-.137-.275-.32-.458-.389-.343-.137-.732-.206-1.076-.32a1.138,1.138,0,0,1,.114-2.151A2.761,2.761,0,0,1,261.748,214.635Z" transform="translate(-198.982 -165.258)" fill="#bf353e"/>
    <path id="Path_3271" data-name="Path 3271" d="M755.1,207.273v-3.433c0-.389.069-.641.549-.641.458,0,.572.206.572.618v6.98c0,.389-.069.641-.549.641-.458,0-.572-.206-.572-.618Z" transform="translate(-582.166 -156.728)" fill="#bf353e"/>
    <path id="Path_3272" data-name="Path 3272" d="M398.221,207.273v3.547c0,.412-.114.618-.572.618-.481,0-.549-.252-.549-.641v-6.98c0-.412.114-.618.572-.618.481,0,.549.252.549.641Z" transform="translate(-306.094 -156.728)" fill="#bf353e"/>
    <path id="Path_3273" data-name="Path 3273" d="M341.608,218.564c-1.236,0-1.762-.275-2.105-1.144a2.261,2.261,0,0,1,.572-2.586,2.411,2.411,0,0,1,2.655-.32.678.678,0,0,1,.275.6c-.046.252-.137.549-.618.458a2.163,2.163,0,0,0-1.373.114,1.264,1.264,0,0,0-.458.984.726.726,0,0,0,.847.824c.3-.023.618.046.915,0,.549-.092.687.3.687.641,0,.16-.366.366-.618.458C342.157,218.61,341.86,218.564,341.608,218.564Z" transform="translate(-261.54 -165.25)" fill="#bf353e"/>
    <path id="Path_3274" data-name="Path 3274" d="M448.166,216.57c0-.275-.023-.526,0-.8a2.513,2.513,0,0,1,.183-1.19c.114-.16.664-.023,1.007-.046a6.572,6.572,0,0,1,1.327-.16.9.9,0,0,1,.6.618c-.023.343-.137.755-.8.5-.709-.275-.961.046-1.007.893-.023.526-.023,1.053,0,1.6,0,.481-.206.664-.687.664-.458,0-.618-.206-.618-.618V216.57Z" transform="translate(-345.465 -165.338)" fill="#bf353e"/>
    <path id="Path_3275" data-name="Path 3275" d="M323.3,216.992v-.915c0-1.076,0-1.076,1.144-1.1a9.631,9.631,0,0,1,1.625,0c.137.023.366.481.32.526-.16.183-.046.664-.664.481-.961-.3-1.121-.069-1.144.915-.023.526,0,1.053,0,1.6,0,.435-.229.595-.641.595-.458,0-.618-.206-.6-.618-.046-.5-.046-.984-.046-1.488Z" transform="translate(-249.183 -165.783)" fill="#bf353e"/>
    <path id="Path_3276" data-name="Path 3276" d="M605.807,207.434v3.3c0,.343.046.687-.5.687-.526,0-.481-.366-.481-.709-.023-2.266-.023-4.554-.023-6.82,0-.343.023-.687.526-.687.526,0,.5.366.5.709,0,1.167,0,2.334-.023,3.524Z" transform="translate(-466.262 -156.728)" fill="#bf353e"/>
    <path id="Path_3277" data-name="Path 3277" d="M816.144,208.4v2.4c0,.412,0,.732-.595.732-.5-.023-.549-.275-.549-.664v-5.149c0-.435.137-.618.6-.618.5,0,.549.275.549.664Z" transform="translate(-628.358 -158.194)" fill="#bf353e"/>
    <path id="Path_3278" data-name="Path 3278" d="M535.216,216.828c0,.526-.023,1.076,0,1.6.023.412-.206.5-.572.5s-.572-.114-.549-.526c.023-1.076-.023-2.128.023-3.2a.726.726,0,0,1,.549-.5.761.761,0,0,1,.526.526A12.414,12.414,0,0,1,535.216,216.828Z" transform="translate(-411.736 -165.597)" fill="#bf353e"/>
    <path id="Path_3279" data-name="Path 3279" d="M804.894,217.079c0,.458-.023.915,0,1.373.023.412-.092.641-.572.641-.435,0-.641-.137-.641-.572,0-1.03-.023-2.06.023-3.089,0-.183.32-.458.549-.5.389-.092.641.114.641.572-.023.5,0,1.053,0,1.579Z" transform="translate(-619.625 -165.756)" fill="#bf353e"/>
    <path id="Path_3280" data-name="Path 3280" d="M710.9,217.267v1.373c0,.32-.046.664-.481.549a.7.7,0,0,1-.435-.481q-.069-1.545,0-3.089a.708.708,0,0,1,.412-.5c.412-.114.5.183.5.549Z" transform="translate(-547.349 -165.899)" fill="#bf353e"/>
    <path id="Path_3281" data-name="Path 3281" d="M804.447,207.87c.069.481-.137.687-.641.687-.549-.023-.709-.3-.709-.8-.023-.572.343-.549.755-.572C804.378,207.138,804.493,207.412,804.447,207.87Z" transform="translate(-619.178 -159.796)" fill="#bf353e"/>
    <path id="Path_3282" data-name="Path 3282" d="M709.822,208.989a5.67,5.67,0,0,1-.732-1.007c-.114-.412.069-.709.595-.687.435,0,.8.069.687.6A5.182,5.182,0,0,1,709.822,208.989Z" transform="translate(-546.66 -159.886)" fill="#bf353e"/>
    <path id="Path_3283" data-name="Path 3283" d="M535.206,207.811c.023.412.046.755-.549.755-.549,0-.6-.275-.572-.709.023-.343-.023-.664.5-.664C535.046,207.17,535.275,207.33,535.206,207.811Z" transform="translate(-411.726 -159.806)" fill="#bf353e"/>
    <path id="Path_3284" data-name="Path 3284" d="M184.6,64.423c.069,0,.114-.023.183-.023a.08.08,0,0,0-.046.023Z" transform="translate(-142.224 -49.693)" fill="#bf353e"/>
    <path id="Path_3285" data-name="Path 3285" d="M47.86,60.389a.389.389,0,0,1-.16-.023c.023,0,.046-.023.069,0,.046,0,.069.023.092.023Z" transform="translate(-36.653 -46.574)" fill="#bf353e"/>
  </g>
</svg>
