<svg xmlns="http://www.w3.org/2000/svg" xmlns:xlink="http://www.w3.org/1999/xlink" width="2156.852" height="311.681" viewBox="0 0 2156.852 311.681">
  <defs>
    <filter id="Path_2268" x="0" y="0" width="2156.852" height="311.681" filterUnits="userSpaceOnUse">
      <feOffset dy="6" input="SourceAlpha"/>
      <feGaussianBlur stdDeviation="4.5" result="blur"/>
      <feFlood flood-color="#040f26" flood-opacity="0.302"/>
      <feComposite operator="in" in2="blur"/>
      <feComposite in="SourceGraphic"/>
    </filter>
    <clipPath id="clip-path">
      <rect id="Rectangle_734" data-name="Rectangle 734" width="39" height="36" transform="translate(-0.389 0.068)" fill="#fff"/>
    </clipPath>
    <clipPath id="clip-path-2">
      <rect id="Rectangle_733" data-name="Rectangle 733" width="37" height="38" transform="translate(-0.047 -0.209)" fill="#fff"/>
    </clipPath>
    <clipPath id="clip-path-3">
      <rect id="Rectangle_737" data-name="Rectangle 737" width="21" height="25" transform="translate(0.24 -0.344)" fill="#fff"/>
    </clipPath>
    <clipPath id="clip-path-6">
      <rect id="Rectangle_736" data-name="Rectangle 736" width="26" height="27" transform="translate(0 0)" fill="#fff"/>
    </clipPath>
  </defs>
  <g id="brain-line" transform="translate(91.152 -6699.908)">
    <g transform="matrix(1, 0, 0, 1, -91.15, 6699.91)" filter="url(#Path_2268)">
      <path id="Path_2268-2" data-name="Path 2268" d="M144.273,653.7a71.223,71.223,0,0,1-5.516-9.991c-5.058,3.3-12.462,5.358-19.926.133l-.049-.035c-15.6-11.264-17.2-25.009-17.074-30.962-13.555-8.557-23.494-28.244-15.423-53.886C75.8,542.27,72.009,526.7,75.022,512.638a43.837,43.837,0,0,1,14.526-24.162c-5.85-19.759,1.663-33.643,9.222-41.932A59.406,59.406,0,0,1,115.412,434c.989-5.77,4.771-20.26,18.281-26.315,8.876-3.978,16.356-1.845,21.6,1.719,1.393-9.7,4.911-17.11,10.506-22.081a25.408,25.408,0,0,1,17.878-6.352c18.865.132,28.732,23.136,28.732,35.485,0-12.348,9.867-35.353,28.732-35.485a25.408,25.408,0,0,1,17.878,6.352c5.6,4.971,9.114,12.377,10.506,22.081,5.241-3.564,12.72-5.7,21.6-1.719,13.51,6.056,17.292,20.545,18.281,26.315a59.4,59.4,0,0,1,16.642,12.546c7.558,8.29,15.072,22.174,9.222,41.932a43.837,43.837,0,0,1,14.526,24.162c3.013,14.058-.776,29.632-11.263,46.316,8.071,25.642-1.869,45.33-15.423,53.886.129,5.953-1.477,19.7-17.074,30.962l-.049.035c-7.465,5.225-14.868,3.165-19.926-.133a71.224,71.224,0,0,1-5.516,9.991l1771.664,3.3v8.618l-1778.73-3.3h-14.32c14.348-5.82,21.307-26.373,21.386-26.61a4.055,4.055,0,0,1,6.933-1.376c.274.32,6.8,7.782,13.835,2.882,15.768-11.4,13.66-25.321,13.568-25.878a4.055,4.055,0,0,1,2.114-4.321c8.672-4.524,22.6-20.231,13.251-47.294a4.056,4.056,0,0,1,.436-3.539c27.7-42.473-1.116-62.006-2.342-62.808a4.055,4.055,0,0,1-1.636-4.757c11.723-33.365-21.164-47.551-22.563-48.135a4.073,4.073,0,0,1-2.492-3.41c-.014-.164-1.561-16.48-13.839-21.984-4.741-2.125-9.023-1.916-13.091.64a18.431,18.431,0,0,0-5.138,4.917,4.055,4.055,0,0,1-7.487-2.1c-.166-11.772-2.975-20.2-8.351-25.059a17.032,17.032,0,0,0-12.013-4.422,4.013,4.013,0,0,1-.42.022c-13.713,0-20.784,19.188-20.784,27.374v117.6c.008,1.382.507,93.855.507,98.853.1,3.074,7.674,23.618,22.451,29.414H181.336c14.777-5.8,22.356-26.34,22.451-29.414,0-5,.5-97.471.507-98.853v-117.6c0-8.186-7.071-27.374-20.784-27.374a4.013,4.013,0,0,1-.42-.022,17.032,17.032,0,0,0-12.013,4.422c-5.376,4.855-8.185,13.287-8.351,25.059a4.055,4.055,0,0,1-7.487,2.1,18.431,18.431,0,0,0-5.138-4.917c-4.067-2.556-8.349-2.765-13.091-.64-12.278,5.5-13.825,21.82-13.839,21.984a4.073,4.073,0,0,1-2.492,3.41c-1.4.584-34.286,14.77-22.563,48.135a4.055,4.055,0,0,1-1.636,4.757c-1.226.8-30.042,20.335-2.342,62.808a4.056,4.056,0,0,1,.436,3.539c-9.349,27.064,4.579,42.77,13.251,47.294a4.055,4.055,0,0,1,2.114,4.321c-.092.557-2.2,14.473,13.568,25.878,7.034,4.9,13.56-2.562,13.835-2.882a4.055,4.055,0,0,1,6.933,1.376c.079.237,7.038,20.79,21.386,26.61H-77.652V653.7Zm58.8,0h18.669c-5.872-8.591-8.828-17.636-8.828-20.784,0-5-.5-97.892-.507-98.83-.005.938-.507,93.83-.507,98.83C211.9,636.06,208.942,645.105,203.07,653.7Z" transform="translate(91.15 -373.43)" fill="#bf353e"/>
    </g>
    <g id="Group_1133" data-name="Group 1133" transform="translate(-2637.479 236)" opacity="0.1">
      <path id="Path_2275" data-name="Path 2275" d="M347.219,174.438A3.219,3.219,0,1,0,344,171.219,3.219,3.219,0,0,0,347.219,174.438Zm0-4.829a1.61,1.61,0,1,1-1.61,1.61A1.609,1.609,0,0,1,347.219,169.61Z" transform="translate(2475.767 6489.15)" fill="#fff"/>
      <path id="Path_2276" data-name="Path 2276" d="M291.219,224a3.219,3.219,0,1,0,3.219,3.219A3.219,3.219,0,0,0,291.219,224Zm0,4.829a1.61,1.61,0,1,1,1.609-1.61A1.609,1.609,0,0,1,291.219,228.829Z" transform="translate(2526.133 6438.783)" fill="#fff"/>
      <path id="Path_2277" data-name="Path 2277" d="M400,227.219A3.219,3.219,0,1,0,403.219,224,3.219,3.219,0,0,0,400,227.219Zm4.829,0a1.61,1.61,0,1,1-1.609-1.61A1.609,1.609,0,0,1,404.829,227.219Z" transform="translate(2425.4 6438.783)" fill="#fff"/>
      <path id="Path_2278" data-name="Path 2278" d="M77.681,188.024H74.462V184.8a.8.8,0,0,0-.8-.8H68.829a.8.8,0,0,0-.8.8v3.219H64.8a.8.8,0,0,0-.8.8v4.829a.8.8,0,0,0,.8.8h3.219v3.219a.8.8,0,0,0,.8.8h4.829a.8.8,0,0,0,.8-.8v-3.219h3.219a.8.8,0,0,0,.8-.8v-4.829A.8.8,0,0,0,77.681,188.024Zm-.8,4.829H73.657a.8.8,0,0,0-.8.8v3.219H69.633v-3.219a.8.8,0,0,0-.8-.8H65.61v-3.219h3.219a.8.8,0,0,0,.8-.8V185.61h3.219v3.219a.8.8,0,0,0,.8.8h3.219Z" transform="translate(2727.6 6474.759)" fill="#fff"/>
      <path id="Path_2279" data-name="Path 2279" d="M347.219,280a3.219,3.219,0,1,0,3.219,3.219A3.219,3.219,0,0,0,347.219,280Zm0,4.829a1.61,1.61,0,1,1,1.609-1.61A1.609,1.609,0,0,1,347.219,284.829Z" transform="translate(2475.767 6388.416)" fill="#fff"/>
      <path id="Path_2280" data-name="Path 2280" d="M52.436,136.006a.763.763,0,0,0-.1-.006H28.2a.75.75,0,0,0-.1.006,12.158,12.158,0,1,0,8.611,20.918h7.114a12.158,12.158,0,1,0,8.612-20.918Zm-.186,22.705a10.473,10.473,0,0,1-7.521-3.155.8.8,0,0,0-.573-.241H36.378a.8.8,0,0,0-.573.241,10.548,10.548,0,1,1-7.6-17.94.675.675,0,0,0,.08,0H52.25a.675.675,0,0,0,.08,0,10.549,10.549,0,0,1-.08,21.1Z" transform="translate(2770.648 6517.931)" fill="#fff"/>
    </g>
    <g id="Group_1107" data-name="Group 1107" transform="translate(158.248 6765.216)" opacity="0.1">
      <path id="Path_2363" data-name="Path 2363" d="M286.374,339.888c-.527-.949-1.789-1.276-3.752-.975a8.688,8.688,0,0,0-1.1.243c.221-2.085-.119-3.3-1.034-3.7-.392-.172-1.584-.695-4.969,2.467a38.472,38.472,0,0,0-2.927,3.089.515.515,0,0,0,.792.66,37.851,37.851,0,0,1,2.838-3c2.681-2.5,3.627-2.376,3.851-2.277.463.2.6,1.337.377,3.034-.005.042-.011.084-.017.126a5.951,5.951,0,0,0-3.53,4.227,1.821,1.821,0,0,0,1.523,2.125,1.88,1.88,0,0,0,2.246-1.493c.242-1.167.476-2.545.7-4.106a6.968,6.968,0,0,1,1.411-.384c1.026-.158,2.326-.207,2.7.457.386.7-.122,2.248-1.394,4.259-.1.157-.2.311-.3.462l-1.105-3.316a.515.515,0,0,0-1,.163v6.133a.515.515,0,0,0,.906.335c.027-.032.378-.442.864-1.076l1.323,3.97a.515.515,0,0,0,.978-.326l-1.553-4.658c.249-.352.506-.732.756-1.128,1.572-2.483,2.04-4.223,1.43-5.32Zm-6.712,4.323a.864.864,0,0,1-1.053.689.8.8,0,0,1-.691-.951,4.506,4.506,0,0,1,2.33-3.093c-.187,1.259-.383,2.384-.586,3.356Zm3.038,2.409v-1.489l.343,1.03c-.119.162-.234.316-.343.459Zm0,0" transform="translate(-260.553 -326.031)" fill="#fff"/>
      <path id="Path_2364" data-name="Path 2364" d="M194.9,250.346a.459.459,0,0,0-.006-.057.514.514,0,0,0-.5-.623h-1.545v-.271a1.274,1.274,0,0,0-2.548,0v.274l-.027,0h-1.03v-.271a1.274,1.274,0,0,0-2.548,0v.271h-1.057v-.271a1.274,1.274,0,0,0-2.548,0v.271h-1.057v-.271a1.274,1.274,0,0,0-2.548,0v.271h-1.057v-.271a1.274,1.274,0,0,0-2.548,0v.274l-.027,0H174.3a.784.784,0,0,0-.574.68v11.526l-4.315-5.343a.515.515,0,0,0-.724-.077l-2.8,2.265a.516.516,0,0,0-.077.725l7.921,9.808v8.694a.515.515,0,0,0,.515.515h20.14a.515.515,0,0,0,.515-.515Zm-3.573-.951a.244.244,0,0,1,.488,0v1.572a.244.244,0,0,1-.488,0Zm-3.605,0a.244.244,0,0,1,.488,0v1.572a.244.244,0,0,1-.488,0Zm-3.605,0a.244.244,0,0,1,.488,0v1.572a.244.244,0,0,1-.488,0Zm-3.605,0a.244.244,0,0,1,.488,0v1.572a.244.244,0,0,1-.488,0Zm-3.605,0a.244.244,0,0,1,.488,0v1.572a.244.244,0,0,1-.488,0Zm-1.03,1.3v.274a1.274,1.274,0,0,0,2.548,0V250.7h1.057v.271a1.274,1.274,0,0,0,2.548,0V250.7h1.057v.271a1.274,1.274,0,0,0,2.548,0V250.7h1.057v.271a1.274,1.274,0,0,0,2.548,0V250.7h1.03l.027,0v.274a1.274,1.274,0,0,0,2.548,0V250.7h1.024v2.06h-19.11V250.7h1.09l.027,0Zm6.676,25.388.184.633-.58-.312Zm-1.491-2.552.658-.123.079.1.442,1.5-1.068.862-1.378-.749-.1-.129.754.172a.515.515,0,0,0,.63-.508Zm-.614-.934a.515.515,0,0,0-.421.512l.011.908-.885-.2a.512.512,0,0,0-.369.055L168.25,260.827l2-1.618L180.982,272.5Zm-11.51-15.017.671.83-2,1.618-.671-.831Zm5.822,12.948,3.746,4.639.552.684a.521.521,0,0,0,.155.129l1.77.962h0l.907.488h-7.132Zm9.255,6.9-.688-2.379h0l-.568-1.933a.509.509,0,0,0-.093-.178l-.336-.416h0l-7.568-9.372v-9.361h19.11v23.643Zm0,0" transform="translate(-164.516 -247.606)" fill="#fff"/>
      <path id="Path_2365" data-name="Path 2365" d="M180.113,245.523a.515.515,0,0,0,.515-.515v-1.493a.515.515,0,0,0-1.03,0v1.493a.515.515,0,0,0,.515.515Zm0,0" transform="translate(-177.023 -243)" fill="#fff"/>
      <path id="Path_2366" data-name="Path 2366" d="M180.113,277.625a.515.515,0,0,0-.515.515v1.493a.515.515,0,0,0,1.03,0V278.14a.515.515,0,0,0-.515-.515Zm0,0" transform="translate(-177.023 -274.142)" fill="#fff"/>
      <path id="Path_2367" data-name="Path 2367" d="M156.575,269.116a.515.515,0,0,0-.515-.515h-1.545a.515.515,0,0,0,0,1.03h1.545a.515.515,0,0,0,.515-.515Zm0,0" transform="translate(-154 -266.026)" fill="#fff"/>
      <path id="Path_2368" data-name="Path 2368" d="M190.355,269.631H191.9a.515.515,0,0,0,0-1.03h-1.545a.515.515,0,1,0,0,1.03Zm0,0" transform="translate(-186.235 -266.026)" fill="#fff"/>
      <path id="Path_2369" data-name="Path 2369" d="M166.041,493.878a1.76,1.76,0,1,0,1.8,1.759,1.783,1.783,0,0,0-1.8-1.759Zm0,2.488a.73.73,0,1,1,.773-.729.753.753,0,0,1-.773.729Zm0,0" transform="translate(-163.208 -468.641)" fill="#fff"/>
      <path id="Path_2370" data-name="Path 2370" d="M215.952,310.209a.5.5,0,1,0-.515-.5.507.507,0,0,0,.515.5Zm0,0" transform="translate(-209.257 -302.553)" fill="#fff"/>
      <path id="Path_2371" data-name="Path 2371" d="M215.952,467.238a.5.5,0,1,0,.515.5.507.507,0,0,0-.515-.5Zm0,0" transform="translate(-209.257 -444.681)" fill="#fff"/>
      <path id="Path_2372" data-name="Path 2372" d="M165.268,411.415a.515.515,0,1,0-.515.5.507.507,0,0,0,.515-.5Zm0,0" transform="translate(-163.208 -394.025)" fill="#fff"/>
    </g>
    <g id="Group_1108" data-name="Group 1108" transform="translate(121.5 6949.99)" opacity="0.1">
      <path id="Path_2326" data-name="Path 2326" d="M98.487,247.065H97.481v-4.527a4.022,4.022,0,0,0-6.139-3.421A4.029,4.029,0,0,0,87.421,236h0a4.029,4.029,0,0,0-4.024,4.024v7.042H68.108v-7.042a4.024,4.024,0,0,0-7.945-.907,4.022,4.022,0,0,0-6.139,3.421v4.527H53.018A3.022,3.022,0,0,0,50,250.083v4.024a3.022,3.022,0,0,0,3.018,3.018h1.006v4.527a4.022,4.022,0,0,0,6.139,3.421,4.029,4.029,0,0,0,3.92,3.117h0a4.029,4.029,0,0,0,4.024-4.024v-7.042H83.4v7.042a4.024,4.024,0,0,0,7.945.907,4.022,4.022,0,0,0,6.139-3.421v-4.527h1.006a3.022,3.022,0,0,0,3.018-3.018v-4.024a3.022,3.022,0,0,0-3.018-3.018Zm-44.463,8.048H53.018a1.007,1.007,0,0,1-1.006-1.006v-4.024a1.007,1.007,0,0,1,1.006-1.006h1.006Zm6.036,6.539a2.012,2.012,0,0,1-4.024,0V242.539a2.012,2.012,0,0,1,4.024,0Zm6.037,2.515a2.015,2.015,0,0,1-2.012,2.012h0a2.014,2.014,0,0,1-2.012-2.012V240.024a2.013,2.013,0,0,1,4.025,0Zm17.294-13.077H76.356a1.006,1.006,0,0,0,0,2.012h7.035v2.012H68.1v-6.036H83.391Zm6.043,13.077a2.013,2.013,0,0,1-4.025,0v-12.02a.6.6,0,0,1-.006.065v-.233a.6.6,0,0,1,.006.065v-12.02a2.015,2.015,0,0,1,2.012-2.012h0a2.014,2.014,0,0,1,2.012,2.012Zm6.036-2.515a2.012,2.012,0,0,1-4.024,0V242.539a2.012,2.012,0,0,1,4.024,0Zm4.024-7.545a1.007,1.007,0,0,1-1.006,1.006H97.481v-6.036h1.006a1.007,1.007,0,0,1,1.006,1.006Zm0,0" transform="translate(-58 -267)" fill="#fff"/>
      <path id="Path_2327" data-name="Path 2327" d="M263.022,388.012a1.006,1.006,0,0,1,0-2.012h0a1.006,1.006,0,1,1,0,2.012Zm0,0" transform="translate(-240.688 -370.911)" fill="#fff"/>
    </g>
    <g id="Group_1109" data-name="Group 1109" transform="translate(140.389 6824.932)" opacity="0.1">
      <path id="Path_2358" data-name="Path 2358" d="M244.64,506.121a3.4,3.4,0,1,0,3.4,3.4,3.4,3.4,0,0,0-3.4-3.4Zm0,4.9a1.5,1.5,0,1,1,1.5-1.5,1.5,1.5,0,0,1-1.5,1.5Zm0,0" transform="translate(-228.318 -476.89)" fill="#fff"/>
      <path id="Path_2359" data-name="Path 2359" d="M363.1,506.121a3.4,3.4,0,1,0,3.4,3.4,3.4,3.4,0,0,0-3.4-3.4Zm0,4.9a1.5,1.5,0,1,1,1.5-1.5,1.5,1.5,0,0,1-1.5,1.5Zm0,0" transform="translate(-334.859 -476.89)" fill="#fff"/>
      <path id="Path_2360" data-name="Path 2360" d="M271.786,328.316H258.195a.948.948,0,1,0,0,1.9h13.591a.948.948,0,1,0,0-1.9Zm0,0" transform="translate(-242.712 -316.971)" fill="#fff"/>
      <g id="Group_1118" data-name="Group 1118" transform="translate(0 0)">
        <g id="Group_1117" data-name="Group 1117" transform="translate(0 0)" clip-path="url(#clip-path)">
          <path id="Path_2361" data-name="Path 2361" d="M277.662,377.277H265.55a.948.948,0,1,0,0,1.9h12.112a.948.948,0,0,0,0-1.9Zm0,0" transform="translate(-249.328 -361.007)" fill="#fff"/>
          <path id="Path_2362" data-name="Path 2362" d="M152.2,225.172a1.888,1.888,0,0,0-1.47-.7H121.187l-.6-2.9a1.9,1.9,0,0,0-1.1-1.357l-4.163-1.807a.948.948,0,1,0-.755,1.74l4.163,1.807,4.589,22.276a1.9,1.9,0,0,0,1.858,1.514H147.9a.948.948,0,0,0,0-1.9H125.18l-.558-2.71h23.456a1.9,1.9,0,0,0,1.858-1.514l2.653-12.877a1.888,1.888,0,0,0-.388-1.581Zm-4.123,14.075H124.231l-2.653-12.877H150.73Zm0,0" transform="translate(-113.874 -218.053)" fill="#fff"/>
        </g>
      </g>
    </g>
    <g id="Group_1112" data-name="Group 1112" transform="translate(93.353 6833.148)" opacity="0.1">
      <path id="Path_2334" data-name="Path 2334" d="M191.145,226.826a23.437,23.437,0,0,0,9.22-18.624.453.453,0,0,0-.453-.453,23.367,23.367,0,0,0-14.38,4.945,23.7,23.7,0,0,0-4.233,4.261,2.254,2.254,0,0,1-2.767-.322,3.151,3.151,0,0,0-4.454,0l-4.484,4.418a.452.452,0,0,0,0,.644l2.594,2.562a4.459,4.459,0,0,0,5.06.836l0,.016a.453.453,0,0,0,.117.438l1.305,1.306-3.194.677a.453.453,0,0,0-.226.763l1.607,1.607a4.015,4.015,0,0,0-1.169-.469c-.131-.03-.262-.053-.389-.069a4.081,4.081,0,0,0-.479-.032,3.974,3.974,0,0,0-2.854,1.173,4.069,4.069,0,0,0-1.215,2.906.453.453,0,0,0,.441.453l.341.009a4.33,4.33,0,0,0-.773,3.167.452.452,0,0,0,.444.363h1.237a.453.453,0,0,0,0-.905h-.824a3.455,3.455,0,0,1,1.216-2.714.452.452,0,0,0-.288-.791l-.857-.022a3.173,3.173,0,0,1,.917-1.822,3.085,3.085,0,0,1,2.185-.91h.024c.072,0,.144,0,.216.01a2.087,2.087,0,0,0-1.013,1.549l-.26,2.1a.453.453,0,0,0,.45.508.442.442,0,0,0,.055,0l2.1-.26a2.1,2.1,0,0,0,1.549-1.016c.006.081.011.163.011.246a3.113,3.113,0,0,1-.917,2.215.453.453,0,1,0,.64.64,4.033,4.033,0,0,0,1.151-3.355c-.015-.126-.037-.255-.066-.382a4.013,4.013,0,0,0-.473-1.188l1.573,1.573a.452.452,0,0,0,.759-.211l.771-3.118,1.174,1.174a.453.453,0,0,0,.436.117l.081-.023a4.459,4.459,0,0,0,.81,5.113l2.562,2.61a.419.419,0,0,0,.644,0l4.416-4.489a3.16,3.16,0,0,0,0-4.461,2.26,2.26,0,0,1-.331-2.756Zm8.31-18.166a22.506,22.506,0,0,1-.46,4.1,9.406,9.406,0,0,1-3.649-3.634,22.422,22.422,0,0,1,4.109-.463Zm-26.631,14.952-2.268-2.239,4.159-4.1a2.246,2.246,0,0,1,3.176,0,3.162,3.162,0,0,0,2.526.906,23.453,23.453,0,0,0-2.759,5.561,3.548,3.548,0,0,1-4.835-.129Zm4.421,8.765a1.192,1.192,0,0,1-1,.86l-1.521.189.189-1.52a1.195,1.195,0,1,1,2.336.472Zm2.65-.715-3.42-3.42,2.954-.626,1.176,1.176Zm3.087-1.774-4.8-4.8q.121-.427.259-.849l.008-.008,0,0a22.74,22.74,0,0,1,14.037-14.317q.96-.336,1.943-.583a10.314,10.314,0,0,0,4.356,4.339,22.513,22.513,0,0,1-15.8,16.217Zm7.852,3.508-4.1,4.157-2.24-2.268a3.548,3.548,0,0,1-.078-4.891,23.269,23.269,0,0,0,5.51-2.7,3.164,3.164,0,0,0,.906,2.525,2.249,2.249,0,0,1,0,3.179Zm0,0" transform="translate(-164.71 -207.75)" fill="#fff"/>
      <path id="Path_2335" data-name="Path 2335" d="M212.683,492.547a3.144,3.144,0,0,1-.732.085h-.713a.453.453,0,1,0,0,.905h.713a4.048,4.048,0,0,0,.943-.11.453.453,0,1,0-.211-.88Zm0,0" transform="translate(-201.878 -463.886)" fill="#fff"/>
      <path id="Path_2336" data-name="Path 2336" d="M406.684,384.271a.45.45,0,0,0,.288-.1c.323-.267.642-.547.951-.831a.453.453,0,1,0-.614-.665c-.3.273-.6.542-.915.8a.453.453,0,0,0,.289.8Zm0,0" transform="translate(-377.662 -364.964)" fill="#fff"/>
      <path id="Path_2337" data-name="Path 2337" d="M435.2,280.986a.453.453,0,0,0-.564.3,22.421,22.421,0,0,1-1.468,3.657c-.217.427-.451.853-.7,1.267-.3.508-.625,1.01-.965,1.494a22.649,22.649,0,0,1-1.757,2.192.453.453,0,0,0,.67.609,23.63,23.63,0,0,0,1.827-2.28c.354-.5.692-1.025,1-1.554.255-.43.5-.873.724-1.318a23.338,23.338,0,0,0,1.527-3.8.453.453,0,0,0-.3-.564Zm0,0" transform="translate(-398.706 -273.601)" fill="#fff"/>
      <path id="Path_2338" data-name="Path 2338" d="M125.685,380.657a.453.453,0,0,0,.32-.132l.347-.347a.453.453,0,0,0-.64-.64l-.347.347a.453.453,0,0,0,.32.773Zm0,0" transform="translate(-124.93 -362.134)" fill="#fff"/>
      <path id="Path_2339" data-name="Path 2339" d="M139.214,356.585l1.549-1.549a.453.453,0,1,0-.64-.64l-1.549,1.549a.453.453,0,1,0,.64.64Zm0,0" transform="translate(-136.809 -339.525)" fill="#fff"/>
      <path id="Path_2340" data-name="Path 2340" d="M132.154,384.125a.453.453,0,0,0,.64,0l1.821-1.821a.453.453,0,0,0-.641-.64l-1.821,1.821a.453.453,0,0,0,0,.64Zm0,0" transform="translate(-131.038 -364.042)" fill="#fff"/>
      <g id="Group_1114" data-name="Group 1114" transform="translate(0 0.06)">
        <g id="Group_1113" data-name="Group 1113" transform="translate(0)" clip-path="url(#clip-path-2)">
          <path id="Path_2341" data-name="Path 2341" d="M159.417,367.615a.452.452,0,0,0,.32-.132l.673-.673a.453.453,0,1,0-.64-.64l-.673.673a.453.453,0,0,0,.32.773Zm0,0" transform="translate(-155.269 -350.172)" fill="#fff"/>
          <path id="Path_2342" data-name="Path 2342" d="M125.834,411.7l-2.012,2.011a.453.453,0,0,0,.64.64l2.011-2.011a.453.453,0,1,0-.64-.64Zm0,0" transform="translate(-123.54 -391.124)" fill="#fff"/>
        </g>
      </g>
      <path id="Path_2343" data-name="Path 2343" d="M157.143,377.994a.453.453,0,0,0-.64,0l-2.356,2.356a.453.453,0,1,0,.64.64l2.356-2.357a.452.452,0,0,0,0-.64Zm0,0" transform="translate(-150.816 -360.749)" fill="#fff"/>
      <path id="Path_2344" data-name="Path 2344" d="M269.315,523.182l-.347.347a.453.453,0,1,0,.64.64l.347-.347a.453.453,0,0,0-.64-.64Zm0,0" transform="translate(-254.082 -491.327)" fill="#fff"/>
      <path id="Path_2345" data-name="Path 2345" d="M283.772,498.029l-1.549,1.549a.453.453,0,1,0,.64.64l1.549-1.549a.453.453,0,0,0-.64-.64Zm0,0" transform="translate(-266.006 -468.707)" fill="#fff"/>
      <path id="Path_2346" data-name="Path 2346" d="M275.818,527.824a.453.453,0,0,0,.64,0L278.279,526a.453.453,0,1,0-.64-.64l-1.821,1.821a.452.452,0,0,0,0,.64Zm0,0" transform="translate(-260.25 -493.289)" fill="#fff"/>
      <path id="Path_2347" data-name="Path 2347" d="M302.767,511.1a.453.453,0,0,0,.64,0l.673-.673a.453.453,0,0,0-.64-.64l-.673.673a.453.453,0,0,0,0,.641Zm0,0" transform="translate(-284.488 -479.275)" fill="#fff"/>
      <path id="Path_2348" data-name="Path 2348" d="M269.522,555.366l-2.012,2.011a.453.453,0,1,0,.64.641l2.012-2.012a.453.453,0,1,0-.64-.64Zm0,0" transform="translate(-252.776 -520.276)" fill="#fff"/>
      <path id="Path_2349" data-name="Path 2349" d="M300.168,521.635l-2.356,2.357a.453.453,0,1,0,.64.64l2.357-2.357a.453.453,0,1,0-.64-.64Zm0,0" transform="translate(-280.028 -489.939)" fill="#fff"/>
      <path id="Path_2350" data-name="Path 2350" d="M410.913,451.163a2.538,2.538,0,0,1-1.595-1.6.453.453,0,0,0-.859,0,2.538,2.538,0,0,1-1.595,1.6.452.452,0,0,0,0,.858,2.538,2.538,0,0,1,1.595,1.6.453.453,0,0,0,.859,0,2.538,2.538,0,0,1,1.595-1.6.452.452,0,0,0,0-.858Zm-2.024,1.311a3.464,3.464,0,0,0-.88-.882,3.464,3.464,0,0,0,.88-.882,3.465,3.465,0,0,0,.88.882,3.465,3.465,0,0,0-.88.882Zm0,0" transform="translate(-377.955 -424.959)" fill="#fff"/>
      <path id="Path_2351" data-name="Path 2351" d="M127.865,271.271a2.538,2.538,0,0,1,1.595,1.6.453.453,0,0,0,.859,0,2.538,2.538,0,0,1,1.595-1.6.452.452,0,0,0,0-.858,2.538,2.538,0,0,1-1.595-1.6.453.453,0,0,0-.859,0,2.538,2.538,0,0,1-1.595,1.6.452.452,0,0,0,0,.858Zm2.024-1.311a3.465,3.465,0,0,0,.88.882,3.464,3.464,0,0,0-.88.882,3.464,3.464,0,0,0-.88-.882,3.465,3.465,0,0,0,.88-.882Zm0,0" transform="translate(-127.021 -262.392)" fill="#fff"/>
      <path id="Path_2352" data-name="Path 2352" d="M202.7,237.08a.829.829,0,1,1-.829-.83.829.829,0,0,1,.829.83Zm0,0" transform="translate(-193.113 -233.383)" fill="#fff"/>
      <path id="Path_2353" data-name="Path 2353" d="M408.947,530.33a.829.829,0,1,1-.829-.83.829.829,0,0,1,.829.83Zm0,0" transform="translate(-378.615 -497.134)" fill="#fff"/>
      <path id="Path_2354" data-name="Path 2354" d="M336.987,284.977a3.31,3.31,0,1,0,3.058,2.043,3.309,3.309,0,0,0-3.058-2.043Zm1.7,5.01a2.4,2.4,0,1,1,0-3.4,2.4,2.4,0,0,1,0,3.4Zm0,0" transform="translate(-312.41 -277.208)" fill="#fff"/>
    </g>
    <g id="Group_1113-2" data-name="Group 1113" transform="translate(238 6879.066)" opacity="0.1">
      <path id="Path_2355" data-name="Path 2355" d="M331.5,217.453a2.033,2.033,0,0,1-1.555-.726,2.09,2.09,0,0,1-.491-1.512h-3.229a.507.507,0,0,1-.507-.507v-3.419a.507.507,0,0,1,.6-.5l.03.006a1.042,1.042,0,1,0,0-2.05l-.03.006a.507.507,0,0,1-.6-.5v-3.746a.507.507,0,0,1,.507-.507h8.411a2.3,2.3,0,0,1,2.3,2.3v8.411a.507.507,0,0,1-.507.507h-2.88a2.056,2.056,0,0,1-2.017,2.237Zm-4.767-3.251h3.318a.507.507,0,0,1,.5.6l-.069.378a1.079,1.079,0,0,0,.239.895,1.011,1.011,0,0,0,.8.367,1.042,1.042,0,0,0,1.009-1.229l-.075-.41a.507.507,0,0,1,.5-.6h2.972v-7.9a1.285,1.285,0,0,0-1.283-1.283h-7.9v2.71a2.057,2.057,0,0,1,0,4.094Zm0,0" transform="translate(-311.811 -204)" fill="#fff"/>
      <path id="Path_2356" data-name="Path 2356" d="M140.909,284.242a.507.507,0,0,0,.507-.507V281.9a.507.507,0,0,0-.507-.507H137.43a.507.507,0,0,0-.5.6l.075.41A1.042,1.042,0,0,1,136,283.63a1.012,1.012,0,0,1-.8-.367,1.08,1.08,0,0,1-.239-.895l.069-.378a.507.507,0,0,0-.5-.6h-3.318v-2.383a2.056,2.056,0,0,0,0-4.094V271.7a.507.507,0,0,0-.507-.507H122.3a2.3,2.3,0,0,0-2.3,2.3V290.31a2.3,2.3,0,0,0,2.3,2.3h16.822a2.3,2.3,0,0,0,2.3-2.3v-1.471a.507.507,0,0,0-1.014,0v1.471a1.285,1.285,0,0,1-1.283,1.283h-7.9v-3.27a.507.507,0,0,0-.6-.5l-.031.006a1.042,1.042,0,1,1,0-2.05l.03.006a.507.507,0,0,0,.6-.5v-2.881h2.721a2.089,2.089,0,0,0,.491,1.512,2.049,2.049,0,0,0,3.6-1.512H140.4v1.329a.507.507,0,0,0,.507.507Zm-19.9-10.753a1.285,1.285,0,0,1,1.283-1.283h7.9v3.239a.507.507,0,0,0,.6.5l.03-.006a1.042,1.042,0,1,1,0,2.05l-.031-.006a.507.507,0,0,0-.6.5v2.912h-2.176a2.058,2.058,0,0,0-3.95,0h-3.061Zm8.068,11.737a2.056,2.056,0,0,0,1.119,3.626v2.742h-7.9a1.285,1.285,0,0,1-1.283-1.283v-7.9H124.5a.507.507,0,0,0,.507-.485,1.042,1.042,0,0,1,2.083,0,.507.507,0,0,0,.506.485h2.6v2.352a2.051,2.051,0,0,0-1.119.468Zm0,0" transform="translate(-120 -266.649)" fill="#fff"/>
      <path id="Path_2357" data-name="Path 2357" d="M422.328,487.642a.507.507,0,1,1,.5-.408.511.511,0,0,1-.5.408Zm0,0" transform="translate(-401.418 -467.524)" fill="#fff"/>
    </g>
    <g id="Group_1110" data-name="Group 1110" transform="translate(266.76 6837.344)" opacity="0.1">
      <path id="Path_2398" data-name="Path 2398" d="M258.631,495.986h-4.2a1.355,1.355,0,0,1-1.355-1.414V491.75a.351.351,0,1,1,.7,0v2.822a.659.659,0,0,0,.653.714h4.2a.861.861,0,0,0,.872-.714V491.75a.351.351,0,1,1,.7,0v2.822a1.54,1.54,0,0,1-1.573,1.414Zm0,0" transform="translate(-246.295 -472.796)" fill="#fff"/>
      <path id="Path_2399" data-name="Path 2399" d="M207.334,274.986h-5.827a.7.7,0,0,1-.689-.581,7.684,7.684,0,0,0-1.93-3.674,7.35,7.35,0,1,1,11.065,0,7.685,7.685,0,0,0-1.93,3.674.7.7,0,0,1-.689.581Zm-2.918-15.738a6.645,6.645,0,0,0-5,11.02,8.364,8.364,0,0,1,2.092,4.01l5.823.006a8.388,8.388,0,0,1,2.1-4.016,6.645,6.645,0,0,0-4.566-11.006q-.222-.014-.444-.015Zm0,0" transform="translate(-194.073 -255.682)" fill="#fff"/>
      <path id="Path_2400" data-name="Path 2400" d="M283.783,550.873a1.6,1.6,0,0,1-1.6-1.6.378.378,0,0,1,.351-.381h2.491a.351.351,0,0,1,.351.351,1.6,1.6,0,0,1-1.6,1.627Zm-.835-1.276a.894.894,0,0,0,1.67,0Zm0,0" transform="translate(-273.436 -526.406)" fill="#fff"/>
      <path id="Path_2401" data-name="Path 2401" d="M246.305,504.572a.351.351,0,0,1-.035-.7l7.334-.751a.351.351,0,1,1,.07.7l-7.334.751-.035,0Zm0,0" transform="translate(-239.652 -483.724)" fill="#fff"/>
      <g id="Group_1128" data-name="Group 1128" transform="translate(0 0)">
        <g id="Group_1127" data-name="Group 1127" transform="translate(0 0)" clip-path="url(#clip-path-3)">
          <path id="Path_2402" data-name="Path 2402" d="M246.858,525.948a.351.351,0,0,1-.035-.7l7.28-.746a.351.351,0,1,1,.07.7l-7.279.748-.036,0Zm0,0" transform="translate(-240.151 -503.658)" fill="#fff"/>
          <path id="Path_2403" data-name="Path 2403" d="M300.546,217.021a.351.351,0,0,1-.351-.351v-1.438a.351.351,0,0,1,.7,0v1.438a.351.351,0,0,1-.351.351Zm0,0" transform="translate(-290.226 -214.972)" fill="#fff"/>
        </g>
      </g>
      <path id="Path_2404" data-name="Path 2404" d="M228.244,236.585a.351.351,0,0,1-.3-.175l-.718-1.245a.351.351,0,0,1,.608-.351l.718,1.245a.351.351,0,0,1-.3.526Zm0,0" transform="translate(-222.138 -233.391)" fill="#fff"/>
      <g id="Group_1130" data-name="Group 1130" transform="translate(0 0)">
        <g id="Group_1129" data-name="Group 1129" transform="translate(0 0)" clip-path="url(#clip-path-3)">
          <path id="Path_2405" data-name="Path 2405" d="M175.4,289.617a.344.344,0,0,1-.175-.047l-1.244-.719a.351.351,0,1,1,.351-.607l1.244.719a.351.351,0,0,1-.175.654Zm0,0" transform="translate(-172.371 -283.327)" fill="#fff"/>
          <path id="Path_2406" data-name="Path 2406" d="M156.343,362.045H154.9a.351.351,0,1,1,0-.7h1.438a.351.351,0,1,1,0,.7Zm0,0" transform="translate(-154.43 -351.534)" fill="#fff"/>
        </g>
      </g>
      <path id="Path_2407" data-name="Path 2407" d="M174.689,425.018a.351.351,0,0,1-.175-.655l1.245-.718a.351.351,0,1,1,.351.608l-1.245.719a.349.349,0,0,1-.175.047Zm0,0" transform="translate(-172.877 -409.574)" fill="#fff"/>
      <path id="Path_2408" data-name="Path 2408" d="M363.691,236.585a.351.351,0,0,1-.3-.526l.717-1.245a.351.351,0,0,1,.608.351l-.719,1.245a.35.35,0,0,1-.3.175Zm0,0" transform="translate(-349.103 -233.391)" fill="#fff"/>
      <g id="Group_1132" data-name="Group 1132" transform="translate(0 0)">
        <g id="Group_1131" data-name="Group 1131" transform="translate(0 0)" clip-path="url(#clip-path-3)">
          <path id="Path_2409" data-name="Path 2409" d="M409.24,289.617a.351.351,0,0,1-.175-.654l1.244-.719a.351.351,0,1,1,.351.607l-1.244.719a.343.343,0,0,1-.175.047Zm0,0" transform="translate(-391.572 -283.327)" fill="#fff"/>
          <path id="Path_2410" data-name="Path 2410" d="M427.148,362.045h-1.438a.351.351,0,1,1,0-.7h1.438a.351.351,0,1,1,0,.7Zm0,0" transform="translate(-406.929 -351.534)" fill="#fff"/>
        </g>
      </g>
      <path id="Path_2411" data-name="Path 2411" d="M410.054,425.1a.355.355,0,0,1-.175-.047l-1.244-.719a.351.351,0,1,1,.351-.608l1.244.718a.351.351,0,0,1-.175.655Zm0,0" transform="translate(-391.171 -409.651)" fill="#fff"/>
      <path id="Path_2412" data-name="Path 2412" d="M255.134,388.213a.351.351,0,0,1-.341-.271l-1.7-7.3a.351.351,0,0,1,.464-.408l1.59.59,1.319-.8a.35.35,0,0,1,.363,0l1.319.8,1.588-.59a.351.351,0,0,1,.464.408l-1.7,7.3a.351.351,0,0,1-.683-.159l1.551-6.661-1.135.421a.352.352,0,0,1-.3-.029l-1.283-.773-1.282.775a.351.351,0,0,1-.3.029l-1.135-.421,1.553,6.66a.352.352,0,0,1-.343.43Zm0,0" transform="translate(-246.298 -368.91)" fill="#fff"/>
    </g>
    <g id="Group_1111" data-name="Group 1111" transform="translate(294.963 6872.653)" opacity="0.1">
      <path id="Path_2413" data-name="Path 2413" d="M123.809,237.695H102.177A3.181,3.181,0,0,1,99,234.517v-18.34A3.181,3.181,0,0,1,102.177,213h21.632a3.181,3.181,0,0,1,3.177,3.177v18.34a3.181,3.181,0,0,1-3.177,3.177Zm-21.632-23.748a2.233,2.233,0,0,0-2.231,2.231v18.34a2.233,2.233,0,0,0,2.231,2.231h21.632a2.233,2.233,0,0,0,2.231-2.231v-18.34a2.233,2.233,0,0,0-2.231-2.231Zm0,0" transform="translate(-99 -213)" fill="#fff"/>
      <path id="Path_2414" data-name="Path 2414" d="M340.733,458.38H333.3a.473.473,0,0,1,0-.946h7.436a.473.473,0,0,1,0,.946Zm0,0" transform="translate(-317.017 -440.91)" fill="#fff"/>
      <path id="Path_2415" data-name="Path 2415" d="M340.733,508.989H333.3a.473.473,0,1,1,0-.946h7.436a.473.473,0,0,1,0,.946Zm0,0" transform="translate(-317.017 -488.098)" fill="#fff"/>
      <path id="Path_2416" data-name="Path 2416" d="M340.733,357.161H333.3a.473.473,0,0,1,0-.946h7.436a.473.473,0,0,1,0,.946Zm0,0" transform="translate(-317.017 -346.534)" fill="#fff"/>
      <path id="Path_2417" data-name="Path 2417" d="M340.733,407.77H333.3a.473.473,0,0,1,0-.946h7.436a.473.473,0,0,1,0,.946Zm0,0" transform="translate(-317.017 -393.722)" fill="#fff"/>
      <path id="Path_2418" data-name="Path 2418" d="M126.513,293.676H99.473a.473.473,0,1,1,0-.946h27.04a.473.473,0,0,1,0,.946Zm0,0" transform="translate(-99 -287.34)" fill="#fff"/>
      <path id="Path_2419" data-name="Path 2419" d="M179.6,241.164a1.472,1.472,0,1,1,1.472-1.472,1.474,1.474,0,0,1-1.472,1.472Zm0-2a.526.526,0,1,0,.526.526.527.527,0,0,0-.526-.526Zm0,0" transform="translate(-172.78 -236.514)" fill="#fff"/>
      <path id="Path_2420" data-name="Path 2420" d="M129.167,241.164a1.472,1.472,0,1,1,1.473-1.472,1.474,1.474,0,0,1-1.473,1.472Zm0-2a.526.526,0,1,0,.526.526.527.527,0,0,0-.526-.526Zm0,0" transform="translate(-125.755 -236.514)" fill="#fff"/>
      <path id="Path_2421" data-name="Path 2421" d="M230.038,241.164a1.472,1.472,0,1,1,1.473-1.472,1.474,1.474,0,0,1-1.473,1.472Zm0-2a.526.526,0,1,0,.526.526.527.527,0,0,0-.526-.526Zm0,0" transform="translate(-219.807 -236.514)" fill="#fff"/>
      <path id="Path_2422" data-name="Path 2422" d="M162.058,367.425h-8.585a.473.473,0,0,1-.473-.473V356.688a.473.473,0,0,1,.473-.473h8.585a.473.473,0,0,1,.473.473v10.264a.473.473,0,0,1-.473.473Zm-8.112-.946h7.639v-9.317h-7.639Zm0,0" transform="translate(-149.35 -346.534)" fill="#fff"/>
    </g>
    <g id="Group_1114-2" data-name="Group 1114" transform="translate(233 6792)" opacity="0.1">
      <path id="Path_2395" data-name="Path 2395" d="M205.767,310.873a.507.507,0,1,1,.5-.408.511.511,0,0,1-.5.408Zm0,0" transform="translate(-198.785 -302.187)" fill="#fff"/>
      <g id="Group_1125" data-name="Group 1125" transform="translate(0 0)">
        <g id="Group_1124" data-name="Group 1124" transform="translate(0)" clip-path="url(#clip-path-6)">
          <path id="Path_2396" data-name="Path 2396" d="M342.826,464.882a.507.507,0,1,1,.5-.428.512.512,0,0,1-.5.428Zm0,0" transform="translate(-326.578 -445.785)" fill="#fff"/>
          <path id="Path_2397" data-name="Path 2397" d="M140.548,207.769a.506.506,0,0,0-.437-.329l-2.764-.207-.207-2.764a.507.507,0,0,0-.864-.321l-2.209,2.209a2.035,2.035,0,0,0-.6,1.369c0,.009,0,.018,0,.027l.03,1.693a11.55,11.55,0,1,0,1.653,1.636l1.673.027h.027a2.036,2.036,0,0,0,1.369-.6l2.209-2.209a.506.506,0,0,0,.117-.535Zm-5.764-.694,1.428-1.427.139,1.865-1.839,1.842-.028-1.6a1.025,1.025,0,0,1,.3-.677Zm-8.527,21.87a10.523,10.523,0,1,1,7.021-18.355l-1.174,1.174a8.858,8.858,0,0,0-8.852-1.683.507.507,0,0,0,.345.954,7.845,7.845,0,0,1,7.789,1.448l-1.176,1.176a6.191,6.191,0,1,0-1.139,10.279.507.507,0,0,0-.462-.9,5.111,5.111,0,0,1-2.351.565,5.178,5.178,0,1,1,3.232-9.221l-1.183,1.183a3.524,3.524,0,1,0,.731.7l1.178-1.178a5.172,5.172,0,0,1,.958,4.963.507.507,0,0,0,.962.319,6.187,6.187,0,0,0-1.2-6l1.175-1.174a7.851,7.851,0,1,1-12.2.608.507.507,0,0,0-.819-.6,8.865,8.865,0,1,0,13.733-.728L134,211.3a10.518,10.518,0,0,1-7.743,17.642Zm2.506-10.523a2.507,2.507,0,1,1-1.187-2.13l-1.617,1.617a.507.507,0,1,0,.717.717l1.636-1.636a2.491,2.491,0,0,1,.451,1.432Zm8.743-8.625a1.024,1.024,0,0,1-.677.3l-1.6-.026.974-.974c.011-.011.021-.022.031-.034l.832-.834,1.865.139Zm0,0" transform="translate(-114.364 -203.482)" fill="#fff"/>
        </g>
      </g>
    </g>
  </g>
</svg>
