<svg id="Cloud_Services" data-name="Cloud Services" xmlns="http://www.w3.org/2000/svg" xmlns:xlink="http://www.w3.org/1999/xlink" width="165.624" height="166.491" viewBox="0 0 165.624 166.491">
  <defs>
    <clipPath id="clip-path">
      <rect id="Rectangle_606" data-name="Rectangle 606" width="165.624" height="166.491" fill="none"/>
    </clipPath>
  </defs>
  <rect id="Rectangle_595" data-name="Rectangle 595" width="73.307" height="19.577" transform="translate(46.175 115.209)" fill="#fbfdff"/>
  <path id="Path_70" data-name="Path 70" d="M492.041,557.173V544.956h-7.288v19.576H558.06v-7.359Zm0,0" transform="translate(-438.578 -429.746)" fill="#e4f0fe"/>
  <rect id="Rectangle_596" data-name="Rectangle 596" width="63.953" height="9.789" transform="translate(50.853 105.529)" fill="#453f46"/>
  <rect id="Rectangle_597" data-name="Rectangle 597" width="63.953" height="9.789" transform="translate(50.853 134.732)" fill="#453f46"/>
  <rect id="Rectangle_598" data-name="Rectangle 598" width="73.307" height="19.577" transform="translate(46.175 144.467)" fill="#fbfdff"/>
  <path id="Path_71" data-name="Path 71" d="M552.681,416.815a30.958,30.958,0,0,0-7.483.915,46.78,46.78,0,0,0-89.879,2.43l-2.005,7.075a26.023,26.023,0,1,0-4.136,51.715H557.258c19.263-5.168,26.332-18.094,26.332-31.227a30.909,30.909,0,0,0-30.909-30.907Zm0,0" transform="translate(-420.602 -383.094)" fill="#fefeff"/>
  <path id="Path_72" data-name="Path 72" d="M492.041,598.488V586.27h-7.288v19.577H558.06v-7.358Zm0,0" transform="translate(-438.578 -441.803)" fill="#e4f0fe"/>
  <path id="Path_73" data-name="Path 73" d="M594.088,436.441c2.4-.6,7.6-.554,10.176-.554a30.782,30.782,0,0,1,19.134,6.632,30.869,30.869,0,0,0-24.966-12.686c-1.475,0-5.618-.254-7.037-.054a46.528,46.528,0,0,1,2.693,6.661Zm0,0" transform="translate(-469.699 -396.112)" fill="#cad8eb"/>
  <path id="Path_74" data-name="Path 74" d="M428.988,458.98a26.026,26.026,0,0,1,30.158-25.692l2-7.075a46.773,46.773,0,0,1,75.915-23.639,46.773,46.773,0,0,0-81.746,17.587l-2.005,7.075a26.024,26.024,0,0,0-19.7,46.547,25.89,25.89,0,0,1-4.624-14.8Zm0,0" transform="translate(-420.602 -383.094)" fill="#dfe8f7"/>
  <rect id="Rectangle_599" data-name="Rectangle 599" width="4.895" height="4.895" transform="translate(53.463 122.549)" fill="#023e57"/>
  <rect id="Rectangle_600" data-name="Rectangle 600" width="4.895" height="4.895" transform="translate(63.252 122.549)" fill="#023e57"/>
  <rect id="Rectangle_601" data-name="Rectangle 601" width="4.895" height="4.893" transform="translate(53.463 151.809)" fill="#023e57"/>
  <rect id="Rectangle_602" data-name="Rectangle 602" width="4.895" height="4.893" transform="translate(63.252 151.809)" fill="#fff"/>
  <rect id="Rectangle_603" data-name="Rectangle 603" width="73.307" height="19.577" transform="translate(46.175 85.952)" fill="#fbfdff"/>
  <path id="Path_75" data-name="Path 75" d="M492.041,515.859V503.641h-7.288v19.577H558.06v-7.359Zm0,0" transform="translate(-438.578 -417.689)" fill="#e4f0fe"/>
  <rect id="Rectangle_604" data-name="Rectangle 604" width="4.895" height="4.893" transform="translate(53.463 93.294)" fill="#023e57"/>
  <rect id="Rectangle_605" data-name="Rectangle 605" width="4.895" height="4.893" transform="translate(63.252 93.294)" fill="#fff"/>
  <path id="Path_76" data-name="Path 76" d="M584.1,466.89a4.932,4.932,0,1,1-4.932-4.932,4.932,4.932,0,0,1,4.932,4.932Zm0,0" transform="translate(-464.693 -405.525)" fill="#bf353e"/>
  <path id="Path_77" data-name="Path 77" d="M562.143,430.491a4.932,4.932,0,1,1-4.931-4.932,4.931,4.931,0,0,1,4.931,4.932Zm0,0" transform="translate(-458.284 -394.902)" fill="#bf353e"/>
  <path id="Path_78" data-name="Path 78" d="M517,411.6a4.933,4.933,0,1,1-4.932-4.932A4.932,4.932,0,0,1,517,411.6Zm0,0" transform="translate(-445.11 -389.389)" fill="#bf353e"/>
  <g id="Group_34" data-name="Group 34">
    <g id="Group_33" data-name="Group 33" clip-path="url(#clip-path)">
      <path id="Path_79" data-name="Path 79" d="M494.812,473.861a4.933,4.933,0,1,1-4.934-4.933,4.932,4.932,0,0,1,4.934,4.933Zm0,0" transform="translate(-438.634 -407.559)" fill="#bf353e"/>
      <path id="Path_80" data-name="Path 80" d="M565.075,414.016a33.447,33.447,0,0,0-5.878.518,49.288,49.288,0,0,0-93.978,4.668l4.739,1.221a44.776,44.776,0,0,1,44.27-33.254c20.239.576,35.773,14.374,41.716,33.139,9.582-2.382,19.205-1.418,27.077,4.978a28.653,28.653,0,0,1,10.362,25.336A28.992,28.992,0,0,1,576.566,473.5c-5.544,2.512-10.877,2.187-16.811,2.187v4.894c5.968,0,11.386.351,17.058-1.879a33.879,33.879,0,0,0,20.912-24.285c4.365-20.469-11.71-40.4-32.65-40.4Zm0,0" transform="translate(-432.877 -382.269)" fill="#023e57"/>
      <path id="Path_81" data-name="Path 81" d="M443.034,492.762c-15.287-3.235-23.21-21.159-15.306-34.639,8.158-13.913,27.03-14.985,37.684-3.508l3.557-3.363a28.964,28.964,0,0,0-15.412-9.036l0,.014c-20.733-3.828-39.211,15.839-32.538,36.35,3.057,9.4,11.273,17.114,21.074,18.984,5.267,1,10.927.549,16.264.549v-4.895c-5.074,0-10.29.328-15.319-.457Zm0,0" transform="translate(-419.572 -399.628)" fill="#023e57"/>
    </g>
  </g>
  <rect id="Rectangle_607" data-name="Rectangle 607" width="19.577" height="4.895" transform="translate(92.618 122.549)" fill="#023e57"/>
  <rect id="Rectangle_608" data-name="Rectangle 608" width="4.895" height="4.895" transform="translate(80.544 142.02)" fill="#023e57"/>
  <rect id="Rectangle_609" data-name="Rectangle 609" width="19.577" height="4.893" transform="translate(92.618 151.809)" fill="#023e57"/>
  <rect id="Rectangle_610" data-name="Rectangle 610" width="4.895" height="4.895" transform="translate(80.544 103.081)" fill="#023e57"/>
  <rect id="Rectangle_611" data-name="Rectangle 611" width="19.577" height="4.893" transform="translate(92.618 93.294)" fill="#023e57"/>
  <path id="Path_82" data-name="Path 82" d="M537.529,452.321h7.6a7.381,7.381,0,1,0-.088-4.894H532.634v24.46H527.74v-36.01l5.358-5.359a7.4,7.4,0,1,0-3.351-3.571l-6.9,6.9v38.038H517.95V419.71l-6.515-6.517a7.4,7.4,0,1,0-3.165,3.756l4.786,4.788v50.149h-4.893V452.1H495.727A7.38,7.38,0,1,0,495.82,457h7.448v14.891H481.3v24.471h5v4.786h-5v24.471h5V530.4h-5v24.471h78.2V530.4h-4.676v-4.786H559.5V501.143h-4.676v-4.786H559.5V471.886H537.529Zm14.519-5.058a2.485,2.485,0,1,1-2.484,2.484,2.487,2.487,0,0,1,2.484-2.484ZM536.5,421.485a2.485,2.485,0,1,1-2.486,2.484,2.487,2.487,0,0,1,2.486-2.484Zm-34.454-10.894a2.486,2.486,0,1,1,2.485,2.486,2.487,2.487,0,0,1-2.485-2.486Zm-13.231,46.576a2.485,2.485,0,1,1,2.487-2.484,2.487,2.487,0,0,1-2.487,2.484Zm-2.621,48.87H554.6v14.682H486.192ZM549.928,530.4H527.9V535.3h26.7v14.682H486.192V535.3h27.026V530.4H491.194v-4.786h58.733Zm4.677-38.939H527.9v4.9h22.025v4.786H491.194v-4.786h22.024v-4.9H486.192V476.78H554.6Zm0,0" transform="translate(-437.569 -388.381)" fill="#023e57"/>
</svg>
