<svg xmlns="http://www.w3.org/2000/svg" width="741.84" height="409.103" viewBox="0 0 741.84 409.103">
  <g id="contact-us-img" transform="translate(-3.943 -738.695)">
    <g id="notes" transform="translate(69 1058.727)" opacity="0.17">
      <g id="post_it_II" data-name="post it II" transform="translate(22.789 0)">
        <rect id="Rectangle_1359" data-name="Rectangle 1359" width="49.804" height="49.804" transform="translate(9.503 0) rotate(11)" fill="#04b4eb"/>
        <g id="lines" transform="translate(11.038 16.026)">
          <line id="Line_117" data-name="Line 117" x2="34.641" y2="7.458" transform="translate(3.408)" fill="none" stroke="#023e57" stroke-linecap="round" stroke-linejoin="round" stroke-width="2"/>
          <line id="Line_118" data-name="Line 118" x2="33.431" y2="7.2" transform="translate(2.167 6.486)" fill="none" stroke="#023e57" stroke-linecap="round" stroke-linejoin="round" stroke-width="2"/>
          <line id="Line_119" data-name="Line 119" x2="25.616" y2="5.515" transform="translate(0 13.136)" fill="none" stroke="#023e57" stroke-linecap="round" stroke-linejoin="round" stroke-width="2"/>
        </g>
      </g>
      <g id="post_it" data-name="post it" transform="translate(0 21.993)">
        <rect id="Rectangle_1360" data-name="Rectangle 1360" width="49.804" height="49.804" transform="matrix(0.916, -0.401, 0.401, 0.916, 0, 21.444)" fill="#04b4eb"/>
        <g id="lines-2" data-name="lines" transform="translate(17.511 24.542)">
          <line id="Line_120" data-name="Line 120" y1="8.855" x2="21.528" fill="none" stroke="#023e57" stroke-linecap="round" stroke-linejoin="round" stroke-width="2"/>
          <line id="Line_121" data-name="Line 121" y1="4.145" x2="10.081" transform="translate(4.353 12.495)" fill="none" stroke="#023e57" stroke-linecap="round" stroke-linejoin="round" stroke-width="2"/>
        </g>
        <path id="Path_4093" data-name="Path 4093" d="M68.988,239.662l-.528,2.714,19.065-7.1,14.84,31.108,2.718.531L88.7,232.28Z" transform="translate(-42.478 -232.28)" fill="#fff"/>
      </g>
    </g>
    <g id="Group_1252" data-name="Group 1252" transform="translate(-539.117 -870.047)" opacity="0.17">
      <path id="Path_4095" data-name="Path 4095" d="M969.538,293.253l-34.827-6.771-10.46-21.274,5.9-30.349,48.89,9.5Z" transform="translate(-147.133 1709.254)" fill="#04b4eb"/>
      <g id="lines-3" data-name="lines" transform="translate(778.117 1957.793)">
        <line id="Line_122" data-name="Line 122" x2="28.569" y2="5.075" transform="translate(12.259)" fill="#feba91" stroke="#fff" stroke-linecap="round" stroke-linejoin="round" stroke-width="1"/>
        <line id="Line_123" data-name="Line 123" x2="28.569" y2="5.075" transform="translate(11.367 5.021)" fill="#feba91" stroke="#fff" stroke-linecap="round" stroke-linejoin="round" stroke-width="1"/>
        <line id="Line_124" data-name="Line 124" x2="16.992" y2="3.017" transform="translate(10.551 10.29)" fill="#feba91" stroke="#fff" stroke-linecap="round" stroke-linejoin="round" stroke-width="1"/>
        <path id="Path_4096" data-name="Path 4096" d="M937.641,334.711l4-17.987L927.56,313.87" transform="translate(-927.56 -297.561)" fill="none" stroke="#fff" stroke-linecap="round" stroke-linejoin="round" stroke-width="1"/>
      </g>
    </g>
    <g id="Group_1260" data-name="Group 1260" transform="translate(-441.138 -1116.277)">
      <g id="Group_1253" data-name="Group 1253" opacity="0.17">
        <path id="shape" d="M835.47,0H1080.1V140.023a24.143,24.143,0,0,1-24.143,24.143H859.613a24.143,24.143,0,0,1-24.143-24.143V0Z" transform="translate(-92.049 1854.973)" fill="#023e57"/>
        <path id="Icon_simple-apple" data-name="Icon simple-apple" d="M11.319,38.749a8.849,8.849,0,0,1-2.047-1.892,25.38,25.38,0,0,1-1.751-2.392,23.143,23.143,0,0,1-2.929-5.983A22.5,22.5,0,0,1,3.37,21.329,13.3,13.3,0,0,1,5.019,14.6a9.511,9.511,0,0,1,3.455-3.59,9.213,9.213,0,0,1,4.673-1.382,7.716,7.716,0,0,1,1.859.247c.477.132,1.053.346,1.761.609.9.346,1.4.559,1.563.609a3.854,3.854,0,0,0,1.316.28,3.938,3.938,0,0,0,1.061-.214c.239-.082.691-.23,1.333-.51.635-.23,1.139-.428,1.538-.576a13.731,13.731,0,0,1,1.728-.428A8.155,8.155,0,0,1,27.2,9.562a11.205,11.205,0,0,1,3.192.691,8.611,8.611,0,0,1,4.043,3.225,8.1,8.1,0,0,0-1.193.9,10.074,10.074,0,0,0-2.024,2.476,8.39,8.39,0,0,0-1.06,4.146,8.492,8.492,0,0,0,1.382,4.706,8.771,8.771,0,0,0,2.524,2.527,6.468,6.468,0,0,0,1.382.74c-.2.617-.415,1.218-.666,1.81a23.346,23.346,0,0,1-2.057,3.8c-.711,1.037-1.27,1.81-1.695,2.32a9.173,9.173,0,0,1-1.942,1.805,4.322,4.322,0,0,1-2.389.717,5.3,5.3,0,0,1-1.7-.209c-.477-.156-.948-.332-1.408-.531a11.418,11.418,0,0,0-1.489-.559,7.436,7.436,0,0,0-1.915-.242,7.679,7.679,0,0,0-1.909.239,11.857,11.857,0,0,0-1.492.535c-.691.288-1.144.477-1.407.559a7.357,7.357,0,0,1-1.629.288,4.524,4.524,0,0,1-2.445-.74ZM22.6,8.375a6.128,6.128,0,0,1-3.246.717,6.6,6.6,0,0,1,.444-3.352A9.061,9.061,0,0,1,21.44,2.977,8.9,8.9,0,0,1,24.122.9a7.63,7.63,0,0,1,3.11-.9A7.48,7.48,0,0,1,26.821,3.4a9.771,9.771,0,0,1-1.645,2.9,8.3,8.3,0,0,1-2.61,2.073Z" transform="translate(840.699 1901.387)" fill="#fff"/>
      </g>
      <g id="earphones" transform="translate(448.08 1878.242)" opacity="0.17">
        <path id="cable" d="M357.575,70h-8.68s-9.789,98.166-75.378,86.093S70.288,121.489,65.46,214.839,134.667,257.5,134.667,257.5" transform="translate(-65.234 -66.702)" fill="none" stroke="#023e57" stroke-linecap="round" stroke-linejoin="round" stroke-width="6"/>
        <rect id="shape-2" data-name="shape" width="9.724" height="6.707" transform="translate(285.617)" fill="#04b4eb"/>
        <path id="shape-3" data-name="shape" d="M237.983,538.442c3.222-2.657,4.315-19.266-9.238-11.956s-3.541,17.9,3.109,15.159S237.983,538.442,237.983,538.442Z" transform="translate(-162.508 -348.786)" fill="#04b4eb"/>
        <path id="cable-2" data-name="cable" d="M195.34,266.94s-160.549,72.494-83.3,164.849" transform="translate(-81.235 -188.894)" fill="none" stroke="#023e57" stroke-linecap="round" stroke-linejoin="round" stroke-width="7.33"/>
        <path id="shape-4" data-name="shape" d="M140.151,681.556c3.511,2.277,19.676-1.617,8.661-12.381s-18.139,1.947-13.546,7.481S140.151,681.556,140.151,681.556Z" transform="translate(-107.807 -435.86)" fill="#04b4eb"/>
        <rect id="shape-5" data-name="shape" width="25.35" height="10.058" rx="5.029" transform="translate(108.53 73.886)" fill="#04b4eb"/>
      </g>
    </g>
    <g id="Group_1259" data-name="Group 1259" transform="translate(-273 -1045.17)" opacity="0.17">
      <g id="cup" transform="translate(358.98 1792.883)">
        <path id="handle" d="M6.783,0H33.92V14.191H6.783A6.783,6.783,0,0,1,0,7.409V6.794A6.783,6.783,0,0,1,6.783.011Z" transform="translate(0 38.869) rotate(-7.58)" fill="#fff" stroke="#023e57" stroke-linecap="round" stroke-linejoin="round" stroke-width="6"/>
        <circle id="mug" cx="35.507" cy="35.507" r="35.507" transform="translate(28.432)" fill="#fff" stroke="#023e57" stroke-linecap="round" stroke-linejoin="round" stroke-width="6"/>
        <circle id="juice" cx="25.107" cy="25.107" r="25.107" transform="translate(38.831 10.4)" fill="#04b4eb"/>
      </g>
    </g>
    <g id="Group_1254" data-name="Group 1254" transform="translate(-1779.839 1772.527) rotate(-90)" opacity="0.17">
      <rect id="shape-6" data-name="shape" width="50.081" height="109.12" rx="6" transform="translate(854.902 2038.297) rotate(89.88)" fill="#023e57"/>
      <path id="screen" d="M953,529.8v-8.415h-1.788a1.074,1.074,0,0,1-1.059-1.085l-.03-15.561a1.07,1.07,0,0,1,1.051-1.089h1.784v-8.415a4.357,4.357,0,0,0-4.3-4.414l-92.966.19a4.354,4.354,0,0,0-4.308,4.433l.068,34.565a4.353,4.353,0,0,0,4.3,4.414l92.966-.186A4.361,4.361,0,0,0,953,529.8Z" transform="translate(-101.926 1550.441)" fill="none" stroke="#fff" stroke-linecap="round" stroke-linejoin="round" stroke-width="2"/>
    </g>
    <g id="Group_1255" data-name="Group 1255" transform="translate(-721.49 -1116.824)" opacity="0.17">
      <rect id="shape-7" data-name="shape" width="45.868" height="80.673" rx="22.934" transform="translate(915.717 2030) rotate(17.38)" fill="#fff" stroke="#023e57" stroke-linecap="round" stroke-linejoin="round" stroke-width="6"/>
      <path id="Icon_simple-apple-2" data-name="Icon simple-apple" d="M3.527,17.192a3.926,3.926,0,0,1-.908-.839,11.26,11.26,0,0,1-.777-1.061,10.268,10.268,0,0,1-1.3-2.654A9.981,9.981,0,0,1,0,9.464,5.9,5.9,0,0,1,.731,6.478,4.22,4.22,0,0,1,2.264,4.885a4.088,4.088,0,0,1,2.073-.613,3.423,3.423,0,0,1,.825.109c.212.058.467.153.781.27.4.153.62.248.693.27a1.71,1.71,0,0,0,.584.124,1.747,1.747,0,0,0,.471-.095c.106-.036.307-.1.591-.226.282-.1.505-.19.683-.255a6.092,6.092,0,0,1,.766-.19,3.618,3.618,0,0,1,.838-.036,4.971,4.971,0,0,1,1.416.307A3.82,3.82,0,0,1,13.78,5.98a3.593,3.593,0,0,0-.529.4,4.469,4.469,0,0,0-.9,1.1,3.722,3.722,0,0,0-.47,1.84,3.767,3.767,0,0,0,.613,2.088,3.891,3.891,0,0,0,1.12,1.121,2.87,2.87,0,0,0,.613.328c-.088.274-.184.54-.3.8a10.358,10.358,0,0,1-.912,1.686c-.315.46-.564.8-.752,1.029a4.07,4.07,0,0,1-.861.8,1.918,1.918,0,0,1-1.06.318,2.35,2.35,0,0,1-.755-.093c-.212-.069-.42-.147-.625-.236a5.066,5.066,0,0,0-.661-.248,3.3,3.3,0,0,0-.85-.107,3.407,3.407,0,0,0-.847.106,5.261,5.261,0,0,0-.662.237c-.307.128-.507.212-.624.248a3.264,3.264,0,0,1-.723.128A2.007,2.007,0,0,1,3.517,17.2Zm5-13.476a2.719,2.719,0,0,1-1.44.318,2.927,2.927,0,0,1,.2-1.487,4.02,4.02,0,0,1,.73-1.226A3.948,3.948,0,0,1,9.207.4a3.385,3.385,0,0,1,1.38-.4A3.319,3.319,0,0,1,10.4,1.511,4.335,4.335,0,0,1,9.674,2.8a3.682,3.682,0,0,1-1.158.92Z" transform="matrix(0.966, 0.259, -0.259, 0.966, 922.81, 2062.857)" fill="#023e57"/>
    </g>
    <g id="Group_1258" data-name="Group 1258" transform="translate(29.62 -1070.162)" opacity="0.17">
      <rect id="Rectangle_1361" data-name="Rectangle 1361" width="101.753" height="120.073" transform="matrix(0.987, -0.16, 0.16, 0.987, 596.556, 2020.82)" fill="#023e57"/>
      <rect id="Rectangle_1362" data-name="Rectangle 1362" width="93.338" height="110.148" transform="translate(571.977 2027.469) rotate(-21.44)" fill="#fff" stroke="#023e57" stroke-linecap="round" stroke-linejoin="round" stroke-width="3"/>
      <g id="Group_1257" data-name="Group 1257">
        <line id="Line_125" data-name="Line 125" x1="16.062" y2="6.308" transform="translate(567.748 2041.293)" fill="none" stroke="#023e57" stroke-linecap="round" stroke-linejoin="round" stroke-width="3"/>
        <line id="Line_126" data-name="Line 126" x1="16.059" y2="6.308" transform="translate(574.432 2058.307)" fill="none" stroke="#023e57" stroke-linecap="round" stroke-linejoin="round" stroke-width="3"/>
        <line id="Line_127" data-name="Line 127" x1="16.062" y2="6.304" transform="translate(581.112 2075.326)" fill="none" stroke="#023e57" stroke-linecap="round" stroke-linejoin="round" stroke-width="3"/>
        <line id="Line_128" data-name="Line 128" x1="16.059" y2="6.308" transform="translate(587.796 2092.342)" fill="none" stroke="#023e57" stroke-linecap="round" stroke-linejoin="round" stroke-width="3"/>
        <line id="Line_129" data-name="Line 129" x1="16.059" y2="6.308" transform="translate(594.479 2109.355)" fill="none" stroke="#023e57" stroke-linecap="round" stroke-linejoin="round" stroke-width="3"/>
        <g id="Group_1256" data-name="Group 1256">
          <line id="Line_130" data-name="Line 130" y1="12.081" x2="30.766" transform="translate(601.581 2036.615)" fill="none" stroke="#023e57" stroke-linecap="round" stroke-linejoin="round" stroke-width="3"/>
          <line id="Line_131" data-name="Line 131" y1="12.081" x2="30.766" transform="translate(616.022 2037.17)" fill="none" stroke="#023e57" stroke-linecap="round" stroke-linejoin="round" stroke-width="3"/>
          <line id="Line_132" data-name="Line 132" y1="2.459" x2="6.263" transform="translate(603.824 2051.584)" fill="none" stroke="#023e57" stroke-linecap="round" stroke-linejoin="round" stroke-width="3"/>
          <line id="Line_133" data-name="Line 133" y1="4.19" x2="10.669" transform="translate(611.393 2069.123)" fill="none" stroke="#023e57" stroke-linecap="round" stroke-linejoin="round" stroke-width="3"/>
          <line id="Line_134" data-name="Line 134" y1="7.466" x2="19.015" transform="translate(608.979 2059.703)" fill="none" stroke="#023e57" stroke-linecap="round" stroke-linejoin="round" stroke-width="3"/>
          <line id="Line_135" data-name="Line 135" y1="4.186" x2="10.665" transform="translate(606.272 2056.082)" fill="none" stroke="#023e57" stroke-linecap="round" stroke-linejoin="round" stroke-width="3"/>
          <line id="Line_136" data-name="Line 136" y1="6.965" x2="17.74" transform="translate(621.651 2047.266)" fill="none" stroke="#023e57" stroke-linecap="round" stroke-linejoin="round" stroke-width="3"/>
        </g>
      </g>
      <g id="pen" transform="translate(659.542 2027.299)">
        <path id="Path_4098" data-name="Path 4098" d="M618.4,454.03l-1.974,7.257.182,68.763,3.985-.011-.182-68.759Z" transform="translate(-615.687 -454.03)" fill="#04b4eb"/>
        <path id="Path_4099" data-name="Path 4099" d="M616.89,620.756l7.208-.019-.345-16.647" transform="translate(-615.972 -547.135)" fill="none" stroke="#023e57" stroke-linecap="round" stroke-linejoin="round" stroke-width="6.05"/>
        <rect id="Rectangle_1363" data-name="Rectangle 1363" width="5.572" height="20.04" rx="2.786" transform="matrix(1, 0.006, -0.006, 1, 0.115, 10.924)" fill="#023e57"/>
        <line id="Line_137" data-name="Line 137" x1="0.243" y2="8.889" transform="translate(2.774 50.032)" fill="none" stroke="#023e57" stroke-linecap="round" stroke-linejoin="round" stroke-width="6.05"/>
      </g>
      <path id="pencil" d="M568.161,412.37l-.991,7.458,9.356,68.121,3.947-.543-9.352-68.121Z" transform="translate(74.419 1599.117)" fill="#04b4eb"/>
    </g>
  </g>
</svg>
