<svg id="Gaming_Application_development" data-name="Gaming Application development" xmlns="http://www.w3.org/2000/svg" width="105.512" height="174.424" viewBox="0 0 105.512 174.424">
  <rect id="Rectangle_590" data-name="Rectangle 590" width="94.666" height="127.091" transform="translate(2.236 19.008)" fill="#f8fafe"/>
  <path id="Path_46" data-name="Path 46" d="M548.943,574.155l-21.321-11.667-6.969,30.263,20.985,3.094a13.346,13.346,0,0,0,1.713.113,11.618,11.618,0,0,0,5.591-21.8Zm0,0" transform="translate(-471.271 -463.909)" fill="#c0d672"/>
  <path id="Path_47" data-name="Path 47" d="M554.594,496.994a12.452,12.452,0,0,0-13.417-8.2l-20.722,3.055,7.157,30.264L549.08,510.6a11.653,11.653,0,0,0,5.514-13.6Zm0,0" transform="translate(-471.222 -445.598)" fill="#c0d672"/>
  <path id="Path_48" data-name="Path 48" d="M539.686,434.357H470.7a12.678,12.678,0,0,0-12.746,12.672v5.218h94.667v-5.218a12.813,12.813,0,0,0-12.932-12.672Zm0,0" transform="translate(-455.716 -432.121)" fill="#f4efef"/>
  <path id="Path_49" data-name="Path 49" d="M552.469,623.8v14.835a12.739,12.739,0,0,1-12.746,12.745H470.7a12.74,12.74,0,0,1-12.746-12.745V623.8Zm0,0" transform="translate(-455.716 -479.12)" fill="#f4efef"/>
  <path id="Path_50" data-name="Path 50" d="M518.439,544.632a19.673,19.673,0,0,1,.783,23.779,19.875,19.875,0,0,1-7.754,6.483,19.691,19.691,0,0,1-27.989-17.85v-46.85a19.7,19.7,0,0,1,19.53-19.677,19.233,19.233,0,0,1,8.273,1.75,19.666,19.666,0,0,1,7.194,30.262,19.51,19.51,0,0,1-3.95,3.69,8.743,8.743,0,0,0-3.691,7.157v.409a8.731,8.731,0,0,0,3.727,7.155,22.821,22.821,0,0,1,3.876,3.69Zm0,0" transform="translate(-462.049 -446.053)" fill="#c5c5c5"/>
  <path id="Path_51" data-name="Path 51" d="M497.3,539.582v9.244a2.578,2.578,0,0,1-2.572,2.57,2.546,2.546,0,0,1-2.572-2.57v-9.244a2.577,2.577,0,0,1,2.572-2.572,2.634,2.634,0,0,1,1.827.745,2.424,2.424,0,0,1,.745,1.827Zm0,0" transform="translate(-464.201 -457.588)" fill="#6d7486"/>
  <path id="Path_52" data-name="Path 52" d="M508.418,643.541H525.9a2.236,2.236,0,1,0,0-4.473H508.418a2.236,2.236,0,0,0,0,4.473Zm0,0" transform="translate(-467.681 -482.907)" fill="#023e57"/>
  <path id="Path_53" data-name="Path 53" d="M470.6,475.39a2.242,2.242,0,0,0,2.236-2.236V471.29a2.236,2.236,0,1,0-4.472,0v1.863a2.242,2.242,0,0,0,2.236,2.236Zm0,0" transform="translate(-458.298 -440.729)" fill="#023e57"/>
  <path id="Path_54" data-name="Path 54" d="M470.6,510.393a2.241,2.241,0,0,0,2.236-2.236V483.186a2.236,2.236,0,1,0-4.472,0v24.971a2.241,2.241,0,0,0,2.236,2.236Zm0,0" transform="translate(-458.298 -443.68)" fill="#023e57"/>
  <path id="Path_55" data-name="Path 55" d="M498.87,548.049v-9.205a4.845,4.845,0,0,0-9.69,0v9.244a4.845,4.845,0,0,0,9.69-.039Zm-5.218,0v-9.205a.375.375,0,0,1,.746,0v9.244a.366.366,0,0,1-.373.334.4.4,0,0,1-.373-.372Zm0,0" transform="translate(-463.463 -456.85)" fill="#023e57"/>
  <path id="Path_56" data-name="Path 56" d="M470.6,533.959h6.708v21.953a22.115,22.115,0,0,0,9.355,17.89,21.857,21.857,0,0,0,12.672,4.023,22.272,22.272,0,0,0,8.648-1.751l20.386,2.982a13.316,13.316,0,0,0,2.086.149,13.859,13.859,0,0,0,6.6-26.016l-20.911-11.441a22.487,22.487,0,0,0-4.024-3.727,6.436,6.436,0,0,1-2.722-5.331v-.409a6.439,6.439,0,0,1,2.722-5.331,22.734,22.734,0,0,0,4.062-3.726L537.274,511.9a13.917,13.917,0,0,0,6.6-16.213c-2.013-6.6-8.535-10.622-15.84-9.766h-.073l-20.09,2.982a22.112,22.112,0,0,0-30.561,20.126v20.462H470.6a2.236,2.236,0,0,0,0,4.472Zm50.389,18.189a21.962,21.962,0,0,0-.783-3.094l14.685,8.05a9.438,9.438,0,0,1,4.473,10.994A9.321,9.321,0,0,1,529,574.62l-15.205-2.236a21.955,21.955,0,0,0,7.192-20.236Zm7.53-61.868c5.105-.559,9.614,2.16,10.994,6.632a9.416,9.416,0,0,1-4.435,10.995l-14.908,8.013a21.37,21.37,0,0,0,1.118-6.895,21.7,21.7,0,0,0-6.485-15.5,13.227,13.227,0,0,0-1.118-1.005Zm-46.738,18.745a17.5,17.5,0,1,1,27.693,14.239,10.934,10.934,0,0,0-4.585,8.982v.409a10.969,10.969,0,0,0,4.622,8.981,17.478,17.478,0,0,1,4.136,24.3,17.562,17.562,0,0,1-31.866-10.063Zm0,0" transform="translate(-458.298 -444.884)" fill="#023e57"/>
  <path id="Path_57" data-name="Path 57" d="M507.893,508.957a5.33,5.33,0,1,0-5.331-5.329,5.329,5.329,0,0,0,5.331,5.329Zm0-6.15a.857.857,0,1,1-.859.859.844.844,0,0,1,.859-.859Zm0,0" transform="translate(-466.783 -447.984)" fill="#023e57"/>
  <path id="Path_58" data-name="Path 58" d="M507.893,531.559a5.33,5.33,0,1,0-5.331-5.328,5.327,5.327,0,0,0,5.331,5.328Zm0-6.187a.857.857,0,1,1-.859.859.844.844,0,0,1,.859-.859Zm0,0" transform="translate(-466.783 -453.591)" fill="#023e57"/>
  <path id="Path_59" data-name="Path 59" d="M513.865,514.929a5.33,5.33,0,1,0,5.328-5.328,5.328,5.328,0,0,0-5.328,5.328Zm5.328-.856a.857.857,0,1,1-.856.856.867.867,0,0,1,.856-.856Zm0,0" transform="translate(-469.587 -450.788)" fill="#023e57"/>
  <path id="Path_60" data-name="Path 60" d="M496.591,520.26a5.33,5.33,0,1,0-5.33-5.331,5.33,5.33,0,0,0,5.33,5.331Zm0-6.187a.857.857,0,1,1-.858.856.867.867,0,0,1,.858-.856Zm0,0" transform="translate(-463.979 -450.788)" fill="#023e57"/>
  <path id="Path_61" data-name="Path 61" d="M511.03,566.309a2.036,2.036,0,0,0-2.162-2.086h-5.924a2.189,2.189,0,0,0-1.64.6,2.26,2.26,0,0,0-.709,1.528v3.839h-3.577a2.224,2.224,0,0,0-2.386,2.051v5.926a2.226,2.226,0,0,0,2.386,2.051h3.577v3.876a2.221,2.221,0,0,0,2.349,2.087h5.924a2.057,2.057,0,0,0,2.162-2.087v-3.839h3.764a2.059,2.059,0,0,0,2.2-2.051v-5.926a2.04,2.04,0,0,0-2.2-2.05H511.03Zm1.491,8.349v1.118h-3.654a2.473,2.473,0,0,0-2.31,2.422v3.541h-1.491V578.2a2.317,2.317,0,0,0-2.123-2.422H499.1v-1.118h3.839a2.294,2.294,0,0,0,2.123-2.423V568.7h1.491v3.541a2.474,2.474,0,0,0,2.31,2.423Zm0,0" transform="translate(-464.816 -464.339)" fill="#023e57"/>
  <path id="Path_62" data-name="Path 62" d="M558.253,501.824h-4.136V446.291a15.081,15.081,0,0,0-15.169-14.908H469.96a14.92,14.92,0,0,0-14.982,14.908V590.9a14.921,14.921,0,0,0,14.982,14.909h68.989A15.081,15.081,0,0,0,554.117,590.9V549.53h1.417a2.236,2.236,0,1,0,0-4.473h-1.417V520.831h1.044a2.236,2.236,0,1,0,0-4.472h-1.044V506.3h4.136a2.236,2.236,0,0,0,0-4.472ZM549.644,590.9a10.6,10.6,0,0,1-10.7,10.436H469.96A10.458,10.458,0,0,1,459.45,590.9V578.227h90.194Zm0-141.626h-61.2v4.472h61.2v33.543h-4.472a2.236,2.236,0,1,0,0,4.472h4.472v10.064h-2.2a2.236,2.236,0,0,0,0,4.472h2.2v24.225h-2.2a2.236,2.236,0,0,0,0,4.472h2.2v10.063h-4.472a2.236,2.236,0,1,0,0,4.473h4.472v24.225H459.45V453.745h14.464v-4.472H459.45v-2.981a10.458,10.458,0,0,1,10.51-10.436h68.989a10.6,10.6,0,0,1,10.7,10.436Z" transform="translate(-454.978 -431.383)" fill="#023e57"/>
</svg>
