<svg id="Healthcare_Software_Developemrnt" data-name="Healthcare Software Developemrnt" xmlns="http://www.w3.org/2000/svg" width="107.937" height="179.892" viewBox="0 0 107.937 179.892">
  <rect id="Rectangle_636" data-name="Rectangle 636" width="103.299" height="173.771" rx="13" transform="translate(2.711 2.353)" fill="#fff"/>
  <path id="Path_158" data-name="Path 158" d="M-472.114,369.238h-8.6a2.149,2.149,0,0,0-2.151,2.151,2.149,2.149,0,0,0,2.151,2.15h8.6a2.149,2.149,0,0,0,2.151-2.15A2.149,2.149,0,0,0-472.114,369.238Z" transform="translate(533.966 -360.556)" fill="#023e57"/>
  <ellipse id="Ellipse_72" data-name="Ellipse 72" cx="6.719" cy="6.719" rx="6.719" ry="6.719" transform="translate(47.247 157.496)" fill="#023e57"/>
  <ellipse id="Ellipse_73" data-name="Ellipse 73" cx="2.151" cy="2.151" rx="2.151" ry="2.151" transform="translate(43.929 8.682)" fill="#023e57"/>
  <path id="Path_159" data-name="Path 159" d="M-457.708,358.23h-71.955a18.014,18.014,0,0,0-17.991,17.991v143.91a18.008,18.008,0,0,0,17.991,17.991h71.955a18.014,18.014,0,0,0,17.991-17.991V376.221A18.019,18.019,0,0,0-457.708,358.23Zm12.833,161.285a13.1,13.1,0,0,1-13.1,13.1h-71.53a13.1,13.1,0,0,1-13.1-13.1V376.845a13.1,13.1,0,0,1,13.1-13.1h71.53a13.1,13.1,0,0,1,13.1,13.1Z" transform="translate(547.654 -358.23)" fill="#023e57"/>
  <path id="Path_160" data-name="Path 160" d="M-460.289,442.316H-475.02V427.579a9.655,9.655,0,0,0-9.645-9.645h-8.679a9.655,9.655,0,0,0-9.645,9.645v14.737h-14.738a9.654,9.654,0,0,0-9.645,9.639v8.679a9.655,9.655,0,0,0,9.645,9.645h14.738v14.737a9.656,9.656,0,0,0,9.645,9.646h8.679a9.655,9.655,0,0,0,9.645-9.646V470.28h14.731a9.655,9.655,0,0,0,9.645-9.645v-8.679A9.654,9.654,0,0,0-460.289,442.316Z" transform="translate(543.369 -370.844)" fill="#bf353e"/>
  <path id="Path_161" data-name="Path 161" d="M-461,438.936h-12.071V426.865a12.311,12.311,0,0,0-12.311-12.312h-8.679a12.312,12.312,0,0,0-12.311,12.312v2.559a1.333,1.333,0,0,0,1.333,1.333h0a1.333,1.333,0,0,0,1.333-1.333v-2.559a9.645,9.645,0,0,1,9.646-9.645h8.679a9.645,9.645,0,0,1,9.645,9.645V441.6H-461a9.654,9.654,0,0,1,9.645,9.639v8.679A9.646,9.646,0,0,1-461,469.566h-14.731V484.3a9.645,9.645,0,0,1-9.645,9.645h-8.679A9.645,9.645,0,0,1-503.7,484.3V469.566h-14.738a9.646,9.646,0,0,1-9.645-9.645v-8.679a9.654,9.654,0,0,1,9.645-9.639H-503.7v-5.278a1.333,1.333,0,0,0-1.333-1.333h0a1.332,1.332,0,0,0-1.333,1.333v2.612h-12.072a12.312,12.312,0,0,0-12.312,12.311v8.673a12.325,12.325,0,0,0,12.312,12.311h12.072V484.3a12.311,12.311,0,0,0,12.311,12.312h8.679A12.311,12.311,0,0,0-473.068,484.3V472.232H-461a12.312,12.312,0,0,0,12.311-12.312v-8.678A12.3,12.3,0,0,0-461,438.936Z" transform="translate(544.083 -370.13)" fill="#023e57"/>
</svg>
