<svg xmlns="http://www.w3.org/2000/svg" width="276.407" height="291.142" viewBox="0 0 276.407 291.142">
  <g id="logo-transparent" transform="translate(-2444.194 -4387)" opacity="0.2">
    <path id="smile" d="M1674.85-151.494c-23.2,0-39.322-8.308-50.727-26.148a7.093,7.093,0,0,1,2.156-9.8,7.093,7.093,0,0,1,9.8,2.156c8.667,13.557,20.626,19.6,38.774,19.6,18.352,0,28.4-5.041,37.057-18.6a7.093,7.093,0,0,1,9.8-2.159,7.094,7.094,0,0,1,2.159,9.8C1712.6-159.015,1697.944-151.494,1674.85-151.494Z" transform="translate(905.914 4829.637)" fill="#313641"/>
    <path id="glass" d="M1746.224-252.393l-11.549-12.553a41.662,41.662,0,0,0,9.93-27.049,41.843,41.843,0,0,0-41.844-41.843,41.741,41.741,0,0,0-31.9,14.773c-4.612-6.4-11.37-10.452-18.908-10.452a22.551,22.551,0,0,0-16.134,7.143c-6.76-9.388-16.463-15.277-27.248-15.277-20.424,0-36.981,21.109-36.981,47.149s16.557,47.149,36.981,47.149c14.841,0,27.632-11.149,33.521-27.23a56.064,56.064,0,0,0,2.592-9.76,59.932,59.932,0,0,0,.87-10.159,58.684,58.684,0,0,0-2.338-16.512c2.439-3.3,5.836-5.347,9.593-5.347,4.212,0,7.971,2.571,10.434,6.592A41.753,41.753,0,0,0,1660.919-292a41.932,41.932,0,0,0,1.266,10.233,41.551,41.551,0,0,0,3.316,8.8,41.832,41.832,0,0,0,37.261,22.812,41.668,41.668,0,0,0,17.574-3.87l12.679,13.781a8.974,8.974,0,0,0,12.68.529h0A8.974,8.974,0,0,0,1746.224-252.393Zm-137.646-8.887c-11.8,0-21.374-13.083-21.374-29.222s9.57-29.221,21.374-29.221c8.036,0,15.033,6.064,18.684,15.025a37.739,37.739,0,0,1,2.692,14.2,39.922,39.922,0,0,1-.4,5.638C1627.631-271.425,1618.972-261.28,1608.578-261.28Zm67.31-28.049c-.085-.877-.132-1.766-.132-2.666a26.932,26.932,0,0,1,1.335-8.385A27.01,27.01,0,0,1,1702.762-319,27.006,27.006,0,0,1,1729.768-292a27.006,27.006,0,0,1-27.006,27.006A27.009,27.009,0,0,1,1675.888-289.329Z" transform="translate(918.94 4867.414)" fill="#313641"/>
    <path id="brain" d="M1755.336-471.69a38.421,38.421,0,0,0-37.63-30.358c-.743,0-1.488.022-2.229.065a38.351,38.351,0,0,0-36.72-26.877c-11.722,0-23.858,4.91-31.433,11.535-6.986-6.487-18.267-11.535-30.617-11.535a38.353,38.353,0,0,0-36.721,26.877q-1.113-.065-2.229-.065a38.422,38.422,0,0,0-37.631,30.358,38.365,38.365,0,0,0-30.6,37.681,38.535,38.535,0,0,0,38.492,38.491c1.1,0,2.223-.048,3.341-.144l96.383.144,96.355-.145c1.115.1,2.239.145,3.345.145a38.536,38.536,0,0,0,38.492-38.491A38.366,38.366,0,0,0,1755.336-471.69Zm-103.088-10.89a4.958,4.958,0,0,1,2.613.732,5.078,5.078,0,0,1,2.493,4.375,5.116,5.116,0,0,1-5.106,5.114,5.118,5.118,0,0,1-5.115-5.114,5.091,5.091,0,0,1,2.5-4.383A5.015,5.015,0,0,1,1652.248-482.58Zm-35.5,48.689a5.967,5.967,0,0,1-3.351-5.361,5.965,5.965,0,0,1,5.957-5.959,5.967,5.967,0,0,1,5.966,5.959,5.973,5.973,0,0,1-3.345,5.361,5.928,5.928,0,0,1-2.621.6A5.869,5.869,0,0,1,1616.752-433.892Zm130.691,23.441c-.755,0-1.529-.038-2.3-.111a6.279,6.279,0,0,0-.72-.034l-80.981.121v-13.869h19.249V-437.2a6.7,6.7,0,0,0,4.069-6.152,6.684,6.684,0,0,0-6.682-6.675,6.682,6.682,0,0,0-6.676,6.675,6.71,6.71,0,0,0,4.062,6.152v7.63h-19.248v19.1l-10.47.016-25.764-.039v-21.417a7.811,7.811,0,0,0,5.175-7.346,7.8,7.8,0,0,0-7.8-7.787,7.8,7.8,0,0,0-7.787,7.787,7.81,7.81,0,0,0,5.181,7.346V-410.5l-65.71-.1h-.011c-.238,0-.479.011-.716.033-.768.075-1.54.112-2.3.112a23.57,23.57,0,0,1-20.51-11.989h25.369a6.7,6.7,0,0,0,6.152,4.069,6.683,6.683,0,0,0,6.674-6.682,6.68,6.68,0,0,0-6.674-6.674,6.7,6.7,0,0,0-6.152,4.061h-27.543a23.489,23.489,0,0,1-.875-6.343,23.481,23.481,0,0,1,22.6-23.533,7.465,7.465,0,0,0,7.162-7.118,23.787,23.787,0,0,1,.427-3.525h18.913v8.773a6.7,6.7,0,0,0-4.062,6.153,6.684,6.684,0,0,0,6.683,6.675,6.682,6.682,0,0,0,6.674-6.675,6.705,6.705,0,0,0-4.069-6.16v-13.992h-22.451a23.518,23.518,0,0,1,21.413-13.7,23.622,23.622,0,0,1,6.142.814,7.472,7.472,0,0,0,6.179-1.064,7.466,7.466,0,0,0,3.191-5.4,23.89,23.89,0,0,1,.556-3.255h5.1v21.16h9.812a6.692,6.692,0,0,0,6.144,4.069,6.69,6.69,0,0,0,6.683-6.682,6.684,6.684,0,0,0-6.683-6.675,6.7,6.7,0,0,0-6.144,4.062h-4.584v-21.16h-8.37a23.484,23.484,0,0,1,20.927-12.682c12.49,0,21.759,7.732,22.99,10.647a7.465,7.465,0,0,0,7.449,6.967,7.46,7.46,0,0,0,2.489-.433v13.129a6.693,6.693,0,0,0-4.069,6.145,6.7,6.7,0,0,0,6.683,6.682,6.688,6.688,0,0,0,6.675-6.682,6.7,6.7,0,0,0-4.062-6.145v-19.988c2.151-3.259,11.688-10.322,23.9-10.322a23.468,23.468,0,0,1,23.438,21.163,7.463,7.463,0,0,0,3.19,5.4,7.468,7.468,0,0,0,6.18,1.064,23.606,23.606,0,0,1,6.142-.814,23.5,23.5,0,0,1,16.8,7.029h-27.5a6.7,6.7,0,0,0-6.152-4.062,6.682,6.682,0,0,0-6.674,6.675,6.688,6.688,0,0,0,6.674,6.682,6.7,6.7,0,0,0,6.152-4.069h31.382a23.488,23.488,0,0,1,2.848,10.2,7.466,7.466,0,0,0,7.162,7.118,23.48,23.48,0,0,1,22.6,23.533,23.619,23.619,0,0,1-.46,4.634h-40v-10.878a6.7,6.7,0,0,0,4.061-6.144,6.689,6.689,0,0,0-6.676-6.683,6.7,6.7,0,0,0-6.681,6.683,6.691,6.691,0,0,0,4.069,6.144v16.1h43.518A23.585,23.585,0,0,1,1747.443-410.451Zm-69.982-28.518a5.08,5.08,0,0,1-2.493-4.383,5.114,5.114,0,0,1,5.107-5.107,5.116,5.116,0,0,1,5.114,5.107,5.1,5.1,0,0,1-2.5,4.39,5.011,5.011,0,0,1-2.612.724A4.958,4.958,0,0,1,1677.461-438.969Zm-123.544,13.916a4.955,4.955,0,0,1,.731-2.613,5.081,5.081,0,0,1,4.383-2.493,5.113,5.113,0,0,1,5.106,5.106,5.115,5.115,0,0,1-5.106,5.115,5.1,5.1,0,0,1-4.391-2.5A5.013,5.013,0,0,1,1553.917-425.052Zm22.272-33.321a4.985,4.985,0,0,1,2.605.724,5.094,5.094,0,0,1,2.5,4.391,5.115,5.115,0,0,1-5.107,5.107,5.116,5.116,0,0,1-5.115-5.107,5.091,5.091,0,0,1,2.494-4.383A5.046,5.046,0,0,1,1576.189-458.374Zm33.583-19.1a4.948,4.948,0,0,1,.732-2.613,5.079,5.079,0,0,1,4.375-2.495,5.116,5.116,0,0,1,5.115,5.108,5.118,5.118,0,0,1-5.115,5.114,5.089,5.089,0,0,1-4.382-2.5A5.016,5.016,0,0,1,1609.771-477.473Zm96.2,0a5.015,5.015,0,0,1-.723,2.613,5.092,5.092,0,0,1-4.39,2.5,5.117,5.117,0,0,1-5.107-5.114,5.115,5.115,0,0,1,5.107-5.108,5.083,5.083,0,0,1,4.383,2.495A4.949,4.949,0,0,1,1705.967-477.473Zm21.958,36.181a5.013,5.013,0,0,1-2.612-.723,5.091,5.091,0,0,1-2.5-4.383,5.117,5.117,0,0,1,5.114-5.115,5.115,5.115,0,0,1,5.108,5.115,5.077,5.077,0,0,1-2.493,4.374A4.95,4.95,0,0,1,1727.925-441.292Z" transform="translate(934.666 4915.86)" fill="#bf353e"/>
  </g>
</svg>
