<?xml version="1.0" encoding="utf-8"?>
<!-- Generator: Adobe Illustrator 24.0.1, SVG Export Plug-In . SVG Version: 6.00 Build 0)  -->
<svg version="1.1" id="Layer_1" xmlns="http://www.w3.org/2000/svg" xmlns:xlink="http://www.w3.org/1999/xlink" x="0px" y="0px"
	 viewBox="0 0 912.1 242.2" style="enable-background:new 0 0 912.1 242.2;" xml:space="preserve">
<path d="M570,242.2c-1.5-4.4-1.2-4.9,3.2-4.1c2.7,0.5,5,0,6.6-2.3c0.7-1,1.1-2.7-1.2-2.6c-0.7,0-1.3-0.1-2,0
	c-3.8,0.4-6.7-1.4-8.1-4.5c-1.5-3.3-1.7-7.1,0.9-10.3c2.4-3,5.5-4.7,9.5-3.7c0.3,0.1,0.6,0.4,0.9,0.4c1.9,0.2,4.9-0.2,5.4,0.8
	c1,1.8,0.6,4.4,0.7,6.7c0.1,2.8,0,5.6,0,8.5c0.1,4.5-1.3,8.4-5,11.2C577.4,242.2,573.7,242.2,570,242.2z M581.1,224.5
	c0-5-0.3-5.4-3.5-5.3c-3.1,0.1-4.8,1.9-4.7,5c0.1,3.2,1.8,4.7,5.1,4.7C581.3,228.7,581.3,226.4,581.1,224.5z"/>
<path d="M184.7,64.5c-13.5-24-33.5-40-60.4-46c-17.9-3.9-35.8-1.9-52.6,6.3c-26.3,13-42.2,34-48.7,62.4c-5.5,23.8-1,46.2,10.1,67.5
	c13.1,25.3,34.4,39.4,62.1,44.5c1.9,0.4,3.9,0.7,5.9,0.9c1.8,0.2,3.6,0,5.3,0c0.1,0.3,0.1,0.7,0.2,1c-0.5,0.3-0.9,0.8-1.4,0.8
	c-18.1,0.8-35.6-1.8-51.9-10c-15.7-7.8-27.2-20.3-36.8-34.7c-7.5-11.4-12.8-23.8-15-37.3c-1.7-10.3-1.7-20.7-0.4-31.2
	c2.3-19,8.9-36,20.1-51.4C34.6,18.7,53,7.2,75.4,2.2c21.8-4.8,42.9-1.8,62.6,8.2c19.8,10.1,35,25.4,44.5,45.8
	C183.6,58.8,183.9,61.7,184.7,64.5L184.7,64.5z"/>
<path d="M627.1,138.5c2-6.9,4-13.8,5.9-20.7c2.8-10.3,5.5-20.6,8.1-30.9c0.7-2.7,1.8-3.9,4.7-3.7c2.8,0.2,5.7,0,8.5,0.1
	c3.8,0.1,3.9,0.1,2.9,3.7c-4.8,17.7-9.7,35.4-14.6,53.1c-2.4,8.7-5.2,17.3-7.2,26.1c-0.8,3.5-2.4,4.2-5.5,4c-2.8-0.2-5.7-0.3-8.5,0
	c-3.4,0.4-4.6-1.3-5.3-4.2c-4-17.1-8.1-34.2-12.2-51.2c-0.1-0.4-0.5-0.8-1.3-2c-1.7,6.5-3.2,12.3-4.6,18.2
	c-2.8,11.6-5.6,23.3-8.2,35c-0.7,3.2-2.2,4.8-5.8,4.3c-2.9-0.4-6-0.3-9,0c-3,0.2-4.2-0.9-5.1-3.9c-4.1-14.8-8.5-29.6-12.9-44.4
	c-3.6-12.1-7.2-24.2-10.7-36.3c-0.2-0.6-0.1-1.3-0.2-2.4c6.1,0,12.1,0,18.1,0c2.2,0,2.4,1.7,2.8,3.4c3.9,14.2,7.9,28.4,11.9,42.6
	c0.8,3,1.6,6,3,9.1c1-3.7,2.2-7.4,3.1-11.1c3.1-12.9,6.1-25.8,9.1-38.8c1.2-5.3,1.2-5.3,6.9-5.3c2.5,0,5,0.3,7.5-0.1
	c3.5-0.5,4.7,1.4,5.3,4.1c3.1,12.6,6.1,25.2,9.1,37.8c1.1,4.5,2.2,8.9,3.3,13.3C626.6,138.4,626.8,138.4,627.1,138.5z"/>
<path d="M516.1,157c-4,5.8-8,10.8-14.6,13.2c-13.4,4.7-27.6-0.9-34.3-16.1c-2.9-6.7-4.3-13.6-5.3-20.9c-1.3-10.3,0.1-20,3.3-29.6
	c2.3-6.9,5.8-13.3,11.6-18c9.5-7.7,28-8.1,35.8,3.7c0.5,0.8,1.2,1.4,2.5,2.9c0-7.4,0-13.9,0-20.5c0-5,0.1-10,0-15
	c-0.1-2.4,0.3-3.7,3.2-3.6c4.2,0.2,8.3,0.2,12.5,0c2.8-0.1,3.3,1.1,3.3,3.5c-0.1,4.7,0,9.3,0,14c0,31.3,0,62.6,0,94
	c0,6.3,0.5,5.4-5.7,5.5c-3,0-6-0.1-9,0c-2.3,0.1-3.3-0.7-3.2-3.1C516.2,163.7,516.1,160.3,516.1,157z M515.5,126
	c-0.5-5.3-0.5-10.7-1.6-15.8c-2.1-10.1-12.9-16.5-22.3-11c-4.1,2.4-6.2,6.2-7.7,10.5c-3,8.7-2.2,17.7-1.7,26.6
	c0.2,3.9,2.1,7.9,3.7,11.5c2.7,6.1,10.6,8.2,14.5,7.1c7-2,11.9-6.6,13.5-13.7C515.1,136.3,515,131.1,515.5,126z"/>
<path d="M227.7,93.3c0.7-1,1.5-2.1,2.2-3.2c9.2-14.7,29.9-12.9,39.6-1.6c6.5,7.6,9.3,16.4,10.7,26.1c1.5,10.6,0.7,20.8-2.3,30.9
	c-2.5,8.1-6.5,15.3-13.5,20.8c-8.7,6.8-29.3,7.9-38.2-4.6c-1.2-1.7-2.7-3.2-4.3-5.1c-1.3,3.6-2.5,6.8-3.7,10c-1.2,3.3-3,4-7.5,3.3
	c-3.1-0.5-2.4-2.7-2.4-4.6c0-36-0.1-71.9-0.1-107.9c0-4.2,0.2-4.3,4.1-4.4c3.8-0.1,7.7,0.2,11.5-0.1c2.7-0.1,3.3,1,3.3,3.5
	c-0.1,12.1,0,24.3,0,36.4C227.2,93.2,227.5,93.3,227.7,93.3z M226.5,125.2c0.6,6.3,0.9,11.1,1.6,15.9c0.9,6.1,4.2,10.8,10.1,13
	c9.2,3.6,18.4-1.9,20.9-12.3c2.3-9.6,3.1-19.3,0.9-29c-1.1-5.1-2.7-10.4-7.6-13.5c-7.5-4.7-19-3.2-23.1,8.8
	C227.3,114,227.2,120.4,226.5,125.2z"/>
<path d="M835.3,126.3c-5.8,6.9-11.3,13.3-16.6,19.8c-0.7,0.9-0.7,2.5-0.7,3.8c-0.1,5.5-0.1,11,0,16.5c0.1,2.8-1,3.9-3.8,3.8
	c-3.7-0.2-7.3-0.2-11,0c-2.8,0.2-3.4-1.2-3.3-3.6c0.1-2,0.1-4,0.1-6c0-34,0-68,0-101.9c0-6.1-0.2-5.4,5.4-5.4c2.5,0,5,0,7.5,0
	c5,0,5.1,0.1,5.1,5c0,14,0,28,0,42c0,7.5,0,15,0,23.8c4.4-5,8.2-9.1,11.9-13.3c5.7-6.5,11.3-13.1,16.9-19.6c0.1-0.1,0.3-0.2,0.3-0.4
	c3.9-7.3,10.3-8.4,17.7-7.5c2.6,0.3,5.2,0.1,8.8,0.1c-2.5,3.1-4.3,5.6-6.3,7.9c-5.2,6-10.4,12.1-15.8,17.9c-2.1,2.3-2.2,4.1-0.9,6.9
	c8.1,16.7,16,33.6,23.9,50.4c0.5,1,0.9,2.1,1.5,3.8c-6.4,0-12.4,0.2-18.3-0.1c-1.1-0.1-2.6-1.8-3.2-3.1
	c-5.9-12.3-11.7-24.7-17.5-37.1C836.7,128.9,836.2,128,835.3,126.3z"/>
<path d="M48.5,60.5c-0.4-3.2,2.1-5,3.8-6.9c11.6-13.3,25.9-22.3,43.4-25c12-1.8,24.2-0.5,35.7,3.7c25.2,9.3,40.5,27.5,47.6,53.1
	c2.5,9,3.6,18.2,2.9,27.5c-1.5,20.3-7.4,39-21.7,54c-10.6,11.1-23.6,17.8-38.9,20.3c-19.6,3.2-37.8,0-54.7-10.5
	c-0.6-0.3-1.1-0.7-1.6-1.2c-0.2-0.2-0.4-0.5-0.5-0.7c5.8,1.9,11.6,4.2,17.6,5.6c20.9,4.9,40,1,57.2-12c12.1-9.2,20.7-20.7,24.2-35.7
	c5.4-23.5,3-45.6-11.4-65.6C142,53,128.6,43.8,111.5,41.4c-8.3-1.2-16.9,0.1-25.3,0.5c-3.4,0.2-6.9,0.9-10.2,1.6
	c-8.3,1.8-14.9,6.8-21.5,11.8C52.3,56.9,50.4,58.7,48.5,60.5L48.5,60.5z"/>
<path d="M395,100.5c2.6-3.8,4.5-6.7,6.5-9.5c10.1-14.5,32.6-10.7,40,2.9c3.5,6.5,4.1,13.6,4.3,20.6c0.4,16.8,0.2,33.6,0.1,50.5
	c0,5.2,0,5.2-5.4,5.2c-3.3,0-6.7,0-10,0c-4.1-0.1-4.3-0.2-4.3-4.2c-0.1-8.3,0-16.7,0-25c0-9.5,0.1-19-0.2-28.5
	c-0.1-4.8-1.9-8.7-6.3-11.5c-6.1-4-14.8-0.1-18.7,6.1c-2.5,4.1-4.1,8.6-4.1,13.5c0,14.7-0.1,29.3-0.1,44c0,5.6,0,5.6-5.5,5.6
	c-3.7,0-7.3-0.1-11,0c-2.1,0-3-1-3.1-3c0-0.5,0-1,0-1.5c0.1-25.6,0.2-51.3,0.3-76.9c0-5.5,0.2-5.5,5.4-5.5c2.5,0,5,0,7.5,0
	c4.4,0,4.4,0,4.5,4.3C395,91.5,395,95.4,395,100.5z"/>
<path d="M728,99.3c3.9-4.5,7.3-9,11.2-12.9c6.9-6.9,22.9-5.2,30.2,1.5c5.8,5.3,8.4,12,8.5,19.4c0.4,19.6,0.2,39.3,0.3,58.9
	c0,3.1-0.9,4.1-4,3.9c-3.3-0.2-6.7,0-10-0.1c-5,0-5.1-0.1-5.1-5c0-17,0-34-0.1-50.9c0-2.3-0.4-4.6-1.1-6.8
	c-2.1-6.6-10.4-11.7-19-5.6c-5.5,3.9-8.6,9.6-9,16.4c-0.4,7.8-0.7,15.6-0.9,23.4c-0.1,8,0,16-0.1,24c0,4.4-0.1,4.4-4.3,4.5
	c-3.2,0-6.3,0-9.5,0c-4.3,0-4.3-0.1-4.4-4.4c-0.1-22.5-0.1-45-0.1-67.4c0-3.8,0-7.7-0.1-11.5c-0.1-2.5,0.7-3.7,3.4-3.5
	c3.3,0.2,6.7,0.1,10,0c2.8-0.1,3.9,1,3.8,3.8C727.9,91.1,728,95.3,728,99.3z"/>
<path d="M124.4,57.7c-4.8-0.2-9.5-0.7-14.3-0.6c-22.6,0.4-45.4,17.6-48.9,42c-2.8,19.8,3.5,36.5,20,48.8c4.7,3.5,10.1,4.5,15.6,5.7
	c10.4,2.3,20.8,2.2,30.7-1.9c7.7-3.1,14.9-7,20.7-13.2c0.4-0.4,0.9-0.7,1.5-0.9c-1.9,5.1-5.2,9.2-8.9,12.8
	c-8.6,8.1-18.3,14.5-30.2,16.9c-6.8,1.4-13.5,0.9-20.2-0.8c-23.6-5.9-37.6-21.7-43.7-44.6c-1.4-5.3-1-11.3-0.4-16.9
	c0.9-8.5,2.7-16.9,7-24.5c8.5-15,21.1-24.9,37.7-29.2C102.7,48.5,114,51.2,124.4,57.7z"/>
<path d="M316,112.2c0,17.8,0,35.6,0,53.4c0,4.4,0,4.4-4.3,4.5c-4,0-8-0.1-12,0c-1.9,0-2.8-0.6-2.7-2.6c0.1-1,0-2,0-3
	c0-35.1,0-70.2,0-105.3c0-1.2,0-2.3,0-3.5c0-1.5,0.4-2.5,2.2-2.5c4.8,0.1,9.7-0.1,14.5,0.1c0.8,0,1.9,1.2,2.1,2
	c0.4,1.2,0.1,2.6,0.1,4C316,77,316,94.6,316,112.2z"/>
<path d="M356,127.2c0,12.8,0,25.6,0,38.4c0,4.4,0,4.4-4.7,4.5c-3,0-6,0-9,0c-5.2,0-5.2,0-5.2-5c0-11.8,0-23.6,0-35.4
	c0-13.3,0-26.6,0-39.9c0-7.5-0.8-6.4,6.8-6.5c2.7,0,5.3,0.2,8-0.1c3.2-0.3,4.3,0.8,4.2,4.1c-0.2,11.3-0.1,22.6-0.1,33.9
	C356,123.2,356,125.2,356,127.2z"/>
<path d="M689,126.5c0,12.8,0,25.6,0,38.5c0,5.1,0,5.1-5.3,5.1c-3.5,0-7-0.1-10.5,0c-2.4,0.1-3.4-0.9-3.1-3.2c0.1-0.8,0-1.7,0-2.5
	c0-25.3,0-50.6,0-75.9c0-5.8-0.5-5.2,5.5-5.2c3,0,6,0,9,0c4.4,0,4.4,0.1,4.4,4.3C689,100.5,689,113.5,689,126.5z"/>
<path d="M912,69.6c0,10.2-7.4,18.7-16.8,18.3c-10.4-0.5-17.2-8.2-17.3-18.6c-0.1-10.8,8.8-18.2,17.5-18.2
	C903.6,51.1,913.2,59.9,912,69.6z M898.4,70.7c1.6,2.4,2.9,4.8,4.6,6.7c1.2,1.4,2.6,2.1,4-0.4c3.2-5.8,2.3-14.1-2.5-18.7
	c-4.8-4.6-12.2-5-17.2-0.2c3.6,0,6.6-0.4,9.4,0.1c1.8,0.4,3.9,1.7,5,3.3C903.9,64.5,902.8,67.1,898.4,70.7z M885.1,58.8
	c-4.5,6.2-5.5,11.7-2.4,17.6c0.5,0.9,1.6,1.4,2.5,2.1c0.6-1,1.7-1.9,1.8-2.9c0.2-4,0.2-8,0-11.9C886.9,62.2,885.9,60.8,885.1,58.8z
	 M892.2,71.3c0.3,2.7,0.4,4.6,0.9,6.4c0.2,0.9,1,1.6,1.6,2.3c-1,0.3-2,0.9-3.1,1c-1.3,0.2-2.6,0-4.3,0c5.6,4.3,9.5,4.3,15.1,0.4
	C897,80.7,896.5,75,892.2,71.3z M891.3,64.2c1.2,1.7,1.8,2.6,2.5,3.6c1.1-1.3,2.5-2.4,3-3.8c0.2-0.6-1.6-1.9-2.4-2.9
	C893.5,62.1,892.5,63,891.3,64.2z"/>
<path d="M643.7,221.3c2.4-4.3,4.6-8,6.5-11.7c1-1.9,2.3-2.5,4.3-2.3c1.6,0.1,2.5,0.4,2.5,2.2c0,7.2,0,14.3,0,21.5
	c0,1.8-0.8,2.2-2.4,2.2c-1.6,0-2.5-0.4-2.5-2.2c0.1-4.6,0-9.2-0.7-14.1c-1.4,2.3-2.9,4.6-4.3,6.9c-2.2,3.3-4.5,3.4-6.8,0.1
	c-0.8-1.2-1.5-2.6-2.2-3.9c-0.7-1.1-1.4-2.2-3-3.2c0,4.5,0,9,0,13.5c0,1.6,0,3-2.3,2.9c-1.5-0.1-2.6-0.4-2.6-2.2
	c0-7.2-0.1-14.3,0.1-21.5c0-0.7,1.3-2.1,1.9-2.1c1.6,0.2,3.9,0.5,4.7,1.6C639.3,212.6,641.2,216.7,643.7,221.3z"/>
<path d="M356.3,64c-0.3,3.2,0.5,7.5-1.2,9.4c-1.4,1.6-5.9,0.7-9,0.7c-8.9,0-9,0-8.9-8.7c0-3.9,0.4-7.8,0.7-11.7
	c3.8-0.1,7.6-0.4,11.3-0.4c6.9-0.1,6.9,0,6.9,6.8c0,1.3,0,2.7,0,4C356.1,64,356.2,64,356.3,64z"/>
<path d="M689.2,63.7c-0.2,3.3,0.8,7.7-1,9.5c-1.7,1.7-6.2,0.9-9.4,0.9c-8.7,0.1-8.7,0-8.7-8.5c0-3.2,0.1-6.3,0-9.5
	c-0.1-2,0.5-3,2.8-3c4.5,0.1,9,0.1,13.5,0c2.3-0.1,2.8,1,2.7,3c-0.1,2.5,0,5,0,7.5C689.1,63.7,689.1,63.7,689.2,63.7z"/>
<path d="M423.1,219.9c0-3,0.2-6-0.1-9c-0.3-3.2,1.1-4.1,4-3.8c2.1,0.2,4.3,0,6.5,0.1c6,0.2,8.3,3.1,7.4,9.1
	c-0.2,1.1-0.3,2.6,0.2,3.4c3.7,5.6,2.1,10.5-4.2,12.7c-0.8,0.3-1.6,0.6-2.4,0.6c-11.5,1.4-11.5,1.4-11.5-10.2
	C423.1,221.9,423.1,220.9,423.1,219.9z M432.2,222c-1.5,0.5-4.1-1.2-4.3,2.3c-0.2,3.6,0.1,4,4.2,3.9c2.5,0,5.6-0.2,5.7-3.1
	C438,221.6,434.7,222.2,432.2,222z M428.2,217.7c2-0.3,3.9-0.2,5.5-0.8c1-0.4,1.5-1.9,2.2-2.9c-0.9-0.6-1.7-1.6-2.6-1.8
	C428.5,211.2,427.9,211.9,428.2,217.7z"/>
<path d="M826.4,223.7c0-0.8,0-1.7,0-2.5c0.1-5.6,0.2-5.3,5.8-6.2c3-0.5,5.7-0.8,8.6,0.5c1.2,0.5,3.1-0.5,4.6-0.9
	c4.3-1.1,7.8,0.5,8.7,4.9c0.8,3.8,0.7,7.9,0.7,11.9c0,0.6-1.4,1.5-2.3,1.7c-1.6,0.3-3.1,0-3.2-2.1c-0.1-2.8,0.1-5.7-0.1-8.5
	c-0.3-3.2-2.6-4.3-5.2-2.3c-0.6,0.5-1,1.6-1,2.4c-0.1,2.7-0.1,5.3-0.1,8c0,1.5-0.3,2.5-2.2,2.5c-1.8,0-2.9-0.4-2.8-2.5
	c0.1-1.8,0-3.7,0-5.5c0-4.3-1-6.3-3.3-5.9c-3.8,0.6-3.1,3.6-3.1,6.2c0,1.2,0,2.3,0,3.5c-0.1,1.9,0.6,4.2-2.7,4.2
	c-2.9-0.1-2.4-2.2-2.5-3.9C826.4,227.4,826.4,225.5,826.4,223.7z"/>
<path d="M231.7,232.5c-4.2,1.7-6.7,0.2-8.6-3c-1-1.7-1.9-3.5-3.3-4.9c-0.8-0.8-2.3-1.2-3.4-1.2c-0.4,0-0.9,1.8-1.2,2.8
	c-0.2,0.6,0.1,1.4-0.1,2c-0.5,1.7,1.5,5-2.3,4.8c-3.5-0.2-1.8-3.3-1.9-5.1c-0.3-3.6,0-7.3-0.1-11c-0.1-9.7-0.1-9.7,9.6-9.7
	c3.9,0,7.2,0.7,8.8,4.8c1.5,4,0.3,7.1-3,9.5c-1.7,1.2-0.5,2.4,0,3.3C228,227.3,229.9,229.8,231.7,232.5z M219.8,218.2
	c2.1,0.4,4.7-0.2,4.8-3c0-2.9-2.7-3.2-5.2-3.1c-2.1,0.1-4.3-0.6-4.3,3C215.1,218.6,217.1,218.3,219.8,218.2z"/>
<path d="M523.1,215.1c0-2.7-0.2-4.9,0.1-7c0.1-1,0.9-2.5,1.7-2.7c2-0.6,3.1,0.6,3.1,2.7c0,7.5,0,15,0,22.4c0,1.9-0.6,2.7-2.6,2.6
	c-2.7-0.1-5.3,0-8,0c-4-0.1-6.4-2.1-7.6-6.3c-1.1-3.9,0.4-8.8,3.3-10.5C516,214.5,519.1,213.4,523.1,215.1z M523.1,223.3
	c0.2-2.5,0.2-4.7-3.4-4.3c-3.1,0.3-5.5,2.1-5.5,4.6c0,3,2.2,4.7,5.7,4.8C524.1,228.6,522.9,225.6,523.1,223.3z"/>
<path d="M698.1,214.6c0-2.1,0-4.1,0-6.1c0-1.9,0.6-3.2,2.8-3.2c2.5-0.1,2.1,1.6,2.1,3.1c0,7.3,0,14.6,0,21.9c0,2.1-0.6,3-2.9,2.8
	c-1.6-0.2-3.3-0.1-5,0c-7.5,0.7-9.7-3.8-10-8.7c-0.4-5.6,3.7-9.7,9.8-10.1C695.9,214.2,696.8,214.5,698.1,214.6z M698.2,224
	c-0.4-2,1.3-5.3-3.2-5c-3.4,0.3-5.1,1.6-5,4.8c0.1,2.9,2.6,5.4,5.5,5.2C699,228.8,697.9,226.1,698.2,224z"/>
<path d="M366,215.3c1.8-0.4,3-0.9,4.3-1c4.4-0.4,7.4,2,7.6,6.4c0.2,3.3,0,6.7,0,10c0,1.5-0.2,2.5-2.2,2.5c-1.8,0-2.9-0.3-2.8-2.4
	c0.1-2.7-0.1-5.3,0.1-8c0.2-2.5-1.5-3.3-3.3-3.4c-1.9-0.1-4,0.5-3.9,3.3c0.1,2.7-0.1,5.3,0,8c0.1,2-0.8,2.6-2.7,2.5
	c-1.8,0-2.3-0.8-2.3-2.4c0-7.7,0.1-15.3,0-23c0-2,0.7-2.6,2.6-2.6c2.2,0,2.3,1.2,2.3,2.9C366,210.3,366,212.6,366,215.3z"/>
<path d="M781.1,219.9c0-3,0.1-6,0-9c-0.2-2.6,0.5-4,3.5-3.8c3.6,0.2,7.3,0.1,11,0.1c1.6,0,2.5,0.3,2.5,2.2c0,1.8-0.4,2.8-2.5,2.7
	c-2.3-0.1-4.7,0.1-7,0c-1.9-0.1-2.6,0.7-2.6,2.6c0,2,0.9,2.6,2.7,2.5c1.8-0.1,3.7,0,5.5,0c1.7,0,2.9,0.2,2.9,2.4
	c0,2-0.8,2.6-2.6,2.6c-2.6,0-6.2-0.7-7.6,0.7c-1.4,1.4-0.7,4.9-0.8,7.6c0,1.7-0.3,2.8-2.5,2.8c-2.1,0-2.5-0.9-2.5-2.7
	C781.1,226.9,781.1,223.4,781.1,219.9z"/>
<path d="M284.6,227.3c2.4,1,4.7,2.7,7.7,1.2c1.7-0.8,2.5,0.2,3,2c0.7,2.2-1.2,2.4-2,2.4c-3,0.2-6,0.4-8.9-0.1
	c-2.9-0.4-5.1-3.6-5.4-6.3c-0.4-4.5,0.1-8.8,4.8-10.9c5.8-2.7,12-1.3,12.7,7.6c0.2,2-0.4,3.1-2.7,3.1c-3.1-0.1-6.2,0-9.3,0
	C284.6,226.5,284.6,226.9,284.6,227.3z M284.3,222.3c2.4-0.1,4.6-0.2,7.3-0.3C287.9,218.1,287.3,218.1,284.3,222.3z"/>
<path d="M668.8,227.2c2.3,1.6,4.8,2.8,7.6,1.6c2.2-1,2.9,0.3,2.9,1.8c0,0.8-1.2,2.3-2,2.4c-2.8,0.3-5.7,0.4-8.4,0
	c-3.1-0.5-5.4-3.4-5.7-6.6c-0.4-3.9,0-7.8,3.9-10c5.7-3.3,12.4-3,13.8,6.7c0.3,1.9-0.1,3.2-2.5,3.1c-3.1-0.1-6.3,0-9.4,0
	C668.9,226.5,668.8,226.8,668.8,227.2z M668.3,221.9c2.7,0,4.9,0,7.3,0C672.5,218.1,671.7,218.1,668.3,221.9z"/>
<path d="M476.2,221.6c-1.6-3.5-4.5-2.6-6.8-2c-1.9,0.5-2.8,1-3.6-1.5c-0.9-2.8,0.7-2.8,2.4-2.9c2.9-0.1,5.8-0.5,8.6,0.1
	c3,0.6,4.6,3.1,4.2,6.4c-0.1,0.7,0,1.3,0,2c-0.2,3.1-0.4,6.2-0.6,9.3c-3.7,0-7.5,0.3-11.2,0.1c-2.7-0.2-4.9-2.3-4.8-4.8
	c0.1-1.7,1.9-3.9,3.5-4.7C470.3,222.3,473.2,222.2,476.2,221.6z M476,227.5c0-0.3-0.1-0.6-0.1-1c-0.8-0.1-1.5-0.5-2.3-0.4
	c-1.1,0.2-2.1,0.7-3.1,1.1c-0.1,0,0.1,1.1,0.3,1.1c1,0.2,2.1,0.4,3.1,0.3C474.7,228.6,475.4,227.9,476,227.5z"/>
<path d="M241.6,227.2c2.3,1,4.3,2.7,7.2,1.4c1.8-0.8,3-0.7,3.5,1.7c0.5,2.6-1.4,2.5-2.8,2.6c-2.3,0.2-4.7,0.2-7,0
	c-2.9-0.3-6-3-6.3-5.5c-0.5-4.2-0.8-8.5,3.4-11.1c2.8-1.7,5.8-3.1,9.3-1.3c3.4,1.8,5.6,5.9,4.2,9.5c-0.3,0.7-1.7,1.3-2.6,1.4
	c-3,0.2-5.9,0.1-8.9,0.1C241.6,226.5,241.6,226.9,241.6,227.2z M241.4,221.9c2.4,0,4.5,0,6.8,0C245.5,218.1,244.8,218.1,241.4,221.9
	z"/>
<path d="M312.3,221.6c-1.8-3.5-4.5-2.7-6.7-2.1c-1.8,0.5-3,0.7-3.4-1.3c-0.5-2,0.2-3.2,2.5-3.1c0.8,0,1.5-0.6,2.3-0.7
	c6.1-1.3,9.9,1.8,9.9,7.9c0,2.8,0.1,5.7-0.1,8.5c-0.1,0.8-1.1,2.1-1.7,2.2c-2.9,0.2-5.8,0.2-8.7,0.1c-2.9-0.1-5.1-2.2-5.3-4.8
	c-0.3-3,1.2-4.7,4-5.2C307.4,222.6,309.6,222.1,312.3,221.6z M306.6,226.5c-0.1,0.4-0.2,0.7-0.2,1.1c2.1,1.8,4.1,2.5,6.2-1.5
	C310.1,226.3,308.3,226.4,306.6,226.5z"/>
<path d="M736.1,225.7c-0.1,2.3,0.5,5.2-0.7,6.7c-0.9,1.2-4.1,0.7-6.2,0.7c-2.6,0-5.2,0.7-7.4-1.6c-2.8-2.9-2.4-6.5,1.3-8
	c1.9-0.8,4.2-0.8,6.2-1.3c0.6-0.1,1.1-0.5,1.6-0.8c-0.4-0.7-0.8-1.8-1.2-1.9c-1.9-0.2-3.9,0.1-5.8,0c-0.9-0.1-1.8-0.8-2.7-1.2
	c0.6-1,0.9-2.5,1.8-2.9c1.4-0.7,3.2-1.2,4.8-1c5,0.6,8.9,1.3,8.3,7.8c-0.1,1.1,0,2.3,0,3.5C736,225.7,736.1,225.7,736.1,225.7z
	 M731.4,226.1c-2.4,0.3-4.2,0.5-6.9,0.8C728.8,229.9,728.8,229.9,731.4,226.1z"/>
<path d="M487.1,223.9c0-1.2-0.1-2.3,0-3.5c0.1-1.8-0.1-3.8,0.7-5.3c0.4-0.6,2.9,0,4.5,0c0.7,0,1.3-0.2,2-0.3
	c6.8-1.6,9.7,0.6,9.8,7.5c0,2.8-0.1,5.7,0,8.5c0,1.8-0.8,2.3-2.4,2.3c-1.6,0-2.5-0.4-2.5-2.2c0.1-2.7-0.1-5.3,0-8
	c0.2-2.6-1.3-3.8-3.5-3.7c-1.9,0.1-3.9,0.8-3.7,3.6c0.2,2.6,0,5.3,0,8c0,1.7-0.7,2.3-2.4,2.3c-1.6,0-2.6-0.4-2.5-2.2
	C487.1,228.6,487.1,226.3,487.1,223.9C487.1,223.9,487.1,223.9,487.1,223.9z"/>
<path d="M545.1,224c0-1.5,0-3,0-4.5c0-4.3,0-4.2,4.3-4c1.2,0.1,2.5-0.5,3.8-0.9c5.3-1.3,8.7,1.2,8.8,6.8c0.1,3.2,0,6.3,0,9.5
	c0,1.8-0.8,2.2-2.5,2.2c-1.6,0-2.5-0.5-2.5-2.3c0-2.8,0-5.7,0-8.5c0-2.4-1.4-3.4-3.5-3.1c-1.7,0.2-3.7,0.6-3.6,3.1
	c0.1,2.8-0.1,5.7,0,8.5c0,1.7-0.7,2.3-2.4,2.3c-1.5,0-2.6-0.3-2.5-2.2C545.2,228.6,545.1,226.3,545.1,224
	C545.1,224,545.1,224,545.1,224z"/>
<path d="M876,215.8c-0.5,1.3-1,2.7-1.4,3.8c-2.9,0-5.5,0-8.2,0c-0.1,0.3-0.1,0.6-0.2,0.9c2.4,1,5.1,1.6,7.3,3
	c1.5,0.9,3.2,2.9,3.2,4.5c0.1,2.3-1.7,4.5-4.1,4.8c-3.3,0.4-6.6,0.3-9.9,0c-1.1-0.1-3.1-0.6-2.4-2.9c0.6-1.9,1.8-2.1,3.6-1.7
	c2.3,0.4,4.7,2.5,7-0.8c-2.1-0.8-4.1-1.6-6.2-2.2c-2.5-0.8-4-2.3-4-4.9c0-2.6,1.8-4,4.1-4.9C868.5,213.8,872.2,213.9,876,215.8z"/>
<path d="M273.7,215.9c-0.3,2.7-1.1,4.4-4.3,3.3c-1.6-0.5-3.4-0.1-5.1-0.1c-0.1,0.5-0.1,1-0.2,1.5c1.9,0.6,3.8,1.2,5.6,1.9
	c3.6,1.4,5.2,3.5,4.9,6c-0.4,2.9-2.7,4.6-6.7,4.5c-2.6,0-5.2-0.3-7.8-0.6c-1.5-0.2-2.4-1.2-1.6-2.8c0.6-1.2,1.1-2.3,2.9-1.5
	c1.5,0.7,3.2,0.9,4.8,1c0.8,0,1.7-0.8,2.5-1.2c-0.7-0.6-1.2-1.4-2-1.7c-1.5-0.6-3.2-0.9-4.7-1.4c-2.3-0.9-3.2-2.6-3.1-5.1
	c0.1-2.4,1.6-3.5,3.6-4.3C266.1,213.9,269.7,213.7,273.7,215.9z"/>
<path d="M755.1,221c0-5,0-10,0-15c0-1.7,0.3-2.8,2.4-2.8c2,0,2.5,0.9,2.5,2.7c0,10.2,0,20.3,0,30.5c0,1.7-0.3,2.8-2.4,2.8
	c-2,0-2.5-0.9-2.5-2.7C755.1,231.3,755.1,226.1,755.1,221z"/>
<path d="M402,221c0,5.2,0,10.3,0,15.5c0,1.8-0.5,2.7-2.5,2.7c-2.1,0-2.4-1.1-2.4-2.8c0-10.2,0-20.3,0-30.5c0-1.8,0.5-2.7,2.5-2.7
	c2.1,0,2.4,1.1,2.4,2.8C402,211,402,216,402,221z"/>
<path d="M349.3,233.1c-5.4,0-7.7-1.2-9.2-5c-1.6-4.2-0.7-8.5,2.5-11.3c3.1-2.7,8.1-3.4,11.6-1.4c0.7,0.4,1.4,1.8,1.2,2.6
	c-0.2,1.1-0.6,2.4-2.7,2c-1.9-0.4-4.3-0.4-6,0.5c-1.1,0.5-2,2.8-2,4.3c-0.1,2.1,1.1,3.8,3.7,3.6c1.3-0.1,2.7,0.2,4,0
	c2.4-0.4,3,1.3,3,2.8c0,0.7-1.6,1.6-2.7,2C351.7,233.3,350.4,233.1,349.3,233.1z"/>
<path d="M448.2,224c0-1.2-0.1-2.3,0-3.5c0.1-1.8-0.1-3.8,0.8-5.2c0.5-0.7,2.9-0.1,4.4-0.2c1.9-0.2,3.9-0.9,5.8-0.7
	c1,0.1,2.6,1.8,2.6,2.7c-0.1,1.5-0.6,3.3-3.5,2.2c-3.1-1.2-4.2,0.2-4.4,3.9c-0.1,2.3-0.1,4.6,0,7c0,2.1-0.9,2.9-3,2.9
	c-2,0-2.7-0.9-2.7-2.7C448.2,228.3,448.2,226.1,448.2,224C448.2,224,448.2,224,448.2,224z"/>
<path d="M323.3,223.9c0-1.3,0-2.7,0-4c0-4.7,0-4.7,5-4.8c2.4-0.1,4.8-0.3,7.1,0c0.6,0.1,1.6,2.1,1.4,2.3c-0.7,0.8-0.2,2.9-2.9,2.1
	c-4.2-1.3-4.9-0.3-5,4c-0.1,2.3,0,4.6,0,7c0,1.9-1,2.6-2.8,2.6c-2,0-2.7-0.9-2.6-2.7C323.3,228.2,323.3,226.1,323.3,223.9
	C323.3,223.9,323.3,223.9,323.3,223.9z"/>
<path d="M609.2,221.7c0,4.8,0,9.6,0,14.4c0,1.5,0.2,3-2.2,3c-2.3,0-2.1-1.6-2.1-3.1c-0.1-9.9-0.1-19.9-0.1-29.8c0-1.5,0.1-3,2.3-3
	c2.3,0,2.2,1.6,2.2,3.1C609.3,211.4,609.3,216.5,609.2,221.7C609.2,221.7,609.2,221.7,609.2,221.7z"/>
<path d="M820,219.5c0,3.5,0,7,0,10.5c0,1.8,0,3.2-2.6,3.2c-2.2-0.1-2.4-1.2-2.4-2.9c0-7.5,0-15,0-22.5c0-1.9,0.6-2.7,2.6-2.7
	c2.2,0,2.4,1.2,2.4,2.9C820,211.9,820,215.7,820,219.5z"/>
<path d="M539,224c0,2.3-0.1,4.7,0,7c0.1,1.8-0.9,2.2-2.5,2.2c-1.6,0-2.5-0.5-2.4-2.3c0.1-4.7-0.1-9.3,0.1-14c0-0.8,1.5-2.2,2.4-2.2
	c0.8,0,2.2,1.4,2.3,2.3C539.2,219.3,539,221.6,539,224z"/>
<path d="M809,224.4c0,2-0.1,4,0,6c0.1,1.8-0.4,2.8-2.5,2.8c-1.9,0-2.8-0.6-2.8-2.5c0-4.5-0.1-9,0.1-13.5c0-0.8,1.4-2,2.4-2.2
	c1.7-0.4,2.8,0.5,2.8,2.5C808.9,219.7,809,222.1,809,224.4C809,224.4,809,224.4,809,224.4z"/>
<path d="M714.1,224.6c0,2,0,4,0,6c0,1.4-0.2,2.9-2.1,2.4c-0.8-0.2-1.9-1.4-1.9-2.1c-0.2-4.5-0.2-9,0-13.5c0-0.8,1.1-2,1.8-2.2
	c1.8-0.5,2.2,0.8,2.2,2.4C714.1,219.9,714.1,222.2,714.1,224.6z"/>
<path d="M809,210.2c0.3,2.1-0.6,3-2.8,3c-2.4-0.1-3.1-1.3-3.1-3.5c-0.1-2.5,1.5-2.4,3.3-2.5C808.7,207,809.2,208.2,809,210.2z"/>
<path d="M712.4,214.7c-1.6-2.2-2.8-3.2-3.2-4.4c-0.5-1.8,0.3-3.1,2.6-3c1.9,0,3.5,0.3,3,2.6C714.6,211.1,713.7,212.2,712.4,214.7z"
	/>
<path d="M539,209.9c0.1,1.8,0.2,3.3-2.4,3.3c-2.4,0-2.6-1.2-2.5-3.1c0.1-1.5-0.1-2.9,2.2-2.9C538.3,207.1,539.3,207.8,539,209.9z"/>
<path d="M184.6,64.5c0.3,0,0.5-0.1,0.8-0.1c-0.1,0-0.2,0.1-0.2,0.1C185,64.5,184.8,64.5,184.6,64.5L184.6,64.5z"/>
<path d="M48.4,60.5c-0.2,0-0.5,0-0.7-0.1c0.1,0,0.2-0.1,0.3,0C48.2,60.4,48.3,60.5,48.4,60.5L48.4,60.5z"/>
</svg>
