<svg id="PASS_IAAS_SAAS" data-name="PASS/IAAS/SAAS" xmlns="http://www.w3.org/2000/svg" width="141.809" height="123.16" viewBox="0 0 141.809 123.16">
  <path id="Path_117" data-name="Path 117" d="M514.564,388.973l-69.6,120.555H584.166Z" transform="translate(-443.659 -387.67)" fill="#fff"/>
  <path id="Path_118" data-name="Path 118" d="M484.045,477.379a1.823,1.823,0,0,1,1.823-1.824h77.812l-18.837-32.626H508.476a1.823,1.823,0,0,1,0-3.646h34.261l-26.282-45.521-26.281,45.521h8.112a1.823,1.823,0,0,1,0,3.646H488.069l-18.837,32.626h8.026a1.823,1.823,0,0,1,0,3.646H467.126L449.108,510.41H583.8L565.785,479.2H485.868A1.823,1.823,0,0,1,484.045,477.379Z" transform="translate(-445.551 -389.855)" fill="none"/>
  <path id="Path_119" data-name="Path 119" d="M584.2,507.785l-19.188-33.236-1.266-2.193-19.106-33.093-1.88-3.256L514.6,387.229a1.3,1.3,0,0,0-2.255,0l-28.177,48.8-1.428,2.473L463.231,472.3l-1.482,2.567-19.008,32.922a1.3,1.3,0,0,0,1.127,1.953H583.075a1.3,1.3,0,0,0,1.127-1.953Zm-138.078-.651,18.018-31.208h10.131a1.823,1.823,0,0,0,0-3.647h-8.025l18.837-32.626H495.3a1.823,1.823,0,1,0,0-3.646H487.19l26.281-45.522,26.282,45.522H505.492a1.823,1.823,0,1,0,0,3.646h36.366L560.7,472.279H482.884a1.823,1.823,0,0,0,0,3.647H562.8l18.018,31.208Z" transform="translate(-442.567 -386.578)" fill="#023e57"/>
</svg>
