<?xml version="1.0" encoding="utf-8"?>
<!-- Generator: Adobe Illustrator 24.0.1, SVG Export Plug-In . SVG Version: 6.00 Build 0)  -->
<svg version="1.1" id="Layer_1" xmlns="http://www.w3.org/2000/svg" xmlns:xlink="http://www.w3.org/1999/xlink" x="0px" y="0px"
	 viewBox="0 0 350.2 350.2" style="enable-background:new 0 0 350.2 350.2;" xml:space="preserve">
<style type="text/css">
	.st0{fill:#008DFF;}
</style>
<path class="st0" d="M282.1,95.6h-27.4V68.2c0-37.6-30.6-68.2-68.2-68.2h-22.8c-37.6,0-68.2,30.6-68.2,68.2v27.4
	c0,0-0.5,16.9,0.9,28.9c5.7,41.6,36.6,51.9,64.2,61c3.2,1.1,6.4,2.1,9.7,3.3c3.4,1.2,6.8,2.3,10.1,3.4
	c31.5,10.5,45.4,16.4,45.4,48.1v41.8c0,21.7-17.6,39.3-39.3,39.3h-22.8c-21.7,0-39.3-17.6-39.3-39.3v-56.3H68.2
	c-21.7,0-39.3-17.6-39.3-39.3v-22.8c0-21.2,16.8-38.5,37.8-39.3V95.6C29.8,96.4,0,126.6,0,163.7v22.8c0,37.6,30.6,68.2,68.2,68.2
	h27.4v27.4c0,37.6,30.6,68.2,68.2,68.2h22.8c37.6,0,68.2-30.6,68.2-68.2v-27.4c0,0,0.5-16.9-0.9-28.9c-5.7-41.6-36.6-51.9-64.2-61
	c-3.2-1.1-6.4-2.1-9.7-3.3c-3.4-1.2-6.8-2.3-10.1-3.4c-31.5-10.5-45.4-16.4-45.4-48.1V68.2c0-21.7,17.6-39.3,39.3-39.3h22.8
	c21.7,0,39.3,17.6,39.3,39.3v56.3h56.3c21.7,0,39.3,17.6,39.3,39.3v22.8c0,21.2-16.8,38.5-37.8,39.3v28.9
	c36.9-0.8,66.7-31,66.7-68.1v-22.8C350.2,126.1,319.7,95.6,282.1,95.6z"/>
</svg>
