<svg xmlns="http://www.w3.org/2000/svg" width="239.356" height="293.363" viewBox="0 0 239.356 293.363">
  <g id="service-2" transform="translate(-1866 -1556)">
    <path id="Path_2818" data-name="Path 2818" d="M3056.548,80.927c-.5-.462-.888-.994-1.883-1.847-5.043-4.474-10.8-7.955-17.934-9.02-13.246-1.953-24.929,5.93-28.3,17.33a5.164,5.164,0,0,0,1.634,5.54c1.74,1.527,3.764,1.278,6.427,1.278h115.449c2.663,0,4.759-.036,6.143-1.527,2.344-2.592,2.06-8.771-3.516-9.02a26.368,26.368,0,0,0-9.872,1.669c-.923.32-2.06.888-2.841,1.1.355-1.243.994-2.7,1.42-4.048a59.865,59.865,0,0,0,2.593-13.743c.816-12.678-2.983-23.225-13.495-29.865a39.023,39.023,0,0,0-16.3-5.469c-13.992-1.172-22.656,8.274-27.557,15.874a74.074,74.074,0,0,0-7.173,14.666,96.167,96.167,0,0,0-3.8,12.536C3057.4,77.056,3056.725,80.678,3056.548,80.927Z" transform="translate(-1035.361 1523.973)" fill="#fff" fill-rule="evenodd"/>
    <path id="Path_2819" data-name="Path 2819" d="M1642.778,4388.1a45.826,45.826,0,0,0,1.243-8.736c0-3.693-1.74-4.119-5.5-4.723-1.6-.249-7.067-.888-8.026-1.526-.213-1.528,1.136-.782,3.8-.321,5.291.888,10.44.675,10.867,5.541a44.906,44.906,0,0,1-1.136,9.694c-.781,2.841-2.663,4.617-6.179,4.617-1.989,0-8.736-.958-9.2-1.74-.923-1.6,2.734-.32,3.267-.178C1636.173,4391.727,1641.251,4392.615,1642.778,4388.1Zm20.419-53.375c.106,1.1-2.024,24.538-2.166,26.1-.746,7.67-1.349,15.021-2.2,22.692-.071.781.036,2.663-.746,2.734-1.03.106-.5-1.989-.391-2.806,1.278-11.647,2.273-23.863,3.3-35.583.355-4.226.639-8.665,1.1-13.032Zm25.71-13.175c-.32-.816.355-1.314.746-1.917.426-.6.639-1.314,1.563-.959.249.781-.355,1.279-.781,1.882S1689.831,4321.875,1688.908,4321.556Zm-3.3-8.062a35.984,35.984,0,0,1,1.776,4.227l-4.261,1.7c-.355-1.172-1.527-3.231-1.669-4.261Zm-8.772-1.562c.568.568,1.634,1.563.959,2.024-.639.461-1.314-.6-1.953-1.384s-1.7-1.563-.888-2.06C1675.591,4310.121,1676.479,4311.542,1676.834,4311.932Zm-3.409-5.326c.6-.355,8.061-4.439,8.665-4.652.106,2.308-.107,6.782-.142,9.3C1681.486,4311.151,1673.673,4306.854,1673.425,4306.605Zm25.32,16.584c-.071-.5-4.119-6.925-4.9-8.239a26.327,26.327,0,0,1-1.6-2.665c.639-.887,7.6-5.326,11.542-.035a10.259,10.259,0,0,1,1.6,3.268c.142.284,0,.212.284.319l4.4-4.829c.284-.32.923-.853.994-1.35.249-1.954-2.628-1.6-4.9-1.847l-.639-1.42c3.054.178,6.179.568,9.233.852,1.172.143,3.693-.142,3.48,1.457-.071.6-.71,1.066-1.1,1.456l-3.587,3.977c-.817.746-1.6,1.847-2.379,2.593l-7.209,7.848c-.391.461-.817.852-1.207,1.314-.533.674-.675.71-1.847.568-9.091-.924-18.253-1.634-27.344-2.628a9.809,9.809,0,0,1,.71-2.841C1677.118,4321.165,1698.034,4323.509,1698.745,4323.189Zm-6.854-18.112a36.513,36.513,0,0,1,4.332.391c1.385.142,2.166-.283,3.054,1.706l-8.132-.817Zm-8.665-.887,7.209.675c.071.5-.355.958-.568,1.385l-6.641-.64Zm-21.52,18.431a15.155,15.155,0,0,1-2.557-.213c-.852-.071-1.562-.106-1.669-.994-.036-.71.746-1.314,1.065-1.7,1.74-2.06,4.581-4.83,6.286-6.855,1.776-2.095,4.546-4.83,6.392-6.995,2.663-3.055,2.308-2.664,5.256-2.309-.568.6-4.368,2.344-5.433,3.055.071.07,0,.035.178.177a30.467,30.467,0,0,1,2.734,1.6,8.446,8.446,0,0,1-1.208,1.349l-6.215,6.818c-.5.5-.746.854-1.243,1.35-.71.71-.5,1.137-.177,1.988A16.46,16.46,0,0,0,1661.706,4322.621Zm43.36-13.637c-2.7.568-6.5-3.978-6.214-5.4.817-4.12,12.465.249,13.921,2.273-1.882-.036-4.155-.355-6.073-.568-2.308-.214-1.562.249-3.2-1.776-.852-1.029-1.562-.212-1.172.462C1702.58,4304.4,1705.385,4307.351,1705.066,4308.984Zm-48.4,13.53c.852,1.207,2.166,1.03,3.871,1.207-.071.5-.107.959.533.923.426,0,1.669-1.527,2.628-2.272a25.262,25.262,0,0,1,3.835-2.663c1.385-.818,7.777-4.368,9.517-2.806.213,1.421-1.527,2.238-2.628,2.663-1.172.462-.995.036-1.349,1.279-.177.71-.355,1.314-.568,2.024-.213.782-1.1,3.587-1.136,4.12-.036.816.888,1.1,1.207-.036a12.863,12.863,0,0,1,.6-1.988l11.719,1.1c-.5.675-4.439,2.486-5.469,2.912-5.576,2.38-14.2,5.043-20.313,4.865l-1.882.107.284,2.272c-12.607,0-21.733-3.658-29.4-12.216a25.753,25.753,0,0,1-2.912-3.941l-1.811-3.41a3.018,3.018,0,0,0-.675-1.136c-.106,4.545,0,9.943,0,14.666,0,1.03-.142,1.456.213,1.882,3.764.959,7.031.71,11.009.71l-1.847,15.59c-.391,2.628-.675,5.078-1.065,7.742l-4.9,34.411c-.106.675-.177,1.208-.284,1.882l-.249,1.917c.391.285,13.885.106,15.554.106h7.848c2.237,0,5.682.213,7.813-.035,0-1.1.959-5.185.959-6.854a2.076,2.076,0,0,0,.106.249,4.037,4.037,0,0,1,.107,1.313c0,1,.249,3.552.249,5.257.462.142,25.853.248,27.522.035,0-.852-.142-1.278-.142-1.989l-.213-4.048c-.213-1.775-.107-4.971-.32-6.214-.178-1.244-.107-2.876-.178-4.191-.035-.532-.071-.426-.106-.958l-1.42-21.343c-.071-.71-.107-1.456-.142-2.13-.036-1.244-.249-2.805-.32-4.013-.071-.781-.071-1.243-.142-2.023l-1.314-13.957c-.036-.568-.177-1.385-.213-1.917a16.605,16.605,0,0,0-.248-2.024c1.775-.391,5.611-3.161,5.682-3.2.391-.177,9.446.924,10.8.959.852.036,1.918.142,2.841.249,2.948.319,2.557-.178,4.084-1.634l8.594-9.411a22.324,22.324,0,0,1,1.989-2.273,24.624,24.624,0,0,1,2.06-2.165,22.021,22.021,0,0,0,2.2-2.593,2.234,2.234,0,0,0-1.314-3.125c-1.882-.638-2.344.427-3.871-1.065a8.523,8.523,0,0,0-1.421-1.1,16.032,16.032,0,0,0-1.527-.958c-.533-.284-1.03-.462-1.634-.745a22.643,22.643,0,0,0-5.718-1.741c-2.805-.283-6.179-.106-6.179,3.551l-4.972-.461a3.434,3.434,0,0,1,.462-.958,9.047,9.047,0,0,0,.568-.995c.639-1.137.639-1.6-.532-1.6l-1.918,3.445a3.968,3.968,0,0,1-.817-.071l-7.067-.639.036-3.054a38.509,38.509,0,0,0-3.764,1.954,2.387,2.387,0,0,1-2.273.5c-4.794-.461-3.871-.5-6.25,1.881l-10.44,11.4c-2.7,2.841-1.847,2.912-4.439,2.7l.107,1.03.6.25c0-.037.035.035.071.035C1656.308,4320.916,1656.1,4321.022,1656.663,4322.515Z" transform="translate(300.957 -2591.299)" fill="#023e57" fill-rule="evenodd"/>
    <path id="Path_2820" data-name="Path 2820" d="M1583.8,3062.69c0,5.433,2.912,8.913,6.286,11.647a21.821,21.821,0,0,0,4.439,2.805c.994.533,2.1.568,1.563,1.669-1.136.284-4.084-1.669-4.936-2.2-4.4-2.877-8.487-7.6-8.487-13.708a28.025,28.025,0,0,1,1.811-9.552,43.384,43.384,0,0,1,2.486-5.717c.249-.462.675-1.6,1.172-1.669,1.491-.213-.213,2.308-.781,3.48a39.793,39.793,0,0,0-1.669,3.942A28.519,28.519,0,0,0,1583.8,3062.69Zm29.617-23.758a.569.569,0,0,1,.923-.567c1.207.923,4.048,16.974,4.581,20.525.178,1.03.746,2.451-.71,2.131a55.361,55.361,0,0,1-1.1-6.073c-.675-3.8-1.527-8.2-2.45-11.9Zm-50.711-17.507a44.112,44.112,0,0,1-.071,5.363,2.064,2.064,0,0,1-.071,1.456c.284-.036.142,1.172.142,1.7v22.55c0,4.368-.462,3.515-.852,7.244a31.642,31.642,0,0,0,.107,7.777c.6,4.616.746,1.456.746,7.351,0,1.7.142,15.98-.071,16.265v50.96c0,2.8-.071,5.717,0,8.522a5.368,5.368,0,0,0,1.172,3.125,4.631,4.631,0,0,0,2.734,1.421l31.179.071a4.818,4.818,0,0,1,1.811.142c.391-.319,6.179-.142,6.747-.142,6.783,0,13.921-.107,20.632,0l.107,1.172v-1.172h22.053c1.562,0,6.179.213,7.244-.107,4.581-1.314,3.409-6.889,3.409-11.257v-67.934a8.034,8.034,0,0,0,0-.923,1.3,1.3,0,0,0-.142-.817c-.249-.781.248-1.349-.746-2.059-.355-.248-.319-.142-.639-.39a24.52,24.52,0,0,0-2.06,2.166,22.115,22.115,0,0,0-1.989,2.273c.888,0,1.776.177,2.521.212.852.036,1.278-.6,1.776-.923v68.751c0,1.776.177,5.256-.036,6.854a3.521,3.521,0,0,1-1.243,2.2,4.277,4.277,0,0,1-2.628.782c-2.1,0-26.279.142-27.628-.035-1.669.213-27.06.106-27.521-.036l-1.421.036c-2.131.249-5.575.035-7.812.035h-7.848c-1.669,0-15.163.177-15.554-.107-3.09-.532-2.806-3.3-2.806-5.362v-54.866c0-.462-.142-1.669.142-2.024-.355-.426-.213-.853-.213-1.882,0-4.723-.106-10.121,0-14.666a3.023,3.023,0,0,1,.675,1.137l1.811,3.409a25.729,25.729,0,0,0,2.912,3.942c7.671,8.558,16.8,12.216,29.4,12.216l-.284-2.273,1.882-.107-1.882.036-.675-10.689v-.355c.036-.391-.036-.107.106-.32-.568-1.491-.355-1.6.284-2.77-.035,0-.071-.071-.071-.036l-.6-.248-.107-1.03c2.592.213,1.74.142,4.439-2.7l10.441-11.4c2.379-2.379,1.456-2.344,6.25-1.882a2.387,2.387,0,0,0,2.273-.5,38.667,38.667,0,0,1,3.764-1.953l-.036,3.054,7.067.639c-.249-.6-1.172-1.954-1.563-2.663a75.789,75.789,0,0,1-3.693-6.854l-1.918-4.368c-.391-1.065-.71-2.131-1.136-3.125s-.817-1.989-1.278-2.983l-2.131-4.155a36.394,36.394,0,0,0-3.018-4.333c-.142-.213-.32-.426-.462-.6a22.852,22.852,0,0,0-3.161-3.231,25.229,25.229,0,0,0-4.972-3.445l-2.948-1.314a17.076,17.076,0,0,0-3.232-1.03c0,.532-2.876,9.553-3.231,10.3l-5.753-5.824c-.959-1.03-1.882-1.953-2.841-2.982-.355-.427-.817-1.279-1.6-1.03a6.7,6.7,0,0,0-2.13.852,27.837,27.837,0,0,1,3.125,3.622,20.133,20.133,0,0,1,2.308,4.439c3.516,8.949.923,18.75-4.545,26.1a24.717,24.717,0,0,1-3.161,3.693,19.812,19.812,0,0,1,.5-5.646c.675-2.912,4.084-5.575,4.9-13.211a19.108,19.108,0,0,0-5.291-15.767c-.426-.426-1.243-.994-1.456-1.634-1.562.391-5.291,3.054-6.463,3.942-5.575,4.332-9.268,10.192-11.754,16.833-.178.426-.462,1.456-.675,1.882l-.071-23.331.249-.177c-.249-.213-.213.249-.249-.639a1.967,1.967,0,0,1,.071-.639l-.035-5.008c-.32-3.8.32-5.93,4.19-5.9,3.942,0,5.043,1.03,4.865,5.149-1.1,0-4.687-.177-5.469.107h14.453c-.817-.32-6.357-.071-7.813-.142-.071-2.344,0-3.586-1.314-4.936-1.314-1.314-2.663-1.314-4.972-1.314a4.652,4.652,0,0,0-4.332,1.953C1562.389,3017.589,1562.815,3019.223,1562.708,3021.424Z" transform="translate(359.791 -1350.934)" fill="#bf353e" fill-rule="evenodd"/>
    <path id="Path_2821" data-name="Path 2821" d="M397.7,2445.637c.107-2.2-.32-3.836.817-5.5a4.654,4.654,0,0,1,4.332-1.953c2.308,0,3.658,0,4.972,1.314,1.314,1.35,1.243,2.592,1.314,4.936,1.456.071,7-.178,7.813.142,2.486,0,4.048.959,5.717,1.42a6.591,6.591,0,0,0,.142-1.171c-.036-.533-.213-.569-.5-.995-.391-.639-.533-1.7-.746-2.06a13.6,13.6,0,0,1-3.09,1.669c-.355-4.332.817-3.835.036-5.5-.355-.746-.639-1.491-.959-2.237-.923-2.095-1.207-1.349.817-3.942.355-.462,2.7-3.267,2.663-3.622A12.932,12.932,0,0,0,420,2426c-3.232-5.362-8.2-8.274-16.8-8.914-11.967-.923-19.958,4.155-24.716,13.566a29.878,29.878,0,0,0-2.521,7.067,12.076,12.076,0,0,1-.639,2.7c-1.6-2.024-2.912-3.8-6-4.652a11.39,11.39,0,0,0-8.594,1.563c-3.871,2.308-8.274,7.28-6.605,14.2a12.737,12.737,0,0,0,11.719,9.837c.781.035,20.561.106,21.52-.036.213-2.308.071-3.515.852-5.681a16.483,16.483,0,0,1,2.166-4.333C391.984,2449.117,395,2446.454,397.7,2445.637Z" transform="translate(1524.798 -775.147)" fill="#fff" fill-rule="evenodd"/>
    <path id="Path_2822" data-name="Path 2822" d="M393.06,2417.522a22.23,22.23,0,0,1,4.119-.39,36.647,36.647,0,0,1,5.114.39l-2.273,7.138C399.523,2424.376,393.77,2418.339,393.06,2417.522Zm2.805-15.412a6.8,6.8,0,0,1,.923-1.137c.32-.39.5-.568.852-.994.6-.71,1.136-1.456,1.7-2.2l3.267-4.617c1.6.64,5.753,6.357,5.753,10.121,0,4.936-4.048,7.848-8.949,8.061a16.678,16.678,0,0,1-2.876-.284,3.726,3.726,0,0,1-3.267,1.349,4.207,4.207,0,0,1-3.729-3.267c-.178-.958-.071-1.136.533-1.6.426-.319.781-.6,1.243-.994a7.091,7.091,0,0,1,1.243-1.03,3.146,3.146,0,0,0,1.776.959,2.077,2.077,0,0,0,1.918-.675C397.712,2404.135,395.936,2402.288,395.865,2402.111Zm-31.535,80.363c.213-.284.071-14.56.071-16.264,0-5.9-.142-2.735-.746-7.352a31.642,31.642,0,0,1-.107-7.777c.391-3.729.852-2.876.852-7.245v-22.55c0-.533.142-1.74-.142-1.7-1.847.887-3.658,3.8-4.226,6.073-.959,3.728.142,27.841-.426,30.292-.5.213-.5.249-.994,0-.213-.959-.071-20.313-.071-21.84,0-3.3-.355-7.244.781-10.121.852-2.095,3.2-5.22,5.007-5.859a44.081,44.081,0,0,0,.071-5.362c-2.7.817-5.717,3.48-7.315,5.682a16.477,16.477,0,0,0-2.166,4.333c-.781,2.166-.639,3.373-.852,5.682-.959.142-20.739.071-21.52.036a12.736,12.736,0,0,1-11.719-9.837c-1.669-6.925,2.734-11.9,6.605-14.205a11.392,11.392,0,0,1,8.594-1.562c3.09.853,4.4,2.628,6,4.652a12.084,12.084,0,0,0,.639-2.7,29.872,29.872,0,0,1,2.521-7.066c4.759-9.411,12.749-14.489,24.716-13.565,8.594.639,13.565,3.551,16.8,8.913a12.92,12.92,0,0,1,1.03,2.131c.036.355-2.308,3.161-2.663,3.622-2.024,2.592-1.74,1.846-.817,3.942.32.746.6,1.491.959,2.237.781,1.669-.391,1.172-.036,5.5a13.618,13.618,0,0,0,3.09-1.669c.213.355.355,1.42.746,2.06.284.427.462.462.5.995a6.6,6.6,0,0,1-.142,1.172c-1.669-.461-3.232-1.42-5.717-1.42H369.2a12.844,12.844,0,0,0-3.587.639l.036,5.007c.533-.071,5.4-1.882,5.291-.319-.035.817-1.847.6-2.663.745a10.526,10.526,0,0,0-2.45.852l-.249.178.071,23.331c.213-.426.5-1.456.675-1.882,2.486-6.641,6.179-12.5,11.754-16.833,1.172-.888,4.9-3.551,6.463-3.941.213.639,1.03,1.207,1.456,1.634a19.108,19.108,0,0,1,5.291,15.767c-.817,7.635-4.226,10.3-4.9,13.21a19.817,19.817,0,0,0-.5,5.646,24.706,24.706,0,0,0,3.161-3.693c5.469-7.351,8.061-17.153,4.545-26.1a20.123,20.123,0,0,0-2.308-4.439,27.8,27.8,0,0,0-3.125-3.622,6.7,6.7,0,0,1,2.131-.852c.781-.249,1.243.6,1.6,1.03.959,1.03,1.882,1.953,2.841,2.983l5.753,5.824c.355-.746,3.232-9.766,3.232-10.3-.71-.071-1.6-.249-2.344-.39-.817-.142-1.563-.142-2.521-.213a29.051,29.051,0,0,0-5.007.248l-1.527-1.278c-.32-.249-.5-.391-.817-.639-.32-.178-.639-.355-.959-.568a6.562,6.562,0,0,0,.107-.959,6.107,6.107,0,0,0,2.166.817c3.089.391,3.409-1.207,4.723-1.172a13.273,13.273,0,0,0,4.048-.106,14.442,14.442,0,0,0,3.267-1.243,8.788,8.788,0,0,0,3.2-2.7,7.4,7.4,0,0,0,1.456-4.474,13.538,13.538,0,0,0-3.2-8.665,12.969,12.969,0,0,0-2.983-3.089l1.6-2.664a1.685,1.685,0,0,0,.426-.994,9.435,9.435,0,0,0-3.516-.178c-.355.035-.781.142-1.1.178-1.065,1.6-6.925,8.948-8.416,10.654-.568.639-1.207,1.385-1.74,2.06-.568.71-1.207,1.313-1.811,1.988-.32.426-1.491,2.06-2.131,1.421-.391-.6.071-.959.391-1.279l2.557-2.77c2.131-2.379,6.037-7.244,8.1-9.943a23.338,23.338,0,0,0,1.527-2.024l-4.51-2.272c-.107.426-3.267,4.3-3.764,4.936-.284.391-.5.639-.781.994-.249.355-1.243,1.811-1.634,1.918-.568-2.379-3.516-5.362-5.469-6.96-4.261-3.445-11.577-4.368-16.939-4.3a34.96,34.96,0,0,0-5.646.746,27.283,27.283,0,0,0-3.764,1.208,23.506,23.506,0,0,0-3.267,1.7,15.52,15.52,0,0,0-1.491.995,10.7,10.7,0,0,0-1.385,1.136c-.462.462-.852.71-1.314,1.172l-1.243,1.35a22.8,22.8,0,0,0-2.131,2.841c-.355.533-.6.994-.959,1.562-.178.32-.284.5-.462.852l-.213.355c-.817,1.669-2.734,6.286-2.77,8.025L340,2403.566a7.884,7.884,0,0,0-1.669-1.065,8.969,8.969,0,0,0-4.474-1.1c-4.439,0-7.067,1.775-9.8,4.048a15.6,15.6,0,0,0-3.551,4.759c-2.1,4.51-1.492,8.878,1.03,13.1a7.366,7.366,0,0,0,1.136,1.563,12.434,12.434,0,0,0,2.983,2.627,13.135,13.135,0,0,0,1.811,1.03c4.4,1.634,5.185,1.172,9.837,1.172h16.726v23.473c-.355,0-2.7-.035-2.841.036-.426.142-.249,1.634-.249,2.593,0,2.237-.142,9.552.178,11.186a7.611,7.611,0,0,0,3.054,4.9c1.136.781.426.319,1.314,2.237a16.659,16.659,0,0,0,6.854,7.493A9.885,9.885,0,0,0,364.33,2482.474Z" transform="translate(1558.098 -742.274)" fill="#023e57" fill-rule="evenodd"/>
    <path id="Path_2823" data-name="Path 2823" d="M1533.6,7023.1l.994-2.947c1.279.248,2.948.958,4.191,1.313,6.676,2.1,13.956,4.616,20.7,6.782l8.274,2.771a10.81,10.81,0,0,1,.071,2.628Zm25.533-4.3.639,1.384a42.19,42.19,0,0,0-4.865.817c-.035.994.5.639,2.45.355a20.675,20.675,0,0,1,2.876-.391,11,11,0,0,1,.781,1.137c1.918,2.735,3.373,3.374,5.042,5.185a6.446,6.446,0,0,1,1.456,2.77l-32.6-10.688,3.267-10.192c.995.142,14.808,4.013,17.259,4.651.391.142,2.273.533,2.415.817l.923,3.374c-.817.143-1.562.249-2.344.355-.568.071-2.272.071-2.1.71C1554.514,7019.831,1557.533,7018.8,1559.131,7018.8Zm9.979-28.729L1537.93,6990c-.213.6-.568,3.693-.71,4.582-.213,1.562-.462,3.054-.71,4.616l-1.065,6.783a16.929,16.929,0,0,0-.355,2.344,7.553,7.553,0,0,0,1.918.5l-4.688,14.063a3.381,3.381,0,0,0-.32.959l20.561,6.356c2.237.746,15.412,4.936,16.193,4.936.746-3.16.249-6.641-1.917-8.771a11.619,11.619,0,0,0-.959-.923l-1.527-1.314a6.8,6.8,0,0,1-.426-.533,15.637,15.637,0,0,1-2.557-3.125,10.439,10.439,0,0,1-1.243-2.522l-.959-2.983c.852.071,4.084,1.1,5.433,1.421.888-3.693,1.6-9.2,2.344-13.069Z" transform="translate(388.404 -5185.772)" fill="#023e57" fill-rule="evenodd"/>
    <path id="Path_2824" data-name="Path 2824" d="M2631.741,7027.774h34.553a7.972,7.972,0,0,1,1.137,3.16l-35.831-.249Zm.213-11.4c0-1.35-.391-.923,4.581-1.669,2.024-.284,13.743-2.166,14.7-2.095.6,2.344,1.988,4.19,2.982,5.931a13.288,13.288,0,0,1-2.131,1.064c-1.313.6-1.953.676-1.74,1.35.852.319,3.444-1.492,4.474-1.74a7.011,7.011,0,0,1,.959,1.1l-2.273,1.171c-1.633.782-2.095.675-2.024,1.456.6.249,1.421-.319,2.024-.6,2.983-1.349,2.628-1.74,3.658-.852.533.427.958.746,1.6,1.172,2.486,1.633,6.037,2.556,6.89,4.332h-33.914Zm22.621-24.539-.107-1.172c-6.711-.106-13.85,0-20.632,0-.568,0-6.357-.177-6.748.143-.142,1.243.214,3.551.214,4.616l.71,14.2c0,.71.106.888.142,1.563a11.372,11.372,0,0,0,.035,1.562l.178,3.161c.888,0,1.42-.213,2.379-.213v7.1c-.036.6-.106.64-.142,1.279,0,1.917-.036,4.972-.213,6.89-.071.567-.391.816.213.958l37,.213c1.1.036,1.314.319,1.03-1.491a9.342,9.342,0,0,0-4.723-6.748l-1.989-.888a17.3,17.3,0,0,1-8.665-8.522,12.642,12.642,0,0,1-.817-2.131l2.627-.319c.888-.213.32-.888.32-2.522l-.214-4.4c-.035-.5,0-1.03,0-1.527l-.249-4.368c-.07-1.421.036-3.054-.177-4.475Z" transform="translate(-667.764 -5186.366)" fill="#023e57" fill-rule="evenodd"/>
    <path id="Path_2825" data-name="Path 2825" d="M3686.355,1767.675l2.876,3.835c.355.533.6.817.959,1.314l6.747,9.127c.817,1.1,4.439,5.859,4.829,6.57a3.737,3.737,0,0,0,1.066-.71c.32-.284.639-.462,1.03-.746l14.1-10.44c.106-.106.142-.106.249-.213l.249-.248c-1.67.213-1.528-.888-.888-1.065.391-.142,2.06-.036,2.663-.107.177-1.243-.426-3.515,1.065-2.912.249.213.036,1.456.249,1.882a29.765,29.765,0,0,1,2.841-2.024c-.036-.568-2.486-3.729-3.018-4.261l-.391-.675-34.979.036Z" transform="translate(-1689.103 -148.251)" fill="#bf353e" fill-rule="evenodd"/>
    <path id="Path_2826" data-name="Path 2826" d="M3023.511,48.9c.177-.249.852-3.871.995-4.546a96.2,96.2,0,0,1,3.8-12.536,74.089,74.089,0,0,1,7.174-14.666c4.9-7.6,13.566-17.046,27.557-15.874a39.027,39.027,0,0,1,16.3,5.469c10.512,6.641,14.312,17.188,13.495,29.865a59.891,59.891,0,0,1-2.592,13.743c-.426,1.349-1.066,2.805-1.421,4.048.781-.213,1.918-.781,2.841-1.1a26.37,26.37,0,0,1,9.873-1.669c5.575.249,5.859,6.428,3.516,9.02-1.385,1.492-3.48,1.527-6.144,1.527H2983.454c-2.663,0-4.688.249-6.427-1.278a5.164,5.164,0,0,1-1.633-5.54c3.373-11.4,15.057-19.283,28.3-17.33,7.138,1.065,12.891,4.546,17.934,9.02C3022.623,47.905,3023.014,48.438,3023.511,48.9ZM3060.2,0h1.527a24.219,24.219,0,0,1,3.764.355,38.235,38.235,0,0,1,6.534,1.634,52.839,52.839,0,0,1,5.752,2.45c3.445,2.1,4.546,2.521,7.706,5.682A21.755,21.755,0,0,1,3088.036,13a13.108,13.108,0,0,1,1.1,1.634c3.054,5.114,3.978,7.919,4.759,14.2l.284,5.078c0,.639-.106.675-.141,1.278,0,.426.035.888,0,1.314-.036.746-.213,1.7-.213,2.486-.071,3.125-1.421,8.168-2.273,11.222a14.878,14.878,0,0,0-.568,2.06c2.379-1.136,8.558-2.2,11.15-1.811,6.712.994,6.818,8.807,3.054,11.612-1.527,1.172-2.592,1.349-5.22,1.349h-65.377l-.391-.675-34.979.036.355.639h-13.991c-2.167,0-5.007.178-6.782-.249a6.511,6.511,0,0,1-4.439-8.594,27.819,27.819,0,0,1,2.805-5.859c.249-.355.426-.71.675-1.1a33.5,33.5,0,0,1,3.16-3.729c3.2-2.663,4.155-3.658,8.558-5.433a28.226,28.226,0,0,1,20.384,0A36.7,36.7,0,0,1,3020,44.07c.391.284.568.462.923.746a9.266,9.266,0,0,1,.959.781c.32.32.461.639.923.746a110.729,110.729,0,0,1,4.3-14.773c.639-1.776,1.562-4.119,2.344-5.717.32-.639.533-1.207.852-1.882a69.953,69.953,0,0,1,4.4-7.813l2.272-3.2a5.5,5.5,0,0,1,.569-.71,33.211,33.211,0,0,1,2.556-2.912,40.264,40.264,0,0,1,4.3-3.871c.284-.213.462-.32.781-.533a27.123,27.123,0,0,1,6.179-3.3c.675-.249,1.279-.426,1.953-.639A25.472,25.472,0,0,1,3060.2,0Z" transform="translate(-1002.325 1556)" fill="#023e57" fill-rule="evenodd"/>
    <path id="Path_2827" data-name="Path 2827" d="M2759,7624.33h33.914c-.852-1.776-4.4-2.7-6.889-4.333-.639-.426-1.066-.745-1.6-1.171-1.03-.889-.675-.5-3.658.852-.6.284-1.42.852-2.024.6-.071-.78.391-.674,2.024-1.455l2.273-1.172a7.139,7.139,0,0,0-.959-1.1c-1.03.249-3.622,2.059-4.474,1.739-.213-.674.426-.745,1.74-1.349a13.256,13.256,0,0,0,2.131-1.064c-.995-1.741-2.379-3.588-2.983-5.931-.958-.072-12.677,1.811-14.7,2.095-4.972.746-4.581.32-4.581,1.669Z" transform="translate(-795.023 -5783.702)" fill="#fff" fill-rule="evenodd"/>
    <path id="Path_2828" data-name="Path 2828" d="M1638.219,7539.624c-1.6,0-4.616,1.03-4.794.284-.178-.64,1.527-.64,2.1-.71.781-.106,1.527-.214,2.344-.355l-.923-3.374c-.142-.284-2.024-.675-2.415-.817-2.451-.639-16.265-4.51-17.259-4.652L1614,7540.192l32.6,10.688a6.45,6.45,0,0,0-1.456-2.77c-1.669-1.811-3.125-2.45-5.043-5.185a10.777,10.777,0,0,0-.781-1.136,20.67,20.67,0,0,0-2.876.39c-1.953.284-2.486.639-2.45-.355a41.86,41.86,0,0,1,4.865-.816Z" transform="translate(309.316 -5706.596)" fill="#fff" fill-rule="evenodd"/>
    <path id="Path_2829" data-name="Path 2829" d="M2577.106,4770.948c-.142.214-.071-.07-.106.318v.356l.675,10.689,1.882-.036c6.108.179,14.738-2.486,20.313-4.865,1.03-.426,4.972-2.237,5.469-2.911l-11.719-1.1a12.847,12.847,0,0,0-.6,1.989c-.32,1.136-1.243.852-1.208.035.035-.532.924-3.338,1.136-4.119.213-.711.391-1.314.568-2.024.355-1.243.178-.816,1.35-1.278,1.1-.426,2.841-1.243,2.627-2.663-1.74-1.562-8.132,1.988-9.517,2.8a25.236,25.236,0,0,0-3.835,2.664c-.959.746-2.2,2.272-2.628,2.272-.639.035-.6-.427-.533-.924C2579.273,4771.979,2577.959,4772.155,2577.106,4770.948Z" transform="translate(-619.486 -3039.734)" fill="#fff" fill-rule="evenodd"/>
    <path id="Path_2830" data-name="Path 2830" d="M4618.12,2332.588a8.239,8.239,0,0,0-7.1,9.2,8.27,8.27,0,1,0,7.1-9.2Z" transform="translate(-2581.202 -693.668)" fill="#fff" fill-rule="evenodd"/>
    <path id="Path_2831" data-name="Path 2831" d="M5323,2388.03c3.055.177,6.356-1.456,8.523-3.338,3.942-3.48,6.711-11.4,3.231-17.01a15.632,15.632,0,0,0-2.734-3.232,15.421,15.421,0,0,0-3.515-2.45l-4.191,19.638A57.093,57.093,0,0,0,5323,2388.03Z" transform="translate(-3267.971 -722.121)" fill="#fff" fill-rule="evenodd"/>
    <path id="Path_2832" data-name="Path 2832" d="M3087.763,4489.446c-.533.674-1.136,1.242-1.7,1.882-.532.6-1.136,1.278-1.7,1.847-.675.674-2.806,3.337-3.516,3.622-.71.319-21.627-2.024-24.468-2.2a9.785,9.785,0,0,0-.71,2.84c9.091,1,18.253,1.705,27.344,2.629,1.172.141,1.314.105,1.846-.569.391-.461.817-.852,1.207-1.313l7.209-7.849c.781-.746,1.562-1.847,2.379-2.592l3.587-3.978c.391-.39,1.03-.852,1.1-1.456.213-1.6-2.308-1.314-3.48-1.456-3.054-.284-6.179-.675-9.233-.853l.639,1.42c2.272.249,5.149-.106,4.9,1.847-.072.5-.71,1.029-.994,1.349Z" transform="translate(-1081.137 -2764.907)" fill="#fff" fill-rule="evenodd"/>
    <path id="Path_2833" data-name="Path 2833" d="M2299.874,2686.1c3.019-.781,4.084,1.669,2.167.888-2.593-1.03-3.3,1.385-3.942.746C2297.494,2687.092,2299.27,2686.276,2299.874,2686.1Zm7.1-7.209a.764.764,0,0,1,.888,1.243A.764.764,0,1,1,2306.976,2678.889Zm5.469,1.243c-.284-.462-.532-.781-.816-1.208-.995-1.349-2.06-2.06-1.279-2.379.6-.284,3.764,4.226,3.125,4.616C2312.942,2681.482,2312.623,2680.452,2312.445,2680.132Zm-9.233.817c.071.177,1.847,2.024.39,3.693a2.078,2.078,0,0,1-1.917.675,3.149,3.149,0,0,1-1.776-.959,7.1,7.1,0,0,0-1.243,1.03c-.462.391-.817.675-1.243.994-.6.462-.711.639-.533,1.6a4.21,4.21,0,0,0,3.729,3.267,3.729,3.729,0,0,0,3.267-1.35,16.8,16.8,0,0,0,2.877.284c4.9-.213,8.949-3.125,8.949-8.061,0-3.764-4.155-9.482-5.753-10.121l-3.267,4.616c-.568.746-1.1,1.491-1.7,2.2-.355.426-.533.6-.852.994A6.851,6.851,0,0,0,2303.212,2680.949Z" transform="translate(-349.249 -1021.112)" fill="#fff" fill-rule="evenodd"/>
    <path id="Path_2834" data-name="Path 2834" d="M4197.563,3273.46c.675-.213,3.658-3.231,4.51-3.906l1.811-1.634c.355-.391.568-.5.924-.852l4.439-4.084c.391-.391.6-.5.958-.817a9.109,9.109,0,0,1,.852-.816c.355-.284.71-.462.853-.959L4196,3254c0,1.7.249,3.3.355,4.865.071.817.071,1.634.213,2.415Z" transform="translate(-2180.993 -1582.445)" fill="#bf353e" fill-rule="evenodd"/>
    <path id="Path_2835" data-name="Path 2835" d="M5185,1811.788l3.586,5.4c.284.426.533.746.781,1.137a14.351,14.351,0,0,0,1.563,2.131c.6-.177,8.025-5.54,8.629-5.682-.106-.532-3.729-5.682-4.333-6.569l-1.456-2.2-4.368,2.841c-.355.284-.71.462-1.066.71-.426.284-.71.533-1.136.781C5186.385,1810.83,5185.781,1811.362,5185,1811.788Z" transform="translate(-3134.871 -185.866)" fill="#bf353e" fill-rule="evenodd"/>
    <path id="Path_2836" data-name="Path 2836" d="M507,3894.126v.355c.639.036,6.179,2.415,7.28,2.841,1.243.426,2.379.959,3.622,1.456.533.177,3.2,1.349,3.693,1.385,0-2.309-1.669-13.531-1.669-15.164-.355.106-7.28,5.149-8.026,5.718-.533.391-1.03.746-1.6,1.136C509.7,3892.244,507.462,3893.984,507,3894.126Z" transform="translate(1377.005 -2191.037)" fill="#bf353e" fill-rule="evenodd"/>
    <path id="Path_2837" data-name="Path 2837" d="M2755,8039.912l35.832.249A7.977,7.977,0,0,0,2789.7,8037h-34.553Z" transform="translate(-791.165 -6195.592)" fill="#fff" fill-rule="evenodd"/>
    <path id="Path_2838" data-name="Path 2838" d="M3588.5,4586.651c.71-.284,2.841-2.949,3.516-3.624.568-.568,1.172-1.243,1.7-1.846.568-.639,1.172-1.208,1.7-1.882-.284-.106-.142-.035-.284-.319a10.252,10.252,0,0,0-1.6-3.267c-3.942-5.292-10.9-.853-11.542.036a26.394,26.394,0,0,0,1.6,2.663C3584.379,4579.725,3588.427,4586.154,3588.5,4586.651Z" transform="translate(-1588.797 -2854.76)" fill="#bf353e" fill-rule="evenodd"/>
    <path id="Path_2839" data-name="Path 2839" d="M1611.233,7852.494a10.8,10.8,0,0,0-.071-2.627l-8.274-2.77c-6.747-2.167-14.027-4.689-20.7-6.784-1.243-.354-2.912-1.065-4.191-1.313l-.994,2.947Z" transform="translate(345.002 -6004.623)" fill="#fff" fill-rule="evenodd"/>
    <path id="Path_2840" data-name="Path 2840" d="M2607.194,4412.6a16.441,16.441,0,0,1,3.409-2.734c-.319-.853-.532-1.279.177-1.989.5-.5.746-.853,1.243-1.35l6.215-6.819a8.488,8.488,0,0,0,1.208-1.349,30.309,30.309,0,0,0-2.735-1.6c-.177-.143-.106-.107-.177-.177,1.066-.71,4.866-2.45,5.433-3.055-2.948-.355-2.592-.746-5.256,2.309-1.846,2.166-4.616,4.9-6.392,7-1.7,2.024-4.545,4.794-6.285,6.854-.32.391-1.1.995-1.065,1.7.107.887.817.923,1.669.994A15.254,15.254,0,0,0,2607.194,4412.6Z" transform="translate(-644.531 -2681.281)" fill="#fff" fill-rule="evenodd"/>
    <path id="Path_2841" data-name="Path 2841" d="M3767.2,3946.654a5.091,5.091,0,0,0-3.977,5.966,5.151,5.151,0,1,0,3.977-5.966Z" transform="translate(-1763.485 -2250.382)" fill="#fff" fill-rule="evenodd"/>
    <path id="Path_2842" data-name="Path 2842" d="M5282.492,2340.77a57.038,57.038,0,0,1,1.314-6.392l4.19-19.638a15.414,15.414,0,0,1,3.515,2.45,15.6,15.6,0,0,1,2.735,3.231c3.48,5.611.71,13.53-3.231,17.01C5288.848,2339.314,5285.545,2340.948,5282.492,2340.77Zm-1.492,1.136c2.167.533,5.789-.533,7.28-1.243a13.812,13.812,0,0,0,4.865-3.8,5.8,5.8,0,0,0,.462-.5,18.9,18.9,0,0,0,2.06-3.729c1.42-3.551,2.2-7.671.462-11.257a16.329,16.329,0,0,0-5.327-6.321c-.71-.532-2.805-1.989-3.729-2.06l-1.492,7.173c-.568,2.415-.995,4.759-1.563,7.209-.284,1.243-.5,2.45-.745,3.657s-.533,2.309-.781,3.587l-1.137,5.4A9.838,9.838,0,0,0,5281,2341.906Z" transform="translate(-3227.461 -674.861)" fill="#023e57" fill-rule="evenodd"/>
    <path id="Path_2843" data-name="Path 2843" d="M4585.38,2301.243a8.282,8.282,0,1,1-7.1,9.2A8.243,8.243,0,0,1,4585.38,2301.243Zm-8.381,8.239c0,5.114,3.942,9.091,9.269,9.482a9.969,9.969,0,0,0,5.4-1.562c4.865-3.125,5.859-10.4,1.669-14.524-2.344-2.344-4.333-2.876-7.564-2.876a10.43,10.43,0,0,0-3.552.923A9.567,9.567,0,0,0,4577,2309.481Z" transform="translate(-2548.462 -662.323)" fill="#023e57" fill-rule="evenodd"/>
    <path id="Path_2844" data-name="Path 2844" d="M3825,2544.374c.106.639,3.054,6.605,3.48,7.316l7.244-3.445a28.606,28.606,0,0,0-1.7-3.693c-.5-1.03-1.208-2.663-1.741-3.552a32.257,32.257,0,0,0-3.658,1.669A36.531,36.531,0,0,1,3825,2544.374Z" transform="translate(-1823.167 -894.764)" fill="#fff" fill-rule="evenodd"/>
    <path id="Path_2845" data-name="Path 2845" d="M2607.09,5278.106c-.461,4.369-.746,8.808-1.1,13.032-1.03,11.72-2.024,23.937-3.3,35.584-.107.816-.639,2.911.39,2.805.782-.071.675-1.953.746-2.734.853-7.67,1.456-15.021,2.2-22.692.142-1.562,2.273-25,2.166-26.1Z" transform="translate(-644.036 -3534.568)" fill="#fff" fill-rule="evenodd"/>
    <path id="Path_2846" data-name="Path 2846" d="M2587,195.874c0,.71.426.852.781.746s1.314-1.811,1.918-2.521a28.513,28.513,0,0,1,4.545-4.474c.6-.426,1.1-.817,1.74-1.243a32.7,32.7,0,0,1,5.753-3.232c7.706-3.3,15.731-5.22,24.29-3.019,1.669.391,1.492.781,2.7.5.249-1.03-.284-1.136-1.207-1.385-.853-.249-1.492-.426-2.344-.639a27.713,27.713,0,0,0-7.1-.6,43.554,43.554,0,0,0-20.455,5.895,33.306,33.306,0,0,0-5.22,3.658,22.374,22.374,0,0,0-2.912,2.876A17.873,17.873,0,0,0,2587,195.874Z" transform="translate(-629.13 1382.392)" fill="#bf353e" fill-rule="evenodd"/>
    <path id="Path_2847" data-name="Path 2847" d="M36.835,4453.6c-5.362,1.243-3.374,9.2,1.847,7.955C43.9,4460.273,42.055,4452.39,36.835,4453.6Z" transform="translate(1833.533 -2739.321)" fill="#fff" fill-rule="evenodd"/>
    <path id="Path_2848" data-name="Path 2848" d="M4500,4873.458c.711.036,11.009,2.024,11.755,2.024-.143-.5-1.989-4.226-2.273-4.723a46.832,46.832,0,0,1-2.237-4.759c-.639.072-.142-.036-.994.817l-4.51,4.724c-.285.319-.568.567-.889.888Z" transform="translate(-2474.197 -3137.2)" fill="#bf353e" fill-rule="evenodd"/>
    <path id="Path_2849" data-name="Path 2849" d="M1788.809,6334.183c.959.639,6.428,1.278,8.026,1.527,3.765.6,5.5,1.03,5.5,4.723a45.819,45.819,0,0,1-1.243,8.736c-1.527,4.511-6.605,3.623-10.867,2.628-.533-.142-4.19-1.421-3.267.178.462.781,7.209,1.74,9.2,1.74,3.516,0,5.4-1.775,6.179-4.616a44.923,44.923,0,0,0,1.136-9.7c-.426-4.865-5.576-4.652-10.867-5.54C1789.945,6333.4,1788.6,6332.655,1788.809,6334.183Z" transform="translate(142.64 -4552.363)" fill="#fff" fill-rule="evenodd"/>
    <path id="Path_2850" data-name="Path 2850" d="M3398,2011.876a52.425,52.425,0,0,0,4.368,3.8c.6.5,4.084,3.587,4.475,3.693L3407.2,2009Z" transform="translate(-1411.331 -381.657)" fill="#fff" fill-rule="evenodd"/>
    <path id="Path_2851" data-name="Path 2851" d="M3339.683,1964.633l-.355,10.37c-.391-.107-3.871-3.2-4.475-3.693a52.26,52.26,0,0,1-4.368-3.8ZM3328,1967.013c.107.355.177.32.71.71l10.05,8.452c.746.6,1.208,1.243,1.7,1.279,0-2.45.213-4.759.249-7.245,0-.746.106-.923.106-1.669v-1.882c0-.781.107-1.03.107-1.776V1963C3337.73,1963.746,3330.805,1966.374,3328,1967.013Z" transform="translate(-1343.816 -337.29)" fill="#023e57" fill-rule="evenodd"/>
    <path id="Path_2852" data-name="Path 2852" d="M1430.291,3376.456a2.064,2.064,0,0,0,.071-1.456c-1.811.639-4.155,3.764-5.007,5.859-1.136,2.877-.781,6.818-.781,10.121,0,1.527-.142,20.88.071,21.84.5.249.5.213.994,0,.568-2.45-.533-26.563.426-30.292C1426.633,3380.256,1428.444,3377.344,1430.291,3376.456Z" transform="translate(492.067 -1699.148)" fill="#fff" fill-rule="evenodd"/>
    <path id="Path_2853" data-name="Path 2853" d="M2154.136,3931.381a28.525,28.525,0,0,1,1.882-9.3,39.807,39.807,0,0,1,1.669-3.942c.568-1.172,2.273-3.693.781-3.48-.5.071-.923,1.208-1.172,1.669a43.4,43.4,0,0,0-2.486,5.718,28.025,28.025,0,0,0-1.811,9.552c0,6.109,4.084,10.832,8.487,13.708.853.533,3.8,2.485,4.936,2.2.533-1.1-.568-1.136-1.562-1.668a21.87,21.87,0,0,1-4.439-2.806C2157.048,3940.294,2154.136,3936.814,2154.136,3931.381Z" transform="translate(-210.543 -2219.626)" fill="#fff" fill-rule="evenodd"/>
    <path id="Path_2854" data-name="Path 2854" d="M3780.633,2501.884a36.645,36.645,0,0,0,3.623-1.7,32.234,32.234,0,0,1,3.658-1.669c.533.888,1.243,2.521,1.74,3.552a28.45,28.45,0,0,1,1.7,3.693l-7.244,3.444C3783.688,2508.489,3780.74,2502.523,3780.633,2501.884Zm-1.633-.568c.213.923,1.775,3.622,2.273,4.759l2.237,4.723c.391-.036,4.12-1.883,4.794-2.2,1.562-.817,3.16-1.492,4.688-2.309l-2.237-4.723c-.213-.391-.355-.711-.568-1.1-.213-.462-.32-.781-.568-1.243-1.669-3.658-.6-2.308-5.931-.106l-3.444,1.633A5.587,5.587,0,0,1,3779,2501.316Z" transform="translate(-1778.801 -852.275)" fill="#023e57" fill-rule="evenodd"/>
    <path id="Path_2855" data-name="Path 2855" d="M3734.292,3914.475a5.154,5.154,0,1,1-3.977,5.966A5.091,5.091,0,0,1,3734.292,3914.475Zm-5.292,4.936c0,3.515,2.912,6.392,5.682,6.392h1.207a6.217,6.217,0,0,0,5.788-5.93,6.077,6.077,0,0,0-1.917-4.972,6.405,6.405,0,0,0-10.156,1.918A6.789,6.789,0,0,0,3729,3919.411Z" transform="translate(-1730.577 -2218.203)" fill="#023e57" fill-rule="evenodd"/>
    <path id="Path_2856" data-name="Path 2856" d="M2864,542.61c0,.5.462.462.71.462.391,0,1.456-1.492,1.989-2.024a22.811,22.811,0,0,1,2.13-2.024,29.119,29.119,0,0,1,2.308-1.847l4.581-2.628a27.784,27.784,0,0,1,17.472-1.811c.532.142,1.136.426,1.491,0,.391-.533-.106-.923-.639-1.065-3.054-.888-5.078-.781-8.2-.781-5.682,0-11.613,2.557-15.554,5.327-.391.284-.781.6-1.208.923C2868.261,537.745,2864,541.545,2864,542.61Z" transform="translate(-896.294 1043.965)" fill="#bf353e" fill-rule="evenodd"/>
    <path id="Path_2857" data-name="Path 2857" d="M3773.806,4360c.319-1.633-2.486-4.581-2.735-5.008-.39-.674.32-1.491,1.172-.461,1.634,2.024.888,1.563,3.2,1.776,1.918.212,4.19.532,6.073.568-1.456-2.024-13.1-6.393-13.921-2.273C3767.307,4356.023,3771.107,4360.569,3773.806,4360Z" transform="translate(-1767.782 -2642.315)" fill="#fff" fill-rule="evenodd"/>
    <path id="Path_2858" data-name="Path 2858" d="M1623.054,3051.884a12.842,12.842,0,0,1,3.587-.639c.781-.284,4.368-.107,5.469-.107.177-4.119-.924-5.149-4.865-5.149C1623.374,3045.953,1622.735,3048.084,1623.054,3051.884Z" transform="translate(300.652 -1381.82)" fill="#fff" fill-rule="evenodd"/>
    <path id="Path_2859" data-name="Path 2859" d="M3052,4359.651c.248.248,8.061,4.546,8.522,4.652.036-2.522.249-7,.142-9.3C3060.061,4355.212,3052.6,4359.3,3052,4359.651Z" transform="translate(-1077.618 -2644.345)" fill="#fff" fill-rule="evenodd"/>
    <path id="Path_2860" data-name="Path 2860" d="M2398,3347.284c.71.817,6.463,6.854,6.96,7.138l2.273-7.138a36.611,36.611,0,0,0-5.114-.391A22.189,22.189,0,0,0,2398,3347.284Z" transform="translate(-446.843 -1672.036)" fill="#fff" fill-rule="evenodd"/>
    <path id="Path_2861" data-name="Path 2861" d="M4.368,4419.057c5.22-1.208,7.067,6.676,1.847,7.955C.994,4428.255-.994,4420.3,4.368,4419.057ZM0,4422.679a4.98,4.98,0,0,0,1.634,4.19,5.059,5.059,0,0,0,1.456.995,5.287,5.287,0,0,0,5.788-.924c5.043-4.723-2.1-12.713-7.315-7.67l-.142.106c0,.036-.036.036-.036.072A4.962,4.962,0,0,0,0,4422.679Z" transform="translate(1866 -2704.781)" fill="#023e57" fill-rule="evenodd"/>
    <path id="Path_2862" data-name="Path 2862" d="M3091,821.837c0,.178.568,1.314,1.6-.071.249-.284.5-.533.746-.781l1.6-1.385a20.579,20.579,0,0,1,15.483-4.723c1.882.178,2.521.6,2.521-.5,0-1.065-5.149-.852-5.93-.852a22.68,22.68,0,0,0-7.351,1.669l-5.646,3.48C3093.628,819,3091,821.3,3091,821.837Z" transform="translate(-1115.233 771.379)" fill="#bf353e" fill-rule="evenodd"/>
    <path id="Path_2863" data-name="Path 2863" d="M6300.106,164.568c0,.462,1.313,1.74,1.741,2.06l1.811,1.989c-.817,1.207-3.02,2.663-3.658,3.906.675,1.314,1.313.249,2.7-1.1a15.845,15.845,0,0,1,1.917-1.882c1.1.746,3.019,3.587,4.013,3.587.5,0,.5-.462.5-.71,0-.5-3.125-3.125-3.552-3.8a23.259,23.259,0,0,1,1.847-1.953c1.811-1.776,1.953-1.385,1.7-2.45a1.66,1.66,0,0,0-.6-.107c-.568,0-3.2,3.054-3.906,3.551-.391-.249-3.231-3.658-3.906-3.658A.646.646,0,0,0,6300.106,164.568Z" transform="translate(-4210.275 1397.824)" fill="#bf353e" fill-rule="evenodd"/>
    <path id="Path_2864" data-name="Path 2864" d="M3023.609,3719.95c1.456.32.887-1.1.71-2.131-.532-3.551-3.373-19.6-4.581-20.526a.569.569,0,0,0-.923.568l1.243,4.12c.923,3.693,1.775,8.1,2.45,11.9A55.461,55.461,0,0,0,3023.609,3719.95Z" transform="translate(-1045.605 -2009.865)" fill="#fff" fill-rule="evenodd"/>
    <path id="Path_2865" data-name="Path 2865" d="M2225.509,2540.106a23.361,23.361,0,0,1-1.527,2.024c-2.06,2.7-5.966,7.564-8.1,9.943l-2.557,2.77c-.32.319-.781.675-.39,1.278.639.639,1.811-.994,2.13-1.421.6-.675,1.243-1.278,1.811-1.988.533-.675,1.172-1.421,1.74-2.06,1.491-1.7,7.351-9.055,8.417-10.654C2226.183,2540.071,2226.538,2540.355,2225.509,2540.106Z" transform="translate(-268.208 -893.8)" fill="#fff" fill-rule="evenodd"/>
    <path id="Path_2866" data-name="Path 2866" d="M3278,4681.669c.142,1.03,1.314,3.089,1.669,4.262l4.261-1.705a35.9,35.9,0,0,0-1.776-4.226Z" transform="translate(-1295.592 -2957.805)" fill="#fff" fill-rule="evenodd"/>
    <path id="Path_2867" data-name="Path 2867" d="M4563.8,1911.365c1.633.142,1.811-.32,1.811.746a6.546,6.546,0,0,0,.107,2.379c.816.391,1.065,0,1.065-.817v-2.166h1.775c.924.035.852.035,1.42-.355v-.568c-.816-.568-1.6-.355-3.089-.355v-1.065c-.213-.426,0-1.669-.249-1.882-1.492-.6-.887,1.669-1.065,2.912-.6.071-2.273-.036-2.664.106C4562.274,1910.477,4562.132,1911.578,4563.8,1911.365Z" transform="translate(-2534.446 -283.454)" fill="#023e57" fill-rule="evenodd"/>
    <path id="Path_2868" data-name="Path 2868" d="M3484.309,3743.857c1.811-.639,2.663,2.273.817,2.77a1.443,1.443,0,0,1-1.669-2.131A1.2,1.2,0,0,1,3484.309,3743.857Zm-2.309,1.314c0,3.409,5.327,3.906,5.327-.107C3487.327,3741.691,3482,3741.833,3482,3745.172Z" transform="translate(-1492.348 -2053.694)" fill="#023e57" fill-rule="evenodd"/>
    <path id="Path_2869" data-name="Path 2869" d="M6079,1998.895c0,.6.249.639.6.853a2.635,2.635,0,0,0,1.03-.639l2.7-2.273c.39-.32,3.515-2.664,3.515-3.125a.694.694,0,0,0-.5-.71c-.674,0-4.758,3.658-5.61,4.333A13.036,13.036,0,0,0,6079,1998.895Z" transform="translate(-3997.123 -366.225)" fill="#023e57" fill-rule="evenodd"/>
    <path id="Path_2870" data-name="Path 2870" d="M3551,4444.2l8.132.817c-.888-1.989-1.669-1.563-3.054-1.7a36.206,36.206,0,0,0-4.332-.391Z" transform="translate(-1558.897 -2729.139)" fill="#fff" fill-rule="evenodd"/>
    <path id="Path_2871" data-name="Path 2871" d="M1105.492,3908.557c-.213,1.03-.071.746.568,2.309.249.639.426,1.1.71,1.74.319.71,1.243,3.3,1.7,3.3,1.563,0,.249-1.883-.5-3.764l-1.279-3.019C1106.45,3908.557,1106.273,3908.237,1105.492,3908.557Z" transform="translate(799.855 -2213.635)" fill="#023e57" fill-rule="evenodd"/>
    <path id="Path_2872" data-name="Path 2872" d="M3328,4419.421l6.641.639c.213-.426.639-.887.568-1.385L3328,4418Z" transform="translate(-1343.816 -2705.109)" fill="#fff" fill-rule="evenodd"/>
    <path id="Path_2873" data-name="Path 2873" d="M3696,3116.185c.249.533.177.6.817.6.355,0,.142-.035.639-.568l1.633-1.882a17.079,17.079,0,0,0,2.131-2.77c0-.568-.391-.568-.71-.568-.391,0-.995.853-1.243,1.136A41.966,41.966,0,0,0,3696,3116.185Z" transform="translate(-1698.748 -1444.523)" fill="#023e57" fill-rule="evenodd"/>
    <path id="Path_2874" data-name="Path 2874" d="M6524.393,2549.39a.859.859,0,0,0,.107.959l2.77,3.871c.5.781.817,1.065,1.492.284-.071-.817-2.522-3.835-3.054-4.652C6525.458,2549.461,6525.316,2549.035,6524.393,2549.39Z" transform="translate(-4426.608 -902.728)" fill="#023e57" fill-rule="evenodd"/>
    <path id="Path_2875" data-name="Path 2875" d="M4974,5020.568c0,.532,1.065,1.491,1.42,1.917l2.735,2.948c1.6-.354.142-1.562-.178-1.953a3.781,3.781,0,0,0-.5-.568c-.568-.6-2.237-2.912-2.877-2.912A.68.68,0,0,0,4974,5020.568Z" transform="translate(-2931.364 -3285.731)" fill="#023e57" fill-rule="evenodd"/>
    <path id="Path_2876" data-name="Path 2876" d="M3890.665,3630.682c.745,0,.781-.178.709-1.066l-.177-3.373c-.107-.781-.035-1.243-.781-1.243-.853,0-.532,2.024-.426,2.77C3890.132,3628.764,3889.884,3630.682,3890.665,3630.682Z" transform="translate(-1885.707 -1940.269)" fill="#023e57" fill-rule="evenodd"/>
    <path id="Path_2877" data-name="Path 2877" d="M3517.959,3775.522a1.2,1.2,0,0,0-.853.639,1.443,1.443,0,0,0,1.669,2.131C3520.623,3777.795,3519.771,3774.883,3517.959,3775.522Z" transform="translate(-1525.999 -2085.359)" fill="#fff" fill-rule="evenodd"/>
    <path id="Path_2878" data-name="Path 2878" d="M5029.418,2864.865c1.385,0-.177-2.379-.426-2.876-.568-1.172-.746-1.989-1.456-1.989-1.349,0,.426,2.77.958,3.8C5028.708,2864.226,5028.851,2864.865,5029.418,2864.865Z" transform="translate(-2982.521 -1202.436)" fill="#023e57" fill-rule="evenodd"/>
    <path id="Path_2879" data-name="Path 2879" d="M574,5147.809v4.048c0,.674,1.314.924,1.314-.249v-3.8C575.314,5147.063,574,5147.063,574,5147.809Z" transform="translate(1312.384 -3408.462)" fill="#023e57" fill-rule="evenodd"/>
    <path id="Path_2880" data-name="Path 2880" d="M1623.808,3327.115a1.964,1.964,0,0,0-.071.639c.036.888,0,.426.249.639a10.518,10.518,0,0,1,2.45-.852c.817-.142,2.628.071,2.663-.746C1629.206,3325.233,1624.341,3327.044,1623.808,3327.115Z" transform="translate(299.934 -1652.044)" fill="#fff" fill-rule="evenodd"/>
    <path id="Path_2881" data-name="Path 2881" d="M3086.961,4594.172c-.817.5.249,1.279.887,2.061s1.314,1.847,1.953,1.385c.675-.462-.39-1.456-.958-2.024C3088.489,4595.2,3087.6,4593.782,3086.961,4594.172Z" transform="translate(-1111.052 -2874.96)" fill="#fff" fill-rule="evenodd"/>
    <path id="Path_2882" data-name="Path 2882" d="M2670.668,2799.65c-.781.32.284,1.03,1.278,2.38.284.426.533.745.817,1.207.177.32.5,1.35,1.03,1.03C2674.433,2803.877,2671.272,2799.366,2670.668,2799.65Z" transform="translate(-709.568 -1144.217)" fill="#030047" fill-rule="evenodd"/>
    <path id="Path_2883" data-name="Path 2883" d="M2331.424,3064.767c-.6.177-2.379.994-1.776,1.633.639.639,1.35-1.775,3.942-.746C2335.508,3066.436,2334.442,3063.985,2331.424,3064.767Z" transform="translate(-380.799 -1399.781)" fill="#030047" fill-rule="evenodd"/>
    <path id="Path_2884" data-name="Path 2884" d="M3485.735,4826.292c.923.319,1.1-.39,1.527-.995s1.03-1.1.781-1.881c-.923-.355-1.136.354-1.562.958C3486.09,4824.979,3485.415,4825.476,3485.735,4826.292Z" transform="translate(-1495.869 -3096.036)" fill="#fff" fill-rule="evenodd"/>
    <path id="Path_2885" data-name="Path 2885" d="M2573.683,2861.93a.764.764,0,1,0,.888,1.243A.764.764,0,0,0,2573.683,2861.93Z" transform="translate(-615.956 -1204.153)" fill="#030047" fill-rule="evenodd"/>
  </g>
</svg>
