<svg xmlns="http://www.w3.org/2000/svg" width="245.27" height="284.383" viewBox="0 0 245.27 284.383">
  <g id="service-1" transform="translate(-3390 -578)">
    <path id="Path_2782" data-name="Path 2782" d="M6385.8,682.7l14.061-5.384,5.429,14.061c-.356.356-12.86,5.251-14.15,5.562C6390.387,694.539,6385.847,683.682,6385.8,682.7ZM6362.174,578H6474.4l-.045,27.188c-.979.489-3.693-.089-5.073.223l.045,44.453h5.073v79.562h-95.981l-.044-12.771-16.776-.044V689.555c.268-.312,5.518-3.515,7.921-5.785a69.666,69.666,0,0,0,6.763-6.808c3.605-4.494,5.475-6.452,8.856-11.658,2.491-3.871,2.047-2.581,1.691-4.361,1.068-.49,2.358-1.29,3.426-1.913,1.157-.623,2.136-1.2,3.292-1.825,2.67-1.513,4.406-2.358,6.319-4.227,4.093-4.049,7.921-13.171,3.249-13.483l.667-3.2,9.968,2.18-2.581-14.862c2.091.089,19,.178,19.846-.134l.045-27.588c1.913,1.023,2.625,3.693,4.182,2.8.312-1.78-2.359-2.492-3.114-4.227.622-.578,1.156-1.157,1.824-1.824.445-.445,1.78-1.29,1.157-2.136-1.024-1.113-2.581,1.958-4.183,2.937l-2.714-2.67c-.534-.578-.534-.667-1.38-.356-1.022.89,2.18,2.848,2.937,4.183l-44.809-.045v28.879l15.263.089c-.578,1.29-5.162,6.5-5.874,7.7-.756-.044-2.981-.044-3.471-.133-1.29-.267-1.6-.712-3.2-.178-3.114,1.024-8.454,7.609-11.125,10.457-2.046,2.136-12.992,13.216-14.951,14.061V584.007C6361.6,579.646,6361.107,578.356,6362.174,578Zm76.136,125.928c-8.144,0-14.729-3.337-20.6-7.832-.979-.8-4.45-3.649-4.85-4.628,1.646-.756,9.433-5.34,11.7-6.63l29.235-16.687c1.067-.578,5.207-3.159,6.052-3.337.979,2.625,1.557,3.071,2.536,6.675,1.6,6.141,1.779,12.682-1.156,18.422C6457.132,697.876,6447.476,703.928,6438.31,703.928Zm-6.453-40.76a6.376,6.376,0,0,1,5.519-7.12c8.543-.979,9.745,11.7,1.6,12.682A6.362,6.362,0,0,1,6431.857,663.168Z" transform="translate(-2839.26)" fill="#bf353e" fill-rule="evenodd"/>
    <path id="Path_2783" data-name="Path 2783" d="M3402.237,1485.231a18.105,18.105,0,0,1,2.18-1.958c.8-.623,1.469-1.29,2.27-1.913l4.45-3.916c3.115-3.026,7.742-6.764,10.679-10.19,5.562-6.5,7.609-8.766,11.748-17.488a123.668,123.668,0,0,0,8.631-24.741c1.157-4.628,2.4-10.991,3.115-15.752.312-1.958-.223-1.38,4.673-1.469,2.759-.089,5.473-.089,8.187-.133l.09,16.731H3476.5c-.712,5.517-4.093,17.977-5.918,23.45-.445,1.246-.846,2.4-1.246,3.6-.445,1.157-1.647,3.07.4,2.848,2-2.8,7.654-24.608,8.277-29.9l22.293.044a761.919,761.919,0,0,1-.312,86.147,40.846,40.846,0,0,1-.445,5.829l-33.15,2.047c-.089-3.115.355-11.747.489-15.53.134-5.162.267-10.368.4-15.53.089-4.45.8-28.256.534-32.216l-3.6,9.033c-1.29,2.981-2.625,5.651-4.182,8.5-4.539,8.5-7.52,12.059-12.815,18.733-1.691,2.091-3.026,3.293-4.583,4.984-.489.579-1.023,1.024-1.557,1.6-.979.979-2.136,2.18-3.249,3.115-1.824,1.557-12.326,10.546-13.972,11.347-.845-1.646-14.55-18.066-16.375-20.335C3406.553,1491.016,3402.637,1486.21,3402.237,1485.231Zm47.568-86.458c-1.291-.223-2.625-.534-3.827-.845-.89-.222-3.56-.668-2.448-1.824.534-.578,2.848.4,3.649.623a60.779,60.779,0,0,0,7.965,1.335c.356,0,4.494.044,2.892,1.513C3457.414,1400.108,3450.828,1399,3449.8,1398.773Zm33.283,1.869c2.938.534,5.874.712,8.143,2.136,2.136,1.29,3.426,3.96,5.607,4.539a6.614,6.614,0,0,0,4.405-.579c.89-.534.8-.89,1.29-1.246.712-.578,2.848.045,5.117-2.581.623-.712.4-.845,1.2-1.291a8.947,8.947,0,0,0,1.6-.934c.356-.579.8-.756,1.112-1.691.89-2.447-.623-4.717-1.513-6.407l27.633.045-.045,30.3-77.96-.044v-23.406c1.691-.045,3.738.178,5.518.178l11.036-.044c.89-.045,1.823-.089,2.714-.134,1.78-.045,1.112.044,2.136-.623C3481.576,1399.974,3481.887,1400.152,3483.088,1400.642Zm15.041,5.3a2.913,2.913,0,0,1-2.091-.8c-.446-.4-.935-.89-1.336-1.335a11.379,11.379,0,0,0-7.075-3.916c-2.625-.445-6.229-.222-4.716-2.67l2.892-5.3a40.654,40.654,0,0,1,4.183-6.675,14.662,14.662,0,0,1,2.67-2.8c2.491-1.691,13.038,6.5,16.108,10.991,1.557,2.358,2.67,5.918-.8,6.942-1.023-2.492-1.2-3.56-2.8-5.517-.579-.757-2.893-3.382-3.649-3.693-.757-.356-1.246.178-.311.979l2.27,2.269a16.51,16.51,0,0,1,2.491,3.515c.222.534,1.246,2.714,1.113,3.2-.267,1.068-2.447,2.625-4.939,2.714a8.045,8.045,0,0,0-.578-1.513l-2.181-3.337c-.979-1.246-2.625-3.649-3.782-3.337-.134.89.312.979.8,1.468,1.112,1.2,4.939,5.785,4.895,7.12C3501.244,1405.536,3499.552,1405.937,3498.129,1405.937Zm-40.093-61.139a.7.7,0,0,1,1.2.712c-.178.8-3.56,6.185-4.36,13.038-.357,3.115-.045,6.1,1.513,8.277,1.6,2.269,3.248,2.492,6.764,3.07a109.752,109.752,0,0,1,23.494,6.052c1.291.49,6.853,2.447,5.74,3.738-.579.667-2.714-.757-3.471-1.113-1.157-.534-2.314-1.023-3.559-1.513a117.441,117.441,0,0,0-23.673-5.918c-6.407-.935-8.677-4.984-8.41-11.3a30.4,30.4,0,0,1,1.691-8.232C3455.367,1350.448,3457.5,1345.287,3458.037,1344.8Zm36.355,6.229-2.225-8.321c-.312-1.113-1.157-3.16-.668-4.094h.979c.711,1.335,1.868,6.23,2.358,8.1.356,1.469.757,2.848,1.113,4.272.178.8,1.29,3.738,0,3.827C3494.792,1354.854,3494.613,1351.917,3494.391,1351.027Zm62.919-31.86a13.444,13.444,0,0,1,1.424-2.092c1.913-2.581,3.026-4.895,4.227-6.63.223.534-.312,1.958-.445,2.67-.4,1.78-.312,1.2-1.335,2.225C3558.023,1318.455,3559.58,1319.211,3557.311,1319.167Zm-1.913-11.614c.178,1.112-.757,1.691-1.291,2.358-3.07,3.515-1.468,3.96-.534,2.492a11.816,11.816,0,0,1,3.515-3.871c2.314-1.824,3.916-5.3,6.1-4.539.89,2.981-4.361,10.457-6.275,13.037l-2.714,3.649h5.162c.89-1.557,2.937-5.651,4.8-5.162,1.2.8-.934,5.7-1.646,6.986a19.464,19.464,0,0,1-4.094,4.895c-1.736,1.424-8.9,5.162-11.436,6.63a38.546,38.546,0,0,1-1.957-4.539,62.135,62.135,0,0,0-4.228-8.632,28.092,28.092,0,0,0-2.714-3.6l5.384-5.962c1.157-1.335,3.96-4.761,6.853-4.628-.178.712-.712.979-1.513,1.958-.312.356-.535.534-.846.846-.711.756-.356,1.246.356,1.068.356-.134.8-.845,1.113-1.157.578-.623.89-.89,1.423-1.558C3552.015,1306.441,3554.552,1307.063,3555.4,1307.553Zm-82.854,8.321a10.015,10.015,0,0,1-1.869,1.646c-2.536,1.557-6.408,1.068-7.831-.579-2.27-2.714.044-6.274,4.316-7.609,2.225-.668,1.2.178,2.581.356a1.487,1.487,0,0,0,1.647-1.6c-.222-2-7.031-4.094,3.56-12.014,5.562-4.138,4.895-4.806,8.054-2.314,4.895,3.782,8.588,13.839,4.4,18.956a12.758,12.758,0,0,1-9.345,4.183C3475.034,1316.9,3474.946,1316.453,3472.543,1315.874Zm84.012-9.3c-.134-.534,5.651-7.564,6.1-8.143,2.092-2.759,4.272-5.384,6.275-8.054.445.578,1.824,9.7,1.913,10.323.312,1.691,1.735,9.256,1.735,10.323l-8.855-1.958c.089-.489,3.159-6.942-1.424-6.764-1.469.045-2.536,1.424-3.2,2.092C3558.423,1305.106,3557.088,1306.8,3556.554,1306.574ZM3417.9,1517.091c-.8-.445-3.648-2.714-4.85-3.6-.8-.579-1.29-.534-.979-1.557.845-.044,1.068.4,1.691.846l4.494,3.293a12.709,12.709,0,0,0,.667-1.958l-4.449-3.248a6.8,6.8,0,0,1-.757-.578c-.222-.312-.178-.044-.133-.489.089-1.735,4.049,2.848,5.829,3.382a7.092,7.092,0,0,1,1.335-2.4c.134.534.4.623.757,1.112a39.491,39.491,0,0,0,2.581,3.248c1.291-2.448,4.049-3.827,6.185-5.518,1.513-1.246,6.408-5.117,7.921-6.63l8.721-8.811c.489-.623.89-.979,1.379-1.6,2.225-2.759,5.118-6.1,7.031-9.033a116.356,116.356,0,0,0,8.543-14.818c.178-.356.311-.667.489-1.024l1.87-4c0,1.157-.044,2.359,0,3.515,0,1.379-.178,2.091-.178,3.515a61.916,61.916,0,0,1-.089,7.075c-.312,2.269.044,4.761-.089,7.12l-.312,10.5c0,1.424-.178,2.269-.178,3.515,0,2.581-.178,4.583-.178,7.164,0,2.536-.178,4.494-.178,7.031l-.312,6.986c1.691,0,2.759-.134,4.494-.134v5.518c0,.89-.133,1.068-.178,1.824-.044,1.246.09,2.581,0,3.827l-.133,3.693v1.469c.579,0,2.492-.134,2.981.178l33.773.178c3.871,0,7.254.178,10.991.178h.178a11.263,11.263,0,0,0-5.25-8.944,19.4,19.4,0,0,0-2.358-1.157,24.679,24.679,0,0,1-4.628-2.581c-.4-.267-.668-.445-1.068-.756-.49-.445-.445-.623-1.068-.757-.756.579-4.049,1.958-5.384,2.625-.756.356-1.2.8-1.78.223.045-.668.045-.534,1.38-1.157l5.117-2.4-1.335-1.469a19.5,19.5,0,0,0-3.47,1.557c-.578.267-1.157.534-1.691.8-.8.356-1.246.8-1.557-.178.4-.49,5.117-2.67,5.917-2.981-.177-.712-.445-.578-1.023-1.691h1.513c1.469,0,.89-.178,1.157-3.516.178-1.869.222-3.871.356-5.829l.489-8.722c0-1.246.133-1.958.178-2.981.045-5.74.49-12.459.49-18.021v-3.026c0-1.246.178-1.78.178-3.026V1454.35c0-5.562-.49-12.5-.49-18.066l-.712-11.836H3539.2l-.044-20.558-.045-12.77-16.775-.045h-13.528a22.283,22.283,0,0,0-4.049-4.138l-2.314-1.913c-.8-.579-1.646-1.068-2.492-1.646a19.322,19.322,0,0,0-.267-2.759l-1.023-8.143c-.268-1.913-.49-3.515-.757-5.429l-.8-5.384c3.827,2.047,3.782,2.448,8.366,4,.979.311,2.225.667,3.293.89,7.119,1.379,11.836-2.136,13.572-2.536.266-.311,5.517-3.515,7.92-5.785a69.764,69.764,0,0,0,6.764-6.808c3.6-4.494,5.473-6.452,8.855-11.658,2.491-3.871,2.046-2.581,1.691-4.361,1.068-.49,2.359-1.291,3.427-1.914,1.157-.623,2.136-1.2,3.292-1.824,2.67-1.513,4.405-2.359,6.319-4.227,4.094-4.049,7.921-13.172,3.248-13.483l.667-3.2,9.968,2.18-2.581-14.862v-.178l-1.913-11.08c-.534.267-.312.133-.712.667l-3.872,4.984c-.757.979-3.827,5.029-4.45,5.518-.579,1.29-5.162,6.5-5.874,7.7-.757-.044-2.981-.044-3.471-.134-1.29-.267-1.6-.712-3.2-.178-3.115,1.023-8.455,7.609-11.124,10.457-2.047,2.136-12.994,13.216-14.951,14.061l-1.958,1.424a23.231,23.231,0,0,1-4.45,2.581,5.729,5.729,0,0,1-2.936.712c-5.384.045-12.326-4.984-16.776-7.965-.8-.49-1.424-.934-2.225-1.424l-4.316-2.67c-.8-.444-1.558-.89-2.27-1.29a13.979,13.979,0,0,0-2.491-1.157c.045-1.157.356-2.358.356-3.693a10.161,10.161,0,0,0,4.85-5.162c1.024-2.314.8-6.274.044-8.766a23.08,23.08,0,0,0-3.159-6.852,15.048,15.048,0,0,0-2.4-2.625,14.027,14.027,0,0,0-3.026-1.958c1.646-2.492,1.245-4.494-.935-6.23-5.74-4.583-15.8,8.9-18.644,12.37-2.225,2.625-3.827,4.405-2.625,8.188a7.9,7.9,0,0,0,.533,1.29c.8,1.869,1.6,2.269,2.448,3.56a11.644,11.644,0,0,0-1.646,2.67c-1.291,4.049,2,7.031,5.829,7.031v.312a17.966,17.966,0,0,0-3.026.845l-10.724,4.939a38.059,38.059,0,0,0-6.763,5.117l-1.557,1.468c-.045,0-.045.045-.089.045a44.314,44.314,0,0,0-5.7,6.852c-.534.756-1.068,1.469-1.557,2.269-.49.846-1.023,1.647-1.513,2.536-5.161,9.522-8.588,20.246-7.12,31.326a19.092,19.092,0,0,0,.668,3.159,29.073,29.073,0,0,0,5.295,10.457c.312.445.535.579.936,1.068a6.873,6.873,0,0,0,.934,1.024,19.326,19.326,0,0,0,4.494,3.56l-.668,9.834c-.089.845-.312,2.359-.356,3.2a32.527,32.527,0,0,0,4.183,0c-.757,3.16-1.335,8.633-2.358,12.637-.222.934-.445,2-.668,3.026-.267.934-.445,2-.757,3.07l-3.56,11.658c-1.068,2.625-2,5.384-3.159,8.01-.4.8-.8,1.735-1.246,2.625a77.509,77.509,0,0,1-7.03,11.837,101.752,101.752,0,0,1-10.68,11.525l-3.248,2.937c-.445.4-.667.49-1.068.89a6.083,6.083,0,0,1-.979.89l-2.047,1.825c-1.335,1.246-6.541,5.3-7.12,6.185.268.445.356.49.667,1.024-2.759,1.824-5.25,3.871-8.009,5.7a19.444,19.444,0,0,0-2.714,2c.311,1.291,2,4.005,2.669,5.34l5.162,9.834c1.824,3.827,4,7.565,5.873,11.347.445.89.935,1.646,1.424,2.625l6.941,13.394a5.866,5.866,0,0,0,1.869-1.291c4.183-4,3.471-6.808,3.471-12.059C3417.41,1520.117,3417.9,1518.56,3417.9,1517.091Z" transform="translate(-0.001 -674.465)" fill="#023e57" fill-rule="evenodd"/>
    <path id="Path_2784" data-name="Path 2784" d="M3665,4143.56c.4.979,4.316,5.785,5.251,6.942,1.824,2.269,15.53,18.688,16.375,20.335,1.646-.8,12.148-9.79,13.972-11.347,1.112-.934,2.269-2.135,3.248-3.114.534-.579,1.068-1.024,1.557-1.6,1.558-1.69,2.892-2.892,4.583-4.983,5.3-6.675,8.276-10.234,12.816-18.733,1.557-2.847,2.892-5.518,4.182-8.5l3.6-9.033c.267,3.961-.445,27.767-.534,32.217-.134,5.161-.267,10.368-.4,15.53-.134,3.782-.579,12.414-.49,15.529l33.151-2.047a40.684,40.684,0,0,0,.445-5.829,762.207,762.207,0,0,0,.312-86.147l-22.293-.044c-.623,5.295-6.274,27.1-8.277,29.9-2.047.224-.845-1.69-.4-2.847.4-1.2.8-2.357,1.246-3.6,1.824-5.474,5.206-17.933,5.918-23.45h-18.244l-.089-16.731c-2.714.044-5.429.044-8.188.133-4.895.089-4.36-.49-4.672,1.468-.712,4.761-1.958,11.124-3.115,15.752a123.576,123.576,0,0,1-8.633,24.74c-4.138,8.722-6.184,10.993-11.747,17.488-2.937,3.426-7.564,7.164-10.679,10.189l-4.45,3.917c-.8.622-1.468,1.29-2.269,1.914A18.016,18.016,0,0,0,3665,4143.56Z" transform="translate(-262.763 -3332.793)" fill="#fff" fill-rule="evenodd"/>
    <path id="Path_2785" data-name="Path 2785" d="M5022.391,3744.889l-.045,6.986h-6.985c-.222-.267-.089.044-.222-.356,0-.089-.045-.4-.045-.489,0-.267.045-.579.045-.845,0-1.335-.134-4.539.044-5.474a45.142,45.142,0,0,1,6.942,0Zm-46.767-.134h7.075v7.119l-7.164-.045Zm-9.967.044.845-.178h.845a35.685,35.685,0,0,1,5.474.134l.044,5.429c0,1.156.177,1.379-.223,1.691h-6.985Zm58.513-9.612h7.076v7.12h-7.12Zm-8.943,0h7.118v7.12l-7.118-.045Zm-8.456-.089,4.094.089v7.12l-31.772-.045V3735.5c.133-.534-.089-.178.312-.445-1.2-.49-1.512-.667-2-1.78-1.024.667-.356.578-2.135.623l-2.715.133-11.036.045c-1.78,0-3.827-.223-5.518-.178V3757.3l77.959.045.044-30.3-27.632-.044c.89,1.691,2.4,3.96,1.512,6.407C5007.574,3734.342,5007.128,3734.52,5006.772,3735.1Z" transform="translate(-1496.318 -3008.878)" fill="#fff" fill-rule="evenodd"/>
    <path id="Path_2786" data-name="Path 2786" d="M6898.391,960.056c3.826,0,20.29-.267,21.447.178.268,1.424-.4,1.335-1.735,1.335-3.916-.044-19.979.178-21.27-.178C6896.432,960.056,6897.144,960.012,6898.391,960.056Zm5.872,18.911c.624-.489,3.694-4.539,4.451-5.518l3.87-4.984c.4-.534.178-.4.711-.667l1.914,11.08,19.712.044c0-2.848.178-27.054-.089-27.5-.935.267-2.937,3.649-3.959,2.8-1.069-.935,2.4-3.115,2.936-4.183L6889,950v28.879Z" transform="translate(-3343.304 -355.447)" fill="#fff" fill-rule="evenodd"/>
    <path id="Path_2787" data-name="Path 2787" d="M7541.453,2568.114c9.167,0,18.823-6.052,22.917-14.017,2.937-5.74,2.758-12.281,1.157-18.422-.98-3.6-1.559-4.049-2.538-6.675-.845.178-4.983,2.759-6.051,3.337l-29.235,16.687c-2.27,1.29-10.056,5.874-11.7,6.63.4.979,3.871,3.827,4.851,4.628C7526.724,2564.776,7533.309,2568.114,7541.453,2568.114Z" transform="translate(-3942.404 -1864.186)" fill="#fff" fill-rule="evenodd"/>
    <path id="Path_2788" data-name="Path 2788" d="M6735.31,1737.28c-.845-.49-3.381-1.113-4.539.267-.534.668-.845.935-1.424,1.557-.311.312-.756,1.024-1.112,1.157-.712.178-1.068-.312-.356-1.068.311-.311.535-.489.845-.845.8-.979,1.334-1.246,1.513-1.958-2.893-.134-5.7,3.293-6.853,4.628l-5.384,5.963a28.121,28.121,0,0,1,2.715,3.6,62.219,62.219,0,0,1,4.227,8.632,38.623,38.623,0,0,0,1.958,4.539c2.537-1.469,9.7-5.206,11.436-6.63a19.479,19.479,0,0,0,4.094-4.894c.712-1.291,2.848-6.185,1.646-6.986-1.869-.49-3.916,3.6-4.806,5.161h-5.161l2.714-3.649c1.913-2.581,7.164-10.056,6.273-13.038-2.18-.756-3.782,2.714-6.1,4.539a11.812,11.812,0,0,0-3.515,3.871c-.934,1.469-2.536,1.024.534-2.492C6734.554,1738.971,6735.488,1738.392,6735.31,1737.28Z" transform="translate(-3179.913 -1104.192)" fill="#fff" fill-rule="evenodd"/>
    <path id="Path_2789" data-name="Path 2789" d="M5015.328,1494.236c-1.291.4-2.715-1.379-5.251,1.112-.623.579-1.291.4-.89-.489C5009.987,1493.035,5015.773,1492.056,5015.328,1494.236Zm8.321-11.08c1.291-.489,1.69,1.468.624,1.824A.965.965,0,1,1,5023.648,1483.156Zm5.206-2.269c.89.89,3.471,3.427,3.2,4.672-1.113.178-1.157-.979-2.625-2.625-1.112-1.2-2.714-2.359-2.224-2.893C5027.787,1479.463,5028.5,1480.531,5028.854,1480.887Zm-11.213,15.974c2.4.579,2.492,1.023,5.518,1.023a12.755,12.755,0,0,0,9.344-4.183c4.183-5.117.491-15.173-4.4-18.956-3.159-2.492-2.492-1.824-8.053,2.314-10.591,7.921-3.783,10.012-3.561,12.014a1.486,1.486,0,0,1-1.646,1.6c-1.379-.178-.356-1.023-2.581-.356-4.271,1.335-6.584,4.895-4.315,7.609,1.423,1.646,5.294,2.136,7.832.578A10.054,10.054,0,0,0,5017.641,1496.861Z" transform="translate(-1545.099 -855.452)" fill="#fff" fill-rule="evenodd"/>
    <path id="Path_2790" data-name="Path 2790" d="M5485.523,3517.633c1.425,0,3.115-.4,3.16-1.691.044-1.335-3.783-5.918-4.9-7.12-.488-.489-.933-.578-.8-1.468,1.155-.312,2.8,2.092,3.781,3.337l2.18,3.338a8.033,8.033,0,0,1,.58,1.512c2.491-.089,4.671-1.646,4.939-2.714.133-.49-.891-2.67-1.113-3.2a16.5,16.5,0,0,0-2.492-3.515l-2.27-2.269c-.934-.8-.445-1.335.312-.979.756.312,3.07,2.937,3.648,3.693,1.6,1.958,1.781,3.026,2.8,5.518,3.471-1.023,2.359-4.583.8-6.941-3.071-4.494-13.616-12.682-16.108-10.991a14.652,14.652,0,0,0-2.671,2.8,40.637,40.637,0,0,0-4.182,6.675l-2.892,5.3c-1.513,2.447,2.091,2.225,4.717,2.67a11.378,11.378,0,0,1,7.075,3.916c.4.445.892.935,1.335,1.335A2.915,2.915,0,0,0,5485.523,3517.633Z" transform="translate(-1987.394 -2786.16)" fill="#fff" fill-rule="evenodd"/>
    <path id="Path_2791" data-name="Path 2791" d="M8789.117,1233.676c.134-.134.091.044.134-.4v-3.782c0-12.682-.089-25.9,0-38.49v-1.6c-.134-.445,0-.133-.179-.4-.978.489-3.692-.089-5.072.222l.043,44.453Z" transform="translate(-5153.981 -583.812)" fill="#023e57" fill-rule="evenodd"/>
    <path id="Path_2792" data-name="Path 2792" d="M6908,2815.385c.044.979,4.584,11.837,5.34,14.239,1.29-.311,13.794-5.206,14.15-5.562L6922.062,2810Z" transform="translate(-3361.459 -2132.682)" fill="#fff" fill-rule="evenodd"/>
    <path id="Path_2793" data-name="Path 2793" d="M5502.679,3908.045a8.921,8.921,0,0,1-1.6.935c-.8.445-.578.578-1.2,1.29-2.269,2.625-4.4,2-5.118,2.581-.489.356-.4.712-1.29,1.246a6.606,6.606,0,0,1-4.4.579c-2.181-.579-3.472-3.248-5.607-4.539-2.269-1.424-5.206-1.6-8.143-2.136-.4.267-.178-.089-.312.445v6.764l31.771.045v-7.12Z" transform="translate(-1992.224 -3181.824)" fill="#bf353e" fill-rule="evenodd"/>
    <path id="Path_2794" data-name="Path 2794" d="M7132.951,1446.2c.533.223,1.868-1.469,2.537-2.18.667-.667,1.735-2.047,3.2-2.091,4.583-.178,1.513,6.275,1.424,6.764l8.855,1.958c0-1.068-1.424-8.633-1.736-10.324-.088-.623-1.468-9.745-1.913-10.323-2,2.67-4.183,5.3-6.275,8.054C7138.6,1438.633,7132.817,1445.663,7132.951,1446.2Z" transform="translate(-3576.397 -814.088)" fill="#fff" fill-rule="evenodd"/>
    <path id="Path_2795" data-name="Path 2795" d="M7942.131,2337.963a6.363,6.363,0,0,0,7.12,5.562c8.144-.978,6.942-13.661-1.6-12.681A6.376,6.376,0,0,0,7942.131,2337.963Z" transform="translate(-4349.534 -1674.796)" fill="#fff" fill-rule="evenodd"/>
    <path id="Path_2796" data-name="Path 2796" d="M4816.313,2647.333c-.533.489-2.67,5.651-3.071,6.808a30.422,30.422,0,0,0-1.689,8.232c-.267,6.319,2,10.368,8.41,11.3a117.408,117.408,0,0,1,23.672,5.919c1.246.489,2.4.978,3.561,1.512.757.356,2.892,1.78,3.471,1.113,1.111-1.291-4.45-3.248-5.741-3.738a109.771,109.771,0,0,0-23.493-6.052c-3.517-.579-5.162-.8-6.765-3.071-1.557-2.18-1.869-5.162-1.513-8.276.8-6.853,4.183-12.237,4.361-13.038A.7.7,0,0,0,4816.313,2647.333Z" transform="translate(-1358.277 -1977)" fill="#fff" fill-rule="evenodd"/>
    <path id="Path_2797" data-name="Path 2797" d="M6487,3918.119h7.119V3911h-7.075Z" transform="translate(-2959.193 -3184.69)" fill="#bf353e" fill-rule="evenodd"/>
    <path id="Path_2798" data-name="Path 2798" d="M5395,4133.075l7.164.044V4126h-7.075Z" transform="translate(-1915.782 -3390.123)" fill="#bf353e" fill-rule="evenodd"/>
    <path id="Path_2799" data-name="Path 2799" d="M6287,3918.075l7.12.044V3911H6287Z" transform="translate(-2768.091 -3184.69)" fill="#bf353e" fill-rule="evenodd"/>
    <path id="Path_2800" data-name="Path 2800" d="M5179.985,4134.075l.089-6.853-.043-.222H5173v7.075Z" transform="translate(-1703.661 -3391.079)" fill="#bf353e" fill-rule="evenodd"/>
    <path id="Path_2801" data-name="Path 2801" d="M6289.044,4134.075h6.987l.043-6.985L6289,4127v.222Z" transform="translate(-2770.002 -3391.079)" fill="#bf353e" fill-rule="evenodd"/>
    <path id="Path_2802" data-name="Path 2802" d="M7062.6,1175.629c1.291.356,17.355.133,21.27.178,1.335,0,2,.089,1.736-1.335-1.157-.445-17.622-.178-21.448-.178C7062.912,1174.25,7062.2,1174.294,7062.6,1175.629Z" transform="translate(-3509.072 -569.685)" fill="#023e57" fill-rule="evenodd"/>
    <path id="Path_2803" data-name="Path 2803" d="M7828.582,857.387c-.534,1.068-4.005,3.248-2.937,4.183,1.022.846,3.027-2.536,3.96-2.8.133-.489.222-.222.267-.089,1.914,1.024,2.625,3.693,4.183,2.8.311-1.78-2.358-2.492-3.115-4.227.623-.579,1.157-1.157,1.825-1.824.444-.445,1.78-1.29,1.157-2.136-1.023-1.112-2.582,1.958-4.184,2.937l-2.713-2.67c-.534-.578-.534-.667-1.38-.356C7824.622,854.094,7827.825,856.052,7828.582,857.387Z" transform="translate(-4238.076 -262.789)" fill="#023e57" fill-rule="evenodd"/>
    <path id="Path_2804" data-name="Path 2804" d="M5668.777,2514h-.979c-.49.935.355,2.981.667,4.094l2.225,8.321c.223.89.4,3.826,1.558,3.782,1.29-.089.177-3.026,0-3.827-.357-1.424-.756-2.8-1.115-4.271C5670.646,2520.23,5669.488,2515.335,5668.777,2514Z" transform="translate(-2176.299 -1849.853)" fill="#fff" fill-rule="evenodd"/>
    <path id="Path_2805" data-name="Path 2805" d="M4587.272,3802.128c-1.113,1.157,1.557,1.6,2.447,1.825,1.2.311,2.536.623,3.828.845,1.022.223,7.607,1.335,8.23.8,1.6-1.468-2.537-1.513-2.892-1.513a60.672,60.672,0,0,1-7.965-1.335C4590.12,3802.529,4587.805,3801.55,4587.272,3802.128Z" transform="translate(-1143.741 -3080.491)" fill="#fff" fill-rule="evenodd"/>
    <path id="Path_2806" data-name="Path 2806" d="M7150,1889.722c2.27.045.713-.712,3.872-3.827,1.023-1.023.933-.445,1.334-2.225.133-.712.667-2.136.445-2.67-1.2,1.735-2.314,4.049-4.228,6.63A13.461,13.461,0,0,0,7150,1889.722Z" transform="translate(-3592.689 -1245.02)" fill="#ff3e6c" fill-rule="evenodd"/>
    <path id="Path_2807" data-name="Path 2807" d="M7478,1003.387v.178c2.092.089,19,.178,19.846-.133l.046-27.588c-.046-.133-.134-.4-.269.089.269.445.09,24.652.09,27.5Z" transform="translate(-3906.094 -379.955)" fill="#ffa2b8" fill-rule="evenodd"/>
    <path id="Path_2808" data-name="Path 2808" d="M3889.794,6414.1l.356-1.023-4.495-3.293c-.622-.444-.845-.89-1.691-.845-.312,1.023.178.979.979,1.557C3886.145,6411.381,3888.992,6413.651,3889.794,6414.1Z" transform="translate(-471.893 -5571.47)" fill="#fff" fill-rule="evenodd"/>
    <path id="Path_2809" data-name="Path 2809" d="M5763.164,6634.711l-.668-.711-5.117,2.4c-1.335.623-1.335.49-1.378,1.157.578.579,1.022.134,1.778-.223C5759.115,6636.67,5762.408,6635.29,5763.164,6634.711Z" transform="translate(-2260.72 -5786.523)" fill="#fff" fill-rule="evenodd"/>
    <path id="Path_2810" data-name="Path 2810" d="M5462.905,1626.9c.267-1.246-2.313-3.782-3.2-4.672-.355-.356-1.067-1.424-1.646-.845-.489.534,1.113,1.691,2.225,2.892C5461.748,1625.92,5461.793,1627.077,5462.905,1626.9Z" transform="translate(-1975.946 -996.793)" fill="#030047" fill-rule="evenodd"/>
    <path id="Path_2811" data-name="Path 2811" d="M5727.719,6583.8l-.8-.8c-.8.311-5.519,2.492-5.918,2.981.31.979.755.534,1.557.179.534-.268,1.113-.535,1.691-.8A19.436,19.436,0,0,1,5727.719,6583.8Z" transform="translate(-2227.277 -5737.793)" fill="#fff" fill-rule="evenodd"/>
    <path id="Path_2812" data-name="Path 2812" d="M5058.536,1917.2c.445-2.18-5.339-1.2-6.141.623-.4.89.267,1.068.89.489C5055.822,1915.817,5057.246,1917.6,5058.536,1917.2Z" transform="translate(-1588.307 -1278.413)" fill="#030047" fill-rule="evenodd"/>
    <path id="Path_2813" data-name="Path 2813" d="M3924.56,6356.937c.178-.312.311-.623.49-.934-1.781-.535-5.741-5.119-5.829-3.383-.045.446-.089.178.133.49a7.1,7.1,0,0,0,.757.579Z" transform="translate(-505.637 -5517.292)" fill="#fff" fill-rule="evenodd"/>
    <path id="Path_2814" data-name="Path 2814" d="M6284.19,4129.137l-.044-6.853v-.222l7.075.089-.267-.179a45.267,45.267,0,0,0-6.942,0c-.177.935-.044,4.139-.044,5.474,0,.267-.044.579-.044.845,0,.089.044.4.044.49C6284.1,4129.181,6283.968,4128.87,6284.19,4129.137Z" transform="translate(-2765.148 -3386.14)" fill="#ffa2b8" fill-rule="evenodd"/>
    <path id="Path_2815" data-name="Path 2815" d="M5365,1693.323a.965.965,0,1,0,.623,1.825C5366.69,1694.792,5366.29,1692.834,5365,1693.323Z" transform="translate(-1886.45 -1065.62)" fill="#030047" fill-rule="evenodd"/>
    <path id="Path_2816" data-name="Path 2816" d="M5179.985,4129.537c.4-.312.223-.534.223-1.691l-.044-5.428a35.64,35.64,0,0,0-5.473-.135h-.846l-.846.178h7.032l.043.222Z" transform="translate(-1703.661 -3386.539)" fill="#ffa2b8" fill-rule="evenodd"/>
    <path id="Path_2817" data-name="Path 2817" d="M5161.735,6925.646c-.489-.311-2.4-.178-2.981-.178V6924l-.178.624a8.035,8.035,0,0,0,0,1.023Z" transform="translate(-1689.859 -6063.619)" fill="#8382a5" fill-rule="evenodd"/>
  </g>
</svg>
