<?xml version="1.0" encoding="UTF-8"?>
<!DOCTYPE svg PUBLIC "-//W3C//DTD SVG 1.1//EN" "http://www.w3.org/Graphics/SVG/1.1/DTD/svg11.dtd">
<!-- Creator: CorelDRAW X7 -->
<svg xmlns="http://www.w3.org/2000/svg" xml:space="preserve" width="11.6929in" height="8.26772in" version="1.1" style="shape-rendering:geometricPrecision; text-rendering:geometricPrecision; image-rendering:optimizeQuality; fill-rule:evenodd; clip-rule:evenodd"
viewBox="0 0 11693 8268"
 xmlns:xlink="http://www.w3.org/1999/xlink">
 <defs>
  <style type="text/css">
   <![CDATA[
    .fil1 {fill:#030047}
    .fil4 {fill:#8382A5}
    .fil0 {fill:#FF3E6C}
    .fil3 {fill:#FFA2B8}
    .fil2 {fill:white}
   ]]>
  </style>
 </defs>
 <g id="Layer_x0020_1">
  <metadata id="CorelCorpID_0Corel-Layer"/>
  <path class="fil0" d="M6908 2931l316 -121 122 316c-8,8 -289,118 -318,125 -17,-54 -119,-298 -120,-320zm-531 -2353l119 0 2403 0 -1 611c-22,11 -83,-2 -114,5l1 999 114 0 0 1788 -2157 0 -1 -287 -377 -1 0 -608c6,-7 124,-79 178,-130 53,-50 107,-97 152,-153 81,-101 123,-145 199,-262 56,-87 46,-58 38,-98 24,-11 53,-29 77,-43 26,-14 48,-27 74,-41 60,-34 99,-53 142,-95 92,-91 178,-296 73,-303l15 -72 224 49 -58 -334c47,2 427,4 446,-3l1 -620c43,23 59,83 94,63 7,-40 -53,-56 -70,-95 14,-13 26,-26 41,-41 10,-10 40,-29 26,-48 -23,-25 -58,44 -94,66l-61 -60c-12,-13 -12,-15 -31,-8 -23,20 49,64 66,94l-1007 -1 0 649 343 2c-13,29 -116,146 -132,173 -17,-1 -67,-1 -78,-3 -29,-6 -36,-16 -72,-4 -70,23 -190,171 -250,235 -46,48 -292,297 -336,316l0 -1605c0,-98 -11,-127 13,-135zm1711 2830c-183,0 -331,-75 -463,-176 -22,-18 -100,-82 -109,-104 37,-17 212,-120 263,-149l657 -375c24,-13 117,-71 136,-75 22,59 35,69 57,150 36,138 40,285 -26,414 -92,179 -309,315 -515,315zm-145 -916c-9,-84 50,-151 124,-160 192,-22 219,263 36,285 -85,9 -153,-52 -160,-125z"/>
  <path class="fil1" d="M3665 5809c15,-16 32,-31 49,-44 18,-14 33,-29 51,-43l100 -88c70,-68 174,-152 240,-229 125,-146 171,-197 264,-393 82,-171 145,-353 194,-556 26,-104 54,-247 70,-354 7,-44 -5,-31 105,-33 62,-2 123,-2 184,-3l2 376 410 0c-16,124 -92,404 -133,527 -10,28 -19,54 -28,81 -10,26 -37,69 9,64 45,-63 172,-553 186,-672l501 1c35,657 31,1280 -7,1936 -2,36 -2,99 -10,131l-745 46c-2,-70 8,-264 11,-349 3,-116 6,-233 9,-349 2,-100 18,-635 12,-724l-81 203c-29,67 -59,127 -94,191 -102,191 -169,271 -288,421 -38,47 -68,74 -103,112 -11,13 -23,23 -35,36 -22,22 -48,49 -73,70 -41,35 -277,237 -314,255 -19,-37 -327,-406 -368,-457 -21,-26 -109,-134 -118,-156zm1069 -1943c-29,-5 -59,-12 -86,-19 -20,-5 -80,-15 -55,-41 12,-13 64,9 82,14 58,14 120,24 179,30 8,0 101,1 65,34 -14,12 -162,-13 -185,-18zm748 42c66,12 132,16 183,48 48,29 77,89 126,102 32,8 76,1 99,-13 20,-12 18,-20 29,-28 16,-13 64,1 115,-58 14,-16 9,-19 27,-29 17,-8 23,-12 36,-21 8,-13 18,-17 25,-38 20,-55 -14,-106 -34,-144l621 1 -1 681 -1752 -1 0 -526c38,-1 84,4 124,4l248 -1c20,-1 41,-2 61,-3 40,-1 25,1 48,-14 11,25 18,29 45,40zm338 119c-22,0 -36,-8 -47,-18 -10,-9 -21,-20 -30,-30 -45,-49 -89,-76 -159,-88 -59,-10 -140,-5 -106,-60l65 -119c27,-51 61,-111 94,-150 17,-21 40,-50 60,-63 56,-38 293,146 362,247 35,53 60,133 -18,156 -23,-56 -27,-80 -63,-124 -13,-17 -65,-76 -82,-83 -17,-8 -28,4 -7,22l51 51c19,20 41,50 56,79 5,12 28,61 25,72 -6,24 -55,59 -111,61 -3,-5 -3,-17 -13,-34l-49 -75c-22,-28 -59,-82 -85,-75 -3,20 7,22 18,33 25,27 111,130 110,160 -1,29 -39,38 -71,38zm-901 -1374c15,-14 32,-1 27,16 -4,18 -80,139 -98,293 -8,70 -1,137 34,186 36,51 73,56 152,69 172,26 370,72 528,136 29,11 154,55 129,84 -13,15 -61,-17 -78,-25 -26,-12 -52,-23 -80,-34 -171,-64 -348,-105 -532,-133 -144,-21 -195,-112 -189,-254 3,-66 19,-128 38,-185 9,-26 57,-142 69,-153zm817 140l-50 -187c-7,-25 -26,-71 -15,-92l22 0c16,30 42,140 53,182 8,33 17,64 25,96 4,18 29,84 0,86 -26,1 -30,-65 -35,-85zm1414 -716c5,-13 22,-33 32,-47 43,-58 68,-110 95,-149 5,12 -7,44 -10,60 -9,40 -7,27 -30,50 -71,70 -36,87 -87,86zm-43 -261c4,25 -17,38 -29,53 -69,79 -33,89 -12,56 27,-44 41,-57 79,-87 52,-41 88,-119 137,-102 20,67 -98,235 -141,293l-61 82 116 0c20,-35 66,-127 108,-116 27,18 -21,128 -37,157 -26,43 -58,82 -92,110 -39,32 -200,116 -257,149 -13,-18 -34,-79 -44,-102 -29,-70 -57,-131 -95,-194 -20,-34 -41,-56 -61,-81l121 -134c26,-30 89,-107 154,-104 -4,16 -16,22 -34,44 -7,8 -12,12 -19,19 -16,17 -8,28 8,24 8,-3 18,-19 25,-26 13,-14 20,-20 32,-35 26,-31 83,-17 102,-6zm-1862 187c-15,13 -20,24 -42,37 -57,35 -144,24 -176,-13 -51,-61 1,-141 97,-171 50,-15 27,4 58,8 21,2 39,-15 37,-36 -5,-45 -158,-92 80,-270 125,-93 110,-108 181,-52 110,85 193,311 99,426 -39,48 -122,94 -210,94 -68,0 -70,-10 -124,-23zm1888 -209c-3,-12 127,-170 137,-183 47,-62 96,-121 141,-181 10,13 41,218 43,232 7,38 39,208 39,232l-199 -44c2,-11 71,-156 -32,-152 -33,1 -57,32 -72,47 -15,16 -45,54 -57,49zm-3116 4731c-18,-10 -82,-61 -109,-81 -18,-13 -29,-12 -22,-35 19,-1 24,9 38,19l101 74c6,-14 11,-28 15,-44l-100 -73c-2,-2 -14,-9 -17,-13 -5,-7 -4,-1 -3,-11 2,-39 91,64 131,76 7,-15 16,-43 30,-54 3,12 9,14 17,25 13,16 48,66 58,73 29,-55 91,-86 139,-124 34,-28 144,-115 178,-149l196 -198c11,-14 20,-22 31,-36 50,-62 115,-137 158,-203 69,-106 139,-217 192,-333 4,-8 7,-15 11,-23l42 -90c0,26 -1,53 0,79 0,31 -4,47 -4,79 0,43 4,121 -2,159 -7,51 1,107 -2,160l-7 236c0,32 -4,51 -4,79 0,58 -4,103 -4,161 0,57 -4,101 -4,158l-7 157c38,0 62,-3 101,-3l0 124c0,20 -3,24 -4,41 -1,28 2,58 0,86l-3 83 0 33c13,0 56,-3 67,4l759 4c87,0 163,4 247,4l4 0c0,-78 -53,-162 -118,-201 -18,-12 -33,-16 -53,-26 -45,-20 -64,-31 -104,-58 -9,-6 -15,-10 -24,-17 -11,-10 -10,-14 -24,-17 -17,13 -91,44 -121,59 -17,8 -27,18 -40,5 1,-15 1,-12 31,-26l115 -54 -30 -33c-18,3 -58,25 -78,35 -13,6 -26,12 -38,18 -18,8 -28,18 -35,-4 9,-11 115,-60 133,-67 -4,-16 -10,-13 -23,-38 11,0 23,0 34,0 33,0 20,-4 26,-79 4,-42 5,-87 8,-131l11 -196c0,-28 3,-44 4,-67 1,-129 11,-280 11,-405 0,-23 0,-46 0,-68 0,-28 4,-40 4,-68l0 -416c0,-125 -11,-281 -11,-406l-16 -266 841 0 -1 -462 -1 -287 -377 -1 -304 0c-24,-36 -59,-65 -91,-93l-52 -43c-18,-13 -37,-24 -56,-37 0,-21 -3,-41 -6,-62l-23 -183c-6,-43 -11,-79 -17,-122l-18 -121c86,46 85,55 188,90 22,7 50,15 74,20 160,31 266,-48 305,-57 6,-7 124,-79 178,-130 53,-50 107,-97 152,-153 81,-101 123,-145 199,-262 56,-87 46,-58 38,-98 24,-11 53,-29 77,-43 26,-14 48,-27 74,-41 60,-34 99,-53 142,-95 92,-91 178,-296 73,-303l15 -72 224 49 -58 -334 0 -4 -43 -249c-12,6 -7,3 -16,15l-87 112c-17,22 -86,113 -100,124 -13,29 -116,146 -132,173 -17,-1 -67,-1 -78,-3 -29,-6 -36,-16 -72,-4 -70,23 -190,171 -250,235 -46,48 -292,297 -336,316l-44 32c-31,22 -64,43 -100,58 -23,10 -33,16 -66,16 -121,1 -277,-112 -377,-179 -18,-11 -32,-21 -50,-32l-97 -60c-18,-10 -35,-20 -51,-29 -12,-7 -43,-23 -56,-26 1,-26 8,-53 8,-83 52,-28 84,-61 109,-116 23,-52 18,-141 1,-197 -18,-61 -39,-107 -71,-154 -14,-19 -36,-45 -54,-59 -12,-10 -54,-41 -68,-44 37,-56 28,-101 -21,-140 -129,-103 -355,200 -419,278 -50,59 -86,99 -59,184 3,11 7,18 12,29 18,42 36,51 55,80 -12,19 -30,37 -37,60 -29,91 45,158 131,158l0 7c-20,2 -49,13 -68,19l-241 111c-49,30 -112,74 -152,115l-35 33c-1,0 -1,1 -2,1 -47,46 -91,99 -128,154 -12,17 -24,33 -35,51 -11,19 -23,37 -34,57 -116,214 -193,455 -160,704 3,24 8,48 15,71 26,87 61,164 119,235 7,10 12,13 21,24 7,10 13,15 21,23 29,29 64,61 101,80l-15 221c-2,19 -7,53 -8,72 19,4 64,0 94,0 -17,71 -30,194 -53,284 -5,21 -10,45 -15,68 -6,21 -10,45 -17,69l-80 262c-24,59 -45,121 -71,180 -9,18 -18,39 -28,59 -47,93 -95,182 -158,266 -55,72 -175,203 -240,259l-73 66c-10,9 -15,11 -24,20 -9,9 -12,13 -22,20l-46 41c-30,28 -147,119 -160,139 6,10 8,11 15,23 -62,41 -118,87 -180,128 -13,9 -54,35 -61,45 7,29 45,90 60,120l116 221c41,86 90,170 132,255 10,20 21,37 32,59l156 301c12,-3 33,-20 42,-29 94,-90 78,-153 78,-271 0,-64 11,-99 11,-132z"/>
  <path class="fil2" d="M3665 5809c9,22 97,130 118,156 41,51 349,420 368,457 37,-18 273,-220 314,-255 25,-21 51,-48 73,-70 12,-13 24,-23 35,-36 35,-38 65,-65 103,-112 119,-150 186,-230 288,-421 35,-64 65,-124 94,-191l81 -203c6,89 -10,624 -12,724 -3,116 -6,233 -9,349 -3,85 -13,279 -11,349l745 -46c8,-32 8,-95 10,-131 38,-656 42,-1279 7,-1936l-501 -1c-14,119 -141,609 -186,672 -46,5 -19,-38 -9,-64 9,-27 18,-53 28,-81 41,-123 117,-403 133,-527l-410 0 -2 -376c-61,1 -122,1 -184,3 -110,2 -98,-11 -105,33 -16,107 -44,250 -70,354 -49,203 -112,385 -194,556 -93,196 -139,247 -264,393 -66,77 -170,161 -240,229l-100 88c-18,14 -33,29 -51,43 -17,13 -34,28 -49,44z"/>
  <path class="fil2" d="M6448 4129l-1 157 -157 0c-5,-6 -2,1 -5,-8 0,-2 -1,-9 -1,-11 0,-6 1,-13 1,-19 0,-30 -3,-102 1,-123 10,-2 139,-6 156,0l6 4zm-1051 -3l159 0 0 160 -161 -1 2 -159zm-224 1l19 -4c7,0 13,0 19,0 31,0 103,-3 123,3l1 122c0,26 4,31 -5,38l-157 0 0 -159zm1315 -216l159 0 0 160 -160 0 1 -160zm-201 0l160 0 0 160 -160 -1 0 -159zm-190 -2l92 2 0 160 -714 -1 0 -152c3,-12 -2,-4 7,-10 -27,-11 -34,-15 -45,-40 -23,15 -8,13 -48,14 -20,1 -41,2 -61,3l-248 1c-40,0 -86,-5 -124,-4l0 526 1752 1 1 -681 -621 -1c20,38 54,89 34,144 -7,21 -17,25 -25,38z"/>
  <path class="fil2" d="M7100 1176c86,0 456,-6 482,4 6,32 -9,30 -39,30 -88,-1 -449,4 -478,-4 -9,-30 7,-31 35,-30zm132 425c14,-11 83,-102 100,-124l87 -112c9,-12 4,-9 16,-15l43 249 443 1c0,-64 4,-608 -2,-618 -21,6 -66,82 -89,63 -24,-21 54,-70 66,-94l-1007 -1 0 649 343 2z"/>
  <path class="fil2" d="M8088 3408c206,0 423,-136 515,-315 66,-129 62,-276 26,-414 -22,-81 -35,-91 -57,-150 -19,4 -112,62 -136,75l-657 375c-51,29 -226,132 -263,149 9,22 87,86 109,104 132,101 280,176 463,176z"/>
  <path class="fil2" d="M7107 1816c-19,-11 -76,-25 -102,6 -12,15 -19,21 -32,35 -7,7 -17,23 -25,26 -16,4 -24,-7 -8,-24 7,-7 12,-11 19,-19 18,-22 30,-28 34,-44 -65,-3 -128,74 -154,104l-121 134c20,25 41,47 61,81 38,63 66,124 95,194 10,23 31,84 44,102 57,-33 218,-117 257,-149 34,-28 66,-67 92,-110 16,-29 64,-139 37,-157 -42,-11 -88,81 -108,116l-116 0 61 -82c43,-58 161,-226 141,-293 -49,-17 -85,61 -137,102 -38,30 -52,43 -79,87 -21,33 -57,23 12,-56 12,-15 33,-28 29,-53z"/>
  <path class="fil2" d="M5193 1944c-29,9 -61,-31 -118,25 -14,13 -29,9 -20,-11 18,-41 148,-63 138,-14zm187 -249c29,-11 38,33 14,41 -28,8 -43,-31 -14,-41zm117 -51c20,20 78,77 72,105 -25,4 -26,-22 -59,-59 -25,-27 -61,-53 -50,-65 13,-13 29,11 37,19zm-252 359c54,13 56,23 124,23 88,0 171,-46 210,-94 94,-115 11,-341 -99,-426 -71,-56 -56,-41 -181,52 -238,178 -85,225 -80,270 2,21 -16,38 -37,36 -31,-4 -8,-23 -58,-8 -96,30 -148,110 -97,171 32,37 119,48 176,13 22,-13 27,-24 42,-37z"/>
  <path class="fil2" d="M5820 4027c32,0 70,-9 71,-38 1,-30 -85,-133 -110,-160 -11,-11 -21,-13 -18,-33 26,-7 63,47 85,75l49 75c10,17 10,29 13,34 56,-2 105,-37 111,-61 3,-11 -20,-60 -25,-72 -15,-29 -37,-59 -56,-79l-51 -51c-21,-18 -10,-30 7,-22 17,7 69,66 82,83 36,44 40,68 63,124 78,-23 53,-103 18,-156 -69,-101 -306,-285 -362,-247 -20,13 -43,42 -60,63 -33,39 -67,99 -94,150l-65 119c-34,55 47,50 106,60 70,12 114,39 159,88 9,10 20,21 30,30 11,10 25,18 47,18z"/>
  <path class="fil1" d="M8899 2193c3,-3 2,1 3,-9 0,-1 0,-1 0,-2l0 -83c0,-285 -2,-582 0,-865l0 -18 0 -18c-3,-10 0,-3 -4,-9 -22,11 -83,-2 -114,5l1 999 114 0z"/>
  <path class="fil2" d="M6908 2931c1,22 103,266 120,320 29,-7 310,-117 318,-125l-122 -316 -316 121z"/>
  <path class="fil0" d="M6097 3909c-13,9 -19,13 -36,21 -18,10 -13,13 -27,29 -51,59 -99,45 -115,58 -11,8 -9,16 -29,28 -23,14 -67,21 -99,13 -49,-13 -78,-73 -126,-102 -51,-32 -117,-36 -183,-48 -9,6 -4,-2 -7,10l0 152 714 1 0 -160 -92 -2z"/>
  <path class="fil2" d="M7133 1794c12,5 42,-33 57,-49 15,-15 39,-46 72,-47 103,-4 34,141 32,152l199 44c0,-24 -32,-194 -39,-232 -2,-14 -33,-219 -43,-232 -45,60 -94,119 -141,181 -10,13 -140,171 -137,183z"/>
  <path class="fil2" d="M7943 2492c7,73 75,134 160,125 183,-22 156,-307 -36,-285 -74,9 -133,76 -124,160z"/>
  <path class="fil2" d="M4919 2653c-12,11 -60,127 -69,153 -19,57 -35,119 -38,185 -6,142 45,233 189,254 184,28 361,69 532,133 28,11 54,22 80,34 17,8 65,40 78,25 25,-29 -100,-73 -129,-84 -158,-64 -356,-110 -528,-136 -79,-13 -116,-18 -152,-69 -35,-49 -42,-116 -34,-186 18,-154 94,-275 98,-293 5,-17 -12,-30 -27,-16z"/>
  <polygon class="fil0" points="6487,4071 6647,4071 6647,3911 6488,3911 "/>
  <polygon class="fil0" points="5395,4285 5556,4286 5556,4126 5397,4126 "/>
  <polygon class="fil0" points="6287,4070 6447,4071 6447,3911 6287,3911 "/>
  <polygon class="fil0" points="5330,4286 5332,4132 5331,4127 5173,4127 5173,4286 "/>
  <polygon class="fil0" points="6290,4286 6447,4286 6448,4129 6289,4127 6289,4132 "/>
  <path class="fil1" d="M7065 1206c29,8 390,3 478,4 30,0 45,2 39,-30 -26,-10 -396,-4 -482,-4 -28,-1 -44,0 -35,30z"/>
  <path class="fil1" d="M7896 951c-12,24 -90,73 -66,94 23,19 68,-57 89,-63 3,-11 5,-5 6,-2 43,23 59,83 94,63 7,-40 -53,-56 -70,-95 14,-13 26,-26 41,-41 10,-10 40,-29 26,-48 -23,-25 -58,44 -94,66l-61 -60c-12,-13 -12,-15 -31,-8 -23,20 49,64 66,94z"/>
  <path class="fil2" d="M5693 2514l-22 0c-11,21 8,67 15,92l50 187c5,20 9,86 35,85 29,-2 4,-68 0,-86 -8,-32 -17,-63 -25,-96 -11,-42 -37,-152 -53,-182z"/>
  <path class="fil2" d="M4593 3806c-25,26 35,36 55,41 27,7 57,14 86,19 23,5 171,30 185,18 36,-33 -57,-34 -65,-34 -59,-6 -121,-16 -179,-30 -18,-5 -70,-27 -82,-14z"/>
  <path class="fil0" d="M7150 2077c51,1 16,-16 87,-86 23,-23 21,-10 30,-50 3,-16 15,-48 10,-60 -27,39 -52,91 -95,149 -10,14 -27,34 -32,47z"/>
  <path class="fil3" d="M7478 1599l0 4c47,2 427,4 446,-3l1 -620c-1,-3 -3,-9 -6,2 6,10 2,554 2,618l-443 -1z"/>
  <path class="fil2" d="M4017 6525l8 -23 -101 -74c-14,-10 -19,-20 -38,-19 -7,23 4,22 22,35 27,20 91,71 109,81z"/>
  <path class="fil2" d="M5917 6650l-15 -16 -115 54c-30,14 -30,11 -31,26 13,13 23,3 40,-5 30,-15 104,-46 121,-59z"/>
  <path class="fil1" d="M5569 1749c6,-28 -52,-85 -72,-105 -8,-8 -24,-32 -37,-19 -11,12 25,38 50,65 33,37 34,63 59,59z"/>
  <path class="fil2" d="M5872 6601l-18 -18c-18,7 -124,56 -133,67 7,22 17,12 35,4 12,-6 25,-12 38,-18 20,-10 60,-32 78,-35z"/>
  <path class="fil1" d="M5193 1944c10,-49 -120,-27 -138,14 -9,20 6,24 20,11 57,-56 89,-16 118,-25z"/>
  <path class="fil2" d="M4040 6458c4,-7 7,-14 11,-21 -40,-12 -129,-115 -131,-76 -1,10 -2,4 3,11 3,4 15,11 17,13l100 73z"/>
  <path class="fil3" d="M6290 4286l-1 -154 0 -5 159 2 -6 -4c-17,-6 -146,-2 -156,0 -4,21 -1,93 -1,123 0,6 -1,13 -1,19 0,2 1,9 1,11 3,9 0,2 5,8z"/>
  <path class="fil1" d="M5380 1695c-29,10 -14,49 14,41 24,-8 15,-52 -14,-41z"/>
  <path class="fil3" d="M5330 4286c9,-7 5,-12 5,-38l-1 -122c-20,-6 -92,-3 -123,-3 -6,0 -12,0 -19,0l-19 4 158 0 1 5 -2 154z"/>
  <path class="fil4" d="M5230 6961c-11,-7 -54,-4 -67,-4l0 -33 -4 14c-1,7 0,16 0,23l71 0z"/>
 </g>
</svg>
