<?xml version="1.0" encoding="UTF-8"?>
<!DOCTYPE svg PUBLIC "-//W3C//DTD SVG 1.1//EN" "http://www.w3.org/Graphics/SVG/1.1/DTD/svg11.dtd">
<!-- Creator: CorelDRAW X7 -->
<svg xmlns="http://www.w3.org/2000/svg" xml:space="preserve" width="6.73987in" height="8.26056in" version="1.1" style="shape-rendering:geometricPrecision; text-rendering:geometricPrecision; image-rendering:optimizeQuality; fill-rule:evenodd; clip-rule:evenodd"
viewBox="0 0 6740 8261"
 xmlns:xlink="http://www.w3.org/1999/xlink">
 <defs>
  <style type="text/css">
   <![CDATA[
    .fil1 {fill:#030047}
    .fil2 {fill:#5F5FFF}
    .fil0 {fill:white}
   ]]>
  </style>
 </defs>
 <g id="Layer_x0020_1">
  <metadata id="CorelCorpID_0Corel-Layer"/>
  <g id="_2396754183568">
   <path class="fil0" d="M4370 1377c-14,-13 -25,-28 -53,-52 -142,-126 -304,-224 -505,-254 -373,-55 -702,167 -797,488 -21,71 10,124 46,156 49,43 106,36 181,36l3251 0c75,0 134,-1 173,-43 66,-73 58,-247 -99,-254 -91,-5 -196,17 -278,47 -26,9 -58,25 -80,31 10,-35 28,-76 40,-114 38,-116 65,-264 73,-387 23,-357 -84,-654 -380,-841 -115,-73 -294,-140 -459,-154 -394,-33 -638,233 -776,447 -78,121 -148,264 -202,413 -44,118 -79,230 -107,353 -4,19 -23,121 -28,128z"/>
   <path class="fil1" d="M2189 6781c15,-44 35,-194 35,-246 0,-104 -49,-116 -155,-133 -45,-7 -199,-25 -226,-43 -6,-43 32,-22 107,-9 149,25 294,19 306,156 5,56 -17,218 -32,273 -22,80 -75,130 -174,130 -56,0 -246,-27 -259,-49 -26,-45 77,-9 92,-5 120,28 263,53 306,-74zm575 -1503c3,31 -57,691 -61,735 -21,216 -38,423 -62,639 -2,22 1,75 -21,77 -29,3 -14,-56 -11,-79 36,-328 64,-672 93,-1002 10,-119 18,-244 31,-367l31 -3zm724 -371c-9,-23 10,-37 21,-54 12,-17 18,-37 44,-27 7,22 -10,36 -22,53 -12,17 -17,37 -43,28zm-93 -227c7,8 46,104 50,119l-120 48c-10,-33 -43,-91 -47,-120l117 -47zm-247 -44c16,16 46,44 27,57 -18,13 -37,-17 -55,-39 -18,-22 -48,-44 -25,-58 18,-11 43,29 53,40zm-96 -150c17,-10 227,-125 244,-131 3,65 -3,191 -4,262 -13,-3 -233,-124 -240,-131zm713 467c-2,-14 -116,-195 -138,-232 -13,-21 -36,-54 -45,-75 18,-25 214,-150 325,-1 35,47 35,70 45,92 4,8 0,6 8,9l124 -136c8,-9 26,-24 28,-38 7,-55 -74,-45 -138,-52l-18 -40c86,5 174,16 260,24 33,4 104,-4 98,41 -2,17 -20,30 -31,41l-101 112c-23,21 -45,52 -67,73l-203 221c-11,13 -23,24 -34,37 -15,19 -19,20 -52,16 -256,-26 -514,-46 -770,-74 -3,-14 14,-64 20,-80 80,5 669,71 689,62zm-193 -510c35,-1 86,7 122,11 39,4 61,-8 86,48l-229 -23 21 -36zm-244 -25l203 19c2,14 -10,27 -16,39l-187 -18 0 -40zm-606 519c-23,1 -50,-3 -72,-6 -24,-2 -44,-3 -47,-28 -1,-20 21,-37 30,-48 49,-58 129,-136 177,-193 50,-59 128,-136 180,-197 75,-86 65,-75 148,-65 -16,17 -123,66 -153,86 2,2 0,1 5,5 11,8 67,34 77,45 -9,15 -21,24 -34,38l-175 192c-14,14 -21,24 -35,38 -20,20 -14,32 -5,56 -24,12 -82,59 -96,77zm1221 -384c-76,16 -183,-112 -175,-152 23,-116 351,7 392,64 -53,-1 -117,-10 -171,-16 -65,-6 -44,7 -90,-50 -24,-29 -44,-6 -33,13 7,12 86,95 77,141zm-1363 381c24,34 61,29 109,34 -2,14 -3,27 15,26 12,0 47,-43 74,-64 33,-28 68,-52 108,-75 39,-23 219,-123 268,-79 6,40 -43,63 -74,75 -33,13 -28,1 -38,36 -5,20 -10,37 -16,57 -6,22 -31,101 -32,116 -1,23 25,31 34,-1 4,-14 10,-43 17,-56l330 31c-14,19 -125,70 -154,82 -157,67 -400,142 -572,137l-53 3 8 64c-355,0 -612,-103 -828,-344 -30,-33 -57,-70 -82,-111l-51 -96c-6,-13 -9,-23 -19,-32 -3,128 0,280 0,413 0,29 -4,41 6,53 106,27 198,20 310,20l-52 439c-11,74 -19,143 -30,218l-138 969c-3,19 -5,34 -8,53l-7 54c11,8 391,3 438,3 74,0 147,0 221,0 63,0 160,6 220,-1 0,-31 27,-146 27,-193 2,5 -1,-2 3,7 4,12 3,24 3,37 0,28 7,100 7,148 13,4 728,7 775,1 0,-24 -4,-36 -4,-56l-6 -114c-6,-50 -3,-140 -9,-175 -5,-35 -3,-81 -5,-118 -1,-15 -2,-12 -3,-27l-40 -601c-2,-20 -3,-41 -4,-60 -1,-35 -7,-79 -9,-113 -2,-22 -2,-35 -4,-57l-37 -393c-1,-16 -5,-39 -6,-54 -2,-20 -3,-40 -7,-57 50,-11 158,-89 160,-90 11,-5 266,26 304,27 24,1 54,4 80,7 83,9 72,-5 115,-46l242 -265c6,-14 44,-49 56,-64 12,-13 47,-54 58,-61 16,-18 55,-58 62,-73 18,-33 0,-75 -37,-88 -53,-18 -66,12 -109,-30 -16,-15 -22,-19 -40,-31 -13,-9 -28,-19 -43,-27 -15,-8 -29,-13 -46,-21 -43,-20 -113,-43 -161,-49 -79,-8 -174,-3 -174,100l-140 -13c3,-12 8,-18 13,-27 6,-9 11,-18 16,-28 18,-32 18,-45 -15,-45l-54 97c-9,0 -20,-1 -23,-2l-199 -18 1 -86c-14,3 -88,45 -106,55 -30,17 -24,18 -64,14 -135,-13 -109,-14 -176,53l-294 321c-76,80 -52,82 -125,76l3 29 17 7c0,-1 1,1 2,1 -18,33 -24,36 -8,78z"/>
   <path class="fil2" d="M2185 4386c0,153 82,251 177,328 41,33 76,55 125,79 28,15 59,16 44,47 -32,8 -115,-47 -139,-62 -124,-81 -239,-214 -239,-386 0,-100 21,-182 51,-269 21,-61 42,-105 70,-161 7,-13 19,-45 33,-47 42,-6 -6,65 -22,98 -17,34 -33,73 -47,111 -27,76 -53,169 -53,262zm834 -669c-2,-15 12,-26 26,-16 34,26 114,478 129,578 5,29 21,69 -20,60 -10,-20 -25,-137 -31,-171 -19,-107 -43,-231 -69,-335l-35 -116zm-1428 -493c1,30 3,130 -2,151 5,11 3,30 -2,41 8,-1 4,33 4,48l0 635c0,123 -13,99 -24,204 -8,73 -7,147 3,219 17,130 21,41 21,207 0,48 4,450 -2,458l0 1435c0,79 -2,161 0,240 1,35 16,67 33,88 11,13 52,42 77,40l878 2c19,0 38,-2 51,4 11,-9 174,-4 190,-4 191,0 392,-3 581,0l3 33 0 -33 621 0c44,0 174,6 204,-3 129,-37 96,-194 96,-317l0 -1913c0,-8 1,-18 0,-26 0,-18 0,-11 -4,-23 -7,-22 7,-38 -21,-58 -10,-7 -9,-4 -18,-11 -11,7 -46,48 -58,61 -12,15 -50,50 -56,64 25,0 50,5 71,6 24,1 36,-17 50,-26l0 1936c0,50 5,148 -1,193 -3,22 -18,51 -35,62 -20,14 -42,22 -74,22 -59,0 -740,4 -778,-1 -47,6 -762,3 -775,-1l-40 1c-60,7 -157,1 -220,1 -74,0 -147,0 -221,0 -47,0 -427,5 -438,-3 -87,-15 -79,-93 -79,-151l0 -1545c0,-13 -4,-47 4,-57 -10,-12 -6,-24 -6,-53 0,-133 -3,-285 0,-413 10,9 13,19 19,32l51 96c25,41 52,78 82,111 216,241 473,344 828,344l-8 -64 53 -3 -53 1 -19 -301c0,-3 0,-7 0,-10 1,-11 -1,-3 3,-9 -16,-42 -10,-45 8,-78 -1,0 -2,-2 -2,-1l-17 -7 -3 -29c73,6 49,4 125,-76l294 -321c67,-67 41,-66 176,-53 40,4 34,3 64,-14 18,-10 92,-52 106,-55l-1 86 199 18c-7,-17 -33,-55 -44,-75 -32,-56 -80,-136 -104,-193l-54 -123c-11,-30 -20,-60 -32,-88 -12,-28 -23,-56 -36,-84l-60 -117c-27,-44 -52,-82 -85,-122 -4,-6 -9,-12 -13,-17 -29,-40 -59,-62 -89,-91 -28,-28 -101,-78 -140,-97l-83 -37c-52,-20 -37,-15 -91,-29 0,15 -81,269 -91,290l-162 -164c-27,-29 -53,-55 -80,-84 -10,-12 -23,-36 -45,-29 -19,5 -46,13 -60,24 23,28 49,44 88,102 26,39 47,76 65,125 99,252 26,528 -128,735 -18,24 -66,88 -89,104 -3,-56 2,-107 14,-159 19,-82 115,-157 138,-372 18,-171 -35,-329 -149,-444 -12,-12 -35,-28 -41,-46 -44,11 -149,86 -182,111 -157,122 -261,287 -331,474 -5,12 -13,41 -19,53l-2 -657 7 -5c-7,-6 -6,7 -7,-18 -1,-5 1,-13 2,-18l-1 -141c-9,-107 9,-167 118,-166 111,0 142,29 137,145 -31,0 -132,-5 -154,3l407 0c-23,-9 -179,-2 -220,-4 -2,-66 0,-101 -37,-139 -37,-37 -75,-37 -140,-37 -62,-1 -98,20 -122,55 -32,47 -20,93 -23,155z"/>
   <path class="fil0" d="M1591 3224c3,-62 -9,-108 23,-155 24,-35 60,-56 122,-55 65,0 103,0 140,37 37,38 35,73 37,139 41,2 197,-5 220,4 70,0 114,27 161,40 1,-9 5,-24 4,-33 -1,-15 -6,-16 -14,-28 -11,-18 -15,-48 -21,-58 -19,11 -63,43 -87,47 -10,-122 23,-108 1,-155 -10,-21 -18,-42 -27,-63 -26,-59 -34,-38 23,-111 10,-13 76,-92 75,-102 -1,-9 -23,-50 -29,-60 -91,-151 -231,-233 -473,-251 -337,-26 -562,117 -696,382 -30,59 -57,132 -71,199 -5,20 -10,69 -18,76 -45,-57 -82,-107 -169,-131 -87,-24 -179,6 -242,44 -109,65 -233,205 -186,400 34,144 160,269 330,277 22,1 579,3 606,-1 6,-65 2,-99 24,-160 16,-48 36,-86 61,-122 45,-62 130,-137 206,-160z"/>
   <path class="fil1" d="M2398 3358c30,-7 83,-11 116,-11 58,-1 83,5 144,11l-64 201c-14,-8 -176,-178 -196,-201zm79 -434c6,-11 17,-22 26,-32 9,-11 14,-16 24,-28 17,-20 32,-41 48,-62l92 -130c45,18 162,179 162,285 0,139 -114,221 -252,227 -29,1 -49,-4 -81,-8 -16,23 -52,41 -92,38 -54,-5 -95,-45 -105,-92 -5,-27 -2,-32 15,-45 12,-9 22,-17 35,-28 8,-8 24,-23 35,-29 13,9 24,25 50,27 26,3 42,-6 54,-19 41,-47 -9,-99 -11,-104zm-888 2263c6,-8 2,-410 2,-458 0,-166 -4,-77 -21,-207 -10,-72 -11,-146 -3,-219 11,-105 24,-81 24,-204l0 -635c0,-15 4,-49 -4,-48 -52,25 -103,107 -119,171 -27,105 4,784 -12,853 -14,6 -14,7 -28,0 -6,-27 -2,-572 -2,-615 0,-93 -10,-204 22,-285 24,-59 90,-147 141,-165 5,-21 3,-121 2,-151 -76,23 -161,98 -206,160 -25,36 -45,74 -61,122 -22,61 -18,95 -24,160 -27,4 -584,2 -606,1 -170,-8 -296,-133 -330,-277 -47,-195 77,-335 186,-400 63,-38 155,-68 242,-44 87,24 124,74 169,131 8,-7 13,-56 18,-76 14,-67 41,-140 71,-199 134,-265 359,-408 696,-382 242,18 382,100 473,251 6,10 28,51 29,60 1,10 -65,89 -75,102 -57,73 -49,52 -23,111 9,21 17,42 27,63 22,47 -11,33 -1,155 24,-4 68,-36 87,-47 6,10 10,40 21,58 8,12 13,13 14,28 1,9 -3,24 -4,33 -47,-13 -91,-40 -161,-40l-407 0c-30,0 -76,9 -101,18l1 141c15,-2 152,-53 149,-9 -1,23 -52,17 -75,21 -25,6 -48,13 -69,24l-7 5 2 657c6,-12 14,-41 19,-53 70,-187 174,-352 331,-474 33,-25 138,-100 182,-111 6,18 29,34 41,46 114,115 167,273 149,444 -23,215 -119,290 -138,372 -12,52 -17,103 -14,159 23,-16 71,-80 89,-104 154,-207 227,-483 128,-735 -18,-49 -39,-86 -65,-125 -39,-58 -65,-74 -88,-102 14,-11 41,-19 60,-24 22,-7 35,17 45,29 27,29 53,55 80,84l162 164c10,-21 91,-275 91,-290 -20,-2 -45,-7 -66,-11 -23,-4 -44,-4 -71,-6 -54,-4 -90,3 -141,7l-43 -36c-9,-7 -14,-11 -23,-18 -9,-5 -18,-10 -27,-16 1,-13 3,-11 3,-27 20,11 36,19 61,23 87,11 96,-34 133,-33 33,0 57,9 114,-3 29,-6 67,-22 92,-35 32,-16 72,-47 90,-76 23,-34 41,-70 41,-126 0,-101 -35,-170 -90,-244 -24,-32 -50,-64 -84,-87l45 -75c7,-11 11,-14 12,-28 -16,-8 -75,-9 -99,-5 -10,1 -22,4 -31,5 -30,45 -195,252 -237,300 -16,18 -34,39 -49,58 -16,20 -34,37 -51,56 -9,12 -42,58 -60,40 -11,-17 2,-27 11,-36l72 -78c60,-67 170,-204 228,-280 11,-15 36,-43 43,-57l-127 -64c-3,12 -92,121 -106,139 -8,11 -14,18 -22,28 -7,10 -35,51 -46,54 -16,-67 -99,-151 -154,-196 -120,-97 -326,-123 -477,-121 -37,0 -128,13 -159,21 -36,9 -72,20 -106,34 -40,17 -58,28 -92,48 -14,9 -30,18 -42,28 -14,11 -27,19 -39,32 -13,13 -24,20 -37,33l-35 38c-31,37 -34,41 -60,80 -10,15 -17,28 -27,44 -5,9 -8,14 -13,24 -3,5 -3,5 -6,10 -23,47 -77,177 -78,226l-41 -36c-12,-11 -31,-22 -47,-30 -35,-18 -74,-32 -126,-31 -125,0 -199,50 -276,114 -38,32 -79,89 -100,134 -59,127 -42,250 29,369 10,17 19,31 32,44 25,25 41,49 84,74 17,10 33,22 51,29 124,46 146,33 277,33l471 0 0 661c-10,0 -76,-1 -80,1 -12,4 -7,46 -7,73 0,63 -4,269 5,315 10,55 40,106 86,138 32,22 12,9 37,63 44,94 104,156 193,211 11,6 43,22 56,24z"/>
   <path class="fil1" d="M1577 7922l28 -83c36,7 83,27 118,37 188,59 393,130 583,191l233 78c5,27 3,46 2,74l-964 -297zm719 -121l18 39c-32,5 -114,14 -137,23 -1,28 14,18 69,10 24,-4 58,-11 81,-11 9,11 15,21 22,32 54,77 95,95 142,146 16,18 35,48 41,78l-918 -301 92 -287c28,4 417,113 486,131 11,4 64,15 68,23l26 95c-23,4 -44,7 -66,10 -16,2 -64,2 -59,20 5,21 90,-8 135,-8zm281 -809l-878 -2c-6,17 -16,104 -20,129 -6,44 -13,86 -20,130l-30 191c-3,18 -10,47 -10,66 10,5 40,13 54,14l-132 396c-4,11 -8,16 -9,27l579 179c63,21 434,139 456,139 21,-89 7,-187 -54,-247 -9,-9 -17,-18 -27,-26l-43 -37c-6,-6 -6,-8 -12,-15 -27,-31 -42,-38 -72,-88 -25,-43 -16,-24 -35,-71l-27 -84c24,2 115,31 153,40 25,-104 45,-259 66,-368l61 -373z"/>
   <path class="fil1" d="M2759 8037l973 0c13,24 30,56 32,89l-1009 -7 4 -82zm6 -321c0,-38 -11,-26 129,-47 57,-8 387,-61 414,-59 17,66 56,118 84,167 -17,12 -40,21 -60,30 -37,17 -55,19 -49,38 24,9 97,-42 126,-49 8,8 21,21 27,31l-64 33c-46,22 -59,19 -57,41 17,7 40,-9 57,-17 84,-38 74,-49 103,-24 15,12 27,21 45,33 70,46 170,72 194,122l-955 0 6 -299zm637 -691l-3 -33c-189,-3 -390,0 -581,0 -16,0 -179,-5 -190,4 -4,35 6,100 6,130l20 400c0,20 3,25 4,44 0,17 -1,28 1,44l5 89c25,0 40,-6 67,-6 0,53 0,106 0,160 0,13 0,27 0,40 -1,17 -3,18 -4,36 0,54 -1,140 -6,194 -2,16 -11,23 6,27l1042 6c31,1 37,9 29,-42 -10,-76 -64,-155 -133,-190l-56 -25c-116,-58 -186,-123 -244,-240 -7,-14 -19,-43 -23,-60l74 -9c25,-6 9,-25 9,-71l-6 -124c-1,-14 0,-29 0,-43l-7 -123c-2,-40 1,-86 -5,-126l-5 -82z"/>
   <path class="fil2" d="M3696 1786l81 108c10,15 17,23 27,37l190 257c23,31 125,165 136,185 13,-4 20,-13 30,-20 9,-8 18,-13 29,-21l397 -294c3,-3 4,-3 7,-6l7 -7c-47,6 -43,-25 -25,-30 11,-4 58,-1 75,-3 5,-35 -12,-99 30,-82 7,6 1,41 7,53 10,-7 69,-54 80,-57 -1,-16 -70,-105 -85,-120l-11 -19 -985 1 10 18z"/>
   <path class="fil1" d="M4370 1377c5,-7 24,-109 28,-128 28,-123 63,-235 107,-353 54,-149 124,-292 202,-413 138,-214 382,-480 776,-447 165,14 344,81 459,154 296,187 403,484 380,841 -8,123 -35,271 -73,387 -12,38 -30,79 -40,114 22,-6 54,-22 80,-31 82,-30 187,-52 278,-47 157,7 165,181 99,254 -39,42 -98,43 -173,43l-3251 0c-75,0 -132,7 -181,-36 -36,-32 -67,-85 -46,-156 95,-321 424,-543 797,-488 201,30 363,128 505,254 28,24 39,39 53,52zm1033 -1377l43 0c38,1 74,4 106,10 62,10 128,26 184,46 38,14 130,50 162,69 97,59 128,71 217,160 28,27 49,50 72,81 12,16 21,28 31,46 86,144 112,223 134,400l8 143c0,18 -3,19 -4,36 0,12 1,25 0,37 -1,21 -6,48 -6,70 -2,88 -40,230 -64,316 -4,14 -15,44 -16,58 67,-32 241,-62 314,-51 189,28 192,248 86,327 -43,33 -73,38 -147,38l-1841 0 -11 -19 -985 1 10 18c-131,0 -263,0 -394,0 -61,0 -141,5 -191,-7 -101,-24 -165,-139 -125,-242 22,-58 45,-115 79,-165 7,-10 12,-20 19,-31 15,-22 72,-91 89,-105 90,-75 117,-103 241,-153 189,-75 384,-68 574,0 107,38 194,91 283,158 11,8 16,13 26,21 8,6 19,14 27,22 9,9 13,18 26,21 44,-190 59,-236 121,-416 18,-50 44,-116 66,-161 9,-18 15,-34 24,-53 45,-88 70,-138 124,-220l64 -90c6,-8 9,-13 16,-20 24,-30 45,-55 72,-82 40,-40 76,-75 121,-109 8,-6 13,-9 22,-15 54,-36 110,-71 174,-93 19,-7 36,-12 55,-18 51,-17 122,-26 194,-28z"/>
   <path class="fil0" d="M2759 8015l955 0c-24,-50 -124,-76 -194,-122 -18,-12 -30,-21 -45,-33 -29,-25 -19,-14 -103,24 -17,8 -40,24 -57,17 -2,-22 11,-19 57,-41l64 -33c-6,-10 -19,-23 -27,-31 -29,7 -102,58 -126,49 -6,-19 12,-21 49,-38 20,-9 43,-18 60,-30 -28,-49 -67,-101 -84,-167 -27,-2 -357,51 -414,59 -140,21 -129,9 -129,47l-6 299z"/>
   <path class="fil0" d="M2296 7801c-45,0 -130,29 -135,8 -5,-18 43,-18 59,-20 22,-3 43,-6 66,-10l-26 -95c-4,-8 -57,-19 -68,-23 -69,-18 -458,-127 -486,-131l-92 287 918 301c-6,-30 -25,-60 -41,-78 -47,-51 -88,-69 -142,-146 -7,-11 -13,-21 -22,-32 -23,0 -57,7 -81,11 -55,8 -70,18 -69,-10 23,-9 105,-18 137,-23l-18 -39z"/>
   <path class="fil0" d="M2580 4934c-4,6 -2,-2 -3,9 0,3 0,7 0,10l19 301 53 -1c172,5 415,-70 572,-137 29,-12 140,-63 154,-82l-330 -31c-7,13 -13,42 -17,56 -9,32 -35,24 -34,1 1,-15 26,-94 32,-116 6,-20 11,-37 16,-57 10,-35 5,-23 38,-36 31,-12 80,-35 74,-75 -49,-44 -229,56 -268,79 -40,23 -75,47 -108,75 -27,21 -62,64 -74,64 -18,1 -17,-12 -15,-26 -48,-5 -85,0 -109,-34z"/>
   <path class="fil0" d="M4813 2335c-115,16 -218,121 -200,259 15,119 125,222 264,203 115,-17 217,-125 198,-262 -15,-117 -125,-220 -262,-200z"/>
   <path class="fil0" d="M5323 3095c86,5 179,-41 240,-94 111,-98 189,-321 91,-479 -25,-40 -48,-63 -77,-91 -21,-20 -67,-55 -99,-69l-118 553c-9,42 -37,147 -37,180z"/>
   <path class="fil0" d="M3960 4746c-15,19 -32,35 -48,53 -15,17 -32,36 -48,52 -19,19 -79,94 -99,102 -20,9 -609,-57 -689,-62 -6,16 -23,66 -20,80 256,28 514,48 770,74 33,4 37,3 52,-16 11,-13 23,-24 34,-37l203 -221c22,-21 44,-52 67,-73l101 -112c11,-11 29,-24 31,-41 6,-45 -65,-37 -98,-41 -86,-8 -174,-19 -260,-24l18 40c64,7 145,-3 138,52 -2,14 -20,29 -28,38l-124 136z"/>
   <path class="fil0" d="M2383 3069c85,-22 115,47 61,25 -73,-29 -93,39 -111,21 -17,-18 33,-41 50,-46zm200 -203c28,-17 45,22 25,35 -26,17 -48,-21 -25,-35zm154 35c-8,-13 -15,-22 -23,-34 -28,-38 -58,-58 -36,-67 17,-8 106,119 88,130 -15,9 -24,-20 -29,-29zm-260 23c2,5 52,57 11,104 -12,13 -28,22 -54,19 -26,-2 -37,-18 -50,-27 -11,6 -27,21 -35,29 -13,11 -23,19 -35,28 -17,13 -20,18 -15,45 10,47 51,87 105,92 40,3 76,-15 92,-38 32,4 52,9 81,8 138,-6 252,-88 252,-227 0,-106 -117,-267 -162,-285l-92 130c-16,21 -31,42 -48,62 -10,12 -15,17 -24,28 -9,10 -20,21 -26,32z"/>
   <path class="fil2" d="M4240 3802c19,-6 103,-91 127,-110l51 -46c10,-11 16,-14 26,-24l125 -115c11,-11 17,-14 27,-23 9,-9 15,-16 24,-23 10,-8 20,-13 24,-27l-448 -180c0,48 7,93 10,137 2,23 2,46 6,68l28 343z"/>
   <path class="fil2" d="M5185 1969l101 152c8,12 15,21 22,32 9,13 33,52 44,60 17,-5 226,-156 243,-160 -3,-15 -105,-160 -122,-185l-41 -62 -123 80c-10,8 -20,13 -30,20 -12,8 -20,15 -32,22 -23,14 -40,29 -62,41z"/>
   <path class="fil2" d="M507 4142l0 10c18,1 174,68 205,80 35,12 67,27 102,41 15,5 90,38 104,39 0,-65 -47,-381 -47,-427 -10,3 -205,145 -226,161 -15,11 -29,21 -45,32 -17,11 -80,60 -93,64z"/>
   <path class="fil0" d="M2755 8119l1009 7c-2,-33 -19,-65 -32,-89l-973 0 -4 82z"/>
   <path class="fil2" d="M3765 4953c20,-8 80,-83 99,-102 16,-16 33,-35 48,-52 16,-18 33,-34 48,-53 -8,-3 -4,-1 -8,-9 -10,-22 -10,-45 -45,-92 -111,-149 -307,-24 -325,1 9,21 32,54 45,75 22,37 136,218 138,232z"/>
   <path class="fil0" d="M2541 8219c1,-28 3,-47 -2,-74l-233 -78c-190,-61 -395,-132 -583,-191 -35,-10 -82,-30 -118,-37l-28 83 964 297z"/>
   <path class="fil0" d="M2722 4937c14,-18 72,-65 96,-77 -9,-24 -15,-36 5,-56 14,-14 21,-24 35,-38l175 -192c13,-14 25,-23 34,-38 -10,-11 -66,-37 -77,-45 -5,-4 -3,-3 -5,-5 30,-20 137,-69 153,-86 -83,-10 -73,-21 -148,65 -52,61 -130,138 -180,197 -48,57 -128,135 -177,193 -9,11 -31,28 -30,48 3,25 23,26 47,28 22,3 49,7 72,6z"/>
   <path class="fil0" d="M3878 3950c-68,15 -129,81 -112,168 13,71 84,134 172,116 68,-15 130,-82 113,-170 -14,-71 -85,-133 -173,-114z"/>
   <path class="fil1" d="M5323 3095c0,-33 28,-138 37,-180l118 -553c32,14 78,49 99,69 29,28 52,51 77,91 98,158 20,381 -91,479 -61,53 -154,99 -240,94zm-42 32c61,15 163,-15 205,-35 51,-25 103,-62 137,-107 6,-6 8,-8 13,-14 17,-21 48,-78 58,-105 40,-100 62,-216 13,-317 -38,-77 -80,-125 -150,-178 -20,-15 -79,-56 -105,-58l-42 202c-16,68 -28,134 -44,203 -8,35 -14,69 -21,103 -7,34 -15,65 -22,101l-32 152c-3,16 -10,34 -10,53z"/>
   <path class="fil1" d="M4813 2335c137,-20 247,83 262,200 19,137 -83,245 -198,262 -139,19 -249,-84 -264,-203 -18,-138 85,-243 200,-259zm-236 232c0,144 111,256 261,267 49,3 112,-18 152,-44 137,-88 165,-293 47,-409 -66,-66 -122,-81 -213,-81 -30,0 -80,16 -100,26 -90,46 -147,138 -147,241z"/>
   <path class="fil0" d="M3825 2636c3,18 86,186 98,206l204 -97c-6,-25 -36,-79 -48,-104 -14,-29 -34,-75 -49,-100 -17,3 -82,37 -103,47 -31,15 -72,38 -102,48z"/>
   <path class="fil0" d="M2733 5281c-13,123 -21,248 -31,367 -29,330 -57,674 -93,1002 -3,23 -18,82 11,79 22,-2 19,-55 21,-77 24,-216 41,-423 62,-639 4,-44 64,-704 61,-735l-31 3z"/>
   <path class="fil2" d="M2587 627c0,20 12,24 22,21 10,-3 37,-51 54,-71 38,-46 81,-90 128,-126 17,-12 31,-23 49,-35 55,-37 101,-65 162,-91 217,-93 443,-147 684,-85 47,11 42,22 76,14 7,-29 -8,-32 -34,-39 -24,-7 -42,-12 -66,-18 -69,-17 -127,-17 -200,-17 -185,0 -416,70 -576,166 -77,46 -80,50 -147,103 -40,31 -56,54 -82,81 -11,11 -70,85 -70,97z"/>
   <path class="fil0" d="M123 4457c-151,35 -95,259 52,224 147,-36 95,-258 -52,-224z"/>
   <path class="fil2" d="M4500 5076c20,1 310,57 331,57 -4,-14 -56,-119 -64,-133 -13,-27 -58,-111 -63,-134 -18,2 -4,-1 -28,23l-127 133c-8,9 -16,16 -25,25l-24 29z"/>
   <path class="fil0" d="M1843 6359c27,18 181,36 226,43 106,17 155,29 155,133 0,52 -20,202 -35,246 -43,127 -186,102 -306,74 -15,-4 -118,-40 -92,5 13,22 203,49 259,49 99,0 152,-50 174,-130 15,-55 37,-217 32,-273 -12,-137 -157,-131 -306,-156 -75,-13 -113,-34 -107,9z"/>
   <path class="fil0" d="M3398 2090c5,10 102,91 123,107 17,14 115,101 126,104l10 -292 -259 81z"/>
   <path class="fil1" d="M3657 2009l-10 292c-11,-3 -109,-90 -126,-104 -21,-16 -118,-97 -123,-107l259 -81zm-329 67c3,10 5,9 20,20l283 238c21,17 34,35 48,36 0,-69 6,-134 7,-204 0,-21 3,-26 3,-47 0,-17 0,-35 0,-53 0,-22 3,-29 3,-50 0,-18 0,-36 0,-53 -90,21 -285,95 -364,113z"/>
   <path class="fil0" d="M1587 3416c5,-11 7,-30 2,-41 -51,18 -117,106 -141,165 -32,81 -22,192 -22,285 0,43 -4,588 2,615 14,7 14,6 28,0 16,-69 -15,-748 12,-853 16,-64 67,-146 119,-171z"/>
   <path class="fil0" d="M2185 4386c0,-93 26,-186 53,-262 14,-38 30,-77 47,-111 16,-33 64,-104 22,-98 -14,2 -26,34 -33,47 -28,56 -49,100 -70,161 -30,87 -51,169 -51,269 0,172 115,305 239,386 24,15 107,70 139,62 15,-31 -16,-32 -44,-47 -49,-24 -84,-46 -125,-79 -95,-77 -177,-175 -177,-328z"/>
   <path class="fil1" d="M3825 2636c30,-10 71,-33 102,-48 21,-10 86,-44 103,-47 15,25 35,71 49,100 12,25 42,79 48,104l-204 97c-12,-20 -95,-188 -98,-206zm-46 -16c6,26 50,102 64,134l63 133c11,-1 116,-53 135,-62 44,-23 89,-42 132,-65l-63 -133c-6,-11 -10,-20 -16,-31 -6,-13 -9,-22 -16,-35 -47,-103 -17,-65 -167,-3l-97 46c-12,6 -22,13 -35,16z"/>
   <path class="fil1" d="M3878 3950c88,-19 159,43 173,114 17,88 -45,155 -113,170 -88,18 -159,-45 -172,-116 -17,-87 44,-153 112,-168zm-149 139c0,99 82,180 160,180l34 0c84,0 163,-83 163,-167 0,-63 -13,-99 -54,-140 -93,-90 -246,-46 -286,54 -8,20 -17,44 -17,73z"/>
   <path class="fil2" d="M2864 861c0,14 13,13 20,13 11,0 41,-42 56,-57 21,-20 37,-40 60,-57 24,-19 34,-31 65,-52l129 -74c144,-68 333,-89 492,-51 15,4 32,12 42,0 11,-15 -3,-26 -18,-30 -86,-25 -143,-22 -231,-22 -160,0 -327,72 -438,150 -11,8 -22,17 -34,26 -23,17 -143,124 -143,154z"/>
   <path class="fil0" d="M3943 4553c9,-46 -70,-129 -77,-141 -11,-19 9,-42 33,-13 46,57 25,44 90,50 54,6 118,15 171,16 -41,-57 -369,-180 -392,-64 -8,40 99,168 175,152z"/>
   <path class="fil0" d="M1625 3212c25,-9 71,-18 101,-18 22,-8 123,-3 154,-3 5,-116 -26,-145 -137,-145 -109,-1 -127,59 -118,166z"/>
   <path class="fil0" d="M3052 4486c7,7 227,128 240,131 1,-71 7,-197 4,-262 -17,6 -227,121 -244,131z"/>
   <path class="fil0" d="M2398 3358c20,23 182,193 196,201l64 -201c-61,-6 -86,-12 -144,-11 -33,0 -86,4 -116,11z"/>
   <path class="fil1" d="M123 4457c147,-34 199,188 52,224 -147,35 -203,-189 -52,-224zm-123 102c0,53 9,81 46,118 12,12 26,21 41,28 56,27 122,12 163,-26 142,-133 -59,-358 -206,-216l-4 3c0,1 -1,1 -1,2 -22,23 -39,58 -39,91z"/>
   <path class="fil2" d="M3091 1048c0,5 16,37 45,-2 7,-8 14,-15 21,-22l45 -39c128,-101 268,-150 436,-133 53,5 71,17 71,-14 0,-30 -145,-24 -167,-24 -59,0 -158,25 -207,47l-159 98c-11,9 -85,74 -85,89z"/>
   <path class="fil2" d="M6303 180c0,13 37,49 49,58l51 56c-23,34 -85,75 -103,110 19,37 37,7 76,-31 14,-15 39,-43 54,-53 31,21 85,101 113,101 14,0 14,-13 14,-20 0,-14 -88,-88 -100,-107 10,-15 38,-40 52,-55 51,-50 55,-39 48,-69 -8,-2 -8,-3 -17,-3 -16,0 -90,86 -110,100 -11,-7 -91,-103 -110,-103 -8,0 -17,8 -17,16z"/>
   <path class="fil0" d="M3154 4339c41,9 25,-31 20,-60 -15,-100 -95,-552 -129,-578 -14,-10 -28,1 -26,16l35 116c26,104 50,228 69,335 6,34 21,151 31,171z"/>
   <path class="fil0" d="M2571 2543c-7,14 -32,42 -43,57 -58,76 -168,213 -228,280l-72 78c-9,9 -22,19 -11,36 18,18 51,-28 60,-40 17,-19 35,-36 51,-56 15,-19 33,-40 49,-58 42,-48 207,-255 237,-300 -24,2 -14,10 -43,3z"/>
   <path class="fil0" d="M3278 4727c4,29 37,87 47,120l120 -48c-4,-15 -43,-111 -50,-119l-117 47z"/>
   <path class="fil1" d="M4600 2025c46,4 51,-9 51,21 0,20 -5,51 3,67 23,11 30,0 30,-23 0,-20 0,-41 0,-61 17,0 33,0 50,0 26,1 24,1 40,-10l0 -16c-23,-16 -45,-10 -87,-10l0 -30c-6,-12 0,-47 -7,-53 -42,-17 -25,47 -30,82 -17,2 -64,-1 -75,3 -18,5 -22,36 25,30z"/>
   <path class="fil1" d="M3547 3778c51,-18 75,64 23,78 -38,11 -66,-29 -47,-60 7,-12 12,-14 24,-18zm-65 37c0,96 150,110 150,-3 0,-95 -150,-91 -150,3z"/>
   <path class="fil1" d="M6079 2159c0,17 7,18 17,24 14,-4 17,-9 29,-18l76 -64c11,-9 99,-75 99,-88 0,-14 -11,-20 -14,-20 -19,0 -134,103 -158,122 -7,6 -49,39 -49,44z"/>
   <path class="fil0" d="M3551 4479l229 23c-25,-56 -47,-44 -86,-48 -36,-4 -87,-12 -122,-11l-21 36z"/>
   <path class="fil1" d="M1108 3912c-6,29 -2,21 16,65 7,18 12,31 20,49 9,20 35,93 48,93 44,0 7,-53 -14,-106l-36 -85c-7,-16 -12,-25 -34,-16z"/>
   <path class="fil0" d="M3328 4458l187 18c6,-12 18,-25 16,-39l-203 -19 0 40z"/>
   <path class="fil1" d="M3696 3257c7,15 5,17 23,17 10,0 4,-1 18,-16l46 -53c10,-11 60,-69 60,-78 0,-16 -11,-16 -20,-16 -11,0 -28,24 -35,32 -22,25 -81,93 -92,114z"/>
   <path class="fil1" d="M6527 2553c-4,14 -4,15 3,27l78 109c14,22 23,30 42,8 -2,-23 -71,-108 -86,-131 -7,-11 -11,-23 -37,-13z"/>
   <path class="fil1" d="M4974 5036c0,15 30,42 40,54l77 83c45,-10 4,-44 -5,-55 -5,-8 -8,-9 -14,-16 -16,-17 -63,-82 -81,-82 -8,0 -17,9 -17,16z"/>
   <path class="fil1" d="M3913 3785c21,0 22,-5 20,-30l-5 -95c-3,-22 -1,-35 -22,-35 -24,0 -15,57 -12,78 4,28 -3,82 19,82z"/>
   <path class="fil0" d="M3547 3778c-12,4 -17,6 -24,18 -19,31 9,71 47,60 52,-14 28,-96 -23,-78z"/>
   <path class="fil1" d="M5094 2997c39,0 -5,-67 -12,-81 -16,-33 -21,-56 -41,-56 -38,0 12,78 27,107 6,12 10,30 26,30z"/>
   <path class="fil1" d="M574 5163l0 114c0,19 37,26 37,-7l0 -107c0,-21 -37,-21 -37,0z"/>
   <path class="fil0" d="M1626 3353c-1,5 -3,13 -2,18 1,25 0,12 7,18 21,-11 44,-18 69,-24 23,-4 74,2 75,-21 3,-44 -134,7 -149,9z"/>
   <path class="fil0" d="M3095 4596c-23,14 7,36 25,58 18,22 37,52 55,39 19,-13 -11,-41 -27,-57 -10,-11 -35,-51 -53,-40z"/>
   <path class="fil1" d="M2678 2800c-22,9 8,29 36,67 8,12 15,21 23,34 5,9 14,38 29,29 18,-11 -71,-138 -88,-130z"/>
   <path class="fil1" d="M2383 3069c-17,5 -67,28 -50,46 18,18 38,-50 111,-21 54,22 24,-47 -61,-25z"/>
   <path class="fil0" d="M3488 4907c26,9 31,-11 43,-28 12,-17 29,-31 22,-53 -26,-10 -32,10 -44,27 -11,17 -30,31 -21,54z"/>
   <path class="fil1" d="M2583 2866c-23,14 -1,52 25,35 20,-13 3,-52 -25,-35z"/>
  </g>
 </g>
</svg>
