<?xml version="1.0" encoding="utf-8"?>
<!-- Generator: Adobe Illustrator 15.1.0, SVG Export Plug-In . SVG Version: 6.00 Build 0)  -->
<!DOCTYPE svg PUBLIC "-//W3C//DTD SVG 1.1//EN" "http://www.w3.org/Graphics/SVG/1.1/DTD/svg11.dtd">
<svg version="1.1" id="Layer_1" xmlns="http://www.w3.org/2000/svg" xmlns:xlink="http://www.w3.org/1999/xlink" x="0px" y="0px"
	 width="679.5px" height="238.5px" viewBox="0 0 679.5 238.5" enable-background="new 0 0 679.5 238.5" xml:space="preserve">
<g id="S">
	<path fill="#295c88" d="M173.097,57.612h-23.662c-1.564,0-2.842,1.277-2.842,2.84v23.666c0,1.562,1.277,2.84,2.842,2.84h23.662
		c1.563,0,2.841-1.277,2.841-2.84V60.453C175.938,58.89,174.66,57.612,173.097,57.612z"/>
	<path fill="#295c88" d="M140.245,59.881c-0.266-1.291-1.415-2.27-2.781-2.27H113.8c-1.367,0-2.517,0.979-2.782,2.27
		c-0.038,0.184-0.058,0.375-0.058,0.57v23.666c0,0.195,0.02,0.387,0.058,0.571c0.266,1.291,1.415,2.269,2.782,2.269h23.664
		c1.366,0,2.516-0.978,2.781-2.269c0.039-0.185,0.059-0.376,0.059-0.571V60.452C140.304,60.256,140.284,60.065,140.245,59.881z"/>
	<path fill="#295c88" d="M101.829,57.612H78.166c-1.563,0-2.841,1.277-2.841,2.84v23.666c0,1.562,1.277,2.84,2.841,2.84h23.663
		c1.562,0,2.84-1.277,2.84-2.84V60.453C104.669,58.89,103.392,57.612,101.829,57.612z"/>
	<path fill="#295c88" d="M66.195,57.612H42.532c-1.368,0-2.518,0.979-2.783,2.271c-0.038,0.184-0.058,0.375-0.058,0.57v23.666
		c0,0.195,0.02,0.387,0.058,0.571c0.266,1.291,1.415,2.269,2.783,2.269h23.663c1.562,0,2.841-1.277,2.841-2.84V60.453
		C69.036,58.89,67.758,57.612,66.195,57.612z"/>
	<path fill="#295c88" d="M33.343,59.881c-0.266-1.291-1.414-2.27-2.781-2.27H6.898c-1.562,0-2.84,1.277-2.84,2.84v23.666
		c0,1.562,1.277,2.84,2.84,2.84h23.664c1.367,0,2.516-0.978,2.781-2.269c0.039-0.185,0.059-0.376,0.059-0.571V60.452
		C33.402,60.256,33.382,60.065,33.343,59.881z"/>
	<path fill="#295c88" d="M33.343,95.515c-0.266-1.29-1.414-2.268-2.781-2.268H6.898c-1.562,0-2.84,1.277-2.84,2.839v23.666
		c0,1.563,1.277,2.841,2.84,2.841h23.664c1.367,0,2.516-0.979,2.781-2.271c0.039-0.184,0.059-0.375,0.059-0.571V96.085
		C33.402,95.891,33.382,95.7,33.343,95.515z"/>
	<path fill="#295c88" d="M173.097,128.88h-23.662c-1.564,0-2.842,1.276-2.842,2.841v23.664c0,1.563,1.277,2.841,2.842,2.841h23.662
		c1.563,0,2.841-1.277,2.841-2.841v-23.664C175.938,130.157,174.66,128.88,173.097,128.88z"/>
	<path fill="#295c88" d="M140.245,131.149c-0.266-1.291-1.415-2.27-2.781-2.27H113.8c-1.367,0-2.517,0.979-2.782,2.27
		c-0.038,0.184-0.058,0.376-0.058,0.571v23.664c0,0.196,0.02,0.388,0.058,0.571c0.266,1.291,1.415,2.27,2.782,2.27h23.664
		c1.366,0,2.516-0.979,2.781-2.27c0.039-0.185,0.059-0.375,0.059-0.571v-23.664C140.304,131.525,140.284,131.333,140.245,131.149z"
		/>
	<path fill="#295c88" d="M101.829,128.88H78.166c-1.563,0-2.841,1.276-2.841,2.841v23.664c0,1.563,1.277,2.841,2.841,2.841h23.663
		c1.562,0,2.84-1.277,2.84-2.841v-23.664C104.669,130.157,103.392,128.88,101.829,128.88z"/>
	<path fill="#295c88" d="M66.195,128.88H42.532c-1.368,0-2.518,0.979-2.783,2.27c-0.038,0.184-0.058,0.376-0.058,0.571v23.664
		c0,0.196,0.02,0.388,0.058,0.571c0.266,1.291,1.415,2.27,2.783,2.27h23.663c1.562,0,2.841-1.277,2.841-2.841v-23.664
		C69.036,130.157,67.758,128.88,66.195,128.88z"/>
	<path fill="#295c88" d="M173.097,164.514h-23.662c-1.564,0-2.842,1.278-2.842,2.84v23.666c0,1.562,1.277,2.841,2.842,2.841h23.662
		c1.563,0,2.841-1.277,2.841-2.841v-23.666C175.938,165.792,174.66,164.514,173.097,164.514z"/>
	<path fill="#295c88" d="M173.097,200.147h-23.662c-1.564,0-2.842,1.278-2.842,2.841v23.667c0,1.563,1.277,2.838,2.842,2.838h23.662
		c1.563,0,2.841-1.275,2.841-2.838v-23.667C175.938,201.426,174.66,200.147,173.097,200.147z"/>
	<path fill="#295c88" d="M140.245,202.417c-0.266-1.291-1.415-2.271-2.781-2.271H113.8c-1.367,0-2.517,0.979-2.782,2.271
		c-0.038,0.185-0.058,0.375-0.058,0.57v23.667c0,0.194,0.02,0.388,0.058,0.571c0.266,1.289,1.415,2.268,2.782,2.268h23.664
		c1.366,0,2.516-0.979,2.781-2.268c0.039-0.186,0.059-0.377,0.059-0.571v-23.667C140.304,202.792,140.284,202.602,140.245,202.417z"
		/>
	<path fill="#295c88" d="M101.829,200.147H78.166c-1.563,0-2.841,1.278-2.841,2.841v23.667c0,1.563,1.277,2.838,2.841,2.838h23.663
		c1.562,0,2.84-1.275,2.84-2.838v-23.667C104.669,201.426,103.392,200.147,101.829,200.147z"/>
	<path fill="#295c88" d="M66.195,200.147H42.532c-1.368,0-2.518,0.979-2.783,2.27c-0.038,0.186-0.058,0.377-0.058,0.571v23.667
		c0,0.194,0.02,0.387,0.058,0.571c0.266,1.289,1.415,2.267,2.783,2.267h23.663c1.562,0,2.841-1.275,2.841-2.838v-23.667
		C69.036,201.426,67.758,200.147,66.195,200.147z"/>
	<path fill="#295c88" d="M33.343,202.417c-0.266-1.291-1.414-2.271-2.781-2.271H6.898c-1.562,0-2.84,1.278-2.84,2.841v23.667
		c0,1.563,1.277,2.839,2.84,2.839h23.664c1.367,0,2.516-0.979,2.781-2.268c0.039-0.186,0.059-0.377,0.059-0.571v-23.667
		C33.402,202.792,33.382,202.602,33.343,202.417z"/>
	<path fill="#295c88" d="M33.343,131.149c-0.266-1.291-1.414-2.27-2.781-2.27H6.898c-1.562,0-2.84,1.276-2.84,2.841v23.664
		c0,1.563,1.277,2.841,2.84,2.841h23.664c1.367,0,2.516-0.979,2.781-2.27c0.039-0.185,0.059-0.375,0.059-0.571v-23.664
		C33.402,131.525,33.382,131.333,33.343,131.149z"/>
	<path fill="#295c88" d="M219.021,2.915h-18.912c-1.248,0-2.615,0.343-3.037,0.762l-6.402,6.328c-0.424,0.419,0.295,0.76,1.597,0.76
		h19.718c1.303,0,2.67-0.341,3.039-0.76l5.596-6.328C220.988,3.256,220.27,2.915,219.021,2.915z"/>
	<path fill="#295c88" d="M190.484,2.915h-18.912c-1.248,0-2.662,0.343-3.143,0.762l-7.288,6.328c-0.481,0.419,0.19,0.76,1.491,0.76
		h19.719c1.302,0,2.717-0.341,3.145-0.76l6.48-6.328C192.404,3.256,191.733,2.915,190.484,2.915z"/>
	<path fill="#295c88" d="M161.947,2.915h-18.912c-1.248,0-2.712,0.343-3.251,0.762l-8.172,6.328c-0.539,0.419,0.086,0.76,1.387,0.76
		h19.718c1.302,0,2.765-0.341,3.251-0.76l7.365-6.328C163.819,3.256,163.194,2.915,161.947,2.915z"/>
	<path fill="#295c88" d="M133.409,2.915h-18.912c-1.248,0-2.758,0.343-3.355,0.762l-9.057,6.328c-0.598,0.419-0.021,0.76,1.279,0.76
		h19.719c1.301,0,2.812-0.341,3.356-0.76l8.25-6.328C135.234,3.256,134.657,2.915,133.409,2.915z"/>
	<path fill="#295c88" d="M96.703,9.876c-0.604,0.418-2.161,0.76-3.462,0.76H74.323c-1.3,0-1.828-0.342-1.172-0.76l9.53-6.075
		c0.655-0.418,2.214-0.759,3.462-0.759h18.168c1.25,0,1.777,0.341,1.174,0.759L96.703,9.876"/>
	<path fill="#295c88" d="M82.204,20.221c-0.604,0.419-2.209,0.761-3.568,0.761H58.869c-1.358,0-1.935-0.342-1.279-0.761l8.87-5.702
		c0.656-0.418,2.262-0.76,3.568-0.76h19.017c1.309,0,1.884,0.342,1.279,0.76L82.204,20.221"/>
	<path fill="#295c88" d="M199.837,23.975h-20.68c-1.365,0-2.828,0.343-3.251,0.761l-6.402,6.328
		c-0.422,0.418,0.392,0.761,1.81,0.761h21.488c1.418,0,2.881-0.343,3.25-0.761l5.596-6.328
		C202.018,24.317,201.203,23.975,199.837,23.975z"/>
	<path fill="#295c88" d="M168.638,23.975h-20.682c-1.363,0-2.875,0.343-3.355,0.761l-7.287,6.328
		c-0.48,0.418,0.285,0.761,1.703,0.761h21.487c1.419,0,2.929-0.343,3.356-0.761l6.482-6.328
		C170.769,24.317,170.003,23.975,168.638,23.975z"/>
	<path fill="#295c88" d="M137.437,23.975h-20.68c-1.365,0-2.924,0.343-3.463,0.761l-8.172,6.328
		c-0.539,0.418,0.18,0.761,1.598,0.761h21.487c1.417,0,2.976-0.343,3.462-0.761l7.365-6.328
		C139.521,24.317,138.801,23.975,137.437,23.975z"/>
	<path fill="#295c88" d="M106.236,23.975H85.555c-1.365,0-2.971,0.343-3.568,0.761l-9.057,6.328
		c-0.598,0.418,0.074,0.761,1.492,0.761H95.91c1.417,0,3.022-0.343,3.567-0.761l8.249-6.328
		C108.274,24.317,107.601,23.975,106.236,23.975z"/>
	<path fill="#295c88" d="M189.777,34.728h-21.565c-1.423,0-2.933,0.341-3.356,0.76l-5.952,5.884c-0.423,0.419,0.439,0.76,1.916,0.76
		h22.372c1.477,0,2.987-0.341,3.356-0.76l5.147-5.884C192.063,35.068,191.2,34.728,189.777,34.728z"/>
	<path fill="#295c88" d="M180.655,45.035h-22.45c-1.481,0-3.04,0.342-3.462,0.76l-6.403,6.329c-0.423,0.419,0.487,0.761,2.022,0.761
		h23.256c1.535,0,3.092-0.342,3.463-0.761l5.596-6.329C183.047,45.375,182.137,45.035,180.655,45.035z"/>
	<path fill="#295c88" d="M141.894,51.997c-0.428,0.419-2.033,0.76-3.568,0.76h-22.313c-1.533,0-2.397-0.341-1.916-0.76l6.983-6.074
		c0.479-0.418,2.086-0.761,3.569-0.761h21.562c1.483,0,2.344,0.343,1.916,0.761L141.894,51.997"/>
	<path fill="#295c88" d="M112.927,45.035H90.478c-1.48,0-3.135,0.342-3.675,0.76l-8.171,6.329c-0.54,0.419,0.275,0.761,1.811,0.761
		h23.255c1.534,0,3.188-0.342,3.675-0.761l7.365-6.329C115.224,45.375,114.408,45.035,112.927,45.035z"/>
	<path fill="#295c88" d="M79.064,45.035H56.615c-1.482,0-3.184,0.342-3.781,0.76l-9.057,6.329c-0.598,0.419,0.17,0.761,1.705,0.761
		h23.256c1.535,0,3.234-0.342,3.781-0.761l8.25-6.329C81.313,45.375,80.545,45.035,79.064,45.035z"/>
	<path fill="#295c88" d="M45.2,45.035H22.75c-1.481,0-3.229,0.342-3.888,0.76l-9.939,6.329c-0.656,0.419,0.062,0.761,1.598,0.761
		h23.256c1.535,0,3.284-0.342,3.887-0.761l9.134-6.329C47.402,45.375,46.683,45.035,45.2,45.035z"/>
	<path fill="#295c88" d="M67.044,30.938c-0.604,0.418-2.257,0.76-3.675,0.76H42.755c-1.418,0-2.043-0.342-1.387-0.76l9.531-6.076
		c0.654-0.418,2.309-0.76,3.674-0.76h19.866c1.366,0,1.99,0.342,1.386,0.76L67.044,30.938"/>
</g>
<g id="Text">
	<g>
		<path fill="#295c88" stroke="#295c88" stroke-width="2" d="M462.261,76.112"/>
		<path fill="#295c88" stroke="#295c88" stroke-miterlimit="10" d="M219.282,108.392l1.799-1.562
			c6.45,5.987,13.702,8.971,21.754,8.971c2.389,0,4.82-0.254,7.295-0.773c2.465-0.52,4.722-1.355,6.742-2.508
			c2.04-1.156,3.712-2.673,5.03-4.547c1.312-1.875,1.968-4.127,1.968-6.757c0-2.866-0.693-5.213-2.092-7.05
			c-1.394-1.838-3.164-3.244-5.313-4.245c-2.158-0.991-4.491-1.677-7.002-2.034c-2.504-0.355-4.874-0.535-7.107-0.535
			c-2.946,0-5.784-0.297-8.489-0.896c-2.71-0.6-5.081-1.555-7.111-2.867c-2.035-1.316-3.645-3.05-4.846-5.203
			c-1.195-2.147-1.789-4.778-1.789-7.889c0-3.027,0.675-5.578,2.035-7.646c1.351-2.078,3.084-3.772,5.193-5.085
			c2.112-1.313,4.468-2.271,7.055-2.872c2.588-0.594,5.157-0.891,7.715-0.891c5.262,0,9.36,0.773,12.312,2.327
			c2.94,1.554,5.42,3.769,7.408,6.634l-2.152,0.959c-0.794-1.516-1.871-2.762-3.222-3.764c-1.36-0.996-2.843-1.775-4.429-2.338
			c-1.591-0.551-3.265-0.936-5.021-1.133c-1.751-0.198-3.39-0.293-4.896-0.293c-2.316,0-4.646,0.26-6.992,0.775
			c-2.355,0.52-4.471,1.332-6.341,2.449c-1.875,1.115-3.386,2.568-4.538,4.364c-1.157,1.79-1.732,3.966-1.732,6.513
			c0,2.875,0.596,5.244,1.789,7.115c1.194,1.87,2.754,3.342,4.662,4.424c1.916,1.07,4.045,1.832,6.396,2.271
			c2.347,0.435,4.68,0.652,6.993,0.652c2.786,0,5.619,0.269,8.481,0.778c2.875,0.52,5.438,1.395,7.716,2.636
			c2.27,1.233,4.128,2.909,5.556,5.016c1.44,2.12,2.154,4.72,2.154,7.828c0,3.111-0.737,5.761-2.215,7.952
			c-1.473,2.195-3.361,3.947-5.68,5.259c-2.306,1.322-4.835,2.272-7.584,2.867c-2.748,0.604-5.401,0.897-7.951,0.897
			c-5.176,0-9.723-0.955-13.627-2.863C225.302,113.412,221.992,111.103,219.282,108.392z"/>
		<path fill="#295c88" stroke="#295c88" stroke-miterlimit="10" d="M304.147,118.19c-4.384-0.075-8.389-1.033-12.016-2.863
			c-3.631-1.836-6.733-4.25-9.318-7.237c-2.594-2.983-4.605-6.375-6.035-10.161c-1.44-3.783-2.159-7.707-2.159-11.771
			c0-4.303,0.774-8.405,2.334-12.316c1.547-3.904,3.664-7.332,6.336-10.279c2.668-2.946,5.794-5.279,9.383-6.988
			c3.588-1.718,7.413-2.572,11.477-2.572c4.456,0,8.507,0.957,12.132,2.865c3.628,1.918,6.729,4.387,9.326,7.418
			c2.583,3.018,4.58,6.469,5.971,10.342c1.397,3.861,2.102,7.711,2.102,11.531c0,4.221-0.762,8.252-2.277,12.072
			c-1.516,3.824-3.603,7.211-6.272,10.162c-2.676,2.951-5.801,5.299-9.39,7.055C312.153,117.194,308.291,118.116,304.147,118.19z
			 M277.013,86.158c0.16,3.828,0.906,7.526,2.271,11.119c1.346,3.58,3.22,6.752,5.619,9.5c2.389,2.744,5.193,4.943,8.424,6.578
			c3.225,1.634,6.832,2.445,10.819,2.445c4.063,0,7.769-0.877,11.119-2.629c3.342-1.753,6.213-4.037,8.603-6.875
			c2.395-2.824,4.221-6.018,5.5-9.562c1.271-3.551,1.913-7.068,1.913-10.576c0-3.82-0.699-7.532-2.098-11.121
			c-1.388-3.584-3.305-6.753-5.729-9.5c-2.438-2.748-5.306-4.963-8.609-6.635c-3.31-1.676-6.87-2.508-10.697-2.508
			c-4.063,0-7.773,0.893-11.117,2.683c-3.344,1.794-6.221,4.112-8.607,6.937c-2.39,2.827-4.223,6.016-5.501,9.562
			C277.646,79.121,277.013,82.652,277.013,86.158z"/>
		<path fill="#295c88" stroke="#295c88" stroke-miterlimit="10" d="M351.606,116.996V57.376h-8.973v-2.389h8.973v-2.545
			c0-2.625,0.254-5.352,0.773-8.188c0.52-2.824,1.373-5.412,2.564-7.77c1.193-2.351,2.813-4.263,4.845-5.735
			c2.034-1.474,4.561-2.21,7.591-2.21c2.154,0,3.985,0.197,5.504,0.594c1.504,0.402,2.745,0.842,3.695,1.318
			c0.959,0.477,1.658,0.936,2.096,1.374c0.439,0.435,0.657,0.698,0.657,0.774l-1.909,1.436c-1.359-1.352-2.927-2.21-4.727-2.569
			c-1.793-0.362-3.563-0.538-5.316-0.538c-2.866,0-5.178,0.76-6.93,2.271c-1.758,1.516-3.113,3.372-4.066,5.562
			c-0.953,2.187-1.598,4.543-1.912,7.049c-0.326,2.508-0.477,4.723-0.477,6.631v2.545h18.528v2.389h-18.528v59.619L351.606,116.996
			L351.606,116.996z"/>
		<path fill="#295c88" stroke="#295c88" stroke-miterlimit="10" d="M413.011,114.129c-1.2,0.793-2.295,1.392-3.28,1.795
			c-0.999,0.391-2.183,0.772-3.53,1.127c-1.362,0.358-2.873,0.543-4.539,0.543c-2.875,0-5.39-0.877-7.531-2.629
			c-2.153-1.753-3.23-4.066-3.23-6.933V57.346h-8.968v-2.389h8.968v-21.64h2.391v21.64h14.943v2.389H393.29v50.687
			c0.161,2.31,1.081,4.084,2.744,5.321c1.679,1.23,3.546,1.852,5.628,1.852c1.349,0,2.627-0.161,3.825-0.482
			c1.189-0.312,2.247-0.656,3.162-1.01c0.917-0.359,1.635-0.703,2.147-1.016c0.528-0.321,0.825-0.48,0.897-0.48L413.011,114.129z"/>
		<path fill="#295c88" stroke="#295c88" stroke-miterlimit="10" d="M565.18,114.606v2.389c-1.354-0.08-2.408-0.57-3.157-1.488
			c-0.762-0.922-1.141-2.016-1.141-3.29v-5.741c-3.192,4.065-7.157,7.035-11.898,8.909c-4.743,1.865-9.537,2.806-14.403,2.806
			c-2.784,0-5.418-0.492-7.892-1.492c-2.468-0.996-4.597-2.348-6.394-4.061c-1.79-1.715-3.207-3.727-4.237-6.04
			c-1.037-2.313-1.563-4.784-1.563-7.413c0-3.343,0.841-6.158,2.513-8.424c1.675-2.276,3.772-4.086,6.281-5.44
			c2.508-1.354,5.256-2.332,8.242-2.927c2.988-0.596,5.836-0.894,8.549-0.894c5.099,0,9.442,0.416,13.03,1.247
			c3.59,0.84,6.173,1.577,7.771,2.21v-7.05c0-3.184-0.48-6.097-1.436-8.727c-0.96-2.633-2.331-4.896-4.125-6.818
			c-1.795-1.907-3.924-3.385-6.396-4.419c-2.473-1.035-5.259-1.55-8.372-1.55c-3.025,0-6.251,0.652-9.676,1.97
			c-3.434,1.313-6.901,3.21-10.401,5.681l-1.435-1.918c3.269-2.227,6.708-4.146,10.337-5.732c3.629-1.596,7.355-2.393,11.175-2.393
			c3.749,0,7.038,0.623,9.861,1.854c2.836,1.228,5.207,2.929,7.12,5.081c1.911,2.145,3.347,4.676,4.303,7.594
			c0.953,2.903,1.435,6.033,1.435,9.377v34.31c0.161,0.712,0.359,1.294,0.597,1.733C564.108,114.389,564.547,114.606,565.18,114.606
			z M559.087,104.808c1.191-1.756,1.795-3.391,1.795-4.9V87.593c-3.433-1.355-6.875-2.309-10.339-2.866
			c-3.468-0.562-6.956-0.84-10.464-0.84c-2.553,0-5.181,0.259-7.892,0.779c-2.709,0.515-5.198,1.369-7.472,2.567
			c-2.271,1.19-4.141,2.768-5.615,4.722c-1.481,1.955-2.213,4.359-2.213,7.23c0,2.555,0.502,4.844,1.498,6.874
			c0.989,2.031,2.305,3.769,3.941,5.198c1.634,1.441,3.504,2.551,5.612,3.35c2.118,0.797,4.326,1.193,6.639,1.193
			c2.233,0,4.546-0.217,6.933-0.65c2.396-0.444,4.683-1.1,6.872-1.979c2.195-0.873,4.222-2.003,6.099-3.404
			C556.355,108.373,557.89,106.716,559.087,104.808z"/>
		<path fill="#295c88" stroke="#295c88" stroke-miterlimit="10" d="M608.575,54.958v2.389c-3.185,0.166-6.097,0.775-8.728,1.856
			c-2.632,1.067-4.963,2.507-6.989,4.302c-2.029,1.791-3.749,3.9-5.144,6.332c-1.396,2.438-2.491,5.082-3.292,7.953v39.205h-2.387
			V54.958h2.387v16.014c2.563-5.021,5.844-8.939,9.865-11.769C598.311,56.371,603.077,54.958,608.575,54.958z"/>
		<path fill="#295c88" stroke="#295c88" stroke-miterlimit="10" d="M611.778,86.158c0.081-4.143,0.812-8.15,2.211-12.014
			c1.395-3.863,3.348-7.295,5.858-10.279c2.513-2.994,5.517-5.383,9.024-7.178c3.504-1.795,7.414-2.686,11.72-2.686
			c4.537,0,8.665,0.883,12.366,2.625c3.702,1.756,6.879,4.107,9.505,7.064c2.631,2.941,4.684,6.346,6.152,10.217
			c1.482,3.862,2.253,7.9,2.34,12.127v1.316h-56.786c0.245,3.75,1.094,7.33,2.566,10.756c1.479,3.434,3.429,6.461,5.859,9.09
			c2.432,2.631,5.256,4.719,8.481,6.277c3.229,1.553,6.762,2.326,10.583,2.326c2.235,0,4.484-0.293,6.76-0.891
			c2.273-0.602,4.396-1.456,6.39-2.573c1.992-1.116,3.786-2.466,5.384-4.065c1.586-1.593,2.864-3.425,3.829-5.493l2.268,0.595
			c-0.958,2.391-2.335,4.52-4.128,6.395c-1.789,1.869-3.815,3.422-6.094,4.659c-2.274,1.239-4.658,2.177-7.172,2.81
			c-2.512,0.643-4.92,0.955-7.235,0.955c-4.31,0-8.286-0.912-11.951-2.744c-3.67-1.838-6.833-4.268-9.5-7.295
			c-2.675-3.027-4.746-6.456-6.221-10.279C612.513,94.046,611.778,90.142,611.778,86.158z M668.438,84.957
			c-0.24-4.062-1.094-7.829-2.568-11.295c-1.475-3.471-3.404-6.47-5.799-9.021c-2.389-2.548-5.239-4.561-8.547-6.033
			c-3.306-1.479-6.944-2.215-10.931-2.215c-4.068,0-7.712,0.855-10.951,2.569c-3.224,1.714-5.947,3.923-8.183,6.63
			c-2.229,2.711-3.962,5.76-5.193,9.146c-1.243,3.391-1.937,6.795-2.096,10.219H668.438z"/>
		<polygon fill="#295c88" stroke="#295c88" stroke-miterlimit="10" points="504.104,54.958 484.035,113.529 463.582,54.987 
			461.069,54.987 461.069,54.994 440.351,113.529 420.425,54.958 417.797,54.958 439.28,116.996 441.428,116.996 462.321,59.724 
			482.963,116.996 485.11,116.996 506.735,54.958 		"/>
	</g>
	<g>
		<path fill="#295c88" d="M273.932,138.229c4.957,2.156,9.591,5.389,13.901,9.699L274.9,160.86
			c-4.311-5.172-10.346-7.76-18.104-7.76s-12.717,1.833-14.872,5.496c-2.155,3.666-2.155,6.79,0,9.376
			c2.155,2.587,7.112,4.526,14.872,5.819c8.189,0.862,15.626,3.557,22.309,8.084c6.683,4.524,10.022,11.746,10.022,21.66
			c0,7.76-3.567,14.442-10.701,20.047c-7.136,5.604-15.444,8.404-24.927,8.404c-9.011,0-16.533-1.294-22.567-3.88
			c-6.036-2.586-11.209-6.035-15.519-10.346l12.932-12.933c4.311,5.172,11.64,8.189,21.985,9.054c8.621,0,13.999-1.833,16.133-5.496
			c2.134-3.664,2.134-7.329,0-10.993s-7.512-5.927-16.133-6.79c-7.759-0.86-14.872-3.231-21.338-7.112
			c-6.467-3.88-9.7-10.562-9.7-20.045c0-8.578,3.676-15.464,11.025-20.66c7.35-5.193,14.904-7.791,22.664-7.791
			C261.99,134.995,268.974,136.073,273.932,138.229z"/>
		<path fill="#295c88" d="M306.65,134.995h19.398v38.797l32.331-38.797h21.791l-37.957,45.265l45.91,51.729h-25.219l-36.856-41.902
			v41.902H306.65V134.995z"/>
		<path fill="#295c88" d="M399.828,134.931h19.333v97.058h-19.333V134.931z"/>
		<path fill="#295c88" d="M458.217,134.995v78.89h46.729v18.104h-66.129v-96.994H458.217z"/>
		<path fill="#295c88" d="M540.511,134.995v78.89h46.729v18.104h-66.128v-96.994H540.511z"/>
		<path fill="#295c88" d="M658.716,138.229c4.957,2.156,9.591,5.389,13.902,9.699l-12.934,12.932
			c-4.311-5.172-10.346-7.76-18.104-7.76s-12.717,1.833-14.872,5.496c-2.155,3.666-2.155,6.79,0,9.376
			c2.155,2.587,7.113,4.526,14.872,5.819c8.189,0.862,15.626,3.557,22.309,8.084c6.683,4.524,10.022,11.746,10.022,21.66
			c0,7.76-3.567,14.442-10.701,20.047c-7.135,5.604-15.443,8.404-24.928,8.404c-9.01,0-16.531-1.294-22.566-3.88
			s-11.209-6.035-15.519-10.346l12.932-12.933c4.312,5.172,11.64,8.189,21.985,9.054c8.621,0,14-1.833,16.134-5.496
			c2.134-3.664,2.134-7.329,0-10.993s-7.513-5.927-16.134-6.79c-7.761-0.86-14.872-3.231-21.338-7.112
			c-6.467-3.88-9.699-10.562-9.699-20.045c0-8.578,3.674-15.464,11.024-20.66c7.35-5.193,14.903-7.791,22.663-7.791
			C646.776,134.995,653.758,136.073,658.716,138.229z"/>
	</g>
</g>
<g id="Helpers" display="none">
</g>
</svg>
