<svg xmlns="http://www.w3.org/2000/svg" width="144.744" height="80.362" viewBox="0 0 144.744 80.362">
  <g id="tech-white" transform="translate(-1749 -925)" opacity="0.29">
    <path id="Rectangle_517" data-name="Rectangle 517" d="M3.557,0h34.8a3.557,3.557,0,0,1,3.557,3.557v34.8a3.558,3.558,0,0,1-3.558,3.558H3.558A3.558,3.558,0,0,1,0,38.354V3.557A3.557,3.557,0,0,1,3.557,0Z" transform="translate(1832.605 944.225)" fill="none" stroke="#fff" stroke-linecap="round" stroke-linejoin="round" stroke-width="2.147"/>
    <path id="Rectangle_518" data-name="Rectangle 518" d="M.5,0h22.34a.5.5,0,0,1,.5.5V22.837a.5.5,0,0,1-.5.5H.5a.5.5,0,0,1-.5-.5V.5A.5.5,0,0,1,.5,0Z" transform="translate(1841.895 953.515)" fill="#fff"/>
    <g id="Group_952" data-name="Group 952" transform="translate(1843.947 925)">
      <g id="Group_950" data-name="Group 950" transform="translate(0 61.379)">
        <path id="Rectangle_519" data-name="Rectangle 519" d="M.573,0H5.245a.573.573,0,0,1,.573.573V18.41a.573.573,0,0,1-.573.573H.574A.574.574,0,0,1,0,18.41V.573A.573.573,0,0,1,.573,0Z" transform="translate(13.411)" fill="#fff"/>
        <path id="Rectangle_520" data-name="Rectangle 520" d="M.573,0H5.244a.573.573,0,0,1,.573.573V18.41a.573.573,0,0,1-.573.573H.572A.572.572,0,0,1,0,18.411V.573A.573.573,0,0,1,.573,0Z" fill="#fff"/>
      </g>
      <g id="Group_951" data-name="Group 951" transform="translate(0 0)">
        <path id="Rectangle_521" data-name="Rectangle 521" d="M.573,0H5.245a.573.573,0,0,1,.573.573V18.41a.573.573,0,0,1-.573.573H.574A.574.574,0,0,1,0,18.409V.573A.573.573,0,0,1,.573,0Z" transform="translate(13.411)" fill="#fff"/>
        <path id="Rectangle_522" data-name="Rectangle 522" d="M.573,0H5.244a.573.573,0,0,1,.573.573V18.41a.573.573,0,0,1-.573.573H.572A.572.572,0,0,1,0,18.41V.573A.573.573,0,0,1,.573,0Z" fill="#fff"/>
      </g>
    </g>
    <g id="Group_955" data-name="Group 955" transform="translate(1813.379 955.566)">
      <g id="Group_953" data-name="Group 953" transform="translate(61.381 0)">
        <path id="Rectangle_523" data-name="Rectangle 523" d="M.574,0H18.411a.572.572,0,0,1,.572.572V5.245a.572.572,0,0,1-.572.572H.574A.574.574,0,0,1,0,5.244V.574A.574.574,0,0,1,.574,0Z" fill="#fff"/>
        <path id="Rectangle_524" data-name="Rectangle 524" d="M.574,0H18.411a.573.573,0,0,1,.573.573V5.248a.572.572,0,0,1-.572.572H.573A.573.573,0,0,1,0,5.247V.574A.574.574,0,0,1,.574,0Z" transform="translate(0 13.411)" fill="#fff"/>
      </g>
      <g id="Group_954" data-name="Group 954" transform="translate(0 0)">
        <path id="Rectangle_525" data-name="Rectangle 525" d="M.573,0H18.413a.572.572,0,0,1,.572.572V5.245a.572.572,0,0,1-.572.572H.574A.574.574,0,0,1,0,5.244V.573A.573.573,0,0,1,.573,0Z" fill="#fff"/>
        <rect id="Rectangle_526" data-name="Rectangle 526" width="18.985" height="5.82" rx="0.573" transform="translate(0 13.411)" fill="#fff"/>
      </g>
    </g>
    <line id="Line_44" data-name="Line 44" x2="58.925" transform="translate(1771.062 965.181)" fill="none" stroke="#fff" stroke-linecap="round" stroke-linejoin="round" stroke-width="2.147"/>
    <path id="Path_1569" data-name="Path 1569" d="M191.243,126.184a11.03,11.03,0,1,1-11.029-11.031A11.032,11.032,0,0,1,191.243,126.184Z" transform="translate(1579.818 838.996)" fill="#fff"/>
  </g>
</svg>
