<svg xmlns="http://www.w3.org/2000/svg" width="225.394" height="61.928" viewBox="0 0 225.394 61.928">
  <g id="tech-lines" transform="translate(0 1.074)">
    <path id="Path_1764" data-name="Path 1764" d="M157.492,98.991a6.291,6.291,0,1,0,6.29-6.291A6.291,6.291,0,0,0,157.492,98.991Z" transform="translate(-157.492 -44.427)" fill="#bf353e"/>
    <path id="Path_1765" data-name="Path 1765" d="M157.492,98.991a6.291,6.291,0,1,0,6.29-6.291A6.291,6.291,0,0,0,157.492,98.991Z" transform="translate(-93.915 -78.133)" fill="#bf353e"/>
    <path id="Path_1761" data-name="Path 1761" d="M111.269,77.606H16.758L0,96.845" transform="translate(113.851 -49.703)" fill="none" stroke="#bf353e" stroke-miterlimit="10" stroke-width="2.147"/>
    <path id="Path_1766" data-name="Path 1766" d="M93.073,96.7a6.29,6.29,0,1,0-6.29,6.29A6.292,6.292,0,0,0,93.073,96.7Z" transform="translate(23.42 -45.229)" fill="#bf353e"/>
    <path id="Path_1762" data-name="Path 1762" d="M140.605,66.972H29.336L0,100.561" transform="translate(84.515 -53.42)" fill="none" stroke="#bf353e" stroke-miterlimit="10" stroke-width="2.147"/>
    <path id="Path_1767" data-name="Path 1767" d="M114.687,96.7a6.291,6.291,0,1,0-6.291,6.29A6.293,6.293,0,0,0,114.687,96.7Z" transform="translate(-27.359 -45.229)" fill="#bf353e"/>
    <path id="Path_1768" data-name="Path 1768" d="M183.105,81.906H112.74L95.135,99.51" transform="translate(-86.371 -48.2)" fill="none" stroke="#bf353e" stroke-miterlimit="10" stroke-width="2.147"/>
    <path id="Path_1763" data-name="Path 1763" d="M183.105,81.906H47.656L30.051,99.51" transform="translate(42.289 -81.906)" fill="none" stroke="#bf353e" stroke-miterlimit="10" stroke-width="2.147"/>
  </g>
</svg>
