<svg xmlns="http://www.w3.org/2000/svg" xmlns:xlink="http://www.w3.org/1999/xlink" width="1920" height="930" viewBox="0 0 1920 930">
  <defs>
    <clipPath id="clip-path">
      <rect id="Rectangle_1057" data-name="Rectangle 1057" width="1920" height="930" transform="translate(1376 -717)" fill="#f8f8f8"/>
    </clipPath>
    <filter id="Rectangle_983" x="856.301" y="200.7" width="662.398" height="623.599" filterUnits="userSpaceOnUse">
      <feOffset dy="6" input="SourceAlpha"/>
      <feGaussianBlur stdDeviation="12" result="blur"/>
      <feFlood flood-opacity="0.4"/>
      <feComposite operator="in" in2="blur"/>
      <feComposite in="SourceGraphic"/>
    </filter>
    <clipPath id="clip-path-2">
      <path id="Path_2700" data-name="Path 2700" d="M-512,456V417H-645V782h356.588A7.413,7.413,0,0,0-281,774.588V456Z" fill="none"/>
    </clipPath>
    <filter id="Rectangle_984" x="902.926" y="236.334" width="279.54" height="380.197" filterUnits="userSpaceOnUse">
      <feOffset dx="7" dy="7" input="SourceAlpha"/>
      <feGaussianBlur stdDeviation="2.5" result="blur-2"/>
      <feFlood flood-opacity="0.051"/>
      <feComposite operator="in" in2="blur-2"/>
      <feComposite in="SourceGraphic"/>
    </filter>
    <filter id="Rectangle_985" x="1166.966" y="203.16" width="177.547" height="162.54" filterUnits="userSpaceOnUse">
      <feOffset dx="7" dy="7" input="SourceAlpha"/>
      <feGaussianBlur stdDeviation="2.5" result="blur-3"/>
      <feFlood flood-opacity="0.051"/>
      <feComposite operator="in" in2="blur-3"/>
      <feComposite in="SourceGraphic"/>
    </filter>
  </defs>
  <g id="Mask_Group_11" data-name="Mask Group 11" transform="translate(-1376 717)" clip-path="url(#clip-path)">
    <g id="Group_1184" data-name="Group 1184" transform="translate(1376 -848)">
      <g id="Group_1178" data-name="Group 1178" transform="translate(1934.552 376.568) rotate(30)">
        <g transform="matrix(0.87, -0.5, 0.5, 0.87, -1798.16, 754.61)" filter="url(#Rectangle_983)">
          <rect id="Rectangle_983-2" data-name="Rectangle 983" width="471" height="365" rx="7.455" transform="translate(1074.8 230.7) rotate(30)" fill="#4f444d"/>
        </g>
        <path id="Path_2699" data-name="Path 2699" d="M-512,456V417H-645V782h356.588A7.413,7.413,0,0,0-281,774.588V456Z" fill="#453f46"/>
        <g id="Group_1176" data-name="Group 1176">
          <g id="Group_1175" data-name="Group 1175" clip-path="url(#clip-path-2)">
            <g transform="matrix(0.87, -0.5, 0.5, 0.87, -1798.16, 754.61)" filter="url(#Rectangle_984)">
              <rect id="Rectangle_984-2" data-name="Rectangle 984" width="93" height="368" transform="translate(1087.43 236.83) rotate(30)" fill="#b3a1b7"/>
            </g>
            <g transform="matrix(0.87, -0.5, 0.5, 0.87, -1798.16, 754.61)" filter="url(#Rectangle_985)">
              <rect id="Rectangle_985-2" data-name="Rectangle 985" width="93" height="134" transform="matrix(-0.5, 0.87, -0.87, -0.5, 1330.01, 270.66)" fill="#b3a1b7"/>
            </g>
          </g>
        </g>
        <circle id="Ellipse_148" data-name="Ellipse 148" cx="4.5" cy="4.5" r="4.5" transform="translate(-741 429)" fill="#fc4f47"/>
        <circle id="Ellipse_149" data-name="Ellipse 149" cx="4.5" cy="4.5" r="4.5" transform="translate(-728 429)" fill="#fec200"/>
        <circle id="Ellipse_150" data-name="Ellipse 150" cx="4.5" cy="4.5" r="4.5" transform="translate(-715 429)" fill="#00d82c"/>
        <rect id="Rectangle_986" data-name="Rectangle 986" width="52" height="11" rx="5.5" transform="translate(-729 475)" fill="#5d5b5c"/>
        <rect id="Rectangle_987" data-name="Rectangle 987" width="63" height="11" rx="5.5" transform="translate(-729 499)" fill="#5d5b5c"/>
        <rect id="Rectangle_988" data-name="Rectangle 988" width="38" height="11" rx="5.5" transform="translate(-729 523)" fill="#5d5b5c"/>
        <rect id="Rectangle_989" data-name="Rectangle 989" width="22" height="11" rx="5.5" transform="translate(-729 547)" fill="#5d5b5c"/>
        <rect id="Rectangle_990" data-name="Rectangle 990" width="38" height="11" rx="5.5" transform="translate(-729 571)" fill="#5d5b5c"/>
        <g id="Group_1177" data-name="Group 1177">
          <rect id="Rectangle_991" data-name="Rectangle 991" width="54" height="12" rx="6" transform="translate(-609 473)" fill="#6f8fa4"/>
          <rect id="Rectangle_992" data-name="Rectangle 992" width="12" height="12" rx="6" transform="translate(-633 473)" fill="#5a555a"/>
          <rect id="Rectangle_993" data-name="Rectangle 993" width="12" height="12" rx="6" transform="translate(-633 497)" fill="#5a555a"/>
          <rect id="Rectangle_994" data-name="Rectangle 994" width="12" height="12" rx="6" transform="translate(-633 521)" fill="#5a555a"/>
          <rect id="Rectangle_995" data-name="Rectangle 995" width="12" height="12" rx="6" transform="translate(-633 545)" fill="#5a555a"/>
          <rect id="Rectangle_996" data-name="Rectangle 996" width="12" height="12" rx="6" transform="translate(-633 569)" fill="#5a555a"/>
          <rect id="Rectangle_997" data-name="Rectangle 997" width="12" height="12" rx="6" transform="translate(-633 593)" fill="#5a555a"/>
          <rect id="Rectangle_998" data-name="Rectangle 998" width="12" height="12" rx="6" transform="translate(-633 617)" fill="#5a555a"/>
          <rect id="Rectangle_999" data-name="Rectangle 999" width="12" height="12" rx="6" transform="translate(-633 641)" fill="#5a555a"/>
          <rect id="Rectangle_1000" data-name="Rectangle 1000" width="12" height="12" rx="6" transform="translate(-633 665)" fill="#5a555a"/>
          <rect id="Rectangle_1001" data-name="Rectangle 1001" width="12" height="12" rx="6" transform="translate(-633 689)" fill="#5a555a"/>
          <rect id="Rectangle_1002" data-name="Rectangle 1002" width="12" height="12" rx="6" transform="translate(-633 713)" fill="#5a555a"/>
          <rect id="Rectangle_1003" data-name="Rectangle 1003" width="12" height="12" rx="6" transform="translate(-633 737)" fill="#5a555a"/>
          <rect id="Rectangle_1004" data-name="Rectangle 1004" width="12" height="12" rx="6" transform="translate(-633 761)" fill="#5a555a"/>
          <rect id="Rectangle_1005" data-name="Rectangle 1005" width="54" height="12" rx="6" transform="translate(-609 497)" fill="#6f8fa4"/>
          <rect id="Rectangle_1006" data-name="Rectangle 1006" width="54" height="12" rx="6" transform="translate(-609 521)" fill="#6f8fa4"/>
          <rect id="Rectangle_1007" data-name="Rectangle 1007" width="49" height="12" rx="6" transform="translate(-609 569)" fill="#6e8da3"/>
          <rect id="Rectangle_1008" data-name="Rectangle 1008" width="49" height="12" rx="6" transform="translate(-609 592)" fill="#6e8da3"/>
          <rect id="Rectangle_1009" data-name="Rectangle 1009" width="54" height="12" rx="6" transform="translate(-541 473)" fill="#6f8fa4"/>
          <rect id="Rectangle_1010" data-name="Rectangle 1010" width="108" height="12" rx="6" transform="translate(-541 497)" fill="#6f8fa4"/>
          <rect id="Rectangle_1011" data-name="Rectangle 1011" width="208" height="12" rx="6" transform="translate(-541 521)" fill="#6f8fa4"/>
          <rect id="Rectangle_1012" data-name="Rectangle 1012" width="103" height="12" rx="6" transform="translate(-547 569)" fill="#706d6f"/>
          <rect id="Rectangle_1013" data-name="Rectangle 1013" width="103" height="12" rx="6" transform="translate(-431 569)" fill="#6e8da2"/>
          <rect id="Rectangle_1014" data-name="Rectangle 1014" width="49" height="12" rx="6" transform="translate(-547 592)" fill="#6e8da3"/>
          <rect id="Rectangle_1015" data-name="Rectangle 1015" width="49" height="12" rx="6" transform="translate(-609 737)" fill="#6e8da3"/>
          <rect id="Rectangle_1016" data-name="Rectangle 1016" width="49" height="12" rx="6" transform="translate(-547 737)" fill="#6e8da3"/>
          <rect id="Rectangle_1017" data-name="Rectangle 1017" width="54" height="12" rx="6" transform="translate(-584 617)" fill="#6e8da3"/>
          <rect id="Rectangle_1018" data-name="Rectangle 1018" width="20" height="12" rx="6" transform="translate(-518 617)" fill="#75998e"/>
          <rect id="Rectangle_1019" data-name="Rectangle 1019" width="72" height="12" rx="6" transform="translate(-485 617)" fill="#706d6f"/>
          <rect id="Rectangle_1020" data-name="Rectangle 1020" width="54" height="12" rx="6" transform="translate(-584 713)" fill="#6e8da3"/>
          <rect id="Rectangle_1021" data-name="Rectangle 1021" width="20" height="12" rx="6" transform="translate(-518 713)" fill="#75998e"/>
          <rect id="Rectangle_1022" data-name="Rectangle 1022" width="72" height="12" rx="6" transform="translate(-485 713)" fill="#706d6f"/>
          <rect id="Rectangle_1023" data-name="Rectangle 1023" width="41" height="12" rx="6" transform="translate(-558 641)" fill="#75998e"/>
          <rect id="Rectangle_1024" data-name="Rectangle 1024" width="41" height="12" rx="6" transform="translate(-505 641)" fill="#706d6f"/>
          <rect id="Rectangle_1025" data-name="Rectangle 1025" width="24" height="12" rx="6" transform="translate(-453 641)" fill="#6e8da3"/>
          <rect id="Rectangle_1026" data-name="Rectangle 1026" width="53" height="12" rx="6" transform="translate(-421 641)" fill="#af9045"/>
          <rect id="Rectangle_1027" data-name="Rectangle 1027" width="41" height="12" rx="6" transform="translate(-558 665)" fill="#75998e"/>
          <rect id="Rectangle_1028" data-name="Rectangle 1028" width="41" height="12" rx="6" transform="translate(-419 665)" fill="#706d6f"/>
          <rect id="Rectangle_1029" data-name="Rectangle 1029" width="17" height="12" rx="6" transform="translate(-508 665)" fill="#6e8da3"/>
          <rect id="Rectangle_1030" data-name="Rectangle 1030" width="53" height="12" rx="6" transform="translate(-483 665)" fill="#af9045"/>
          <rect id="Rectangle_1031" data-name="Rectangle 1031" width="41" height="12" rx="6" transform="translate(-558 689)" fill="#75998e"/>
          <rect id="Rectangle_1032" data-name="Rectangle 1032" width="49" height="12" rx="6" transform="translate(-505 689)" fill="#6e8da3"/>
          <rect id="Rectangle_1033" data-name="Rectangle 1033" width="74.128" height="12" rx="6" transform="translate(-444.128 689)" fill="#af9045"/>
        </g>
      </g>
      <g id="Group_1180" data-name="Group 1180" transform="translate(1437.108 762.191) rotate(30)" opacity="0.19">
        <g id="Group_1179" data-name="Group 1179" transform="translate(0 0)">
          <path id="Path_2701" data-name="Path 2701" d="M474.682,0H6.722A6.729,6.729,0,0,0,0,6.723v317.1a6.728,6.728,0,0,0,6.722,6.723H474.682a6.717,6.717,0,0,0,5.112-2.359,1.572,1.572,0,0,0,.146-.185,6.292,6.292,0,0,0,.964-1.627,6.56,6.56,0,0,0,.509-2.552V6.723A6.73,6.73,0,0,0,474.682,0Zm4.811,323.825a4.76,4.76,0,0,1-.794,2.637,4.971,4.971,0,0,1-1.819,1.634,4.768,4.768,0,0,1-2.2.532H6.722a4.809,4.809,0,0,1-4.8-4.8V6.723a4.809,4.809,0,0,1,4.8-4.8H474.682a4.81,4.81,0,0,1,4.811,4.8Z" transform="translate(0)" fill="#3f3d56"/>
          <rect id="Rectangle_1034" data-name="Rectangle 1034" width="479.49" height="1.922" transform="translate(0.957 26.944)" fill="#3f3d56"/>
          <ellipse id="Ellipse_151" data-name="Ellipse 151" cx="5.765" cy="5.765" rx="5.765" ry="5.765" transform="translate(11.526 8.648)" fill="#3f3d56"/>
          <ellipse id="Ellipse_152" data-name="Ellipse 152" cx="5.765" cy="5.765" rx="5.765" ry="5.765" transform="translate(28.103 8.648)" fill="#3f3d56"/>
          <ellipse id="Ellipse_153" data-name="Ellipse 153" cx="5.765" cy="5.765" rx="5.765" ry="5.765" transform="translate(44.678 8.648)" fill="#3f3d56"/>
          <path id="Path_2702" data-name="Path 2702" d="M387.011,105.619H13.106A13.121,13.121,0,0,1,0,92.513V13.106A13.121,13.121,0,0,1,13.106,0h373.9a13.121,13.121,0,0,1,13.106,13.106V92.513A13.121,13.121,0,0,1,387.011,105.619ZM13.106,1.542A11.577,11.577,0,0,0,1.542,13.106V92.513a11.577,11.577,0,0,0,11.564,11.564h373.9a11.577,11.577,0,0,0,11.564-11.564V13.106A11.577,11.577,0,0,0,387.011,1.542Z" transform="translate(36.576 60.651)" fill="#f2f2f2"/>
          <path id="Path_2703" data-name="Path 2703" d="M95.6,84.8H13.106A13.121,13.121,0,0,1,0,71.7V13.106A13.121,13.121,0,0,1,13.106,0H95.6A13.121,13.121,0,0,1,108.7,13.106V71.7A13.121,13.121,0,0,1,95.6,84.8ZM13.106,1.542A11.577,11.577,0,0,0,1.542,13.106V71.7A11.577,11.577,0,0,0,13.106,83.261H95.6A11.577,11.577,0,0,0,107.16,71.7V13.106A11.577,11.577,0,0,0,95.6,1.542Z" transform="translate(36.576 224.861)" fill="#f2f2f2"/>
          <path id="Path_2704" data-name="Path 2704" d="M95.6,84.8H13.106A13.121,13.121,0,0,1,0,71.7V13.106A13.121,13.121,0,0,1,13.106,0H95.6A13.121,13.121,0,0,1,108.7,13.106V71.7A13.121,13.121,0,0,1,95.6,84.8ZM13.106,1.542A11.577,11.577,0,0,0,1.542,13.106V71.7A11.577,11.577,0,0,0,13.106,83.261H95.6A11.577,11.577,0,0,0,107.16,71.7V13.106A11.577,11.577,0,0,0,95.6,1.542Z" transform="translate(327.991 224.861)" fill="#f2f2f2"/>
          <path id="Path_2705" data-name="Path 2705" d="M95.6,84.8H13.106A13.121,13.121,0,0,1,0,71.7V13.106A13.121,13.121,0,0,1,13.106,0H95.6A13.121,13.121,0,0,1,108.7,13.106V71.7A13.121,13.121,0,0,1,95.6,84.8ZM13.106,1.542A11.577,11.577,0,0,0,1.542,13.106V71.7A11.577,11.577,0,0,0,13.106,83.261H95.6A11.577,11.577,0,0,0,107.16,71.7V13.106A11.577,11.577,0,0,0,95.6,1.542Z" transform="translate(188.451 224.861)" fill="#f2f2f2"/>
          <rect id="Rectangle_1035" data-name="Rectangle 1035" width="1.542" height="406.59" transform="translate(40.8 65.764) rotate(-76.252)" fill="#f2f2f2"/>
          <rect id="Rectangle_1036" data-name="Rectangle 1036" width="403.125" height="1.542" transform="matrix(0.971, -0.24, 0.24, 0.971, 40.803, 161.181)" fill="#f2f2f2"/>
          <path id="Path_2706" data-name="Path 2706" d="M386.625,104.848H12.72A12.735,12.735,0,0,1,0,92.127V12.72A12.735,12.735,0,0,1,12.72,0h373.9a12.735,12.735,0,0,1,12.721,12.72V92.127A12.735,12.735,0,0,1,386.625,104.848Z" transform="translate(52.38 88.019)" fill="#fff"/>
          <rect id="Rectangle_1037" data-name="Rectangle 1037" width="1.542" height="125.314" transform="translate(192.673 229.558) rotate(-52.043)" fill="#f2f2f2"/>
          <rect id="Rectangle_1038" data-name="Rectangle 1038" width="124.887" height="1.542" transform="translate(194.463 306.373) rotate(-38.666)" fill="#f2f2f2"/>
          <rect id="Rectangle_1039" data-name="Rectangle 1039" width="1.542" height="125.314" transform="translate(40.798 229.558) rotate(-52.043)" fill="#f2f2f2"/>
          <rect id="Rectangle_1040" data-name="Rectangle 1040" width="124.887" height="1.542" transform="translate(42.588 306.372) rotate(-38.666)" fill="#f2f2f2"/>
          <rect id="Rectangle_1041" data-name="Rectangle 1041" width="1.542" height="125.314" transform="translate(332.213 229.557) rotate(-52.043)" fill="#f2f2f2"/>
          <rect id="Rectangle_1042" data-name="Rectangle 1042" width="124.887" height="1.542" transform="translate(334.003 306.374) rotate(-38.666)" fill="#f2f2f2"/>
          <path id="Path_2707" data-name="Path 2707" d="M95.211,84.032H12.72A12.735,12.735,0,0,1,0,71.312V12.72A12.735,12.735,0,0,1,12.72,0h82.49a12.735,12.735,0,0,1,12.721,12.72V71.312a12.735,12.735,0,0,1-12.72,12.72Z" transform="translate(50.068 236.811)" fill="#bf353e"/>
          <path id="Path_2708" data-name="Path 2708" d="M27.754,12.335H6.167A6.168,6.168,0,0,1,6.167,0H27.754a6.168,6.168,0,0,1,0,12.335Z" transform="translate(87.036 262.252)" fill="#fff"/>
          <path id="Path_2709" data-name="Path 2709" d="M53.195,12.335H6.167A6.168,6.168,0,0,1,6.167,0H53.195a6.168,6.168,0,1,1,0,12.335Z" transform="translate(74.352 283.067)" fill="#fff"/>
          <path id="Path_2710" data-name="Path 2710" d="M164.749,76.121V77.1H0v-1.02l.887-1.255L53.118,1.083a2.609,2.609,0,0,1,4.232,0L92.374,50.529,117.306,15.64a2.61,2.61,0,0,1,4.225,0l42.332,59.234Z" transform="translate(171.159 115.386)" fill="#bf353e"/>
          <ellipse id="Ellipse_154" data-name="Ellipse 154" cx="19.176" cy="19.176" rx="19.176" ry="19.176" transform="translate(151.642 104.094)" fill="#bf353e"/>
          <path id="Path_2711" data-name="Path 2711" d="M387.011,105.619H13.106A13.121,13.121,0,0,1,0,92.513V13.106A13.121,13.121,0,0,1,13.106,0h373.9a13.121,13.121,0,0,1,13.106,13.106V92.513A13.121,13.121,0,0,1,387.011,105.619ZM13.106,1.542A11.577,11.577,0,0,0,1.542,13.106V92.513a11.577,11.577,0,0,0,11.564,11.564h373.9a11.577,11.577,0,0,0,11.564-11.564V13.106A11.577,11.577,0,0,0,387.011,1.542Z" transform="translate(51.995 87.634)" fill="#3f3d56"/>
        </g>
      </g>
      <g id="Group_1181" data-name="Group 1181" transform="translate(1543.378 569.813) rotate(30)" opacity="0.19">
        <path id="Path_2712" data-name="Path 2712" d="M303.591,187.883V19.476A19.5,19.5,0,0,0,284.115,0H19.476A19.5,19.5,0,0,0,0,19.476V187.882a19.5,19.5,0,0,0,19.476,19.476h264.64a19.5,19.5,0,0,0,19.475-19.476ZM19.476,205.067A17.2,17.2,0,0,1,2.291,187.883V19.476A17.2,17.2,0,0,1,19.476,2.291h264.64A17.2,17.2,0,0,1,301.3,19.476V187.883a17.2,17.2,0,0,1-17.184,17.184Z" transform="translate(0 0)" fill="#3f3d56"/>
        <path id="Path_2713" data-name="Path 2713" d="M300.154,2.291H1.146A1.146,1.146,0,1,1,1.146,0H300.154a1.146,1.146,0,0,1,0,2.291Z" transform="translate(1.146 28.009)" fill="#3f3d56"/>
        <ellipse id="Ellipse_155" data-name="Ellipse 155" cx="5.728" cy="5.728" rx="5.728" ry="5.728" transform="translate(16.039 10.31)" fill="#bf353e"/>
        <ellipse id="Ellipse_156" data-name="Ellipse 156" cx="5.728" cy="5.728" rx="5.728" ry="5.728" transform="translate(35.514 10.31)" fill="#bf353e"/>
        <ellipse id="Ellipse_157" data-name="Ellipse 157" cx="5.728" cy="5.728" rx="5.728" ry="5.728" transform="translate(54.99 10.31)" fill="#bf353e"/>
        <path id="Path_2714" data-name="Path 2714" d="M10.264,19.291a.771.771,0,0,1-.771-.771C9.493,10.481,5.969,6,.284,1.369a.771.771,0,1,1,.973-1.2c6.037,4.915,9.777,9.7,9.778,18.347a.771.771,0,0,1-.771.771Z" transform="translate(93.263 134.304)"/>
        <path id="Path_2715" data-name="Path 2715" d="M.771,19.291A.771.771,0,0,1,0,18.52C0,9.872,3.741,5.088,9.777.173a.771.771,0,1,1,.973,1.2C5.066,6,1.542,10.482,1.542,18.52a.771.771,0,0,1-.771.771Z" transform="translate(36.716 134.304)"/>
        <path id="Path_2716" data-name="Path 2716" d="M.771,21.354a.771.771,0,0,1-.487-1.369C6.128,15.228,6.6,8.469,6.6.771a.771.771,0,1,1,1.542,0c0,8.1-.518,15.224-6.888,20.41a.766.766,0,0,1-.486.173Z" transform="translate(96.152 79.409)"/>
        <path id="Path_2717" data-name="Path 2717" d="M7.375,20.941a.766.766,0,0,1-.486-.173C.518,15.582,0,8.644,0,.771a.771.771,0,1,1,1.542,0c0,7.738.465,14.035,6.32,18.8a.771.771,0,0,1-.487,1.369Z" transform="translate(36.715 79.409)"/>
        <path id="Path_2718" data-name="Path 2718" d="M17.281,1.542H.771A.771.771,0,1,1,.771,0h16.51a.771.771,0,1,1,0,1.542Z" transform="translate(96.152 115.757)"/>
        <path id="Path_2719" data-name="Path 2719" d="M17.281,1.542H.771A.771.771,0,1,1,.771,0h16.51a.771.771,0,1,1,0,1.542Z" transform="translate(26.81 115.757)"/>
        <path id="Path_2720" data-name="Path 2720" d="M.771,54.374A.771.771,0,0,1,0,53.6V.771a.771.771,0,0,1,1.542,0V53.6a.771.771,0,0,1-.771.771Z" transform="translate(69.736 95.919)"/>
        <path id="Path_2721" data-name="Path 2721" d="M27.187,67.6A27.218,27.218,0,0,1,0,40.41V20.583C0,7.887,10.417,0,27.187,0,44.719,0,54.374,7.31,54.374,20.583V40.409A27.218,27.218,0,0,1,27.187,67.6Zm0-66.055c-12.4,0-25.645,5-25.645,19.041V40.41a25.645,25.645,0,1,0,51.29,0V20.583c0-16.567-16.068-19.041-25.645-19.041Z" transform="translate(43.32 82.696)"/>
        <path id="Path_2722" data-name="Path 2722" d="M1.478,21.256a.771.771,0,0,1-.716-.486A10.86,10.86,0,0,1,0,17.276,17.327,17.327,0,0,1,17.235,0h.088A17.32,17.32,0,0,1,34.561,17.236a9.427,9.427,0,0,1-.7,3.246.771.771,0,1,1-1.426-.586,7.859,7.859,0,0,0,.587-2.689,15.769,15.769,0,0,0-15.7-15.665h-.085a15.774,15.774,0,0,0-15.7,15.7A9.31,9.31,0,0,0,2.194,20.2a.772.772,0,0,1-.716,1.057Z" transform="translate(53.227 66.201)"/>
        <path id="Path_2723" data-name="Path 2723" d="M14.648,10.793H5.4A5.4,5.4,0,0,1,5.4,0h9.251a5.4,5.4,0,1,1,0,10.793Z" transform="translate(134.157 72.47)" fill="#ccc"/>
        <path id="Path_2724" data-name="Path 2724" d="M14.648,10.793H5.4A5.4,5.4,0,0,1,5.4,0h9.251a5.4,5.4,0,1,1,0,10.793Z" transform="translate(197.374 95.213)" fill="#ccc"/>
        <path id="Path_2725" data-name="Path 2725" d="M14.648,10.793H5.4A5.4,5.4,0,0,1,5.4,0h9.251a5.4,5.4,0,1,1,0,10.793Z" transform="translate(226.67 95.213)" fill="#ccc"/>
        <path id="Path_2726" data-name="Path 2726" d="M14.648,10.793H5.4A5.4,5.4,0,0,1,5.4,0h9.251a5.4,5.4,0,0,1,0,10.793Z" transform="translate(255.966 95.213)" fill="#ccc"/>
        <path id="Path_2727" data-name="Path 2727" d="M48.569,10.793H5.4A5.4,5.4,0,0,1,5.4,0H48.569a5.4,5.4,0,1,1,0,10.793Z" transform="translate(164.224 72.855)" fill="#ccc"/>
        <path id="Path_2728" data-name="Path 2728" d="M48.569,10.793H5.4A5.4,5.4,0,0,1,5.4,0H48.569a5.4,5.4,0,1,1,0,10.793Z" transform="translate(134.157 94.442)" fill="#ccc"/>
        <path id="Path_2729" data-name="Path 2729" d="M38.547,10.793H5.4A5.4,5.4,0,0,1,5.4,0h33.15a5.4,5.4,0,1,1,0,10.793Z" transform="translate(228.983 72.855)" fill="#ccc"/>
        <path id="Path_2730" data-name="Path 2730" d="M14.648,10.793H5.4A5.4,5.4,0,0,1,5.4,0h9.251a5.4,5.4,0,0,1,0,10.793Z" transform="translate(134.157 117.955)" fill="#ccc"/>
        <path id="Path_2731" data-name="Path 2731" d="M48.569,10.793H5.4A5.4,5.4,0,0,1,5.4,0H48.569a5.4,5.4,0,1,1,0,10.793Z" transform="translate(164.224 118.341)" fill="#ccc"/>
        <path id="Path_2732" data-name="Path 2732" d="M38.547,10.793H5.4A5.4,5.4,0,0,1,5.4,0h33.15a5.4,5.4,0,1,1,0,10.793Z" transform="translate(228.983 118.341)" fill="#ccc"/>
        <path id="Path_2733" data-name="Path 2733" d="M0,5.4A5.4,5.4,0,0,1,5.4,0h9.251a5.4,5.4,0,1,1,0,10.793H5.4A5.4,5.4,0,0,1,0,5.4Z" transform="translate(252.882 141.854)" fill="#ccc"/>
        <path id="Path_2734" data-name="Path 2734" d="M0,5.4A5.4,5.4,0,0,1,5.4,0H48.569a5.4,5.4,0,1,1,0,10.793H5.4A5.4,5.4,0,0,1,0,5.4Z" transform="translate(188.894 142.24)" fill="#ccc"/>
        <path id="Path_2735" data-name="Path 2735" d="M0,5.4A5.4,5.4,0,0,1,5.4,0h33.15a5.4,5.4,0,1,1,0,10.793H5.4A5.4,5.4,0,0,1,0,5.4Z" transform="translate(134.157 142.24)" fill="#ccc"/>
      </g>
      <g id="Group_1182" data-name="Group 1182" transform="translate(853.162 417.482) rotate(30)" opacity="0.19">
        <rect id="Rectangle_1043" data-name="Rectangle 1043" width="61.254" height="12.843" transform="translate(35.567 167.459)" fill="#bf353e"/>
        <rect id="Rectangle_1044" data-name="Rectangle 1044" width="89.904" height="11.856" transform="translate(20.253 104.23)" fill="#f0f0f0"/>
        <path id="Path_2736" data-name="Path 2736" d="M125.563,235.135H13.246A13.261,13.261,0,0,1,0,221.889V13.246A13.261,13.261,0,0,1,13.246,0H125.562a13.261,13.261,0,0,1,13.246,13.246V221.888a13.261,13.261,0,0,1-13.246,13.246ZM13.246.988A12.272,12.272,0,0,0,.988,13.246V221.888a12.272,12.272,0,0,0,12.258,12.258H125.562a12.272,12.272,0,0,0,12.258-12.258V13.246A12.272,12.272,0,0,0,125.563.988Z" fill="#3f3d56"/>
        <path id="Path_2737" data-name="Path 2737" d="M2.964,5.928A2.964,2.964,0,1,1,5.928,2.964,2.964,2.964,0,0,1,2.964,5.928Zm0-4.94A1.976,1.976,0,1,0,4.94,2.964,1.976,1.976,0,0,0,2.964.988Z" transform="translate(53.103 3.952)" fill="#3f3d56"/>
        <rect id="Rectangle_1045" data-name="Rectangle 1045" width="21.735" height="0.988" transform="translate(63.476 6.422)" fill="#3f3d56"/>
        <path id="Path_2738" data-name="Path 2738" d="M39.518,0V39.518A39.52,39.52,0,0,1,0,0Z" transform="translate(90.398 14.325)" fill="#bf353e"/>
        <path id="Path_2739" data-name="Path 2739" d="M122.013,207.966H0V0H122.013ZM.988,206.978H121.025V.988H.988Z" transform="translate(8.398 13.831)" fill="#3f3d56"/>
        <ellipse id="Ellipse_158" data-name="Ellipse 158" cx="13.337" cy="13.337" rx="13.337" ry="13.337" transform="translate(87.928 24.699)" opacity="0.1"/>
        <ellipse id="Ellipse_159" data-name="Ellipse 159" cx="13.337" cy="13.337" rx="13.337" ry="13.337" transform="translate(85.953 26.181)" fill="#bf353e"/>
        <rect id="Rectangle_1046" data-name="Rectangle 1046" width="18.771" height="6.916" transform="translate(13.831 22.229)" fill="#3f3d56"/>
        <rect id="Rectangle_1047" data-name="Rectangle 1047" width="18.771" height="6.916" transform="translate(24.205 87.928)" fill="#3f3d56"/>
        <path id="Path_2740" data-name="Path 2740" d="M90.892,12.844H0V0H90.892Zm-89.9-.988H89.9V.988H.988Z" transform="translate(24.205 100.772)" fill="#3f3d56"/>
        <rect id="Rectangle_1048" data-name="Rectangle 1048" width="89.904" height="11.856" transform="translate(20.253 141.772)" fill="#f0f0f0"/>
        <rect id="Rectangle_1049" data-name="Rectangle 1049" width="18.771" height="6.916" transform="translate(24.205 125.471)" fill="#3f3d56"/>
        <path id="Path_2741" data-name="Path 2741" d="M90.892,12.844H0V0H90.892Zm-89.9-.988H89.9V.988H.988Z" transform="translate(24.205 138.314)" fill="#3f3d56"/>
        <path id="Path_2742" data-name="Path 2742" d="M62.242,13.831H0V0H62.242ZM.988,12.843H61.254V.988H.988Z" transform="translate(38.53 163.507)" fill="#3f3d56"/>
        <path id="Path_2743" data-name="Path 2743" d="M9.882,4.94A4.94,4.94,0,0,1,1.133,8.087l0,0a4.939,4.939,0,1,1,8.61-4.312,0,0,0,0,0,0,0h0A5.052,5.052,0,0,1,9.882,4.94Z" transform="translate(102.746 103.736)" fill="#bf353e"/>
        <path id="Path_2744" data-name="Path 2744" d="M8.892,2.964A4.94,4.94,0,0,1,.143,6.111l0,0A5.049,5.049,0,0,1,0,4.94,4.94,4.94,0,0,1,8.748,1.793a0,0,0,0,0,0,0h0A5.051,5.051,0,0,1,8.892,2.964Z" transform="translate(103.736 105.711)" opacity="0.1"/>
        <ellipse id="Ellipse_160" data-name="Ellipse 160" cx="4.94" cy="4.94" rx="4.94" ry="4.94" transform="translate(104.724 106.7)" fill="#bf353e"/>
        <path id="Path_2745" data-name="Path 2745" d="M9.882,4.94A4.94,4.94,0,0,1,1.133,8.087l0,0a4.939,4.939,0,1,1,8.61-4.312,0,0,0,0,0,0,0h0A5.052,5.052,0,0,1,9.882,4.94Z" transform="translate(102.746 141.278)" fill="#bf353e"/>
        <path id="Path_2746" data-name="Path 2746" d="M8.892,2.964A4.94,4.94,0,0,1,.143,6.111l0,0A5.05,5.05,0,0,1,0,4.94,4.94,4.94,0,0,1,8.748,1.793a0,0,0,0,0,0,0h0a5.052,5.052,0,0,1,.138,1.166Z" transform="translate(103.736 143.254)" opacity="0.1"/>
        <ellipse id="Ellipse_161" data-name="Ellipse 161" cx="4.94" cy="4.94" rx="4.94" ry="4.94" transform="translate(104.724 144.242)" fill="#bf353e"/>
      </g>
      <g id="Group_1183" data-name="Group 1183" transform="translate(867.018 202.742)" opacity="0.23">
        <path id="Path_2747" data-name="Path 2747" d="M15.513,174.875V3.458L0,0V190.388l117.053-1.2-.395-15.349Z" transform="translate(108.27 26.03) rotate(30)" fill="#f2f2f2"/>
        <path id="Path_2748" data-name="Path 2748" d="M141.028,227.055H0V0H141.028ZM2.821,224.234H138.207V2.821H2.821Z" transform="translate(113.527 0) rotate(30)" fill="#3f3d56"/>
        <rect id="Rectangle_1050" data-name="Rectangle 1050" width="22.842" height="2.821" transform="translate(117.468 18.559) rotate(30)" fill="#3f3d56"/>
        <rect id="Rectangle_1051" data-name="Rectangle 1051" width="22.842" height="2.821" transform="translate(113.943 24.666) rotate(30)" fill="#3f3d56"/>
        <rect id="Rectangle_1052" data-name="Rectangle 1052" width="22.842" height="2.821" transform="translate(110.417 30.773) rotate(30)" fill="#3f3d56"/>
        <path id="Path_2749" data-name="Path 2749" d="M9.872,19.744a9.872,9.872,0,1,1,9.872-9.872A9.872,9.872,0,0,1,9.872,19.744Zm0-16.923a7.051,7.051,0,1,0,7.052,7.051A7.051,7.051,0,0,0,9.872,2.821Z" transform="translate(202.446 65.993) rotate(30)" fill="#3f3d56"/>
        <path id="Path_2750" data-name="Path 2750" d="M100.13,64.873H0V0H100.13ZM2.821,62.052H97.309V2.821H2.821Z" transform="translate(106.979 56.472) rotate(30)" fill="#3f3d56"/>
        <rect id="Rectangle_1053" data-name="Rectangle 1053" width="2.821" height="115.411" transform="translate(106.867 58.957) rotate(-27)" fill="#3f3d56"/>
        <rect id="Rectangle_1054" data-name="Rectangle 1054" width="115.41" height="2.821" transform="translate(76.216 111.071) rotate(-3)" fill="#3f3d56"/>
        <path id="Path_2751" data-name="Path 2751" d="M100.13,64.873H0V0H100.13ZM2.821,62.052H97.309V2.821H2.821Z" transform="translate(64.67 129.752) rotate(30)" fill="#3f3d56"/>
        <rect id="Rectangle_1055" data-name="Rectangle 1055" width="2.821" height="115.411" transform="translate(63.952 131.884) rotate(-27)" fill="#3f3d56"/>
        <rect id="Rectangle_1056" data-name="Rectangle 1056" width="115.41" height="2.821" transform="translate(34.526 184.704) rotate(-3)" fill="#3f3d56"/>
      </g>
    </g>
  </g>
</svg>
