<svg xmlns="http://www.w3.org/2000/svg" width="554.977" height="252.652" viewBox="0 0 554.977 252.652">
  <g id="testimonial" transform="translate(-5943 -3061.878)">
    <g id="Group_9" data-name="Group 9" transform="translate(5990.45 3137.625)">
      <path id="Path_141" data-name="Path 141" d="M735.632,355.774H537.346a3.677,3.677,0,0,1-3.672-3.672V182.541a3.677,3.677,0,0,1,3.672-3.672H735.632a3.677,3.677,0,0,1,3.672,3.672V352.1a3.676,3.676,0,0,1-3.672,3.672ZM537.346,180.335a2.206,2.206,0,0,0-2.2,2.2V352.1a2.206,2.206,0,0,0,2.2,2.2H735.632a2.205,2.205,0,0,0,2.2-2.2V182.541a2.206,2.206,0,0,0-2.2-2.2Z" transform="translate(-533.674 -178.869)" fill="#e6e6e6"/>
      <circle id="Ellipse_19" data-name="Ellipse 19" cx="14.957" cy="14.957" r="14.957" transform="translate(19.523 131.795)" fill="#e6e6e6"/>
      <path id="Path_142" data-name="Path 142" d="M632.893,377.72a2.493,2.493,0,1,0,0,4.986H750.417a2.493,2.493,0,1,0,0-4.986Z" transform="translate(-563.867 -240.939)" fill="#e6e6e6"/>
      <path id="Path_143" data-name="Path 143" d="M632.893,399.466a2.493,2.493,0,1,0,0,4.986h50.571a2.493,2.493,0,1,0,0-4.986Z" transform="translate(-563.867 -247.727)" fill="#e6e6e6"/>
      <path id="Path_154" data-name="Path 154" d="M804.12,307.253H605.834a3.676,3.676,0,0,1-3.672-3.672V216.563a3.676,3.676,0,0,1,3.672-3.672H804.12a3.676,3.676,0,0,1,3.672,3.672v87.018a3.676,3.676,0,0,1-3.672,3.672Z" transform="translate(-555.052 -189.489)" fill="#bf353e"/>
      <path id="Path_155" data-name="Path 155" d="M665.075,256.985a2.493,2.493,0,1,0,0,4.986H782.6a2.493,2.493,0,1,0,0-4.986Z" transform="translate(-573.912 -203.253)" fill="#fff"/>
      <path id="Path_156" data-name="Path 156" d="M665.075,277.985a2.493,2.493,0,1,0,0,4.986H782.6a2.493,2.493,0,0,0,0-4.986Z" transform="translate(-573.912 -209.808)" fill="#fff"/>
      <path id="Path_157" data-name="Path 157" d="M665.075,298.731a2.493,2.493,0,0,0,0,4.986h50.571a2.493,2.493,0,1,0,0-4.986Z" transform="translate(-573.912 -216.283)" fill="#fff"/>
    </g>
    <rect id="Rectangle_1" data-name="Rectangle 1" width="554.977" height="1.376" transform="translate(5943 3312.863)" fill="#3f3d56"/>
    <g id="Group_10" data-name="Group 10" transform="translate(6217.043 3256.333)">
      <path id="Path_138" data-name="Path 138" d="M791.632,589.4H593.346a3.677,3.677,0,0,1-3.672-3.672V536.541a3.677,3.677,0,0,1,3.672-3.672H791.632a3.677,3.677,0,0,1,3.672,3.672v49.186a3.677,3.677,0,0,1-3.672,3.672ZM593.346,534.335a2.206,2.206,0,0,0-2.2,2.2v49.187a2.206,2.206,0,0,0,2.2,2.2H791.632a2.205,2.205,0,0,0,2.2-2.2V536.541a2.205,2.205,0,0,0-2.2-2.2Z" transform="translate(-589.674 -532.869)" fill="#e6e6e6"/>
      <circle id="Ellipse_18" data-name="Ellipse 18" cx="14.957" cy="14.957" r="14.957" transform="translate(19.524 11.42)" fill="#e6e6e6"/>
      <path id="Path_139" data-name="Path 139" d="M688.893,556.72a2.493,2.493,0,0,0,0,4.986H806.417a2.493,2.493,0,1,0,0-4.986Z" transform="translate(-619.867 -540.314)" fill="#e6e6e6"/>
      <path id="Path_140" data-name="Path 140" d="M688.893,578.466a2.493,2.493,0,0,0,0,4.986h50.571a2.493,2.493,0,0,0,0-4.986Z" transform="translate(-619.867 -547.102)" fill="#e6e6e6"/>
    </g>
    <g id="Group_11" data-name="Group 11" transform="matrix(0.914, 0.407, -0.407, 0.914, 6222.563, 3121.311)">
      <path id="Path_135" data-name="Path 135" d="M201.958,56.531H3.672A3.677,3.677,0,0,1,0,52.859V3.672A3.676,3.676,0,0,1,3.672,0H201.958a3.677,3.677,0,0,1,3.672,3.672V52.858a3.677,3.677,0,0,1-3.672,3.672ZM3.672,1.466a2.206,2.206,0,0,0-2.2,2.2V52.853a2.206,2.206,0,0,0,2.2,2.2H201.958a2.205,2.205,0,0,0,2.2-2.2V3.672a2.206,2.206,0,0,0-2.2-2.2Z" transform="translate(0 0)" fill="#e6e6e6"/>
      <circle id="Ellipse_17" data-name="Ellipse 17" cx="14.957" cy="14.957" r="14.957" transform="translate(19.524 11.42)" fill="#e6e6e6"/>
      <path id="Path_136" data-name="Path 136" d="M2.493,0a2.493,2.493,0,0,0,0,4.986H120.017a2.493,2.493,0,1,0,0-4.986Z" transform="translate(66.533 16.406)" fill="#e6e6e6"/>
      <path id="Path_137" data-name="Path 137" d="M2.493,0a2.493,2.493,0,1,0,0,4.986H53.064a2.493,2.493,0,0,0,0-4.986Z" transform="translate(66.533 31.364)" fill="#e6e6e6"/>
    </g>
    <g id="Group_12" data-name="Group 12" transform="translate(6058.254 3079.767) rotate(-4.992)">
      <path id="Path_138-2" data-name="Path 138" d="M201.958,56.531H3.672A3.677,3.677,0,0,1,0,52.859V3.672A3.677,3.677,0,0,1,3.672,0H201.958a3.677,3.677,0,0,1,3.672,3.672V52.858a3.677,3.677,0,0,1-3.672,3.672ZM3.672,1.466a2.206,2.206,0,0,0-2.2,2.2V52.853a2.206,2.206,0,0,0,2.2,2.2H201.958a2.205,2.205,0,0,0,2.2-2.2V3.672a2.205,2.205,0,0,0-2.2-2.2Z" fill="#e6e6e6"/>
      <circle id="Ellipse_18-2" data-name="Ellipse 18" cx="14.957" cy="14.957" r="14.957" transform="translate(19.524 11.42)" fill="#e6e6e6"/>
      <path id="Path_139-2" data-name="Path 139" d="M2.493,0a2.493,2.493,0,1,0,0,4.986H120.017a2.493,2.493,0,1,0,0-4.986Z" transform="translate(66.533 16.406)" fill="#e6e6e6"/>
      <path id="Path_140-2" data-name="Path 140" d="M2.493,0a2.493,2.493,0,1,0,0,4.986H53.064a2.493,2.493,0,0,0,0-4.986Z" transform="translate(66.533 31.364)" fill="#e6e6e6"/>
    </g>
  </g>
</svg>
