<svg id="UI_UX_development" data-name="UI/UX development" xmlns="http://www.w3.org/2000/svg" width="187.453" height="172.273" viewBox="0 0 187.453 172.273">
  <path id="Path_90" data-name="Path 90" d="M453.931,439.973V588.258a9.247,9.247,0,0,0,9.248,9.247h82.5a9.247,9.247,0,0,0,9.248-9.247V439.973a9.247,9.247,0,0,0-9.248-9.248h-82.5a9.247,9.247,0,0,0-9.248,9.248Zm0,0" transform="translate(-404.795 -427.981)" fill="#fff"/>
  <path id="Path_91" data-name="Path 91" d="M453.931,635.7v16.237a9.247,9.247,0,0,0,9.248,9.247h82.5a9.247,9.247,0,0,0,9.248-9.247V635.7Zm0,0" transform="translate(-404.795 -491.661)" fill="#f4efef"/>
  <path id="Path_92" data-name="Path 92" d="M529.925,651.941a4.984,4.984,0,1,1-4.984-4.985,4.984,4.984,0,0,1,4.984,4.985Zm0,0" transform="translate(-425.307 -495.158)" fill="#f6fdff"/>
  <path id="Path_93" data-name="Path 93" d="M531.767,487.712a17.957,17.957,0,1,1-25.4,0,17.956,17.956,0,0,1,25.4,0Zm0,0" transform="translate(-419.452 -444.051)" fill="#f4efef"/>
  <path id="Path_94" data-name="Path 94" d="M528.673,497.385a5.9,5.9,0,1,1-8.337,0,5.892,5.892,0,0,1,8.337,0Zm0,0" transform="translate(-424.888 -448.154)" fill="#f6fdff"/>
  <path id="Path_95" data-name="Path 95" d="M522.766,530.739a17.872,17.872,0,0,0,9.808-2.918,11.452,11.452,0,0,0-19.617,0,17.876,17.876,0,0,0,9.809,2.918Zm0,0" transform="translate(-423.133 -456.424)" fill="#f6fdff"/>
  <path id="Path_96" data-name="Path 96" d="M534.35,566.069H505.59a1.635,1.635,0,0,1-1.634-1.635v-8.771a1.635,1.635,0,0,1,1.634-1.634H534.35a1.635,1.635,0,0,1,1.634,1.634v8.771a1.635,1.635,0,0,1-1.634,1.635Zm0,0" transform="translate(-420.336 -466.288)" fill="#f4efef"/>
  <path id="Path_97" data-name="Path 97" d="M394.21,455.248a13.082,13.082,0,0,0-4.788,17.871l2.746,4.758L414.827,464.8l-2.746-4.76a13.084,13.084,0,0,0-17.871-4.788Zm0,0" transform="translate(-384.208 -435.055)" fill="#f4efef"/>
  <path id="Path_98" data-name="Path 98" d="M423.047,480.614l30.044,52.039,1.892,23.445a3.318,3.318,0,0,1-5.191,3l-19.358-13.361L400.39,493.7Zm0,0" transform="translate(-388.161 -443.48)" fill="#ffcebf"/>
  <path id="Path_99" data-name="Path 99" d="M453.094,532.653q-10.361-4.86-11.331,6.54-10.357-4.857-11.329,6.541L400.39,493.7l22.659-13.081Zm0,0" transform="translate(-388.161 -443.48)" fill="#f4efef"/>
  <path id="Path_100" data-name="Path 100" d="M473.554,578.277l.658,8.162a3.318,3.318,0,0,1-5.191,3l-6.739-4.651Zm0,0" transform="translate(-407.389 -473.821)" fill="#596c76"/>
  <path id="Path_101" data-name="Path 101" d="M428.153,480.614,458.2,532.653q-10.358-4.86-11.328,6.54l-30.045-52.038Zm0,0" transform="translate(-393.266 -443.48)" fill="#f4efef"/>
  <path id="Path_102" data-name="Path 102" d="M389.764,477.615l22.842-13.186a6.26,6.26,0,1,1,6.261,10.842l-22.842,13.187a6.261,6.261,0,1,1-6.26-10.844Zm0,0" transform="translate(-383.887 -438.191)" fill="#f4efef"/>
  <path id="Path_103" data-name="Path 103" d="M531.431,650.711a7.731,7.731,0,1,0-7.731,7.73,7.738,7.738,0,0,0,7.731-7.73Zm-7.731,2.238a2.238,2.238,0,1,1,2.239-2.238,2.241,2.241,0,0,1-2.239,2.238Zm0,0" transform="translate(-424.068 -493.923)" fill="#023e57"/>
  <path id="Path_104" data-name="Path 104" d="M517.853,478.465a20.7,20.7,0,0,0-11.431,37.958c.04.028.078.061.12.087a20.708,20.708,0,0,0,11.311,3.366,21.249,21.249,0,0,0,11.434-3.453,20.7,20.7,0,0,0-11.434-37.958Zm5.338,34.951a15.193,15.193,0,0,1-10.675,0c-.05-.018-.1-.04-.15-.059a8.736,8.736,0,0,1,10.978,0c-.052.019-.1.04-.152.059Zm4.965-3.063a14.2,14.2,0,0,0-20.605,0,15.216,15.216,0,1,1,20.605,0Zm0,0" transform="translate(-418.221 -442.812)" fill="#023e57"/>
  <path id="Path_105" data-name="Path 105" d="M523.289,491.671a8.643,8.643,0,1,0,8.644,8.644,8.652,8.652,0,0,0-8.644-8.644Zm0,11.795a3.151,3.151,0,1,1,3.152-3.15,3.153,3.153,0,0,1-3.152,3.15Zm0,0" transform="translate(-423.658 -446.915)" fill="#023e57"/>
  <path id="Path_106" data-name="Path 106" d="M519.465,449.78H528.4a2.746,2.746,0,0,0,0-5.492h-8.936a2.746,2.746,0,1,0,0,5.492Zm0,0" transform="translate(-424.301 -432.194)" fill="#023e57"/>
  <path id="Path_107" data-name="Path 107" d="M533.11,550.051H504.353a4.385,4.385,0,0,0-4.38,4.38V563.2a4.384,4.384,0,0,0,4.38,4.38H533.11a4.384,4.384,0,0,0,4.38-4.38v-8.771a4.385,4.385,0,0,0-4.38-4.38ZM532,562.091H505.464v-6.549H532Zm0,0" transform="translate(-419.099 -465.052)" fill="#023e57"/>
  <g id="Group_43" data-name="Group 43">
    <path id="Path_108" data-name="Path 108" d="M524.873,586.994H496.115a4.384,4.384,0,0,0-4.38,4.38,2.746,2.746,0,0,0,5.257,1.112h26.768v6.545H476.2a2.746,2.746,0,0,0,0,5.492h48.669a4.384,4.384,0,0,0,4.38-4.38v-8.769a4.383,4.383,0,0,0-4.38-4.38Zm0,0" transform="translate(-410.861 -476.53)" fill="#023e57"/>
    <path id="Path_109" data-name="Path 109" d="M567.356,483.294H535.525V438.738a12.007,12.007,0,0,0-11.994-11.994h-82.5a12.008,12.008,0,0,0-12,11.994v39.576l-7.949-13.768a9.007,9.007,0,0,0-8.634-14.91,15.827,15.827,0,0,0-27.375,15.8,9.016,9.016,0,0,0,6.59,15.164,8.86,8.86,0,0,0,2-.233l28.849,49.967,0,0,.02.035c.009.019.023.034.033.051.417.687.234.446,6.462,4.754v51.843a12.008,12.008,0,0,0,12,11.994h35.759a2.746,2.746,0,1,0,0-5.492H441.032a6.51,6.51,0,0,1-6.5-6.5V573.534h95.5v13.489a6.51,6.51,0,0,1-6.5,6.5H487.775a2.746,2.746,0,0,0,0,5.492H523.53a12.007,12.007,0,0,0,11.994-11.994V570.811c0-.008,0-.015,0-.023s0-.013,0-.021V548.387h31.831a2.746,2.746,0,1,0,0-5.492H535.525V488.786h31.831a2.746,2.746,0,1,0,0-5.492Zm-178.15-27.7a10.334,10.334,0,0,1,18.251-3.524l-17.77,10.259a10.258,10.258,0,0,1-.48-6.735Zm4.3,18.99-.091.052a3.514,3.514,0,0,1-3.514-6.087l22.745-13.131.006,0,.008,0,.084-.049a3.514,3.514,0,1,1,3.514,6.087l-11.419,6.594h0l0,0Zm30.588,47.486-25.464-44.1,6.573-3.8,4.83,8.366a2.746,2.746,0,0,0,4.756-2.746l-4.828-8.366,6.573-3.794,12.839,22.238a.083.083,0,0,0,.008.012l12.615,21.854a7.538,7.538,0,0,0-6.568,3.8L420.388,489.5a2.746,2.746,0,0,0-4.756,2.746l15.029,26.028a7.587,7.587,0,0,0-6.571,3.8Zm9.235,9.394-.01-.006-5.461-3.77c.33-1.9.938-3.171,1.758-3.644,1.024-.593,2.969-.273,5.471.9.023.01.045.017.068.026a2.743,2.743,0,0,0,3.827-2.231c0-.017.005-.032.008-.049.235-2.756.929-4.6,1.955-5.191.82-.474,2.228-.363,4.037.3l.96,11.891-8.265,4.773Zm13.1,4.288.308,3.833a.571.571,0,0,1-.894.517l-3.166-2.184Zm83.608-52.459h-19.8a2.746,2.746,0,0,0,0,5.492h19.8v54.109h-19.8a2.746,2.746,0,0,0,0,5.492h19.8v19.656h-95.5V538.97l8.191,5.652a6.063,6.063,0,0,0,9.488-5.478c-1.976-24.432-1.849-23.743-2.131-24.361-.023-.053-.114-.228-.118-.236l-15.429-26.721V438.738a6.51,6.51,0,0,1,6.5-6.5h82.5a6.508,6.508,0,0,1,6.5,6.5Zm0,0" transform="translate(-382.649 -426.744)" fill="#023e57"/>
  </g>
</svg>
