<svg id="we-known-img-7" xmlns="http://www.w3.org/2000/svg" xmlns:xlink="http://www.w3.org/1999/xlink" width="638.98" height="506.452" viewBox="0 0 638.98 506.452">
  <defs>
    <linearGradient id="linear-gradient" x1="0.5" y1="1" x2="0.5" gradientUnits="objectBoundingBox">
      <stop offset="0" stop-color="gray" stop-opacity="0.251"/>
      <stop offset="0.54" stop-color="gray" stop-opacity="0.122"/>
      <stop offset="1" stop-color="gray" stop-opacity="0.102"/>
    </linearGradient>
    <linearGradient id="linear-gradient-2" x1="0.499" y1="1.015" x2="0.499" y2="0.014" xlink:href="#linear-gradient"/>
    <linearGradient id="linear-gradient-5" y1="1" y2="0" xlink:href="#linear-gradient"/>
    <linearGradient id="linear-gradient-6" x1="0.499" y1="0.997" x2="0.499" y2="0.013" gradientUnits="objectBoundingBox">
      <stop offset="0" stop-opacity="0.09"/>
      <stop offset="0.55" stop-opacity="0.071"/>
      <stop offset="1" stop-opacity="0.02"/>
    </linearGradient>
  </defs>
  <rect id="Rectangle_1206" data-name="Rectangle 1206" width="96.255" height="176.474" rx="10" transform="translate(58.933 136.82)" fill="#fff" stroke="#023e57" stroke-width="1"/>
  <rect id="Rectangle_1207" data-name="Rectangle 1207" width="74.522" height="143.612" transform="translate(70.073 149.069) rotate(-0.08)" fill="#e6e6e6"/>
  <ellipse id="Ellipse_347" data-name="Ellipse 347" cx="5.94" cy="6.089" rx="5.94" ry="6.089" transform="translate(101.594 296.894) rotate(-0.08)" fill="#dbdbdb"/>
  <ellipse id="Ellipse_348" data-name="Ellipse 348" cx="1.189" cy="1.216" rx="1.189" ry="1.216" transform="translate(94.848 141.115) rotate(-0.08)" fill="#dbdbdb"/>
  <rect id="Rectangle_1208" data-name="Rectangle 1208" width="18.421" height="1.825" rx="0.912" transform="translate(101.383 141.41) rotate(-0.08)" fill="#dbdbdb"/>
  <rect id="Rectangle_1209" data-name="Rectangle 1209" width="42.194" height="44.303" transform="translate(86.335 232.298)" fill="url(#linear-gradient)"/>
  <rect id="Rectangle_1210" data-name="Rectangle 1210" width="38.525" height="40.451" transform="translate(88.173 234.224)" fill="#bf353e"/>
  <rect id="Rectangle_1213" data-name="Rectangle 1213" width="65.035" height="2.825" transform="translate(74.914 158.303)" fill="#fff"/>
  <rect id="Rectangle_1214" data-name="Rectangle 1214" width="65.035" height="2.825" transform="translate(74.914 163.952)" fill="#fff"/>
  <rect id="Rectangle_1215" data-name="Rectangle 1215" width="36.761" height="2.825" transform="translate(74.914 169.608)" fill="#fff"/>
  <rect id="Rectangle_1216" data-name="Rectangle 1216" width="53.723" height="2.825" transform="translate(74.914 175.264)" fill="#fff"/>
  <rect id="Rectangle_1217" data-name="Rectangle 1217" width="45.242" height="2.825" transform="translate(74.914 180.92)" fill="#fff"/>
  <rect id="Rectangle_1218" data-name="Rectangle 1218" width="65.035" height="2.825" transform="translate(74.914 186.576)" fill="#fff"/>
  <rect id="Rectangle_1219" data-name="Rectangle 1219" width="56.554" height="22.618" transform="translate(77.746 195.057)" fill="#fff"/>
  <path id="Path_3736" data-name="Path 3736" d="M770.576,526.13s9.461,65,65,86.591l-112.378.155-112.378.155c55.452-21.746,64.771-86.774,64.771-86.774Z" transform="translate(-293.85 -217.222)" fill="#e0e0e0"/>
  <rect id="Rectangle_1220" data-name="Rectangle 1220" width="226.878" height="13.731" transform="translate(315.853 395.802) rotate(-0.08)" fill="url(#linear-gradient-2)"/>
  <rect id="Rectangle_1221" data-name="Rectangle 1221" width="224.756" height="10.596" transform="translate(316.988 395.8) rotate(-0.08)" fill="#f5f5f5"/>
  <path id="Path_3738" data-name="Path 3738" d="M509.511,189.5H865.966a7.264,7.264,0,0,1,7.264,7.264V399.707H502.24V196.764A7.264,7.264,0,0,1,509.511,189.5Z" transform="translate(-258.968 -107.348)" fill="#fff" stroke="#023e57" stroke-width="1"/>
  <path id="Path_3739" data-name="Path 3739" d="M847.569,534.9l-319.2.439a25.9,25.9,0,0,1-25.929-25.861v-8.785l370.99-.514v8.785A25.9,25.9,0,0,1,847.569,534.9Z" transform="translate(-258.708 -208.808)" fill="#f5f5f5" stroke="#023e57" stroke-width="1"/>
  <rect id="Rectangle_1222" data-name="Rectangle 1222" width="335.722" height="169.696" transform="translate(261.599 99.181)" fill="#e6e6e6"/>
  <rect id="Rectangle_1223" data-name="Rectangle 1223" width="59.426" height="62.399" transform="translate(508.993 110.371)" fill="url(#linear-gradient)"/>
  <rect id="Rectangle_1224" data-name="Rectangle 1224" width="54.263" height="56.973" transform="translate(511.574 113.088)" fill="#bf353e"/>
  <rect id="Rectangle_1226" data-name="Rectangle 1226" width="59.426" height="62.399" transform="translate(509.337 185.225)" fill="url(#linear-gradient)"/>
  <rect id="Rectangle_1227" data-name="Rectangle 1227" width="54.263" height="56.973" transform="translate(511.919 187.934)" fill="#bf353e"/>
  <rect id="Rectangle_1229" data-name="Rectangle 1229" width="149.329" height="6.494" transform="translate(288.555 120.474)" fill="#fff"/>
  <rect id="Rectangle_1230" data-name="Rectangle 1230" width="149.329" height="6.494" transform="translate(288.555 133.455)" fill="#fff"/>
  <rect id="Rectangle_1231" data-name="Rectangle 1231" width="84.402" height="6.494" transform="translate(288.555 146.443)" fill="#fff"/>
  <rect id="Rectangle_1232" data-name="Rectangle 1232" width="123.359" height="6.494" transform="translate(288.555 159.424)" fill="#fff"/>
  <rect id="Rectangle_1233" data-name="Rectangle 1233" width="103.877" height="6.494" transform="translate(288.555 172.412)" fill="#fff"/>
  <rect id="Rectangle_1234" data-name="Rectangle 1234" width="149.329" height="6.494" transform="translate(288.555 185.394)" fill="#fff"/>
  <rect id="Rectangle_1235" data-name="Rectangle 1235" width="129.846" height="51.939" transform="translate(295.048 204.876)" fill="#fff"/>
  <path id="Path_3759" data-name="Path 3759" d="M104.511,423.713H33.09V34.16H455.106V66.623" transform="translate(-10.729 -11.076)" fill="none" stroke="#023e57" stroke-miterlimit="10" stroke-width="6" stroke-dasharray="12"/>
  <g id="Group_1229" data-name="Group 1229" transform="translate(0 0)" opacity="0.5">
    <circle id="Ellipse_362" data-name="Ellipse 362" cx="24.53" cy="24.53" r="24.53" fill="url(#linear-gradient-5)"/>
  </g>
  <circle id="Ellipse_363" data-name="Ellipse 363" cx="23.084" cy="23.084" r="23.084" transform="translate(1.446 1.446)" fill="#bf353e"/>
  <path id="Path_3760" data-name="Path 3760" d="M21.759,29.313l8.656,7.933L42.673,19.21,47,22.819,30.415,44.463,18.15,30.759Z" transform="translate(-5.885 -6.229)" fill="#fff"/>
  <rect id="Rectangle_1237" data-name="Rectangle 1237" width="161.742" height="243.509" transform="translate(124.169 246.775) rotate(-0.08)" fill="url(#linear-gradient-6)"/>
  <rect id="Rectangle_1238" data-name="Rectangle 1238" width="175.899" height="276.959" rx="12.68" transform="translate(116.731 228.993) rotate(-0.08)" fill="#fff" stroke="#023e57" stroke-width="1"/>
  <rect id="Rectangle_1239" data-name="Rectangle 1239" width="151.903" height="232.298" transform="translate(129.072 250.14) rotate(-0.08)" fill="#e6e6e6"/>
  <ellipse id="Ellipse_364" data-name="Ellipse 364" cx="6.257" cy="6.413" rx="6.257" ry="6.413" transform="translate(198.76 487.875)" fill="#dbdbdb"/>
  <ellipse id="Ellipse_365" data-name="Ellipse 365" cx="2.088" cy="2.135" rx="2.088" ry="2.135" transform="translate(176.635 237.89) rotate(-0.08)" fill="#dbdbdb"/>
  <rect id="Rectangle_1240" data-name="Rectangle 1240" width="27.125" height="2.135" rx="0.76" transform="translate(189.158 238.724) rotate(-0.08)" fill="#dbdbdb"/>
  <rect id="Rectangle_1241" data-name="Rectangle 1241" width="59.426" height="62.399" transform="translate(204.267 393.155)" fill="url(#linear-gradient)"/>
  <rect id="Rectangle_1242" data-name="Rectangle 1242" width="54.263" height="56.973" transform="translate(206.849 395.871)" fill="#bf353e"/>
  <rect id="Rectangle_1244" data-name="Rectangle 1244" width="59.426" height="62.399" transform="translate(143.449 392.479)" fill="url(#linear-gradient)"/>
  <rect id="Rectangle_1245" data-name="Rectangle 1245" width="54.263" height="56.973" transform="translate(146.031 395.196)" fill="#bf353e"/>
  <rect id="Rectangle_1247" data-name="Rectangle 1247" width="110.371" height="4.798" transform="translate(145.72 279.648)" fill="#fff"/>
  <rect id="Rectangle_1248" data-name="Rectangle 1248" width="110.371" height="4.798" transform="translate(145.72 289.244)" fill="#fff"/>
  <rect id="Rectangle_1249" data-name="Rectangle 1249" width="62.386" height="4.798" transform="translate(145.72 298.84)" fill="#fff"/>
  <rect id="Rectangle_1250" data-name="Rectangle 1250" width="91.18" height="4.798" transform="translate(145.72 308.442)" fill="#fff"/>
  <rect id="Rectangle_1251" data-name="Rectangle 1251" width="76.779" height="4.798" transform="translate(145.72 318.038)" fill="#fff"/>
  <rect id="Rectangle_1252" data-name="Rectangle 1252" width="110.371" height="4.798" transform="translate(145.72 327.633)" fill="#fff"/>
  <rect id="Rectangle_1253" data-name="Rectangle 1253" width="95.978" height="38.39" transform="translate(150.518 342.034)" fill="#fff"/>
  <g id="Group_1278" data-name="Group 1278" transform="translate(-263.656 -3882.779)">
    <ellipse id="Ellipse_578" data-name="Ellipse 578" cx="8.869" cy="28.251" rx="8.869" ry="28.251" transform="translate(735.441 4248.004) rotate(-64)" fill="#bf353e"/>
    <ellipse id="Ellipse_579" data-name="Ellipse 579" cx="56.501" cy="56.501" rx="56.501" ry="56.501" transform="translate(759.865 4251.434) rotate(-9.217)" fill="#bf353e"/>
    <rect id="Rectangle_1417" data-name="Rectangle 1417" width="17.165" height="30.754" transform="translate(833.268 4342.49)" fill="#bf353e"/>
    <rect id="Rectangle_1418" data-name="Rectangle 1418" width="17.165" height="30.754" transform="translate(798.939 4342.49)" fill="#bf353e"/>
    <ellipse id="Ellipse_580" data-name="Ellipse 580" cx="14.304" cy="5.364" rx="14.304" ry="5.364" transform="translate(821.825 4368.236)" fill="#bf353e"/>
    <ellipse id="Ellipse_581" data-name="Ellipse 581" cx="14.304" cy="5.364" rx="14.304" ry="5.364" transform="translate(787.496 4367.521)" fill="#bf353e"/>
    <path id="Path_4115" data-name="Path 4115" d="M828.165,607.432c-17.813-14.719-27.713-28.215-14.378-44.354s38.585-17.289,56.4-2.569,21.443,39.734,8.107,55.872S845.976,622.152,828.165,607.432Z" transform="translate(16.305 3660.572)" fill="#023e57"/>
    <ellipse id="Ellipse_582" data-name="Ellipse 582" cx="19.31" cy="19.311" rx="19.31" ry="19.311" transform="matrix(1, -0.029, 0.029, 1, 781.932, 4257.746)" fill="#fff"/>
    <ellipse id="Ellipse_583" data-name="Ellipse 583" cx="6.437" cy="6.437" rx="6.437" ry="6.437" transform="translate(787.496 4270.045)" fill="#3f3d56"/>
    <path id="Path_4116" data-name="Path 4116" d="M772.077,606.861c-3.91,3.91-6.675,16.588-1.175,22.089s21.666-.351,25.576-4.261-5.915-4.4-11.416-9.9S775.987,602.95,772.077,606.861Z" transform="translate(-147.296 3975.041) rotate(-19)" fill="#fff"/>
    <ellipse id="Ellipse_584" data-name="Ellipse 584" cx="8.869" cy="28.251" rx="8.869" ry="28.251" transform="matrix(0.934, -0.357, 0.357, 0.934, 849.859, 4324.088)" fill="#bf353e"/>
    <g id="Group_1280" data-name="Group 1280">
      <path id="Path_4106" data-name="Path 4106" d="M476.81,372.172l-16.933,16.712-38.268,37.761-.775.764-4.315,4.257-9.046-8.937-.8-.785-16.539-16.336h0l-5.3-5.238-3.131-3.095-9.325-9.209-1.259-1.245-14.863-14.682a42.589,42.589,0,0,1-7.428-10c-.181-.329-.351-.662-.518-1a42.534,42.534,0,0,1,45.142-61h0c.138.022.271.043.409.072a41.117,41.117,0,0,1,4.311,1,42.382,42.382,0,0,1,10.541,4.68q.516.32,1.021.652a42.778,42.778,0,0,1,6.686,5.462l.127-.127.127.127a42.905,42.905,0,0,1,3.92-3.468c.3-.235.6-.467.908-.691a42.514,42.514,0,0,1,32.762-7.623,40.506,40.506,0,0,1,4.315,1.006q.711.2,1.412.434c.376.123.753.25,1.126.387a42.147,42.147,0,0,1,8.829,4.38q.907.592,1.788,1.238a42.549,42.549,0,0,1,5.071,64.5Z" transform="translate(259.201 3942.287)" fill="#bf353e"/>
      <path id="Path_4108" data-name="Path 4108" d="M505.282,313.717a42.77,42.77,0,0,0-19.014-11.058c-.478-.134-.952-.253-1.433-.366a42.3,42.3,0,0,0-6.295-1.01c-.369-.036-.738-.062-1.111-.08a41.687,41.687,0,0,0-5.585.022,42.857,42.857,0,0,0-27.09,12.108l-.13-.13-.13.13a42.935,42.935,0,0,0-16.9-10.164c-.358-.116-.72-.228-1.082-.333a43.319,43.319,0,0,0-15.065-1.611c-.141.007-.282.018-.42.033A42.824,42.824,0,0,0,385.9,311.9c-.659.579-1.307,1.187-1.937,1.817a43.126,43.126,0,0,0-9.643,46.169c.127.34.264.677.409,1.014a42.768,42.768,0,0,0,9.234,13.737l14.088,13.907,1.108,1.1,30.485,30.091.785.778,8.007,7.905,6.186,6.106,60.66-59.888A43.121,43.121,0,0,0,505.282,313.717Zm-.764,60.145-59.9,59.132-5.411-5.343-7.837-7.735-.785-.775L400.7,389.63l-1.09-1.075L384.73,373.866a41.7,41.7,0,0,1-8.962-13.292c-.145-.337-.282-.673-.409-1.01a42.037,42.037,0,0,1,9.371-45.08q1.01-1.01,2.067-1.933h0a41.765,41.765,0,0,1,24.064-10.193q1.775-.152,3.554-.152c.445,0,.887.007,1.332.022a42.026,42.026,0,0,1,10.732,1.737c.358.1.717.217,1.071.337a41.32,41.32,0,0,1,10.617,5.245,41.846,41.846,0,0,1,5.94,4.937l.384.384.127-.127.127.127.384-.384a41.871,41.871,0,0,1,31.025-12.256c.46.014.919.036,1.379.069.369.022.738.047,1.1.083a41.673,41.673,0,0,1,6.91,1.213c.485.123.966.257,1.444.405a41.974,41.974,0,0,1,17.523,69.864Z" transform="translate(241.617 3941.279)" fill="#3f3d56"/>
      <path id="Path_4109" data-name="Path 4109" d="M406.41,302.852c-2.324,1.835-4.818,3.529-6.327,6.038a17.405,17.405,0,0,0-1.951,6.135c-.695,4.141-.992,8.383-2.353,12.354s-4.007,7.764-7.934,9.245a18.347,18.347,0,0,1-7.717.688c-6.4-.434-12.85-1.582-18.613-4.4-3.222-1.578-6.345-3.707-9.925-3.942a9.2,9.2,0,0,0-2.179.119,42.53,42.53,0,0,1,47.625-28.954h0c.138.022.272.043.409.072a41.113,41.113,0,0,1,4.311,1A42.519,42.519,0,0,1,406.41,302.852Z" transform="translate(255.621 3942.295)" opacity="0.15"/>
      <g id="Group_1278-2" data-name="Group 1278" transform="translate(624.073 4332.486)">
        <path id="Path_4110" data-name="Path 4110" d="M222.829,577.427a10.406,10.406,0,0,0,10.049-1.77c3.52-2.954,4.623-7.821,5.521-12.327L241.054,550l-5.56,3.828c-4,2.753-8.087,5.594-10.856,9.582s-3.977,9.432-1.753,13.747Z" transform="translate(-221.661 -550)" fill="#e6e6e6"/>
        <path id="Path_4111" data-name="Path 4111" d="M224.532,623.413a53.8,53.8,0,0,1-.747-12.394,19.492,19.492,0,0,1,3.759-10.22,17,17,0,0,1,4.362-3.953c.436-.275.838.416.4.69a16.162,16.162,0,0,0-6.393,7.714,25.907,25.907,0,0,0-1.376,11.16c.145,2.274.452,4.534.762,6.79a.414.414,0,0,1-.279.492.4.4,0,0,1-.492-.279Z" transform="translate(-222.889 -579.848)" fill="#f2f2f2"/>
        <path id="Path_4112" data-name="Path 4112" d="M241.052,635.7a7.66,7.66,0,0,0,6.674,3.445c3.379-.16,6.2-2.518,8.731-4.757l7.5-6.622-4.964-.238c-3.57-.171-7.231-.33-10.631.771s-6.535,3.75-7.157,7.269Z" transform="translate(-233.988 -599.384)" fill="#e6e6e6"/>
        <path id="Path_4113" data-name="Path 4113" d="M221.59,655.06c2.709-4.793,5.85-10.119,11.464-11.822a12.792,12.792,0,0,1,4.822-.5c.512.044.384.833-.127.789a11.885,11.885,0,0,0-7.7,2.036,20,20,0,0,0-5.289,5.708c-.876,1.334-1.66,2.724-2.445,4.112C222.07,655.829,221.337,655.509,221.59,655.06Z" transform="translate(-221.537 -609.139)" fill="#f2f2f2"/>
      </g>
    </g>
    <path id="Path_4117" data-name="Path 4117" d="M541.558,546.336,503.29,584.1l-.774.764-4.315,4.257-9.046-8.937-.8-.785L471.82,563.059a15.6,15.6,0,0,1,8.235.97c3.544,1.748,6.458,4.619,10.056,6.255a16.7,16.7,0,0,0,10.255,1.133c6.45-1.354,11.442-6.342,15.844-11.25s8.9-10.182,15.087-12.459A27.262,27.262,0,0,1,541.558,546.336Z" transform="translate(177.521 3784.838)" opacity="0.15"/>
  </g>
</svg>
