<svg xmlns="http://www.w3.org/2000/svg" width="502.885" height="422.291" viewBox="0 0 502.885 422.291">
  <g id="we-known-img-1" transform="translate(0.001 0)">
    <ellipse id="Ellipse_402" data-name="Ellipse 402" cx="54.505" cy="4.157" rx="54.505" ry="4.157" transform="translate(386.988 413.977)" fill="#e6e6e6"/>
    <ellipse id="Ellipse_403" data-name="Ellipse 403" cx="54.505" cy="4.157" rx="54.505" ry="4.157" transform="translate(121.469 413.977)" fill="#e6e6e6"/>
    <path id="Path_3846" data-name="Path 3846" d="M707.75,546.353H337.114a5.846,5.846,0,0,1-5.84-5.84V184.671a5.846,5.846,0,0,1,5.84-5.84H707.75a5.846,5.846,0,0,1,5.84,5.84V540.513A5.846,5.846,0,0,1,707.75,546.353ZM337.114,181.167a3.508,3.508,0,0,0-3.5,3.5V540.513a3.508,3.508,0,0,0,3.5,3.5H707.75a3.508,3.508,0,0,0,3.5-3.5V184.671a3.508,3.508,0,0,0-3.5-3.5Z" transform="translate(-290.006 -178.831)" fill="#e6e6e6"/>
    <path id="Path_3847" data-name="Path 3847" d="M365.61,218.831a2.339,2.339,0,0,0-2.336,2.336v96.552a2.339,2.339,0,0,0,2.336,2.336h96.552a2.338,2.338,0,0,0,2.336-2.336V221.167a2.338,2.338,0,0,0-2.336-2.336Z" transform="translate(-297.09 -187.685)" fill="#e6e6e6"/>
    <path id="Path_40" data-name="Path 40" d="M560.512,308.581a2.822,2.822,0,1,0,0,5.645H693.565a2.823,2.823,0,1,0,.093-5.644H560.512Z" transform="translate(-340.124 -207.551)" fill="#e6e6e6"/>
    <path id="Path_40-2" data-name="Path 40" d="M560.512,275.581a2.822,2.822,0,1,0,0,5.645H598.57a2.823,2.823,0,0,0,.093-5.644H560.512Z" transform="translate(-340.124 -200.246)" fill="#e6e6e6"/>
    <path id="Path_40-3" data-name="Path 40" d="M560.512,342.581a2.822,2.822,0,1,0,0,5.645H693.565a2.823,2.823,0,1,0,.093-5.644H560.512Z" transform="translate(-340.124 -215.077)" fill="#e6e6e6"/>
    <path id="Path_78" data-name="Path 78" d="M710.766,459.633H527.909c-3.565,0-6.453-2.058-6.457-4.594V415.3c0-2.536,2.893-4.594,6.457-4.594H710.766c3.565,0,6.453,2.058,6.457,4.594v39.743C717.22,457.574,714.33,459.63,710.766,459.633Z" transform="translate(-332.103 -230.155)" fill="#e6e6e6"/>
    <path id="Path_78-2" data-name="Path 78" d="M551.765,583.633H368.909c-3.565,0-6.453-2.058-6.457-4.594V539.3c0-2.536,2.893-4.594,6.457-4.594H551.765c3.565,0,6.453,2.058,6.457,4.594v39.743C558.22,581.574,555.33,583.63,551.765,583.633Z" transform="translate(-296.908 -257.603)" fill="#e6e6e6"/>
    <path id="Path_78-3" data-name="Path 78" d="M480.924,611.751H298.067c-3.565,0-6.453-2.058-6.457-4.594V567.413c0-2.536,2.893-4.594,6.457-4.594H480.924c3.565,0,6.453,2.058,6.457,4.594v39.743C487.378,609.692,484.488,611.748,480.924,611.751Zm-182.856-47.1c-2.139,0-3.872,1.235-3.875,2.756v39.743c0,1.521,1.736,2.755,3.875,2.756H480.924c2.139,0,3.872-1.235,3.875-2.756V567.413c0-1.521-1.736-2.755-3.875-2.756Z" transform="translate(-281.227 -263.827)" fill="#3f3d56"/>
    <ellipse id="Ellipse_404" data-name="Ellipse 404" cx="14.794" cy="14.794" rx="14.794" ry="14.794" transform="translate(250.724 209.457)" fill="#023e57"/>
    <ellipse id="Ellipse_405" data-name="Ellipse 405" cx="14.794" cy="14.794" rx="14.794" ry="14.794" transform="translate(28.81 308.345)" fill="#023e57"/>
    <path id="Path_40-4" data-name="Path 40" d="M659.512,453.206a2.822,2.822,0,1,0,0,5.645h105.8a2.823,2.823,0,1,0,.093-5.644H659.512Z" transform="translate(-362.038 -239.564)" fill="#3f3d56"/>
    <path id="Path_40-5" data-name="Path 40" d="M659.512,473.206a2.822,2.822,0,1,0,0,5.645h105.8a2.823,2.823,0,1,0,.093-5.644H659.512Z" transform="translate(-362.038 -243.991)" fill="#3f3d56"/>
    <path id="Path_40-6" data-name="Path 40" d="M374.512,580.206a2.822,2.822,0,1,0,0,5.645h105.8a2.823,2.823,0,1,0,.093-5.644H374.512Z" transform="translate(-298.952 -267.675)" fill="#3f3d56"/>
    <path id="Path_40-7" data-name="Path 40" d="M374.512,600.206a2.822,2.822,0,1,0,0,5.645h105.8a2.823,2.823,0,1,0,.093-5.644H374.512Z" transform="translate(-298.952 -272.102)" fill="#3f3d56"/>
    <ellipse id="Ellipse_406" data-name="Ellipse 406" cx="33.534" cy="33.534" rx="33.534" ry="33.534" transform="translate(409.495 337.049)" fill="#bf353e"/>
    <rect id="Rectangle_1265" data-name="Rectangle 1265" width="10.188" height="18.253" transform="translate(448.123 396.901)" fill="#bf353e"/>
    <rect id="Rectangle_1266" data-name="Rectangle 1266" width="10.188" height="18.253" transform="translate(427.748 396.901)" fill="#bf353e"/>
    <ellipse id="Ellipse_407" data-name="Ellipse 407" cx="8.49" cy="3.184" rx="8.49" ry="3.184" transform="translate(441.331 412.183)" fill="#bf353e"/>
    <ellipse id="Ellipse_408" data-name="Ellipse 408" cx="8.49" cy="3.184" rx="8.49" ry="3.184" transform="translate(420.956 411.757)" fill="#bf353e"/>
    <ellipse id="Ellipse_409" data-name="Ellipse 409" cx="11.461" cy="11.461" rx="11.461" ry="11.461" transform="translate(430.72 350.632)" fill="#fff"/>
    <ellipse id="Ellipse_410" data-name="Ellipse 410" cx="3.82" cy="3.82" rx="3.82" ry="3.82" transform="translate(438.36 358.272)" fill="#3f3d56"/>
    <path id="Path_3848" data-name="Path 3848" d="M875.106,606.741c2.708-12.126-5.948-24.38-19.333-27.369s-26.431,4.419-29.138,16.545,6.163,16.6,19.548,19.588S872.4,618.868,875.106,606.741Z" transform="translate(-399.548 -267.344)" fill="#e6e6e6"/>
    <path id="Path_3849" data-name="Path 3849" d="M369.516,359.253a33.35,33.35,0,0,1-3.449,14.825c-.257.529-.529,1.043-.818,1.557H306.718c-.288-.514-.561-1.028-.818-1.557a33.537,33.537,0,1,1,63.616-14.825Z" transform="translate(-283.624 -211.341)" fill="#bf353e"/>
    <ellipse id="Ellipse_411" data-name="Ellipse 411" cx="11.461" cy="11.461" rx="11.461" ry="11.461" transform="translate(41.749 127.958)" fill="#fff"/>
    <ellipse id="Ellipse_412" data-name="Ellipse 412" cx="3.82" cy="3.82" rx="3.82" ry="3.82" transform="translate(49.389 135.598)" fill="#3f3d56"/>
    <path id="Path_3850" data-name="Path 3850" d="M303.6,320.766c-2.708-12.127,5.948-24.38,19.333-27.369s26.431,4.419,29.138,16.545-6.163,16.6-19.548,19.588S306.31,332.892,303.6,320.766Z" transform="translate(-283.771 -204.043)" fill="#023e57"/>
    <path id="Path_3851" data-name="Path 3851" d="M378.72,255.831H282.167a3.9,3.9,0,0,0-3.893,3.893v96.552a3.9,3.9,0,0,0,3.893,3.893H378.72a3.9,3.9,0,0,0,3.893-3.893V259.724a3.9,3.9,0,0,0-3.893-3.893Zm2.336,100.446a2.343,2.343,0,0,1-2.336,2.336H282.167a2.343,2.343,0,0,1-2.336-2.336V259.724a2.343,2.343,0,0,1,2.336-2.336H378.72a2.343,2.343,0,0,1,2.336,2.336Z" transform="translate(-278.275 -195.875)" fill="#3f3d56"/>
    <ellipse id="Ellipse_413" data-name="Ellipse 413" cx="16.767" cy="5.264" rx="16.767" ry="5.264" transform="translate(190.602 359.045) rotate(-69.082)" fill="#bf353e"/>
    <ellipse id="Ellipse_414" data-name="Ellipse 414" cx="33.534" cy="33.534" rx="33.534" ry="33.534" transform="matrix(0.16, -0.987, 0.987, 0.16, 132.039, 398.311)" fill="#bf353e"/>
    <rect id="Rectangle_1267" data-name="Rectangle 1267" width="10.188" height="18.253" transform="translate(155.23 396.901)" fill="#bf353e"/>
    <rect id="Rectangle_1268" data-name="Rectangle 1268" width="10.188" height="18.253" transform="translate(175.605 396.901)" fill="#bf353e"/>
    <ellipse id="Ellipse_415" data-name="Ellipse 415" cx="8.49" cy="3.184" rx="8.49" ry="3.184" transform="translate(155.229 412.183)" fill="#bf353e"/>
    <ellipse id="Ellipse_416" data-name="Ellipse 416" cx="8.49" cy="3.184" rx="8.49" ry="3.184" transform="translate(175.605 411.757)" fill="#bf353e"/>
    <path id="Path_3852" data-name="Path 3852" d="M455.34,606.741c-2.708-12.126,5.948-24.38,19.333-27.369s26.431,4.419,29.138,16.545-6.163,16.6-19.548,19.588S458.048,618.868,455.34,606.741Z" transform="translate(-317.359 -267.344)" fill="#023e57"/>
    <ellipse id="Ellipse_417" data-name="Ellipse 417" cx="5.264" cy="16.767" rx="5.264" ry="16.767" transform="translate(115.336 352.593) rotate(-64.626)" fill="#bf353e"/>
    <ellipse id="Ellipse_418" data-name="Ellipse 418" cx="32.713" cy="32.713" rx="32.713" ry="32.713" transform="translate(420.435 235.643)" fill="#bf353e"/>
    <rect id="Rectangle_1269" data-name="Rectangle 1269" width="9.938" height="17.806" transform="translate(458.237 294.005) rotate(-0.266)" fill="#bf353e"/>
    <rect id="Rectangle_1270" data-name="Rectangle 1270" width="9.938" height="17.806" transform="translate(438.361 294.098) rotate(-0.266)" fill="#bf353e"/>
    <ellipse id="Ellipse_419" data-name="Ellipse 419" cx="8.282" cy="3.106" rx="8.282" ry="3.106" transform="matrix(0.864, -0.504, 0.504, 0.864, 432.631, 315.244)" fill="#bf353e"/>
    <ellipse id="Ellipse_420" data-name="Ellipse 420" cx="8.282" cy="3.106" rx="8.282" ry="3.106" transform="matrix(0.864, -0.504, 0.504, 0.864, 452.093, 315.154)" fill="#bf353e"/>
    <ellipse id="Ellipse_421" data-name="Ellipse 421" cx="11.18" cy="11.18" rx="11.18" ry="11.18" transform="translate(441.101 248.898)" fill="#fff"/>
    <ellipse id="Ellipse_422" data-name="Ellipse 422" cx="3.727" cy="3.727" rx="3.727" ry="3.727" transform="translate(444.725 251.607)" fill="#3f3d56"/>
    <path id="Path_3853" data-name="Path 3853" d="M887.229,476.473c2.586-11.842-5.913-23.755-18.983-26.61s-25.763,4.43-28.349,16.272,6.087,16.164,19.158,19.019S884.642,488.315,887.229,476.473Z" transform="translate(-402.49 -238.687)" fill="#023e57"/>
    <ellipse id="Ellipse_423" data-name="Ellipse 423" cx="5.135" cy="16.356" rx="5.135" ry="16.356" transform="translate(401.918 250.158) rotate(-67.095)" fill="#bf353e"/>
    <ellipse id="Ellipse_424" data-name="Ellipse 424" cx="5.135" cy="16.356" rx="5.135" ry="16.356" transform="translate(468.754 277.27) rotate(-67.095)" fill="#bf353e"/>
    <path id="Path_3854" data-name="Path 3854" d="M864.5,540.378a7.454,7.454,0,1,1-14.907.084v-.015c-.019-4.117,3.314-4.985,7.43-5S864.476,536.261,864.5,540.378Z" transform="translate(-404.736 -257.767)" fill="#fff"/>
    <path id="Path_78-4" data-name="Path 78" d="M771.861,484.586H589c-3.565,0-6.453-2.058-6.457-4.594V440.248c0-2.536,2.893-4.594,6.457-4.594H771.861c3.565,0,6.453,2.058,6.457,4.594v39.743C778.315,482.527,775.425,484.583,771.861,484.586ZM589,437.49c-2.139,0-3.872,1.235-3.875,2.756v39.743c0,1.521,1.736,2.755,3.875,2.756H771.861c2.139,0,3.872-1.235,3.875-2.756V440.248c0-1.521-1.736-2.755-3.875-2.756Z" transform="translate(-345.626 -235.679)" fill="#3f3d56"/>
  </g>
</svg>
