<svg xmlns="http://www.w3.org/2000/svg" width="490.676" height="378.98" viewBox="0 0 490.676 378.98">
  <g id="we-known-img-3" transform="translate(-376.662 -1737.51)">
    <ellipse id="Ellipse_452" data-name="Ellipse 452" cx="104.942" cy="15.907" rx="104.942" ry="15.907" transform="translate(424.931 2084.676)" fill="#023e57" opacity="0.1"/>
    <path id="Path_3885" data-name="Path 3885" d="M196.276,37.876c16.645-14.67,42.777-17.675,66.567-16.49,74.71,3.676,142.143,39.321,200.491,79.65,21.121,14.6,41.915,30.334,55.622,50.443,27.908,40.925,19.628,97.625-19.177,131.339-13.2,11.488-29.207,20.268-45.636,28.063-29.216,13.861-60.739,24.987-93.9,28.156-23.644,2.258-47.58.42-71.087-2.731-65.679-8.8-130.146-28.279-184.177-61.582-23.7-14.59-46.033-32.769-55.8-56.4s-3.535-53.585,20.684-67.57c10.008-5.788,21.974-8.4,33.688-10.857,17.233-3.61,34.766-7.171,50.328-14.511,16.071-7.587,35.1-22.252,31.92-39.034C182.383,68.333,179.635,52.519,196.276,37.876Z" transform="translate(331.9 1716.357)" fill="#bf353e" opacity="0.1"/>
    <path id="Path_3886" data-name="Path 3886" d="M937.656,73.333c2.987,19.689-5.324,37.28-5.324,37.28s-13.154-14.33-16.15-34.019c-1.675-11.047.2-21.422,2.174-28.412a4.86,4.86,0,0,1,8.789-1.326C931.108,52.936,935.982,62.29,937.656,73.333Z" transform="translate(-154.109 1703.268)" fill="#023e57"/>
    <path id="Path_3887" data-name="Path 3887" d="M1066.591,180.64a33.983,33.983,0,0,1,8.771,1.109,4.871,4.871,0,0,1,.1,9.407,34.09,34.09,0,0,1-8.745,1.3c-10.839.119-19.689-5.7-19.689-5.7S1055.752,180.759,1066.591,180.64Z" transform="translate(-227.502 1627.342)" fill="#023e57"/>
    <path id="Path_3888" data-name="Path 3888" d="M1006.882,98.47c-10.088,11.086-12.222,25.575-12.222,25.575s14.219-3.491,24.3-14.581a50.2,50.2,0,0,0,9.482-15.823,4.86,4.86,0,0,0-6.681-6.1A49.917,49.917,0,0,0,1006.882,98.47Z" transform="translate(-198.272 1679.58)" fill="#023e57"/>
    <rect id="Rectangle_1280" data-name="Rectangle 1280" width="227.118" height="273.5" rx="14" transform="translate(602.661 1775.959)" fill="#bf353e"/>
    <rect id="Rectangle_1281" data-name="Rectangle 1281" width="187.933" height="218.32" transform="translate(622.253 1803.549)" fill="#cbcbcb"/>
    <ellipse id="Ellipse_453" data-name="Ellipse 453" cx="7.998" cy="7.998" rx="7.998" ry="7.998" transform="translate(708.223 2028.268)" fill="#fff"/>
    <path id="Path_3889" data-name="Path 3889" d="M808.458,143.376a3.778,3.778,0,1,1,3.778-3.778,3.778,3.778,0,0,1-3.778,3.778Z" transform="translate(-92.238 1652.357)" fill="#fff"/>
    <path id="Path_3890" data-name="Path 3890" d="M808.151,135.762a3.557,3.557,0,1,1-3.557,3.557,3.557,3.557,0,0,1,3.557-3.557m0-.442a3.977,3.977,0,1,0,2.82,1.173A4,4,0,0,0,808.151,135.32Z" transform="translate(-91.931 1652.637)" fill="#fff"/>
    <rect id="Rectangle_1282" data-name="Rectangle 1282" width="38.977" height="52.988" rx="4.3" transform="translate(630.984 1871.182)" fill="#fff" stroke="#fff" stroke-miterlimit="10" stroke-width="1"/>
    <rect id="Rectangle_1283" data-name="Rectangle 1283" width="31.668" height="16.813" rx="7.14" transform="translate(634.639 1884.535)" fill="#023e57"/>
    <rect id="Rectangle_1284" data-name="Rectangle 1284" width="18.448" height="2.611" rx="1.306" transform="translate(641.249 1908.205)" fill="#bf353e"/>
    <rect id="Rectangle_1285" data-name="Rectangle 1285" width="38.977" height="52.988" rx="4.3" transform="translate(696.88 1871.182)" fill="#fff" stroke="#fff" stroke-miterlimit="10" stroke-width="1"/>
    <rect id="Rectangle_1286" data-name="Rectangle 1286" width="18.678" height="9.915" rx="1.46" transform="translate(707.131 1879.457)" fill="#023e57"/>
    <rect id="Rectangle_1287" data-name="Rectangle 1287" width="23.843" height="2.611" rx="1.306" transform="translate(704.4 1898.666)" fill="#bf353e"/>
    <rect id="Rectangle_1288" data-name="Rectangle 1288" width="23.843" height="2.611" rx="1.306" transform="translate(704.4 1903.535)" fill="#bf353e"/>
    <rect id="Rectangle_1289" data-name="Rectangle 1289" width="38.977" height="52.988" rx="4.3" transform="translate(762.479 1833.539)" fill="#fff" stroke="#fff" stroke-miterlimit="10" stroke-width="1"/>
    <rect id="Rectangle_1290" data-name="Rectangle 1290" width="25.376" height="11.842" rx="1.46" transform="translate(769.279 1841.762)" fill="#023e57"/>
    <rect id="Rectangle_1291" data-name="Rectangle 1291" width="25.376" height="11.842" rx="1.46" transform="translate(769.279 1858.973)" fill="#023e57"/>
    <rect id="Rectangle_1292" data-name="Rectangle 1292" width="8.325" height="3.654" rx="1.827" transform="translate(767.251 1880.359)" fill="#bf353e"/>
    <rect id="Rectangle_1293" data-name="Rectangle 1293" width="8.325" height="3.654" rx="1.827" transform="translate(777.807 1880.359)" fill="#bf353e"/>
    <rect id="Rectangle_1294" data-name="Rectangle 1294" width="8.325" height="3.654" rx="1.827" transform="translate(788.362 1880.359)" fill="#bf353e"/>
    <rect id="Rectangle_1295" data-name="Rectangle 1295" width="38.977" height="52.988" rx="4.3" transform="translate(762.386 1908.824)" fill="#fff" stroke="#fff" stroke-miterlimit="10" stroke-width="1"/>
    <rect id="Rectangle_1296" data-name="Rectangle 1296" width="11.648" height="11.842" rx="1.46" transform="translate(765.395 1915.02)" fill="#023e57"/>
    <rect id="Rectangle_1297" data-name="Rectangle 1297" width="23.843" height="2.611" rx="1.306" transform="translate(769.955 1934.072)" fill="#bf353e"/>
    <rect id="Rectangle_1298" data-name="Rectangle 1298" width="23.843" height="2.611" rx="1.306" transform="translate(769.955 1939.352)" fill="#bf353e"/>
    <rect id="Rectangle_1299" data-name="Rectangle 1299" width="23.843" height="2.611" rx="1.306" transform="translate(769.955 1944.633)" fill="#bf353e"/>
    <path id="Path_3891" data-name="Path 3891" d="M736.027,376.611l-.6.287-4.834,2.324-.442.208a.238.238,0,0,1-.323-.128.258.258,0,0,1,0-.088v-1.374a.234.234,0,0,0-.234-.234H717.849a.239.239,0,0,1-.239-.234v-1.94a.239.239,0,0,1,.239-.234h11.762a.239.239,0,0,0,.234-.239v-1.405a.29.29,0,0,1,0-.088.239.239,0,0,1,.323-.124l.442.208,4.821,2.346.6.292a.234.234,0,0,1,0,.424Z" transform="translate(-43.641 1519.801)" fill="#fff" stroke="#fff" stroke-miterlimit="10" stroke-width="1"/>
    <path id="Path_3892" data-name="Path 3892" d="M886.053,353.348l-.389.535L882.5,358.2l-.278.384a.243.243,0,0,1-.345.04.212.212,0,0,1-.053-.071l-.645-1.211a.243.243,0,0,0-.323-.1l-10.384,5.528a.234.234,0,0,1-.318-.1l-.91-1.719a.234.234,0,0,1,.1-.318l10.384-5.519a.234.234,0,0,0,.1-.318l-.658-1.242a.155.155,0,0,1-.027-.084.23.23,0,0,1,.225-.261h.473l5.355-.194.663-.022a.234.234,0,0,1,.2.358Z" transform="translate(-128.258 1531.146)" fill="#fff" stroke="#fff" stroke-miterlimit="10" stroke-width="1"/>
    <path id="Path_3893" data-name="Path 3893" d="M885.828,393.464h-6.482a.234.234,0,0,1-.234-.252.2.2,0,0,1,.022-.084l.592-1.242a.234.234,0,0,0-.11-.314l-10.6-5.09a.239.239,0,0,1-.11-.318l.84-1.745a.23.23,0,0,1,.314-.11l10.6,5.095a.243.243,0,0,0,.318-.11l.61-1.268a.23.23,0,0,1,.393-.044l.3.367,3.327,4.207.411.521a.234.234,0,0,1-.186.389Z" transform="translate(-128.068 1513.68)" fill="#fff" stroke="#fff" stroke-miterlimit="10" stroke-width="1"/>
    <path id="Path_3894" data-name="Path 3894" d="M416.51,606.4l-.035,1.295-2.253,79.566H410.43l1.86-79.566.035-1.493Z" transform="translate(147.59 1399.17)" fill="#504f60"/>
    <path id="Path_3895" data-name="Path 3895" d="M416.51,606.4l-.035,1.295-2.253,79.566H410.43l1.86-79.566.035-1.493Z" transform="translate(147.59 1399.17)" fill="#023e57" opacity="0.1"/>
    <path id="Path_3896" data-name="Path 3896" d="M414.147,754.4l-2.837-.009-42.176-.088-2.245,0,1.193-3.69h45.764Z" transform="translate(171.891 1318.57)" fill="#023e57"/>
    <path id="Path_3897" data-name="Path 3897" d="M418.86,606.4l-.035,1.295H414.64l.035-1.493Z" transform="translate(145.24 1399.17)" opacity="0.1"/>
    <rect id="Rectangle_1300" data-name="Rectangle 1300" width="7.03" height="2.642" transform="translate(558.669 2003.625)" fill="#023e57"/>
    <path id="Path_3898" data-name="Path 3898" d="M369.51,750.61l-.376,3.694-2.245,0,1.193-3.69Z" transform="translate(171.891 1318.57)" opacity="0.1"/>
    <path id="Path_3899" data-name="Path 3899" d="M369.14,602.14l-.119,1.144-9.354,92.274-4.286-.2,9.858-92.075.11-1.047Z" transform="translate(178.315 1401.438)" fill="#023e57"/>
    <path id="Path_3900" data-name="Path 3900" d="M469.771,754.4l-2.837-.009-.384-3.782h2.921Z" transform="translate(116.267 1318.57)" opacity="0.1"/>
    <path id="Path_3901" data-name="Path 3901" d="M466.62,695.36l-4.291.2-9.354-92.274-.115-1.144,3.787.1.11,1.047Z" transform="translate(123.908 1401.438)" fill="#023e57"/>
    <rect id="Rectangle_1301" data-name="Rectangle 1301" width="94.519" height="90.631" transform="translate(514.253 1912.594)" fill="#fff"/>
    <rect id="Rectangle_1302" data-name="Rectangle 1302" width="136.094" height="90.631" rx="4.13" transform="translate(493.521 1912.594)" fill="#fff"/>
    <path id="Path_3902" data-name="Path 3902" d="M462.615,346.473v21.885H458.93V346.473a1.843,1.843,0,0,1,3.685,0Z" transform="translate(100.738 1535.813)" fill="#504f60"/>
    <rect id="Rectangle_1303" data-name="Rectangle 1303" width="3.69" height="1.993" transform="translate(559.668 1902.178)" opacity="0.1"/>
    <path id="Path_3903" data-name="Path 3903" d="M462.239,396.083v7.229H455.66v-7.229a.884.884,0,0,1,.884-.884h4.785a.884.884,0,0,1,.91.884Z" transform="translate(102.563 1507.588)" fill="#504f60"/>
    <ellipse id="Ellipse_454" data-name="Ellipse 454" cx="1.396" cy="1.396" rx="1.396" ry="1.396" transform="translate(560.114 1905.965)" opacity="0.1"/>
    <ellipse id="Ellipse_455" data-name="Ellipse 455" cx="1.396" cy="1.396" rx="1.396" ry="1.396" transform="translate(560.114 1905.664)" fill="#3f3d56"/>
    <rect id="Rectangle_1304" data-name="Rectangle 1304" width="6.579" height="0.897" transform="translate(558.223 1910.004)" opacity="0.1"/>
    <rect id="Rectangle_1305" data-name="Rectangle 1305" width="11.966" height="1.993" transform="translate(555.527 1911.201)" opacity="0.1"/>
    <rect id="Rectangle_1306" data-name="Rectangle 1306" width="11.966" height="1.993" transform="translate(555.527 1910.6)" fill="#504f60"/>
    <path id="Path_3904" data-name="Path 3904" d="M361.292,596h49.3a2.651,2.651,0,0,1,2.651,2.651h-54.6A2.651,2.651,0,0,1,361.292,596Z" transform="translate(176.49 1404.863)" opacity="0.1"/>
    <path id="Path_3905" data-name="Path 3905" d="M377.8,602.237l3.791-.1-.119,1.144H377.69Z" transform="translate(165.863 1401.438)" opacity="0.1"/>
    <rect id="Rectangle_1307" data-name="Rectangle 1307" width="7.03" height="1.096" transform="translate(558.669 2003.625)" opacity="0.1"/>
    <path id="Path_3906" data-name="Path 3906" d="M456.757,603.284h-3.782l-.115-1.144,3.787.1Z" transform="translate(123.908 1401.438)" opacity="0.1"/>
    <path id="Path_3907" data-name="Path 3907" d="M361.292,597.4h49.3a2.651,2.651,0,0,1,2.651,2.651h-54.6A2.651,2.651,0,0,1,361.3,597.4Z" transform="translate(176.49 1404.082)" fill="#023e57"/>
    <path id="Path_3908" data-name="Path 3908" d="M539.259,441.47a.658.658,0,0,1,.756.725,87.612,87.612,0,0,0,.464,18.7c.323,2.824.76,5.811,2.01,7.9a.667.667,0,0,1-.088.822,1.768,1.768,0,0,1-1.228.367l-19.72.11a.658.658,0,0,1-.645-.813c1.586-6.76,1.246-14.14.61-21.152-.314-3.451-.495-5.3,2.081-5.545,2.651-.239,5.3-.349,7.954-.57C532.087,441.961,537.187,441.81,539.259,441.47Z" transform="translate(66.213 1481.768)" fill="#fff" stroke="#33313f" stroke-miterlimit="10" stroke-width="1"/>
    <path id="Path_3909" data-name="Path 3909" d="M524.23,533.16a.658.658,0,0,0-.756.725,87.328,87.328,0,0,1-.468,18.7c-.318,2.823-.756,5.81-2.006,7.909a.658.658,0,0,0,.088.817,1.768,1.768,0,0,0,1.228.367l19.72.115a.667.667,0,0,0,.645-.817c-1.586-6.76-1.246-14.14-.61-21.152.314-3.451.495-5.3-2.081-5.545s-5.3-.349-7.954-.57C531.4,533.651,526.3,533.5,524.23,533.16Z" transform="translate(66.152 1430.592)" fill="#fff" stroke="#33313f" stroke-miterlimit="10" stroke-width="1"/>
    <path id="Path_3910" data-name="Path 3910" d="M536.2,558.85a58.489,58.489,0,0,1,6.875.084.65.65,0,0,1,.583.574l.216,1.807a.256.256,0,0,1-.053.234.243.243,0,0,1-.168.044c-.963.027-1.927-.084-2.885,0-.6.049-1.189.164-1.767.23a21.1,21.1,0,0,1-2.943.053,14.831,14.831,0,0,1-4.1-.5s.08-1.5.08-1.639c0-.7-.022-.76.7-.778Z" transform="translate(59.978 1416.283)" fill="none" stroke="#33313f" stroke-linecap="round" stroke-miterlimit="10" stroke-width="1"/>
    <path id="Path_3911" data-name="Path 3911" d="M536.2,573.509a57.553,57.553,0,0,0,6.875-.088.65.65,0,0,0,.583-.574l.216-1.8a.265.265,0,0,0-.053-.239.243.243,0,0,0-.168-.044c-.963-.027-1.927.088-2.885,0-.6-.044-1.189-.159-1.767-.225a20.434,20.434,0,0,0-2.943-.053,14.831,14.831,0,0,0-4.1.5s.08,1.494.08,1.639c0,.7-.022.756.7.778Z" transform="translate(59.978 1409.773)" fill="none" stroke="#33313f" stroke-linecap="round" stroke-miterlimit="10" stroke-width="1"/>
    <path id="Path_3912" data-name="Path 3912" d="M536.2,584.51a57.527,57.527,0,0,1,6.875.088.65.65,0,0,1,.583.574l.216,1.8a.265.265,0,0,1-.053.239.243.243,0,0,1-.168.044c-.963.026-1.927-.088-2.885,0-.6.044-1.189.163-1.767.23a21.086,21.086,0,0,1-2.943.049,14.822,14.822,0,0,1-4.1-.5s.08-1.5.08-1.644c0-.7-.022-.756.7-.773Z" transform="translate(59.978 1401.963)" fill="none" stroke="#33313f" stroke-linecap="round" stroke-miterlimit="10" stroke-width="1"/>
    <path id="Path_3913" data-name="Path 3913" d="M542.79,499a2.921,2.921,0,0,1,.194,1.538.23.23,0,0,1-.031.119.239.239,0,0,1-.186.066l-4.2.163s.234-1.237.265-1.326c.146-.5.513-.371.985-.4Z" transform="translate(56.288 1449.652)" fill="#fff" stroke="#33313f" stroke-linecap="round" stroke-miterlimit="10" stroke-width="1"/>
    <path id="Path_3914" data-name="Path 3914" d="M557.134,499a2.921,2.921,0,0,1,.19,1.538.225.225,0,0,1-.026.119.247.247,0,0,1-.186.066l-4.2.163s.239-1.237.27-1.326c.141-.5.508-.371.985-.4Z" transform="translate(48.284 1449.652)" fill="#fff" stroke="#33313f" stroke-linecap="round" stroke-miterlimit="10" stroke-width="1"/>
    <path id="Path_3915" data-name="Path 3915" d="M540.2,451.258l.566,4.861a1.326,1.326,0,0,1-1.206,1.463,63.1,63.1,0,0,1-10.773-.071,1.326,1.326,0,0,1-1.2-1.264,18.868,18.868,0,0,0-.38-2.576c-.146-.884-.3-1.737.738-2a18.066,18.066,0,0,1,3.61-.1q2.05-.04,4.087-.115C536.021,451.461,540.2,451.236,540.2,451.258Z" transform="translate(62.689 1476.301)" fill="none" stroke="#33313f" stroke-miterlimit="10" stroke-width="1"/>
    <path id="Path_3916" data-name="Path 3916" d="M540.186,482.765l.557-4.86a1.326,1.326,0,0,0-1.206-1.463,63.563,63.563,0,0,0-10.773.066,1.326,1.326,0,0,0-1.2,1.268,18.856,18.856,0,0,1-.38,2.576c-.146.884-.3,1.737.738,2a18.069,18.069,0,0,0,3.61.1c1.365.027,2.726.062,4.087.115C536.01,482.575,540.186,482.8,540.186,482.765Z" transform="translate(62.701 1462.354)" fill="none" stroke="#33313f" stroke-miterlimit="10" stroke-width="1"/>
    <path id="Path_3917" data-name="Path 3917" d="M536.3,540.4q-.221,2.426-.278,4.86a23.008,23.008,0,0,1-4.821-.552.853.853,0,0,1-.791-1.043c-.031-1.008-.561-3.257.857-3.4C531.687,540.219,536.291,540.476,536.3,540.4Z" transform="translate(60.913 1426.625)" fill="none" stroke="#33313f" stroke-linecap="round" stroke-miterlimit="10" stroke-width="1"/>
    <path id="Path_3918" data-name="Path 3918" d="M345.178,490.6a1.41,1.41,0,0,1,1.555,1.533,90.172,90.172,0,0,0,.557,17.767,22.736,22.736,0,0,0,1.732,7.406A1.158,1.158,0,0,1,348,518.994h0l-19.566.115a.778.778,0,0,1-.764-.946c1.551-6.725,1.211-14.069.579-21.024-.318-3.451-.495-5.3,2.077-5.545,2.651-.234,5.3-.345,7.931-.57C338.815,490.98,342.827,490.856,345.178,490.6Z" transform="translate(174.011 1454.346)" fill="#fff" stroke="#33313f" stroke-linecap="round" stroke-miterlimit="10" stroke-width="1"/>
    <path id="Path_3919" data-name="Path 3919" d="M424.657,490.35a.7.7,0,0,0-.8.778,87.635,87.635,0,0,1-.473,18.633c-.318,2.823-.756,5.8-2,7.9a.7.7,0,0,0,.186.915,1.852,1.852,0,0,0,1.122.283l19.667.115a.707.707,0,0,0,.685-.884c-1.569-6.747-1.233-14.117-.6-21.1.314-3.451.495-5.3-2.077-5.545-2.651-.234-5.3-.345-7.953-.57C431.762,490.831,426.769,490.686,424.657,490.35Z" transform="translate(121.751 1454.486)" fill="#fff" stroke="#33313f" stroke-miterlimit="10" stroke-width="1"/>
    <line id="Line_110" data-name="Line 110" x2="10.004" y2="13.344" transform="translate(507.475 1948.852)" fill="#fff" stroke="#33313f" stroke-linecap="round" stroke-miterlimit="10" stroke-width="1"/>
    <line id="Line_111" data-name="Line 111" x1="9.672" y2="15.01" transform="translate(507.807 1947.854)" fill="#fff" stroke="#33313f" stroke-linecap="round" stroke-miterlimit="10" stroke-width="1"/>
    <line id="Line_112" data-name="Line 112" x2="5.448" y2="7.269" transform="translate(552.116 1949.48)" fill="#fff" stroke="#33313f" stroke-linecap="round" stroke-miterlimit="10" stroke-width="1"/>
    <line id="Line_113" data-name="Line 113" x1="5.267" y2="8.179" transform="translate(552.298 1948.932)" fill="#fff" stroke="#33313f" stroke-linecap="round" stroke-miterlimit="10" stroke-width="1"/>
    <path id="Path_3920" data-name="Path 3920" d="M342.938,539.22a58.59,58.59,0,0,1,6.88.084.658.658,0,0,1,.583.574l.212,1.807a.278.278,0,0,1-.049.239.309.309,0,0,1-.168.044c-.963.026-1.931-.088-2.89,0-.6.044-1.184.159-1.767.225a21.1,21.1,0,0,1-2.943.053,14.779,14.779,0,0,1-4.092-.5c-.027,0,.079-1.493.079-1.639,0-.7-.026-.756.694-.778Z" transform="translate(167.843 1427.24)" fill="none" stroke="#33313f" stroke-linecap="round" stroke-miterlimit="10" stroke-width="1"/>
    <path id="Path_3921" data-name="Path 3921" d="M438.054,524.12a57.64,57.64,0,0,1,6.88.088.65.65,0,0,1,.583.574l.212,1.8a.278.278,0,0,1-.049.239.247.247,0,0,1-.168.044c-.963.026-1.931-.088-2.89,0-.6.044-1.184.163-1.767.225a20.442,20.442,0,0,1-2.943.053,14.831,14.831,0,0,1-4.1-.5c-.022,0,.08-1.494.08-1.639,0-.7-.022-.756.7-.778Z" transform="translate(114.757 1435.668)" fill="none" stroke="#33313f" stroke-linecap="round" stroke-miterlimit="10" stroke-width="1"/>
    <path id="Path_3922" data-name="Path 3922" d="M441.647,535.45a58.5,58.5,0,0,0-6.875.084.65.65,0,0,0-.583.574l-.2,1.8a.252.252,0,0,0,.049.239.243.243,0,0,0,.168.044c.963.027,1.927-.084,2.89,0,.6.044,1.184.164,1.767.23a21.814,21.814,0,0,0,2.943.053,14.789,14.789,0,0,0,4.1-.5c.022,0-.08-1.5-.08-1.639,0-.7.027-.76-.694-.778Z" transform="translate(114.667 1429.344)" fill="none" stroke="#33313f" stroke-linecap="round" stroke-miterlimit="10" stroke-width="1"/>
    <path id="Path_3923" data-name="Path 3923" d="M386.63,527.944s6.5-.331,7.666,0" transform="translate(141.092 1433.58)" fill="none" stroke="#33313f" stroke-miterlimit="10" stroke-width="1"/>
    <path id="Path_3924" data-name="Path 3924" d="M402.945,520.21s2.832,2.832,2.832,3.5-3.667,3-3.667,3" transform="translate(132.451 1437.814)" fill="none" stroke="#33313f" stroke-miterlimit="10" stroke-width="1"/>
    <path id="Path_3925" data-name="Path 3925" d="M482.84,510.8s5.89-2.757,7.1-2.89" transform="translate(87.393 1444.68)" fill="none" stroke="#33313f" stroke-miterlimit="10" stroke-width="1"/>
    <path id="Path_3926" data-name="Path 3926" d="M495.92,500.58s3.69,1.555,3.941,2.17-2.262,4.162-2.262,4.162" transform="translate(80.093 1448.771)" fill="none" stroke="#33313f" stroke-miterlimit="10" stroke-width="1"/>
    <path id="Path_3927" data-name="Path 3927" d="M482.7,530.43s5.987,2.541,6.893,3.354" transform="translate(87.471 1432.111)" fill="none" stroke="#33313f" stroke-miterlimit="10" stroke-width="1"/>
    <path id="Path_3928" data-name="Path 3928" d="M497.222,530.89s1.326,3.787,1.016,4.388-4.609,1.1-4.609,1.1" transform="translate(81.371 1431.854)" fill="none" stroke="#33313f" stroke-miterlimit="10" stroke-width="1"/>
    <path id="Path_3929" data-name="Path 3929" d="M529.954,499a2.921,2.921,0,0,1,.19,1.538.227.227,0,0,1-.027.119.248.248,0,0,1-.186.066l-4.2.163s.239-1.237.27-1.326c.141-.5.513-.371.985-.4Z" transform="translate(63.454 1449.652)" fill="#fff" stroke="#33313f" stroke-linecap="round" stroke-miterlimit="10" stroke-width="1"/>
    <ellipse id="Ellipse_406" data-name="Ellipse 406" cx="33.534" cy="33.534" rx="33.534" ry="33.534" transform="translate(437.464 2030.258)" fill="#bf353e"/>
    <rect id="Rectangle_1265" data-name="Rectangle 1265" width="10.188" height="18.253" transform="translate(455.717 2090.109)" fill="#bf353e"/>
    <rect id="Rectangle_1266" data-name="Rectangle 1266" width="10.188" height="18.253" transform="translate(476.092 2090.109)" fill="#bf353e"/>
    <ellipse id="Ellipse_407" data-name="Ellipse 407" cx="8.49" cy="3.184" rx="8.49" ry="3.184" transform="translate(455.717 2105.391)" fill="#bf353e"/>
    <ellipse id="Ellipse_408" data-name="Ellipse 408" cx="8.49" cy="3.184" rx="8.49" ry="3.184" transform="translate(476.092 2104.967)" fill="#bf353e"/>
    <ellipse id="Ellipse_409" data-name="Ellipse 409" cx="11.461" cy="11.461" rx="11.461" ry="11.461" transform="translate(460.386 2043.84)" fill="#fff"/>
    <ellipse id="Ellipse_410" data-name="Ellipse 410" cx="3.82" cy="3.82" rx="3.82" ry="3.82" transform="translate(468.026 2051.48)" fill="#3f3d56"/>
    <path id="Path_3848" data-name="Path 3848" d="M826.644,606.741c-2.708-12.126,5.948-24.38,19.333-27.368s26.43,4.419,29.138,16.545-6.163,16.6-19.548,19.588S829.352,618.868,826.644,606.741Z" transform="translate(-388.174 1425.863)" fill="#e6e6e6"/>
    <ellipse id="Ellipse_418" data-name="Ellipse 418" cx="32.713" cy="32.713" rx="32.713" ry="32.713" transform="translate(428.167 1928.852)" fill="#bf353e"/>
    <rect id="Rectangle_1269" data-name="Rectangle 1269" width="9.938" height="17.806" transform="translate(455.708 2005.018) rotate(-179.734)" fill="#bf353e"/>
    <rect id="Rectangle_1270" data-name="Rectangle 1270" width="9.938" height="17.806" transform="translate(475.583 2005.111) rotate(-179.734)" fill="#bf353e"/>
    <ellipse id="Ellipse_419" data-name="Ellipse 419" cx="8.282" cy="3.106" rx="8.282" ry="3.106" transform="matrix(-0.864, -0.504, 0.504, -0.864, 478.266, 2013.818)" fill="#bf353e"/>
    <ellipse id="Ellipse_420" data-name="Ellipse 420" cx="8.282" cy="3.106" rx="8.282" ry="3.106" transform="matrix(-0.864, -0.504, 0.504, -0.864, 458.805, 2013.729)" fill="#bf353e"/>
    <ellipse id="Ellipse_421" data-name="Ellipse 421" cx="11.18" cy="11.18" rx="11.18" ry="11.18" transform="translate(450.566 1942.105)" fill="#fff"/>
    <ellipse id="Ellipse_422" data-name="Ellipse 422" cx="3.727" cy="3.727" rx="3.727" ry="3.727" transform="translate(461.85 1944.816)" fill="#3f3d56"/>
    <path id="Path_3853" data-name="Path 3853" d="M839.9,476.473c-2.586-11.842,5.913-23.755,18.983-26.61s25.763,4.43,28.349,16.272-6.087,16.164-19.158,19.019S842.49,488.315,839.9,476.473Z" transform="translate(-410.615 1454.521)" fill="#023e57"/>
    <ellipse id="Ellipse_423" data-name="Ellipse 423" cx="5.135" cy="16.356" rx="5.135" ry="16.356" transform="translate(481.978 1956.1) rotate(-112.905)" fill="#bf353e"/>
    <ellipse id="Ellipse_424" data-name="Ellipse 424" cx="5.135" cy="16.356" rx="5.135" ry="16.356" transform="translate(415.141 1983.211) rotate(-112.905)" fill="#bf353e"/>
    <path id="Path_3854" data-name="Path 3854" d="M849.588,540.378a7.454,7.454,0,1,0,14.907.084v-.015c.019-4.116-3.314-4.985-7.43-5S849.608,536.261,849.588,540.378Z" transform="translate(-395.32 1435.441)" fill="#fff"/>
  </g>
</svg>
