<svg xmlns="http://www.w3.org/2000/svg" width="633.772" height="378.051" viewBox="0 0 633.772 378.051">
  <g id="we-known-img-8" transform="translate(-1034.438 -4588)">
    <ellipse id="Ellipse_446" data-name="Ellipse 446" cx="32.713" cy="32.713" rx="32.713" ry="32.713" transform="translate(1175.127 4881.084)" fill="#bf353e"/>
    <rect id="Rectangle_1278" data-name="Rectangle 1278" width="9.938" height="17.806" transform="translate(1202.667 4957.252) rotate(-179.734)" fill="#bf353e"/>
    <rect id="Rectangle_1279" data-name="Rectangle 1279" width="9.938" height="17.806" transform="translate(1222.543 4957.346) rotate(-179.734)" fill="#bf353e"/>
    <ellipse id="Ellipse_447" data-name="Ellipse 447" cx="8.282" cy="3.106" rx="8.282" ry="3.106" transform="matrix(-0.864, -0.504, 0.504, -0.864, 1225.226, 4966.051)" fill="#bf353e"/>
    <ellipse id="Ellipse_445" data-name="Ellipse 445" cx="8.282" cy="3.106" rx="8.282" ry="3.106" transform="matrix(-0.864, -0.504, 0.504, -0.864, 1205.764, 4965.961)" fill="#bf353e"/>
    <ellipse id="Ellipse_448" data-name="Ellipse 448" cx="11.18" cy="11.18" rx="11.18" ry="11.18" transform="translate(1197.526 4894.342)" fill="#fff"/>
    <ellipse id="Ellipse_449" data-name="Ellipse 449" cx="3.727" cy="3.727" rx="3.727" ry="3.727" transform="translate(1208.809 4897.049)" fill="#3f3d56"/>
    <path id="Path_3883" data-name="Path 3883" d="M839.9,476.473c-2.586-11.842,5.913-23.755,18.983-26.61s25.763,4.43,28.349,16.272-6.087,16.164-19.158,19.019S842.49,488.315,839.9,476.473Z" transform="translate(336.345 4406.756)" fill="#023e57"/>
    <ellipse id="Ellipse_450" data-name="Ellipse 450" cx="5.135" cy="16.356" rx="5.135" ry="16.356" transform="matrix(0.695, -0.719, 0.719, 0.695, 1225.22, 4893.979)" fill="#bf353e"/>
    <ellipse id="Ellipse_451" data-name="Ellipse 451" cx="5.135" cy="16.356" rx="5.135" ry="16.356" transform="matrix(-1, -0.017, 0.017, -1, 1180.016, 4940.791)" fill="#bf353e"/>
    <path id="Path_3884" data-name="Path 3884" d="M849.588,540.378a7.454,7.454,0,1,0,14.907.084v-.015c.019-4.116-3.314-4.985-7.43-5S849.608,536.261,849.588,540.378Z" transform="translate(351.64 4387.674)" fill="#fff"/>
    <path id="Path_3522" data-name="Path 3522" d="M419.676,655.277l10.428-9.1a174.192,174.192,0,0,0-2.439-19.481l-5.755,2.435,5.339-4.657c-1.536-7.952-3.057-13.12-3.057-13.12s-21.04,18.684-32.814,41.477l5.165,16.99-7.889-11.235a70.483,70.483,0,0,0-3,8.333c-8.21,28.638-5.512,54.535,6.026,57.842s27.546-17.227,35.755-45.865a92.775,92.775,0,0,0,2.892-28.129Z" transform="translate(1194.351 4239.955)" fill="#f1f1f1"/>
    <path id="Path_3523" data-name="Path 3523" d="M447.29,677.545l13.629-2.4a174.184,174.184,0,0,0,7.982-17.937l-6.185-.89,6.978-1.227c2.8-7.6,4.165-12.812,4.165-12.812s-27.669,5.119-49.529,18.544l-4.361,17.214-.946-13.7a70.477,70.477,0,0,0-6.874,5.583c-21.831,20.272-32.908,43.836-24.741,52.631s32.485-.509,54.316-20.781a92.772,92.772,0,0,0,17.015-22.585Z" transform="translate(1194.351 4239.955)" fill="#f1f1f1"/>
    <path id="Path_3701" data-name="Path 3701" d="M597.13,210.7v-46.54H620.4V141.5H506.5V255.4h97.366V244.263a15.808,15.808,0,0,1,15.807-15.808h.727V210.7Z" transform="translate(727.966 4446.5)" fill="#f0f0f0"/>
    <rect id="Rectangle_1195" data-name="Rectangle 1195" width="76.355" height="16.035" transform="translate(1374.949 4881.969)" fill="#bf353e"/>
    <rect id="Rectangle_1196" data-name="Rectangle 1196" width="111.479" height="15.271" transform="translate(1356.624 4803.322)" fill="#f0f0f0"/>
    <rect id="Rectangle_1197" data-name="Rectangle 1197" width="532" height="2" transform="translate(1052 4964)" fill="#3f3d56"/>
    <path id="Path_3702" data-name="Path 3702" d="M820.155,573.986H680.92a16.439,16.439,0,0,1-16.42-16.42V298.92a16.439,16.439,0,0,1,16.42-16.42H820.154a16.439,16.439,0,0,1,16.421,16.42V557.565a16.439,16.439,0,0,1-16.42,16.421ZM680.921,283.725a15.213,15.213,0,0,0-15.2,15.2V557.565a15.213,15.213,0,0,0,15.2,15.2H820.154a15.213,15.213,0,0,0,15.2-15.2V298.92a15.213,15.213,0,0,0-15.2-15.2Z" transform="translate(666.72 4391.844)" fill="#023e57"/>
    <path id="Path_3703" data-name="Path 3703" d="M775.674,297.848a3.674,3.674,0,1,1,3.674-3.674A3.674,3.674,0,0,1,775.674,297.848Zm0-6.124a2.449,2.449,0,1,0,2.449,2.449A2.449,2.449,0,0,0,775.674,291.725Z" transform="translate(625.049 4388.742)" fill="#3f3d56"/>
    <rect id="Rectangle_1198" data-name="Rectangle 1198" width="26.944" height="1.225" transform="translate(1409.908 4682.305)" fill="#3f3d56"/>
    <path id="Path_3704" data-name="Path 3704" d="M896.489,311.5v48.989A48.991,48.991,0,0,1,847.5,311.5Z" transform="translate(595.782 4380.604)" fill="#bf353e"/>
    <path id="Path_3705" data-name="Path 3705" d="M832.754,568.306H681.5V310.5H832.754Zm-150.029-1.225h148.8V311.725h-148.8Z" transform="translate(660.13 4380.99)" fill="#023e57"/>
    <ellipse id="Ellipse_338" data-name="Ellipse 338" cx="16.798" cy="16.416" rx="16.798" ry="16.416" transform="translate(1439.852 4704.824)" opacity="0.1"/>
    <ellipse id="Ellipse_339" data-name="Ellipse 339" cx="16.798" cy="16.416" rx="16.798" ry="16.416" transform="translate(1437.561 4707.115)" fill="#bf353e"/>
    <rect id="Rectangle_1199" data-name="Rectangle 1199" width="23.67" height="8.399" transform="translate(1348.225 4701.77)" fill="#023e57"/>
    <rect id="Rectangle_1200" data-name="Rectangle 1200" width="23.67" height="8.399" transform="translate(1361.205 4783.469)" fill="#023e57"/>
    <path id="Path_3706" data-name="Path 3706" d="M826.175,502.421H713.5V486.5H826.175ZM714.725,501.2H824.95V487.725H714.725Z" transform="translate(647.726 4312.766)" fill="#023e57"/>
    <rect id="Rectangle_1201" data-name="Rectangle 1201" width="111.479" height="15.271" transform="translate(1356.624 4849.898)" fill="#f0f0f0"/>
    <rect id="Rectangle_1202" data-name="Rectangle 1202" width="23.67" height="8.399" transform="translate(1361.205 4830.047)" fill="#023e57"/>
    <path id="Path_3707" data-name="Path 3707" d="M826.175,578.421H713.5V562.5H826.175ZM714.725,577.2H824.95V563.725H714.725Z" transform="translate(647.726 4283.305)" fill="#023e57"/>
    <path id="Path_3708" data-name="Path 3708" d="M819.658,630.646H742.5V613.5h77.158Zm-75.933-1.225h74.709v-14.7H743.725Z" transform="translate(636.484 4263.537)" fill="#023e57"/>
    <path id="Path_3709" data-name="Path 3709" d="M884.746,498.624a6.124,6.124,0,0,1-10.845,3.9l-.006-.006a6.123,6.123,0,1,1,10.674-5.346.006.006,0,0,0,0,0l0,0A6.264,6.264,0,0,1,884.746,498.624Z" transform="translate(586.094 4310.441)" fill="#bf353e"/>
    <path id="Path_3710" data-name="Path 3710" d="M885.523,500.174a6.124,6.124,0,0,1-10.845,3.9l-.006-.006a6.26,6.26,0,0,1-.172-1.445,6.124,6.124,0,0,1,10.845-3.9.006.006,0,0,0,0,0l0,0a6.26,6.26,0,0,1,.171,1.445Z" transform="translate(585.316 4308.891)" opacity="0.1"/>
    <ellipse id="Ellipse_340" data-name="Ellipse 340" cx="6.108" cy="6.108" rx="6.108" ry="6.108" transform="translate(1461.231 4806.377)" fill="#bf353e"/>
    <path id="Path_3711" data-name="Path 3711" d="M884.746,574.623a6.124,6.124,0,0,1-10.845,3.9l-.006-.006a6.123,6.123,0,1,1,10.674-5.346.006.006,0,0,0,0,0l0,0a6.264,6.264,0,0,1,.171,1.445Z" transform="translate(586.094 4280.98)" fill="#bf353e"/>
    <path id="Path_3712" data-name="Path 3712" d="M885.523,576.174a6.124,6.124,0,0,1-10.845,3.9l-.006-.006a6.26,6.26,0,0,1-.172-1.445,6.124,6.124,0,0,1,10.845-3.9.006.006,0,0,0,0,0l0,0a6.261,6.261,0,0,1,.171,1.445Z" transform="translate(585.316 4279.43)" opacity="0.1"/>
    <ellipse id="Ellipse_341" data-name="Ellipse 341" cx="6.108" cy="6.108" rx="6.108" ry="6.108" transform="translate(1461.231 4852.953)" fill="#bf353e"/>
    <rect id="Rectangle_1203" data-name="Rectangle 1203" width="32.069" height="32.069" transform="translate(1332.19 4617.016)" fill="#f0f0f0"/>
    <path id="Path_3713" data-name="Path 3713" d="M864.848,218.2a7.348,7.348,0,1,1,7.348-7.348A7.348,7.348,0,0,1,864.848,218.2Zm0-13.472a6.124,6.124,0,1,0,6.124,6.124,6.124,6.124,0,0,0-6.124-6.124Z" transform="translate(591.906 4422.465)" fill="#3f3d56"/>
    <path id="Path_3715" data-name="Path 3715" d="M991.422,578.421H975.5V562.5h15.922Zm-14.7-1.225H990.2V563.725H976.725Z" transform="translate(546.165 4283.305)" fill="#023e57"/>
    <circle id="Ellipse_345" data-name="Ellipse 345" cx="5.241" cy="5.241" r="5.241" transform="translate(1034.438 4873.1)" fill="#ff6584"/>
    <rect id="Rectangle_1204" data-name="Rectangle 1204" width="1.604" height="59.677" transform="translate(1064.555 4905.658)" fill="#3f3d56"/>
    <circle id="Ellipse_346" data-name="Ellipse 346" cx="8.439" cy="8.439" r="8.439" transform="translate(1056.918 4897.219)" fill="#3f3d56"/>
    <path id="Path_3729" data-name="Path 3729" d="M281.075,723.616s-1.206-25.93-25.92-22.916" transform="translate(784.282 4218.822)" fill="#3f3d56"/>
  </g>
</svg>
