<svg xmlns="http://www.w3.org/2000/svg" xmlns:xlink="http://www.w3.org/1999/xlink" width="558.198" height="387.602" viewBox="0 0 558.198 387.602">
  <defs>
    <clipPath id="clip-path">
      <ellipse id="Ellipse_470" data-name="Ellipse 470" cx="32.713" cy="32.713" rx="32.713" ry="32.713" transform="translate(0 0)" fill="#bf353e"/>
    </clipPath>
  </defs>
  <g id="we-known-img-4" transform="translate(-1045.256 -2368.047)">
    <circle id="Ellipse_484" data-name="Ellipse 484" cx="3.5" cy="3.5" r="3.5" transform="translate(1340 2429)" fill="#fff"/>
    <path id="Path_3286" data-name="Path 3286" d="M884.632,185.664h-470.7a6.768,6.768,0,0,0-6.762,6.762V511.385a6.768,6.768,0,0,0,6.762,6.762h470.7a6.756,6.756,0,0,0,5.142-2.373,1.579,1.579,0,0,0,.147-.186,6.331,6.331,0,0,0,.969-1.636,6.6,6.6,0,0,0,.512-2.567V192.426a6.769,6.769,0,0,0-6.77-6.762Zm4.839,325.721a4.788,4.788,0,0,1-.8,2.652,5,5,0,0,1-1.83,1.644,4.8,4.8,0,0,1-2.21.535h-470.7a4.837,4.837,0,0,1-4.831-4.831V192.426a4.837,4.837,0,0,1,4.831-4.831h470.7a4.839,4.839,0,0,1,4.839,4.832Z" transform="translate(679.559 2182.383)" fill="#023e57"/>
    <rect id="Rectangle_1120" data-name="Rectangle 1120" width="482.298" height="1.933" transform="translate(1087.691 2395.148)" fill="#023e57"/>
    <ellipse id="Ellipse_270" data-name="Ellipse 270" cx="5.799" cy="5.799" rx="5.799" ry="5.799" transform="translate(1098.322 2376.744)" fill="#023e57"/>
    <ellipse id="Ellipse_271" data-name="Ellipse 271" cx="5.799" cy="5.799" rx="5.799" ry="5.799" transform="translate(1114.996 2376.744)" fill="#023e57"/>
    <ellipse id="Ellipse_272" data-name="Ellipse 272" cx="5.799" cy="5.799" rx="5.799" ry="5.799" transform="translate(1131.668 2376.744)" fill="#023e57"/>
    <path id="Path_3287" data-name="Path 3287" d="M843.891,370.573H467.8a13.2,13.2,0,0,1-13.183-13.183V277.519A13.2,13.2,0,0,1,467.8,264.336H843.891a13.2,13.2,0,0,1,13.183,13.183V357.39A13.2,13.2,0,0,1,843.891,370.573ZM467.8,265.887a11.645,11.645,0,0,0-11.632,11.632V357.39A11.645,11.645,0,0,0,467.8,369.022H843.891a11.645,11.645,0,0,0,11.632-11.632V277.519a11.645,11.645,0,0,0-11.632-11.632Z" transform="translate(668.904 2164.717)" fill="#f2f2f2"/>
    <path id="Path_3288" data-name="Path 3288" d="M550.77,562.636H467.8a13.2,13.2,0,0,1-13.183-13.183V490.519A13.2,13.2,0,0,1,467.8,477.336H550.77a13.2,13.2,0,0,1,13.183,13.183v58.934A13.2,13.2,0,0,1,550.77,562.636ZM467.8,478.887a11.645,11.645,0,0,0-11.632,11.632v58.934A11.645,11.645,0,0,0,467.8,561.085H550.77A11.645,11.645,0,0,0,562.4,549.453V490.519a11.645,11.645,0,0,0-11.632-11.632Z" transform="translate(668.904 2116.887)" fill="#f2f2f2"/>
    <path id="Path_3289" data-name="Path 3289" d="M928.77,562.636H845.8a13.2,13.2,0,0,1-13.183-13.183V490.519A13.2,13.2,0,0,1,845.8,477.336H928.77a13.2,13.2,0,0,1,13.183,13.183v58.934A13.2,13.2,0,0,1,928.77,562.636ZM845.8,478.887a11.645,11.645,0,0,0-11.632,11.632v58.934A11.645,11.645,0,0,0,845.8,561.085H928.77A11.645,11.645,0,0,0,940.4,549.453V490.519a11.645,11.645,0,0,0-11.632-11.632Z" transform="translate(584.025 2116.887)" fill="#f2f2f2"/>
    <path id="Path_3290" data-name="Path 3290" d="M747.77,562.636H664.8a13.2,13.2,0,0,1-13.183-13.183V490.519A13.2,13.2,0,0,1,664.8,477.336H747.77a13.2,13.2,0,0,1,13.183,13.183v58.934A13.2,13.2,0,0,1,747.77,562.636ZM664.8,478.887a11.645,11.645,0,0,0-11.632,11.632v58.934A11.645,11.645,0,0,0,664.8,561.085H747.77A11.645,11.645,0,0,0,759.4,549.453V490.519a11.645,11.645,0,0,0-11.632-11.632Z" transform="translate(624.67 2116.887)" fill="#f2f2f2"/>
    <rect id="Rectangle_1121" data-name="Rectangle 1121" width="1.551" height="408.972" transform="translate(1127.768 2434.195) rotate(-76.252)" fill="#f2f2f2"/>
    <rect id="Rectangle_1122" data-name="Rectangle 1122" width="405.486" height="1.551" transform="matrix(0.971, -0.24, 0.24, 0.971, 1127.77, 2530.17)" fill="#f2f2f2"/>
    <path id="Path_3291" data-name="Path 3291" d="M864,405.3H487.909A12.809,12.809,0,0,1,475.114,392.5V312.63a12.809,12.809,0,0,1,12.8-12.795H864a12.81,12.81,0,0,1,12.8,12.795V392.5A12.81,12.81,0,0,1,864,405.3Z" transform="translate(664.301 2156.746)" fill="#fff"/>
    <rect id="Rectangle_1123" data-name="Rectangle 1123" width="1.551" height="126.048" transform="translate(1280.529 2598.947) rotate(-52.043)" fill="#f2f2f2"/>
    <rect id="Rectangle_1124" data-name="Rectangle 1124" width="125.618" height="1.551" transform="translate(1282.33 2676.213) rotate(-38.666)" fill="#f2f2f2"/>
    <rect id="Rectangle_1125" data-name="Rectangle 1125" width="1.551" height="126.048" transform="translate(1127.766 2598.947) rotate(-52.043)" fill="#f2f2f2"/>
    <rect id="Rectangle_1126" data-name="Rectangle 1126" width="125.618" height="1.551" transform="translate(1129.566 2676.213) rotate(-38.666)" fill="#f2f2f2"/>
    <rect id="Rectangle_1127" data-name="Rectangle 1127" width="1.551" height="126.048" transform="translate(1420.887 2598.947) rotate(-52.043)" fill="#f2f2f2"/>
    <rect id="Rectangle_1128" data-name="Rectangle 1128" width="125.618" height="1.551" transform="translate(1422.688 2676.213) rotate(-38.666)" fill="#f2f2f2"/>
    <path id="Path_3292" data-name="Path 3292" d="M762.882,635.36H679.909a12.809,12.809,0,0,1-12.795-12.795V563.631a12.81,12.81,0,0,1,12.795-12.795h82.974a12.81,12.81,0,0,1,12.8,12.795v58.934a12.809,12.809,0,0,1-12.795,12.795Z" transform="translate(621.189 2100.383)" fill="#bf353e"/>
    <path id="Path_3293" data-name="Path 3293" d="M797.1,660.887H627.275a.775.775,0,0,1,0-1.551H797.1a.775.775,0,0,1,0,1.551Z" transform="translate(630.309 2076.02)" fill="#ccc"/>
    <path id="Path_3939" data-name="Path 3939" d="M746.01,660.887H627.043c-.3,0-.543-.347-.543-.776s.243-.775.543-.775H746.01c.3,0,.543.347.543.775S746.31,660.887,746.01,660.887Z" transform="translate(856.901 2076.02)" fill="#ccc"/>
    <path id="Path_3295" data-name="Path 3295" d="M742.983,596.243H721.271a6.2,6.2,0,0,1,0-12.407h21.713a6.2,6.2,0,0,1,0,12.407Z" transform="translate(610.42 2092.973)" fill="#fff"/>
    <path id="Path_3296" data-name="Path 3296" d="M752.12,623.243h-47.3a6.2,6.2,0,0,1,0-12.407h47.3a6.2,6.2,0,0,1,0,12.407Z" transform="translate(614.115 2086.91)" fill="#fff"/>
    <path id="Path_3297" data-name="Path 3297" d="M567.882,577.36H484.909a12.809,12.809,0,0,1-12.795-12.795V505.631a12.809,12.809,0,0,1,12.8-12.795h82.973a12.81,12.81,0,0,1,12.8,12.795v58.934a12.809,12.809,0,0,1-12.795,12.795Z" transform="translate(664.975 2113.406)" fill="#bf353e"/>
    <path id="Path_3298" data-name="Path 3298" d="M547.983,538.243H526.271a6.2,6.2,0,0,1,0-12.407h21.713a6.2,6.2,0,0,1,0,12.407Z" transform="translate(654.207 2105.996)" fill="#fff"/>
    <path id="Path_3299" data-name="Path 3299" d="M557.12,565.243h-47.3a6.2,6.2,0,0,1,0-12.407h47.3a6.2,6.2,0,0,1,0,12.407Z" transform="translate(657.902 2099.934)" fill="#fff"/>
    <path id="Path_3300" data-name="Path 3300" d="M951.882,606.36H868.909a12.809,12.809,0,0,1-12.8-12.795V534.631a12.81,12.81,0,0,1,12.8-12.795h82.973a12.81,12.81,0,0,1,12.8,12.795v58.934A12.809,12.809,0,0,1,951.882,606.36Z" transform="translate(578.75 2106.895)" fill="#e6e6e6"/>
    <path id="Path_3301" data-name="Path 3301" d="M931.983,567.243H910.271a6.2,6.2,0,0,1,0-12.407h21.713a6.2,6.2,0,0,1,0,12.407Z" transform="translate(567.982 2099.484)" fill="#fff"/>
    <path id="Path_3302" data-name="Path 3302" d="M941.12,594.243h-47.3a6.2,6.2,0,0,1,0-12.407h47.3a6.2,6.2,0,0,1,0,12.407Z" transform="translate(571.676 2093.422)" fill="#fff"/>
    <path id="Path_3314" data-name="Path 3314" d="M986.1,631.887H816.275a.775.775,0,0,1,0-1.551H986.1a.775.775,0,0,1,0,1.551Z" transform="translate(587.869 2082.531)" fill="#ccc"/>
    <path id="Path_3315" data-name="Path 3315" d="M794.9,411.9v.981H629.184v-1.026l.892-1.262,52.537-74.17a2.625,2.625,0,0,1,4.257,0L722.1,386.158l25.078-35.093a2.625,2.625,0,0,1,4.249,0l42.58,59.581Z" transform="translate(629.705 2148.773)" fill="#bf353e"/>
    <ellipse id="Ellipse_277" data-name="Ellipse 277" cx="19.288" cy="19.288" rx="19.288" ry="19.288" transform="translate(1239.258 2472.748)" fill="#bf353e"/>
    <path id="Path_3316" data-name="Path 3316" d="M863.891,405.573H487.8a13.2,13.2,0,0,1-13.183-13.183V312.519A13.2,13.2,0,0,1,487.8,299.336H863.891a13.2,13.2,0,0,1,13.183,13.183V392.39A13.2,13.2,0,0,1,863.891,405.573ZM487.8,300.887a11.645,11.645,0,0,0-11.632,11.632V392.39A11.645,11.645,0,0,0,487.8,404.022H863.891a11.645,11.645,0,0,0,11.632-11.632V312.519a11.645,11.645,0,0,0-11.632-11.632Z" transform="translate(664.414 2156.857)" fill="#023e57"/>
    <ellipse id="Ellipse_461" data-name="Ellipse 461" cx="54.505" cy="4.157" rx="54.505" ry="4.157" transform="translate(1045.256 2747.334)" fill="#e6e6e6"/>
    <ellipse id="Ellipse_462" data-name="Ellipse 462" cx="32.713" cy="32.713" rx="32.713" ry="32.713" transform="translate(1067.395 2669.328)" fill="#bf353e"/>
    <rect id="Rectangle_1309" data-name="Rectangle 1309" width="9.938" height="17.806" transform="translate(1094.934 2745.494) rotate(-179.734)" fill="#bf353e"/>
    <rect id="Rectangle_1310" data-name="Rectangle 1310" width="9.938" height="17.806" transform="translate(1114.811 2745.588) rotate(-179.734)" fill="#bf353e"/>
    <ellipse id="Ellipse_463" data-name="Ellipse 463" cx="8.282" cy="3.106" rx="8.282" ry="3.106" transform="matrix(-0.864, -0.504, 0.504, -0.864, 1117.492, 2754.295)" fill="#bf353e"/>
    <ellipse id="Ellipse_464" data-name="Ellipse 464" cx="8.282" cy="3.106" rx="8.282" ry="3.106" transform="translate(1098.959 2753.328) rotate(-158)" fill="#bf353e"/>
    <path id="Path_3931" data-name="Path 3931" d="M839.9,476.473c-2.586-11.842,5.913-23.755,18.983-26.61s25.763,4.43,28.349,16.272-6.087,16.164-19.158,19.019S842.49,488.315,839.9,476.473Z" transform="translate(228.613 2194.998)" fill="#023e57"/>
    <ellipse id="Ellipse_468" data-name="Ellipse 468" cx="5.135" cy="16.356" rx="5.135" ry="16.356" transform="matrix(-0.438, -0.899, 0.899, -0.438, 1120.369, 2701.676)" fill="#bf353e"/>
    <ellipse id="Ellipse_466" data-name="Ellipse 466" cx="11.18" cy="11.18" rx="11.18" ry="11.18" transform="translate(1101.162 2682.584)" fill="#fff"/>
    <ellipse id="Ellipse_467" data-name="Ellipse 467" cx="3.727" cy="3.727" rx="3.727" ry="3.727" transform="translate(1114.555 2688.293)" fill="#3f3d56"/>
    <g id="Mask_Group_8" data-name="Mask Group 8" transform="translate(1067.395 2669.328)" clip-path="url(#clip-path)">
      <ellipse id="Ellipse_465" data-name="Ellipse 465" cx="5.135" cy="16.356" rx="5.135" ry="16.356" transform="translate(70.282 22.332) rotate(65)" fill="#ab272f"/>
    </g>
    <ellipse id="Ellipse_469" data-name="Ellipse 469" cx="5.135" cy="16.356" rx="5.135" ry="16.356" transform="translate(1135.338 2689.891) rotate(61)" fill="#bf353e"/>
    <g id="Group_1237" data-name="Group 1237">
      <ellipse id="Ellipse_492" data-name="Ellipse 492" cx="51.335" cy="51.335" rx="51.335" ry="51.335" transform="translate(1489.057 2632.686)" fill="#bf353e"/>
      <ellipse id="Ellipse_493" data-name="Ellipse 493" cx="47.085" cy="47.085" rx="47.085" ry="47.085" transform="translate(1493.306 2636.934)" fill="#fff"/>
      <ellipse id="Ellipse_494" data-name="Ellipse 494" cx="6.289" cy="6.289" rx="6.289" ry="6.289" transform="translate(1533.933 2677.9)" fill="#023e57"/>
      <rect id="Rectangle_1315" data-name="Rectangle 1315" width="2.72" height="5.099" transform="translate(1538.861 2639.314)" fill="#023e57"/>
      <rect id="Rectangle_1316" data-name="Rectangle 1316" width="2.72" height="5.099" transform="translate(1538.861 2723.967)" fill="#023e57"/>
      <rect id="Rectangle_1317" data-name="Rectangle 1317" width="2.72" height="5.099" transform="translate(1500.445 2682.83) rotate(90)" fill="#023e57"/>
      <rect id="Rectangle_1318" data-name="Rectangle 1318" width="2.72" height="5.099" transform="translate(1585.098 2682.83) rotate(90)" fill="#023e57"/>
      <path id="Path_3938" data-name="Path 3938" d="M450.924,309.808l2.324-5.315,29.124,16.13Z" transform="translate(1087.484 2377.113)" fill="#023e57"/>
      <rect id="Rectangle_1319" data-name="Rectangle 1319" width="13.259" height="15.298" transform="translate(1533.762 2620.277)" fill="#bf353e"/>
      <ellipse id="Ellipse_495" data-name="Ellipse 495" cx="15.299" cy="4.25" rx="15.299" ry="4.25" transform="translate(1525.094 2616.027)" fill="#bf353e"/>
    </g>
  </g>
</svg>
