<svg xmlns="http://www.w3.org/2000/svg" width="487.452" height="386.033" viewBox="0 0 487.452 386.033">
  <g id="we-known-img-6" transform="translate(-1068.867 -3369.484)">
    <rect id="Rectangle_1333" data-name="Rectangle 1333" width="487.244" height="312.053" transform="translate(1069.075 3443.463)" fill="#e6e6e6"/>
    <rect id="Rectangle_1334" data-name="Rectangle 1334" width="459.379" height="254.453" transform="translate(1083.008 3482.604)" fill="#fff"/>
    <rect id="Rectangle_1335" data-name="Rectangle 1335" width="487.244" height="20.7" transform="translate(1068.867 3443.188)" fill="#bf353e"/>
    <ellipse id="Ellipse_508" data-name="Ellipse 508" cx="3.837" cy="3.837" rx="3.837" ry="3.837" transform="translate(1080.413 3449.934)" fill="#fff"/>
    <ellipse id="Ellipse_509" data-name="Ellipse 509" cx="3.837" cy="3.837" rx="3.837" ry="3.837" transform="translate(1094.976 3449.934)" fill="#fff"/>
    <ellipse id="Ellipse_510" data-name="Ellipse 510" cx="3.837" cy="3.837" rx="3.837" ry="3.837" transform="translate(1109.539 3449.934)" fill="#fff"/>
    <path id="Path_4067" data-name="Path 4067" d="M824.908,243.862H675.349a1.327,1.327,0,0,1,0-2.632H824.908a1.327,1.327,0,0,1,0,2.632Z" transform="translate(587.496 3262.574)" fill="#ccc"/>
    <path id="Path_4068" data-name="Path 4068" d="M708.746,262.029h-95.09a1.327,1.327,0,0,1,0-2.632h95.09a1.327,1.327,0,0,1,0,2.632Z" transform="translate(600.028 3258.883)" fill="#ccc"/>
    <path id="Path_4069" data-name="Path 4069" d="M838.794,262.359H743.7a1.327,1.327,0,0,1,0-2.632h95.09a1.327,1.327,0,0,1,0,2.632Z" transform="translate(573.609 3258.816)" fill="#ccc"/>
    <path id="Path_4070" data-name="Path 4070" d="M709.035,280.2H613.946a1.327,1.327,0,0,1,0-2.632h95.089a1.327,1.327,0,0,1,0,2.632Z" transform="translate(599.97 3255.191)" fill="#ccc"/>
    <path id="Path_4071" data-name="Path 4071" d="M709.325,298.364h-95.09a1.327,1.327,0,0,1,0-2.632h95.09a1.327,1.327,0,0,1,0,2.632Z" transform="translate(599.911 3251.502)" fill="#ccc"/>
    <path id="Path_4072" data-name="Path 4072" d="M780.787,280.2H753.552a1.327,1.327,0,0,1,0-2.632h27.234a1.327,1.327,0,0,1,0,2.632Z" transform="translate(571.608 3255.191)" fill="#ccc"/>
    <path id="Path_4073" data-name="Path 4073" d="M780.787,298.034H753.552a1.327,1.327,0,0,1,0-2.632h27.234a1.327,1.327,0,0,1,0,2.632Z" transform="translate(571.608 3251.568)" fill="#ccc"/>
    <path id="Path_4074" data-name="Path 4074" d="M838.136,298.034H810.9a1.327,1.327,0,0,1,0-2.632h27.235a1.327,1.327,0,0,1,0,2.632Z" transform="translate(559.959 3251.568)" fill="#ccc"/>
    <path id="Path_4075" data-name="Path 4075" d="M640.022,243.862H612.787a1.327,1.327,0,0,1,0-2.632h27.234a1.327,1.327,0,0,1,0,2.632Z" transform="translate(600.205 3262.574)" fill="#ccc"/>
    <path id="Path_4076" data-name="Path 4076" d="M708.311,452.167h-95.09a1.327,1.327,0,0,1,0-2.632h95.09a1.327,1.327,0,0,1,0,2.632Z" transform="translate(600.117 3220.258)" fill="#ccc"/>
    <path id="Path_4077" data-name="Path 4077" d="M707.732,488.5h-95.09a1.327,1.327,0,0,1,0-2.632h95.09a1.327,1.327,0,0,1,0,2.632Z" transform="translate(600.234 3212.875)" fill="#ccc"/>
    <path id="Path_4078" data-name="Path 4078" d="M708.022,506.67h-95.09a1.327,1.327,0,0,1,0-2.632h95.09a1.327,1.327,0,0,1,0,2.632Z" transform="translate(600.176 3209.186)" fill="#ccc"/>
    <path id="Path_4079" data-name="Path 4079" d="M776.3,488.833H749.063a1.327,1.327,0,0,1,0-2.632H776.3a1.327,1.327,0,0,1,0,2.632Z" transform="translate(572.521 3212.809)" fill="#ccc"/>
    <path id="Path_4080" data-name="Path 4080" d="M776.3,506.67H749.063a1.327,1.327,0,0,1,0-2.632H776.3a1.327,1.327,0,0,1,0,2.632Z" transform="translate(572.521 3209.186)" fill="#ccc"/>
    <path id="Path_4081" data-name="Path 4081" d="M833.646,488.833H806.412a1.327,1.327,0,0,1,0-2.632h27.234a1.327,1.327,0,0,1,0,2.632Z" transform="translate(560.87 3212.809)" fill="#ccc"/>
    <path id="Path_4082" data-name="Path 4082" d="M825.053,470.335H675.494a1.327,1.327,0,0,1,0-2.632H825.053a1.327,1.327,0,0,1,0,2.632Z" transform="translate(587.466 3216.566)" fill="#ccc"/>
    <path id="Path_4083" data-name="Path 4083" d="M640.166,470.335H612.931a1.327,1.327,0,0,1,0-2.632h27.235a1.327,1.327,0,0,1,0,2.632Z" transform="translate(600.176 3216.566)" fill="#ccc"/>
    <path id="Path_4084" data-name="Path 4084" d="M538.551,163.221l-36.929,36.467,36.929,36.466,8.309-8.309-27.927-27.927,28.158-28.158Z" transform="translate(746.913 3410.029)" fill="#e6e6e6"/>
    <path id="Path_4085" data-name="Path 4085" d="M614.143,163.221l36.928,36.467-36.928,36.466-8.309-8.309,27.927-27.927L605.6,171.761Z" transform="translate(725.789 3410.029)" fill="#e6e6e6"/>
    <path id="Path_4086" data-name="Path 4086" d="M538.551,163.221l-36.929,36.467,36.929,36.466,8.309-8.309-27.927-27.927,28.158-28.158Z" transform="translate(746.913 3410.029)" fill="#bf353e"/>
    <path id="Path_4087" data-name="Path 4087" d="M614.143,163.221l36.928,36.467-36.928,36.466-8.309-8.309,27.927-27.927L605.6,171.761Z" transform="translate(725.789 3410.029)" fill="#bf353e"/>
    <path id="Path_4088" data-name="Path 4088" d="M369.844,359.3c.008,5.142-1.723,10.39-4,15-.257.529-.712.486-1,1h-58c-.288-.514-.743-.471-1-1-6.118-12.406-4.346-27.8,5-38s24.109-13.016,37-8S369.847,345.466,369.844,359.3Z" transform="translate(775.23 3069.449)" fill="#bf353e"/>
    <circle id="Ellipse_511" data-name="Ellipse 511" cx="11.461" cy="11.461" r="11.461" transform="translate(1100.604 3408.748)" fill="#fff"/>
    <circle id="Ellipse_512" data-name="Ellipse 512" cx="3.82" cy="3.82" r="3.82" transform="translate(1108.244 3416.389)" fill="#3f3d56"/>
    <path id="Path_4089" data-name="Path 4089" d="M303.6,320.766c-2.708-12.126,5.948-24.38,19.333-27.369s26.431,4.419,29.138,16.545-6.163,16.6-19.548,19.588S306.31,332.892,303.6,320.766Z" transform="translate(775.083 3076.748)" fill="#023e57"/>
    <ellipse id="Ellipse_513" data-name="Ellipse 513" cx="16.767" cy="5.264" rx="16.767" ry="5.264" transform="matrix(0.357, -0.934, 0.934, 0.357, 1134.171, 3430.172)" fill="#bf353e"/>
  </g>
</svg>
