<svg xmlns="http://www.w3.org/2000/svg" width="705.111" height="451.052" viewBox="0 0 705.111 451.052">
  <g id="we-known-img-2" transform="translate(-959.999 -1097.132)">
    <path id="Path_3405" data-name="Path 3405" d="M406.34,448.89H258.06a7.049,7.049,0,0,1-7.041-7.041V240.554a7.049,7.049,0,0,1,7.041-7.041H406.34a7.049,7.049,0,0,1,7.041,7.041V441.849a7.049,7.049,0,0,1-7.041,7.041Z" transform="translate(708.98 1020.486)" fill="#fff"/>
    <path id="Path_3406" data-name="Path 3406" d="M344.224,309.852a27.549,27.549,0,0,1-19.013,26.193c-.165.053-.33.105-.5.155-.716.22-1.442.408-2.181.568a27.075,27.075,0,0,1-4.058.563q-.89.06-1.79.06a27.492,27.492,0,0,1-9.106-1.542l-.253-.09a27.543,27.543,0,1,1,36.9-25.908Z" transform="translate(690.272 996.535)" fill="#fff"/>
    <ellipse id="Ellipse_284" data-name="Ellipse 284" cx="13.399" cy="13.399" rx="13.399" ry="13.399" transform="translate(992.896 1297.834)" fill="#bf353e"/>
    <path id="Path_3407" data-name="Path 3407" d="M340.151,351.885l.014-.5a4.142,4.142,0,0,1-2.37-.535,1.539,1.539,0,0,1-.6-1.134.88.88,0,0,1,.289-.725,1.516,1.516,0,0,1,1.549-.014l.414.19-.794-5.806-.5.068.676,4.939a1.768,1.768,0,0,0-1.672.241,1.37,1.37,0,0,0-.466,1.125,2.036,2.036,0,0,0,.8,1.521A4.612,4.612,0,0,0,340.151,351.885Z" transform="translate(660.763 966.568)" fill="#023e57"/>
    <rect id="Rectangle_1138" data-name="Rectangle 1138" width="2.697" height="0.501" transform="translate(993.772 1310.422)" fill="#023e57"/>
    <rect id="Rectangle_1139" data-name="Rectangle 1139" width="2.697" height="0.501" transform="translate(1002.285 1310.422)" fill="#023e57"/>
    <path id="Path_3408" data-name="Path 3408" d="M337.367,379.938a2.454,2.454,0,0,0,.055-.5,2.382,2.382,0,0,0-2.378-2.378h-3.505a2.381,2.381,0,0,0-2.378,2.378,2.313,2.313,0,0,0,.055.5,13.453,13.453,0,0,0-3.708,1.835c-.22.153-.438.318-.646.491l.253.09a27.491,27.491,0,0,0,9.106,1.542q.9,0,1.79-.06a27.07,27.07,0,0,0,4.058-.563c.739-.16,1.465-.348,2.181-.568A13.569,13.569,0,0,0,337.367,379.938Z" transform="translate(672.74 950.027)" fill="#023e57"/>
    <path id="Path_3409" data-name="Path 3409" d="M347.664,389.514a1.843,1.843,0,0,0-.906.318,27.071,27.071,0,0,0,4.058-.563Z" transform="translate(655.823 944.035)" fill="#2f2e41"/>
    <path id="Path_3410" data-name="Path 3410" d="M342.74,323.309l-23.278-8.516a1,1,0,0,1-.6-1.285l.079-.372c1.818-4.969,7.843-8.1,12.813-6.279l7.163,2.62c4.969,1.818,7.129,7.7,5.311,12.671l-.207.563A1,1,0,0,1,342.74,323.309Z" transform="translate(675.709 984.742)" fill="#023e57"/>
    <path id="Path_3411" data-name="Path 3411" d="M338.948,327.924c-32.444,1.2-35.279-2.879-25.394-9.29l2.1-3.859,24.035,8.763Z" transform="translate(680.755 980.6)" fill="#023e57"/>
    <ellipse id="Ellipse_285" data-name="Ellipse 285" cx="1.127" cy="2.128" rx="1.127" ry="2.128" transform="translate(1002.775 1293.463) rotate(-73.27)" fill="#023e57"/>
    <path id="Path_3412" data-name="Path 3412" d="M315.966,337.427a28.223,28.223,0,0,1-9.354-1.584l-.261-.093a28.291,28.291,0,1,1,18.375.294c-.178.057-.345.11-.516.161-.711.219-1.466.415-2.236.583a27.874,27.874,0,0,1-4.171.579C317.2,337.406,316.58,337.427,315.966,337.427Zm0-55.08a26.793,26.793,0,0,0-9.1,51.99l.248.088a26.717,26.717,0,0,0,8.856,1.5c.58,0,1.166-.02,1.739-.058a26.418,26.418,0,0,0,3.95-.548c.729-.158,1.442-.344,2.119-.552.168-.05.327-.1.486-.151a26.793,26.793,0,0,0-8.294-52.268Z" transform="translate(690.99 997.25)" fill="#ccc"/>
    <path id="Path_3414" data-name="Path 3414" d="M406.34,448.89H258.06a7.049,7.049,0,0,1-7.041-7.041V240.554a7.049,7.049,0,0,1,7.041-7.041H406.34a7.049,7.049,0,0,1,7.041,7.041V441.849a7.049,7.049,0,0,1-7.041,7.041ZM258.06,234.341a6.22,6.22,0,0,0-6.213,6.213V441.849a6.22,6.22,0,0,0,6.213,6.213H406.34a6.22,6.22,0,0,0,6.213-6.213V240.554a6.22,6.22,0,0,0-6.213-6.213Z" transform="translate(708.98 1020.486)" fill="#ccc"/>
    <path id="Path_3415" data-name="Path 3415" d="M456.046,329.793H414.088a3.319,3.319,0,1,1,0-6.639h41.958a3.319,3.319,0,1,1,0,6.639Z" transform="translate(630.569 976.486)" fill="#e6e6e6"/>
    <path id="Path_3416" data-name="Path 3416" d="M469.739,351.8H414.088a3.319,3.319,0,1,1,0-6.639h55.651a3.319,3.319,0,1,1,0,6.639Z" transform="translate(630.569 965.688)" fill="#e6e6e6"/>
    <path id="Path_3417" data-name="Path 3417" d="M395.634,436.185h-104.5a3.319,3.319,0,1,1,0-6.639h104.5a3.319,3.319,0,0,1,0,6.639Z" transform="translate(690.921 924.266)" fill="#e6e6e6"/>
    <path id="Path_3418" data-name="Path 3418" d="M409.326,458.187H291.133a3.319,3.319,0,1,1,0-6.639H409.326a3.319,3.319,0,1,1,0,6.639Z" transform="translate(690.921 913.465)" fill="#e6e6e6"/>
    <path id="Path_3419" data-name="Path 3419" d="M395.634,508.758h-104.5a3.319,3.319,0,1,1,0-6.639h104.5a3.319,3.319,0,0,1,0,6.639Z" transform="translate(690.921 888.643)" fill="#e6e6e6"/>
    <path id="Path_3420" data-name="Path 3420" d="M409.326,530.76H291.133a3.319,3.319,0,1,1,0-6.639H409.326a3.319,3.319,0,1,1,0,6.639Z" transform="translate(690.921 877.844)" fill="#e6e6e6"/>
    <path id="Path_3421" data-name="Path 3421" d="M395.634,581.331h-104.5a3.319,3.319,0,1,1,0-6.639h104.5a3.319,3.319,0,0,1,0,6.639Z" transform="translate(690.921 853.021)" fill="#e6e6e6"/>
    <path id="Path_3422" data-name="Path 3422" d="M409.326,603.333H291.133a3.319,3.319,0,1,1,0-6.639H409.326a3.319,3.319,0,1,1,0,6.639Z" transform="translate(690.921 842.221)" fill="#e6e6e6"/>
    <path id="Path_3849" data-name="Path 3849" d="M369.844,359.3c.008,5.142-1.723,10.39-4,15-.257.529-.712.486-1,1h-58c-.288-.514-.743-.471-1-1-6.118-12.406-4.346-27.8,5-38s24.109-13.016,37-8S369.847,345.466,369.844,359.3Z" transform="translate(933.23 797.098)" fill="#bf353e"/>
    <circle id="Ellipse_411" data-name="Ellipse 411" cx="11.461" cy="11.461" r="11.461" transform="translate(1258.604 1136.396)" fill="#fff"/>
    <circle id="Ellipse_412" data-name="Ellipse 412" cx="3.82" cy="3.82" r="3.82" transform="translate(1266.244 1144.037)" fill="#3f3d56"/>
    <path id="Path_3850" data-name="Path 3850" d="M303.6,320.766c-2.708-12.126,5.948-24.38,19.333-27.369s26.431,4.419,29.138,16.545-6.163,16.6-19.548,19.588S306.31,332.892,303.6,320.766Z" transform="translate(933.083 804.396)" fill="#023e57"/>
    <ellipse id="Ellipse_437" data-name="Ellipse 437" cx="16.767" cy="5.264" rx="16.767" ry="5.264" transform="matrix(0.357, -0.934, 0.934, 0.357, 1292.171, 1157.82)" fill="#bf353e"/>
    <rect id="Rectangle_1272" data-name="Rectangle 1272" width="457.538" height="293.028" transform="translate(1207.572 1172.656)" fill="#e6e6e6"/>
    <rect id="Rectangle_1273" data-name="Rectangle 1273" width="431.372" height="238.939" transform="translate(1220.656 1209.41)" fill="#fff"/>
    <rect id="Rectangle_1274" data-name="Rectangle 1274" width="457.538" height="19.438" transform="translate(1207.377 1172.396)" fill="#bf353e"/>
    <ellipse id="Ellipse_432" data-name="Ellipse 432" cx="3.603" cy="3.603" rx="3.603" ry="3.603" transform="translate(1218.219 1178.732)" fill="#fff"/>
    <ellipse id="Ellipse_433" data-name="Ellipse 433" cx="3.603" cy="3.603" rx="3.603" ry="3.603" transform="translate(1231.895 1178.732)" fill="#fff"/>
    <ellipse id="Ellipse_434" data-name="Ellipse 434" cx="3.603" cy="3.603" rx="3.603" ry="3.603" transform="translate(1245.569 1178.732)" fill="#fff"/>
    <path id="Path_3855" data-name="Path 3855" d="M815.719,243.7H675.278a1.247,1.247,0,0,1,0-2.472H815.719a1.247,1.247,0,0,1,0,2.472Z" transform="translate(714.25 988.088)" fill="#ccc"/>
    <path id="Path_3856" data-name="Path 3856" d="M702.878,261.868H613.585a1.247,1.247,0,0,1,0-2.472h89.293a1.247,1.247,0,0,1,0,2.472Z" transform="translate(729.779 983.514)" fill="#ccc"/>
    <path id="Path_3857" data-name="Path 3857" d="M832.926,262.2H743.633a1.247,1.247,0,0,1,0-2.472h89.293a1.247,1.247,0,0,1,0,2.472Z" transform="translate(697.043 983.432)" fill="#ccc"/>
    <path id="Path_3858" data-name="Path 3858" d="M703.167,280.036H613.875a1.247,1.247,0,0,1,0-2.472h89.292a1.247,1.247,0,0,1,0,2.472Z" transform="translate(729.707 978.941)" fill="#ccc"/>
    <path id="Path_3859" data-name="Path 3859" d="M703.457,298.2H614.164a1.247,1.247,0,0,1,0-2.472h89.293a1.247,1.247,0,0,1,0,2.472Z" transform="translate(729.634 974.367)" fill="#ccc"/>
    <path id="Path_3860" data-name="Path 3860" d="M779.056,280.036H753.481a1.247,1.247,0,0,1,0-2.472h25.574a1.247,1.247,0,0,1,0,2.472Z" transform="translate(694.563 978.941)" fill="#ccc"/>
    <path id="Path_3861" data-name="Path 3861" d="M779.056,297.873H753.481a1.247,1.247,0,0,1,0-2.472h25.574a1.247,1.247,0,0,1,0,2.472Z" transform="translate(694.563 974.451)" fill="#ccc"/>
    <path id="Path_3862" data-name="Path 3862" d="M836.4,297.873H810.831a1.247,1.247,0,0,1,0-2.472H836.4a1.247,1.247,0,0,1,0,2.472Z" transform="translate(680.127 974.451)" fill="#ccc"/>
    <path id="Path_3863" data-name="Path 3863" d="M638.291,243.7H612.717a1.247,1.247,0,0,1,0-2.472h25.574a1.247,1.247,0,0,1,0,2.472Z" transform="translate(729.998 988.088)" fill="#ccc"/>
    <path id="Path_3864" data-name="Path 3864" d="M702.443,452.007H613.15a1.247,1.247,0,0,1,0-2.472h89.293a1.247,1.247,0,0,1,0,2.472Z" transform="translate(729.889 935.65)" fill="#ccc"/>
    <path id="Path_3865" data-name="Path 3865" d="M701.864,488.341H612.571a1.247,1.247,0,0,1,0-2.472h89.293a1.247,1.247,0,0,1,0,2.472Z" transform="translate(730.035 926.504)" fill="#ccc"/>
    <path id="Path_3866" data-name="Path 3866" d="M702.154,506.51H612.861a1.247,1.247,0,0,1,0-2.472h89.293a1.247,1.247,0,0,1,0,2.472Z" transform="translate(729.962 921.93)" fill="#ccc"/>
    <path id="Path_3867" data-name="Path 3867" d="M774.566,488.672H748.992a1.247,1.247,0,0,1,0-2.472h25.574a1.247,1.247,0,0,1,0,2.472Z" transform="translate(695.693 926.42)" fill="#ccc"/>
    <path id="Path_3868" data-name="Path 3868" d="M774.566,506.51H748.992a1.247,1.247,0,0,1,0-2.472h25.574a1.246,1.246,0,0,1,0,2.472Z" transform="translate(695.693 921.93)" fill="#ccc"/>
    <path id="Path_3869" data-name="Path 3869" d="M831.915,488.672H806.341a1.247,1.247,0,0,1,0-2.472h25.574a1.247,1.247,0,0,1,0,2.472Z" transform="translate(681.257 926.42)" fill="#ccc"/>
    <path id="Path_3870" data-name="Path 3870" d="M815.864,470.175H675.423a1.247,1.247,0,0,1,0-2.472H815.864a1.247,1.247,0,0,1,0,2.472Z" transform="translate(714.213 931.078)" fill="#ccc"/>
    <path id="Path_3871" data-name="Path 3871" d="M638.435,470.175H612.861a1.247,1.247,0,0,1,0-2.472h25.574a1.247,1.247,0,0,1,0,2.472Z" transform="translate(729.962 931.078)" fill="#ccc"/>
    <path id="Path_3872" data-name="Path 3872" d="M536.3,163.221l-34.677,34.244L536.3,231.708l7.8-7.8-26.225-26.225,26.441-26.441Z" transform="translate(874.47 1131.309)" fill="#e6e6e6"/>
    <path id="Path_3873" data-name="Path 3873" d="M613.622,163.221,648.3,197.465l-34.676,34.243-7.8-7.8,26.224-26.225L605.6,171.24Z" transform="translate(848.295 1131.309)" fill="#e6e6e6"/>
    <path id="Path_3874" data-name="Path 3874" d="M536.3,163.221l-34.677,34.244L536.3,231.708l7.8-7.8-26.225-26.225,26.441-26.441Z" transform="translate(874.47 1131.309)" fill="#bf353e"/>
    <path id="Path_3875" data-name="Path 3875" d="M613.622,163.221,648.3,197.465l-34.676,34.243-7.8-7.8,26.224-26.225L605.6,171.24Z" transform="translate(848.295 1131.309)" fill="#bf353e"/>
    <path id="Path_3876" data-name="Path 3876" d="M624.313,698.964c10.79,14.45,33.187,15.971,33.187,15.971s4.9-21.907-5.886-36.357-33.187-15.971-33.187-15.971S613.523,684.514,624.313,698.964Z" transform="translate(716.216 823.85)" fill="#e6e6e6"/>
    <path id="Path_3877" data-name="Path 3877" d="M692.509,710.384c-7.12,9.535-21.9,10.539-21.9,10.539s-3.236-14.456,3.884-23.991,21.9-10.539,21.9-10.539S699.629,700.849,692.509,710.384Z" transform="translate(702.984 817.861)" fill="#e6e6e6"/>
    <ellipse id="Ellipse_403" data-name="Ellipse 403" cx="54.505" cy="4.157" rx="54.505" ry="4.157" transform="translate(1000.437 1526.619)" fill="#e6e6e6"/>
    <g id="Group_1234" data-name="Group 1234" transform="translate(1044.305 1424.008)">
      <ellipse id="Ellipse_413" data-name="Ellipse 413" cx="16.767" cy="5.264" rx="16.767" ry="5.264" transform="translate(11.973 51.438) rotate(-110.918)" fill="#bf353e"/>
      <ellipse id="Ellipse_414" data-name="Ellipse 414" cx="33.534" cy="33.534" rx="33.534" ry="33.534" transform="matrix(-0.16, -0.987, 0.987, -0.16, 14.168, 97.688)" fill="#bf353e"/>
      <rect id="Rectangle_1267" data-name="Rectangle 1267" width="10.188" height="18.253" transform="translate(46.992 85.535)" fill="#bf353e"/>
      <rect id="Rectangle_1268" data-name="Rectangle 1268" width="10.188" height="18.253" transform="translate(26.616 85.535)" fill="#bf353e"/>
      <ellipse id="Ellipse_415" data-name="Ellipse 415" cx="8.49" cy="3.184" rx="8.49" ry="3.184" transform="translate(40.2 100.816)" fill="#bf353e"/>
      <ellipse id="Ellipse_416" data-name="Ellipse 416" cx="8.49" cy="3.184" rx="8.49" ry="3.184" transform="translate(19.824 100.392)" fill="#bf353e"/>
      <path id="Path_3852" data-name="Path 3852" d="M503.8,606.741c2.708-12.126-5.948-24.38-19.333-27.368s-26.431,4.419-29.138,16.545,6.163,16.6,19.548,19.588S501.094,618.868,503.8,606.741Z" transform="translate(-429.375 -578.711)" fill="#023e57"/>
      <ellipse id="Ellipse_417" data-name="Ellipse 417" cx="5.264" cy="16.767" rx="5.264" ry="16.767" transform="translate(62.038 55.719) rotate(-24)" fill="#bf353e"/>
      <ellipse id="Ellipse_436" data-name="Ellipse 436" cx="11.18" cy="11.18" rx="11.18" ry="11.18" transform="translate(29.725 43.367)" fill="#fff"/>
      <ellipse id="Ellipse_435" data-name="Ellipse 435" cx="3.727" cy="3.727" rx="3.727" ry="3.727" transform="translate(33.076 47.711)" fill="#3f3d56"/>
    </g>
    <ellipse id="Ellipse_402" data-name="Ellipse 402" cx="54.505" cy="4.157" rx="54.505" ry="4.157" transform="translate(1489.072 1535.553)" fill="#e6e6e6"/>
    <circle id="Ellipse_418" data-name="Ellipse 418" cx="32.713" cy="32.713" r="32.713" transform="translate(1510.52 1457.547)" fill="#bf353e"/>
    <rect id="Rectangle_1269" data-name="Rectangle 1269" width="9.938" height="17.806" transform="matrix(1, -0.005, 0.005, 1, 1548.322, 1515.908)" fill="#bf353e"/>
    <rect id="Rectangle_1270" data-name="Rectangle 1270" width="9.938" height="17.806" transform="matrix(1, -0.005, 0.005, 1, 1528.446, 1516.002)" fill="#bf353e"/>
    <ellipse id="Ellipse_419" data-name="Ellipse 419" cx="8.282" cy="3.106" rx="8.282" ry="3.106" transform="translate(1522.716 1537.148) rotate(-30.266)" fill="#bf353e"/>
    <ellipse id="Ellipse_420" data-name="Ellipse 420" cx="8.282" cy="3.106" rx="8.282" ry="3.106" transform="translate(1542.178 1537.057) rotate(-30.266)" fill="#bf353e"/>
    <circle id="Ellipse_421" data-name="Ellipse 421" cx="11.18" cy="11.18" r="11.18" transform="translate(1531.186 1470.803)" fill="#fff"/>
    <circle id="Ellipse_422" data-name="Ellipse 422" cx="3.727" cy="3.727" r="3.727" transform="translate(1534.81 1473.512)" fill="#3f3d56"/>
    <path id="Path_3853" data-name="Path 3853" d="M887.229,476.473c2.586-11.842-5.913-23.755-18.983-26.61s-25.763,4.43-28.349,16.272,6.087,16.164,19.158,19.019S884.642,488.315,887.229,476.473Z" transform="translate(687.595 983.217)" fill="#023e57"/>
    <ellipse id="Ellipse_423" data-name="Ellipse 423" cx="5.135" cy="16.356" rx="5.135" ry="16.356" transform="matrix(-0.695, -0.719, 0.719, -0.695, 1502.321, 1493.164)" fill="#bf353e"/>
    <ellipse id="Ellipse_424" data-name="Ellipse 424" cx="5.135" cy="16.356" rx="5.135" ry="16.356" transform="translate(1570.485 1484.547) rotate(-1)" fill="#bf353e"/>
    <path id="Path_3854" data-name="Path 3854" d="M864.5,540.378a7.454,7.454,0,1,1-14.907.084v-.015c-.019-4.116,3.314-4.985,7.43-5S864.476,536.261,864.5,540.378Z" transform="translate(685.349 964.137)" fill="#fff"/>
    <path id="Path_22" data-name="Path 22" d="M513.462,150.937h-1.128v-30.9a17.882,17.882,0,0,0-17.882-17.882H428.994a17.882,17.882,0,0,0-17.882,17.882v169.5a17.882,17.882,0,0,0,17.882,17.882h65.458a17.882,17.882,0,0,0,17.882-17.882V172.928h1.128Z" transform="translate(725.638 1240.765)" fill="#023e57"/>
    <path id="Path_23" data-name="Path 23" d="M506.959,117.918h-8.544a6.344,6.344,0,0,1-5.875,8.74h-37.5a6.344,6.344,0,0,1-5.874-8.74h-7.98a13.354,13.354,0,0,0-13.354,13.354V300.522a13.354,13.354,0,0,0,13.354,13.354h65.773a13.354,13.354,0,0,0,13.354-13.354h0V131.272a13.354,13.354,0,0,0-13.354-13.354Z" transform="translate(713.853 1229.657)" fill="#bf353e"/>
    <g id="Group_1277" data-name="Group 1277" transform="translate(1172.465 1416.224)">
      <path id="Path_4102" data-name="Path 4102" d="M298.577,121.106a8.118,8.118,0,0,1,5.957-3.3,8.1,8.1,0,0,1-1.96,6.063c-2.643,3.176-5.648,2.657-5.648,2.657A7.043,7.043,0,0,1,298.577,121.106Z" transform="translate(-281.517 -117.805)" fill="#fff" fill-rule="evenodd"/>
      <path id="Path_4103" data-name="Path 4103" d="M66.32,265.945c1.282,0,3.661-1.762,6.759-1.762a8.465,8.465,0,0,1,7.428,3.793,8.236,8.236,0,0,0-4.1,7.186,8.446,8.446,0,0,0,5.11,7.719s-3.572,10.054-8.4,10.054c-2.216,0-3.939-1.493-6.274-1.493-2.379,0-4.741,1.549-6.278,1.549-4.406,0-9.972-9.537-9.972-17.2,0-7.542,4.711-11.5,9.13-11.5C62.6,264.289,64.826,265.945,66.32,265.945Z" transform="translate(-50.594 -255.063)" fill="#fff" fill-rule="evenodd"/>
    </g>
  </g>
</svg>
