<svg xmlns="http://www.w3.org/2000/svg" width="153.945" height="130.104" viewBox="0 0 153.945 130.104">
  <g id="Web_development" data-name="Web development" transform="translate(0)">
    <path id="Path_32" data-name="Path 32" d="M565.989,592.177H432.79a9.087,9.087,0,0,1-9.076-9.1V473.765a9.087,9.087,0,0,1,9.076-9.1h133.2a9.087,9.087,0,0,1,9.076,9.1V583.08a9.087,9.087,0,0,1-9.076,9.1Zm0,0" transform="translate(-422.417 -463.37)" fill="#fbfcff"/>
    <path id="Path_33" data-name="Path 33" d="M565.989,464.667H432.79c-5.013,0-9.076,2.308-9.076,5.155v9.263H575.065v-9.263c0-2.847-4.064-5.155-9.076-5.155Zm0,0" transform="translate(-422.417 -463.37)" fill="#bf353e"/>
    <path id="Path_34" data-name="Path 34" d="M562.421,460.645H430.908a11.229,11.229,0,0,0-11.216,11.216V579.534a11.229,11.229,0,0,0,11.216,11.216H562.421a11.229,11.229,0,0,0,11.216-11.216V471.861a11.229,11.229,0,0,0-11.216-11.216Zm6.706,25.063H455.111a2.255,2.255,0,0,0,0,4.51H569.128v89.316a6.714,6.714,0,0,1-6.706,6.707H430.908a6.715,6.715,0,0,1-6.706-6.707V490.218h20.367a2.255,2.255,0,1,0,0-4.51H424.2V471.861a6.714,6.714,0,0,1,6.706-6.708H562.421a6.714,6.714,0,0,1,6.706,6.708Zm0,0" transform="translate(-419.692 -460.645)" fill="#023e57"/>
    <path id="Path_35" data-name="Path 35" d="M453.165,484.3a1.293,1.293,0,1,1-1.294-1.294,1.293,1.293,0,0,1,1.294,1.294Zm0,0" transform="translate(-440.618 -475.797)" fill="#023e57"/>
    <path id="Path_36" data-name="Path 36" d="M472.065,484.3a1.293,1.293,0,1,1-1.293-1.294,1.293,1.293,0,0,1,1.293,1.294Zm0,0" transform="translate(-441.211 -475.797)" fill="#023e57"/>
    <path id="Path_37" data-name="Path 37" d="M490.966,484.3a1.293,1.293,0,1,1-1.293-1.294,1.293,1.293,0,0,1,1.293,1.294Zm0,0" transform="translate(-449.381 -475.797)" fill="#023e57"/>
    <path id="Path_38" data-name="Path 38" d="M644.728,483h-7.6a1.3,1.3,0,1,0,0,2.594h7.6a1.3,1.3,0,1,0,0-2.594Zm0,0" transform="translate(-500.744 -475.789)" fill="#606060"/>
  </g>
</svg>
